<svg xmlns="http://www.w3.org/2000/svg" width="537.675" height="432.399" viewBox="0 0 537.675 432.399"><defs><style>.a{fill:#525252;}.b,.c{fill:#fff;}.b{font-size:115px;font-family:IBMPlexSans-Bold, IBM Plex Sans;font-weight:700;}.d{fill:#3d2768;}.e{fill:rgba(15,0,0,0.1);}.f{fill:#c4e4f9;}.g{fill:#0f62fe;}.h{fill:#647ddd;opacity:0.17;}.i{fill:#bddcff;}.j{fill:#8dc0ef;}.k{fill:#e2e8f2;}.l{fill:#1f3598;}.m{fill:#d5e8fa;}.n{fill:#eff6fc;}.o{fill:#75a3ec;}.p{fill:#f2f4f9;}.q{fill:#484255;}.r{fill:#577de8;}.s{fill:#f2f4fa;}.t{fill:#3772ce;}.u{fill:#ff8358;}.v{fill:#ced6e9;}.w{fill:#743c45;}.x{fill:#312103;}.y{opacity:0.34;}.z{fill:#4568c7;}.aa{fill:#c1d7ea;}.ab{fill:#fd8358;}</style></defs><g transform="translate(-411.325 -5568)"><g transform="translate(-4571 -7844)"><circle class="a" cx="130" cy="130" r="130" transform="translate(5255 13412)"/><text class="b" transform="translate(5345 13584)"><tspan x="-34.5" y="0">7</tspan></text><g transform="translate(4933.679 13484.018)"><path class="c" d="M465.692,43.11a12.756,12.756,0,1,1,12.755-12.757A12.77,12.77,0,0,1,465.692,43.11Zm0-23.647a10.89,10.89,0,1,0,10.89,10.89A10.9,10.9,0,0,0,465.692,19.463Z" transform="translate(6.209 6.208)"/><path class="c" d="M465.991,102.52a.935.935,0,0,1-.935-.933V61.612a2.032,2.032,0,0,0-1.343-1.908,24.577,24.577,0,1,1,16.379,0,2.03,2.03,0,0,0-1.348,1.908v4.506a2.025,2.025,0,0,0,2.023,2.023H492.59a.935.935,0,0,1,.935.933V77.94a.935.935,0,0,1-.935.935H480.767a2.024,2.024,0,0,0-2.023,2.021v2.956a2.025,2.025,0,0,0,2.023,2.023H498.5a.935.935,0,0,1,.933.933v8.866a.933.933,0,0,1-.933.933H480.767a2.025,2.025,0,0,0-2.023,2.023v2.956a.933.933,0,0,1-.931.933Zm2.954-41.38a2.025,2.025,0,0,0-2.023,2.023V98.631a2.025,2.025,0,0,0,2.023,2.023h5.912a2.024,2.024,0,0,0,2.021-2.023V63.163a2.024,2.024,0,0,0-2.021-2.023Zm11.823,26.6a2.025,2.025,0,0,0-2.023,2.023v2.954a2.025,2.025,0,0,0,2.023,2.023h14.779a2.025,2.025,0,0,0,2.023-2.023V89.765a2.025,2.025,0,0,0-2.023-2.023Zm0-17.735a2.025,2.025,0,0,0-2.023,2.023v2.954a2.025,2.025,0,0,0,2.023,2.023h8.869a2.025,2.025,0,0,0,2.021-2.023V72.03a2.025,2.025,0,0,0-2.021-2.023ZM471.9,13.848A22.714,22.714,0,1,0,494.614,36.56,22.74,22.74,0,0,0,471.9,13.848Z" transform="translate(0 0)"/><rect class="c" width="1.865" height="1.866" transform="translate(508.138 26.762)"/><rect class="c" width="1.865" height="1.866" transform="translate(508.138 14.939)"/><rect class="c" width="1.865" height="1.866" transform="translate(519.961 26.762)"/><rect class="c" width="1.865" height="1.866" transform="translate(531.784 26.762)"/><rect class="c" width="13.688" height="1.865" transform="translate(508.138 38.585)"/><rect class="c" width="1.865" height="1.865" transform="translate(531.784 38.585)"/><rect class="c" width="13.688" height="1.866" transform="translate(519.961 14.939)"/><rect class="c" width="1.865" height="1.865" transform="translate(508.138 50.408)"/><rect class="c" width="13.688" height="1.865" transform="translate(519.961 50.408)"/><rect class="c" width="1.865" height="1.865" transform="translate(508.138 62.231)"/><rect class="c" width="1.865" height="1.865" transform="translate(519.961 62.231)"/><rect class="c" width="1.865" height="1.865" transform="translate(531.784 62.231)"/><rect class="c" width="1.865" height="1.866" transform="translate(508.138 97.7)"/><rect class="c" width="1.865" height="1.866" transform="translate(519.961 97.7)"/><rect class="c" width="1.865" height="1.866" transform="translate(531.784 97.7)"/><rect class="c" width="1.865" height="1.866" transform="translate(508.138 74.053)"/><rect class="c" width="13.688" height="1.866" transform="translate(519.961 74.053)"/><rect class="c" width="13.688" height="1.866" transform="translate(508.138 85.877)"/><rect class="c" width="1.865" height="1.866" transform="translate(531.784 85.877)"/></g></g><path class="d" d="M3048,672.045a3.255,3.255,0,0,0-.632.124c.25-4.52.8-8.2,1.608-8.446,0,0-.174,3.59-.1,8.351a1.151,1.151,0,0,0-.174-.025c-.121-.012-.241-.021-.361-.021A2.867,2.867,0,0,0,3048,672.045Z" transform="translate(-2499.401 5225.574)"/><g transform="translate(411.325 5879.484)"><path class="e" d="M276,660H813.675s-11.269,20.927-37.026,17.708a149.484,149.484,0,0,1-20.927-1.61c-9.659-1.61-24.147,3.22-27.367,8.049,0,0-24.147,14.488-64.392,0,0,0-37.026-16.1-62.782-1.61,0,0-19.318,20.928-69.222-4.829,0,0-12.879-8.049-35.416,8.049,0,0-22.537,19.318-66-8.049,0,0-24.147-6.439-51.514,6.439C379.028,684.147,324.294,692.2,276,660Z" transform="translate(-276 -571.461)"/><path class="f" d="M582.407,634.075s27.206,15.026,15.19,36.5C597.6,670.576,578.133,666.564,582.407,634.075Z" transform="translate(-89.525 -587.27)"/><path class="g" d="M614.007,623s14.488,46.684-22.537,57.953C591.47,680.953,573.762,655.2,614.007,623Z" transform="translate(-85.991 -594.023)"/><path class="g" d="M334.352,621.92s-41.564,22.958-23.207,55.765C311.145,677.685,340.883,671.557,334.352,621.92Z" transform="translate(-257.422 -594.682)"/><path class="f" d="M292.061,605s-22.135,71.324,34.43,88.539C326.492,693.539,353.546,654.189,292.061,605Z" transform="translate(-268.808 -605)"/></g><g transform="translate(411.325 5879.484)"><path class="e" d="M276,660H813.675s-11.269,20.927-37.026,17.708a149.484,149.484,0,0,1-20.927-1.61c-9.659-1.61-24.147,3.22-27.367,8.049,0,0-24.147,14.488-64.392,0,0,0-37.026-16.1-62.782-1.61,0,0-19.318,20.928-69.222-4.829,0,0-12.879-8.049-35.416,8.049,0,0-22.537,19.318-66-8.049,0,0-24.147-6.439-51.514,6.439C379.028,684.147,324.294,692.2,276,660Z" transform="translate(-276 -571.461)"/><path class="f" d="M582.407,634.075s27.206,15.026,15.19,36.5C597.6,670.576,578.133,666.564,582.407,634.075Z" transform="translate(-89.525 -587.27)"/><path class="g" d="M614.007,623s14.488,46.684-22.537,57.953C591.47,680.953,573.762,655.2,614.007,623Z" transform="translate(-85.991 -594.023)"/><path class="g" d="M334.352,621.92s-41.564,22.958-23.207,55.765C311.145,677.685,340.883,671.557,334.352,621.92Z" transform="translate(-257.422 -594.682)"/><path class="f" d="M292.061,605s-22.135,71.324,34.43,88.539C326.492,693.539,353.546,654.189,292.061,605Z" transform="translate(-268.808 -605)"/></g><g transform="translate(-5204.675 -7668)"><path class="h" d="M2082.343,1008.589c-14.278,0-25.894,7.664-25.894,17.085s11.616,17.085,25.894,17.085,25.893-7.664,25.893-17.085S2096.62,1008.589,2082.343,1008.589Z" transform="translate(3962.406 12564.882)"/><path class="i" d="M2102.192,998.561l-6,30.1H2056.41l-6-30.1Z" transform="translate(3972.292 12554.457)"/><path class="i" d="M2096.515,1029.69c0,5.088-7.708,10.748-18.906,11.063-.323.007-.653.015-.983.015-11.723,0-19.889-5.84-19.889-11.078s8.166-11.086,19.889-11.086a31.763,31.763,0,0,1,8.278,1.058C2092.019,1021.576,2096.515,1025.8,2096.515,1029.69Z" transform="translate(3971.966 12553.424)"/><path class="j" d="M2103.653,998.561l-6,30.1c0,5.089-7.708,10.748-18.906,11.063a19.463,19.463,0,0,0,3.5-4.653,27.867,27.867,0,0,0,2.424-6.41,53.025,53.025,0,0,0,1.374-10.027c.1-1.718.157-3.437.2-5.141q.214-7.465.435-14.928Z" transform="translate(3970.832 12554.457)"/><ellipse class="k" cx="25.893" cy="17.085" rx="25.893" ry="17.085" transform="translate(6022.698 13535.93)"/><ellipse class="l" cx="19.889" cy="11.081" rx="19.889" ry="11.081" transform="translate(6028.702 13541.934)"/><circle class="j" cx="17.859" cy="17.859" r="17.859" transform="translate(6028.103 13482.891) rotate(-80.783)"/><circle class="j" cx="12.663" cy="12.663" r="12.663" transform="translate(6032.047 13487.527) rotate(-22.5)"/><ellipse class="j" cx="13.784" cy="13.784" rx="13.784" ry="13.784" transform="translate(6030.582 13533.802) rotate(-67.5)"/><path class="j" d="M2082.4,1000.239a4.959,4.959,0,1,1-4.958-4.958A4.959,4.959,0,0,1,2082.4,1000.239Z" transform="translate(3971.155 12554.626)"/><path class="j" d="M2091,920.662c-3.962,5.058-3.837,6.494-2.221,10.754H2065.1c1.616-4.26,1.741-5.7-2.22-10.754Z" transform="translate(3971.649 12558.473)"/><path class="j" d="M2089.222,922.824c-13.063,12.178-11.5,25.676-2.1,35.758h-20.164c9.4-10.082,10.966-23.58-2.1-35.758Z" transform="translate(3971.547 12558.361)"/><path class="j" d="M2088.723,923.322c-13.534,11.651-11.128,66.215-7.893,69.973h-7.517c3.237-3.758,5.642-58.323-7.893-69.973Z" transform="translate(3971.519 12558.335)"/><path class="j" d="M2086.295,946.01c-4.409,4.567-4.506,8.451.465,13.25h-19.148c4.972-4.8,4.874-8.683.465-13.25Z" transform="translate(3971.405 12557.166)"/><path class="j" d="M2085.616,946.76c-9.507,8.364-7.917,43.98-4.642,47.7h-7.446c3.275-3.724,4.866-39.339-4.641-47.7Z" transform="translate(3971.34 12557.127)"/><path class="j" d="M2085.366,982.2c-8.94,6.492-6.423,11.24-4.088,14.456h-8.025c2.336-3.216,4.852-7.964-4.087-14.456Z" transform="translate(3971.325 12555.301)"/><path class="h" d="M2082.343,1008.589c-14.278,0-25.894,7.664-25.894,17.085s11.616,17.085,25.894,17.085,25.893-7.664,25.893-17.085S2096.62,1008.589,2082.343,1008.589Z" transform="translate(3962.406 12564.882)"/><path class="i" d="M2102.192,998.561l-6,30.1H2056.41l-6-30.1Z" transform="translate(3972.292 12554.457)"/><path class="i" d="M2096.515,1029.69c0,5.088-7.708,10.748-18.906,11.063-.323.007-.653.015-.983.015-11.723,0-19.889-5.84-19.889-11.078s8.166-11.086,19.889-11.086a31.763,31.763,0,0,1,8.278,1.058C2092.019,1021.576,2096.515,1025.8,2096.515,1029.69Z" transform="translate(3971.966 12553.424)"/><path class="j" d="M2103.653,998.561l-6,30.1c0,5.089-7.708,10.748-18.906,11.063a19.463,19.463,0,0,0,3.5-4.653,27.867,27.867,0,0,0,2.424-6.41,53.025,53.025,0,0,0,1.374-10.027c.1-1.718.157-3.437.2-5.141q.214-7.465.435-14.928Z" transform="translate(3970.832 12554.457)"/><ellipse class="k" cx="25.893" cy="17.085" rx="25.893" ry="17.085" transform="translate(6022.698 13535.93)"/><ellipse class="l" cx="19.889" cy="11.081" rx="19.889" ry="11.081" transform="translate(6028.702 13541.934)"/><circle class="j" cx="17.859" cy="17.859" r="17.859" transform="translate(6028.103 13482.891) rotate(-80.783)"/><circle class="j" cx="12.663" cy="12.663" r="12.663" transform="translate(6032.047 13487.527) rotate(-22.5)"/><ellipse class="j" cx="13.784" cy="13.784" rx="13.784" ry="13.784" transform="translate(6030.582 13533.802) rotate(-67.5)"/><path class="j" d="M2082.4,1000.239a4.959,4.959,0,1,1-4.958-4.958A4.959,4.959,0,0,1,2082.4,1000.239Z" transform="translate(3971.155 12554.626)"/><path class="j" d="M2091,920.662c-3.962,5.058-3.837,6.494-2.221,10.754H2065.1c1.616-4.26,1.741-5.7-2.22-10.754Z" transform="translate(3971.649 12558.473)"/><path class="j" d="M2089.222,922.824c-13.063,12.178-11.5,25.676-2.1,35.758h-20.164c9.4-10.082,10.966-23.58-2.1-35.758Z" transform="translate(3971.547 12558.361)"/><path class="j" d="M2088.723,923.322c-13.534,11.651-11.128,66.215-7.893,69.973h-7.517c3.237-3.758,5.642-58.323-7.893-69.973Z" transform="translate(3971.519 12558.335)"/><path class="j" d="M2086.295,946.01c-4.409,4.567-4.506,8.451.465,13.25h-19.148c4.972-4.8,4.874-8.683.465-13.25Z" transform="translate(3971.405 12557.166)"/><path class="j" d="M2085.616,946.76c-9.507,8.364-7.917,43.98-4.642,47.7h-7.446c3.275-3.724,4.866-39.339-4.641-47.7Z" transform="translate(3971.34 12557.127)"/><path class="j" d="M2085.366,982.2c-8.94,6.492-6.423,11.24-4.088,14.456h-8.025c2.336-3.216,4.852-7.964-4.087-14.456Z" transform="translate(3971.325 12555.301)"/></g><g transform="translate(-14741 -5215.502)"><path class="j" d="M2152.758,878.976a4.778,4.778,0,0,1-4.325,0,1.318,1.318,0,0,1,0-2.5,4.785,4.785,0,0,1,4.325,0A1.318,1.318,0,0,1,2152.758,878.976Z" transform="translate(13353.651 10216.461)"/><path class="j" d="M2153.655,811.954v56.852a.626.626,0,0,1-.047.222.5.5,0,0,1-.443.267h-5.14a.5.5,0,0,1-.443-.267.64.64,0,0,1-.046-.222V811.954a.492.492,0,0,1,.489-.489h5.14A.493.493,0,0,1,2153.655,811.954Z" transform="translate(13353.65 10224.851)"/><path class="j" d="M2153.655,826.6a.427.427,0,0,1-.056.212.985.985,0,0,1,.056.323,1.506,1.506,0,0,1-.9,1.246,4.77,4.77,0,0,1-4.329,0,1.5,1.5,0,0,1-.9-1.246,1,1,0,0,1,.055-.323.433.433,0,0,1-.055-.212v-9.737a.492.492,0,0,1,.489-.489h5.14a.493.493,0,0,1,.49.489Z" transform="translate(13353.65 10224.212)"/><path class="m" d="M2158.983,813.3V802.41l-20.125,12.938,1.345,3.582Z" transform="translate(13354.777 10226.029)"/><path class="j" d="M2039.064,945.453a4.779,4.779,0,0,1-4.326,0,1.319,1.319,0,0,1,0-2.5,4.781,4.781,0,0,1,4.326,0A1.319,1.319,0,0,1,2039.064,945.453Z" transform="translate(13455.927 10110.484)"/><path class="h" d="M2112.27,860.183l-161.676-91.949L1850.6,828.268a1.8,1.8,0,0,0,.042,3.108l157.169,88.61a10.512,10.512,0,0,0,10.645-.1l93.847-56.317A1.961,1.961,0,0,0,2112.27,860.183Z" transform="translate(13413.166 10229.381)"/><path class="j" d="M2039.959,878.431v56.852a.637.637,0,0,1-.046.222.5.5,0,0,1-.443.268h-5.141a.5.5,0,0,1-.443-.268.638.638,0,0,1-.046-.222V878.431a.493.493,0,0,1,.489-.49h5.141A.492.492,0,0,1,2039.959,878.431Z" transform="translate(13389.219 10215.108)"/><path class="j" d="M2039.959,888.168a.438.438,0,0,1-.055.212,1,1,0,0,1,.055.323,1.5,1.5,0,0,1-.9,1.246,4.77,4.77,0,0,1-4.329,0,1.506,1.506,0,0,1-.9-1.246.979.979,0,0,1,.056-.323.429.429,0,0,1-.056-.212v-9.737a.493.493,0,0,1,.489-.49h5.141a.492.492,0,0,1,.489.49Z" transform="translate(13389.219 10215.108)"/><path class="j" d="M1851.878,841.623a4.779,4.779,0,0,1-4.325,0,1.318,1.318,0,0,1,0-2.5,4.778,4.778,0,0,1,4.325,0A1.318,1.318,0,0,1,1851.878,841.623Z" transform="translate(13413.565 10220.228)"/><path class="j" d="M1852.774,774.6v56.852a.636.636,0,0,1-.046.221.5.5,0,0,1-.442.268h-5.142a.5.5,0,0,1-.443-.268.647.647,0,0,1-.045-.221V774.6a.493.493,0,0,1,.489-.49h5.142A.492.492,0,0,1,1852.774,774.6Z" transform="translate(13413.565 10228.616)"/><path class="j" d="M1852.774,784.338a.44.44,0,0,1-.054.212,1.014,1.014,0,0,1,.054.323,1.5,1.5,0,0,1-.895,1.246,4.77,4.77,0,0,1-4.329,0,1.506,1.506,0,0,1-.9-1.246.977.977,0,0,1,.056-.323.426.426,0,0,1-.056-.212V774.6a.493.493,0,0,1,.489-.49h5.142a.492.492,0,0,1,.488.49Z" transform="translate(13413.565 10228.616)"/><path class="m" d="M1843.691,761.734l-.011,12.194,18.156,6.7-.926-6.644Z" transform="translate(13413.956 10230.227)"/><path class="m" d="M1846.078,761.088l94.278-55.114a21.359,21.359,0,0,1,21.372-.107l155.632,88.889a5.627,5.627,0,0,1,.022,9.759l-95.808,55.331a21.358,21.358,0,0,1-21.365,0L1846.1,770.817A5.626,5.626,0,0,1,1846.078,761.088Z" transform="translate(13414.005 10237.858)"/><path class="n" d="M1846.467,749.313l94.278-55.113a21.361,21.361,0,0,1,21.373-.108l155.631,88.89a5.626,5.626,0,0,1,.023,9.758l-95.809,55.332a21.357,21.357,0,0,1-21.365,0l-154.105-89.027A5.627,5.627,0,0,1,1846.467,749.313Z" transform="translate(13413.954 10239.39)"/><path class="j" d="M1968.872,817.42l-47.859-27.632c-2.172-1.254-2.172-3.287,0-4.541l18.813-10.863a8.692,8.692,0,0,1,7.866,0l47.859,27.632c2.172,1.254,2.172,3.287,0,4.541l-18.814,10.863A8.69,8.69,0,0,1,1968.872,817.42Z" transform="translate(13404.106 10228.703)"/><path class="j" d="M1919.384,785.658V790.2L1972.8,819.95l24.375-14.074v-3.448Z" transform="translate(13404.106 10227.113)"/><path class="i" d="M1968.872,813.457l-47.859-27.633c-2.172-1.253-2.172-3.287,0-4.541l18.813-10.863a8.7,8.7,0,0,1,7.866,0l47.859,27.633c2.172,1.254,2.172,3.286,0,4.541l-18.814,10.863A8.7,8.7,0,0,1,1968.872,813.457Z" transform="translate(13404.106 10229.218)"/><path class="i" d="M1981.1,807.9l-46.371-26.773,4.075-2.353,46.371,26.773Z" transform="translate(13402.112 10228.01)"/><path class="i" d="M1973.066,812.537l-46.37-26.773,4.074-2.352,46.37,26.773Z" transform="translate(13403.154 10227.407)"/><path class="k" d="M1935.79,781.206l45.448,26.24,3.151-1.82-45.448-26.24Z" transform="translate(13401.972 10227.931)"/><path class="k" d="M1927.757,785.844l45.448,26.24,3.152-1.821-45.448-26.24Z" transform="translate(13403.018 10227.326)"/><path class="k" d="M1943.607,775.938l45.448,26.24,3.152-1.821-45.448-26.239Z" transform="translate(13400.956 10228.615)"/><path class="o" d="M2040.309,819.828c0,3.043-4.644,5.51-10.373,5.51s-10.373-2.467-10.373-5.51,4.644-5.509,10.373-5.509S2040.309,816.786,2040.309,819.828Z" transform="translate(13391.076 10223.386)"/><ellipse class="i" cx="10.373" cy="5.509" rx="10.373" ry="5.509" transform="translate(15410.639 11034.973)"/><path class="l" d="M2037.473,907.038l1.06-.616c.161-.093.16-.245,0-.339l-1.063-.614a.649.649,0,0,0-.587,0l-1.059.616a.179.179,0,0,0,0,.339l1.064.614a.645.645,0,0,0,.586,0Z" transform="translate(13388.977 10211.539)"/><path class="j" d="M2000.118,749.255s5.243,14.318,0,17.345l-2.535,1.463-.008,0-9.939,5.741c-1.4.808-1.4,2.13,0,2.938l13.961,8.064a5.516,5.516,0,0,0,5.062-.042l7.089-4.192.07.033c.815-.506,1.576-.983,2.262-1.413l.311-.184c.03-.018.049-.04.076-.059,1.438-.9,2.412-1.52,2.412-1.52s4.433-3.247,4.433-14.785Z" transform="translate(13395.364 10231.85)"/><path class="p" d="M2023.319,759.546c0,11.539-4.435,14.785-4.435,14.785s-.971.613-2.415,1.52a.347.347,0,0,0-.077.064l-.307.179q-1.035.651-2.261,1.419l-.077-.039-.818.486-6.262,3.706a5.514,5.514,0,0,1-5.072.038l-13.955-8.063c-1.406-.806-1.406-2.122,0-2.94l6.274-3.629,3.655-2.109h.013c.907-.524,1.776-1.022,2.531-1.469,5.124-2.952.255-16.638.013-17.315v-.013h.012Z" transform="translate(13395.366 10232.253)"/><path class="n" d="M2024.414,759.546c0,11.539-4.434,14.785-4.434,14.785s-.972.613-2.416,1.52a.361.361,0,0,0-.076.064l-.307.179q-1.035.651-2.261,1.419l-.077-.039-.818.486-19.015-10.888,3.654-2.109h.013c.907-.524,1.776-1.022,2.531-1.469,5.123-2.952.255-16.638.011-17.315l.013-.013Z" transform="translate(13394.27 10232.253)"/><path class="c" d="M2055.067,703.926l-73.941-42.689c-1.837-1.06-3.24-.62-4.846.674l-3.416,1.916,3.674,2.6V724.19a10.138,10.138,0,0,0,4.587,7.946l72.405,41.8v3.286a.591.591,0,0,0,.927.486l3.472-2.394c1.05-.364,1.725-1.463,1.725-3.14V711.882A10.155,10.155,0,0,0,2055.067,703.926Z" transform="translate(13397.151 10243.377)"/><path class="q" d="M2054.453,715.207V775.5c0,2.932-2.057,4.11-4.587,2.649l-73.94-42.689a10.135,10.135,0,0,1-4.588-7.946V667.222c0-2.933,2.057-4.12,4.588-2.659l73.939,42.688A10.154,10.154,0,0,1,2054.453,715.207Z" transform="translate(13397.349 10242.948)"/><path class="r" d="M1977.728,730.743V672.688l71.994,41.565v58.055Z" transform="translate(13396.517 10241.81)"/><path class="j" d="M2054.453,771.61v11.654c0,2.933-2.057,4.109-4.587,2.649l-73.94-42.689a10.134,10.134,0,0,1-4.588-7.946V723.625Z" transform="translate(13397.349 10235.184)"/><path class="j" d="M2051.835,786.94a4.7,4.7,0,0,1-2.318-.7l-73.94-42.688a10.585,10.585,0,0,1-4.855-8.409V722.56l84.186,48.6v11.963a3.728,3.728,0,0,1-1.61,3.435A2.893,2.893,0,0,1,2051.835,786.94Zm-80.044-62.526v10.727a9.565,9.565,0,0,0,4.32,7.483l73.94,42.688a2.278,2.278,0,0,0,3.785-2.185V771.782Z" transform="translate(13397.428 10235.322)"/><path class="s" d="M2015.56,758.85c0,1.773-1.244,2.492-2.78,1.6A6.147,6.147,0,0,1,2010,755.64c0-1.773,1.245-2.491,2.78-1.605A6.144,6.144,0,0,1,2015.56,758.85Z" transform="translate(13392.318 10231.277)"/><path class="j" d="M2010.518,700.989l-19.471-11.242v13.872l19.471,11.241Z" transform="translate(13394.783 10239.591)"/><path class="j" d="M2037.377,716.5,2017.9,705.253v13.872l19.473,11.242Z" transform="translate(13391.292 10237.573)"/><path class="j" d="M2010.517,722.1l-19.471-11.242v13.871l19.471,11.242Z" transform="translate(13394.784 10236.845)"/><path class="j" d="M2037.376,737.609,2017.9,726.367v13.871l19.472,11.242Z" transform="translate(13391.29 10234.828)"/><path class="t" d="M1928.537,777.372c-.019,0-.037.021-.057.042a1.288,1.288,0,0,1-.019-.27A.331.331,0,0,0,1928.537,777.372Z" transform="translate(13402.927 10228.222)"/><path class="u" d="M1927.466,774.3a.955.955,0,0,1-.724.059c-.026-.062-.013-.13-.048-.19Z" transform="translate(13403.156 10228.609)"/><path class="u" d="M1931.487,782.742c.132.009.265.036.4.053l-1.041-1C1931.063,782.107,1931.274,782.424,1931.487,782.742Z" transform="translate(13402.615 10227.617)"/><path class="t" d="M1928.162,771.648c-.019,0-.036.023-.052.046a1.335,1.335,0,0,1-.046-.266A.332.332,0,0,0,1928.162,771.648Z" transform="translate(13402.979 10228.967)"/><path class="u" d="M1926.787,768.7a.951.951,0,0,1-.716.132c-.03-.059-.024-.129-.066-.184Z" transform="translate(13403.245 10229.324)"/><path class="l" d="M1921.881,746.8l-.484.049Z" transform="translate(13403.845 10232.168)"/><g transform="translate(15233.379 10955.051)"><g transform="translate(0 0)"><g transform="translate(27.714 0)"><g transform="translate(37.536 137.357)"><g transform="translate(0 38.018)"><path class="l" d="M1304.425,1724.45c-3.235-2.543-10.64,1.886-14.193,2.678-2.3.51-10.666.986-10.017,4.965a13.778,13.778,0,0,0-.416,3.049,11.828,11.828,0,0,0,.368,3.882,10.362,10.362,0,0,0,4.912,2.948,6.293,6.293,0,0,0,.663-.079,14.708,14.708,0,0,0,4.4-2.065c4.381-2.685,10.945-5.042,14.24-9.1C1305.848,1728.916,1306.258,1725.89,1304.425,1724.45Z" transform="translate(-1279.783 -1723.671)"/></g><g transform="translate(1.49 33.02)"><g transform="translate(0 0)"><g transform="translate(0)"><path class="v" d="M3.953,0h8.035a3.953,3.953,0,0,1,3.953,3.953v1.1A3.952,3.952,0,0,1,11.99,9H3.955A3.955,3.955,0,0,1,0,5.046V3.953A3.953,3.953,0,0,1,3.953,0Z" transform="translate(0 15.941) rotate(-89.292)"/></g></g></g><g transform="translate(0.145 0)"><path class="t" d="M1280.116,1688.907l-.2,38.423a5.289,5.289,0,0,0,4.846,4.512l2.634.194a5.291,5.291,0,0,0,5.672-5.53l4.713-37.6Z" transform="translate(-1279.915 -1688.907)"/></g></g><g transform="translate(37.556 23.526)"><g transform="translate(0 0)"><path class="l" d="M1279.8,1585.079c.024,0,.047.023.071.047a1.332,1.332,0,0,0,.024-.307A.357.357,0,0,1,1279.8,1585.079Z" transform="translate(-1279.801 -1584.819)"/></g></g><g transform="translate(25.011 28.687)"><g transform="translate(0 0)"><path class="u" d="M1270.753,1589.538l-2.4,16.867c-.331,2.335,2.414,4.227,6.131,4.227s7-1.892,7.33-4.227h.061l2.4-16.867Z" transform="translate(-1268.33 -1589.538)"/></g></g><g transform="translate(20.125)"><g transform="translate(29.811 19.671)"><path d="M1295.955,1591.478a5.1,5.1,0,1,1,4.831-5.092A4.973,4.973,0,0,1,1295.955,1591.478Zm0-9.393a4.31,4.31,0,1,0,4.042,4.3A4.182,4.182,0,0,0,1295.955,1582.085Z" transform="translate(-1291.122 -1581.294)"/></g><g transform="translate(5.082 10.791)"><path class="u" d="M1275.374,1593.075c-1.475-2.2-2.908,2.956-3.276.629-.383-2.413-3.579-1.4-3.588-3.866-.008-1.751,1.607-3.62,2.33-5.137a10.975,10.975,0,0,1,3.577-4.465,21.154,21.154,0,0,1,6.675-2.872,51.646,51.646,0,0,1,7.988-1.587l.744-2.6h8.372v24.453a4.785,4.785,0,0,1-.162,1.015,10.193,10.193,0,0,1-13.71,7.019Z" transform="translate(-1268.509 -1573.174)"/></g><g transform="translate(0)"><path class="w" d="M1303.668,1573.456a5.921,5.921,0,0,1-1.807,2.55c-3.7,3.4-7.142,3.572-10.282,6.462-2.167,1.984-4.281,7.255-4.142,11.336a2.335,2.335,0,0,0-.11.425,1.509,1.509,0,0,0,.139.312,5.789,5.789,0,0,0,1.251,3.287,7.78,7.78,0,0,0,5.2,2.381,6.854,6.854,0,0,0,5.085-1.473c-.159.141.148,4.989-.188,5.876a7.2,7.2,0,0,1-3.958,4.214c-3.926,1.664-8.366-.35-11.541-2.759-1.924-1.461-4.185-5.746-6.517-6.122l-4.753-.765c-1.668-.255-3.529-.625-4.557-2.012a6.66,6.66,0,0,1-1-2.381c-2.5-8.955-5.161-17.364,2.037-25.555,6.67-7.538,25.725-7.85,33.507-1.133A5.231,5.231,0,0,1,1303.668,1573.456Z" transform="translate(-1263.862 -1563.306)"/></g><g transform="translate(18.556 24.26)"><path class="u" d="M1281.084,1591.742c.768,2.813,3.05,4.62,5.1,4.04s3.082-3.332,2.314-6.145-3.05-4.62-5.1-4.039S1280.316,1588.93,1281.084,1591.742Z" transform="translate(-1280.83 -1585.49)"/></g><g transform="translate(27.078 22.659)"><g transform="translate(0 0)"><g transform="translate(0)"><rect class="x" width="11.849" height="0.79" transform="translate(0 4.86) rotate(-24.214)"/></g></g></g><g transform="translate(20.131 22.87) rotate(-8)"><g transform="translate(0 0)"><g transform="translate(0 0)"><rect class="w" width="4.461" height="17.098" rx="1.985"/></g></g></g></g><g transform="translate(0.033 102.012)"><g transform="translate(0 0)"><path class="t" d="M1306.451,1679.2l-43.976,27.432-10.646-6.413a13.1,13.1,0,0,1-6.339-11.226V1673.7l2.264,1.675,4.865-2.086,38.668-16.575.747-.063c.484-.042.959-.063,1.432-.063a17.351,17.351,0,0,1,16.816,13.079c0,.021.011.041.011.062A8.723,8.723,0,0,1,1306.451,1679.2Z" transform="translate(-1245.49 -1656.587)"/></g></g><g transform="translate(0.033 113.322)"><g transform="translate(0 0)"><path class="l" d="M1333.282,1680.018a17.363,17.363,0,0,0-16.817-13.089c-.475,0-.948.021-1.433.063l-.747.063-3.991,1.706-22.761,9.768a31.809,31.809,0,0,1-31.447-3.647l-3.467-2.561-7.129-5.265v20.966a13.1,13.1,0,0,0,6.339,11.226l10.646,6.413,12.406,7.466a16.229,16.229,0,0,0,16.964-.127l37.615-23.462A8.706,8.706,0,0,0,1333.282,1680.018Z" transform="translate(-1245.49 -1666.929)"/></g></g><g transform="translate(6.377 41.101)"><g transform="translate(0 0)"><path class="u" d="M1312.38,1630.8c-2.858,2.128-17.452,12.888-24.106,15.893a27.9,27.9,0,0,1-11.569,2.5,24.385,24.385,0,0,1-8.383-1.487,17.866,17.866,0,0,1-10.567-9.485,15.681,15.681,0,0,1-.99-3.146l-5.375-26.531c-.65-3.2,1.964-6.521,5.827-7.423s7.536.959,8.185,4.163l5.375,26.531c.008.018.005.034.013.052a6.523,6.523,0,0,0,4.349,4.721,10.089,10.089,0,0,0,7.553-.384c3.672-1.66,14.488-9.221,21-14.068,3.1-2.307,7.56-2.233,9.961.163S1315.481,1628.5,1312.38,1630.8Z" transform="translate(-1251.29 -1600.889)"/></g></g><g transform="translate(0 39.712)"><g transform="translate(0 0)"><path class="t" d="M1299.883,1683.388a8.131,8.131,0,0,1-5.4,7.909c-1.981.706-5.276,1.832-7.877,2.443a17.387,17.387,0,0,1-2.053.369,34.732,34.732,0,0,1-21.746-4.96l-14.321-8.341a6.123,6.123,0,0,1-3.023-5.423l1.506-59.444a17.286,17.286,0,0,1,8.583-14.911,13.581,13.581,0,0,1,6.7-1.41,29.252,29.252,0,0,1,3.738.252c6.571.79,13.89,3.517,17.659,6.151,3.707,2.348,8.309,3.875,11.278,6.8a9.933,9.933,0,0,1,3.064,7.193C1298.05,1622.112,1299.883,1683.388,1299.883,1683.388Z" transform="translate(-1245.459 -1599.619)"/></g><g class="y" transform="translate(37.947 18.146)"><path class="t" d="M1285.206,1619.434a.887.887,0,0,1-.388.424,32.542,32.542,0,0,0-.5,6.093c-.021,3.812.147,7.739-1.2,11.31-.821,2.168-2.19,4.138-2.706,6.4-1.242,5.391,2.516,10.551,3.6,15.964,1.2,6.023-.937,12.141-1.506,18.249a55.9,55.9,0,0,0,.853,14.311c2.6-.611,5.9-1.737,7.877-2.443a8.131,8.131,0,0,0,5.4-7.909s-1.695-56.66-1.881-62.866C1291.965,1615.878,1287.376,1614.575,1285.206,1619.434Z" transform="translate(-1280.158 -1616.212)"/></g></g><g transform="translate(44.172 56.437)"><g transform="translate(0 0)"><path class="u" d="M1338.517,1650.924c-2.1,2.621-12.809,15.878-17.912,19.6a15.6,15.6,0,0,1-9.18,3.15,15.114,15.114,0,0,1-7.027-1.74,21.079,21.079,0,0,1-9.724-11.476,27.94,27.94,0,0,1-1.169-3.828l-7.419-32.318c-.9-3.893.864-7.973,3.921-9.107s6.274,1.1,7.171,5.005l7.419,32.318c.009.021.009.042.018.062a8.418,8.418,0,0,0,4.095,5.719,5.708,5.708,0,0,0,6.137-.535c2.814-2.058,10.8-11.378,15.575-17.348a4.949,4.949,0,0,1,8.168.108A8.813,8.813,0,0,1,1338.517,1650.924Z" transform="translate(-1285.851 -1614.912)"/></g></g><g transform="translate(40.554 55.995)"><g transform="translate(0 0)"><path class="t" d="M1309.892,1651.865l-9.2-30.837a9.027,9.027,0,0,0-4.437-5.4,9.409,9.409,0,0,0-7.048-.749,9.174,9.174,0,0,0-5.523,4.334,8.806,8.806,0,0,0-.773,6.881l9.22,30.939a24.491,24.491,0,0,0,1.582,3.989l.388.763a1.068,1.068,0,0,0,1.286.521l.827-.272c.477-.157.964-.337,1.406-.517a36.616,36.616,0,0,0,11.773-7.492l.517-.494a1.017,1.017,0,0,0,.21-1.2Z" transform="translate(-1282.543 -1614.509)"/></g></g><g transform="translate(68.696 126.411)"><g transform="translate(0 62.504)"><path class="l" d="M1334.976,1736.9c-3.505-2.755-11.528,2.044-15.377,2.9-2.488.555-11.557,1.07-10.855,5.381a14.9,14.9,0,0,0-.452,3.3,12.838,12.838,0,0,0,.4,4.207,11.225,11.225,0,0,0,5.324,3.194,6.823,6.823,0,0,0,.717-.085,15.957,15.957,0,0,0,4.764-2.236c4.747-2.91,11.86-5.465,15.431-9.863C1336.519,1741.736,1336.964,1738.458,1334.976,1736.9Z" transform="translate(-1308.276 -1736.052)"/></g><g transform="translate(1.618 57.09)"><g transform="translate(0 0)"><rect class="v" width="9.753" height="17.274" rx="4.284" transform="translate(9.752 17.389) rotate(-179.314)"/></g></g><g transform="translate(0.157 0)"><path class="l" d="M1309.485,1680.455l-1.066,61.386a5.729,5.729,0,0,0,5.25,4.888l2.853.21a5.733,5.733,0,0,0,6.147-5.991l4.722-62.051Z" transform="translate(-1308.419 -1678.898)"/></g></g></g><g transform="translate(22.646 151.373)"><path class="h" d="M1917.532,928.383c-12.143-7.01-31.827-7.01-43.968,0s-12.141,18.375,0,25.385,31.825,7.01,43.968,0S1929.672,935.392,1917.532,928.383Z" transform="translate(-1864.458 -895.004)"/><path class="z" d="M1873.809,956.081a7.075,7.075,0,0,1,3.2-5.544c1.769-1.021,3.2-.194,3.2,1.848a7.075,7.075,0,0,1-3.2,5.545C1875.242,958.95,1873.809,958.123,1873.809,956.081Z" transform="translate(-1865.674 -898.514)"/><path class="z" d="M1873.809,956.081a7.075,7.075,0,0,1,3.2-5.544c1.769-1.021,3.2-.194,3.2,1.848a7.075,7.075,0,0,1-3.2,5.545C1875.242,958.95,1873.809,958.123,1873.809,956.081Z" transform="translate(-1865.674 -898.514)"/><path class="z" d="M1879.474,950.414l2.759,1.438-4.331,7.894-3.23-1.681.819-4.446Z" transform="translate(-1865.788 -898.554)"/><path class="j" d="M1876.938,957.7a7.075,7.075,0,0,1,3.2-5.545c1.767-1.02,3.2-.193,3.2,1.849a7.077,7.077,0,0,1-3.2,5.545C1878.371,960.573,1876.938,959.746,1876.938,957.7Z" transform="translate(-1866.082 -898.725)"/><path class="k" d="M1876.938,957.7a7.075,7.075,0,0,1,3.2-5.545c1.767-1.02,3.2-.193,3.2,1.849a7.077,7.077,0,0,1-3.2,5.545C1878.371,960.573,1876.938,959.746,1876.938,957.7Z" transform="translate(-1866.082 -898.725)"/><path class="z" d="M1918.062,931.348a7.08,7.08,0,0,1,3.2-5.545c1.768-1.021,3.2-.193,3.2,1.849a7.073,7.073,0,0,1-3.2,5.545C1919.5,934.217,1918.062,933.389,1918.062,931.348Z" transform="translate(-1871.432 -895.296)"/><path class="z" d="M1918.062,931.348a7.08,7.08,0,0,1,3.2-5.545c1.768-1.021,3.2-.193,3.2,1.849a7.073,7.073,0,0,1-3.2,5.545C1919.5,934.217,1918.062,933.389,1918.062,931.348Z" transform="translate(-1871.432 -895.296)"/><path class="z" d="M1923.726,925.68l2.759,1.438-4.331,7.894-3.23-1.681.819-4.446Z" transform="translate(-1871.543 -895.337)"/><path class="j" d="M1921.19,932.97a7.074,7.074,0,0,1,3.2-5.545c1.768-1.021,3.2-.193,3.2,1.849a7.079,7.079,0,0,1-3.2,5.545C1922.623,935.839,1921.19,935.012,1921.19,932.97Z" transform="translate(-1871.839 -895.507)"/><path class="k" d="M1921.19,932.97a7.074,7.074,0,0,1,3.2-5.545c1.768-1.021,3.2-.193,3.2,1.849a7.079,7.079,0,0,1-3.2,5.545C1922.623,935.839,1921.19,935.012,1921.19,932.97Z" transform="translate(-1871.839 -895.507)"/><path class="z" d="M1915.986,957.174a7.075,7.075,0,0,1,3.2-5.544c1.768-1.021,3.2-.194,3.2,1.848a7.076,7.076,0,0,1-3.2,5.545C1917.419,960.043,1915.986,959.215,1915.986,957.174Z" transform="translate(-1871.161 -898.656)"/><path class="z" d="M1915.986,957.174a7.075,7.075,0,0,1,3.2-5.544c1.768-1.021,3.2-.194,3.2,1.848a7.076,7.076,0,0,1-3.2,5.545C1917.419,960.043,1915.986,959.215,1915.986,957.174Z" transform="translate(-1871.161 -898.656)"/><path class="z" d="M1921.649,951.506l2.759,1.438-4.33,7.893-3.231-1.681.819-4.445Z" transform="translate(-1871.273 -898.696)"/><path class="j" d="M1919.113,958.8a7.076,7.076,0,0,1,3.2-5.545c1.769-1.021,3.2-.193,3.2,1.849a7.075,7.075,0,0,1-3.2,5.545C1920.547,961.666,1919.113,960.838,1919.113,958.8Z" transform="translate(-1871.568 -898.867)"/><path class="k" d="M1919.113,958.8a7.076,7.076,0,0,1,3.2-5.545c1.769-1.021,3.2-.193,3.2,1.849a7.075,7.075,0,0,1-3.2,5.545C1920.547,961.666,1919.113,960.838,1919.113,958.8Z" transform="translate(-1871.568 -898.867)"/><path class="z" d="M1873.025,932.265a7.078,7.078,0,0,1,3.2-5.545c1.768-1.021,3.2-.193,3.2,1.849a7.073,7.073,0,0,1-3.2,5.545C1874.459,935.134,1873.025,934.307,1873.025,932.265Z" transform="translate(-1865.573 -895.415)"/><path class="z" d="M1873.025,932.265a7.078,7.078,0,0,1,3.2-5.545c1.768-1.021,3.2-.193,3.2,1.849a7.073,7.073,0,0,1-3.2,5.545C1874.459,935.134,1873.025,934.307,1873.025,932.265Z" transform="translate(-1865.573 -895.415)"/><path class="z" d="M1878.689,926.6l2.759,1.438-4.331,7.894-3.23-1.68.819-4.446Z" transform="translate(-1865.685 -895.456)"/><path class="j" d="M1876.153,933.888a7.074,7.074,0,0,1,3.2-5.545c1.768-1.021,3.2-.193,3.2,1.848a7.076,7.076,0,0,1-3.2,5.544C1877.586,936.757,1876.153,935.93,1876.153,933.888Z" transform="translate(-1865.98 -895.626)"/><path class="k" d="M1876.153,933.888a7.074,7.074,0,0,1,3.2-5.545c1.768-1.021,3.2-.193,3.2,1.848a7.076,7.076,0,0,1-3.2,5.544C1877.586,936.757,1876.153,935.93,1876.153,933.888Z" transform="translate(-1865.98 -895.626)"/><path class="n" d="M1919.175,944.565l-14.166-8.179,14.166-8.179c2.325-1.342,2.325-3.539,0-4.882h0a9.381,9.381,0,0,0-8.456,0l-14.166,8.179-14.166-8.179a9.381,9.381,0,0,0-8.456,0c-2.325,1.343-2.325,3.54,0,4.882l14.166,8.179-14.166,8.179c-2.325,1.342-2.325,3.54,0,4.882h0a9.381,9.381,0,0,0,8.456,0l14.166-8.179,14.166,8.179a9.381,9.381,0,0,0,8.456,0C1921.5,948.105,1921.5,945.908,1919.175,944.565Z" transform="translate(-1865.465 -894.9)"/><path class="n" d="M1919.175,944.565l-14.166-8.179,14.166-8.179c2.325-1.342,2.325-3.539,0-4.882h0a9.381,9.381,0,0,0-8.456,0l-14.166,8.179-14.166-8.179a9.381,9.381,0,0,0-8.456,0c-2.325,1.343-2.325,3.54,0,4.882l14.166,8.179-14.166,8.179c-2.325,1.342-2.325,3.54,0,4.882h0a9.381,9.381,0,0,0,8.456,0l14.166-8.179,14.166,8.179a9.381,9.381,0,0,0,8.456,0C1921.5,948.105,1921.5,945.908,1919.175,944.565Z" transform="translate(-1865.465 -894.9)"/><path class="j" d="M1892,937.161c0,2.646,3.193,4.791,7.134,4.791s7.134-2.145,7.134-4.791-3.195-7.031-7.134-7.031S1892,934.514,1892,937.161Z" transform="translate(-1868.042 -895.916)"/><path class="n" d="M1894.18,933.644c0,1.942,2.344,3.516,5.235,3.516s5.233-1.575,5.233-3.516-2.343-3.515-5.233-3.515S1894.18,931.7,1894.18,933.644Z" transform="translate(-1868.324 -895.916)"/><path class="j" d="M1899.718,890.8a3.223,3.223,0,0,0-3.2,3.246v31.239a3.2,3.2,0,1,0,6.4,0V894.045A3.223,3.223,0,0,0,1899.718,890.8Z" transform="translate(-1868.629 -890.799)"/></g><path class="aa" d="M1957.075,881.838c0,.175,0,.36-.018.545a15.923,15.923,0,0,1-8.214,12.755l-34.924,19.15a9.268,9.268,0,0,1-1.652.711,9.534,9.534,0,0,1-7.8-.849l-40-23.571a21.831,21.831,0,0,1-10.651-16.779l-4.189-44.836-.434-4.661a4.979,4.979,0,0,1,7.162-4.928l43.3,21.421a4.979,4.979,0,0,1,2.519,2.9l13.844,42.012a5.78,5.78,0,0,0,8.353,3.212L1946.96,876A6.76,6.76,0,0,1,1957.075,881.838Z" transform="translate(-1849.172 -744.918)"/><path class="z" d="M1911.1,913.368a2.775,2.775,0,0,1-2.994,3.727,9.516,9.516,0,0,1-3.516-1.227l-40-23.571a21.831,21.831,0,0,1-10.651-16.779l-3.857-41.281a1.993,1.993,0,0,1,2.868-1.972l34.935,17.273a5,5,0,0,1,2.519,2.907l13.835,42.012C1904.712,895.919,1907.637,904.293,1911.1,913.368Z" transform="translate(-1849.289 -746.637)"/><g transform="translate(115.046 68.591)"><path class="ab" d="M10.872,11.065c-3.036,2.821-7.308,3.158-9.543.754S-.256,5.178,2.779,2.358,10.087-.8,12.322,1.6,13.907,8.245,10.872,11.065Z" transform="matrix(0.985, -0.174, 0.174, 0.985, 0, 10.112)"/><path class="ab" d="M.53,11.431h0a1.983,1.983,0,0,1,.1-2.8L9.35.53a1.981,1.981,0,0,1,2.8.1h0a1.981,1.981,0,0,1-.1,2.8l-8.716,8.1A1.983,1.983,0,0,1,.53,11.431Z" transform="matrix(0.985, -0.174, 0.174, 0.985, 2.128, 2.202)"/></g></g></g></g></g></svg>