<svg xmlns="http://www.w3.org/2000/svg" width="144" height="319" viewBox="0 0 144 319"><defs><style>.a,.b{fill:#fff;}.a{opacity:0.13;}.b{opacity:0.7;}.c{fill:#3772ce;}.d{fill:#1f3598;}.e{fill:#ced6e9;}.f{fill:#2b65ba;}.g{fill:#ff8358;}.h{fill:#743c45;}.i{fill:#fab300;}.j{fill:none;stroke:#743c45;stroke-width:2px;}</style></defs><ellipse class="a" cx="33.5" cy="34" rx="33.5" ry="34" transform="translate(77 90)"/><circle class="b" cx="67.5" cy="67.5" r="67.5"/><g transform="translate(44.727 31.026)"><path class="c" d="M1661.8,1559.144a7.957,7.957,0,0,0,7.471-10.669l-19.238-46.973a7.951,7.951,0,0,0-14.946,5.432l19.238,46.973A7.956,7.956,0,0,0,1661.8,1559.144Z" transform="translate(-1628.265 -1444.475)"/><path class="d" d="M1610.72,1695.183a4.568,4.568,0,0,0-4,3,13.413,13.413,0,0,0-.7,5.22c0,1.549.066,3.276,1.17,4.362a5.89,5.89,0,0,0,2.684,1.248,31.606,31.606,0,0,0,5.51,1.146c2.12.182,4.27-.065,6.374.256,1.34.2,2.635.636,3.955.946a22.537,22.537,0,0,0,11.373-.293,4.266,4.266,0,0,0,2.211-1.218,3.212,3.212,0,0,0-.314-3.912,9.383,9.383,0,0,0-3.517-2.314l-11.63-5.341c-3.8-1.746-7.737-3.524-11.921-3.62-1.336-.031-3.1.575-2.977,1.906Z" transform="translate(-1567.897 -1446.158)"/><rect class="e" width="9.708" height="17.194" rx="4.703" transform="matrix(0.997, 0.081, -0.081, 0.997, 38.842, 238.013)"/><path class="d" d="M1662.683,1716.4c.735,1.343,1.5,2.671,2.212,4.005a32.73,32.73,0,0,1,1.988,4.178c.783,2.149,2.258,6.333.4,8.284-2.789,2.938-7.34.422-9.608-1.653a90.375,90.375,0,0,1-9.381-9.992,12.237,12.237,0,0,1-2.825-5.1c-1.162-5.9,2.293-14.264,9.537-12.306,2.646.716,3.772,2.572,4.4,4.978A33.659,33.659,0,0,0,1662.683,1716.4Z" transform="translate(-1637.247 -1446.233)"/><rect class="e" width="9.708" height="17.194" rx="4.703" transform="translate(12.661 250.142)"/><path class="d" d="M1649.364,1548.53l-24.511,8.5-9.478,18.733,2.615,62.942v59.267a5.862,5.862,0,0,0,5.861,5.862h4.033a5.861,5.861,0,0,0,5.841-5.371l6.171-71.206,2.038-27.839,5.094-2.066,2.335,33.366-2.748,55.062a5.707,5.707,0,0,0,6.119,5.964l2.84-.209a5.706,5.706,0,0,0,5.227-4.866l9.251-61.125v-66.058Z" transform="translate(-1609.49 -1444.918)"/><path class="d" d="M1659.879,1697.552H1656.3a4.859,4.859,0,0,1-4.384-1.881c-.97-1.3-1.836-1.687-1.836.01v4.5c0,4.492,2.228,8.133,6.22,8.133h3.585c3.759,0,6.89-3.239,7.205-7.452v-5.573a.824.824,0,0,0-1.545-.49C1664.684,1696.265,1663.246,1697.587,1659.879,1697.552Z" transform="translate(-1642.069 -1446.724)"/><path class="d" d="M1631.634,1688.439h-2.854c-1.312,0-3.9-.7-4.385-2.676-.354-1.425-1.375-.489-1.375,1.016v3.99c0,3.984,2.578,7.215,5.76,7.215h2.855c2.994,0,5.488-2.873,5.739-6.611v-4.945c0-.841-.863-1.137-1.23-.434C1635.462,1687.3,1634.316,1688.471,1631.634,1688.439Z" transform="translate(-1586.14 -1446.076)"/><path class="c" d="M1615.36,1580.978l6.02,1.061a37.24,37.24,0,0,0,31.885-3.453l17.086-9.408v-68.47a20.67,20.67,0,0,0-.932-6.864,18.336,18.336,0,0,0-5-7.806.143.143,0,0,0-.022-.033,18.672,18.672,0,0,0-3.3-2.457,14.6,14.6,0,0,0-7.221-1.527,31.18,31.18,0,0,0-4.028.271c-7.093.855-14.985,3.8-19.045,6.637l-1.505.953-5.37,3.389a11.913,11.913,0,0,0-2.815,2.3c-.271.281-.53.584-.769.887-.119.152-.227.3-.336.454-.194.271-.39.552-.563.845-.162.271-.314.542-.455.823q-.162.309-.293.618a5.575,5.575,0,0,0-.227.542,1.659,1.659,0,0,0-.086.227.7.7,0,0,0-.066.194,5.809,5.809,0,0,0-.184.552c-.065.218-.13.433-.172.65a13.442,13.442,0,0,0-.325,1.884c-.022.239-.033.477-.044.725l-.823,29.114Z" transform="translate(-1609.775 -1444.354)"/><path class="f" d="M1615.36,1581.012l6.02,1.061a37.642,37.642,0,0,0,8.435,1.895c3.973-6.117,5.294-7.5,2.057-13.956-1.537-2.966-3.952-5.652-4.288-8.987a10.344,10.344,0,0,1,.358-3.4,18.948,18.948,0,0,0,21.545,3.713c6.388-3.042,13.891-6.6,20.864-9.906v-51.775a18.452,18.452,0,0,0-.932-5.781c-2.815-4.407-4.785-7.459-5-7.807a.137.137,0,0,0-.022-.033l-2.144,23.5-18.277,9.549-14.681-29.167-7.243,5.792c-.313-.044-.627-.076-.942-.108-.271.282-.53.584-.769.887-.119.152-.227.3-.336.454-.194.272-.39.552-.563.845-.162.271-.314.541-.455.823-.108.206-.206.412-.293.618a4.632,4.632,0,0,0-.227.541,1.68,1.68,0,0,0-.086.228.691.691,0,0,0-.066.194c-.075.184-.13.369-.184.552-.065.217-.13.434-.172.651a13.427,13.427,0,0,0-.325,1.884c-.022.238-.033.476-.044.725l-.823,35.61Z" transform="translate(-1609.775 -1444.388)"/><path class="e" d="M1641.877,1495.747c-5.344,0-9.531-3-9.531-6.84s4.187-6.838,9.531-6.838,9.532,3,9.532,6.838S1647.222,1495.747,1641.877,1495.747Z" transform="translate(-1604.427 -1444.354)"/><path class="g" d="M1649.506,1487.593v-15.307a6.924,6.924,0,0,0-2.078-4.9,7.624,7.624,0,0,0-2.691-1.747,8.642,8.642,0,0,0-2.6-.487c-.428,0-.856.028-1.253.056a7.763,7.763,0,0,0-4.371,2.033,6.884,6.884,0,0,0-2.231,5.042v16.054h.086c.527,2.5,3.638,4.367,7.525,4.367s7-1.866,7.524-4.367h.087Z" transform="translate(-1604.407 -1444.21)"/><path class="c" d="M1615.133,1489.911l17.951,13.1,3.546.312,17.116-17.279c8.533,12.064,20.383,24.8,25.967,38.074,1.023,2.434,2.065,5.006,1.628,7.582-1.023,6.025-14.054,9.152-19.2,11.366q-12.4,5.335-24.8,10.693c-9.821,4.244-21.574.921-27.022-7.632l-10.431-16.375c-7.2-11.311-4.224-25.711,7.012-33.868Z" transform="translate(-1593.864 -1444.388)"/><path class="g" d="M1646.878,1469.888c-.127,3.59-.744,7.132-2.848,9.765-2.316,2.937-6.056,4.1-9.606,4.2a10.664,10.664,0,0,1-5.718-1.259c-3.273-1.957-4.8-6.176-5.632-10.161a33.6,33.6,0,0,1-.617-4.591,17.1,17.1,0,0,1,.51-5.2,14.957,14.957,0,0,1,6.546-8.53,23.589,23.589,0,0,1,9.947-3.146,7.977,7.977,0,0,1,4.994.606,4.249,4.249,0,0,1,2.019,2.8,3.256,3.256,0,0,1,.042,1.281c.106,3.263.212,6.5.319,9.765C1646.878,1466.882,1646.921,1468.373,1646.878,1469.888Z" transform="translate(-1589.172 -1444.089)"/><path class="d" d="M1646.251,1467.37c-.021,0-.042.023-.064.046a1.5,1.5,0,0,1-.021-.3A.372.372,0,0,0,1646.251,1467.37Z" transform="translate(-1613.227 -1444.227)"/><path class="d" d="M1644.944,1467.369c.085-.047.15-.094.235-.14.212-.116.51-.209.658,0,.106.14-.063.3-.191.327l.51.535A1.052,1.052,0,0,1,1644.944,1467.369Z" transform="translate(-1611.869 -1444.227)"/><path class="h" d="M1619.087,1451.443c4.8-8.917,19.069-7.689,27.54-6.79,6.486.693,11.032,6.556,4.122,9.918a6.634,6.634,0,0,1-2.547.5c.034-.033.073-.059.107-.092-.381.052-1.285.109-1.287.112.044,0,.842-.006,1.18-.02-4.311,4.057-11.529,3.292-17.431,4.252a27.894,27.894,0,0,0-.667,6.335,5.78,5.78,0,0,1-.269,2.373c-.317.738-2.112,1.341-2.887,1.132l-.006,0c-.061.424-.125.849-.207,1.275-1.064,5.453-6.191,6.043-6.375.6C1620.141,1464.594,1615.905,1457.364,1619.087,1451.443Z" transform="translate(-1592.158 -1444.031)"/><path class="g" d="M1645.5,1464.941c1.214-.309,2.414.686,2.943,1.821a8.328,8.328,0,0,0,.819,1.7,1.679,1.679,0,0,0,.878.577,1.8,1.8,0,0,1-1.314,2.223,3.69,3.69,0,0,1-2.959-.876,4.527,4.527,0,0,1-1.9-2.737A2.385,2.385,0,0,1,1645.5,1464.941Z" transform="translate(-1615.152 -1444.208)"/><path d="M0,.74l10.506.522V.522L0,0Z" transform="translate(41.683 27.484) rotate(-148.241)"/><path class="i" d="M1173.218,1819.7c-.225-.763-.717-1.034-1.284-.706a3.387,3.387,0,0,0-1.282,2.188l-.366-.061a4.366,4.366,0,0,1,1.648-2.813c.729-.42,1.361-.072,1.65.909Z" transform="translate(-1120.158 -1798.202)"/><path d="M1173.218,1819.7c-.225-.763-.717-1.034-1.284-.706a3.387,3.387,0,0,0-1.282,2.188l-.366-.061a4.366,4.366,0,0,1,1.648-2.813c.729-.42,1.361-.072,1.65.909Z" transform="translate(-1120.158 -1798.202)"/><path d="M1175.3,1829.173a3.737,3.737,0,0,0,1.847-.561,8.642,8.642,0,0,0,3.906-6.765,2.629,2.629,0,0,0-4.276-2.47,8.649,8.649,0,0,0-3.906,6.766,2.963,2.963,0,0,0,1.274,2.729A2.285,2.285,0,0,0,1175.3,1829.173Zm3.323-9.614a1.541,1.541,0,0,1,.785.2,2.271,2.271,0,0,1,.905,2.089,7.827,7.827,0,0,1-3.537,6.125,1.91,1.91,0,0,1-3.166-1.828,7.827,7.827,0,0,1,3.536-6.125A3.024,3.024,0,0,1,1178.625,1819.559Z" transform="translate(-1130.679 -1798.208)"/><path d="M1165.311,1823.4a3.746,3.746,0,0,0,1.847-.56,8.652,8.652,0,0,0,3.907-6.766,2.629,2.629,0,0,0-4.277-2.47,8.649,8.649,0,0,0-3.906,6.766,2.962,2.962,0,0,0,1.275,2.73A2.273,2.273,0,0,0,1165.311,1823.4Zm3.323-9.614a1.543,1.543,0,0,1,.786.2,2.273,2.273,0,0,1,.905,2.089,7.829,7.829,0,0,1-3.537,6.125,1.911,1.911,0,0,1-3.167-1.83,7.825,7.825,0,0,1,3.537-6.124A3.018,3.018,0,0,1,1168.634,1813.791Z" transform="translate(-1109.721 -1798.159)"/><path class="g" d="M1654.455,1531.594l-2.088-6.146a1.044,1.044,0,0,0-1.014-.707l-5.241.134a.383.383,0,0,0-.186.054l-8.008,4.852a.376.376,0,0,0-.114.537l8.017,11.522a.377.377,0,0,0,.614.006l4.307-5.961a.4.4,0,0,1,.05-.055l3.385-3.135A1.044,1.044,0,0,0,1654.455,1531.594Z" transform="translate(-1613.359 -1444.716)"/><path class="g" d="M1622.083,1523.372l-6.545-8.557h-3.74l-5.413,8.557Z" transform="translate(-1544.818 -1444.632)"/><path class="h" d="M10032.025,6452.443c-.221.286-.221,13.024-7.037,12.166-.879.143-8.408,0-15.012-17.605,0,.286,2.428,0,2.428,0S10026.217,6470.145,10032.025,6452.443Z" transform="translate(-9974.46 -6422.616)"/><path class="j" d="M2972.485,1602.76s-3.195-5.346-11.229,1.455" transform="translate(-2915.358 -1569.981)"/></g></svg>