<svg xmlns="http://www.w3.org/2000/svg" xmlns:xlink="http://www.w3.org/1999/xlink" width="537.675" height="471.553" viewBox="0 0 537.675 471.553"><defs><style>.a{fill:#1f3598;}.b{fill:#525252;}.c,.d{fill:#fff;}.c{font-size:20px;font-family:HelveticaNeue, Helvetica Neue;}.e{fill:#647ddd;opacity:0.17;}.f{fill:#bddcff;}.g{fill:#8dc0ef;}.h{fill:#e2e8f2;}.i{fill:rgba(15,0,0,0.1);}.j{fill:#c4e4f9;}.k{fill:#0f62fe;}.l{fill:#e91e63;}.m{fill:#00bcd4;}.n{fill:#4caf50;}.o{fill:#ff9800;}.p{fill:#d5e8fa;}.q{fill:#eff6fc;}.r{fill:#75a3ec;}.s{fill:#f2f4fa;}.t{fill:#3772ce;}.u{fill:#ff8358;}.v{fill:#ced6e9;}.w{fill:#743c45;}.x{fill:#312103;}.y{opacity:0.34;}.z{fill:#4568c7;}.aa{fill:#c1d7ea;}.ab{fill:#fd8358;}.ac{fill:#f2f4f9;}.ad{fill:#484255;}.ae{fill:#577de8;}.af{fill:#fbc1b1;}.ag{filter:url(#a);}</style><filter id="a" x="57.037" y="0" width="162.817" height="154.771" filterUnits="userSpaceOnUse"><feOffset input="SourceAlpha"/><feGaussianBlur stdDeviation="3" result="b"/><feFlood flood-opacity="0.161"/><feComposite operator="in" in2="b"/><feComposite in="SourceGraphic"/></filter></defs><g transform="translate(-405 -6815.847)"><g transform="translate(-1.325 1257)"><path class="a" d="M2037.531,907.092l1.095-.636c.166-.1.165-.253,0-.35l-1.1-.634a.669.669,0,0,0-.606,0l-1.094.636a.185.185,0,0,0,0,.35l1.1.634a.665.665,0,0,0,.605,0Z" transform="translate(-1376.833 5027.772)"/><g transform="translate(0 -150)"><g transform="translate(-6416 -8388)"><circle class="b" cx="130" cy="130" r="130" transform="translate(7100 14106)"/><text class="c" transform="translate(7192 14158)"><tspan x="0" y="19">SCRUM</tspan></text></g><path class="d" d="M3089.833,1512.44a34.987,34.987,0,1,0-31.646-53.166l-1.257,2.053,6.837,1.75-10.735,10.979-4.143-14.787,6.27,1.6.665-1.2A37.066,37.066,0,0,1,3068,1446.61a36.853,36.853,0,0,1,51.362,11.478l.5.813.957.026c.163,0,.326.006.488.006a17.573,17.573,0,0,0,5.818-34.14l-3.434-1.215,2.4,7.178-15.047-3.064,10.176-11.5,1.946,5.819,1.07.166a19.406,19.406,0,0,1-.832,38.474l-2.411.266.98,2.219a36.872,36.872,0,0,1-15.009,45.969l-1.857,1.112-1.962.881c-.251.113-.5.224-.756.331a36.845,36.845,0,0,1-3.971,1.415l-1.277.375v1.028h-3.525v-.286l-1.948.189c-.608.059-1.222.1-1.835.132Zm15.819,1.807v-1.839h3.525v1.839Z" transform="translate(-2282.888 4388.807)"/><g transform="translate(40 -8)"><rect class="d" width="3.525" height="1.84" transform="translate(789.476 5909.277)"/><rect class="d" width="3.525" height="1.84" transform="translate(801.075 5909.277)"/><rect class="d" width="3.525" height="1.84" transform="translate(795.183 5909.277)"/><path class="d" d="M3274.073,1676.658h-.7v-1.84h.7v-6.759l13.3,7.678-13.3,7.679Z" transform="translate(-2466.583 4234.459)"/></g></g><g transform="translate(33 -131)"><path class="e" d="M2080.984,1008.589c-13.529,0-24.535,7.262-24.535,16.189s11.006,16.189,24.535,16.189,24.534-7.262,24.534-16.189S2094.512,1008.589,2080.984,1008.589Z" transform="translate(-1270.08 5045.503)"/><path class="f" d="M2099.474,998.561l-5.689,28.517h-37.691l-5.689-28.517Z" transform="translate(-1260.396 5036.151)"/><path class="f" d="M2094.427,1029.108c0,4.821-7.3,10.184-17.914,10.482-.306.007-.619.014-.932.014-11.108,0-18.845-5.533-18.845-10.5s7.738-10.5,18.845-10.5a30.1,30.1,0,0,1,7.844,1C2090.167,1021.42,2094.427,1025.424,2094.427,1029.108Z" transform="translate(-1261.037 5034.121)"/><path class="g" d="M2102.345,998.561l-5.689,28.516c0,4.822-7.3,10.184-17.914,10.483a18.46,18.46,0,0,0,3.314-4.409,26.4,26.4,0,0,0,2.3-6.074,50.256,50.256,0,0,0,1.3-9.5c.092-1.628.149-3.257.192-4.871q.2-7.073.412-14.144Z" transform="translate(-1263.267 5036.151)"/><ellipse class="h" cx="24.534" cy="16.189" rx="24.534" ry="16.189" transform="translate(790.01 6018.521)"/><ellipse class="a" cx="18.845" cy="10.5" rx="18.845" ry="10.5" transform="translate(795.699 6024.21)"/><circle class="g" cx="16.922" cy="16.922" r="16.922" transform="translate(795.131 5968.266) rotate(-80.783)"/><circle class="g" cx="11.998" cy="11.998" r="11.998" transform="translate(798.868 5972.658) rotate(-22.5)"/><ellipse class="g" cx="13.061" cy="13.061" rx="13.061" ry="13.061" transform="translate(797.48 6016.505) rotate(-67.5)"/><path class="g" d="M2081.875,999.979a4.7,4.7,0,1,1-4.7-4.7A4.7,4.7,0,0,1,2081.875,999.979Z" transform="translate(-1262.631 5036.484)"/><path class="g" d="M2089.526,920.662c-3.754,4.793-3.636,6.153-2.1,10.189h-22.436c1.531-4.036,1.65-5.4-2.1-10.189Z" transform="translate(-1261.66 5044.044)"/><path class="g" d="M2087.944,922.824c-12.378,11.539-10.892,24.328-1.986,33.881h-19.106c8.906-9.553,10.39-22.342-1.986-33.881Z" transform="translate(-1261.861 5043.824)"/><path class="g" d="M2087.5,923.322c-12.824,11.039-10.544,62.741-7.479,66.3H2072.9c3.067-3.561,5.346-55.262-7.479-66.3Z" transform="translate(-1261.917 5043.773)"/><path class="g" d="M2085.314,946.01c-4.178,4.327-4.27,8.007.44,12.555h-18.143c4.711-4.547,4.618-8.228.44-12.555Z" transform="translate(-1262.139 5041.477)"/><path class="g" d="M2084.738,946.76c-9.008,7.925-7.5,41.672-4.4,45.2h-7.055c3.1-3.528,4.611-37.275-4.4-45.2Z" transform="translate(-1262.268 5041.399)"/><path class="g" d="M2084.516,982.2c-8.471,6.152-6.086,10.65-3.873,13.7h-7.6c2.213-3.047,4.6-7.546-3.872-13.7Z" transform="translate(-1262.297 5037.811)"/></g><g transform="translate(406.325 5909.484)"><path class="i" d="M276,660H813.675s-11.269,20.927-37.026,17.708a149.484,149.484,0,0,1-20.927-1.61c-9.659-1.61-24.147,3.22-27.367,8.049,0,0-24.147,14.488-64.392,0,0,0-37.026-16.1-62.782-1.61,0,0-19.318,20.928-69.222-4.829,0,0-12.879-8.049-35.416,8.049,0,0-22.537,19.318-66-8.049,0,0-24.147-6.439-51.514,6.439C379.028,684.147,324.294,692.2,276,660Z" transform="translate(-276 -571.461)"/><path class="j" d="M582.407,634.075s27.206,15.026,15.19,36.5C597.6,670.576,578.133,666.564,582.407,634.075Z" transform="translate(-89.525 -587.27)"/><path class="k" d="M614.007,623s14.488,46.684-22.537,57.953C591.47,680.953,573.762,655.2,614.007,623Z" transform="translate(-85.991 -594.023)"/><path class="k" d="M334.352,621.92s-41.564,22.958-23.207,55.765C311.145,677.685,340.883,671.557,334.352,621.92Z" transform="translate(-257.422 -594.682)"/><path class="j" d="M292.061,605s-22.135,71.324,34.43,88.539C326.492,693.539,353.546,654.189,292.061,605Z" transform="translate(-268.808 -605)"/></g><g transform="translate(-165 3861)"><g class="ag" transform="matrix(1, 0, 0, 1, 571.33, 1697.85)"><path class="d" d="M16.091,0H128.726a16.091,16.091,0,0,1,16.091,16.091v104.59a16.091,16.091,0,0,1-16.091,16.091H16.091A16.091,16.091,0,0,1,0,120.681V16.091A16.091,16.091,0,0,1,16.091,0Z" transform="translate(66.04 9)"/></g><g transform="translate(666.286 1727.796)"><path class="l" d="M16.274,12.651A9.954,9.954,0,0,0,6.322,22.6V47.5a9.952,9.952,0,1,0,19.9,0V22.6a9.959,9.959,0,0,0-9.952-9.952Z" transform="translate(18.628 37.297)"/><path class="l" d="M.019,22.609a9.96,9.96,0,1,0,19.921,0v-9.96H9.979a9.962,9.962,0,0,0-9.96,9.96Z" transform="translate(0.048 37.291)"/><path class="m" d="M16.292,0H16.28a9.96,9.96,0,0,0,0,19.921h9.952V9.94A9.944,9.944,0,0,0,16.292,0Z" transform="translate(18.622 0.001)"/><path class="m" d="M9.962,26.245H34.9a9.96,9.96,0,1,0,0-19.921H9.962a9.96,9.96,0,1,0,0,19.921Z" transform="translate(-0.002 18.646)"/><path class="n" d="M28.88,6.323a9.939,9.939,0,0,0-9.941,9.941v9.98h9.952a9.96,9.96,0,1,0,0-19.921Z" transform="translate(55.821 18.643)"/><path class="n" d="M12.641,9.953v24.97a9.952,9.952,0,0,0,19.9,0V9.953a9.952,9.952,0,0,0-19.9,0Z" transform="translate(37.256 0.007)"/><g transform="translate(49.885 49.94)"><path class="o" d="M32.545,28.907a9.954,9.954,0,0,0-9.952-9.952H12.64v9.96a9.952,9.952,0,0,0,19.9-.008Z" transform="translate(-12.632 5.94)"/><path class="o" d="M47.541,12.649H22.6a9.96,9.96,0,0,0,0,19.921H47.541a9.96,9.96,0,1,0,0-19.921Z" transform="translate(-12.638 -12.649)"/></g></g></g></g><g transform="translate(-14713.325 -3911)"><path class="g" d="M2152.283,878.7a4.344,4.344,0,0,1-3.932,0,1.2,1.2,0,0,1,0-2.27,4.35,4.35,0,0,1,3.932,0A1.2,1.2,0,0,1,2152.283,878.7Z" transform="translate(13329.303 10201.579)"/><path class="g" d="M2153.1,811.909v51.684a.577.577,0,0,1-.043.2.456.456,0,0,1-.4.243h-4.673a.456.456,0,0,1-.4-.243.586.586,0,0,1-.042-.2V811.909a.448.448,0,0,1,.445-.445h4.673A.449.449,0,0,1,2153.1,811.909Z" transform="translate(13329.303 10215.071)"/><path class="g" d="M2153.1,825.673a.391.391,0,0,1-.051.193.9.9,0,0,1,.051.293,1.37,1.37,0,0,1-.813,1.132,4.338,4.338,0,0,1-3.936,0,1.367,1.367,0,0,1-.814-1.132.915.915,0,0,1,.05-.293.4.4,0,0,1-.05-.193v-8.852a.447.447,0,0,1,.445-.445h4.673a.448.448,0,0,1,.446.445Z" transform="translate(13329.303 10214.043)"/><path class="p" d="M2157.153,812.309v-9.9l-18.3,11.762,1.223,3.256Z" transform="translate(13331.116 10216.965)"/><path class="g" d="M2038.589,945.179a4.344,4.344,0,0,1-3.932,0,1.2,1.2,0,0,1,0-2.271,4.346,4.346,0,0,1,3.932,0A1.2,1.2,0,0,1,2038.589,945.179Z" transform="translate(13432.617 10099.194)"/><path class="e" d="M2088.4,851.824l-146.977-83.59-90.9,54.576a1.635,1.635,0,0,0,.038,2.826l142.88,80.554a9.556,9.556,0,0,0,9.677-.093l85.315-51.2A1.783,1.783,0,0,0,2088.4,851.824Z" transform="translate(13410.483 10223.12)"/><path class="g" d="M2039.4,878.386v51.683a.575.575,0,0,1-.042.2.457.457,0,0,1-.4.244h-4.674a.458.458,0,0,1-.4-.244.576.576,0,0,1-.042-.2V878.386a.448.448,0,0,1,.445-.445h4.674A.447.447,0,0,1,2039.4,878.386Z" transform="translate(13371.974 10200.17)"/><path class="g" d="M2039.4,887.238a.4.4,0,0,1-.05.193.9.9,0,0,1,.05.293,1.366,1.366,0,0,1-.814,1.133,4.336,4.336,0,0,1-3.935,0,1.369,1.369,0,0,1-.814-1.133.89.89,0,0,1,.051-.293.39.39,0,0,1-.051-.193v-8.852a.448.448,0,0,1,.445-.445h4.674a.447.447,0,0,1,.444.445Z" transform="translate(13371.974 10200.17)"/><path class="g" d="M1851.4,841.349a4.345,4.345,0,0,1-3.932,0,1.2,1.2,0,0,1,0-2.271,4.344,4.344,0,0,1,3.932,0A1.2,1.2,0,0,1,1851.4,841.349Z" transform="translate(13411.125 10208.4)"/><path class="g" d="M1852.217,774.556V826.24a.58.58,0,0,1-.042.2.455.455,0,0,1-.4.244H1847.1a.457.457,0,0,1-.4-.244.582.582,0,0,1-.041-.2V774.556a.448.448,0,0,1,.444-.445h4.674A.447.447,0,0,1,1852.217,774.556Z" transform="translate(13411.125 10221.89)"/><path class="g" d="M1852.217,783.408a.4.4,0,0,1-.049.193.919.919,0,0,1,.049.293,1.366,1.366,0,0,1-.813,1.132,4.336,4.336,0,0,1-3.935,0,1.368,1.368,0,0,1-.814-1.132.891.891,0,0,1,.05-.293.388.388,0,0,1-.05-.193v-8.852a.448.448,0,0,1,.444-.445h4.674a.447.447,0,0,1,.444.445Z" transform="translate(13411.125 10221.89)"/><path class="p" d="M1843.69,761.735l-.01,11.085,16.505,6.094-.842-6.04Z" transform="translate(13411.75 10224.478)"/><path class="p" d="M1845.824,755.812l85.707-50.1a19.416,19.416,0,0,1,19.429-.1l141.483,80.808a5.115,5.115,0,0,1,.02,8.872l-87.1,50.3a19.415,19.415,0,0,1-19.423,0l-140.1-80.934A5.114,5.114,0,0,1,1845.824,755.812Z" transform="translate(13411.831 10236.752)"/><path class="q" d="M1846.214,744.037l85.707-50.1a19.419,19.419,0,0,1,19.429-.1l141.482,80.809a5.114,5.114,0,0,1,.021,8.871l-87.1,50.3a19.416,19.416,0,0,1-19.423,0l-140.095-80.933A5.115,5.115,0,0,1,1846.214,744.037Z" transform="translate(13411.749 10239.214)"/><path class="g" d="M1964.372,813.422l-43.508-25.12c-1.975-1.14-1.975-2.989,0-4.128l17.1-9.875a7.9,7.9,0,0,1,7.151,0l43.508,25.12c1.975,1.141,1.975,2.989,0,4.128l-17.1,9.875A7.9,7.9,0,0,1,1964.372,813.422Z" transform="translate(13395.914 10222.029)"/><path class="g" d="M1919.384,785.658v4.126l48.564,27.047,22.159-12.794V800.9Z" transform="translate(13395.914 10219.475)"/><path class="f" d="M1964.372,809.459l-43.508-25.121c-1.975-1.14-1.975-2.988,0-4.128l17.1-9.875a7.906,7.906,0,0,1,7.151,0l43.508,25.121c1.975,1.139,1.975,2.988,0,4.128l-17.1,9.875A7.9,7.9,0,0,1,1964.372,809.459Z" transform="translate(13395.914 10222.857)"/><path class="f" d="M1976.884,805.251l-42.155-24.339,3.7-2.139,42.155,24.339Z" transform="translate(13392.705 10220.914)"/><path class="f" d="M1968.85,809.889,1926.7,785.55l3.7-2.138,42.155,24.339Z" transform="translate(13394.384 10219.945)"/><path class="h" d="M1935.79,781.04l41.316,23.855,2.865-1.654-41.316-23.855Z" transform="translate(13392.482 10220.787)"/><path class="h" d="M1927.757,785.678l41.316,23.855,2.865-1.655-41.316-23.854Z" transform="translate(13394.163 10219.815)"/><path class="h" d="M1943.607,775.773l41.316,23.855,2.865-1.655-41.316-23.854Z" transform="translate(13390.848 10221.89)"/><path class="r" d="M2038.423,819.327c0,2.766-4.222,5.009-9.43,5.009s-9.43-2.243-9.43-5.009,4.222-5.008,9.43-5.008S2038.423,816.562,2038.423,819.327Z" transform="translate(13374.96 10213.479)"/><ellipse class="f" cx="9.43" cy="5.008" rx="9.43" ry="5.008" transform="translate(15394.522 11025.315)"/><path class="a" d="M2037.312,906.889l.964-.56c.146-.085.145-.223,0-.308l-.966-.558a.589.589,0,0,0-.534,0l-.963.56a.163.163,0,0,0,0,.308l.967.558a.586.586,0,0,0,.533,0Z" transform="translate(13371.585 10194.43)"/><path class="s" d="M2015.055,758.378c0,1.612-1.131,2.265-2.528,1.459A5.588,5.588,0,0,1,2010,755.46c0-1.612,1.132-2.265,2.527-1.459A5.586,5.586,0,0,1,2015.055,758.378Z" transform="translate(13376.959 10226.169)"/><path class="t" d="M1928.53,777.351c-.017,0-.034.019-.051.038a1.161,1.161,0,0,1-.017-.245A.3.3,0,0,0,1928.53,777.351Z" transform="translate(13394.016 10221.256)"/><path class="u" d="M1927.4,774.293a.868.868,0,0,1-.658.054c-.023-.056-.011-.119-.044-.173Z" transform="translate(13394.386 10221.878)"/><path class="u" d="M1931.428,782.656c.12.008.241.032.361.048l-.947-.906C1931.043,782.079,1931.235,782.367,1931.428,782.656Z" transform="translate(13393.518 10220.283)"/><path class="t" d="M1928.153,771.628c-.018,0-.033.021-.048.042a1.212,1.212,0,0,1-.042-.242A.3.3,0,0,0,1928.153,771.628Z" transform="translate(13394.101 10222.452)"/><path class="u" d="M1926.716,768.7a.865.865,0,0,1-.651.12c-.027-.054-.022-.117-.06-.167Z" transform="translate(13394.529 10223.031)"/><path class="a" d="M1921.838,746.8l-.44.044Z" transform="translate(13395.493 10227.602)"/><g transform="translate(15233.379 10952.659)"><g transform="translate(0 0)"><g transform="translate(25.194 0)"><g transform="translate(34.123 124.869)"><g transform="translate(0 34.562)"><path class="a" d="M1302.185,1724.379c-2.941-2.312-9.672,1.715-12.9,2.435-2.087.464-9.7.9-9.106,4.514a12.507,12.507,0,0,0-.379,2.772,10.752,10.752,0,0,0,.335,3.529,9.419,9.419,0,0,0,4.466,2.681,5.751,5.751,0,0,0,.6-.072,13.377,13.377,0,0,0,4-1.877c3.983-2.441,9.95-4.584,12.945-8.275C1303.478,1728.439,1303.851,1725.688,1302.185,1724.379Z" transform="translate(-1279.783 -1723.671)"/></g><g transform="translate(1.355 30.018)"><g transform="translate(0 0)"><g transform="translate(0)"><path class="v" d="M3.953,0h6.586a3.953,3.953,0,0,1,3.953,3.953v.277a3.952,3.952,0,0,1-3.952,3.952H3.955A3.955,3.955,0,0,1,0,4.228V3.953A3.953,3.953,0,0,1,3.953,0Z" transform="translate(0 14.491) rotate(-89.292)"/></g></g></g><g transform="translate(0.132 0)"><path class="t" d="M1280.1,1688.907l-.183,34.93a4.808,4.808,0,0,0,4.405,4.1l2.394.176a4.809,4.809,0,0,0,5.157-5.027l4.285-34.181Z" transform="translate(-1279.915 -1688.907)"/></g></g><g transform="translate(34.142 21.387)"><g transform="translate(0 0)"><path class="a" d="M1279.8,1585.055c.022,0,.042.021.064.043a1.213,1.213,0,0,0,.022-.28A.325.325,0,0,1,1279.8,1585.055Z" transform="translate(-1279.801 -1584.819)"/></g></g><g transform="translate(22.738 26.079)"><g transform="translate(0 0)"><path class="u" d="M1270.533,1589.538l-2.178,15.333c-.3,2.122,2.194,3.842,5.573,3.842s6.363-1.72,6.664-3.842h.056l2.178-15.333Z" transform="translate(-1268.33 -1589.538)"/></g></g><g transform="translate(18.296 0)"><g transform="translate(27.101 17.883)"><path d="M1295.516,1590.552a4.635,4.635,0,1,1,4.392-4.629A4.521,4.521,0,0,1,1295.516,1590.552Zm0-8.539a3.918,3.918,0,1,0,3.675,3.91A3.8,3.8,0,0,0,1295.516,1582.013Z" transform="translate(-1291.122 -1581.294)"/></g><g transform="translate(4.62 9.81)"><path class="u" d="M1274.749,1591.266c-1.341-2-2.644,2.688-2.979.572-.348-2.193-3.253-1.274-3.262-3.514-.007-1.592,1.46-3.291,2.119-4.67a9.976,9.976,0,0,1,3.252-4.059,19.227,19.227,0,0,1,6.068-2.611,46.886,46.886,0,0,1,7.261-1.443l.676-2.367h7.61v22.23a4.352,4.352,0,0,1-.147.922,9.267,9.267,0,0,1-12.464,6.381Z" transform="translate(-1268.509 -1573.174)"/></g><g transform="translate(0)"><path class="w" d="M1300.049,1572.533a5.383,5.383,0,0,1-1.642,2.319c-3.36,3.092-6.493,3.247-9.347,5.875-1.97,1.8-3.891,6.6-3.765,10.306a2.12,2.12,0,0,0-.1.387,1.378,1.378,0,0,0,.126.283,5.264,5.264,0,0,0,1.137,2.989,7.073,7.073,0,0,0,4.723,2.164,6.232,6.232,0,0,0,4.623-1.339c-.144.128.134,4.536-.171,5.342a6.545,6.545,0,0,1-3.6,3.83c-3.569,1.513-7.605-.318-10.492-2.508-1.749-1.328-3.8-5.224-5.924-5.565l-4.321-.7c-1.516-.232-3.208-.568-4.143-1.829a6.053,6.053,0,0,1-.91-2.165c-2.274-8.141-4.692-15.786,1.852-23.232,6.064-6.853,23.386-7.136,30.46-1.03A4.756,4.756,0,0,1,1300.049,1572.533Z" transform="translate(-1263.862 -1563.306)"/></g><g transform="translate(16.869 22.054)"><path class="u" d="M1281.061,1591.174c.7,2.557,2.773,4.2,4.633,3.673s2.8-3.029,2.1-5.586-2.773-4.2-4.633-3.672S1280.363,1588.618,1281.061,1591.174Z" transform="translate(-1280.83 -1585.489)"/></g><g transform="translate(24.617 20.599)"><g transform="translate(0 0)"><g transform="translate(0)"><g transform="translate(0)"><rect class="x" width="10.771" height="0.719" transform="translate(0 4.418) rotate(-24.214)"/></g></g></g></g><g transform="translate(18.301 20.791) rotate(-8)"><g transform="translate(0 0)"><g transform="translate(0 0)"><rect class="w" width="4.055" height="15.544" rx="1.985"/></g></g></g></g><g transform="translate(0.03 92.738)"><g transform="translate(0 0)"><path class="t" d="M1300.908,1677.141l-39.978,24.938-9.678-5.83a11.91,11.91,0,0,1-5.762-10.205v-13.9l2.058,1.523,4.423-1.9,35.152-15.068.679-.058c.44-.039.872-.057,1.3-.057a15.773,15.773,0,0,1,15.287,11.89c0,.019.01.038.01.057A7.929,7.929,0,0,1,1300.908,1677.141Z" transform="translate(-1245.49 -1656.587)"/></g></g><g transform="translate(0.03 103.019)"><g transform="translate(0 0)"><path class="a" d="M1325.3,1678.828a15.785,15.785,0,0,0-15.288-11.9c-.432,0-.862.019-1.3.058l-.679.057-3.629,1.551-20.692,8.88a28.917,28.917,0,0,1-28.588-3.316l-3.151-2.328-6.481-4.787v19.06a11.91,11.91,0,0,0,5.762,10.205l9.678,5.83,11.278,6.787a14.753,14.753,0,0,0,15.422-.115l34.195-21.329A7.915,7.915,0,0,0,1325.3,1678.828Z" transform="translate(-1245.49 -1666.929)"/></g></g><g transform="translate(5.797 37.364)"><g transform="translate(0 0)"><path class="u" d="M1306.826,1628.079c-2.6,1.935-15.865,11.716-21.915,14.448a25.36,25.36,0,0,1-10.517,2.27,22.165,22.165,0,0,1-7.62-1.352,16.242,16.242,0,0,1-9.607-8.622,14.243,14.243,0,0,1-.9-2.859l-4.886-24.119c-.591-2.9,1.786-5.928,5.3-6.748s6.851.872,7.44,3.785L1269,1629c.007.016.005.031.012.047a5.931,5.931,0,0,0,3.954,4.292,9.172,9.172,0,0,0,6.867-.349c3.339-1.509,13.171-8.383,19.089-12.789,2.82-2.1,6.873-2.03,9.056.148S1309.645,1625.988,1306.826,1628.079Z" transform="translate(-1251.29 -1600.889)"/></g></g><g transform="translate(0 36.101)"><g transform="translate(0 0)"><path class="t" d="M1294.935,1675.772a7.392,7.392,0,0,1-4.911,7.19c-1.8.641-4.8,1.665-7.161,2.221a15.811,15.811,0,0,1-1.866.335,31.575,31.575,0,0,1-19.769-4.509l-13.019-7.583a5.566,5.566,0,0,1-2.748-4.93l1.369-54.04a15.715,15.715,0,0,1,7.8-13.556,12.346,12.346,0,0,1,6.088-1.282,26.561,26.561,0,0,1,3.4.229c5.974.718,12.627,3.2,16.054,5.591,3.37,2.135,7.554,3.522,10.253,6.184a9.029,9.029,0,0,1,2.786,6.539C1293.269,1620.067,1294.935,1675.772,1294.935,1675.772Z" transform="translate(-1245.459 -1599.619)"/></g><g class="y" transform="translate(34.497 16.496)"><path class="t" d="M1284.747,1619.141a.806.806,0,0,1-.353.386,29.611,29.611,0,0,0-.458,5.539c-.019,3.466.134,7.036-1.091,10.282-.747,1.971-1.991,3.762-2.46,5.82-1.13,4.9,2.288,9.592,3.274,14.513,1.092,5.476-.852,11.037-1.369,16.59a50.817,50.817,0,0,0,.776,13.01c2.365-.556,5.36-1.58,7.161-2.221a7.392,7.392,0,0,0,4.911-7.19s-1.541-51.509-1.71-57.151C1290.892,1615.908,1286.719,1614.724,1284.747,1619.141Z" transform="translate(-1280.158 -1616.212)"/></g></g><g transform="translate(40.156 51.306)"><g transform="translate(0 0)"><path class="u" d="M1333.728,1647.65c-1.905,2.383-11.645,14.435-16.284,17.821a14.182,14.182,0,0,1-8.345,2.863,13.74,13.74,0,0,1-6.388-1.582,19.163,19.163,0,0,1-8.84-10.433,25.4,25.4,0,0,1-1.062-3.48l-6.745-29.379c-.815-3.539.786-7.248,3.564-8.279s5.7,1,6.519,4.55l6.744,29.38c.008.019.008.038.016.057a7.654,7.654,0,0,0,3.722,5.2,5.19,5.19,0,0,0,5.579-.486c2.558-1.871,9.82-10.343,14.159-15.771a4.5,4.5,0,0,1,7.425.1A8.012,8.012,0,0,1,1333.728,1647.65Z" transform="translate(-1285.851 -1614.912)"/></g></g><g transform="translate(36.867 50.905)"><g transform="translate(0 0)"><path class="t" d="M1307.405,1648.469l-8.359-28.034a8.207,8.207,0,0,0-4.033-4.912,8.553,8.553,0,0,0-6.407-.681,8.341,8.341,0,0,0-5.021,3.94,8.005,8.005,0,0,0-.7,6.255l8.382,28.126a22.267,22.267,0,0,0,1.438,3.626l.353.694a.971.971,0,0,0,1.169.473l.751-.248c.434-.143.876-.306,1.278-.47a33.285,33.285,0,0,0,10.7-6.811l.47-.449a.925.925,0,0,0,.191-1.088Z" transform="translate(-1282.542 -1614.509)"/></g></g><g transform="translate(62.45 114.919)"><g transform="translate(0 56.822)"><path class="a" d="M1332.549,1736.819c-3.187-2.5-10.48,1.858-13.979,2.638-2.262.5-10.506.972-9.868,4.892a13.539,13.539,0,0,0-.411,3,11.671,11.671,0,0,0,.363,3.825,10.2,10.2,0,0,0,4.84,2.9,6.214,6.214,0,0,0,.652-.077,14.51,14.51,0,0,0,4.331-2.033c4.316-2.646,10.782-4.968,14.028-8.967C1333.952,1741.22,1334.355,1738.239,1332.549,1736.819Z" transform="translate(-1308.275 -1736.052)"/></g><g transform="translate(1.471 51.9)"><g transform="translate(0 0)"><g transform="translate(0 0)"><rect class="v" width="8.866" height="15.703" rx="4.284" transform="translate(8.865 15.808) rotate(-179.314)"/></g></g></g><g transform="translate(0.143 0)"><path class="a" d="M1309.388,1680.313l-.969,55.805a5.209,5.209,0,0,0,4.773,4.444l2.594.191a5.212,5.212,0,0,0,5.588-5.446l4.293-56.409Z" transform="translate(-1308.419 -1678.898)"/></g></g></g><g transform="translate(20.587 137.611)"><path class="e" d="M1912.707,927.9c-11.038-6.372-28.933-6.372-39.97,0s-11.038,16.7,0,23.077,28.932,6.372,39.97,0S1923.743,934.277,1912.707,927.9Z" transform="translate(-1864.458 -897.561)"/><path class="z" d="M1873.809,955.538a6.432,6.432,0,0,1,2.91-5.04c1.608-.928,2.91-.176,2.911,1.68a6.432,6.432,0,0,1-2.911,5.041C1875.112,958.146,1873.809,957.394,1873.809,955.538Z" transform="translate(-1866.414 -903.203)"/><path class="z" d="M1873.809,955.538a6.432,6.432,0,0,1,2.91-5.04c1.608-.928,2.91-.176,2.911,1.68a6.432,6.432,0,0,1-2.911,5.041C1875.112,958.146,1873.809,957.394,1873.809,955.538Z" transform="translate(-1866.414 -903.203)"/><path class="z" d="M1879.037,950.414l2.508,1.307-3.937,7.176-2.937-1.528.744-4.042Z" transform="translate(-1866.595 -903.268)"/><path class="g" d="M1876.937,957.161a6.432,6.432,0,0,1,2.91-5.041c1.607-.927,2.91-.176,2.91,1.681a6.434,6.434,0,0,1-2.91,5.041C1878.24,959.769,1876.937,959.017,1876.937,957.161Z" transform="translate(-1867.069 -903.543)"/><path class="h" d="M1876.937,957.161a6.432,6.432,0,0,1,2.91-5.041c1.607-.927,2.91-.176,2.91,1.681a6.434,6.434,0,0,1-2.91,5.041C1878.24,959.769,1876.937,959.017,1876.937,957.161Z" transform="translate(-1867.069 -903.543)"/><path class="z" d="M1918.062,930.8a6.436,6.436,0,0,1,2.91-5.041c1.607-.928,2.91-.176,2.91,1.68a6.43,6.43,0,0,1-2.91,5.041C1919.365,933.412,1918.062,932.66,1918.062,930.8Z" transform="translate(-1875.671 -898.03)"/><path class="z" d="M1918.062,930.8a6.436,6.436,0,0,1,2.91-5.041c1.607-.928,2.91-.176,2.91,1.68a6.43,6.43,0,0,1-2.91,5.041C1919.365,933.412,1918.062,932.66,1918.062,930.8Z" transform="translate(-1875.671 -898.03)"/><path class="z" d="M1923.289,925.68l2.508,1.307-3.937,7.176-2.937-1.528.744-4.042Z" transform="translate(-1875.851 -898.095)"/><path class="g" d="M1921.19,932.426a6.432,6.432,0,0,1,2.91-5.041c1.607-.928,2.911-.176,2.911,1.681a6.435,6.435,0,0,1-2.911,5.041C1922.493,935.035,1921.19,934.283,1921.19,932.426Z" transform="translate(-1876.325 -898.369)"/><path class="h" d="M1921.19,932.426a6.432,6.432,0,0,1,2.91-5.041c1.607-.928,2.911-.176,2.911,1.681a6.435,6.435,0,0,1-2.911,5.041C1922.493,935.035,1921.19,934.283,1921.19,932.426Z" transform="translate(-1876.325 -898.369)"/><path class="z" d="M1915.986,956.63a6.431,6.431,0,0,1,2.91-5.04c1.607-.929,2.91-.176,2.91,1.68a6.432,6.432,0,0,1-2.91,5.041C1917.289,959.239,1915.986,958.486,1915.986,956.63Z" transform="translate(-1875.236 -903.432)"/><path class="z" d="M1915.986,956.63a6.431,6.431,0,0,1,2.91-5.04c1.607-.929,2.91-.176,2.91,1.68a6.432,6.432,0,0,1-2.91,5.041C1917.289,959.239,1915.986,958.486,1915.986,956.63Z" transform="translate(-1875.236 -903.432)"/><path class="z" d="M1921.213,951.506l2.508,1.307-3.937,7.176-2.937-1.528.744-4.041Z" transform="translate(-1875.417 -903.497)"/><path class="g" d="M1919.113,958.253a6.433,6.433,0,0,1,2.91-5.041c1.608-.928,2.91-.176,2.91,1.681a6.432,6.432,0,0,1-2.91,5.041C1920.416,960.861,1919.113,960.109,1919.113,958.253Z" transform="translate(-1875.89 -903.772)"/><path class="h" d="M1919.113,958.253a6.433,6.433,0,0,1,2.91-5.041c1.608-.928,2.91-.176,2.91,1.681a6.432,6.432,0,0,1-2.91,5.041C1920.416,960.861,1919.113,960.109,1919.113,958.253Z" transform="translate(-1875.89 -903.772)"/><path class="z" d="M1873.025,931.722a6.436,6.436,0,0,1,2.91-5.041c1.607-.928,2.91-.176,2.91,1.681a6.43,6.43,0,0,1-2.91,5.041C1874.329,934.33,1873.025,933.578,1873.025,931.722Z" transform="translate(-1866.25 -898.221)"/><path class="z" d="M1873.025,931.722a6.436,6.436,0,0,1,2.91-5.041c1.607-.928,2.91-.176,2.91,1.681a6.43,6.43,0,0,1-2.91,5.041C1874.329,934.33,1873.025,933.578,1873.025,931.722Z" transform="translate(-1866.25 -898.221)"/><path class="z" d="M1878.252,926.6l2.508,1.307-3.937,7.176-2.937-1.527.744-4.042Z" transform="translate(-1866.431 -898.287)"/><path class="g" d="M1876.153,933.345a6.431,6.431,0,0,1,2.911-5.041c1.607-.928,2.91-.176,2.91,1.68a6.432,6.432,0,0,1-2.91,5.04C1877.456,935.953,1876.153,935.2,1876.153,933.345Z" transform="translate(-1866.905 -898.561)"/><path class="h" d="M1876.153,933.345a6.431,6.431,0,0,1,2.911-5.041c1.607-.928,2.91-.176,2.91,1.68a6.432,6.432,0,0,1-2.91,5.04C1877.456,935.953,1876.153,935.2,1876.153,933.345Z" transform="translate(-1866.905 -898.561)"/><path class="q" d="M1914.9,942.543l-12.878-7.435,12.878-7.435c2.114-1.22,2.114-3.217,0-4.438h0a8.528,8.528,0,0,0-7.687,0l-12.878,7.435-12.878-7.435a8.528,8.528,0,0,0-7.687,0c-2.114,1.221-2.114,3.218,0,4.438l12.878,7.435-12.878,7.435c-2.114,1.22-2.114,3.218,0,4.438h0a8.528,8.528,0,0,0,7.687,0l12.878-7.435,12.878,7.435a8.529,8.529,0,0,0,7.687,0C1917.017,945.761,1917.017,943.763,1914.9,942.543Z" transform="translate(-1866.076 -897.392)"/><path class="q" d="M1914.9,942.543l-12.878-7.435,12.878-7.435c2.114-1.22,2.114-3.217,0-4.438h0a8.528,8.528,0,0,0-7.687,0l-12.878,7.435-12.878-7.435a8.528,8.528,0,0,0-7.687,0c-2.114,1.221-2.114,3.218,0,4.438l12.878,7.435-12.878,7.435c-2.114,1.22-2.114,3.218,0,4.438h0a8.528,8.528,0,0,0,7.687,0l12.878-7.435,12.878,7.435a8.529,8.529,0,0,0,7.687,0C1917.017,945.761,1917.017,943.763,1914.9,942.543Z" transform="translate(-1866.076 -897.392)"/><path class="g" d="M1892,936.521c0,2.406,2.9,4.356,6.485,4.356s6.486-1.95,6.486-4.356-2.9-6.392-6.486-6.392S1892,934.115,1892,936.521Z" transform="translate(-1870.219 -899.026)"/><path class="q" d="M1894.18,933.325c0,1.765,2.131,3.2,4.759,3.2s4.757-1.431,4.757-3.2-2.13-3.2-4.757-3.2S1894.18,931.56,1894.18,933.325Z" transform="translate(-1870.675 -899.026)"/><path class="g" d="M1899.427,890.8a2.93,2.93,0,0,0-2.91,2.951v28.4a2.91,2.91,0,1,0,5.82,0v-28.4A2.93,2.93,0,0,0,1899.427,890.8Z" transform="translate(-1871.164 -890.799)"/></g><path class="aa" d="M1947.265,876.111c0,.159,0,.327-.017.5a14.476,14.476,0,0,1-7.467,11.6l-31.749,17.409a8.411,8.411,0,0,1-1.5.646,8.666,8.666,0,0,1-7.089-.772l-36.363-21.428A19.846,19.846,0,0,1,1853.4,868.8l-3.808-40.759-.4-4.237a4.526,4.526,0,0,1,6.511-4.48l39.359,19.473a4.525,4.525,0,0,1,2.29,2.634l12.586,38.192a5.255,5.255,0,0,0,7.594,2.92L1938.07,870.8A6.146,6.146,0,0,1,1947.265,876.111Z" transform="translate(-1849.172 -751.639)"/><path class="z" d="M1905.547,905.975a2.523,2.523,0,0,1-2.722,3.388,8.65,8.65,0,0,1-3.2-1.116l-36.363-21.428a19.847,19.847,0,0,1-9.683-15.254l-3.506-37.528a1.812,1.812,0,0,1,2.607-1.793l31.759,15.7a4.543,4.543,0,0,1,2.29,2.643l12.577,38.192C1899.744,890.112,1902.4,897.725,1905.547,905.975Z" transform="translate(-1849.36 -754.403)"/><g transform="translate(104.586 62.355)"><path class="ab" d="M9.884,10.059c-2.76,2.565-6.643,2.871-8.676.685s-1.441-6.037,1.318-8.6S9.17-.728,11.2,1.458,12.643,7.5,9.884,10.059Z" transform="matrix(0.985, -0.174, 0.174, 0.985, 0, 9.193)"/><path class="ab" d="M.482,10.392h0A1.8,1.8,0,0,1,.575,7.845L8.5.482a1.8,1.8,0,0,1,2.545.094h0a1.8,1.8,0,0,1-.094,2.545L3.028,10.484A1.8,1.8,0,0,1,.482,10.392Z" transform="matrix(0.985, -0.174, 0.174, 0.985, 1.935, 2.002)"/></g></g></g></g><g transform="translate(49.675 1112)"><path class="ac" d="M2027.759,761.164c0,12.934-4.97,16.572-4.97,16.572s-1.088.687-2.707,1.7a.41.41,0,0,0-.086.071l-.344.2q-1.16.73-2.534,1.59l-.087-.044-.917.545-7.019,4.154a6.181,6.181,0,0,1-5.686.043l-15.641-9.038c-1.576-.9-1.576-2.378,0-3.295l7.032-4.068,4.1-2.363h.015c1.017-.587,1.991-1.146,2.836-1.647,5.743-3.308.286-18.649.014-19.408v-.015h.014Z" transform="translate(-1371.857 5201.568)"/><path class="q" d="M2027.969,761.164c0,12.934-4.97,16.572-4.97,16.572s-1.089.687-2.708,1.7a.385.385,0,0,0-.086.071l-.344.2q-1.16.73-2.534,1.59l-.087-.044-.917.545-21.313-12.2,4.1-2.363h.014c1.017-.587,1.991-1.146,2.837-1.647,5.743-3.308.286-18.649.013-19.408l.015-.015Z" transform="translate(-1372.067 5201.568)"/><path class="s" d="M2016.233,759.478c0,1.987-1.4,2.793-3.116,1.8a6.889,6.889,0,0,1-3.116-5.4c0-1.987,1.4-2.793,3.116-1.8A6.886,6.886,0,0,1,2016.233,759.478Z" transform="translate(-1372.441 5201.381)"/><path class="g" d="M2001.521,749.255s5.787,15.8,0,19.144l-2.8,1.615-.009,0-10.969,6.336c-1.544.892-1.543,2.351,0,3.242l15.409,8.9a6.088,6.088,0,0,0,5.587-.047l7.824-4.627.078.036c.9-.559,1.74-1.085,2.5-1.559l.344-.2c.032-.02.054-.044.083-.065,1.586-1,2.661-1.677,2.661-1.677s4.894-3.584,4.894-16.318Z" transform="translate(-1356.185 5185.738)"/><path class="ac" d="M2027.126,760.933c0,12.736-4.894,16.318-4.894,16.318s-1.072.677-2.666,1.678a.414.414,0,0,0-.084.07l-.339.2q-1.142.719-2.5,1.566l-.085-.043-.9.537-6.911,4.09a6.085,6.085,0,0,1-5.6.042l-15.4-8.9c-1.552-.889-1.552-2.342,0-3.244l6.924-4.006,4.034-2.327h.014c1-.578,1.96-1.128,2.793-1.622,5.655-3.258.281-18.363.013-19.11v-.014h.014Z" transform="translate(-1356.185 5185.86)"/><path class="q" d="M2027.463,760.933c0,12.736-4.894,16.318-4.894,16.318s-1.073.677-2.667,1.678a.389.389,0,0,0-.084.07l-.339.2q-1.142.719-2.5,1.566l-.085-.043-.9.537L1995.01,769.24l4.033-2.327h.014c1-.578,1.96-1.128,2.793-1.622,5.655-3.258.281-18.363.013-19.11l.015-.014Z" transform="translate(-1356.521 5185.86)"/><path class="d" d="M2063.59,708.413,1981.983,661.3c-2.028-1.17-3.576-.685-5.348.744l-3.77,2.114,4.055,2.867v63.755a11.19,11.19,0,0,0,5.063,8.77l79.912,46.135v3.626a.653.653,0,0,0,1.023.537l3.833-2.642c1.158-.4,1.9-1.615,1.9-3.465V717.194A11.205,11.205,0,0,0,2063.59,708.413Z" transform="translate(-1355.637 5189.271)"/><path class="ad" d="M2063.071,720.523v66.544c0,3.237-2.271,4.536-5.063,2.924L1976.4,742.876a11.186,11.186,0,0,1-5.063-8.77V667.563c0-3.237,2.27-4.547,5.063-2.935l81.606,47.113A11.21,11.21,0,0,1,2063.071,720.523Z" transform="translate(-1355.576 5189.141)"/><path class="ae" d="M1977.728,736.762V672.688l79.458,45.874v64.074Z" transform="translate(-1355.832 5188.791)"/><path class="g" d="M2060.246,793.615a5.187,5.187,0,0,1-2.559-.774l-81.606-47.114a11.684,11.684,0,0,1-5.358-9.281V722.56l92.915,53.642v13.2a4.114,4.114,0,0,1-1.777,3.791A3.19,3.19,0,0,1,2060.246,793.615ZM1971.9,724.606v11.839a10.557,10.557,0,0,0,4.768,8.259l81.607,47.114a2.515,2.515,0,0,0,4.178-2.412V776.885Z" transform="translate(-1355.553 5186.802)"/><path class="s" d="M2016.137,759.389c0,1.957-1.374,2.75-3.068,1.771a6.783,6.783,0,0,1-3.068-5.314c0-1.957,1.374-2.75,3.069-1.771A6.781,6.781,0,0,1,2016.137,759.389Z" transform="translate(-1357.119 5185.561)"/><path class="u" d="M1443.883,1493.577l-3.782,20.435a8.164,8.164,0,0,1-3.323,6.565c-11.923,10.339-3.842-6.255-3.842-6.565l3.782-20.435a3.582,3.582,0,0,1,7.165,0Z" transform="translate(-789.701 4416.165)"/><path class="v" d="M1455.057,1508.656a2.958,2.958,0,0,0,1.386-.9,2.157,2.157,0,0,0,.542-1.448l3.31-13.919c0-2.76-1.791-4.995-4-4.995s-4,2.235-4,4.995l-2.777,11.672a1.951,1.951,0,0,0,.974,2.063Z" transform="translate(-805.782 4417.485)"/><path class="v" d="M1482.378,1508.467c-.023,6.155-.723,13.118-2.633,14.873-1.475,1.356-4.17,1.461-7.025.955q-.27-.043-.539-.1a29,29,0,0,1-8.646-3.258c-.449-.269-5.626-2.652-7.815-3.976a.283.283,0,0,0-.284-.028c1.239-2.969,2.681-6.755,2.524-9.9-.133-2.7-1.555-5.5-1.943-8.235-.7-4.983-.742-12.146,4.26-15.048a6.1,6.1,0,0,1,3.007-.638,9.272,9.272,0,0,1,1.669.114c7.706,1.4,11.786,3.887,14.107,7.7,1.56,2.549,2.335,5.7,2.883,9.512.034.232.067.487.095.757.018.137.033.274.047.416A66.9,66.9,0,0,1,1482.378,1508.467Z" transform="translate(-808.813 4419.669)"/><path class="v" d="M1476.424,1488.718l-4.168,4.673a1.121,1.121,0,0,1-1.747-.093l-2.424-3.367-3.483.621a.7.7,0,0,1-.816-.683v-1.08a5.069,5.069,0,0,1,4.006-4.957,11.63,11.63,0,0,1,2.432-.253,10.187,10.187,0,0,1,5.842,1.694A2.33,2.33,0,0,1,1476.424,1488.718Z" transform="translate(-813.063 4419.429)"/><path class="v" d="M1500.3,1516.564c-.024,6.155-.723,13.119-2.633,14.873-1.475,1.357-4.17,1.461-7.025.955a7.965,7.965,0,0,1,.373-.846c2.558-4.15,2.889-5.342,2.373-10.263a15.916,15.916,0,0,1,.114-5.834c.5-1.792,1.632-3.527,1.286-5.352a10.968,10.968,0,0,0-.936-2.33,8.925,8.925,0,0,1-.577-5.191,4.845,4.845,0,0,1,1.234-2.6,3.512,3.512,0,0,1,2.472-.96c1.56,2.549,2.335,5.7,2.884,9.512.033.232.066.487.095.756.019.132.033.274.047.416C1500.18,1511.491,1500.289,1513.926,1500.3,1516.564Z" transform="translate(-826.733 4411.572)"/><path class="a" d="M1476.286,1486.253a2.071,2.071,0,0,1-.662,1.47,4.6,4.6,0,0,1-5.867.052,1.98,1.98,0,0,1,0-3.045c.043-.038.09-.081.138-.118,0,0,.009-.009.014-.009a4.083,4.083,0,0,1,2-.841c.123-.019.246-.033.374-.043s.25-.014.378-.014a4.2,4.2,0,0,1,2.96,1.083A2.062,2.062,0,0,1,1476.286,1486.253Z" transform="translate(-815.739 4419.366)"/><path class="u" d="M1476.359,1473.15v9.2a4.206,4.206,0,0,1-2.959,1.083,4.286,4.286,0,0,1-2.841-.974.579.579,0,0,1-.066-.057v-9.252Z" transform="translate(-816.478 4424.739)"/><path class="af" d="M1473.156,1483.423a4.53,4.53,0,0,1-3-1.034c0,.006-.028-.022-.046-.039l-.073-.07-.026-.125v-9.488h6.339v9.534l-.069.069A4.477,4.477,0,0,1,1473.156,1483.423Zm-2.671-1.373a4.11,4.11,0,0,0,2.671.9,4.056,4.056,0,0,0,2.723-.947v-8.864h-5.394Z" transform="translate(-816.233 4424.984)"/><path class="u" d="M1476.057,1475.75l-.506.752-2.558,3.664-.359.51-2.075,3.106a.618.618,0,0,1-.066-.057v-4.794l0-.023a34.567,34.567,0,0,1,2.828-3l2.288-.127Z" transform="translate(-816.478 4423.415)"/><path class="u" d="M1471.415,1462.947c-.024.341-.424.623-.846.893-.141.094-.282.188-.412.294-.012,0-.024,0-.035.024a1.334,1.334,0,0,0-.27.235.69.69,0,0,0-.2.341,6.82,6.82,0,0,1-.411,1.281,6.94,6.94,0,0,1-2.657,3.127,7.108,7.108,0,0,1-.788.411,5.409,5.409,0,0,1-1.7.47,4.33,4.33,0,0,1-.682.024,5.7,5.7,0,0,1-5.3-4.7,10.894,10.894,0,0,1-.2-1.751c-.012-.683,0-1.352.024-2.011.047-1.047.082-2.093.117-3.127.012-.423.035-.835.047-1.258a1.363,1.363,0,0,1,.011-.576,1.921,1.921,0,0,1,1-1.258,4.3,4.3,0,0,1,2.469-.282,12.693,12.693,0,0,1,4.9,1.423,6.851,6.851,0,0,1,3.222,3.833C1469.934,1461.09,1471.45,1462.16,1471.415,1462.947Z" transform="translate(-810.068 4433.964)"/><path class="a" d="M1471.181,1453.1a6.552,6.552,0,0,0-1.538-3.906,6.891,6.891,0,0,0-3.251-2.02,7.22,7.22,0,0,0-2.579-.394,18.291,18.291,0,0,0-3.551,1.007c-1.221.342-2.513.412-3.7.848a3.485,3.485,0,0,0-2.457,2.64,3.187,3.187,0,0,0,2.076,3.016,9.341,9.341,0,0,0,3.858.489c.888-.013,2.739-.388,3.54.027,1.222.634.767,2.481,1.348,3.467a.946.946,0,0,0,.848.482c.8-.056,1.086-1.185,1.84-1.458a1.154,1.154,0,0,1,1.375.657,1.613,1.613,0,0,1-.254,1.58c-.36.472-1.066.524-1.389.9-.267.312-.167.846-.06,1.344a1.338,1.338,0,0,0,.8,1.01C1471.242,1463.873,1471.293,1454.588,1471.181,1453.1Z" transform="translate(-808.128 4438.169)"/><path class="u" d="M1483.064,1504.551v21.38a8.165,8.165,0,0,1-3.323,6.564c-14.459,8.7-19.654,3.626-4.236-5.781a.981.981,0,0,0,.394-.784v-21.38a3.583,3.583,0,1,1,7.165,0Z" transform="translate(-810.758 4410.578)"/><path class="v" d="M1496.6,1524.223a4.13,4.13,0,0,0,3.814-1.422,2.161,2.161,0,0,0,.542-1.449v-17.227c0-2.76-1.791-4.995-4-4.995s-4,2.235-4,4.995v17.851a1.261,1.261,0,0,0,.77,1.162A12.826,12.826,0,0,0,1496.6,1524.223Z" transform="translate(-827.911 4411.514)"/><path class="g" d="M2063.07,776.586v12.863c0,3.237-2.271,4.536-5.063,2.924L1976.4,745.257a11.185,11.185,0,0,1-5.063-8.77V723.625Z" transform="translate(-1355.576 5186.759)"/></g></g></svg>