<svg xmlns="http://www.w3.org/2000/svg" width="542" height="398.399" viewBox="0 0 542 398.399"><defs><style>.a{fill:#525252;}.b{fill:#fff;}.c{fill:#3d2768;}.d{fill:rgba(15,0,0,0.1);}.e{fill:#c4e4f9;}.f{fill:#0f62fe;}.g{fill:#647ddd;opacity:0.17;}.h{fill:#bddcff;}.i{fill:#8dc0ef;}.j{fill:#e2e8f2;}.k{fill:#1f3598;}.l{fill:#d5e8fa;}.m{fill:#eff6fc;}.n{fill:#75a3ec;}.o{fill:#f2f4f9;}.p{fill:#484255;}.q{fill:#577de8;}.r{fill:#f2f4fa;}.s{fill:#3772ce;}.t{fill:#ff8358;}.u{fill:#ced6e9;}.v{fill:#743c45;}.w{fill:#312103;}.x{opacity:0.34;}.y{fill:#4568c7;}.z{fill:#c1d7ea;}.aa{fill:#fd8358;}</style></defs><g transform="translate(-402 -9302)"><g transform="translate(27 30)"><g transform="translate(-268 2707)"><circle class="a" cx="130" cy="130" r="130" transform="translate(925 6565)"/></g><g transform="translate(-700 -587)"><g transform="translate(1424 9940.035)"><path class="b" d="M284.175,311.67a1.542,1.542,0,0,1-1.54-1.54v-82.3a1.542,1.542,0,0,1,1.54-1.54H412.391a1.542,1.542,0,0,1,1.54,1.54v60.512a1.54,1.54,0,0,1-3.08,0V229.373H285.715V308.59h66.107a1.54,1.54,0,1,1,0,3.08Z" transform="translate(-282.635 -226.293)"/></g><g transform="translate(1435.744 9957.057)"><path class="b" d="M295.614,245.954a1.54,1.54,0,0,1,0-3.08H317.75a1.54,1.54,0,1,1,0,3.08Z" transform="translate(-294.074 -242.874)"/></g><g transform="translate(1476.697 9957.059)"><path class="b" d="M335.5,245.955a1.54,1.54,0,0,1,0-3.08h3.039a1.54,1.54,0,0,1,0,3.08Z" transform="translate(-333.965 -242.875)"/></g><g transform="translate(1486.916 9957.059)"><path class="b" d="M345.459,245.955a1.54,1.54,0,1,1,0-3.08h3.04a1.54,1.54,0,0,1,0,3.08Z" transform="translate(-343.919 -242.875)"/></g><g transform="translate(1497.135 9957.059)"><path class="b" d="M355.413,245.955a1.54,1.54,0,0,1,0-3.08h3.039a1.54,1.54,0,0,1,0,3.08Z" transform="translate(-353.873 -242.875)"/></g><g transform="translate(1507.354 9957.059)"><path class="b" d="M365.367,245.955a1.54,1.54,0,1,1,0-3.08h3.039a1.54,1.54,0,1,1,0,3.08Z" transform="translate(-363.827 -242.875)"/></g><g transform="translate(1517.572 9957.059)"><path class="b" d="M375.32,245.955a1.54,1.54,0,0,1,0-3.08h3.039a1.54,1.54,0,0,1,0,3.08Z" transform="translate(-373.78 -242.875)"/></g><g transform="translate(1527.791 9957.059)"><path class="b" d="M385.274,245.955a1.54,1.54,0,1,1,0-3.08h3.039a1.54,1.54,0,1,1,0,3.08Z" transform="translate(-383.734 -242.875)"/></g><path class="b" d="M395.228,245.955a1.54,1.54,0,0,1,0-3.08h3.039a1.54,1.54,0,0,1,0,3.08Z" transform="translate(1144.322 9714.184)"/><g transform="translate(1507.354 9971.449)"><path class="b" d="M365.367,259.973a1.54,1.54,0,1,1,0-3.08h3.039a1.54,1.54,0,1,1,0,3.08Z" transform="translate(-363.827 -256.893)"/></g><g transform="translate(1517.572 9971.449)"><path class="b" d="M375.32,259.973a1.54,1.54,0,0,1,0-3.08h3.039a1.54,1.54,0,0,1,0,3.08Z" transform="translate(-373.78 -256.893)"/></g><g transform="translate(1527.791 9971.449)"><path class="b" d="M385.274,259.973a1.54,1.54,0,1,1,0-3.08h3.039a1.54,1.54,0,1,1,0,3.08Z" transform="translate(-383.734 -256.893)"/></g><path class="b" d="M395.228,259.973a1.54,1.54,0,0,1,0-3.08h3.039a1.54,1.54,0,0,1,0,3.08Z" transform="translate(1144.322 9714.557)"/><g transform="translate(1476.697 9980.105)"><path class="b" d="M335.5,268.4a1.54,1.54,0,0,1,0-3.08h3.039a1.54,1.54,0,0,1,0,3.08Z" transform="translate(-333.965 -265.325)"/></g><g transform="translate(1486.916 9980.105)"><path class="b" d="M345.459,268.4a1.54,1.54,0,1,1,0-3.08h3.04a1.54,1.54,0,0,1,0,3.08Z" transform="translate(-343.919 -265.325)"/></g><g transform="translate(1497.135 9980.105)"><path class="b" d="M355.413,268.4a1.54,1.54,0,0,1,0-3.08h3.039a1.54,1.54,0,0,1,0,3.08Z" transform="translate(-353.873 -265.325)"/></g><g transform="translate(1507.354 9980.105)"><path class="b" d="M365.367,268.4a1.54,1.54,0,1,1,0-3.08h3.039a1.54,1.54,0,1,1,0,3.08Z" transform="translate(-363.827 -265.325)"/></g><g transform="translate(1517.572 9980.105)"><path class="b" d="M375.32,268.4a1.54,1.54,0,0,1,0-3.08h3.039a1.54,1.54,0,0,1,0,3.08Z" transform="translate(-373.78 -265.325)"/></g><g transform="translate(1527.791 9980.105)"><path class="b" d="M385.274,268.4a1.54,1.54,0,1,1,0-3.08h3.039a1.54,1.54,0,1,1,0,3.08Z" transform="translate(-383.734 -265.325)"/></g><path class="b" d="M395.228,268.4a1.54,1.54,0,0,1,0-3.08h3.039a1.54,1.54,0,0,1,0,3.08Z" transform="translate(1144.322 9714.78)"/><g transform="translate(1476.697 9988.761)"><path class="b" d="M335.5,276.835a1.54,1.54,0,0,1,0-3.08h3.039a1.54,1.54,0,0,1,0,3.08Z" transform="translate(-333.965 -273.755)"/></g><g transform="translate(1486.916 9988.761)"><path class="b" d="M345.459,276.835a1.54,1.54,0,1,1,0-3.08h3.04a1.54,1.54,0,0,1,0,3.08Z" transform="translate(-343.919 -273.755)"/></g><g transform="translate(1497.135 9988.761)"><path class="b" d="M355.413,276.835a1.54,1.54,0,0,1,0-3.08h3.039a1.54,1.54,0,0,1,0,3.08Z" transform="translate(-353.873 -273.755)"/></g><g transform="translate(1507.354 9988.761)"><path class="b" d="M365.367,276.835a1.54,1.54,0,1,1,0-3.08h3.039a1.54,1.54,0,1,1,0,3.08Z" transform="translate(-363.827 -273.755)"/></g><g transform="translate(1517.572 9988.761)"><path class="b" d="M375.32,276.835a1.54,1.54,0,0,1,0-3.08h3.039a1.54,1.54,0,0,1,0,3.08Z" transform="translate(-373.78 -273.755)"/></g><g transform="translate(1527.791 9988.761)"><path class="b" d="M385.274,276.835a1.54,1.54,0,1,1,0-3.08h3.039a1.54,1.54,0,1,1,0,3.08Z" transform="translate(-383.734 -273.755)"/></g><path class="b" d="M395.228,276.835a1.54,1.54,0,0,1,0-3.08h3.039a1.54,1.54,0,0,1,0,3.08Z" transform="translate(1144.322 9715.006)"/><g transform="translate(1476.697 9997.417)"><path class="b" d="M335.5,285.267a1.54,1.54,0,0,1,0-3.08h3.039a1.54,1.54,0,0,1,0,3.08Z" transform="translate(-333.965 -282.187)"/></g><g transform="translate(1486.916 9997.417)"><path class="b" d="M345.459,285.267a1.54,1.54,0,1,1,0-3.08h3.04a1.54,1.54,0,0,1,0,3.08Z" transform="translate(-343.919 -282.187)"/></g><g transform="translate(1497.135 9997.417)"><path class="b" d="M355.413,285.267a1.54,1.54,0,0,1,0-3.08h3.039a1.54,1.54,0,0,1,0,3.08Z" transform="translate(-353.873 -282.187)"/></g><g transform="translate(1476.697 10006.321)"><path class="b" d="M335.5,293.941a1.54,1.54,0,0,1,0-3.08h3.039a1.54,1.54,0,0,1,0,3.08Z" transform="translate(-333.965 -290.861)"/></g><g transform="translate(1486.916 10006.321)"><path class="b" d="M345.459,293.941a1.54,1.54,0,1,1,0-3.08h3.04a1.54,1.54,0,0,1,0,3.08Z" transform="translate(-343.919 -290.861)"/></g><g transform="translate(1442.956 9965.469)"><path class="b" d="M302.639,254.147a1.54,1.54,0,1,1,0-3.08h14.924a1.54,1.54,0,1,1,0,3.08Z" transform="translate(-301.099 -251.067)"/></g><g transform="translate(1442.956 10006.298)"><path class="b" d="M302.639,293.918a1.54,1.54,0,1,1,0-3.08h14.924a1.54,1.54,0,1,1,0,3.08Z" transform="translate(-301.099 -290.838)"/></g><g transform="translate(1431.58 9934.999)"><path class="b" d="M291.558,232.794a1.542,1.542,0,0,1-1.54-1.54v-8.326a1.54,1.54,0,1,1,3.08,0v8.326A1.542,1.542,0,0,1,291.558,232.794Z" transform="translate(-290.018 -221.388)"/></g><g transform="translate(1442.956 9934.999)"><path class="b" d="M302.639,232.794a1.542,1.542,0,0,1-1.54-1.54v-8.326a1.54,1.54,0,1,1,3.08,0v8.326A1.542,1.542,0,0,1,302.639,232.794Z" transform="translate(-301.099 -221.388)"/></g><g transform="translate(1454.332 9934.999)"><path class="b" d="M313.72,232.794a1.542,1.542,0,0,1-1.54-1.54v-8.326a1.54,1.54,0,1,1,3.08,0v8.326A1.542,1.542,0,0,1,313.72,232.794Z" transform="translate(-312.18 -221.388)"/></g><g transform="translate(1465.707 9934.999)"><path class="b" d="M324.8,232.794a1.542,1.542,0,0,1-1.54-1.54v-8.326a1.54,1.54,0,0,1,3.08,0v8.326A1.541,1.541,0,0,1,324.8,232.794Z" transform="translate(-323.26 -221.388)"/></g><g transform="translate(1477.083 9934.999)"><path class="b" d="M335.881,232.794a1.542,1.542,0,0,1-1.54-1.54v-8.326a1.54,1.54,0,1,1,3.08,0v8.326A1.541,1.541,0,0,1,335.881,232.794Z" transform="translate(-334.341 -221.388)"/></g><g transform="translate(1488.459 9934.999)"><path class="b" d="M346.962,232.794a1.542,1.542,0,0,1-1.54-1.54v-8.326a1.54,1.54,0,1,1,3.08,0v8.326A1.541,1.541,0,0,1,346.962,232.794Z" transform="translate(-345.422 -221.388)"/></g><g transform="translate(1499.836 9934.999)"><path class="b" d="M358.044,232.794a1.541,1.541,0,0,1-1.54-1.54v-8.326a1.54,1.54,0,1,1,3.08,0v8.326A1.542,1.542,0,0,1,358.044,232.794Z" transform="translate(-356.504 -221.388)"/></g><g transform="translate(1511.212 9934.999)"><path class="b" d="M369.125,232.794a1.541,1.541,0,0,1-1.54-1.54v-8.326a1.54,1.54,0,1,1,3.08,0v8.326A1.542,1.542,0,0,1,369.125,232.794Z" transform="translate(-367.585 -221.388)"/></g><g transform="translate(1522.587 9934.999)"><path class="b" d="M380.2,232.794a1.542,1.542,0,0,1-1.54-1.54v-8.326a1.54,1.54,0,1,1,3.08,0v8.326A1.542,1.542,0,0,1,380.2,232.794Z" transform="translate(-378.665 -221.388)"/></g><g transform="translate(1533.963 9934.999)"><path class="b" d="M391.286,232.794a1.542,1.542,0,0,1-1.54-1.54v-8.326a1.54,1.54,0,1,1,3.08,0v8.326A1.542,1.542,0,0,1,391.286,232.794Z" transform="translate(-389.746 -221.388)"/></g><path class="b" d="M402.367,232.794a1.542,1.542,0,0,1-1.54-1.54v-8.326a1.54,1.54,0,1,1,3.08,0v8.326A1.542,1.542,0,0,1,402.367,232.794Z" transform="translate(1144.512 9713.611)"/><g transform="translate(1527.791 10002.248)"><path class="b" d="M396.345,321.128a1.526,1.526,0,0,1-1.088-.452L384.185,309.6a1.551,1.551,0,0,1-.451-1.088V288.433a1.54,1.54,0,1,1,3.08,0v19.445l10.62,10.62a1.54,1.54,0,0,1-1.089,2.629Z" transform="translate(-383.734 -286.893)"/></g><path class="b" d="M617.6,345.326a28.319,28.319,0,1,1,28.318-28.319A28.352,28.352,0,0,1,617.6,345.326Zm0-53.558a25.239,25.239,0,1,0,25.239,25.238A25.267,25.267,0,0,0,617.6,291.768Z" transform="translate(912.74 9705.856)"/></g></g><path class="c" d="M3048,672.045a3.255,3.255,0,0,0-.632.124c.25-4.52.8-8.2,1.608-8.446,0,0-.174,3.59-.1,8.351a1.151,1.151,0,0,0-.174-.025c-.121-.012-.241-.021-.361-.021A2.867,2.867,0,0,0,3048,672.045Z" transform="translate(-2547.727 8925.574)"/><g transform="translate(402 9579.484)"><path class="d" d="M276,660H813.675s-11.269,20.927-37.026,17.708a149.484,149.484,0,0,1-20.927-1.61c-9.659-1.61-24.147,3.22-27.367,8.049,0,0-24.147,14.488-64.392,0,0,0-37.026-16.1-62.782-1.61,0,0-19.318,20.928-69.222-4.829,0,0-12.879-8.049-35.416,8.049,0,0-22.537,19.318-66-8.049,0,0-24.147-6.439-51.514,6.439C379.028,684.147,324.294,692.2,276,660Z" transform="translate(-276 -571.461)"/><path class="e" d="M582.407,634.075s27.206,15.026,15.19,36.5C597.6,670.576,578.133,666.564,582.407,634.075Z" transform="translate(-89.525 -587.27)"/><path class="f" d="M614.007,623s14.488,46.684-22.537,57.953C591.47,680.953,573.762,655.2,614.007,623Z" transform="translate(-85.991 -594.023)"/><path class="f" d="M334.352,621.92s-41.564,22.958-23.207,55.765C311.145,677.685,340.883,671.557,334.352,621.92Z" transform="translate(-257.422 -594.682)"/><path class="e" d="M292.061,605s-22.135,71.324,34.43,88.539C326.492,693.539,353.546,654.189,292.061,605Z" transform="translate(-268.808 -605)"/></g><g transform="translate(-392 -36)"><path class="g" d="M2082.343,1008.589c-14.278,0-25.894,7.664-25.894,17.085s11.616,17.085,25.894,17.085,25.893-7.664,25.893-17.085S2096.62,1008.589,2082.343,1008.589Z" transform="translate(-1207.594 8554.883)"/><path class="h" d="M2102.192,998.561l-6,30.1H2056.41l-6-30.1Z" transform="translate(-1197.708 8544.457)"/><path class="h" d="M2096.515,1029.69c0,5.088-7.708,10.748-18.906,11.063-.323.007-.653.015-.983.015-11.723,0-19.889-5.84-19.889-11.078s8.166-11.086,19.889-11.086a31.763,31.763,0,0,1,8.278,1.058C2092.019,1021.576,2096.515,1025.8,2096.515,1029.69Z" transform="translate(-1198.034 8543.424)"/><path class="i" d="M2103.653,998.561l-6,30.1c0,5.089-7.708,10.748-18.906,11.063a19.463,19.463,0,0,0,3.5-4.653,27.867,27.867,0,0,0,2.424-6.41,53.025,53.025,0,0,0,1.374-10.027c.1-1.718.157-3.437.2-5.141q.214-7.465.435-14.928Z" transform="translate(-1199.168 8544.457)"/><ellipse class="j" cx="25.893" cy="17.085" rx="25.893" ry="17.085" transform="translate(852.698 9525.93)"/><ellipse class="k" cx="19.889" cy="11.081" rx="19.889" ry="11.081" transform="translate(858.702 9531.934)"/><circle class="i" cx="17.859" cy="17.859" r="17.859" transform="translate(858.103 9472.891) rotate(-80.783)"/><circle class="i" cx="12.663" cy="12.663" r="12.663" transform="translate(862.047 9477.527) rotate(-22.5)"/><ellipse class="i" cx="13.784" cy="13.784" rx="13.784" ry="13.784" transform="translate(860.582 9523.801) rotate(-67.5)"/><path class="i" d="M2082.4,1000.239a4.959,4.959,0,1,1-4.958-4.958A4.959,4.959,0,0,1,2082.4,1000.239Z" transform="translate(-1198.845 8544.625)"/><path class="i" d="M2091,920.662c-3.962,5.058-3.837,6.494-2.221,10.754H2065.1c1.616-4.26,1.741-5.7-2.22-10.754Z" transform="translate(-1198.351 8548.473)"/><path class="i" d="M2089.222,922.824c-13.063,12.178-11.5,25.676-2.1,35.758h-20.164c9.4-10.082,10.966-23.58-2.1-35.758Z" transform="translate(-1198.453 8548.361)"/><path class="i" d="M2088.723,923.322c-13.534,11.651-11.128,66.215-7.893,69.973h-7.517c3.237-3.758,5.642-58.323-7.893-69.973Z" transform="translate(-1198.481 8548.336)"/><path class="i" d="M2086.295,946.01c-4.409,4.567-4.506,8.451.465,13.25h-19.148c4.972-4.8,4.874-8.683.465-13.25Z" transform="translate(-1198.595 8547.166)"/><path class="i" d="M2085.616,946.76c-9.507,8.364-7.917,43.98-4.642,47.7h-7.446c3.275-3.724,4.866-39.339-4.641-47.7Z" transform="translate(-1198.66 8547.127)"/><path class="i" d="M2085.366,982.2c-8.94,6.492-6.423,11.24-4.088,14.456h-8.025c2.336-3.216,4.852-7.964-4.087-14.456Z" transform="translate(-1198.675 8545.301)"/></g><g transform="translate(-14707 -1482)"><path class="i" d="M2152.082,878.586a4.159,4.159,0,0,1-3.765,0,1.148,1.148,0,0,1,0-2.174,4.165,4.165,0,0,1,3.765,0A1.147,1.147,0,0,1,2152.082,878.586Z" transform="translate(13318.97 10192.063)"/><path class="i" d="M2152.863,811.891v49.49a.545.545,0,0,1-.041.193.437.437,0,0,1-.386.232h-4.474a.436.436,0,0,1-.385-.232.554.554,0,0,1-.04-.193v-49.49a.428.428,0,0,1,.426-.426h4.474A.43.43,0,0,1,2152.863,811.891Z" transform="translate(13318.97 10207.719)"/><path class="i" d="M2152.863,825.279a.372.372,0,0,1-.049.185.859.859,0,0,1,.049.281,1.311,1.311,0,0,1-.779,1.084,4.153,4.153,0,0,1-3.769,0,1.309,1.309,0,0,1-.779-1.084.871.871,0,0,1,.048-.281.376.376,0,0,1-.048-.185V816.8a.428.428,0,0,1,.426-.426h4.474a.429.429,0,0,1,.427.426Z" transform="translate(13318.97 10206.526)"/><path class="l" d="M2156.377,811.889V802.41l-17.519,11.263,1.171,3.118Z" transform="translate(13321.074 10209.917)"/><path class="i" d="M2038.387,945.063a4.16,4.16,0,0,1-3.766,0,1.148,1.148,0,0,1,0-2.174,4.161,4.161,0,0,1,3.766,0A1.148,1.148,0,0,1,2038.387,945.063Z" transform="translate(13422.725 10091.201)"/><path class="g" d="M2078.271,848.276l-140.739-80.042-87.043,52.26a1.565,1.565,0,0,0,.036,2.706l136.816,77.135a9.151,9.151,0,0,0,9.267-.089l81.694-49.024A1.707,1.707,0,0,0,2078.271,848.276Z" transform="translate(13409.344 10217.261)"/><path class="i" d="M2039.167,878.367v49.49a.551.551,0,0,1-.04.193.437.437,0,0,1-.385.233h-4.475a.439.439,0,0,1-.386-.233.557.557,0,0,1-.04-.193v-49.49a.429.429,0,0,1,.426-.426h4.475A.428.428,0,0,1,2039.167,878.367Z" transform="translate(13364.655 10190.629)"/><path class="i" d="M2039.167,886.843a.38.38,0,0,1-.048.185.871.871,0,0,1,.048.281,1.309,1.309,0,0,1-.779,1.084,4.152,4.152,0,0,1-3.768,0,1.311,1.311,0,0,1-.779-1.084.853.853,0,0,1,.049-.281.374.374,0,0,1-.049-.185v-8.476a.429.429,0,0,1,.426-.426h4.475a.428.428,0,0,1,.426.426Z" transform="translate(13364.655 10190.629)"/><path class="i" d="M1851.2,841.233a4.16,4.16,0,0,1-3.765,0,1.148,1.148,0,0,1,0-2.174,4.159,4.159,0,0,1,3.765,0A1.148,1.148,0,0,1,1851.2,841.233Z" transform="translate(13410.089 10200.179)"/><path class="i" d="M1851.981,774.537v49.49a.556.556,0,0,1-.04.192.436.436,0,0,1-.385.233h-4.476a.438.438,0,0,1-.386-.233.561.561,0,0,1-.04-.192v-49.49a.429.429,0,0,1,.425-.426h4.476A.428.428,0,0,1,1851.981,774.537Z" transform="translate(13410.09 10215.834)"/><path class="i" d="M1851.981,783.013a.383.383,0,0,1-.047.185.882.882,0,0,1,.047.281,1.309,1.309,0,0,1-.779,1.084,4.153,4.153,0,0,1-3.768,0,1.311,1.311,0,0,1-.779-1.084.851.851,0,0,1,.048-.281.371.371,0,0,1-.048-.185v-8.476a.429.429,0,0,1,.425-.426h4.476a.428.428,0,0,1,.425.426Z" transform="translate(13410.09 10215.834)"/><path class="l" d="M1843.69,761.735l-.01,10.615,15.8,5.836-.806-5.784Z" transform="translate(13410.814 10218.838)"/><path class="l" d="M1845.716,753.573l82.069-47.976a18.593,18.593,0,0,1,18.6-.093l135.478,77.378a4.9,4.9,0,0,1,.019,8.5l-83.4,48.166a18.592,18.592,0,0,1-18.6,0l-134.149-77.5A4.9,4.9,0,0,1,1845.716,753.573Z" transform="translate(13410.908 10233.081)"/><path class="m" d="M1846.106,741.8l82.069-47.976a18.6,18.6,0,0,1,18.6-.094l135.477,77.379a4.9,4.9,0,0,1,.02,8.494l-83.4,48.167a18.592,18.592,0,0,1-18.6,0l-134.149-77.5A4.9,4.9,0,0,1,1846.106,741.8Z" transform="translate(13410.813 10235.938)"/><path class="i" d="M1962.463,811.725,1920.8,787.671c-1.891-1.092-1.891-2.862,0-3.953l16.377-9.456a7.566,7.566,0,0,1,6.847,0l41.661,24.054c1.891,1.092,1.891,2.862,0,3.953l-16.378,9.456A7.564,7.564,0,0,1,1962.463,811.725Z" transform="translate(13392.438 10215.996)"/><path class="i" d="M1919.384,785.658v3.951l46.5,25.9,21.219-12.251v-3Z" transform="translate(13392.438 10213.03)"/><path class="h" d="M1962.463,807.762,1920.8,783.707c-1.891-1.091-1.891-2.861,0-3.953l16.377-9.456a7.571,7.571,0,0,1,6.847,0l41.661,24.055c1.891,1.091,1.891,2.861,0,3.953l-16.378,9.456A7.569,7.569,0,0,1,1962.463,807.762Z" transform="translate(13392.438 10216.957)"/><path class="h" d="M1975.094,804.127l-40.366-23.306,3.547-2.048,40.366,23.306Z" transform="translate(13388.714 10214.702)"/><path class="h" d="M1967.061,808.765,1926.7,785.459l3.547-2.048,40.365,23.306Z" transform="translate(13390.661 10213.577)"/><path class="j" d="M1935.79,780.97l39.562,22.842,2.743-1.584-39.562-22.842Z" transform="translate(13388.454 10214.554)"/><path class="j" d="M1927.757,785.608l39.563,22.842,2.744-1.585L1930.5,784.024Z" transform="translate(13390.405 10213.427)"/><path class="j" d="M1943.607,775.7l39.562,22.842,2.744-1.585-39.562-22.841Z" transform="translate(13386.558 10215.832)"/><path class="n" d="M2037.622,819.115c0,2.649-4.043,4.8-9.03,4.8s-9.03-2.148-9.03-4.8,4.043-4.8,9.03-4.8S2037.622,816.467,2037.622,819.115Z" transform="translate(13368.121 10206.073)"/><ellipse class="h" cx="9.03" cy="4.796" rx="9.03" ry="4.796" transform="translate(15387.684 11018.015)"/><path class="k" d="M2037.243,906.825l.923-.536c.14-.081.139-.213,0-.3l-.926-.535a.565.565,0,0,0-.511,0l-.922.536a.156.156,0,0,0,0,.3l.927.535a.561.561,0,0,0,.51,0Z" transform="translate(13364.204 10183.967)"/><path class="i" d="M1998.366,749.255s4.564,12.464,0,15.1l-2.207,1.274-.007,0-8.652,5a1.352,1.352,0,0,0,0,2.557l12.153,7.02a4.8,4.8,0,0,0,4.406-.037l6.171-3.649.061.029c.71-.441,1.372-.856,1.969-1.23l.271-.16c.026-.016.042-.035.066-.051,1.251-.785,2.1-1.323,2.1-1.323s3.859-2.827,3.859-12.871Z" transform="translate(13376.124 10221.867)"/><path class="o" d="M2018.562,757.814c0,10.045-3.86,12.871-3.86,12.871s-.845.534-2.1,1.324a.3.3,0,0,0-.067.055l-.267.156q-.9.567-1.969,1.235l-.067-.034-.712.423-5.451,3.226a4.8,4.8,0,0,1-4.415.033l-12.147-7.019a1.351,1.351,0,0,1,0-2.559l5.461-3.159,3.181-1.836h.011c.79-.456,1.546-.89,2.2-1.279,4.46-2.569.222-14.483.011-15.073v-.011h.011Z" transform="translate(13376.126 10222.618)"/><path class="m" d="M2020.606,757.814c0,10.045-3.86,12.871-3.86,12.871s-.846.534-2.1,1.324a.313.313,0,0,0-.066.055l-.267.156q-.9.567-1.968,1.235l-.067-.034-.712.423-16.552-9.478,3.181-1.836h.011c.79-.456,1.546-.89,2.2-1.279,4.46-2.569.222-14.483.01-15.073l.012-.011Z" transform="translate(13374.08 10222.618)"/><path class="b" d="M2044.422,698.32l-64.365-37.16c-1.6-.923-2.82-.54-4.218.587l-2.973,1.668,3.2,2.261v50.285a8.826,8.826,0,0,0,3.993,6.917l63.029,36.388v2.86a.515.515,0,0,0,.807.423l3.022-2.084c.914-.317,1.5-1.274,1.5-2.733V705.246A8.84,8.84,0,0,0,2044.422,698.32Z" transform="translate(13379.457 10243.377)"/><path class="p" d="M2043.69,708.568v52.485c0,2.553-1.791,3.577-3.993,2.306l-64.365-37.16a8.822,8.822,0,0,1-3.994-6.917V666.8c0-2.553,1.791-3.586,3.994-2.315l64.364,37.16A8.84,8.84,0,0,1,2043.69,708.568Z" transform="translate(13379.826 10242.577)"/><path class="q" d="M1977.728,723.225V672.688L2040.4,708.87v50.537Z" transform="translate(13378.274 10240.453)"/><path class="i" d="M2043.689,765.4v10.145c0,2.553-1.791,3.577-3.993,2.306l-64.365-37.16a8.822,8.822,0,0,1-3.994-6.917V723.625Z" transform="translate(13379.826 10228.089)"/><path class="i" d="M2041.331,778.6a4.088,4.088,0,0,1-2.018-.61l-64.365-37.16a9.215,9.215,0,0,1-4.226-7.32V722.56l73.284,42.309v10.414a3.245,3.245,0,0,1-1.4,2.99A2.518,2.518,0,0,1,2041.331,778.6Zm-69.678-54.429v9.338a8.326,8.326,0,0,0,3.76,6.514l64.365,37.16a1.983,1.983,0,0,0,3.295-1.9v-9.875Z" transform="translate(13379.975 10228.347)"/><path class="r" d="M2014.84,758.177c0,1.543-1.083,2.169-2.42,1.4a5.35,5.35,0,0,1-2.419-4.191c0-1.543,1.084-2.169,2.42-1.4A5.349,5.349,0,0,1,2014.84,758.177Z" transform="translate(13370.44 10220.799)"/><path class="i" d="M2008,699.533l-16.95-9.786v12.076l16.95,9.786Z" transform="translate(13375.041 10236.313)"/><path class="i" d="M2034.855,715.04l-16.951-9.786v12.076l16.951,9.786Z" transform="translate(13368.523 10232.548)"/><path class="i" d="M2008,720.647l-16.95-9.786v12.075l16.95,9.786Z" transform="translate(13375.042 10231.188)"/><path class="i" d="M2034.854,736.154l-16.951-9.786v12.075l16.951,9.786Z" transform="translate(13368.522 10227.424)"/><path class="s" d="M1928.527,777.343c-.017,0-.032.018-.049.036a1.12,1.12,0,0,1-.017-.235A.288.288,0,0,0,1928.527,777.343Z" transform="translate(13390.234 10215.098)"/><path class="t" d="M1927.365,774.288a.831.831,0,0,1-.63.052c-.022-.054-.011-.114-.042-.165Z" transform="translate(13390.663 10215.819)"/><path class="t" d="M1931.4,782.62c.115.008.23.031.345.046l-.906-.868C1931.035,782.067,1931.218,782.343,1931.4,782.62Z" transform="translate(13389.655 10213.969)"/><path class="s" d="M1928.15,771.62c-.017,0-.031.02-.046.04a1.154,1.154,0,0,1-.04-.232A.288.288,0,0,0,1928.15,771.62Z" transform="translate(13390.332 10216.486)"/><path class="t" d="M1926.686,768.7a.828.828,0,0,1-.623.115c-.026-.051-.021-.112-.058-.16Z" transform="translate(13390.83 10217.157)"/><path class="k" d="M1921.819,746.8l-.421.042Z" transform="translate(13391.948 10222.462)"/><g transform="translate(15233.379 10948.442)"><g transform="translate(0 0)"><g transform="translate(24.125 0)"><g transform="translate(32.675 119.57)"><g transform="translate(0 33.095)"><path class="k" d="M1301.234,1724.349c-2.816-2.214-9.262,1.642-12.355,2.331-2,.444-9.284.859-8.72,4.322a11.99,11.99,0,0,0-.363,2.654,10.293,10.293,0,0,0,.321,3.379,9.019,9.019,0,0,0,4.276,2.567,5.5,5.5,0,0,0,.577-.069,12.8,12.8,0,0,0,3.827-1.8c3.814-2.337,9.527-4.39,12.4-7.923C1302.472,1728.237,1302.829,1725.6,1301.234,1724.349Z" transform="translate(-1279.783 -1723.671)"/></g><g transform="translate(1.297 28.744)"><g transform="translate(0 0)"><path class="u" d="M3.917,0H9.96a3.917,3.917,0,0,1,3.917,3.917v0A3.915,3.915,0,0,1,9.962,7.835H3.918A3.918,3.918,0,0,1,0,3.917v0A3.917,3.917,0,0,1,3.917,0Z" transform="translate(0 13.876) rotate(-89.292)"/></g></g><g transform="translate(0.126 0)"><path class="s" d="M1280.09,1688.907l-.175,33.447a4.6,4.6,0,0,0,4.218,3.928l2.292.169a4.605,4.605,0,0,0,4.938-4.813l4.1-32.73Z" transform="translate(-1279.915 -1688.907)"/></g></g><g transform="translate(32.693 20.48)"><g transform="translate(0 0)"><path class="k" d="M1279.8,1585.046c.021,0,.041.02.062.041a1.157,1.157,0,0,0,.021-.268A.311.311,0,0,1,1279.8,1585.046Z" transform="translate(-1279.801 -1584.819)"/></g></g><g transform="translate(21.773 24.972)"><g transform="translate(0 0)"><path class="t" d="M1270.44,1589.538l-2.086,14.682c-.288,2.032,2.1,3.679,5.337,3.679s6.093-1.647,6.381-3.679h.053l2.086-14.682Z" transform="translate(-1268.33 -1589.538)"/></g></g><g transform="translate(17.519 0)"><g transform="translate(25.951 17.124)"><path d="M1295.329,1590.159a4.439,4.439,0,1,1,4.206-4.432A4.329,4.329,0,0,1,1295.329,1590.159Zm0-8.177a3.752,3.752,0,1,0,3.519,3.744A3.64,3.64,0,0,0,1295.329,1581.982Z" transform="translate(-1291.122 -1581.294)"/></g><g transform="translate(4.424 9.394)"><path class="t" d="M1274.485,1590.5c-1.284-1.914-2.532,2.573-2.852.547-.333-2.1-3.115-1.22-3.124-3.365-.007-1.524,1.4-3.151,2.029-4.472a9.553,9.553,0,0,1,3.114-3.887,18.412,18.412,0,0,1,5.811-2.5,44.95,44.95,0,0,1,6.953-1.381l.647-2.267h7.288v21.286a4.163,4.163,0,0,1-.141.883,8.873,8.873,0,0,1-11.935,6.11Z" transform="translate(-1268.509 -1573.174)"/></g><g transform="translate(0)"><path class="v" d="M1298.513,1572.141a5.154,5.154,0,0,1-1.573,2.22c-3.218,2.961-6.217,3.109-8.951,5.625-1.887,1.727-3.726,6.316-3.605,9.868a2.031,2.031,0,0,0-.1.37,1.317,1.317,0,0,0,.121.271,5.039,5.039,0,0,0,1.089,2.862,6.772,6.772,0,0,0,4.523,2.072,5.967,5.967,0,0,0,4.427-1.282c-.138.123.129,4.343-.164,5.115a6.269,6.269,0,0,1-3.445,3.668c-3.418,1.449-7.282-.3-10.046-2.4-1.675-1.272-3.643-5-5.673-5.329l-4.137-.666c-1.452-.222-3.072-.544-3.967-1.752a5.8,5.8,0,0,1-.871-2.073c-2.177-7.8-4.492-15.116,1.774-22.246,5.806-6.562,22.393-6.833,29.168-.986A4.554,4.554,0,0,1,1298.513,1572.141Z" transform="translate(-1263.862 -1563.306)"/></g><g transform="translate(16.153 21.118)"><path class="t" d="M1281.051,1590.932c.668,2.449,2.655,4.022,4.436,3.517s2.683-2.9,2.014-5.349-2.655-4.022-4.436-3.516S1280.383,1588.485,1281.051,1590.932Z" transform="translate(-1280.83 -1585.49)"/></g><g transform="translate(23.572 19.725)"><g transform="translate(0 0)"><g transform="translate(0)"><rect class="w" width="10.314" height="0.688" transform="translate(0 4.23) rotate(-24.214)"/></g></g></g><g transform="translate(17.524 19.909) rotate(-8)"><g transform="translate(0 0)"><g transform="translate(0 0)"><rect class="v" width="3.883" height="14.884" rx="1.942"/></g></g></g></g><g transform="translate(0.029 88.802)"><g transform="translate(0 0)"><path class="s" d="M1298.556,1676.268l-38.281,23.88-9.267-5.582a11.4,11.4,0,0,1-5.518-9.772v-13.31l1.971,1.458,4.235-1.816,33.66-14.428.651-.055c.422-.037.834-.055,1.247-.055a15.1,15.1,0,0,1,14.639,11.386c0,.018.01.036.01.054A7.593,7.593,0,0,1,1298.556,1676.268Z" transform="translate(-1245.49 -1656.587)"/></g></g><g transform="translate(0.029 98.647)"><g transform="translate(0 0)"><path class="k" d="M1321.913,1678.323a15.114,15.114,0,0,0-14.639-11.394c-.413,0-.825.018-1.247.055l-.65.055-3.475,1.485-19.814,8.5a27.689,27.689,0,0,1-27.374-3.175l-3.018-2.229-6.206-4.583v18.251a11.4,11.4,0,0,0,5.518,9.772l9.267,5.582,10.8,6.5a14.127,14.127,0,0,0,14.767-.111l32.744-20.424A7.579,7.579,0,0,0,1321.913,1678.323Z" transform="translate(-1245.49 -1666.929)"/></g></g><g transform="translate(5.551 35.778)"><g transform="translate(0 0)"><path class="t" d="M1304.469,1626.925c-2.488,1.853-15.192,11.219-20.985,13.835a24.285,24.285,0,0,1-10.071,2.173,21.227,21.227,0,0,1-7.3-1.295,15.552,15.552,0,0,1-9.2-8.256,13.646,13.646,0,0,1-.862-2.738l-4.679-23.095c-.566-2.782,1.71-5.677,5.072-6.462s6.56.835,7.125,3.624l4.679,23.095c.007.016,0,.03.011.045a5.678,5.678,0,0,0,3.786,4.109,8.783,8.783,0,0,0,6.575-.334c3.2-1.445,12.612-8.027,18.279-12.246,2.7-2.009,6.581-1.944,8.671.142S1307.168,1624.923,1304.469,1626.925Z" transform="translate(-1251.29 -1600.889)"/></g></g><g transform="translate(0 34.569)"><g transform="translate(0 0)"><path class="s" d="M1292.835,1672.54a7.078,7.078,0,0,1-4.7,6.885c-1.724.614-4.592,1.595-6.857,2.127a15.147,15.147,0,0,1-1.787.321,30.235,30.235,0,0,1-18.93-4.318l-12.466-7.261a5.33,5.33,0,0,1-2.631-4.721l1.311-51.746a15.048,15.048,0,0,1,7.471-12.98,11.822,11.822,0,0,1,5.83-1.228,25.453,25.453,0,0,1,3.254.22c5.72.687,12.091,3.062,15.373,5.354,3.227,2.044,7.233,3.373,9.818,5.921a8.647,8.647,0,0,1,2.667,6.261C1291.24,1619.2,1292.835,1672.54,1292.835,1672.54Z" transform="translate(-1245.459 -1599.619)"/></g><g class="x" transform="translate(33.033 15.796)"><path class="s" d="M1284.552,1619.017a.773.773,0,0,1-.338.369,28.328,28.328,0,0,0-.439,5.3c-.018,3.318.128,6.737-1.045,9.845-.715,1.888-1.907,3.6-2.356,5.573-1.082,4.693,2.191,9.185,3.135,13.9,1.045,5.243-.816,10.569-1.311,15.886a48.658,48.658,0,0,0,.742,12.458c2.265-.532,5.133-1.512,6.857-2.127a7.078,7.078,0,0,0,4.7-6.885s-1.475-49.323-1.637-54.725C1290.436,1615.921,1286.441,1614.787,1284.552,1619.017Z" transform="translate(-1280.158 -1616.212)"/></g></g><g transform="translate(38.452 49.128)"><g transform="translate(0 0)"><path class="t" d="M1331.7,1646.261c-1.824,2.282-11.15,13.822-15.592,17.064a13.581,13.581,0,0,1-7.991,2.742,13.155,13.155,0,0,1-6.117-1.515,18.349,18.349,0,0,1-8.465-9.99,24.332,24.332,0,0,1-1.018-3.333l-6.458-28.132c-.781-3.389.752-6.941,3.413-7.928s5.461.959,6.242,4.357l6.458,28.133c.008.018.008.036.015.054a7.328,7.328,0,0,0,3.564,4.979,4.969,4.969,0,0,0,5.342-.466c2.449-1.792,9.4-9.9,13.558-15.1a4.308,4.308,0,0,1,7.11.094A7.672,7.672,0,0,1,1331.7,1646.261Z" transform="translate(-1285.851 -1614.912)"/></g></g><g transform="translate(35.302 48.744)"><g transform="translate(0 0)"><path class="s" d="M1306.35,1647.028l-8-26.844a7.859,7.859,0,0,0-3.862-4.7,8.19,8.19,0,0,0-6.135-.652,7.986,7.986,0,0,0-4.808,3.773,7.666,7.666,0,0,0-.673,5.99l8.026,26.932a21.305,21.305,0,0,0,1.377,3.472l.338.664a.93.93,0,0,0,1.12.453l.72-.237c.415-.137.839-.293,1.224-.45a31.874,31.874,0,0,0,10.248-6.522l.45-.43a.886.886,0,0,0,.183-1.042Z" transform="translate(-1282.543 -1614.509)"/></g></g><g transform="translate(59.8 110.041)"><g transform="translate(0 54.41)"><path class="k" d="M1331.519,1736.787c-3.051-2.4-10.035,1.779-13.386,2.526-2.166.483-10.061.931-9.449,4.685a12.964,12.964,0,0,0-.393,2.875,11.174,11.174,0,0,0,.348,3.662,9.771,9.771,0,0,0,4.634,2.781,5.928,5.928,0,0,0,.624-.074,13.89,13.89,0,0,0,4.147-1.947c4.132-2.533,10.324-4.757,13.432-8.586C1332.862,1741,1333.248,1738.146,1331.519,1736.787Z" transform="translate(-1308.275 -1736.052)"/></g><g transform="translate(1.409 49.697)"><g transform="translate(0 0)"><rect class="u" width="8.49" height="15.037" rx="4.245" transform="translate(8.489 15.137) rotate(-179.314)"/></g></g><g transform="translate(0.137 0)"><path class="k" d="M1309.347,1680.253l-.928,53.437a4.987,4.987,0,0,0,4.571,4.255l2.484.183a4.99,4.99,0,0,0,5.351-5.215l4.111-54.015Z" transform="translate(-1308.419 -1678.898)"/></g></g></g><g transform="translate(19.714 131.77)"><path class="g" d="M1910.659,927.7c-10.57-6.1-27.705-6.1-38.274,0s-10.569,16,0,22.1,27.7,6.1,38.274,0S1921.227,933.8,1910.659,927.7Z" transform="translate(-1864.458 -898.646)"/><path class="y" d="M1873.809,955.307a6.159,6.159,0,0,1,2.786-4.826c1.54-.889,2.787-.169,2.788,1.608a6.159,6.159,0,0,1-2.788,4.827C1875.057,957.8,1873.809,957.084,1873.809,955.307Z" transform="translate(-1866.728 -905.194)"/><path class="y" d="M1873.809,955.307a6.159,6.159,0,0,1,2.786-4.826c1.54-.889,2.787-.169,2.788,1.608a6.159,6.159,0,0,1-2.788,4.827C1875.057,957.8,1873.809,957.084,1873.809,955.307Z" transform="translate(-1866.728 -905.194)"/><path class="y" d="M1878.852,950.414l2.4,1.252-3.77,6.871-2.812-1.463.713-3.87Z" transform="translate(-1866.938 -905.269)"/><path class="i" d="M1876.937,956.93a6.16,6.16,0,0,1,2.787-4.827c1.539-.888,2.786-.168,2.786,1.609a6.161,6.161,0,0,1-2.786,4.827C1878.185,959.427,1876.937,958.707,1876.937,956.93Z" transform="translate(-1867.488 -905.588)"/><path class="j" d="M1876.937,956.93a6.16,6.16,0,0,1,2.787-4.827c1.539-.888,2.786-.168,2.786,1.609a6.161,6.161,0,0,1-2.786,4.827C1878.185,959.427,1876.937,958.707,1876.937,956.93Z" transform="translate(-1867.488 -905.588)"/><path class="y" d="M1918.062,930.573a6.163,6.163,0,0,1,2.787-4.827c1.539-.888,2.787-.168,2.787,1.609a6.157,6.157,0,0,1-2.787,4.827C1919.31,933.07,1918.062,932.35,1918.062,930.573Z" transform="translate(-1877.471 -899.19)"/><path class="y" d="M1918.062,930.573a6.163,6.163,0,0,1,2.787-4.827c1.539-.888,2.787-.168,2.787,1.609a6.157,6.157,0,0,1-2.787,4.827C1919.31,933.07,1918.062,932.35,1918.062,930.573Z" transform="translate(-1877.471 -899.19)"/><path class="y" d="M1923.1,925.68l2.4,1.252-3.77,6.871-2.812-1.463.713-3.87Z" transform="translate(-1877.679 -899.266)"/><path class="i" d="M1921.19,932.2a6.158,6.158,0,0,1,2.787-4.827c1.539-.889,2.787-.168,2.787,1.609a6.162,6.162,0,0,1-2.787,4.827C1922.437,934.693,1921.19,933.973,1921.19,932.2Z" transform="translate(-1878.23 -899.584)"/><path class="j" d="M1921.19,932.2a6.158,6.158,0,0,1,2.787-4.827c1.539-.889,2.787-.168,2.787,1.609a6.162,6.162,0,0,1-2.787,4.827C1922.437,934.693,1921.19,933.973,1921.19,932.2Z" transform="translate(-1878.23 -899.584)"/><path class="y" d="M1915.986,956.4a6.159,6.159,0,0,1,2.787-4.826c1.539-.889,2.787-.169,2.787,1.608a6.16,6.16,0,0,1-2.787,4.827C1917.234,958.9,1915.986,958.176,1915.986,956.4Z" transform="translate(-1876.966 -905.459)"/><path class="y" d="M1915.986,956.4a6.159,6.159,0,0,1,2.787-4.826c1.539-.889,2.787-.169,2.787,1.608a6.16,6.16,0,0,1-2.787,4.827C1917.234,958.9,1915.986,958.176,1915.986,956.4Z" transform="translate(-1876.966 -905.459)"/><path class="y" d="M1921.028,951.506l2.4,1.252-3.77,6.871-2.812-1.463.713-3.87Z" transform="translate(-1877.175 -905.535)"/><path class="i" d="M1919.113,958.022a6.16,6.16,0,0,1,2.787-4.827c1.54-.888,2.787-.168,2.787,1.609a6.159,6.159,0,0,1-2.787,4.827C1920.361,960.519,1919.113,959.8,1919.113,958.022Z" transform="translate(-1877.725 -905.853)"/><path class="j" d="M1919.113,958.022a6.16,6.16,0,0,1,2.787-4.827c1.54-.888,2.787-.168,2.787,1.609a6.159,6.159,0,0,1-2.787,4.827C1920.361,960.519,1919.113,959.8,1919.113,958.022Z" transform="translate(-1877.725 -905.853)"/><path class="y" d="M1873.025,931.491a6.162,6.162,0,0,1,2.787-4.827c1.539-.888,2.787-.168,2.787,1.609a6.157,6.157,0,0,1-2.787,4.827C1874.273,933.988,1873.025,933.268,1873.025,931.491Z" transform="translate(-1866.537 -899.412)"/><path class="y" d="M1873.025,931.491a6.162,6.162,0,0,1,2.787-4.827c1.539-.888,2.787-.168,2.787,1.609a6.157,6.157,0,0,1-2.787,4.827C1874.273,933.988,1873.025,933.268,1873.025,931.491Z" transform="translate(-1866.537 -899.412)"/><path class="y" d="M1878.067,926.6l2.4,1.252-3.77,6.871-2.812-1.463.713-3.87Z" transform="translate(-1866.747 -899.489)"/><path class="i" d="M1876.153,933.114a6.158,6.158,0,0,1,2.787-4.827c1.539-.888,2.786-.168,2.786,1.609a6.159,6.159,0,0,1-2.786,4.826C1877.4,935.611,1876.153,934.891,1876.153,933.114Z" transform="translate(-1867.297 -899.806)"/><path class="j" d="M1876.153,933.114a6.158,6.158,0,0,1,2.787-4.827c1.539-.888,2.786-.168,2.786,1.609a6.159,6.159,0,0,1-2.786,4.826C1877.4,935.611,1876.153,934.891,1876.153,933.114Z" transform="translate(-1867.297 -899.806)"/><path class="m" d="M1913.09,941.684l-12.331-7.12,12.331-7.12c2.024-1.168,2.024-3.081,0-4.25h0a8.166,8.166,0,0,0-7.361,0l-12.331,7.12-12.331-7.12a8.166,8.166,0,0,0-7.361,0c-2.024,1.169-2.024,3.081,0,4.25l12.331,7.12-12.331,7.12c-2.024,1.168-2.024,3.081,0,4.25h0a8.166,8.166,0,0,0,7.361,0l12.331-7.12,12.331,7.12a8.166,8.166,0,0,0,7.361,0C1915.114,944.766,1915.114,942.853,1913.09,941.684Z" transform="translate(-1866.336 -898.45)"/><path class="m" d="M1913.09,941.684l-12.331-7.12,12.331-7.12c2.024-1.168,2.024-3.081,0-4.25h0a8.166,8.166,0,0,0-7.361,0l-12.331,7.12-12.331-7.12a8.166,8.166,0,0,0-7.361,0c-2.024,1.169-2.024,3.081,0,4.25l12.331,7.12-12.331,7.12c-2.024,1.168-2.024,3.081,0,4.25h0a8.166,8.166,0,0,0,7.361,0l12.331-7.12,12.331,7.12a8.166,8.166,0,0,0,7.361,0C1915.114,944.766,1915.114,942.853,1913.09,941.684Z" transform="translate(-1866.336 -898.45)"/><path class="i" d="M1892,936.25c0,2.3,2.78,4.171,6.21,4.171s6.21-1.867,6.21-4.171-2.781-6.121-6.21-6.121S1892,933.946,1892,936.25Z" transform="translate(-1871.144 -900.346)"/><path class="m" d="M1894.18,933.189c0,1.69,2.04,3.061,4.557,3.061s4.556-1.371,4.556-3.061-2.039-3.06-4.556-3.06S1894.18,931.5,1894.18,933.189Z" transform="translate(-1871.673 -900.346)"/><path class="i" d="M1899.3,890.8a2.806,2.806,0,0,0-2.787,2.825v27.193a2.787,2.787,0,1,0,5.573,0V893.624A2.806,2.806,0,0,0,1899.3,890.8Z" transform="translate(-1872.24 -890.799)"/></g><path class="z" d="M1943.1,873.681c0,.152,0,.314-.016.474a13.862,13.862,0,0,1-7.15,11.1l-30.4,16.67a8.066,8.066,0,0,1-1.438.619,8.3,8.3,0,0,1-6.789-.739l-34.82-20.519a19,19,0,0,1-9.272-14.606l-3.647-39.029-.378-4.057a4.334,4.334,0,0,1,6.235-4.29l37.688,18.647a4.334,4.334,0,0,1,2.193,2.522l12.051,36.571a5.032,5.032,0,0,0,7.271,2.8L1934.3,868.6A5.885,5.885,0,0,1,1943.1,873.681Z" transform="translate(-1849.172 -754.492)"/><path class="y" d="M1903.192,902.838a2.416,2.416,0,0,1-2.606,3.244,8.284,8.284,0,0,1-3.061-1.068l-34.82-20.519a19,19,0,0,1-9.271-14.606l-3.358-35.935a1.735,1.735,0,0,1,2.5-1.717l30.411,15.036a4.35,4.35,0,0,1,2.193,2.531l12.043,36.571C1897.636,887.648,1900.182,894.938,1903.192,902.838Z" transform="translate(-1849.39 -757.698)"/><g transform="translate(100.147 59.709)"><path class="aa" d="M9.464,9.632c-2.642,2.456-6.361,2.749-8.307.656S-.223,4.508,2.419,2.053,8.781-.7,10.726,1.4,12.106,7.177,9.464,9.632Z" transform="matrix(0.985, -0.174, 0.174, 0.985, 0, 8.803)"/><path class="aa" d="M.461,9.951h0A1.726,1.726,0,0,1,.551,7.512L8.139.461a1.724,1.724,0,0,1,2.437.09h0a1.724,1.724,0,0,1-.09,2.437L2.9,10.039A1.726,1.726,0,0,1,.461,9.951Z" transform="matrix(0.985, -0.174, 0.174, 0.985, 1.853, 1.917)"/></g></g></g></g></g></svg>