<svg xmlns="http://www.w3.org/2000/svg" xmlns:xlink="http://www.w3.org/1999/xlink" width="538" height="437.4" viewBox="0 0 538 437.4"><defs><style>.a,.c{fill:none;}.b{fill:#525252;}.c{stroke:#fff;stroke-linecap:round;stroke-linejoin:round;stroke-width:2.5px;}.d{fill:rgba(15,0,0,0.1);}.e{fill:#c4e4f9;}.f{fill:#0f62fe;}.g{fill:#8dc0ef;}.h{fill:#d5e8fa;}.i{fill:#647ddd;opacity:0.17;}.j{fill:#eff6fc;}.k{fill:#bddcff;}.l{fill:#e2e8f2;}.m{fill:#75a3ec;}.n{fill:#1f3598;}.o{fill:#f2f4f9;}.p{fill:#fff;}.q{fill:#484255;}.r{fill:#577de8;}.s{fill:#f2f4fa;}.t{fill:#3772ce;}.u{fill:#ff8358;}.v{fill:#ced6e9;}.w{fill:#743c45;}.x{fill:#312103;}.y{opacity:0.34;}.z{fill:#4568c7;}.aa{fill:#c1d7ea;}.ab{fill:#fd8358;}.ac{fill:#cacaca;mix-blend-mode:multiply;}.ac,.af{isolation:isolate;}.ad{fill:#32b98e;}.ae{fill:#f26c73;}.ag{clip-path:url(#a);}.ah{fill:#272768;}.ai{fill:#0af;}</style><clipPath id="a"><path class="a" d="M7130.993,2388.3l.338-119.274,186.457,107.651-.338,119.274Z" transform="translate(-7130.993 -2269.028)"/></clipPath></defs><g transform="translate(-15152 -11426.349)"><g transform="translate(9287 2268.349)"><circle class="b" cx="130" cy="130" r="130" transform="translate(6143 9158)"/><g transform="translate(5850.5 9414.256)"><path class="c" d="M374.445-157.183l42.41,33.62a7,7,0,0,0,8.537,0l42.41-33.2" transform="translate(2.204 12.63)"/><line class="c" x1="19.437" y2="15.644" transform="translate(376.991 -119.934)"/><line class="c" x2="19.437" y2="15.644" transform="translate(450.228 -119.934)"/><path class="c" d="M368.5-146.291a7.991,7.991,0,0,1,3.031-6.265l46.579-36.924a8.556,8.556,0,0,1,10.436,0l46.535,36.425a8,8,0,0,1,3.07,6.3l0,49.908a10.467,10.467,0,0,1-10.466,10.467H378.967A10.467,10.467,0,0,1,368.5-96.849Z" transform="translate(0 0)"/></g></g><g transform="translate(15152 11742.833)"><path class="d" d="M276,660H813.675s-11.269,20.927-37.026,17.708a149.484,149.484,0,0,1-20.927-1.61c-9.659-1.61-24.147,3.22-27.367,8.049,0,0-24.147,14.488-64.392,0,0,0-37.026-16.1-62.782-1.61,0,0-19.318,20.928-69.222-4.829,0,0-12.879-8.049-35.416,8.049,0,0-22.537,19.318-66-8.049,0,0-24.147-6.439-51.514,6.439C379.028,684.147,324.294,692.2,276,660Z" transform="translate(-276 -571.461)"/><path class="e" d="M582.407,634.075s27.206,15.026,15.19,36.5C597.6,670.576,578.133,666.564,582.407,634.075Z" transform="translate(-89.525 -587.27)"/><path class="f" d="M614.007,623s14.488,46.684-22.537,57.953C591.47,680.953,573.762,655.2,614.007,623Z" transform="translate(-85.991 -594.023)"/><path class="f" d="M334.352,621.92s-41.564,22.958-23.207,55.765C311.145,677.685,340.883,671.557,334.352,621.92Z" transform="translate(-257.422 -594.682)"/><path class="e" d="M292.061,605s-22.135,71.324,34.43,88.539C326.492,693.539,353.546,654.189,292.061,605Z" transform="translate(-268.808 -605)"/></g><g transform="translate(8 696)"><path class="g" d="M2151.557,878.283a3.679,3.679,0,0,1-3.331,0,1.015,1.015,0,0,1,0-1.923,3.685,3.685,0,0,1,3.331,0A1.015,1.015,0,0,1,2151.557,878.283Z" transform="translate(13292.052 10173.126)"/><path class="g" d="M2152.248,811.841v43.776a.488.488,0,0,1-.036.171.386.386,0,0,1-.341.206h-3.958a.385.385,0,0,1-.341-.206.487.487,0,0,1-.036-.171V811.841a.379.379,0,0,1,.376-.377h3.958A.38.38,0,0,1,2152.248,811.841Z" transform="translate(13292.052 10194.422)"/><path class="g" d="M2152.248,824.251a.333.333,0,0,1-.043.163.772.772,0,0,1,.043.249,1.159,1.159,0,0,1-.689.959,3.674,3.674,0,0,1-3.333,0,1.158,1.158,0,0,1-.689-.959.764.764,0,0,1,.042-.249.33.33,0,0,1-.042-.163v-7.5a.379.379,0,0,1,.376-.377h3.958a.379.379,0,0,1,.377.377Z" transform="translate(13292.052 10192.8)"/><path class="h" d="M2154.354,810.795V802.41l-15.5,9.962,1.036,2.758Z" transform="translate(13294.916 10197.411)"/><path class="g" d="M2037.863,944.76a3.679,3.679,0,0,1-3.331,0,1.015,1.015,0,0,1,0-1.923,3.681,3.681,0,0,1,3.331,0A1.015,1.015,0,0,1,2037.863,944.76Z" transform="translate(13396.955 10076.234)"/><path class="i" d="M2051.883,839.034l-124.489-70.8L1850.4,814.459a1.384,1.384,0,0,0,.032,2.393l121.019,68.229a8.094,8.094,0,0,0,8.2-.078l72.261-43.364A1.51,1.51,0,0,0,2051.883,839.034Z" transform="translate(13406.378 10207.854)"/><path class="g" d="M2038.552,878.318v43.775a.488.488,0,0,1-.036.171.386.386,0,0,1-.341.206h-3.959a.388.388,0,0,1-.341-.206.488.488,0,0,1-.036-.171V878.318a.38.38,0,0,1,.376-.377h3.959A.379.379,0,0,1,2038.552,878.318Z" transform="translate(13345.59 10171.63)"/><path class="g" d="M2038.552,885.816a.338.338,0,0,1-.042.163.773.773,0,0,1,.042.249,1.158,1.158,0,0,1-.689.959,3.672,3.672,0,0,1-3.333,0,1.159,1.159,0,0,1-.689-.959.752.752,0,0,1,.043-.249.33.33,0,0,1-.043-.163v-7.5a.38.38,0,0,1,.376-.377h3.959a.379.379,0,0,1,.376.377Z" transform="translate(13345.59 10171.63)"/><path class="g" d="M1850.677,840.93a3.68,3.68,0,0,1-3.33,0,1.015,1.015,0,0,1,0-1.923,3.679,3.679,0,0,1,3.33,0A1.015,1.015,0,0,1,1850.677,840.93Z" transform="translate(13407.392 10184.618)"/><path class="g" d="M1851.366,774.488v43.776a.49.49,0,0,1-.035.17.385.385,0,0,1-.341.206h-3.959a.387.387,0,0,1-.341-.206.5.5,0,0,1-.035-.17V774.488a.379.379,0,0,1,.376-.377h3.959A.379.379,0,0,1,1851.366,774.488Z" transform="translate(13407.393 10205.913)"/><path class="g" d="M1851.366,781.985a.337.337,0,0,1-.042.164.775.775,0,0,1,.042.248,1.158,1.158,0,0,1-.689.959,3.673,3.673,0,0,1-3.333,0,1.159,1.159,0,0,1-.689-.959.757.757,0,0,1,.043-.248.33.33,0,0,1-.043-.164v-7.5a.379.379,0,0,1,.376-.377h3.959a.379.379,0,0,1,.376.377Z" transform="translate(13407.393 10205.913)"/><path class="h" d="M1843.689,761.735l-.009,9.389,13.98,5.162-.713-5.116Z" transform="translate(13408.376 10209.999)"/><path class="h" d="M1845.436,747.74l72.593-42.437a16.445,16.445,0,0,1,16.456-.082l119.835,68.444a4.333,4.333,0,0,1,.017,7.514l-73.772,42.6a16.445,16.445,0,0,1-16.451,0l-118.66-68.551A4.332,4.332,0,0,1,1845.436,747.74Z" transform="translate(13408.504 10229.373)"/><path class="j" d="M1845.826,735.965l72.593-42.436a16.447,16.447,0,0,1,16.456-.083L2054.71,761.89a4.332,4.332,0,0,1,.018,7.513l-73.772,42.605a16.445,16.445,0,0,1-16.451,0l-118.66-68.55A4.332,4.332,0,0,1,1845.826,735.965Z" transform="translate(13408.376 10233.261)"/><path class="g" d="M1957.489,807.3l-36.851-21.276c-1.673-.966-1.673-2.531,0-3.5l14.486-8.364a6.692,6.692,0,0,1,6.057,0l36.851,21.276c1.672.966,1.672,2.531,0,3.5l-14.487,8.364A6.691,6.691,0,0,1,1957.489,807.3Z" transform="translate(13383.381 10206.133)"/><path class="g" d="M1919.384,785.658v3.495l41.134,22.909,18.769-10.837v-2.655Z" transform="translate(13383.381 10202.101)"/><path class="k" d="M1957.489,803.342l-36.851-21.277c-1.673-.965-1.673-2.531,0-3.5l14.486-8.364a6.7,6.7,0,0,1,6.057,0l36.851,21.277c1.672.965,1.672,2.531,0,3.5l-14.487,8.364A6.7,6.7,0,0,1,1957.489,803.342Z" transform="translate(13383.381 10207.441)"/><path class="k" d="M1970.434,801.2l-35.705-20.615,3.137-1.811,35.705,20.615Z" transform="translate(13378.314 10204.374)"/><path class="k" d="M1962.4,805.838l-35.7-20.615,3.137-1.811,35.7,20.615Z" transform="translate(13380.966 10202.842)"/><path class="l" d="M1935.79,780.787l34.994,20.2,2.427-1.4-34.995-20.2Z" transform="translate(13377.963 10204.171)"/><path class="l" d="M1927.757,785.425l34.995,20.2,2.427-1.4-34.994-20.2Z" transform="translate(13380.616 10202.64)"/><path class="l" d="M1943.607,775.52l34.994,20.2,2.427-1.4-34.995-20.2Z" transform="translate(13375.383 10205.91)"/><path class="m" d="M2035.537,818.561c0,2.343-3.576,4.243-7.987,4.243s-7.987-1.9-7.987-4.243,3.576-4.242,7.987-4.242S2035.537,816.219,2035.537,818.561Z" transform="translate(13350.305 10192.637)"/><ellipse class="k" cx="7.987" cy="4.242" rx="7.987" ry="4.242" transform="translate(15369.867 11004.854)"/><path class="n" d="M2037.065,906.661l.816-.474c.124-.072.123-.189,0-.261l-.819-.473a.5.5,0,0,0-.452,0l-.815.474a.138.138,0,0,0,0,.261l.819.473a.5.5,0,0,0,.451,0Z" transform="translate(13344.977 10162.566)"/><path class="g" d="M1997.006,749.255s4.037,11.025,0,13.356l-1.952,1.127-.006,0-7.653,4.42a1.2,1.2,0,0,0,0,2.262l10.75,6.209a4.247,4.247,0,0,0,3.9-.033l5.458-3.228.054.025c.628-.39,1.214-.757,1.742-1.088l.24-.142c.023-.014.038-.031.058-.045,1.107-.695,1.857-1.17,1.857-1.17s3.414-2.5,3.414-11.384Z" transform="translate(13361.191 10214.119)"/><path class="o" d="M2014.87,756.469c0,8.885-3.414,11.384-3.414,11.384s-.748.472-1.86,1.171a.276.276,0,0,0-.059.049l-.236.138q-.8.5-1.741,1.093l-.06-.03-.63.374-4.822,2.853a4.246,4.246,0,0,1-3.906.029l-10.745-6.208a1.2,1.2,0,0,1,0-2.264l4.831-2.794,2.814-1.624h.01c.7-.4,1.368-.787,1.949-1.131,3.945-2.273.2-12.811.01-13.332v-.01h.01Z" transform="translate(13361.192 10215.14)"/><path class="j" d="M2017.651,756.469c0,8.885-3.414,11.384-3.414,11.384s-.748.472-1.86,1.171a.264.264,0,0,0-.059.049l-.237.138q-.8.5-1.741,1.093l-.06-.03-.63.374-14.641-8.384,2.814-1.624h.01c.7-.4,1.368-.787,1.949-1.131,3.945-2.273.2-12.811.009-13.332l.01-.01Z" transform="translate(13358.41 10215.14)"/><path class="p" d="M2036.16,693.97l-56.934-32.87c-1.414-.817-2.495-.478-3.731.519l-2.63,1.475,2.829,2v44.479a7.807,7.807,0,0,0,3.532,6.118l55.751,32.187v2.53a.455.455,0,0,0,.713.374l2.674-1.843a2.315,2.315,0,0,0,1.328-2.417V700.1A7.818,7.818,0,0,0,2036.16,693.97Z" transform="translate(13365.723 10243.377)"/><path class="q" d="M2035.336,703.415V749.84c0,2.258-1.584,3.164-3.532,2.04l-56.933-32.87a7.8,7.8,0,0,1-3.533-6.118V666.467c0-2.258,1.584-3.172,3.533-2.048l56.933,32.869A7.82,7.82,0,0,1,2035.336,703.415Z" transform="translate(13366.227 10242.289)"/><path class="r" d="M1977.728,717.39v-44.7l55.435,32v44.7Z" transform="translate(13364.116 10239.399)"/><path class="g" d="M2035.335,760.573v8.974c0,2.258-1.584,3.164-3.532,2.04l-56.933-32.87a7.8,7.8,0,0,1-3.533-6.118v-8.974Z" transform="translate(13366.227 10222.582)"/><path class="g" d="M2033.179,772.132a3.616,3.616,0,0,1-1.785-.54l-56.933-32.87a8.151,8.151,0,0,1-3.738-6.475V722.56l64.822,37.424V769.2a2.87,2.87,0,0,1-1.24,2.645A2.227,2.227,0,0,1,2033.179,772.132Zm-61.633-48.145v8.26a7.365,7.365,0,0,0,3.326,5.762l56.933,32.869a1.754,1.754,0,0,0,2.915-1.683V760.46Z" transform="translate(13366.429 10222.934)"/><path class="s" d="M2014.282,757.655c0,1.365-.958,1.918-2.141,1.236a4.732,4.732,0,0,1-2.14-3.707c0-1.365.959-1.918,2.141-1.236A4.731,4.731,0,0,1,2014.282,757.655Z" transform="translate(13353.461 10212.666)"/><path class="g" d="M2006.039,698.4l-14.993-8.656v10.682l14.993,8.656Z" transform="translate(13359.719 10233.768)"/><path class="g" d="M2032.9,713.91l-14.994-8.656v10.682l14.994,8.656Z" transform="translate(13350.852 10228.647)"/><path class="g" d="M2006.039,719.517l-14.993-8.656v10.681l14.993,8.656Z" transform="translate(13359.72 10226.797)"/><path class="g" d="M2032.9,735.024l-14.994-8.656v10.681L2032.9,745.7Z" transform="translate(13350.852 10221.677)"/><path class="t" d="M1928.519,777.32c-.015,0-.029.016-.044.032a.976.976,0,0,1-.015-.208A.255.255,0,0,0,1928.519,777.32Z" transform="translate(13380.384 10204.911)"/><path class="u" d="M1927.288,774.274a.735.735,0,0,1-.558.046c-.02-.048-.01-.1-.037-.146Z" transform="translate(13380.968 10205.893)"/><path class="u" d="M1931.339,782.525c.1.007.2.027.305.041l-.8-.768C1931.012,782.036,1931.175,782.28,1931.339,782.525Z" transform="translate(13379.597 10203.375)"/><path class="t" d="M1928.14,771.6c-.015,0-.028.018-.04.036a1.013,1.013,0,0,1-.035-.205A.255.255,0,0,0,1928.14,771.6Z" transform="translate(13380.515 10206.799)"/><path class="u" d="M1926.607,768.691a.732.732,0,0,1-.551.1c-.023-.046-.019-.1-.051-.141Z" transform="translate(13381.194 10207.715)"/><path class="n" d="M1921.77,746.8l-.373.037Z" transform="translate(13382.716 10214.93)"/><g transform="translate(15233.379 10943.313)"><g transform="translate(21.339)"><g transform="translate(28.903 105.764)"><g transform="translate(0 29.273)"><path class="n" d="M1298.757,1724.271c-2.491-1.958-8.192,1.453-10.928,2.062-1.767.393-8.213.76-7.713,3.823a10.611,10.611,0,0,0-.321,2.348,9.108,9.108,0,0,0,.284,2.989,7.977,7.977,0,0,0,3.782,2.27,4.818,4.818,0,0,0,.51-.061,11.325,11.325,0,0,0,3.385-1.59c3.373-2.067,8.427-3.883,10.964-7.009C1299.853,1727.71,1300.168,1725.38,1298.757,1724.271Z" transform="translate(-1279.783 -1723.671)"/></g><g transform="translate(1.148 25.425)"><path class="v" d="M3.465,0H8.81a3.465,3.465,0,0,1,3.465,3.465v0A3.463,3.463,0,0,1,8.812,6.93H3.466A3.466,3.466,0,0,1,0,3.465v0A3.465,3.465,0,0,1,3.465,0Z" transform="translate(0 12.274) rotate(-89.292)"/></g><g transform="translate(0.112 0)"><path class="t" d="M1280.07,1688.907l-.155,29.585a4.073,4.073,0,0,0,3.731,3.474l2.028.149a4.074,4.074,0,0,0,4.368-4.258l3.629-28.951Z" transform="translate(-1279.915 -1688.907)"/></g></g><g transform="translate(28.918 18.115)"><g transform="translate(0 0)"><path class="n" d="M1279.8,1585.019c.019,0,.036.018.055.036a1.02,1.02,0,0,0,.019-.237A.275.275,0,0,1,1279.8,1585.019Z" transform="translate(-1279.801 -1584.819)"/></g></g><g transform="translate(19.259 22.088)"><g transform="translate(0 0)"><path class="u" d="M1270.2,1589.538l-1.845,12.987c-.255,1.8,1.859,3.255,4.721,3.255s5.389-1.457,5.644-3.255h.047l1.845-12.987Z" transform="translate(-1268.33 -1589.538)"/></g></g><g transform="translate(15.497 0)"><g transform="translate(22.954 15.147)"><path d="M1294.843,1589.135a3.926,3.926,0,1,1,3.72-3.921A3.829,3.829,0,0,1,1294.843,1589.135Zm0-7.232a3.319,3.319,0,1,0,3.112,3.312A3.22,3.22,0,0,0,1294.843,1581.9Z" transform="translate(-1291.122 -1581.294)"/></g><g transform="translate(3.913 8.309)"><path class="u" d="M1273.795,1588.5c-1.136-1.693-2.239,2.276-2.523.484-.295-1.858-2.755-1.079-2.763-2.977-.006-1.348,1.237-2.787,1.794-3.955a8.452,8.452,0,0,1,2.754-3.438,16.287,16.287,0,0,1,5.14-2.211,39.754,39.754,0,0,1,6.15-1.222l.573-2.005h6.446V1592a3.681,3.681,0,0,1-.125.781,7.849,7.849,0,0,1-10.557,5.4Z" transform="translate(-1268.509 -1573.174)"/></g><g transform="translate(0 0)"><path class="w" d="M1294.512,1571.121a4.557,4.557,0,0,1-1.391,1.964c-2.846,2.619-5.5,2.75-7.917,4.976-1.669,1.527-3.3,5.586-3.189,8.729a1.792,1.792,0,0,0-.085.328,1.174,1.174,0,0,0,.107.24,4.459,4.459,0,0,0,.963,2.531,5.991,5.991,0,0,0,4,1.833,5.279,5.279,0,0,0,3.916-1.134c-.122.109.114,3.842-.145,4.525a5.544,5.544,0,0,1-3.047,3.244c-3.023,1.282-6.442-.269-8.886-2.125-1.481-1.125-3.223-4.424-5.018-4.714l-3.66-.589c-1.284-.2-2.717-.481-3.509-1.549a5.129,5.129,0,0,1-.771-1.833c-1.926-6.9-3.974-13.37,1.569-19.677,5.136-5.8,19.808-6.044,25.8-.872A4.029,4.029,0,0,1,1294.512,1571.121Z" transform="translate(-1263.862 -1563.306)"/></g><g transform="translate(14.288 18.68)"><path class="u" d="M1281.025,1590.3c.591,2.166,2.349,3.558,3.924,3.111s2.373-2.566,1.782-4.732-2.349-3.558-3.924-3.11S1280.434,1588.139,1281.025,1590.3Z" transform="translate(-1280.83 -1585.489)"/></g><g transform="translate(20.85 17.447)"><rect class="x" width="9.123" height="0.609" transform="translate(0 3.742) rotate(-24.214)"/></g><g transform="translate(15.501 17.61) rotate(-8)"><rect class="w" width="3.435" height="13.166" rx="1.717" transform="translate(0 0)"/></g></g><g transform="translate(0.026 78.548)"><g transform="translate(0 0)"><path class="t" d="M1292.429,1674l-33.861,21.122-8.2-4.938a10.088,10.088,0,0,1-4.881-8.644v-11.774l1.743,1.29,3.746-1.606,29.774-12.762.575-.049c.373-.033.738-.049,1.1-.049a13.36,13.36,0,0,1,12.948,10.071c0,.016.008.032.008.048A6.716,6.716,0,0,1,1292.429,1674Z" transform="translate(-1245.49 -1656.587)"/></g></g><g transform="translate(0.026 87.257)"><g transform="translate(0 0)"><path class="n" d="M1313.089,1677.008a13.369,13.369,0,0,0-12.949-10.079c-.365,0-.73.016-1.1.049l-.575.048-3.074,1.313-17.526,7.521a24.492,24.492,0,0,1-24.214-2.808l-2.669-1.972-5.49-4.054v16.144a10.088,10.088,0,0,0,4.881,8.644l8.2,4.938,9.552,5.749a12.5,12.5,0,0,0,13.062-.1l28.963-18.066A6.7,6.7,0,0,0,1313.089,1677.008Z" transform="translate(-1245.49 -1666.929)"/></g></g><g transform="translate(4.91 31.647)"><g transform="translate(0 0)"><path class="u" d="M1298.329,1623.919c-2.2,1.639-13.438,9.924-18.562,12.238a21.481,21.481,0,0,1-8.908,1.923,18.78,18.78,0,0,1-6.454-1.145,13.757,13.757,0,0,1-8.137-7.3,12.066,12.066,0,0,1-.762-2.422l-4.139-20.428c-.5-2.46,1.512-5.021,4.486-5.716s5.8.739,6.3,3.206l4.139,20.428c.006.014,0,.026.01.04a5.023,5.023,0,0,0,3.349,3.635,7.769,7.769,0,0,0,5.816-.3c2.828-1.278,11.156-7.1,16.168-10.832,2.389-1.777,5.821-1.719,7.67.125S1300.717,1622.148,1298.329,1623.919Z" transform="translate(-1251.29 -1600.889)"/></g></g><g transform="translate(0 30.577)"><g transform="translate(0 0)"><path class="t" d="M1287.365,1664.12a6.261,6.261,0,0,1-4.16,6.09c-1.525.543-4.062,1.411-6.065,1.881a13.338,13.338,0,0,1-1.581.284,26.744,26.744,0,0,1-16.745-3.819l-11.027-6.422a4.715,4.715,0,0,1-2.327-4.176l1.159-45.771a13.31,13.31,0,0,1,6.609-11.481,10.455,10.455,0,0,1,5.157-1.086,22.5,22.5,0,0,1,2.878.194c5.06.608,10.695,2.708,13.6,4.736,2.855,1.808,6.4,2.983,8.684,5.238a7.648,7.648,0,0,1,2.359,5.538C1285.954,1616.939,1287.365,1664.12,1287.365,1664.12Z" transform="translate(-1245.459 -1599.619)"/></g><g class="y" transform="translate(29.219 13.972)"><path class="t" d="M1284.045,1618.693a.684.684,0,0,1-.3.327,25.054,25.054,0,0,0-.388,4.691c-.016,2.936.114,5.959-.924,8.709-.632,1.67-1.687,3.186-2.084,4.929-.957,4.151,1.938,8.124,2.773,12.292.925,4.638-.722,9.349-1.159,14.052a43.045,43.045,0,0,0,.657,11.019c2-.471,4.54-1.338,6.065-1.881a6.261,6.261,0,0,0,4.16-6.09s-1.305-43.628-1.448-48.407C1289.25,1615.954,1285.716,1614.951,1284.045,1618.693Z" transform="translate(-1280.159 -1616.212)"/></g></g><g transform="translate(34.013 43.455)"><g transform="translate(0 0)"><path class="u" d="M1326.4,1642.641c-1.613,2.018-9.863,12.226-13.792,15.094a12.013,12.013,0,0,1-7.068,2.425,11.636,11.636,0,0,1-5.411-1.34,16.231,16.231,0,0,1-7.488-8.837,21.548,21.548,0,0,1-.9-2.948l-5.713-24.884c-.69-3,.665-6.139,3.019-7.013s4.831.849,5.521,3.854l5.713,24.885c.007.016.007.032.013.048a6.482,6.482,0,0,0,3.153,4.4,4.4,4.4,0,0,0,4.726-.412c2.167-1.585,8.318-8.761,11.993-13.358a3.811,3.811,0,0,1,6.289.083A6.786,6.786,0,0,1,1326.4,1642.641Z" transform="translate(-1285.851 -1614.912)"/></g></g><g transform="translate(31.227 43.116)"><g transform="translate(0 0)"><path class="t" d="M1303.6,1643.273l-7.08-23.745a6.951,6.951,0,0,0-3.416-4.161,7.244,7.244,0,0,0-5.427-.577,7.064,7.064,0,0,0-4.252,3.337,6.78,6.78,0,0,0-.6,5.3l7.1,23.823a18.822,18.822,0,0,0,1.218,3.071l.3.588a.822.822,0,0,0,.99.4l.636-.21c.367-.121.742-.259,1.082-.4a28.189,28.189,0,0,0,9.065-5.769l.4-.38a.784.784,0,0,0,.162-.921Z" transform="translate(-1282.543 -1614.509)"/></g></g><g transform="translate(52.896 97.335)"><g transform="translate(0 48.128)"><path class="n" d="M1328.835,1736.7c-2.7-2.121-8.876,1.574-11.84,2.234-1.916.427-8.9.823-8.358,4.144a11.464,11.464,0,0,0-.348,2.543,9.883,9.883,0,0,0,.307,3.239,8.643,8.643,0,0,0,4.1,2.46,5.228,5.228,0,0,0,.552-.066,12.286,12.286,0,0,0,3.668-1.722c3.655-2.241,9.132-4.208,11.881-7.595C1330.023,1740.429,1330.365,1737.9,1328.835,1736.7Z" transform="translate(-1308.276 -1736.052)"/></g><g transform="translate(1.246 43.959)"><rect class="v" width="7.51" height="13.301" rx="3.755" transform="translate(7.509 13.39) rotate(-179.314)"/></g><g transform="translate(0.121 0)"><path class="n" d="M1309.24,1680.1l-.821,47.267a4.412,4.412,0,0,0,4.043,3.764l2.2.162a4.414,4.414,0,0,0,4.733-4.613l3.636-47.779Z" transform="translate(-1308.419 -1678.898)"/></g></g></g><g transform="translate(17.437 116.555)"><path class="i" d="M1905.324,927.174c-9.35-5.4-24.506-5.4-33.855,0s-9.349,14.149,0,19.546,24.505,5.4,33.855,0S1914.672,932.571,1905.324,927.174Z" transform="translate(-1864.458 -901.472)"/><path class="z" d="M1873.809,954.706a5.449,5.449,0,0,1,2.465-4.269c1.362-.786,2.465-.149,2.466,1.423a5.447,5.447,0,0,1-2.466,4.269C1874.913,956.915,1873.809,956.278,1873.809,954.706Z" transform="translate(-1867.545 -910.379)"/><path class="z" d="M1873.809,954.706a5.449,5.449,0,0,1,2.465-4.269c1.362-.786,2.465-.149,2.466,1.423a5.447,5.447,0,0,1-2.466,4.269C1874.913,956.915,1873.809,956.278,1873.809,954.706Z" transform="translate(-1867.545 -910.379)"/><path class="z" d="M1878.369,950.414l2.124,1.107-3.335,6.078-2.487-1.294.63-3.423Z" transform="translate(-1867.831 -910.482)"/><path class="g" d="M1876.937,956.328a5.448,5.448,0,0,1,2.465-4.269c1.361-.786,2.465-.149,2.465,1.423a5.449,5.449,0,0,1-2.465,4.269C1878.041,958.538,1876.937,957.9,1876.937,956.328Z" transform="translate(-1868.578 -910.915)"/><path class="l" d="M1876.937,956.328a5.448,5.448,0,0,1,2.465-4.269c1.361-.786,2.465-.149,2.465,1.423a5.449,5.449,0,0,1-2.465,4.269C1878.041,958.538,1876.937,957.9,1876.937,956.328Z" transform="translate(-1868.578 -910.915)"/><path class="z" d="M1918.062,929.972a5.451,5.451,0,0,1,2.465-4.269c1.361-.786,2.465-.149,2.465,1.423a5.446,5.446,0,0,1-2.465,4.269C1919.166,932.181,1918.062,931.544,1918.062,929.972Z" transform="translate(-1882.157 -902.212)"/><path class="z" d="M1918.062,929.972a5.451,5.451,0,0,1,2.465-4.269c1.361-.786,2.465-.149,2.465,1.423a5.446,5.446,0,0,1-2.465,4.269C1919.166,932.181,1918.062,931.544,1918.062,929.972Z" transform="translate(-1882.157 -902.212)"/><path class="z" d="M1922.622,925.68l2.124,1.107-3.335,6.078-2.487-1.294.63-3.423Z" transform="translate(-1882.441 -902.316)"/><path class="g" d="M1921.19,931.594a5.448,5.448,0,0,1,2.465-4.269c1.361-.786,2.465-.149,2.465,1.423a5.451,5.451,0,0,1-2.465,4.269C1922.293,933.8,1921.19,933.167,1921.19,931.594Z" transform="translate(-1883.19 -902.748)"/><path class="l" d="M1921.19,931.594a5.448,5.448,0,0,1,2.465-4.269c1.361-.786,2.465-.149,2.465,1.423a5.451,5.451,0,0,1-2.465,4.269C1922.293,933.8,1921.19,933.167,1921.19,931.594Z" transform="translate(-1883.19 -902.748)"/><path class="z" d="M1915.986,955.8a5.447,5.447,0,0,1,2.465-4.269c1.361-.786,2.465-.149,2.465,1.423a5.449,5.449,0,0,1-2.465,4.27C1917.089,958.007,1915.986,957.37,1915.986,955.8Z" transform="translate(-1881.471 -910.74)"/><path class="z" d="M1915.986,955.8a5.447,5.447,0,0,1,2.465-4.269c1.361-.786,2.465-.149,2.465,1.423a5.449,5.449,0,0,1-2.465,4.27C1917.089,958.007,1915.986,957.37,1915.986,955.8Z" transform="translate(-1881.471 -910.74)"/><path class="z" d="M1920.545,951.506l2.124,1.107-3.334,6.078-2.488-1.294.63-3.423Z" transform="translate(-1881.756 -910.843)"/><path class="g" d="M1919.113,957.421a5.449,5.449,0,0,1,2.465-4.269c1.362-.786,2.465-.149,2.465,1.423a5.448,5.448,0,0,1-2.465,4.27C1920.217,959.63,1919.113,958.993,1919.113,957.421Z" transform="translate(-1882.503 -911.275)"/><path class="l" d="M1919.113,957.421a5.449,5.449,0,0,1,2.465-4.269c1.362-.786,2.465-.149,2.465,1.423a5.448,5.448,0,0,1-2.465,4.27C1920.217,959.63,1919.113,958.993,1919.113,957.421Z" transform="translate(-1882.503 -911.275)"/><path class="z" d="M1873.025,930.89a5.45,5.45,0,0,1,2.465-4.27c1.361-.786,2.465-.149,2.465,1.423a5.447,5.447,0,0,1-2.465,4.27C1874.129,933.1,1873.025,932.462,1873.025,930.89Z" transform="translate(-1867.286 -902.515)"/><path class="z" d="M1873.025,930.89a5.45,5.45,0,0,1,2.465-4.27c1.361-.786,2.465-.149,2.465,1.423a5.447,5.447,0,0,1-2.465,4.27C1874.129,933.1,1873.025,932.462,1873.025,930.89Z" transform="translate(-1867.286 -902.515)"/><path class="z" d="M1877.584,926.6l2.124,1.107-3.335,6.078-2.488-1.294.631-3.423Z" transform="translate(-1867.571 -902.619)"/><path class="g" d="M1876.153,932.513a5.447,5.447,0,0,1,2.465-4.27c1.361-.786,2.465-.149,2.465,1.423a5.448,5.448,0,0,1-2.465,4.269C1877.256,934.722,1876.153,934.085,1876.153,932.513Z" transform="translate(-1868.32 -903.051)"/><path class="l" d="M1876.153,932.513a5.447,5.447,0,0,1,2.465-4.27c1.361-.786,2.465-.149,2.465,1.423a5.448,5.448,0,0,1-2.465,4.269C1877.256,934.722,1876.153,934.085,1876.153,932.513Z" transform="translate(-1868.32 -903.051)"/><path class="j" d="M1908.367,939.448l-10.907-6.3,10.907-6.3c1.791-1.034,1.791-2.725,0-3.759h0a7.223,7.223,0,0,0-6.511,0l-10.907,6.3-10.907-6.3a7.223,7.223,0,0,0-6.511,0c-1.79,1.034-1.79,2.725,0,3.759l10.908,6.3-10.908,6.3c-1.79,1.034-1.79,2.726,0,3.759h0a7.223,7.223,0,0,0,6.511,0l10.907-6.3,10.907,6.3a7.223,7.223,0,0,0,6.511,0C1910.158,942.174,1910.158,940.482,1908.367,939.448Z" transform="translate(-1867.011 -901.206)"/><path class="j" d="M1908.367,939.448l-10.907-6.3,10.907-6.3c1.791-1.034,1.791-2.725,0-3.759h0a7.223,7.223,0,0,0-6.511,0l-10.907,6.3-10.907-6.3a7.223,7.223,0,0,0-6.511,0c-1.79,1.034-1.79,2.725,0,3.759l10.908,6.3-10.908,6.3c-1.79,1.034-1.79,2.726,0,3.759h0a7.223,7.223,0,0,0,6.511,0l10.907-6.3,10.907,6.3a7.223,7.223,0,0,0,6.511,0C1910.158,942.174,1910.158,940.482,1908.367,939.448Z" transform="translate(-1867.011 -901.206)"/><path class="g" d="M1892,935.543c0,2.038,2.458,3.689,5.493,3.689s5.493-1.652,5.493-3.689-2.46-5.414-5.493-5.414S1892,933.505,1892,935.543Z" transform="translate(-1873.551 -903.785)"/><path class="j" d="M1894.18,932.836c0,1.5,1.8,2.707,4.03,2.707s4.03-1.212,4.03-2.707-1.8-2.707-4.03-2.707S1894.18,931.341,1894.18,932.836Z" transform="translate(-1874.271 -903.785)"/><path class="g" d="M1898.982,890.8a2.482,2.482,0,0,0-2.465,2.5v24.054a2.465,2.465,0,1,0,4.93,0V893.3A2.482,2.482,0,0,0,1898.982,890.8Z" transform="translate(-1875.043 -890.799)"/></g><path class="aa" d="M1932.257,867.35c0,.135,0,.277-.014.419a12.262,12.262,0,0,1-6.324,9.821l-26.891,14.746a7.135,7.135,0,0,1-1.272.547,7.341,7.341,0,0,1-6-.654l-30.8-18.15a16.81,16.81,0,0,1-8.2-12.92l-3.226-34.523-.334-3.589a3.833,3.833,0,0,1,5.515-3.794l33.337,16.494a3.834,3.834,0,0,1,1.94,2.231l10.66,32.349a4.451,4.451,0,0,0,6.432,2.473l17.4-9.949A5.205,5.205,0,0,1,1932.257,867.35Z" transform="translate(-1849.172 -761.923)"/><path class="z" d="M1897.059,894.665a2.137,2.137,0,0,1-2.305,2.869,7.326,7.326,0,0,1-2.707-.945l-30.8-18.15a16.809,16.809,0,0,1-8.2-12.92l-2.97-31.786a1.535,1.535,0,0,1,2.208-1.518l26.9,13.3a3.848,3.848,0,0,1,1.94,2.239l10.653,32.349C1892.144,881.229,1894.4,887.677,1897.059,894.665Z" transform="translate(-1849.468 -766.284)"/><g transform="translate(88.584 52.814)"><path class="ab" d="M8.371,8.52c-2.337,2.172-5.627,2.432-7.348.581S-.2,3.987,2.14,1.816,7.767-.616,9.488,1.235,10.708,6.349,8.371,8.52Z" transform="matrix(0.985, -0.174, 0.174, 0.985, 0, 7.787)"/><path class="ab" d="M.408,8.8h0A1.527,1.527,0,0,1,.487,6.645L7.2.408A1.525,1.525,0,0,1,9.355.487h0a1.525,1.525,0,0,1-.079,2.156L2.565,8.88A1.527,1.527,0,0,1,.408,8.8Z" transform="matrix(0.985, -0.174, 0.174, 0.985, 1.639, 1.696)"/></g></g></g><g transform="translate(14758 10508)"><path class="ac" d="M2325.625,372.073,2116.092,250.319c-3.859-2.466-7.188-.784-7.435,3.755l-1.032,18.991-7.837,144.276a15.624,15.624,0,0,0,6.542,12.685L2315.862,551.78c3.86,2.466,7.188.785,7.435-3.754l7.838-144.276,1.031-18.992A15.626,15.626,0,0,0,2325.625,372.073Z" transform="translate(-1583.142 678.816)"/><path class="p" d="M2318.765,418.237l-7.842,144.273c-.246,4.544-3.576,6.22-7.435,3.759l-118.5-68.86-91.028-52.9a15.613,15.613,0,0,1-6.543-12.679l7.835-144.28,98.277,57.458Z" transform="translate(-1579.602 667.835)"/><path class="p" d="M2322.942,389.67l-1.022,18.891-.008.1-125.235-73.228L2098.4,277.975l.092-1.676.938-17.315c.246-4.536,3.576-6.22,7.435-3.752L2316.4,376.984A15.625,15.625,0,0,1,2322.942,389.67Z" transform="translate(-1582.748 677.411)"/><path class="ad" d="M2392.843,440.9a6.831,6.831,0,0,0,2.973,5.488c1.71,1.044,3.15.279,3.217-1.708a6.832,6.832,0,0,0-2.974-5.487C2394.35,438.15,2392.909,438.915,2392.843,440.9Z" transform="translate(-1667.025 624.564)"/><path class="ae" d="M2377.11,431.3a6.831,6.831,0,0,0,2.974,5.487c1.71,1.044,3.15.279,3.216-1.708a6.828,6.828,0,0,0-2.973-5.487C2378.617,428.547,2377.176,429.312,2377.11,431.3Z" transform="translate(-1662.521 627.313)"/><g transform="translate(-6597.994 -1288.68)"><g class="af" transform="translate(7130.994 2269.028)"><g class="ag" transform="translate(0 0)"><g transform="translate(0.254 2.507)"><path class="ah" d="M7482.344,2639.216l-135.276-78.1c-.752-.435-1.365-.085-1.368.781l-.01,3.482a3,3,0,0,0,1.359,2.354l135.276,78.1c.752.435,1.365.085,1.368-.779l.01-3.482a3,3,0,0,0-1.359-2.354" transform="translate(-7314.109 -2520.151)"/><path class="ai" d="M7159.635,2452.9l-25.548-14.75c-.752-.434-1.365-.085-1.368.781l-.01,3.482a3,3,0,0,0,1.359,2.354l25.547,14.75c.753.435,1.366.085,1.368-.779l.01-3.482a3,3,0,0,0-1.359-2.355" transform="translate(-7132.71 -2415.42)"/><path class="ah" d="M7484.811,2786.31l-135.275-78.1c-.754-.435-1.366-.086-1.369.779l-.01,3.483a3,3,0,0,0,1.359,2.354l135.275,78.1c.754.435,1.366.086,1.369-.779l.01-3.483a3,3,0,0,0-1.36-2.354" transform="translate(-7316.21 -2645.433)"/><path class="ai" d="M7162.109,2600l-25.548-14.75c-.752-.434-1.365-.085-1.367.78l-.01,3.483a3,3,0,0,0,1.359,2.354l25.548,14.75c.752.435,1.365.085,1.368-.779l.01-3.483a3,3,0,0,0-1.359-2.354" transform="translate(-7134.817 -2540.705)"/><path class="ah" d="M7484.4,2931.968l-135.275-78.1c-.754-.435-1.367-.086-1.369.779l-.01,3.482a3,3,0,0,0,1.36,2.355l135.275,78.1c.753.435,1.366.086,1.369-.78l.01-3.482a3,3,0,0,0-1.36-2.354" transform="translate(-7315.858 -2769.493)"/><path class="ai" d="M7161.7,2745.655l-25.548-14.75c-.753-.434-1.365-.085-1.368.78l-.01,3.482a3,3,0,0,0,1.359,2.355l25.547,14.75c.753.435,1.365.085,1.368-.781l.01-3.482a3,3,0,0,0-1.358-2.354" transform="translate(-7134.465 -2664.764)"/><path class="ah" d="M7483.982,3078.835l-135.275-78.1c-.753-.435-1.366-.087-1.369.779l-.01,3.482a3,3,0,0,0,1.359,2.354l135.275,78.1c.754.435,1.366.086,1.369-.779l.01-3.482a3,3,0,0,0-1.36-2.354" transform="translate(-7315.504 -2894.582)"/><path class="ai" d="M7161.28,2892.522l-25.548-14.75c-.752-.435-1.365-.086-1.367.78l-.01,3.482a3,3,0,0,0,1.358,2.354l25.548,14.75c.752.434,1.365.085,1.368-.78l.01-3.482a2.994,2.994,0,0,0-1.359-2.354" transform="translate(-7134.111 -2789.854)"/><path class="ah" d="M7483.536,3235.749l-135.275-78.1c-.754-.435-1.366-.086-1.369.779l-.01,3.482a3,3,0,0,0,1.359,2.354l135.275,78.1c.754.435,1.366.086,1.369-.779l.01-3.482a3,3,0,0,0-1.36-2.354" transform="translate(-7315.125 -3028.228)"/><path class="ai" d="M7160.835,3049.436l-25.547-14.75c-.753-.435-1.365-.085-1.368.779l-.01,3.482a3,3,0,0,0,1.359,2.354l25.548,14.75c.752.435,1.365.085,1.368-.78l.01-3.482a3,3,0,0,0-1.359-2.354" transform="translate(-7133.732 -2923.5)"/><path class="ah" d="M8319.467,2965.707l-10.684-6.168c-.434-.25-.789-.047-.79.45a1.736,1.736,0,0,0,.785,1.36l10.684,6.168c.434.25.789.048.79-.45a1.736,1.736,0,0,0-.785-1.36" transform="translate(-8133.719 -2859.564)"/><path class="ah" d="M8319.406,2987.364l-10.685-6.168c-.434-.25-.788-.048-.79.45a1.735,1.735,0,0,0,.785,1.36l10.684,6.168c.434.25.789.048.791-.45a1.737,1.737,0,0,0-.785-1.36" transform="translate(-8133.667 -2878.009)"/><path class="ah" d="M8319.345,3009.021l-10.684-6.168c-.434-.25-.789-.048-.79.45a1.735,1.735,0,0,0,.785,1.36l10.684,6.168c.434.25.789.047.79-.45a1.734,1.734,0,0,0-.785-1.36" transform="translate(-8133.615 -2896.454)"/><path class="ah" d="M7140.03,2286.678c-2.99-1.726-5.422-.34-5.432,3.1a11.894,11.894,0,0,0,5.4,9.347c2.991,1.727,5.423.342,5.433-3.095a11.9,11.9,0,0,0-5.4-9.349" transform="translate(-7134.318 -2285.936)"/><path class="ah" d="M7248.668,2363.61l-23.492-13.563-.011,3.743,23.492,13.563.011-3.743" transform="translate(-7211.456 -2340.54)"/></g></g></g></g></g><g transform="translate(14668 5167)"><path class="i" d="M2082.343,1008.589c-14.278,0-25.894,7.664-25.894,17.085s11.616,17.085,25.894,17.085,25.893-7.664,25.893-17.085S2096.62,1008.589,2082.343,1008.589Z" transform="translate(-1164.594 5595.882)"/><path class="k" d="M2102.192,998.561l-6,30.1H2056.41l-6-30.1Z" transform="translate(-1154.708 5585.457)"/><path class="k" d="M2096.515,1029.69c0,5.088-7.708,10.748-18.906,11.063-.323.007-.653.015-.983.015-11.723,0-19.889-5.84-19.889-11.078s8.166-11.086,19.889-11.086a31.763,31.763,0,0,1,8.278,1.058C2092.019,1021.576,2096.515,1025.8,2096.515,1029.69Z" transform="translate(-1155.034 5584.424)"/><path class="g" d="M2103.653,998.561l-6,30.1c0,5.089-7.708,10.748-18.906,11.063a19.463,19.463,0,0,0,3.5-4.653,27.867,27.867,0,0,0,2.424-6.41,53.025,53.025,0,0,0,1.374-10.027c.1-1.718.157-3.437.2-5.141q.214-7.465.435-14.928Z" transform="translate(-1156.168 5585.457)"/><ellipse class="l" cx="25.893" cy="17.085" rx="25.893" ry="17.085" transform="translate(895.698 6566.93)"/><ellipse class="n" cx="19.889" cy="11.081" rx="19.889" ry="11.081" transform="translate(901.702 6572.934)"/><circle class="g" cx="17.859" cy="17.859" r="17.859" transform="translate(901.103 6513.891) rotate(-80.783)"/><circle class="g" cx="12.663" cy="12.663" r="12.663" transform="translate(905.047 6518.527) rotate(-22.5)"/><ellipse class="g" cx="13.784" cy="13.784" rx="13.784" ry="13.784" transform="translate(903.582 6564.802) rotate(-67.5)"/><path class="g" d="M2082.4,1000.239a4.959,4.959,0,1,1-4.958-4.958A4.959,4.959,0,0,1,2082.4,1000.239Z" transform="translate(-1155.845 5585.626)"/><path class="g" d="M2091,920.662c-3.962,5.058-3.837,6.494-2.221,10.754H2065.1c1.616-4.26,1.741-5.7-2.22-10.754Z" transform="translate(-1155.351 5589.473)"/><path class="g" d="M2089.222,922.824c-13.063,12.178-11.5,25.676-2.1,35.758h-20.164c9.4-10.082,10.966-23.58-2.1-35.758Z" transform="translate(-1155.453 5589.361)"/><path class="g" d="M2088.723,923.322c-13.534,11.651-11.128,66.215-7.893,69.973h-7.517c3.237-3.758,5.642-58.323-7.893-69.973Z" transform="translate(-1155.481 5589.335)"/><path class="g" d="M2086.295,946.01c-4.409,4.567-4.506,8.451.465,13.25h-19.148c4.972-4.8,4.874-8.683.465-13.25Z" transform="translate(-1155.595 5588.166)"/><path class="g" d="M2085.616,946.76c-9.507,8.364-7.917,43.98-4.642,47.7h-7.446c3.275-3.724,4.866-39.339-4.641-47.7Z" transform="translate(-1155.66 5588.127)"/><path class="g" d="M2085.366,982.2c-8.94,6.492-6.423,11.24-4.088,14.456h-8.025c2.336-3.216,4.852-7.964-4.087-14.456Z" transform="translate(-1155.675 5586.301)"/><path class="i" d="M2082.343,1008.589c-14.278,0-25.894,7.664-25.894,17.085s11.616,17.085,25.894,17.085,25.893-7.664,25.893-17.085S2096.62,1008.589,2082.343,1008.589Z" transform="translate(-1164.594 5595.882)"/><path class="k" d="M2102.192,998.561l-6,30.1H2056.41l-6-30.1Z" transform="translate(-1154.708 5585.457)"/><path class="k" d="M2096.515,1029.69c0,5.088-7.708,10.748-18.906,11.063-.323.007-.653.015-.983.015-11.723,0-19.889-5.84-19.889-11.078s8.166-11.086,19.889-11.086a31.763,31.763,0,0,1,8.278,1.058C2092.019,1021.576,2096.515,1025.8,2096.515,1029.69Z" transform="translate(-1155.034 5584.424)"/><path class="g" d="M2103.653,998.561l-6,30.1c0,5.089-7.708,10.748-18.906,11.063a19.463,19.463,0,0,0,3.5-4.653,27.867,27.867,0,0,0,2.424-6.41,53.025,53.025,0,0,0,1.374-10.027c.1-1.718.157-3.437.2-5.141q.214-7.465.435-14.928Z" transform="translate(-1156.168 5585.457)"/><ellipse class="l" cx="25.893" cy="17.085" rx="25.893" ry="17.085" transform="translate(895.698 6566.93)"/><ellipse class="n" cx="19.889" cy="11.081" rx="19.889" ry="11.081" transform="translate(901.702 6572.934)"/><circle class="g" cx="17.859" cy="17.859" r="17.859" transform="translate(901.103 6513.891) rotate(-80.783)"/><circle class="g" cx="12.663" cy="12.663" r="12.663" transform="translate(905.047 6518.527) rotate(-22.5)"/><ellipse class="g" cx="13.784" cy="13.784" rx="13.784" ry="13.784" transform="translate(903.582 6564.802) rotate(-67.5)"/><path class="g" d="M2082.4,1000.239a4.959,4.959,0,1,1-4.958-4.958A4.959,4.959,0,0,1,2082.4,1000.239Z" transform="translate(-1155.845 5585.626)"/><path class="g" d="M2091,920.662c-3.962,5.058-3.837,6.494-2.221,10.754H2065.1c1.616-4.26,1.741-5.7-2.22-10.754Z" transform="translate(-1155.351 5589.473)"/><path class="g" d="M2089.222,922.824c-13.063,12.178-11.5,25.676-2.1,35.758h-20.164c9.4-10.082,10.966-23.58-2.1-35.758Z" transform="translate(-1155.453 5589.361)"/><path class="g" d="M2088.723,923.322c-13.534,11.651-11.128,66.215-7.893,69.973h-7.517c3.237-3.758,5.642-58.323-7.893-69.973Z" transform="translate(-1155.481 5589.335)"/><path class="g" d="M2086.295,946.01c-4.409,4.567-4.506,8.451.465,13.25h-19.148c4.972-4.8,4.874-8.683.465-13.25Z" transform="translate(-1155.595 5588.166)"/><path class="g" d="M2085.616,946.76c-9.507,8.364-7.917,43.98-4.642,47.7h-7.446c3.275-3.724,4.866-39.339-4.641-47.7Z" transform="translate(-1155.66 5588.127)"/><path class="g" d="M2085.366,982.2c-8.94,6.492-6.423,11.24-4.088,14.456h-8.025c2.336-3.216,4.852-7.964-4.087-14.456Z" transform="translate(-1155.675 5586.301)"/></g></g></svg>