<svg xmlns="http://www.w3.org/2000/svg" width="539" height="501.051" viewBox="0 0 539 501.051"><defs><style>.a{fill:#647ddd;opacity:0.17;}.b{fill:#bddcff;}.c{fill:#8dc0ef;}.d{fill:#e2e8f2;}.e{fill:#1f3598;}.f{fill:#525252;}.g{fill:#fff;}.h{fill:rgba(15,0,0,0.1);}.i{fill:#c4e4f9;}.j{fill:#0f62fe;}.k{fill:#d5e8fa;}.l{fill:#eff6fc;}.m{fill:#75a3ec;}.n{fill:#ffc7cb;}.o{fill:#ff8358;}.p{fill:#577de8;}.q{fill:#f2f4fa;}.r{fill:#3772ce;}.s{fill:#4568c7;}.t{fill:#a0d2ff;}.u{fill:#cacaca;mix-blend-mode:multiply;isolation:isolate;}.v{fill:#32b98e;}.w{fill:#f26c73;}.x{opacity:0.42;}.y,.z{fill:none;stroke:#577de8;stroke-miterlimit:10;}.y{stroke-width:0.757px;}.z{stroke-width:0.539px;}.aa{fill:#1737a2;}</style></defs><g transform="translate(-8302 1542)"><g transform="translate(7872 -2325)"><path class="a" d="M2082.343,1008.589c-14.278,0-25.894,7.664-25.894,17.085s11.616,17.085,25.894,17.085,25.893-7.664,25.893-17.085S2096.62,1008.589,2082.343,1008.589Z" transform="translate(-1224.594 180.882)"/><path class="b" d="M2102.192,998.561l-6,30.1H2056.41l-6-30.1Z" transform="translate(-1214.708 170.457)"/><path class="b" d="M2096.515,1029.69c0,5.088-7.708,10.748-18.906,11.063-.323.007-.653.015-.983.015-11.723,0-19.889-5.84-19.889-11.078s8.166-11.086,19.889-11.086a31.763,31.763,0,0,1,8.278,1.058C2092.019,1021.576,2096.515,1025.8,2096.515,1029.69Z" transform="translate(-1215.034 169.424)"/><path class="c" d="M2103.653,998.561l-6,30.1c0,5.089-7.708,10.748-18.906,11.063a19.463,19.463,0,0,0,3.5-4.653,27.867,27.867,0,0,0,2.424-6.41,53.025,53.025,0,0,0,1.374-10.027c.1-1.718.157-3.437.2-5.141q.214-7.465.435-14.928Z" transform="translate(-1216.168 170.457)"/><ellipse class="d" cx="25.893" cy="17.085" rx="25.893" ry="17.085" transform="translate(835.698 1151.93)"/><ellipse class="e" cx="19.889" cy="11.081" rx="19.889" ry="11.081" transform="translate(841.702 1157.934)"/><circle class="c" cx="17.859" cy="17.859" r="17.859" transform="translate(841.103 1098.891) rotate(-80.783)"/><circle class="c" cx="12.663" cy="12.663" r="12.663" transform="translate(845.047 1103.527) rotate(-22.5)"/><ellipse class="c" cx="13.784" cy="13.784" rx="13.784" ry="13.784" transform="translate(843.582 1149.802) rotate(-67.5)"/><path class="c" d="M2082.4,1000.239a4.959,4.959,0,1,1-4.958-4.958A4.959,4.959,0,0,1,2082.4,1000.239Z" transform="translate(-1215.845 170.626)"/><path class="c" d="M2091,920.662c-3.962,5.058-3.837,6.494-2.221,10.754H2065.1c1.616-4.26,1.741-5.7-2.22-10.754Z" transform="translate(-1215.351 174.473)"/><path class="c" d="M2089.222,922.824c-13.063,12.178-11.5,25.676-2.1,35.758h-20.164c9.4-10.082,10.966-23.58-2.1-35.758Z" transform="translate(-1215.453 174.361)"/><path class="c" d="M2088.723,923.322c-13.534,11.651-11.128,66.215-7.893,69.973h-7.517c3.237-3.758,5.642-58.323-7.893-69.973Z" transform="translate(-1215.481 174.335)"/><path class="c" d="M2086.295,946.01c-4.409,4.567-4.506,8.451.465,13.25h-19.148c4.972-4.8,4.874-8.683.465-13.25Z" transform="translate(-1215.595 173.166)"/><path class="c" d="M2085.616,946.76c-9.507,8.364-7.917,43.98-4.642,47.7h-7.446c3.275-3.724,4.866-39.339-4.641-47.7Z" transform="translate(-1215.66 173.127)"/><path class="c" d="M2085.366,982.2c-8.94,6.492-6.423,11.24-4.088,14.456h-8.025c2.336-3.216,4.852-7.964-4.087-14.456Z" transform="translate(-1215.675 171.301)"/></g><g transform="translate(3005 -12730.349)"><circle class="f" cx="130" cy="130" r="130" transform="translate(5576 11188.349)"/><path class="g" d="M1571.874,1031.365a1.1,1.1,0,0,1-.892-.473l-.126-.166-.152-.143q-.673-.635-1.344-1.276l-.05-.048c-1.088-1.035-2.212-2.1-3.354-3.137-1.408-1.274-4.743-4.307-8.85-8.043l-.274-.25c-9.719-8.84-23.019-20.938-26.343-23.89a1.038,1.038,0,0,1-.124-1.445,1.012,1.012,0,0,1,1.439-.1c3.292,2.921,16.642,15.066,26.391,23.933l.794.723c3.866,3.516,6.98,6.348,8.326,7.566.978.885,1.961,1.812,2.877,2.682l1.732,1.646a.009.009,0,0,0,.013,0l3.6-3.334c2.472-2.289,5.027-4.654,7.6-6.981,2.953-2.672,5.956-5.306,8.606-7.629,1.83-1.606,3.7-3.231,5.514-4.8l5.555-4.829c1.862-1.619,3.787-3.293,5.669-4.959a162.641,162.641,0,0,0,12.735-12.277,57.35,57.35,0,0,0,8.814-12.375,43.453,43.453,0,0,0,4.056-11.748c.41-2.18.742-4.442.987-6.722a59.348,59.348,0,0,0,.293-8.793,32,32,0,0,0-7.252-19.438,30.718,30.718,0,0,0-16.476-10.438,33.157,33.157,0,0,0-8.441-1.079c-.568,0-1.146.014-1.717.042a32.565,32.565,0,0,0-16.533,5.478,39.156,39.156,0,0,0-10.678,10.636c-.3.439-.58.876-.849,1.3l-.645.991-.841,1.269a.01.01,0,0,1-.016,0l-1.135-1.779c-.2-.323-.407-.642-.614-.958a39.153,39.153,0,0,0-10.765-11.144,33.237,33.237,0,0,0-12.186-5.191,32.1,32.1,0,0,0-6.4-.643c-.495,0-1,.011-1.492.035A31.594,31.594,0,0,0,1520,920.839a30.826,30.826,0,0,0-10.65,17.362,38.537,38.537,0,0,0-.807,10.55l.016.389c.057,1.426.111,2.766.255,4.119.234,2.24.486,4.089.791,5.816a45.214,45.214,0,0,0,2.911,9.795l.66,1.553a.01.01,0,0,0,.009.006h24.227a.009.009,0,0,0,.008,0l13.23-24.432a1.008,1.008,0,0,1,.886-.532.99.99,0,0,1,.173.015,1.013,1.013,0,0,1,.832.844l4.809,31.178c.2,1.287,1.075,6.763,2.071,12.863h0c.57-1.9,3.583-11.331,4.094-12.865l5.431-16.292a1.01,1.01,0,0,1,.791-.678,1.045,1.045,0,0,1,.169-.014,1.006,1.006,0,0,1,.8.394l7.346,9.519a.009.009,0,0,0,.007,0h29.546a1.049,1.049,0,0,1,1.061.92,1.014,1.014,0,0,1-1.008,1.106h-30.1a1.02,1.02,0,0,1-.8-.395l-6.48-8.4a.009.009,0,0,0-.016,0l-10.36,31.081a1.01,1.01,0,0,1-.9.7,1.085,1.085,0,0,1-.141,0,1.01,1.01,0,0,1-.919-.855L1551,949.63a.009.009,0,0,0-.018,0l-12.074,22.3a1.012,1.012,0,0,1-.891.53h-55.557a1.049,1.049,0,0,1-1.062-.919,1.013,1.013,0,0,1,1.008-1.106h28.414a.01.01,0,0,0,.009-.013l-1.208-3.4a47.3,47.3,0,0,1-2.014-7.587c-.315-1.78-.572-3.673-.81-5.956-.15-1.417-.209-2.852-.265-4.241l-.015-.395a40.492,40.492,0,0,1,.859-11.1,33.218,33.218,0,0,1,11.332-18.459,34,34,0,0,1,20.525-7.719c.529-.025,1.066-.037,1.6-.037a34.109,34.109,0,0,1,6.8.684,35.245,35.245,0,0,1,12.925,5.5,40.83,40.83,0,0,1,9.364,8.949l2.026,2.647a.009.009,0,0,0,.015,0l2.024-2.648a40.609,40.609,0,0,1,9.855-9.28,34.558,34.558,0,0,1,17.547-5.811c.607-.03,1.22-.045,1.824-.045a35.183,35.183,0,0,1,8.952,1.146,33.121,33.121,0,0,1,17.524,11.109,33.983,33.983,0,0,1,7.712,20.64,61.353,61.353,0,0,1-.3,9.094c-.251,2.336-.592,4.651-1.01,6.879a45.5,45.5,0,0,1-4.244,12.3,59.331,59.331,0,0,1-9.117,12.814,164.585,164.585,0,0,1-12.892,12.433c-1.894,1.677-3.842,3.371-5.726,5.008l-5.372,4.67c-1.857,1.611-3.771,3.273-5.646,4.918l-.036.031c-2.643,2.318-5.638,4.945-8.547,7.578-2.543,2.3-5.1,4.663-7.567,6.95l-2.164,2-.055.057a5.864,5.864,0,0,0-.442.536l-.081.106c-.666.864-1.288,1.578-2.172,1.578Z" transform="translate(4132.604 10357.48)"/></g><g transform="translate(8302 -1161.864)"><path class="h" d="M276,660H813.675s-11.269,20.927-37.026,17.708a149.484,149.484,0,0,1-20.927-1.61c-9.659-1.61-24.147,3.22-27.367,8.049,0,0-24.147,14.488-64.392,0,0,0-37.026-16.1-62.782-1.61,0,0-19.318,20.928-69.222-4.829,0,0-12.879-8.049-35.416,8.049,0,0-22.537,19.318-66-8.049,0,0-24.147-6.439-51.514,6.439C379.028,684.147,324.294,692.2,276,660Z" transform="translate(-276 -571.461)"/><path class="i" d="M582.407,634.075s27.206,15.026,15.19,36.5C597.6,670.576,578.133,666.564,582.407,634.075Z" transform="translate(-89.525 -587.27)"/><path class="j" d="M614.007,623s14.488,46.684-22.537,57.953C591.47,680.953,573.762,655.2,614.007,623Z" transform="translate(-85.991 -594.023)"/><path class="j" d="M334.352,621.92s-41.564,22.958-23.207,55.765C311.145,677.685,340.883,671.557,334.352,621.92Z" transform="translate(-257.422 -594.682)"/><path class="i" d="M292.061,605s-22.135,71.324,34.43,88.539C326.492,693.539,353.546,654.189,292.061,605Z" transform="translate(-268.808 -605)"/></g><g transform="translate(8385.158 -1330.618)"><path class="c" d="M2038.455,945.1a4.22,4.22,0,0,1-3.821,0,1.165,1.165,0,0,1,0-2.207,4.222,4.222,0,0,1,3.821,0A1.165,1.165,0,0,1,2038.455,945.1Z" transform="translate(-1887.386 -749.402)"/><path class="e" d="M2109.155,803.117c-4.216-4.883-8.962,2.047-11.2,4.92-1.524,1.953-6.822,7.136-6.241,9.856.2.954.318.909,1.26,1.162a5.9,5.9,0,0,0,2.891-.108,16.48,16.48,0,0,0,11.171-8.312c.092,1.2.115,2.392.1,3.59a.344.344,0,0,0,.533.28q.7-.454,1.368-.946c1.668-1.232.932-2.978,1.384-4.964A6.226,6.226,0,0,0,2109.155,803.117Z" transform="translate(-1900.768 -716.769)"/><path class="a" d="M1911.35,927.77c-10.728-6.193-28.12-6.193-38.846,0s-10.727,16.235,0,22.428,28.118,6.193,38.846,0S1922.076,933.964,1911.35,927.77Z" transform="translate(-1848.188 -744.933)"/><path class="a" d="M2081.689,849.473l-142.844-81.239L1850.5,821.275a1.588,1.588,0,0,0,.037,2.746L1989.4,902.309a9.287,9.287,0,0,0,9.405-.09l82.915-49.758A1.732,1.732,0,0,0,2081.689,849.473Z" transform="translate(-1844.78 -709.089)"/><path class="c" d="M2039.247,878.374V928.6a.562.562,0,0,1-.041.2.443.443,0,0,1-.391.237h-4.542a.445.445,0,0,1-.391-.237.556.556,0,0,1-.041-.2V878.374a.435.435,0,0,1,.432-.433h4.542A.435.435,0,0,1,2039.247,878.374Z" transform="translate(-1887.385 -734.477)"/><path class="c" d="M2039.247,886.977a.389.389,0,0,1-.049.188.891.891,0,0,1,.049.285,1.329,1.329,0,0,1-.792,1.1,4.213,4.213,0,0,1-3.824,0,1.331,1.331,0,0,1-.791-1.1.865.865,0,0,1,.049-.285.379.379,0,0,1-.049-.187v-8.6a.435.435,0,0,1,.432-.433h4.542a.435.435,0,0,1,.432.433Z" transform="translate(-1887.385 -734.477)"/><path class="c" d="M1851.27,841.272a4.223,4.223,0,0,1-3.821,0,1.165,1.165,0,0,1,0-2.207,4.221,4.221,0,0,1,3.821,0A1.165,1.165,0,0,1,1851.27,841.272Z" transform="translate(-1844.069 -725.375)"/><path class="c" d="M1852.061,774.544v50.23a.55.55,0,0,1-.041.2.441.441,0,0,1-.391.237h-4.542a.445.445,0,0,1-.392-.237.565.565,0,0,1-.04-.2v-50.23a.435.435,0,0,1,.432-.433h4.542A.435.435,0,0,1,1852.061,774.544Z" transform="translate(-1844.069 -710.449)"/><path class="c" d="M1852.061,783.146a.383.383,0,0,1-.048.188.882.882,0,0,1,.048.285,1.328,1.328,0,0,1-.791,1.1,4.214,4.214,0,0,1-3.824,0,1.329,1.329,0,0,1-.791-1.1.864.864,0,0,1,.049-.285.376.376,0,0,1-.049-.188v-8.6a.435.435,0,0,1,.432-.433h4.542a.435.435,0,0,1,.432.433Z" transform="translate(-1844.069 -710.449)"/><path class="c" d="M2152.15,878.625a4.222,4.222,0,0,1-3.822,0,1.165,1.165,0,0,1,0-2.207,4.227,4.227,0,0,1,3.822,0A1.164,1.164,0,0,1,2152.15,878.625Z" transform="translate(-1913.697 -734.019)"/><path class="c" d="M2152.943,811.9v50.23a.571.571,0,0,1-.042.2.442.442,0,0,1-.391.236h-4.542a.441.441,0,0,1-.39-.236.559.559,0,0,1-.041-.2V811.9a.435.435,0,0,1,.431-.432h4.542A.436.436,0,0,1,2152.943,811.9Z" transform="translate(-1913.697 -719.093)"/><path class="c" d="M2152.943,825.412a.393.393,0,0,1-.049.188.911.911,0,0,1,.049.285,1.33,1.33,0,0,1-.791,1.1,4.216,4.216,0,0,1-3.825,0,1.328,1.328,0,0,1-.791-1.1.9.9,0,0,1,.048-.285.389.389,0,0,1-.048-.188v-8.6a.435.435,0,0,1,.431-.432h4.542a.435.435,0,0,1,.433.432Z" transform="translate(-1913.697 -720.23)"/><path class="k" d="M1843.69,761.735l-.01,10.774,16.041,5.923-.819-5.87Z" transform="translate(-1843.38 -707.585)"/><path class="k" d="M2156.639,812.031V802.41l-17.78,11.431,1.188,3.165Z" transform="translate(-1911.688 -716.998)"/><path class="k" d="M1845.753,754.328l83.3-48.694a18.87,18.87,0,0,1,18.883-.095l137.5,78.535a4.972,4.972,0,0,1,.02,8.622l-84.649,48.886a18.87,18.87,0,0,1-18.877,0l-136.155-78.658A4.971,4.971,0,0,1,1845.753,754.328Z" transform="translate(-1843.29 -694.006)"/><path class="l" d="M1846.143,742.553l83.3-48.693a18.872,18.872,0,0,1,18.883-.1l137.5,78.536a4.97,4.97,0,0,1,.021,8.621L2001.2,829.809a18.87,18.87,0,0,1-18.877,0L1846.165,751.15A4.971,4.971,0,0,1,1846.143,742.553Z" transform="translate(-1843.38 -691.281)"/><path class="c" d="M1963.108,812.3l-42.284-24.413c-1.919-1.108-1.919-2.9,0-4.012l16.622-9.6a7.678,7.678,0,0,1,6.949,0l42.285,24.413c1.919,1.109,1.919,2.9,0,4.012l-16.623,9.6A7.677,7.677,0,0,1,1963.108,812.3Z" transform="translate(-1860.899 -710.295)"/><path class="c" d="M1919.384,785.658v4.01l47.2,26.287,21.536-12.434v-3.046Z" transform="translate(-1860.899 -713.121)"/><path class="b" d="M1963.108,808.334l-42.284-24.414c-1.919-1.107-1.919-2.9,0-4.012l16.622-9.6a7.682,7.682,0,0,1,6.949,0l42.285,24.414c1.919,1.108,1.919,2.9,0,4.012l-16.623,9.6A7.681,7.681,0,0,1,1963.108,808.334Z" transform="translate(-1860.899 -709.377)"/><path class="b" d="M1975.7,804.506l-40.969-23.654,3.6-2.078,40.969,23.654Z" transform="translate(-1864.45 -711.528)"/><path class="b" d="M1967.665,809.144,1926.7,785.49l3.6-2.078,40.969,23.654Z" transform="translate(-1862.591 -712.601)"/><path class="d" d="M1935.79,780.994l40.154,23.184,2.785-1.608-40.155-23.184Z" transform="translate(-1864.696 -711.67)"/><path class="d" d="M1927.757,785.632l40.154,23.184,2.784-1.609-40.154-23.183Z" transform="translate(-1862.836 -712.743)"/><path class="d" d="M1943.607,775.726l40.154,23.184,2.785-1.609-40.154-23.183Z" transform="translate(-1866.505 -710.451)"/><path class="m" d="M2037.893,819.187c0,2.689-4.1,4.868-9.165,4.868s-9.165-2.18-9.165-4.868,4.1-4.868,9.165-4.868S2037.893,816.5,2037.893,819.187Z" transform="translate(-1884.082 -719.754)"/><ellipse class="b" cx="9.165" cy="4.867" rx="9.165" ry="4.867" transform="translate(135.482 92.152)"/><path class="e" d="M2037.267,906.847l.936-.544c.142-.082.142-.216,0-.3l-.94-.543a.573.573,0,0,0-.518,0l-.935.544a.159.159,0,0,0,0,.3l.94.543a.571.571,0,0,0,.518,0Z" transform="translate(-1887.816 -740.83)"/><rect class="e" width="3.649" height="8.749" rx="1.584" transform="translate(93.872 176.441)"/><path class="n" d="M1965.677,858.4l.13,2.8,1.615,39.435c-.006.148-.019.118-.027.055a5.81,5.81,0,0,0-.373,2.079c2.43,1.776,4.514,2.766,7.76,2.6a27.693,27.693,0,0,1,.5-5.74c.057-.42,3.187-39.4,3.187-39.4V860.2C1973.662,860.32,1970.481,858.137,1965.677,858.4Z" transform="translate(-1871.612 -729.95)"/><path class="e" d="M1976.4,924.068c3.131,2.214,2.827,4.288,7.525,3.131a8.71,8.71,0,0,0,4.066-1.947,3.218,3.218,0,0,0,.77-3.89,5.2,5.2,0,0,0-3.4-1.89,20.937,20.937,0,0,0-6.741-.39,5.75,5.75,0,0,0-3.028.994C1973.921,921.421,1975,923.074,1976.4,924.068Z" transform="translate(-1873.71 -743.971)"/><path class="n" d="M1973.387,914.245a8.205,8.205,0,0,1,2.115,1.519,30.337,30.337,0,0,1,6.414,6.554c-.49,1.452-2.081,2.506-3.823,3.029a26,26,0,0,1-2.977-1.054,16.226,16.226,0,0,1-6.575-5.452c-.2-.287-.39-.674-.193-.962l2.621-2.538c2.628-2.543,6.513,1.086,9.161,2.469,1,.523,2.138,1.249,2.176,2.377.037,1.056-.937,1.861-1.892,2.313a9.078,9.078,0,0,1-2.985.828Z" transform="translate(-1872.211 -742.878)"/><path class="e" d="M1965.981,914.8a4.166,4.166,0,0,1,3.8.552c1.839,1.11,3.2,2.926,4.81,4.323,2.215,1.925,4.445,3,7.154,1.764.892.542,1.517,1.166,1.488,1.885-.039,1.048-1.917,2.392-2.746,2.962-2.6,1.791-6.786-1.084-8.9-2.16-1.668-.849-3.435-.691-5.024-1.4C1964.428,921.773,1963.748,916.807,1965.981,914.8Z" transform="translate(-1871.363 -742.949)"/><rect class="e" width="3.649" height="8.749" rx="1.584" transform="translate(71.893 162.544)"/><path class="o" d="M1936.615,851.965l.13-1.277,1.615,34.543c-.006.148-.019.118-.028.055a5.807,5.807,0,0,0-.373,2.079c2.43,1.776,4.514,2.767,7.76,2.6a27.7,27.7,0,0,1,.5-5.741c.057-.42,2.371-32.876,2.371-32.876v-.034C1943.784,851.436,1941.42,851.7,1936.615,851.965Z" transform="translate(-1864.886 -728.17)"/><path class="e" d="M1947.341,906.338c3.13,2.214,2.827,4.288,7.524,3.131a8.717,8.717,0,0,0,4.066-1.948,3.219,3.219,0,0,0,.77-3.89,5.2,5.2,0,0,0-3.4-1.889,20.957,20.957,0,0,0-6.741-.39,5.753,5.753,0,0,0-3.028.994C1944.859,903.691,1945.936,905.345,1947.341,906.338Z" transform="translate(-1866.985 -739.868)"/><path class="o" d="M1944.325,896.515a8.245,8.245,0,0,1,2.115,1.519,30.359,30.359,0,0,1,6.414,6.554c-.49,1.452-2.081,2.506-3.823,3.028a26.01,26.01,0,0,1-2.977-1.054,16.222,16.222,0,0,1-6.575-5.451c-.2-.287-.39-.674-.193-.962l2.622-2.538c2.628-2.543,6.513,1.087,9.161,2.469,1,.523,2.138,1.249,2.177,2.378.036,1.055-.937,1.86-1.892,2.312a9.068,9.068,0,0,1-2.985.828Z" transform="translate(-1865.486 -738.775)"/><path class="e" d="M1936.919,897.067a4.165,4.165,0,0,1,3.8.552c1.839,1.111,3.2,2.926,4.81,4.324,2.214,1.926,4.445,3,7.154,1.765.892.541,1.516,1.165,1.488,1.884-.04,1.048-1.917,2.392-2.746,2.961-2.6,1.791-6.787-1.084-8.9-2.16-1.668-.849-3.435-.691-5.024-1.4C1935.365,904.043,1934.687,899.077,1936.919,897.067Z" transform="translate(-1864.638 -738.846)"/><path class="p" d="M2017.766,695.8v0Z" transform="translate(-1850.83 -673.37)"/><path class="q" d="M2014.913,758.245c0,1.566-1.1,2.2-2.456,1.418a5.427,5.427,0,0,1-2.456-4.254c0-1.566,1.1-2.2,2.456-1.418A5.428,5.428,0,0,1,2014.913,758.245Z" transform="translate(-1881.869 -705.715)"/><path class="o" d="M1910.213,806.978a25.558,25.558,0,0,1-.088-2.92c.606-1.271,1.148-2.418,1.142-2.515l19.064-13.233a3.455,3.455,0,0,1,2.5-.914,3.516,3.516,0,0,1,.5.056,3.442,3.442,0,0,1,1.912,1.062,3.477,3.477,0,0,1-.205,4.908l-18.688,16.068-.045.038A3.759,3.759,0,0,1,1910.213,806.978Z" transform="translate(-1858.754 -713.523)"/><path class="n" d="M1941.7,795.2c-2.29,2.128-5.513,2.383-7.2.569s-1.2-5.01,1.094-7.137,5.513-2.383,7.2-.569S1943.986,793.075,1941.7,795.2Z" transform="translate(-1864.164 -713.398)"/><path class="e" d="M1956.575,852.406l-11.612-6.654c-4.493-2.25-8.032.546-12.852,1.965l.612-.612-2.267-3.539-26.828-1.892c-9.394,5.325-11.212,28.165-11.212,28.165l.009.171h0c-1.111,9.27,13.332,16.237,24.477,17.935a18.3,18.3,0,0,0,11.4-2l1.865-1,26.9-14.449C1965.178,865.909,1964.892,856.589,1956.575,852.406Z" transform="translate(-1854.646 -726.084)"/><path class="d" d="M1903.405,825.021a34.63,34.63,0,0,1-.086,4.715,2.188,2.188,0,0,0,1,2.044,28.885,28.885,0,0,0,4.208,2.19c4.217,1.768,9.052,2.765,13.552,1.768.18-.042.352-.086.532-.128,2.586-.662,8.21-2.19,8.717-5.393a1.548,1.548,0,0,0,.042-.395c-.008-.3-.025-.611-.042-.919V814.526c1.4-4.165,3.968-7.136,2.688-12.427a18.811,18.811,0,0,0-3-6.733c-2.371-3.264-5.788-5.282-10.151-6.553-1.383-.395-2.749-.722-3.985-.979a24.565,24.565,0,0,0-8-.3c-2.808.362-5.5,1.314-7.171,3.187a6.448,6.448,0,0,0-.6.755c-3.332,5-1.563,11.989-.353,17.416C1901.945,814.226,1903.2,819.585,1903.405,825.021Z" transform="translate(-1856.224 -713.51)"/><path class="r" d="M1928.528,777.345c-.017,0-.033.018-.05.037a1.12,1.12,0,0,1-.017-.238A.292.292,0,0,0,1928.528,777.345Z" transform="translate(-1862.999 -711.151)"/><path class="n" d="M1912.585,790.287h4.091a7.029,7.029,0,0,0,6.932-5.867l.255-1.523.929-5.571h-10.04Z" transform="translate(-1859.325 -711.193)"/><path class="o" d="M1918.75,779.868l4.984,7.572h.318l1.238-7.389Z" transform="translate(-1860.752 -711.781)"/><path class="o" d="M1927.376,774.289a.843.843,0,0,1-.64.052c-.022-.055-.01-.115-.042-.168Z" transform="translate(-1862.59 -710.463)"/><path class="o" d="M1931.412,782.632c.117.008.234.032.35.047l-.92-.881C1931.038,782.071,1931.224,782.351,1931.412,782.632Z" transform="translate(-1863.551 -712.228)"/><path class="o" d="M1911.877,790.645c1.571,2.3,6.817,1.476,11.825-1.826-1.389-.4-2.754-.73-3.992-.984a24.8,24.8,0,0,0-8-.3A3.459,3.459,0,0,0,1911.877,790.645Z" transform="translate(-1859.058 -713.51)"/><path class="r" d="M1928.151,771.622c-.017,0-.032.021-.047.041a1.175,1.175,0,0,1-.04-.235A.293.293,0,0,0,1928.151,771.622Z" transform="translate(-1862.907 -709.828)"/><path class="n" d="M1930.852,762.176c.195,2.958-.016,5.919-1.523,8.257-1.656,2.6-4.63,3.874-7.536,4.246a8.8,8.8,0,0,1-4.8-.558c-2.849-1.335-4.457-4.672-5.469-7.876a27.692,27.692,0,0,1-.889-3.72,14.1,14.1,0,0,1-.013-4.31,12.334,12.334,0,0,1,4.662-7.55,19.456,19.456,0,0,1,7.9-3.413,6.583,6.583,0,0,1,4.149.081,3.513,3.513,0,0,1,1.891,2.129,2.685,2.685,0,0,1,.141,1.049l1.075,7.993C1930.6,759.708,1930.761,760.929,1930.852,762.176Z" transform="translate(-1858.834 -704.165)"/><path d="M1906.99,757.8a18.6,18.6,0,0,0,1.806,6.409,16.608,16.608,0,0,0,5.68,6.838c2.008,1.257,5.948,2.234,7.643-.016,1.662-2.207.25-5.708,1.893-7.928a7.611,7.611,0,0,1,1.816-1.562,14.332,14.332,0,0,0,3.847-3.723c2.48-3.806,1.313-10.866-2.907-13.1a14.243,14.243,0,0,0-11.152-.549,12.747,12.747,0,0,0-3.216,1.809c-.054.048-.109.087-.179.144A13.878,13.878,0,0,0,1906.99,757.8Z" transform="translate(-1858.021 -703.316)"/><path class="o" d="M1926.7,768.7a.839.839,0,0,1-.632.117c-.028-.052-.022-.114-.059-.162Z" transform="translate(-1862.431 -709.186)"/><path class="o" d="M1923.32,769.466a4.8,4.8,0,0,0,1.242,2.659,5.151,5.151,0,0,0,1.37,1.284,2.209,2.209,0,0,0,1.811.248c1.851-.655,1.389-3.427.662-4.737a3.362,3.362,0,0,0-2.743-1.792A2.244,2.244,0,0,0,1923.32,769.466Z" transform="translate(-1861.809 -708.833)"/><path class="g" d="M1929.6,805.657c1.287-2.3,2.389-3.958,5.158-3.511a35.951,35.951,0,0,1,5.652,1.665c.178.547.347,1.107.492,1.7,1.28,5.29-1.288,8.261-2.687,12.427v14.376c.017.309.034.619.042.919a1.571,1.571,0,0,1-.042.4c-.507,3.2-6.132,4.731-8.717,5.393l-.532.128V806.512A4.169,4.169,0,0,0,1929.6,805.657Z" transform="translate(-1863.117 -716.92)"/><path class="e" d="M1921.826,746.8l-.427.043Z" transform="translate(-1861.364 -704.129)"/><path class="n" d="M1944.255,834.121a25.234,25.234,0,0,1-.087-2.92c.607-1.271,1.148-2.418,1.142-2.515l19.064-13.233a3.455,3.455,0,0,1,2.5-.914,3.5,3.5,0,0,1,.5.056,3.442,3.442,0,0,1,1.913,1.062,3.478,3.478,0,0,1-.2,4.908l-18.687,16.068-.046.038A3.758,3.758,0,0,1,1944.255,834.121Z" transform="translate(-1866.631 -719.804)"/><path class="n" d="M1975.739,822.345c-2.29,2.128-5.513,2.383-7.2.569s-1.2-5.01,1.094-7.137,5.513-2.383,7.2-.569S1978.028,820.217,1975.739,822.345Z" transform="translate(-1872.042 -719.679)"/><path class="n" d="M1971.343,815.338h0a1.5,1.5,0,0,1,.077-2.113l6.577-6.11a1.493,1.493,0,0,1,2.111.078h0a1.494,1.494,0,0,1-.077,2.112l-6.575,6.11A1.5,1.5,0,0,1,1971.343,815.338Z" transform="translate(-1872.83 -717.994)"/><path class="b" d="M1943.949,833.988l-.069.026a4.932,4.932,0,0,1-6.356-3.543l-6.163-24.659a5.152,5.152,0,0,1,10-2.5l2.431,9.722,2.4,9.576h0C1947.244,827.194,1949.426,831.948,1943.949,833.988Z" transform="translate(-1863.635 -716.304)"/><path d="M1917.636,759.522c-.054-.466-.1-.933-.128-1.4-.251-4,.494-8.244-2.99-11.231-2.424-2.077-5.928-2.2-9.115-2.009-3.485.2-7.084.686-10.044,2.535-5.558,3.471-5.532,12.239-3.876,17.875a44.5,44.5,0,0,1,1.489,6.947c-.041,3.611-2.128,5.442-6.244,6.135a9.147,9.147,0,0,0-6.948,5.411,12.8,12.8,0,0,0-1.08,4.624c-.242,4.973-.717,6.354-6.5,8.12a12.932,12.932,0,0,0-8.091,7.232c-4.061,8.879.121,21.712,9.343,28.663s19.988,5.388,24.05-3.492a20,20,0,0,0,.982-12.59c-1.617-7.324-.916-8.544,2.323-11.222a.292.292,0,0,0,.027-.025,9.6,9.6,0,0,0,2.621-3.462,14.772,14.772,0,0,0,.3-10.422c-1.539-4.955-1.31-8.188,1.127-9.992a23.409,23.409,0,0,1,5.448-1.719,9.959,9.959,0,0,0,7.336-5.85C1919.831,768.916,1918.2,764.3,1917.636,759.522Z" transform="translate(-1847.749 -703.67)"/><path class="s" d="M1873.809,955.385a6.252,6.252,0,0,1,2.828-4.9c1.563-.9,2.828-.171,2.83,1.633a6.25,6.25,0,0,1-2.83,4.9C1875.076,957.92,1873.809,957.189,1873.809,955.385Z" transform="translate(-1850.352 -751.175)"/><path class="s" d="M1873.809,955.385a6.252,6.252,0,0,1,2.828-4.9c1.563-.9,2.828-.171,2.83,1.633a6.25,6.25,0,0,1-2.83,4.9C1875.076,957.92,1873.809,957.189,1873.809,955.385Z" transform="translate(-1850.352 -751.175)"/><path class="s" d="M1878.914,950.414l2.438,1.27-3.826,6.974-2.854-1.485.724-3.928Z" transform="translate(-1850.552 -751.248)"/><path class="c" d="M1876.937,957.007a6.251,6.251,0,0,1,2.828-4.9c1.562-.9,2.828-.171,2.828,1.633a6.253,6.253,0,0,1-2.828,4.9C1878.2,959.542,1876.937,958.812,1876.937,957.007Z" transform="translate(-1851.076 -751.55)"/><path class="d" d="M1876.937,957.007a6.251,6.251,0,0,1,2.828-4.9c1.562-.9,2.828-.171,2.828,1.633a6.253,6.253,0,0,1-2.828,4.9C1878.2,959.542,1876.937,958.812,1876.937,957.007Z" transform="translate(-1851.076 -751.55)"/><path class="s" d="M1918.062,930.651a6.255,6.255,0,0,1,2.828-4.9c1.562-.9,2.829-.171,2.829,1.633a6.25,6.25,0,0,1-2.829,4.9C1919.329,933.186,1918.062,932.455,1918.062,930.651Z" transform="translate(-1860.593 -745.451)"/><path class="s" d="M1918.062,930.651a6.255,6.255,0,0,1,2.828-4.9c1.562-.9,2.829-.171,2.829,1.633a6.25,6.25,0,0,1-2.829,4.9C1919.329,933.186,1918.062,932.455,1918.062,930.651Z" transform="translate(-1860.593 -745.451)"/><path class="s" d="M1923.167,925.68l2.438,1.27-3.827,6.974-2.854-1.485.724-3.928Z" transform="translate(-1860.792 -745.524)"/><path class="c" d="M1921.19,932.273a6.25,6.25,0,0,1,2.828-4.9c1.562-.9,2.829-.171,2.829,1.633a6.254,6.254,0,0,1-2.829,4.9C1922.456,934.808,1921.19,934.077,1921.19,932.273Z" transform="translate(-1861.317 -745.827)"/><path class="d" d="M1921.19,932.273a6.25,6.25,0,0,1,2.828-4.9c1.562-.9,2.829-.171,2.829,1.633a6.254,6.254,0,0,1-2.829,4.9C1922.456,934.808,1921.19,934.077,1921.19,932.273Z" transform="translate(-1861.317 -745.827)"/><path class="s" d="M1915.986,956.477a6.249,6.249,0,0,1,2.828-4.9c1.562-.9,2.828-.171,2.828,1.632a6.252,6.252,0,0,1-2.828,4.9C1917.252,959.012,1915.986,958.28,1915.986,956.477Z" transform="translate(-1860.112 -751.428)"/><path class="s" d="M1915.986,956.477a6.249,6.249,0,0,1,2.828-4.9c1.562-.9,2.828-.171,2.828,1.632a6.252,6.252,0,0,1-2.828,4.9C1917.252,959.012,1915.986,958.28,1915.986,956.477Z" transform="translate(-1860.112 -751.428)"/><path class="s" d="M1921.09,951.506l2.437,1.27-3.826,6.974-2.854-1.485.724-3.928Z" transform="translate(-1860.312 -751.5)"/><path class="c" d="M1919.113,958.1a6.252,6.252,0,0,1,2.829-4.9c1.562-.9,2.828-.171,2.828,1.633a6.251,6.251,0,0,1-2.828,4.9C1920.38,960.635,1919.113,959.9,1919.113,958.1Z" transform="translate(-1860.836 -751.803)"/><path class="d" d="M1919.113,958.1a6.252,6.252,0,0,1,2.829-4.9c1.562-.9,2.828-.171,2.828,1.633a6.251,6.251,0,0,1-2.828,4.9C1920.38,960.635,1919.113,959.9,1919.113,958.1Z" transform="translate(-1860.836 -751.803)"/><path class="s" d="M1873.025,931.569a6.254,6.254,0,0,1,2.828-4.9c1.562-.9,2.829-.171,2.829,1.633a6.25,6.25,0,0,1-2.829,4.9C1874.292,934.1,1873.025,933.373,1873.025,931.569Z" transform="translate(-1850.17 -745.664)"/><path class="s" d="M1873.025,931.569a6.254,6.254,0,0,1,2.828-4.9c1.562-.9,2.829-.171,2.829,1.633a6.25,6.25,0,0,1-2.829,4.9C1874.292,934.1,1873.025,933.373,1873.025,931.569Z" transform="translate(-1850.17 -745.664)"/><path class="s" d="M1878.129,926.6l2.438,1.27-3.827,6.974-2.854-1.485.723-3.928Z" transform="translate(-1850.37 -745.736)"/><path class="c" d="M1876.153,933.192a6.25,6.25,0,0,1,2.828-4.9c1.562-.9,2.828-.171,2.828,1.633a6.252,6.252,0,0,1-2.828,4.9C1877.419,935.727,1876.153,935,1876.153,933.192Z" transform="translate(-1850.894 -746.039)"/><path class="d" d="M1876.153,933.192a6.25,6.25,0,0,1,2.828-4.9c1.562-.9,2.828-.171,2.828,1.633a6.252,6.252,0,0,1-2.828,4.9C1877.419,935.727,1876.153,935,1876.153,933.192Z" transform="translate(-1850.894 -746.039)"/><path class="l" d="M1913.7,941.974l-12.516-7.226,12.516-7.226c2.054-1.186,2.054-3.127,0-4.313h0a8.289,8.289,0,0,0-7.471,0l-12.516,7.226-12.516-7.226a8.288,8.288,0,0,0-7.471,0c-2.054,1.187-2.054,3.127,0,4.313l12.516,7.226-12.516,7.226c-2.054,1.186-2.054,3.128,0,4.314h0a8.289,8.289,0,0,0,7.471,0l12.516-7.226,12.516,7.226a8.289,8.289,0,0,0,7.471,0C1915.756,945.1,1915.756,943.16,1913.7,941.974Z" transform="translate(-1849.977 -744.746)"/><path class="l" d="M1913.7,941.974l-12.516-7.226,12.516-7.226c2.054-1.186,2.054-3.127,0-4.313h0a8.289,8.289,0,0,0-7.471,0l-12.516,7.226-12.516-7.226a8.288,8.288,0,0,0-7.471,0c-2.054,1.187-2.054,3.127,0,4.313l12.516,7.226-12.516,7.226c-2.054,1.186-2.054,3.128,0,4.314h0a8.289,8.289,0,0,0,7.471,0l12.516-7.226,12.516,7.226a8.289,8.289,0,0,0,7.471,0C1915.756,945.1,1915.756,943.16,1913.7,941.974Z" transform="translate(-1849.977 -744.746)"/><path class="c" d="M1892,936.342c0,2.338,2.821,4.233,6.3,4.233s6.3-1.9,6.3-4.233-2.823-6.213-6.3-6.213S1892,934,1892,936.342Z" transform="translate(-1854.561 -746.553)"/><path class="l" d="M1894.18,933.235c0,1.716,2.07,3.107,4.625,3.107s4.624-1.391,4.624-3.107-2.07-3.106-4.624-3.106S1894.18,931.52,1894.18,933.235Z" transform="translate(-1855.066 -746.553)"/><path class="c" d="M1899.346,890.8a2.848,2.848,0,0,0-2.829,2.868v27.6a2.829,2.829,0,1,0,5.657,0v-27.6A2.848,2.848,0,0,0,1899.346,890.8Z" transform="translate(-1855.607 -737.452)"/><path class="t" d="M1944.507,874.5c0,.154,0,.318-.016.481a14.069,14.069,0,0,1-7.257,11.269l-30.855,16.919a8.175,8.175,0,0,1-1.459.628,8.424,8.424,0,0,1-6.891-.75l-35.341-20.826a19.289,19.289,0,0,1-9.411-14.825l-3.7-39.613-.384-4.118a4.4,4.4,0,0,1,6.328-4.354l38.252,18.926A4.4,4.4,0,0,1,1896,840.8l12.232,37.118a5.107,5.107,0,0,0,7.38,2.838l19.961-11.416A5.973,5.973,0,0,1,1944.507,874.5Z" transform="translate(-1844.651 -720.802)"/><path class="s" d="M1903.987,903.9a2.452,2.452,0,0,1-2.646,3.293,8.412,8.412,0,0,1-3.106-1.084l-35.341-20.826a19.286,19.286,0,0,1-9.41-14.825l-3.408-36.472a1.761,1.761,0,0,1,2.534-1.742l30.866,15.261a4.418,4.418,0,0,1,2.226,2.569l12.223,37.118C1898.347,888.48,1900.931,895.878,1903.987,903.9Z" transform="translate(-1844.859 -723.858)"/></g><g transform="translate(8424.801 -1514.349)"><path class="u" d="M2325.625,372.073,2116.092,250.319c-3.859-2.466-7.188-.784-7.435,3.755l-1.032,18.991-7.837,144.276a15.624,15.624,0,0,0,6.542,12.685L2315.862,551.78c3.86,2.466,7.188.785,7.435-3.754l7.838-144.276,1.031-18.992A15.626,15.626,0,0,0,2325.625,372.073Z" transform="translate(-2090.942 -249.183)"/><path class="p" d="M2318.765,418.237l-7.842,144.273c-.246,4.544-3.576,6.22-7.435,3.759l-118.5-68.86-91.028-52.9a15.613,15.613,0,0,1-6.543-12.679l7.835-144.28,98.277,57.458Z" transform="translate(-2087.402 -260.165)"/><path class="g" d="M2322.942,389.67l-1.022,18.891-.008.1-125.235-73.228L2098.4,277.975l.092-1.676.938-17.315c.246-4.536,3.576-6.22,7.435-3.752L2316.4,376.984A15.625,15.625,0,0,1,2322.942,389.67Z" transform="translate(-2090.549 -250.589)"/><path class="v" d="M2392.843,440.9a6.831,6.831,0,0,0,2.973,5.488c1.71,1.044,3.15.279,3.217-1.708a6.832,6.832,0,0,0-2.974-5.487C2394.35,438.15,2392.909,438.915,2392.843,440.9Z" transform="translate(-2174.826 -303.435)"/><path class="w" d="M2377.11,431.3a6.831,6.831,0,0,0,2.974,5.487c1.71,1.044,3.15.279,3.216-1.708a6.828,6.828,0,0,0-2.973-5.487C2378.617,428.547,2377.176,429.312,2377.11,431.3Z" transform="translate(-2170.322 -300.686)"/><g transform="translate(12.381 61.153)"><g transform="translate(0 0)"><path class="g" d="M1044.747,374.323l.04-1.805-116-67.41L926.4,411.786l116,67.41Z" transform="translate(-926.4 -305.107)"/><g class="x" transform="translate(7.916 14.031)"><path class="y" d="M1030.053,451.386l-97.9-56.891,1.772-79.188,97.9,56.891Z" transform="translate(-932.154 -315.307)"/><line class="y" x1="1.772" y2="79.188" transform="translate(31.804 18.482)"/><line class="y" x1="1.772" y2="79.188" transform="translate(64.852 37.687)"/><line class="z" x2="97.899" y2="56.891" transform="translate(1.469 13.541)"/><line class="z" x2="97.899" y2="56.891" transform="translate(1.174 26.739)"/><line class="z" x2="97.899" y2="56.891" transform="translate(0.878 39.937)"/><line class="z" x1="97.899" y1="56.891" transform="translate(0.583 53.135)"/><line class="z" x1="97.899" y1="56.891" transform="translate(0.288 66.333)"/></g><path class="aa" d="M953.372,391.5l-3.982-2.315a2.247,2.247,0,0,1-.93-1.842h0c.016-.71.458-1.036.986-.729l3.984,2.315a2.244,2.244,0,0,1,.928,1.842h0C954.344,391.478,953.9,391.806,953.372,391.5Z" transform="translate(-918.114 -274.537)"/><path class="aa" d="M977.285,405.6l-3.984-2.315a2.246,2.246,0,0,1-.928-1.842h0c.017-.71.458-1.036.986-.729l3.984,2.315a2.246,2.246,0,0,1,.928,1.842h0C978.257,405.584,977.815,405.91,977.285,405.6Z" transform="translate(-909.132 -269.239)"/><path class="aa" d="M1001.47,420.225l-3.982-2.314a2.25,2.25,0,0,1-.93-1.843h0c.017-.71.458-1.036.988-.728l3.982,2.314a2.249,2.249,0,0,1,.93,1.843h0C1002.442,420.208,1002,420.534,1001.47,420.225Z" transform="translate(-900.048 -263.747)"/><path class="p" d="M1030.879,397.613c-12.929-6.08-15.885,13.841-22.069,10.907s-4.953-24.532-11.687-28.446-5.768,18.483-12.206,15.248-2.242-28.974-13.145-34.379c-13.528-6.706-4.175,27.571-16.471,22.623-9.931-3.995-1.153-14.64-10.91-20.751-5.016-3.141-12.067,7.244-12.067,7.244l-.171,7.622,97.9,56.891Z" transform="translate(-924.238 -284.463)"/></g><g transform="translate(128.573 77.05)"><g transform="translate(4.243)"><path class="g" d="M397.276,142.008l21.176,12.226v-1.378l-21.176-12.226Z" transform="translate(-384.767 -133.407)"/><path class="g" d="M380.8,131.115l-10.347-5.974v1.379l10.347,5.973Z" transform="translate(-370.451 -125.142)"/><path class="g" d="M447.324,169.524V170.9l13.362,7.714v-1.378Z" transform="translate(-411.477 -148.828)"/></g><g transform="translate(0.002 2.563)"><path class="g" d="M384.778,144.161l-23.422-13.523v1.379l23.422,13.523Z" transform="translate(-361.356 -130.639)"/><path class="g" d="M416.221,162.315v1.379l27.866,16.088V178.4Z" transform="translate(-390.637 -147.544)"/></g><g transform="translate(0.002 7.575)"><path class="g" d="M370.7,146.78l-9.342-5.394v1.379l9.342,5.394Z" transform="translate(-361.356 -141.386)"/><path class="g" d="M386.025,155.63v1.379l13,7.505v-1.378Z" transform="translate(-374.521 -148.988)"/></g><g transform="translate(4.242 25.677)"><path class="g" d="M462.837,233.543v1.378l6.129,3.538V237.08Z" transform="translate(-419.755 -208.67)"/><path class="g" d="M423.3,212.1l16.273,9.395v-1.378L423.3,210.718Z" transform="translate(-398.656 -196.489)"/><path class="g" d="M392.933,193.185,370.449,180.2v1.378l22.484,12.981Z" transform="translate(-370.449 -180.204)"/></g><g transform="translate(0.001 28.24)"><path class="g" d="M381.389,198.646,396.55,207.4V206.02l-15.162-8.753Z" transform="translate(-372.046 -191.874)"/><path class="g" d="M431.34,226.107l-12.8-7.391v1.378l12.8,7.391Z" transform="translate(-391.873 -203.32)"/><path class="g" d="M450.627,237.242v1.378l11.822,6.825v-1.378Z" transform="translate(-408.997 -213.207)"/><path class="g" d="M368.534,189.846l-7.18-4.146v1.378l7.181,4.146Z" transform="translate(-361.354 -185.701)"/></g><g transform="translate(0.001 33.252)"><path class="g" d="M364.514,198.274l-3.16-1.825v1.378l3.159,1.825Z" transform="translate(-361.354 -196.449)"/><path class="g" d="M372.768,203.039v1.378l19.182,11.075v-1.379Z" transform="translate(-367.445 -199.966)"/></g><g transform="translate(4.242 51.352)"><path class="g" d="M392.933,248.246l-22.485-12.981v1.379l22.485,12.981Z" transform="translate(-370.448 -235.265)"/><path class="g" d="M423.3,267.158l9.04,5.219V271l-9.04-5.219Z" transform="translate(-398.655 -251.55)"/><path class="g" d="M447.322,279.647v1.379l13.363,7.714v-1.378Z" transform="translate(-411.475 -258.951)"/></g><g transform="translate(0.001 53.916)"><path class="g" d="M382.615,253.037l-21.261-12.275v1.379l21.261,12.275Z" transform="translate(-361.354 -240.763)"/><path class="g" d="M411.583,271.141l10.5,6.065v-1.378l-10.5-6.065Z" transform="translate(-388.16 -256.239)"/><path class="g" d="M438.746,285.444v1.379l17.362,10.023v-1.378Z" transform="translate(-402.657 -264.609)"/></g><g transform="translate(0.001 58.928)"><path class="g" d="M404.731,276.556v1.378l4.276,2.469v-1.379Z" transform="translate(-384.504 -264.877)"/><path class="g" d="M379.42,261.942l-18.066-10.43v1.378l18.066,10.43Z" transform="translate(-361.354 -251.511)"/></g><g transform="translate(4.242 78.129)"><path class="g" d="M404.134,312.135l-33.686-19.448v1.379l33.686,19.447Z" transform="translate(-370.448 -292.688)"/><path class="g" d="M447.321,337.07v1.379l13.363,7.714v-1.378Z" transform="translate(-411.474 -316.374)"/></g><g transform="translate(0 80.694)"><path class="g" d="M448.376,348.429l-8.581-4.954v1.378l8.581,4.956Z" transform="translate(-403.216 -322.356)"/><path class="g" d="M394.956,318.965,413.7,329.789V328.41l-18.747-10.823Z" transform="translate(-379.286 -308.54)"/><path class="g" d="M462.835,356.776v1.378l6.128,3.538v-1.378Z" transform="translate(-415.512 -329.455)"/><path class="g" d="M374.86,305.985l-13.507-7.8v1.378l13.508,7.8Z" transform="translate(-361.352 -298.187)"/></g><g transform="translate(0 85.705)"><path class="g" d="M370.695,314.328l-9.342-5.394v1.378l9.342,5.394Z" transform="translate(-361.352 -308.935)"/><path class="g" d="M386.023,323.177v1.378l13,7.505v-1.378Z" transform="translate(-374.518 -316.536)"/></g><path class="g" d="M385.856,383.328l-24.5-14.147V367.8l24.5,14.147Z" transform="translate(-361.352 -254.646)"/><g transform="translate(4.241 105.581)"><path class="g" d="M388.548,362.008l-18.1-10.45v1.379l18.1,10.45Z" transform="translate(-370.447 -351.558)"/><path class="g" d="M413.9,378.023l22.459,12.966V389.61L413.9,376.644Z" transform="translate(-393.637 -364.946)"/><path class="g" d="M466.7,407.127V408.5l4.327,2.5v-1.378Z" transform="translate(-421.815 -381.214)"/></g><g transform="translate(0 108.145)"><path class="g" d="M381.386,370l14.081,8.129v-1.378l-14.081-8.128Z" transform="translate(-372.044 -363.229)"/><path class="g" d="M429.211,396.231l-12.994-7.5v1.379l12.994,7.5Z" transform="translate(-390.633 -373.96)"/><path class="g" d="M368.532,361.2l-7.18-4.145v1.378l7.18,4.146Z" transform="translate(-361.352 -357.056)"/><path class="g" d="M448.718,407.494v1.378l12.711,7.339v-1.379Z" transform="translate(-407.978 -383.974)"/></g><g transform="translate(59.329 31.788)"><path class="g" d="M491.822,193.311v12.781l11.069,6.391V199.7Zm10.194,17.656-9.319-5.38v-10.76l9.319,5.38Z" transform="translate(-490.311 -193.311)"/><path class="g" d="M503.689,204.328l-1.3-2.252-8.138,4.7-4.36-7.552-1.309.756,4.36,7.552h0l1.3,2.253,1.309-.755h0Z" transform="translate(-488.582 -196.465)"/></g><g transform="translate(59.329 57.52)"><path class="g" d="M491.821,248.491v12.781l11.069,6.39V254.881Zm10.194,17.655-9.319-5.38v-10.76l9.319,5.38Z" transform="translate(-490.31 -248.491)"/><path class="g" d="M503.688,259.507l-1.3-2.252-8.138,4.7-4.36-7.552-1.309.756,4.361,7.552h0l1.3,2.253,1.309-.756h0Z" transform="translate(-488.58 -251.645)"/></g><g transform="translate(59.328 83.251)"><path class="g" d="M491.82,303.67v12.781l11.069,6.39v-12.78Zm10.194,17.656-9.319-5.379v-10.76l9.319,5.38Z" transform="translate(-490.309 -303.67)"/><path class="g" d="M503.687,314.687l-1.3-2.252-8.139,4.7-4.359-7.552-1.31.756,4.361,7.552h0l1.3,2.252,1.309-.756h0Z" transform="translate(-488.579 -306.824)"/></g><g transform="translate(59.328 109.973)"><path class="g" d="M491.819,360.976v12.781l11.069,6.39V367.366Zm10.194,17.656-9.319-5.38V362.492l9.318,5.379Z" transform="translate(-490.308 -360.976)"/><path class="g" d="M503.686,371.992l-1.3-2.251-8.138,4.7-4.36-7.552-1.309.756,4.36,7.551h0l1.3,2.253,1.309-.756h0Z" transform="translate(-488.579 -364.13)"/></g><g transform="translate(59.328 137.424)"><path class="g" d="M491.819,419.844v12.781l11.069,6.39V426.234ZM502.013,437.5l-9.319-5.379V421.36l9.319,5.38Z" transform="translate(-490.308 -419.844)"/><path class="g" d="M503.686,430.861l-1.3-2.252-8.139,4.7-4.36-7.552-1.309.755,4.36,7.552h0l1.3,2.252,1.308-.755h0Z" transform="translate(-488.578 -422.999)"/></g></g></g></g></g></svg>