<svg xmlns="http://www.w3.org/2000/svg" width="537.675" height="453.399" viewBox="0 0 537.675 453.399">
  <g id="Group_24230" data-name="Group 24230" transform="translate(-404 -8490)">
    <g id="Group_23842" data-name="Group 23842" transform="translate(-281 894.349)">
      <circle id="Ellipse_154" data-name="Ellipse 154" cx="130" cy="130" r="130" transform="translate(685 7615)" fill="#525252"/>
      <g id="Group_22376" data-name="Group 22376" transform="translate(749.76 7695.667)">
        <path id="Path_78" data-name="Path 78" d="M306.845,238.162a1.7,1.7,0,0,1-1.618-1.322,5.132,5.132,0,0,0-4.958-3.808H253.3v-82.1h53.286a5.131,5.131,0,0,1,5.13,5.132v82.1Z" transform="translate(-245.405 -141.983)" fill="none" stroke="#fff" stroke-linecap="round" stroke-linejoin="round" stroke-width="2"/>
        <path id="Path_79" data-name="Path 79" d="M300.707,237.331H249v-82.1" transform="translate(-249 -138.387)" fill="none" stroke="#fff" stroke-linecap="round" stroke-linejoin="round" stroke-width="2"/>
        <path id="Path_80" data-name="Path 80" d="M291.563,150.932h-1.318a5.131,5.131,0,0,0-5.132,5.132v82.1h4.872a1.7,1.7,0,0,0,1.616-1.322,5.135,5.135,0,0,1,4.96-3.808H343.53V215.4" transform="translate(-218.802 -141.983)" fill="none" stroke="#fff" stroke-linecap="round" stroke-linejoin="round" stroke-width="2"/>
        <path id="Path_81" data-name="Path 81" d="M318.129,170.667V150.932h-2.642" transform="translate(-193.401 -141.982)" fill="none" stroke="#fff" stroke-linecap="round" stroke-linejoin="round" stroke-width="2"/>
        <line id="Line_167" data-name="Line 167" y1="5.526" transform="translate(132.622 16.844)" fill="none" stroke="#fff" stroke-linecap="round" stroke-linejoin="round" stroke-width="2"/>
        <path id="Path_82" data-name="Path 82" d="M293.066,215.041h51.707V181.886" transform="translate(-212.15 -116.098)" fill="none" stroke="#fff" stroke-linecap="round" stroke-linejoin="round" stroke-width="2"/>
        <line id="Line_168" data-name="Line 168" x2="9.473" transform="translate(61.575 27.896)" fill="none" stroke="#fff" stroke-linecap="round" stroke-linejoin="round" stroke-width="2"/>
        <line id="Line_169" data-name="Line 169" x2="9.473" transform="translate(61.575 35.79)" fill="none" stroke="#fff" stroke-linecap="round" stroke-linejoin="round" stroke-width="2"/>
        <line id="Line_170" data-name="Line 170" x2="9.473" transform="translate(61.575 43.684)" fill="none" stroke="#fff" stroke-linecap="round" stroke-linejoin="round" stroke-width="2"/>
        <line id="Line_171" data-name="Line 171" x2="9.473" transform="translate(61.575 51.578)" fill="none" stroke="#fff" stroke-linecap="round" stroke-linejoin="round" stroke-width="2"/>
        <line id="Line_172" data-name="Line 172" x2="9.473" transform="translate(61.575 59.472)" fill="none" stroke="#fff" stroke-linecap="round" stroke-linejoin="round" stroke-width="2"/>
        <line id="Line_173" data-name="Line 173" x2="9.473" transform="translate(61.575 67.367)" fill="none" stroke="#fff" stroke-linecap="round" stroke-linejoin="round" stroke-width="2"/>
        <line id="Line_174" data-name="Line 174" x2="9.473" transform="translate(61.575 75.261)" fill="none" stroke="#fff" stroke-linecap="round" stroke-linejoin="round" stroke-width="2"/>
        <line id="Line_175" data-name="Line 175" x2="9.473" transform="translate(61.575 83.155)" fill="none" stroke="#fff" stroke-linecap="round" stroke-linejoin="round" stroke-width="2"/>
        <line id="Line_176" data-name="Line 176" x2="9.473" transform="translate(61.575 20.002)" fill="none" stroke="#fff" stroke-linecap="round" stroke-linejoin="round" stroke-width="2"/>
        <path id="Path_83" data-name="Path 83" d="M314.011,213.418l37.43-37.43a6.256,6.256,0,0,0,0-8.843l-3.634-3.634a6.253,6.253,0,0,0-8.843,0l-37.43,37.43-1.559,14.42Z" transform="translate(-206.373 -132.995)" fill="none" stroke="#fff" stroke-linecap="round" stroke-linejoin="round" stroke-width="2"/>
        <line id="Line_177" data-name="Line 177" x2="12.476" y2="12.477" transform="translate(99.127 63.98)" fill="none" stroke="#fff" stroke-linecap="round" stroke-linejoin="round" stroke-width="2"/>
        <line id="Line_178" data-name="Line 178" x2="12.476" y2="12.476" transform="translate(127.968 35.139)" fill="none" stroke="#fff" stroke-linecap="round" stroke-linejoin="round" stroke-width="2"/>
        <line id="Line_179" data-name="Line 179" x2="31.508" transform="translate(19.342 23.674)" fill="none" stroke="#fff" stroke-linecap="round" stroke-linejoin="round" stroke-width="2"/>
        <line id="Line_180" data-name="Line 180" x2="31.508" transform="translate(19.342 32.855)" fill="none" stroke="#fff" stroke-linecap="round" stroke-linejoin="round" stroke-width="2"/>
        <line id="Line_181" data-name="Line 181" x2="31.508" transform="translate(19.342 42.037)" fill="none" stroke="#fff" stroke-linecap="round" stroke-linejoin="round" stroke-width="2"/>
        <line id="Line_182" data-name="Line 182" x2="31.508" transform="translate(19.342 51.218)" fill="none" stroke="#fff" stroke-linecap="round" stroke-linejoin="round" stroke-width="2"/>
        <line id="Line_183" data-name="Line 183" x2="31.508" transform="translate(19.342 60.399)" fill="none" stroke="#fff" stroke-linecap="round" stroke-linejoin="round" stroke-width="2"/>
        <line id="Line_184" data-name="Line 184" x2="18.654" transform="translate(19.342 69.58)" fill="none" stroke="#fff" stroke-linecap="round" stroke-linejoin="round" stroke-width="2"/>
        <path id="Path_84" data-name="Path 84" d="M327.779,159.22l-1.858-4.486a.823.823,0,0,0-1.017-.468l-4.179,1.366a.833.833,0,0,1-.889-.255,12.886,12.886,0,0,0-1.311-1.318.832.832,0,0,1-.255-.887L319.633,149a.823.823,0,0,0-.468-1.017l-4.486-1.858a.824.824,0,0,0-1.048.389l-1.987,3.917a.831.831,0,0,1-.808.446,13.108,13.108,0,0,0-1.86.006.836.836,0,0,1-.81-.446l-1.989-3.922a.826.826,0,0,0-1.05-.389l-4.486,1.858a.824.824,0,0,0-.466,1.017l1.366,4.179a.834.834,0,0,1-.257.889,13.045,13.045,0,0,0-1.317,1.311.834.834,0,0,1-.889.255l-4.176-1.364a.822.822,0,0,0-1.016.468l-1.858,4.486a.822.822,0,0,0,.387,1.049l3.919,1.987a.831.831,0,0,1,.446.808,13.386,13.386,0,0,0,0,1.86.83.83,0,0,1-.446.81l-3.922,1.989a.823.823,0,0,0-.387,1.05l1.858,4.486a.823.823,0,0,0,1.016.466l4.181-1.366a.832.832,0,0,1,.887.257,13.276,13.276,0,0,0,1.313,1.318.833.833,0,0,1,.255.887L300.174,179a.823.823,0,0,0,.466,1.015l4.486,1.858a.823.823,0,0,0,1.05-.387l1.987-3.919a.831.831,0,0,1,.808-.446,13.385,13.385,0,0,0,1.86,0,.83.83,0,0,1,.81.446l1.989,3.922a.822.822,0,0,0,1.048.387l4.486-1.858a.822.822,0,0,0,.468-1.015l-1.366-4.181a.834.834,0,0,1,.255-.887,12.91,12.91,0,0,0,1.318-1.313.835.835,0,0,1,.887-.255l4.176,1.364a.824.824,0,0,0,1.017-.466l1.858-4.486a.826.826,0,0,0-.389-1.05l-3.917-1.987a.831.831,0,0,1-.446-.808,13.111,13.111,0,0,0-.006-1.86.836.836,0,0,1,.446-.81l3.922-1.989A.824.824,0,0,0,327.779,159.22Z" transform="translate(-213.071 -146.058)" fill="none" stroke="#fff" stroke-linecap="round" stroke-linejoin="round" stroke-width="2"/>
        <path id="Path_85" data-name="Path 85" d="M309.985,156.262a5.981,5.981,0,1,1-7.815-3.237A5.982,5.982,0,0,1,309.985,156.262Z" transform="translate(-207.626 -140.614)" fill="none" stroke="#fff" stroke-linecap="round" stroke-linejoin="round" stroke-width="2"/>
      </g>
    </g>
    <g id="Person" transform="translate(564.33 8669.567)">
      <path id="Path_4029" data-name="Path 4029" d="M2039.157,945.507a4.862,4.862,0,0,1-4.4,0,1.342,1.342,0,0,1,0-2.542,4.862,4.862,0,0,1,4.4,0A1.342,1.342,0,0,1,2039.157,945.507Z" transform="translate(-1865.109 -720.039)" fill="#8dc0ef"/>
      <path id="Path_4028" data-name="Path 4028" d="M2111.816,803.375c-4.857-5.626-10.326,2.358-12.908,5.668-1.755,2.25-7.859,8.221-7.191,11.355.234,1.1.368,1.047,1.453,1.339a6.8,6.8,0,0,0,3.332-.124,18.983,18.983,0,0,0,12.869-9.576c.106,1.377.132,2.756.115,4.136a.4.4,0,0,0,.614.323q.8-.523,1.575-1.09c1.922-1.42,1.074-3.432,1.594-5.719A7.174,7.174,0,0,0,2111.816,803.375Z" transform="translate(-1871.73 -703.892)" fill="#1f3598"/>
      <path id="Path_3623" data-name="Path 3623" d="M1918.482,928.477c-12.36-7.135-32.4-7.135-44.755,0s-12.359,18.7,0,25.84,32.4,7.135,44.755,0S1930.84,935.612,1918.482,928.477Z" transform="translate(-1845.713 -717.828)" fill="#647ddd" opacity="0.17"/>
      <path id="Path_3624" data-name="Path 3624" d="M2116.973,861.83l-164.572-93.6-101.783,61.109a1.83,1.83,0,0,0,.043,3.164l159.985,90.2a10.7,10.7,0,0,0,10.835-.1l95.528-57.326A2,2,0,0,0,2116.973,861.83Z" transform="translate(-1844.027 -700.092)" fill="#647ddd" opacity="0.17"/>
      <path id="Path_4030" data-name="Path 4030" d="M2040.069,878.439v57.87a.643.643,0,0,1-.047.226.511.511,0,0,1-.451.273h-5.233a.513.513,0,0,1-.451-.273.643.643,0,0,1-.047-.226v-57.87a.5.5,0,0,1,.5-.5h5.233A.5.5,0,0,1,2040.069,878.439Z" transform="translate(-1865.108 -712.654)" fill="#8dc0ef"/>
      <path id="Path_4031" data-name="Path 4031" d="M2040.069,888.351a.441.441,0,0,1-.056.216,1.011,1.011,0,0,1,.056.328,1.531,1.531,0,0,1-.911,1.268,4.854,4.854,0,0,1-4.406,0,1.531,1.531,0,0,1-.911-1.268.993.993,0,0,1,.056-.328.434.434,0,0,1-.056-.216v-9.911a.5.5,0,0,1,.5-.5h5.233a.5.5,0,0,1,.5.5Z" transform="translate(-1865.108 -712.654)" fill="#8dc0ef"/>
      <path id="Path_4032" data-name="Path 4032" d="M1851.972,841.677a4.864,4.864,0,0,1-4.4,0,1.342,1.342,0,0,1,0-2.542,4.865,4.865,0,0,1,4.4,0A1.342,1.342,0,0,1,1851.972,841.677Z" transform="translate(-1843.676 -708.151)" fill="#8dc0ef"/>
      <path id="Path_4033" data-name="Path 4033" d="M1852.884,774.61V832.48a.643.643,0,0,1-.047.225.508.508,0,0,1-.45.273h-5.233a.512.512,0,0,1-.451-.273.659.659,0,0,1-.047-.225V774.61a.5.5,0,0,1,.5-.5h5.233A.5.5,0,0,1,1852.884,774.61Z" transform="translate(-1843.676 -700.765)" fill="#8dc0ef"/>
      <path id="Path_4034" data-name="Path 4034" d="M1852.884,784.521a.443.443,0,0,1-.056.216,1.018,1.018,0,0,1,.056.328,1.531,1.531,0,0,1-.911,1.268,4.855,4.855,0,0,1-4.406,0,1.532,1.532,0,0,1-.911-1.268,1,1,0,0,1,.057-.328.438.438,0,0,1-.057-.216V774.61a.5.5,0,0,1,.5-.5h5.233a.5.5,0,0,1,.5.5Z" transform="translate(-1843.676 -700.765)" fill="#8dc0ef"/>
      <path id="Path_4035" data-name="Path 4035" d="M2152.852,879.03a4.864,4.864,0,0,1-4.4,0,1.342,1.342,0,0,1,0-2.542,4.871,4.871,0,0,1,4.4,0A1.341,1.341,0,0,1,2152.852,879.03Z" transform="translate(-1878.126 -712.428)" fill="#8dc0ef"/>
      <path id="Path_4036" data-name="Path 4036" d="M2153.765,811.963v57.871a.651.651,0,0,1-.047.226.512.512,0,0,1-.451.272h-5.232a.508.508,0,0,1-.45-.272.635.635,0,0,1-.048-.226V811.963a.5.5,0,0,1,.5-.5h5.232A.5.5,0,0,1,2153.765,811.963Z" transform="translate(-1878.126 -705.042)" fill="#8dc0ef"/>
      <path id="Path_4037" data-name="Path 4037" d="M2153.765,826.786a.442.442,0,0,1-.056.216,1.026,1.026,0,0,1,.056.328,1.533,1.533,0,0,1-.91,1.268,4.859,4.859,0,0,1-4.407,0,1.531,1.531,0,0,1-.912-1.268,1.019,1.019,0,0,1,.056-.328.44.44,0,0,1-.056-.216v-9.911a.5.5,0,0,1,.5-.5h5.232a.5.5,0,0,1,.5.5Z" transform="translate(-1878.126 -705.605)" fill="#8dc0ef"/>
      <path id="Path_4038" data-name="Path 4038" d="M1843.691,761.734l-.011,12.413,18.482,6.824-.943-6.763Z" transform="translate(-1843.334 -699.348)" fill="#d5e8fa"/>
      <path id="Path_4039" data-name="Path 4039" d="M2159.343,813.494V802.411l-20.485,13.17,1.369,3.646Z" transform="translate(-1877.133 -704.006)" fill="#d5e8fa"/>
      <path id="Path_4040" data-name="Path 4040" d="M1846.128,762.128l95.966-56.1a21.741,21.741,0,0,1,21.755-.109L2122.268,796.4a5.728,5.728,0,0,1,.023,9.933l-97.526,56.322a21.739,21.739,0,0,1-21.747,0l-156.866-90.623A5.727,5.727,0,0,1,1846.128,762.128Z" transform="translate(-1843.29 -692.629)" fill="#d5e8fa"/>
      <path id="Path_4041" data-name="Path 4041" d="M1846.518,750.352l95.966-56.1a21.744,21.744,0,0,1,21.755-.11l158.419,90.482a5.727,5.727,0,0,1,.023,9.933l-97.525,56.323a21.74,21.74,0,0,1-21.748,0l-156.865-90.622A5.727,5.727,0,0,1,1846.518,750.352Z" transform="translate(-1843.335 -691.281)" fill="#eff6fc"/>
      <path id="Path_4042" data-name="Path 4042" d="M1969.759,818.208l-48.717-28.127c-2.211-1.277-2.211-3.346,0-4.622l19.151-11.057a8.847,8.847,0,0,1,8.007,0l48.717,28.127c2.211,1.277,2.211,3.346,0,4.622l-19.152,11.057A8.844,8.844,0,0,1,1969.759,818.208Z" transform="translate(-1852.003 -700.689)" fill="#8dc0ef"/>
      <path id="Path_4043" data-name="Path 4043" d="M1919.384,785.658v4.62l54.378,30.285,24.812-14.326v-3.509Z" transform="translate(-1852.003 -702.087)" fill="#8dc0ef"/>
      <path id="Path_4044" data-name="Path 4044" d="M1969.759,814.244l-48.717-28.128c-2.211-1.276-2.211-3.345,0-4.622l19.151-11.057a8.851,8.851,0,0,1,8.007,0l48.717,28.128c2.211,1.276,2.211,3.346,0,4.622l-19.152,11.057A8.849,8.849,0,0,1,1969.759,814.244Z" transform="translate(-1852.003 -700.235)" fill="#bddcff"/>
      <path id="Path_4045" data-name="Path 4045" d="M1981.931,808.421l-47.2-27.252,4.147-2.395,47.2,27.252Z" transform="translate(-1853.76 -701.299)" fill="#bddcff"/>
      <path id="Path_4046" data-name="Path 4046" d="M1973.9,813.059l-47.2-27.252,4.147-2.395,47.2,27.253Z" transform="translate(-1852.84 -701.83)" fill="#bddcff"/>
      <path id="Path_4047" data-name="Path 4047" d="M1935.79,781.238l46.262,26.71,3.208-1.852L1939,779.386Z" transform="translate(-1853.882 -701.369)" fill="#e2e8f2"/>
      <path id="Path_4048" data-name="Path 4048" d="M1927.757,785.877l46.262,26.71,3.208-1.853-46.262-26.709Z" transform="translate(-1852.961 -701.9)" fill="#e2e8f2"/>
      <path id="Path_4049" data-name="Path 4049" d="M1943.607,775.971l46.262,26.71,3.208-1.853-46.262-26.709Z" transform="translate(-1854.776 -700.766)" fill="#e2e8f2"/>
      <path id="Path_4061" data-name="Path 4061" d="M2037.5,907.067l1.079-.627c.164-.095.163-.25,0-.345l-1.083-.625a.66.66,0,0,0-.6,0l-1.078.627c-.164.095-.161.251,0,.345l1.083.625a.656.656,0,0,0,.6,0Z" transform="translate(-1865.321 -715.798)" fill="#1f3598"/>
      <rect id="Rectangle_108" data-name="Rectangle 108" width="4.204" height="10.079" rx="1.584" transform="translate(108.151 203.28)" fill="#1f3598"/>
      <path id="Path_4062" data-name="Path 4062" d="M1965.677,858.4l.15,3.227,1.86,45.434c-.008.17-.022.135-.032.063a6.692,6.692,0,0,0-.43,2.4c2.8,2.046,5.2,3.187,8.94,3a31.873,31.873,0,0,1,.573-6.614c.066-.484,3.672-45.393,3.672-45.393v-.039C1974.876,860.616,1971.213,858.1,1965.677,858.4Z" transform="translate(-1857.304 -710.414)" fill="#ffc7cb"/>
      <path id="Path_4063" data-name="Path 4063" d="M1976.655,924.844c3.607,2.551,3.257,4.94,8.669,3.606a10.03,10.03,0,0,0,4.684-2.243,3.708,3.708,0,0,0,.887-4.481c-.772-1.247-2.388-1.834-3.919-2.178a24.139,24.139,0,0,0-7.767-.449,6.627,6.627,0,0,0-3.488,1.145C1973.8,921.794,1975.036,923.7,1976.655,924.844Z" transform="translate(-1858.342 -717.352)" fill="#1f3598"/>
      <path id="Path_4064" data-name="Path 4064" d="M1974.167,914.245a9.475,9.475,0,0,1,2.437,1.75c2.717,2.263,5.477,4.578,7.39,7.551-.565,1.673-2.4,2.887-4.4,3.489a29.822,29.822,0,0,1-3.431-1.214,18.7,18.7,0,0,1-7.575-6.281c-.229-.33-.45-.777-.223-1.107l3.021-2.924c3.028-2.93,7.5,1.251,10.554,2.844,1.154.6,2.463,1.439,2.508,2.739.042,1.217-1.081,2.144-2.18,2.664a10.453,10.453,0,0,1-3.438.954Z" transform="translate(-1857.6 -716.811)" fill="#ffc7cb"/>
      <path id="Path_4065" data-name="Path 4065" d="M1966.192,914.835a4.8,4.8,0,0,1,4.383.636c2.119,1.279,3.691,3.371,5.542,4.981,2.551,2.218,5.12,3.46,8.242,2.032,1.028.624,1.748,1.343,1.715,2.172-.046,1.207-2.209,2.756-3.164,3.412-3,2.063-7.819-1.249-10.258-2.488-1.921-.978-3.958-.8-5.788-1.611C1964.4,922.871,1963.619,917.149,1966.192,914.835Z" transform="translate(-1857.18 -716.846)" fill="#1f3598"/>
      <rect id="Rectangle_109" data-name="Rectangle 109" width="4.204" height="10.079" rx="1.584" transform="translate(82.829 187.269)" fill="#1f3598"/>
      <path id="Path_4066" data-name="Path 4066" d="M1936.615,852.159l.15-1.471,1.86,39.8c-.007.17-.022.136-.032.063a6.707,6.707,0,0,0-.429,2.4c2.8,2.046,5.2,3.188,8.94,3a31.846,31.846,0,0,1,.573-6.614c.065-.484,2.731-37.877,2.731-37.877v-.039C1944.876,851.55,1942.151,851.853,1936.615,852.159Z" transform="translate(-1853.976 -709.534)" fill="#ff8358"/>
      <path id="Path_4067" data-name="Path 4067" d="M1947.593,907.113c3.606,2.551,3.257,4.94,8.669,3.608a10.041,10.041,0,0,0,4.684-2.244,3.708,3.708,0,0,0,.887-4.482c-.772-1.247-2.388-1.834-3.919-2.176a24.129,24.129,0,0,0-7.767-.45,6.629,6.629,0,0,0-3.489,1.145C1944.735,904.065,1945.975,905.969,1947.593,907.113Z" transform="translate(-1855.014 -715.322)" fill="#1f3598"/>
      <path id="Path_4068" data-name="Path 4068" d="M1945.1,896.515a9.476,9.476,0,0,1,2.437,1.75c2.717,2.263,5.477,4.578,7.391,7.551-.565,1.673-2.4,2.887-4.4,3.489a29.93,29.93,0,0,1-3.431-1.214,18.691,18.691,0,0,1-7.575-6.281c-.23-.33-.449-.776-.223-1.108l3.021-2.924c3.027-2.929,7.5,1.252,10.554,2.844,1.153.6,2.463,1.439,2.507,2.74.042,1.216-1.08,2.143-2.179,2.663a10.462,10.462,0,0,1-3.439.954Z" transform="translate(-1854.273 -714.781)" fill="#ff8358"/>
      <path id="Path_4069" data-name="Path 4069" d="M1937.13,897.1a4.8,4.8,0,0,1,4.383.636c2.119,1.28,3.691,3.371,5.542,4.981,2.551,2.219,5.12,3.459,8.242,2.033,1.028.623,1.747,1.343,1.715,2.171-.045,1.208-2.209,2.756-3.163,3.412-3,2.063-7.819-1.249-10.258-2.488-1.921-.977-3.958-.8-5.788-1.611C1935.339,905.141,1934.558,899.42,1937.13,897.1Z" transform="translate(-1853.853 -714.816)" fill="#1f3598"/>
      <path id="Path_4071" data-name="Path 4071" d="M2023.977,759.786c0,11.746-4.514,15.05-4.514,15.05s-.989.624-2.459,1.548a.381.381,0,0,0-.078.065l-.312.182q-1.054.663-2.3,1.445l-.079-.04-.833.495-6.374,3.772a5.613,5.613,0,0,1-5.163.039l-14.2-8.207c-1.431-.82-1.431-2.16,0-2.992l6.386-3.694,3.72-2.146h.013c.924-.533,1.808-1.041,2.577-1.5,5.215-3,.259-16.936.012-17.625v-.013h.013Z" transform="translate(-1859.697 -697.566)" fill="#f2f4f9"/>
      <path id="Path_4072" data-name="Path 4072" d="M2024.941,759.786c0,11.746-4.514,15.05-4.514,15.05s-.989.624-2.459,1.548a.355.355,0,0,0-.077.065l-.313.182q-1.053.663-2.3,1.445l-.079-.04-.832.495-19.355-11.083,3.719-2.146h.013c.924-.533,1.808-1.041,2.576-1.5,5.216-3,.26-16.936.012-17.625l.013-.013Z" transform="translate(-1860.662 -697.566)" fill="#eff6fc"/>
      <path id="Path_4078" data-name="Path 4078" d="M2015.66,758.943c0,1.8-1.267,2.536-2.83,1.634a6.255,6.255,0,0,1-2.83-4.9c0-1.8,1.267-2.536,2.83-1.634A6.254,6.254,0,0,1,2015.66,758.943Z" transform="translate(-1862.379 -698.423)" fill="#f2f4fa"/>
      <path id="Path_4083" data-name="Path 4083" d="M1910.227,809.957a29.41,29.41,0,0,1-.1-3.364c.7-1.465,1.323-2.786,1.316-2.9l21.964-15.246a3.98,3.98,0,0,1,2.878-1.053,4.086,4.086,0,0,1,.573.065,3.963,3.963,0,0,1,2.2,1.224,4.006,4.006,0,0,1-.236,5.655l-21.53,18.512-.052.044A4.33,4.33,0,0,1,1910.227,809.957Z" transform="translate(-1850.941 -702.286)" fill="#ff8358"/>
      <path id="Path_4084" data-name="Path 4084" d="M1942.944,796.472c-2.638,2.452-6.351,2.745-8.293.655s-1.379-5.772,1.26-8.223,6.351-2.745,8.293-.655S1945.582,794.021,1942.944,796.472Z" transform="translate(-1853.618 -702.225)" fill="#ffc7cb"/>
      <path id="Path_4085" data-name="Path 4085" d="M1966.343,854.038l-13.378-7.666c-5.177-2.593-9.253.63-14.806,2.264l.7-.7-2.611-4.077-30.908-2.18c-10.823,6.135-12.918,32.449-12.918,32.449l.01.2h0c-1.279,10.68,15.361,18.707,28.2,20.663a21.077,21.077,0,0,0,13.137-2.308l2.148-1.154,30.993-16.647C1976.254,869.6,1975.925,858.858,1966.343,854.038Z" transform="translate(-1848.909 -708.502)" fill="#1f3598"/>
      <path id="Path_4086" data-name="Path 4086" d="M1904.048,830.754a39.9,39.9,0,0,1-.1,5.432,2.519,2.519,0,0,0,1.147,2.354,33.311,33.311,0,0,0,4.848,2.524c4.859,2.037,10.429,3.186,15.615,2.037.207-.048.406-.1.612-.148,2.98-.762,9.459-2.523,10.044-6.214a1.835,1.835,0,0,0,.048-.455c-.01-.346-.029-.7-.048-1.059V818.662c1.612-4.8,4.571-8.222,3.1-14.317a21.676,21.676,0,0,0-3.453-7.757c-2.731-3.76-6.669-6.085-11.7-7.55-1.593-.455-3.166-.831-4.591-1.128a28.3,28.3,0,0,0-9.221-.347c-3.235.416-6.332,1.514-8.262,3.671a7.535,7.535,0,0,0-.693.87c-3.838,5.758-1.8,13.813-.406,20.065C1902.365,818.316,1903.81,824.491,1904.048,830.754Z" transform="translate(-1849.69 -702.28)" fill="#e2e8f2"/>
      <path id="Path_4087" data-name="Path 4087" d="M1928.538,777.376c-.019,0-.038.021-.058.043a1.3,1.3,0,0,1-.02-.275A.336.336,0,0,0,1928.538,777.376Z" transform="translate(-1853.042 -701.113)" fill="#3772ce"/>
      <path id="Path_4088" data-name="Path 4088" d="M1912.585,792.258h4.714a8.1,8.1,0,0,0,7.986-6.759l.293-1.754,1.071-6.419h-11.567Z" transform="translate(-1851.224 -701.133)" fill="#ffc7cb"/>
      <path id="Path_4089" data-name="Path 4089" d="M1918.75,779.868l5.743,8.723h.366l1.427-8.513Z" transform="translate(-1851.931 -701.424)" fill="#ff8358"/>
      <path id="Path_4090" data-name="Path 4090" d="M1927.48,774.307a.972.972,0,0,1-.738.06c-.026-.063-.013-.133-.049-.193Z" transform="translate(-1852.839 -700.772)" fill="#ff8358"/>
      <path id="Path_4091" data-name="Path 4091" d="M1931.5,782.759c.135.009.27.036.4.054l-1.06-1.015C1931.068,782.112,1931.282,782.436,1931.5,782.759Z" transform="translate(-1853.315 -701.645)" fill="#ff8358"/>
      <path id="Path_4092" data-name="Path 4092" d="M1911.945,791.148c1.811,2.652,7.854,1.7,13.624-2.1-1.6-.466-3.173-.841-4.6-1.133a28.572,28.572,0,0,0-9.218-.348A3.985,3.985,0,0,0,1911.945,791.148Z" transform="translate(-1851.092 -702.28)" fill="#ff8358"/>
      <path id="Path_4093" data-name="Path 4093" d="M1928.164,771.652c-.02,0-.036.024-.053.047a1.332,1.332,0,0,1-.046-.271A.34.34,0,0,0,1928.164,771.652Z" transform="translate(-1852.996 -700.458)" fill="#3772ce"/>
      <path id="Path_4094" data-name="Path 4094" d="M1933.954,764.492c.224,3.408-.018,6.819-1.755,9.513-1.909,3-5.334,4.463-8.683,4.891a10.132,10.132,0,0,1-5.528-.643c-3.282-1.538-5.135-5.383-6.3-9.074a31.883,31.883,0,0,1-1.024-4.286,16.261,16.261,0,0,1-.016-4.966,14.213,14.213,0,0,1,5.372-8.7,22.419,22.419,0,0,1,9.1-3.932,7.586,7.586,0,0,1,4.781.094,4.045,4.045,0,0,1,2.178,2.453,3.084,3.084,0,0,1,.163,1.208c.414,3.077.825,6.132,1.239,9.209C1933.666,761.647,1933.849,763.055,1933.954,764.492Z" transform="translate(-1850.981 -697.656)" fill="#ffc7cb"/>
      <path id="Path_4095" data-name="Path 4095" d="M1907,760a21.417,21.417,0,0,0,2.08,7.384,19.139,19.139,0,0,0,6.543,7.878c2.313,1.449,6.854,2.574,8.805-.019,1.915-2.542.289-6.576,2.182-9.134a8.771,8.771,0,0,1,2.092-1.8,16.511,16.511,0,0,0,4.433-4.289c2.856-4.385,1.513-12.518-3.349-15.094a16.408,16.408,0,0,0-12.849-.632,14.685,14.685,0,0,0-3.706,2.083c-.062.055-.126.1-.206.165A15.989,15.989,0,0,0,1907,760Z" transform="translate(-1850.578 -697.236)"/>
      <path id="Path_4096" data-name="Path 4096" d="M1926.8,768.7a.967.967,0,0,1-.729.135c-.031-.06-.025-.131-.068-.187Z" transform="translate(-1852.761 -700.14)" fill="#ff8358"/>
      <path id="Path_4097" data-name="Path 4097" d="M1923.321,769.821a5.535,5.535,0,0,0,1.431,3.064,5.936,5.936,0,0,0,1.579,1.479,2.544,2.544,0,0,0,2.087.286c2.132-.755,1.6-3.949.764-5.457a3.875,3.875,0,0,0-3.161-2.065A2.586,2.586,0,0,0,1923.321,769.821Z" transform="translate(-1852.453 -699.966)" fill="#ff8358"/>
      <path id="Path_4098" data-name="Path 4098" d="M1929.7,806.2c1.482-2.646,2.752-4.56,5.944-4.045a41.356,41.356,0,0,1,6.512,1.918c.2.63.4,1.275.567,1.958,1.475,6.095-1.484,9.518-3.1,14.317v16.564c.02.356.039.713.049,1.059a1.836,1.836,0,0,1-.049.455c-.584,3.691-7.064,5.451-10.043,6.214-.207.049-.405.1-.613.148v-37.6A4.793,4.793,0,0,0,1929.7,806.2Z" transform="translate(-1853.1 -703.967)" fill="#fff"/>
      <path id="Path_4099" data-name="Path 4099" d="M1921.891,746.8l-.492.05Z" transform="translate(-1852.233 -697.638)" fill="#1f3598"/>
      <path id="Path_4100" data-name="Path 4100" d="M1944.27,837.1a29.14,29.14,0,0,1-.1-3.364c.7-1.465,1.323-2.786,1.316-2.9l21.964-15.246a3.981,3.981,0,0,1,2.878-1.053,4.054,4.054,0,0,1,.572.065,4,4,0,0,1,1.968,6.879L1951.336,840l-.052.044A4.33,4.33,0,0,1,1944.27,837.1Z" transform="translate(-1854.839 -705.394)" fill="#ffc7cb"/>
      <path id="Path_4101" data-name="Path 4101" d="M1976.987,823.614c-2.638,2.452-6.351,2.745-8.294.655s-1.378-5.771,1.26-8.223,6.352-2.745,8.294-.655S1979.625,821.163,1976.987,823.614Z" transform="translate(-1857.516 -705.332)" fill="#ffc7cb"/>
      <path id="Path_4102" data-name="Path 4102" d="M1971.4,816.649h0a1.723,1.723,0,0,1,.089-2.434l7.577-7.04a1.721,1.721,0,0,1,2.433.089h0a1.721,1.721,0,0,1-.089,2.433l-7.575,7.04A1.723,1.723,0,0,1,1971.4,816.649Z" transform="translate(-1857.906 -704.498)" fill="#ffc7cb"/>
      <path id="Path_4103" data-name="Path 4103" d="M1945.888,839.248l-.081.03a5.681,5.681,0,0,1-7.322-4.081l-7.1-28.41a5.936,5.936,0,0,1,11.517-2.88l2.8,11.2,2.76,11.032h0C1949.684,831.42,1952.2,836.9,1945.888,839.248Z" transform="translate(-1853.356 -703.662)" fill="#bddcff"/>
      <path id="Path_4104" data-name="Path 4104" d="M1926.014,761.758c-.063-.537-.114-1.075-.147-1.616-.29-4.607.569-9.5-3.444-12.939-2.793-2.393-6.83-2.529-10.5-2.315-4.015.233-8.161.79-11.572,2.92-6.4,4-6.373,14.1-4.465,20.594a51.358,51.358,0,0,1,1.715,8c-.047,4.16-2.452,6.27-7.193,7.068a10.538,10.538,0,0,0-8.005,6.234,14.738,14.738,0,0,0-1.244,5.327c-.28,5.73-.826,7.32-7.488,9.355a14.9,14.9,0,0,0-9.321,8.332c-4.679,10.229.14,25.014,10.764,33.023s23.029,6.207,27.709-4.023a23.037,23.037,0,0,0,1.131-14.505c-1.862-8.438-1.055-9.843,2.677-12.929a.3.3,0,0,0,.031-.029,11.07,11.07,0,0,0,3.019-3.988,17.018,17.018,0,0,0,.346-12.008c-1.773-5.708-1.509-9.433,1.3-11.512a26.973,26.973,0,0,1,6.276-1.98,11.473,11.473,0,0,0,8.452-6.74C1928.542,772.582,1926.658,767.268,1926.014,761.758Z" transform="translate(-1845.497 -697.411)"/>
      <path id="Path_4105" data-name="Path 4105" d="M1873.809,956.189a7.2,7.2,0,0,1,3.259-5.644c1.8-1.039,3.258-.2,3.259,1.881a7.2,7.2,0,0,1-3.259,5.644C1875.269,959.109,1873.809,958.267,1873.809,956.189Z" transform="translate(-1846.784 -720.916)" fill="#4568c7"/>
      <path id="Path_4106" data-name="Path 4106" d="M1873.809,956.189a7.2,7.2,0,0,1,3.259-5.644c1.8-1.039,3.258-.2,3.259,1.881a7.2,7.2,0,0,1-3.259,5.644C1875.269,959.109,1873.809,958.267,1873.809,956.189Z" transform="translate(-1846.784 -720.916)" fill="#4568c7"/>
      <path id="Path_4107" data-name="Path 4107" d="M1879.559,950.414l2.808,1.463-4.409,8.035-3.288-1.711.833-4.525Z" transform="translate(-1846.883 -720.952)" fill="#4568c7"/>
      <path id="Path_4108" data-name="Path 4108" d="M1876.938,957.812a7.2,7.2,0,0,1,3.259-5.644c1.8-1.039,3.258-.2,3.258,1.882a7.2,7.2,0,0,1-3.258,5.644C1878.4,960.732,1876.938,959.89,1876.938,957.812Z" transform="translate(-1847.142 -721.102)" fill="#8dc0ef"/>
      <path id="Path_4109" data-name="Path 4109" d="M1876.938,957.812a7.2,7.2,0,0,1,3.259-5.644c1.8-1.039,3.258-.2,3.258,1.882a7.2,7.2,0,0,1-3.258,5.644C1878.4,960.732,1876.938,959.89,1876.938,957.812Z" transform="translate(-1847.142 -721.102)" fill="#e2e8f2"/>
      <path id="Path_4110" data-name="Path 4110" d="M1918.062,931.455a7.208,7.208,0,0,1,3.259-5.644c1.8-1.039,3.259-.2,3.259,1.882a7.2,7.2,0,0,1-3.259,5.644C1919.522,934.375,1918.062,933.533,1918.062,931.455Z" transform="translate(-1851.851 -718.084)" fill="#4568c7"/>
      <path id="Path_4111" data-name="Path 4111" d="M1918.062,931.455a7.208,7.208,0,0,1,3.259-5.644c1.8-1.039,3.259-.2,3.259,1.882a7.2,7.2,0,0,1-3.259,5.644C1919.522,934.375,1918.062,933.533,1918.062,931.455Z" transform="translate(-1851.851 -718.084)" fill="#4568c7"/>
      <path id="Path_4112" data-name="Path 4112" d="M1923.812,925.68l2.808,1.464-4.408,8.035-3.288-1.711.833-4.525Z" transform="translate(-1851.95 -718.12)" fill="#4568c7"/>
      <path id="Path_4113" data-name="Path 4113" d="M1921.19,933.077a7.2,7.2,0,0,1,3.259-5.644c1.8-1.04,3.258-.2,3.258,1.882a7.206,7.206,0,0,1-3.258,5.644C1922.649,936,1921.19,935.156,1921.19,933.077Z" transform="translate(-1852.209 -718.27)" fill="#8dc0ef"/>
      <path id="Path_4114" data-name="Path 4114" d="M1921.19,933.077a7.2,7.2,0,0,1,3.259-5.644c1.8-1.04,3.258-.2,3.258,1.882a7.206,7.206,0,0,1-3.258,5.644C1922.649,936,1921.19,935.156,1921.19,933.077Z" transform="translate(-1852.209 -718.27)" fill="#e2e8f2"/>
      <path id="Path_4115" data-name="Path 4115" d="M1915.986,957.281a7.2,7.2,0,0,1,3.259-5.643c1.8-1.04,3.259-.2,3.259,1.881a7.2,7.2,0,0,1-3.259,5.644C1917.445,960.2,1915.986,959.359,1915.986,957.281Z" transform="translate(-1851.614 -721.041)" fill="#4568c7"/>
      <path id="Path_4116" data-name="Path 4116" d="M1915.986,957.281a7.2,7.2,0,0,1,3.259-5.643c1.8-1.04,3.259-.2,3.259,1.881a7.2,7.2,0,0,1-3.259,5.644C1917.445,960.2,1915.986,959.359,1915.986,957.281Z" transform="translate(-1851.614 -721.041)" fill="#4568c7"/>
      <path id="Path_4117" data-name="Path 4117" d="M1921.735,951.506l2.808,1.464L1920.136,961l-3.288-1.711.833-4.525Z" transform="translate(-1851.712 -721.077)" fill="#4568c7"/>
      <path id="Path_4118" data-name="Path 4118" d="M1919.113,958.9a7.2,7.2,0,0,1,3.259-5.644c1.8-1.039,3.259-.2,3.259,1.882a7.2,7.2,0,0,1-3.259,5.644C1920.573,961.824,1919.113,960.982,1919.113,958.9Z" transform="translate(-1851.972 -721.227)" fill="#8dc0ef"/>
      <path id="Path_4119" data-name="Path 4119" d="M1919.113,958.9a7.2,7.2,0,0,1,3.259-5.644c1.8-1.039,3.259-.2,3.259,1.882a7.2,7.2,0,0,1-3.259,5.644C1920.573,961.824,1919.113,960.982,1919.113,958.9Z" transform="translate(-1851.972 -721.227)" fill="#e2e8f2"/>
      <path id="Path_4120" data-name="Path 4120" d="M1873.025,932.372a7.2,7.2,0,0,1,3.259-5.644c1.8-1.039,3.259-.2,3.259,1.881a7.2,7.2,0,0,1-3.259,5.644C1874.484,935.293,1873.025,934.451,1873.025,932.372Z" transform="translate(-1846.694 -718.189)" fill="#4568c7"/>
      <path id="Path_4121" data-name="Path 4121" d="M1873.025,932.372a7.2,7.2,0,0,1,3.259-5.644c1.8-1.039,3.259-.2,3.259,1.881a7.2,7.2,0,0,1-3.259,5.644C1874.484,935.293,1873.025,934.451,1873.025,932.372Z" transform="translate(-1846.694 -718.189)" fill="#4568c7"/>
      <path id="Path_4122" data-name="Path 4122" d="M1878.775,926.6l2.809,1.464-4.408,8.035-3.288-1.711.833-4.525Z" transform="translate(-1846.792 -718.225)" fill="#4568c7"/>
      <path id="Path_4123" data-name="Path 4123" d="M1876.153,934a7.2,7.2,0,0,1,3.259-5.644c1.8-1.039,3.259-.2,3.259,1.882a7.2,7.2,0,0,1-3.259,5.643C1877.612,936.916,1876.153,936.074,1876.153,934Z" transform="translate(-1847.053 -718.375)" fill="#8dc0ef"/>
      <path id="Path_4124" data-name="Path 4124" d="M1876.153,934a7.2,7.2,0,0,1,3.259-5.644c1.8-1.039,3.259-.2,3.259,1.882a7.2,7.2,0,0,1-3.259,5.643C1877.612,936.916,1876.153,936.074,1876.153,934Z" transform="translate(-1847.053 -718.375)" fill="#e2e8f2"/>
      <path id="Path_4125" data-name="Path 4125" d="M1920.017,944.964l-14.42-8.326,14.42-8.325c2.367-1.366,2.367-3.6,0-4.969h0a9.55,9.55,0,0,0-8.608,0l-14.419,8.325-14.42-8.325a9.549,9.549,0,0,0-8.607,0c-2.367,1.367-2.367,3.6,0,4.969l14.42,8.325-14.42,8.326c-2.367,1.366-2.367,3.6,0,4.969h0a9.549,9.549,0,0,0,8.607,0l14.42-8.325,14.419,8.325a9.55,9.55,0,0,0,8.608,0C1922.384,948.567,1922.384,946.33,1920.017,944.964Z" transform="translate(-1846.599 -717.735)" fill="#eff6fc"/>
      <path id="Path_4126" data-name="Path 4126" d="M1920.017,944.964l-14.42-8.326,14.42-8.325c2.367-1.366,2.367-3.6,0-4.969h0a9.55,9.55,0,0,0-8.608,0l-14.419,8.325-14.42-8.325a9.549,9.549,0,0,0-8.607,0c-2.367,1.367-2.367,3.6,0,4.969l14.42,8.325-14.42,8.326c-2.367,1.366-2.367,3.6,0,4.969h0a9.549,9.549,0,0,0,8.607,0l14.42-8.325,14.419,8.325a9.55,9.55,0,0,0,8.608,0C1922.384,948.567,1922.384,946.33,1920.017,944.964Z" transform="translate(-1846.599 -717.735)" fill="#eff6fc"/>
      <path id="Path_4127" data-name="Path 4127" d="M1892,937.286c0,2.694,3.251,4.877,7.262,4.877s7.262-2.184,7.262-4.877-3.251-7.157-7.262-7.157S1892,934.593,1892,937.286Z" transform="translate(-1848.867 -718.63)" fill="#8dc0ef"/>
      <path id="Path_4128" data-name="Path 4128" d="M1894.18,933.707c0,1.977,2.385,3.579,5.328,3.579s5.327-1.6,5.327-3.579-2.384-3.578-5.327-3.578S1894.18,931.732,1894.18,933.707Z" transform="translate(-1849.117 -718.63)" fill="#eff6fc"/>
      <path id="Path_4129" data-name="Path 4129" d="M1899.776,890.8a3.281,3.281,0,0,0-3.259,3.3v31.8a3.259,3.259,0,1,0,6.518,0V894.1A3.282,3.282,0,0,0,1899.776,890.8Z" transform="translate(-1849.385 -714.126)" fill="#8dc0ef"/>
      <path id="Path_4130" data-name="Path 4130" d="M1959.009,882.966a5.417,5.417,0,0,1-.019.554,16.209,16.209,0,0,1-8.361,12.983L1915.08,916a9.446,9.446,0,0,1-1.682.724,9.7,9.7,0,0,1-7.938-.864l-40.716-23.993a22.221,22.221,0,0,1-10.843-17.08l-4.264-45.639-.442-4.744a5.068,5.068,0,0,1,7.291-5.016l44.071,21.8a5.071,5.071,0,0,1,2.564,2.95l14.092,42.764a5.884,5.884,0,0,0,8.5,3.269l23-13.152A6.882,6.882,0,0,1,1959.009,882.966Z" transform="translate(-1843.964 -705.888)" fill="#a0d2ff"/>
      <path id="Path_4131" data-name="Path 4131" d="M1912.189,914.824a2.825,2.825,0,0,1-3.048,3.793,9.688,9.688,0,0,1-3.578-1.249l-40.716-23.993A22.223,22.223,0,0,1,1854,876.3l-3.926-42.02a2.029,2.029,0,0,1,2.92-2.008l35.561,17.582a5.087,5.087,0,0,1,2.564,2.959l14.083,42.764C1905.691,897.063,1908.668,905.587,1912.189,914.824Z" transform="translate(-1844.066 -707.4)" fill="#4568c7"/>
    </g>
    <g id="Group_22369" data-name="Group 22369" transform="translate(644.762 8490)">
      <path id="Path_5283" data-name="Path 5283" d="M2325.625,372.073,2116.092,250.319c-3.859-2.466-7.188-.784-7.435,3.755l-1.032,18.991-7.837,144.276a15.624,15.624,0,0,0,6.542,12.685L2315.862,551.78c3.86,2.466,7.188.785,7.435-3.754l7.838-144.276,1.031-18.992A15.626,15.626,0,0,0,2325.625,372.073Z" transform="translate(-2090.942 -249.183)" fill="#cacaca" style="mix-blend-mode: multiply;isolation: isolate"/>
      <path id="Path_5284" data-name="Path 5284" d="M2318.765,418.237l-7.842,144.273c-.246,4.544-3.576,6.22-7.435,3.759l-118.5-68.86-91.028-52.9a15.613,15.613,0,0,1-6.543-12.679l7.835-144.28,98.277,57.458Z" transform="translate(-2087.402 -260.165)" fill="#577de8"/>
      <path id="Path_5285" data-name="Path 5285" d="M2322.942,389.67l-1.022,18.891-.008.1-125.235-73.228L2098.4,277.975l.092-1.676.938-17.315c.246-4.536,3.576-6.22,7.435-3.752L2316.4,376.984A15.625,15.625,0,0,1,2322.942,389.67Z" transform="translate(-2090.549 -250.589)" fill="#fff"/>
      <path id="Path_5286" data-name="Path 5286" d="M2392.843,440.9a6.831,6.831,0,0,0,2.973,5.488c1.71,1.044,3.15.279,3.217-1.708a6.832,6.832,0,0,0-2.974-5.487C2394.35,438.15,2392.909,438.915,2392.843,440.9Z" transform="translate(-2174.826 -303.435)" fill="#32b98e"/>
      <path id="Path_5287" data-name="Path 5287" d="M2377.11,431.3a6.831,6.831,0,0,0,2.974,5.487c1.71,1.044,3.15.279,3.216-1.708a6.828,6.828,0,0,0-2.973-5.487C2378.617,428.547,2377.176,429.312,2377.11,431.3Z" transform="translate(-2170.322 -300.686)" fill="#f26c73"/>
      <g id="Group_22378" data-name="Group 22378" transform="translate(24.804 58.346)">
        <g id="Group_44" data-name="Group 44" transform="translate(0 0)">
          <line id="Line_11" data-name="Line 11" x2="69.512" y2="56.896" transform="matrix(0.998, -0.07, 0.07, 0.998, 0, 4.849)" fill="none" stroke="#fff" stroke-miterlimit="10" stroke-width="0.664"/>
          <line id="Line_12" data-name="Line 12" x2="69.512" y2="56.896" transform="matrix(0.998, -0.07, 0.07, 0.998, 4.192, 58.57)" fill="none" stroke="#fff" stroke-miterlimit="10" stroke-width="0.664"/>
          <line id="Line_13" data-name="Line 13" x2="69.512" y2="56.896" transform="matrix(0.998, -0.07, 0.07, 0.998, 8.385, 112.291)" fill="none" stroke="#fff" stroke-miterlimit="10" stroke-width="0.664"/>
          <path id="Path_288" data-name="Path 288" d="M0,0" transform="matrix(0.998, -0.07, 0.07, 0.998, 85.887, 217.921)" fill="none" stroke="#fff" stroke-miterlimit="10" stroke-width="0.664"/>
          <path id="Path_289" data-name="Path 289" d="M35.273,82.33.435,53.882,0,0,34.838,28.448Z" transform="matrix(0.998, -0.07, 0.07, 0.998, 0, 4.849)" fill="none" stroke="#fff" stroke-miterlimit="10" stroke-width="0.664"/>
          <path id="Path_290" data-name="Path 290" d="M35.273,82.331.435,53.882,0,0,34.839,28.448Z" transform="matrix(0.998, -0.07, 0.07, 0.998, 36.573, 30.809)" fill="none" stroke="#fff" stroke-miterlimit="10" stroke-width="0.664"/>
          <path id="Path_291" data-name="Path 291" d="M35.273,82.331.435,53.883,0,0,34.839,28.448Z" transform="matrix(0.998, -0.07, 0.07, 0.998, 4.192, 58.57)" fill="none" stroke="#fff" stroke-miterlimit="10" stroke-width="0.664"/>
          <path id="Path_292" data-name="Path 292" d="M35.273,82.33.435,53.883,0,0,34.838,28.448Z" transform="matrix(0.998, -0.07, 0.07, 0.998, 40.766, 84.53)" fill="none" stroke="#fff" stroke-miterlimit="10" stroke-width="0.664"/>
          <line id="Line_14" data-name="Line 14" x1="34.838" y1="28.448" transform="matrix(0.998, -0.07, 0.07, 0.998, 8.385, 112.291)" fill="none" stroke="#fff" stroke-miterlimit="10" stroke-width="0.664"/>
          <line id="Line_15" data-name="Line 15" x2="34.838" y2="28.448" transform="matrix(0.998, -0.07, 0.07, 0.998, 44.958, 138.251)" fill="none" stroke="#fff" stroke-miterlimit="10" stroke-width="0.664"/>
        </g>
        <path id="Path_293" data-name="Path 293" d="M1128.69,563.105l17.952-13.431,20.3-2.681,24.012-19.092" transform="translate(-1118.687 -456.174)" fill="none" stroke="#a0d2ff" stroke-linecap="round" stroke-linejoin="round" stroke-width="2"/>
        <path id="Path_294" data-name="Path 294" d="M1164.605,526.63l5.03,2.2L1167.12,536" transform="translate(-1096.343 -457.827)" fill="none" stroke="#a0d2ff" stroke-linecap="round" stroke-linejoin="round" stroke-width="2"/>
        <g id="Group_22377" data-name="Group 22377" transform="translate(101.156 74.863)">
          <path id="Path_49" data-name="Path 49" d="M401.165,310.421l-30.716-17.734v1.258l30.716,17.733Z" transform="translate(-366.582 -193.091)" fill="#fff"/>
          <path id="Path_50" data-name="Path 50" d="M447.321,337.07v1.257l12.185,7.034V344.1Z" transform="translate(-410.766 -218.6)" fill="#fff"/>
          <path id="Path_51" data-name="Path 51" d="M447.62,347.992l-7.825-4.518v1.256l7.825,4.519Z" transform="translate(-406.441 -222.283)" fill="#fff"/>
          <path id="Path_52" data-name="Path 52" d="M394.956,318.844l17.094,9.869v-1.257l-17.094-9.869Z" transform="translate(-380.668 -207.403)" fill="#fff"/>
          <path id="Path_53" data-name="Path 53" d="M462.835,356.776v1.257l5.588,3.226V360Z" transform="translate(-419.685 -229.927)" fill="#fff"/>
          <path id="Path_54" data-name="Path 54" d="M373.669,305.3l-12.317-7.111v1.257l12.317,7.111Z" transform="translate(-361.352 -196.251)" fill="#fff"/>
          <path id="Path_55" data-name="Path 55" d="M369.871,313.853l-8.519-4.918v1.257l8.518,4.918Z" transform="translate(-361.352 -202.429)" fill="#fff"/>
          <path id="Path_3002" data-name="Path 3002" d="M3336.149,319.121c5.4,3.153,8.789,11.237,7.565,18.06s-6.6,9.8-12,6.645-8.79-11.237-7.565-18.06S3330.748,315.97,3336.149,319.121Zm-3.453,19.233,5.63,3.285c.878-4.888-.593-7.88-4.406-10.1s-5.977-1.354-6.854,3.534l5.631,3.285Zm2.743-15.283c-1.713-1-3.415-.055-3.8,2.109a5.821,5.821,0,0,0,2.4,5.726c1.713,1,3.417.056,3.806-2.108a5.826,5.826,0,0,0-2.4-5.727Z" transform="translate(-3311.006 -317.863)" fill="#ebebeb"/>
          <path id="Path_3003" data-name="Path 3003" d="M3408.737,366.714l-.82,4.566-24.67-14.393.82-4.566Z" transform="translate(-3344.933 -337.562)" fill="#ebebeb"/>
          <path id="Path_3004" data-name="Path 3004" d="M3407.6,385.2l-.6,3.344-26.381-15.391.6-3.344Z" transform="translate(-3343.432 -347.557)" fill="#ebebeb"/>
          <path id="Path_3005" data-name="Path 3005" d="M3436.9,413.127l-.6,3.347-16.375-9.554.6-3.347Z" transform="translate(-3365.897 -366.858)" fill="#ebebeb"/>
          <path id="Path_3006" data-name="Path 3006" d="M3460.441,416.026l-.6,3.344-12.392-7.23.6-3.344Z" transform="translate(-3381.634 -369.845)" fill="#ebebeb"/>
          <path id="Path_3007" data-name="Path 3007" d="M3461,397.208l-.82,4.566-14.1-8.228.819-4.566Z" transform="translate(-3380.852 -358.518)" fill="#ebebeb"/>
          <path id="Path_3008" data-name="Path 3008" d="M3394.8,388.568l-.6,3.347-15.344-8.952.6-3.347Z" transform="translate(-3342.425 -353.165)" fill="#ebebeb"/>
          <path id="Path_3183" data-name="Path 3183" d="M3361.964,446.96l-.321,2.51-9.438-5.506.321-2.51Z" transform="translate(-3327.187 -388.513)" fill="#ebebeb"/>
          <path id="Path_3184" data-name="Path 3184" d="M3338.739,447.554l-.321,2.51L3323.74,441.5l.321-2.51Z" transform="translate(-3310.916 -387.107)" fill="#ebebeb"/>
          <path id="Path_3185" data-name="Path 3185" d="M3316.693,448.836l-.321,2.51-10.539-6.149.321-2.51Z" transform="translate(-3300.679 -389.219)" fill="#ebebeb"/>
          <path id="Path_3186" data-name="Path 3186" d="M3313.273,432.7l-.322,2.51-5.433-3.17.321-2.51Z" transform="translate(-3301.642 -381.696)" fill="#ebebeb"/>
          <path id="Path_3187" data-name="Path 3187" d="M3345.458,396.494l-.764,5.963-31.613-18.444.764-5.963Z" transform="translate(-3304.823 -352.27)" fill="#ebebeb"/>
          <path id="Path_3188" data-name="Path 3188" d="M3324.524,410.972l-.322,2.51-13.312-7.766.321-2.51Z" transform="translate(-3303.57 -366.649)" fill="#ebebeb"/>
          <path id="Path_3189" data-name="Path 3189" d="M3326.431,426.229l-.322,2.51-16.905-9.863.322-2.51Z" transform="translate(-3302.606 -374.173)" fill="#ebebeb"/>
          <path id="Path_3190" data-name="Path 3190" d="M3319.685,478.871l-.321,2.513-16.905-9.863.322-2.513Z" transform="translate(-3298.75 -404.267)" fill="#ebebeb"/>
          <path id="Path_3191" data-name="Path 3191" d="M3365.143,491.248l-.322,2.514-26.064-15.207.322-2.514Z" transform="translate(-3319.5 -408.286)" fill="#ebebeb"/>
          <path id="Path_3192" data-name="Path 3192" d="M3395.58,494.861l-.322,2.51-12.089-7.053.321-2.51Z" transform="translate(-3344.888 -415.013)" fill="#ebebeb"/>
          <path id="Path_3193" data-name="Path 3193" d="M3425.992,484.317l-.321,2.51-19.982-11.658.322-2.51Z" transform="translate(-3357.762 -406.352)" fill="#ebebeb"/>
          <path id="Path_3194" data-name="Path 3194" d="M3317.779,463.614l-.322,2.514-13.311-7.767.322-2.514Z" transform="translate(-3299.714 -396.742)" fill="#ebebeb"/>
          <path id="Path_3195" data-name="Path 3195" d="M3353.852,470.516l-.321,2.51-19.561-11.412.322-2.51Z" transform="translate(-3316.763 -398.603)" fill="#ebebeb"/>
          <path id="Path_3196" data-name="Path 3196" d="M3355.218,499.6l-.321,2.513-9.439-5.506.323-2.513Z" transform="translate(-3323.331 -418.607)" fill="#ebebeb"/>
          <path id="Path_3197" data-name="Path 3197" d="M3384.69,474.363l-.322,2.51-22.833-13.322.321-2.51Z" transform="translate(-3332.521 -399.711)" fill="#ebebeb"/>
          <path id="Path_3198" data-name="Path 3198" d="M3388.538,462.464l-.322,2.51-10.444-6.093.321-2.51Z" transform="translate(-3341.803 -397.042)" fill="#ebebeb"/>
          <path id="Path_3199" data-name="Path 3199" d="M3371.888,438.605l-.322,2.51L3345.5,425.909l.322-2.51Z" transform="translate(-3323.356 -378.194)" fill="#ebebeb"/>
          <path id="Path_3200" data-name="Path 3200" d="M3419.461,466.361l-.321,2.51-9.254-5.4.322-2.51Z" transform="translate(-3360.161 -399.667)" fill="#ebebeb"/>
          <path id="Path_3201" data-name="Path 3201" d="M3465.761,535.807l-.322,2.51-6.2-3.619.322-2.51Z" transform="translate(-3388.373 -440.382)" fill="#ebebeb"/>
          <path id="Path_3202" data-name="Path 3202" d="M3311.034,516.256l-.322,2.513L3297.4,511l.322-2.514Z" transform="translate(-3295.858 -426.836)" fill="#ebebeb"/>
          <path id="Path_3203" data-name="Path 3203" d="M3347.106,523.158l-.321,2.514-19.561-11.412.322-2.514Z" transform="translate(-3312.907 -428.697)" fill="#ebebeb"/>
          <path id="Path_3204" data-name="Path 3204" d="M3358.4,543.89l-.322,2.514L3332.012,531.2l.322-2.514Z" transform="translate(-3315.644 -438.379)" fill="#ebebeb"/>
          <path id="Path_3205" data-name="Path 3205" d="M3381.793,515.107l-.322,2.513-10.444-6.093.322-2.513Z" transform="translate(-3337.947 -427.134)" fill="#ebebeb"/>
          <path id="Path_3206" data-name="Path 3206" d="M3377.945,527.006l-.323,2.513L3354.789,516.2l.322-2.513Z" transform="translate(-3328.665 -429.805)" fill="#ebebeb"/>
          <path id="Path_3207" data-name="Path 3207" d="M3420.949,552.1l-.323,2.514-9-5.249.321-2.514Z" transform="translate(-3361.159 -448.763)" fill="#ebebeb"/>
          <path id="Path_3208" data-name="Path 3208" d="M3388.835,547.5l-.322,2.514-12.089-7.053.322-2.514Z" transform="translate(-3341.032 -445.105)" fill="#ebebeb"/>
          <path id="Path_3209" data-name="Path 3209" d="M3419.247,536.959l-.323,2.513-19.981-11.658.322-2.513Z" transform="translate(-3353.906 -436.446)" fill="#ebebeb"/>
          <path id="Path_3210" data-name="Path 3210" d="M3457.149,516.638l-.321,2.51-13.92-8.121.321-2.51Z" transform="translate(-3379.039 -426.851)" fill="#ebebeb"/>
          <path id="Path_3211" data-name="Path 3211" d="M3427.694,499.453l-.322,2.51-9-5.249.322-2.51Z" transform="translate(-3365.015 -418.669)" fill="#ebebeb"/>
          <path id="Path_3212" data-name="Path 3212" d="M3412.716,519l-.322,2.514-9.254-5.4.322-2.514Z" transform="translate(-3356.305 -429.759)" fill="#ebebeb"/>
          <path id="Path_3213" data-name="Path 3213" d="M3425.967,569.168l-.322,2.514-17.471-10.193.322-2.514Z" transform="translate(-3359.182 -455.695)" fill="#ebebeb"/>
          <path id="Path_3214" data-name="Path 3214" d="M3450.4,569.28l-.322,2.514-13.92-8.121.322-2.513Z" transform="translate(-3375.182 -456.944)" fill="#ebebeb"/>
          <path id="Path_3215" data-name="Path 3215" d="M3458.533,559.88l-.321,2.513-9.091-5.3.322-2.513Z" transform="translate(-3382.59 -453.181)" fill="#ebebeb"/>
          <path id="Path_3216" data-name="Path 3216" d="M3447.342,539.205l-.322,2.514-18.74-10.934.322-2.514Z" transform="translate(-3370.675 -438.143)" fill="#ebebeb"/>
          <path id="Path_3217" data-name="Path 3217" d="M3432.712,516.526l-.321,2.51-17.471-10.193.321-2.51Z" transform="translate(-3363.038 -425.603)" fill="#ebebeb"/>
          <path id="Path_3218" data-name="Path 3218" d="M3465.279,507.237l-.322,2.51-9.09-5.3.321-2.51Z" transform="translate(-3386.446 -423.087)" fill="#ebebeb"/>
          <path id="Path_3219" data-name="Path 3219" d="M3454.087,486.563l-.322,2.51-18.74-10.934.322-2.51Z" transform="translate(-3374.531 -408.051)" fill="#ebebeb"/>
          <path id="Path_3220" data-name="Path 3220" d="M3309.947,501.478l-.321,2.514-10.539-6.149.321-2.514Z" transform="translate(-3296.823 -419.313)" fill="#ebebeb"/>
          <path id="Path_3221" data-name="Path 3221" d="M3306.529,485.339l-.322,2.513-5.434-3.17.323-2.513Z" transform="translate(-3297.786 -411.79)" fill="#ebebeb"/>
          <path id="Path_3222" data-name="Path 3222" d="M3331.994,500.2l-.323,2.513-14.677-8.564.321-2.513Z" transform="translate(-3307.059 -417.199)" fill="#ebebeb"/>
          <path id="Path_3223" data-name="Path 3223" d="M3440.6,591.848l-.321,2.514-18.741-10.934.322-2.514Z" transform="translate(-3366.821 -468.237)" fill="#ebebeb"/>
          <path id="Path_3224" data-name="Path 3224" d="M3459.016,588.449l-.323,2.514-6.2-3.619.322-2.514Z" transform="translate(-3384.517 -470.476)" fill="#ebebeb"/>
          <path id="Path_3225" data-name="Path 3225" d="M3405.971,571.646l-.322,2.514-9.254-5.4.322-2.513Z" transform="translate(-3352.449 -459.852)" fill="#ebebeb"/>
        </g>
      </g>
    </g>
    <g id="Stage" transform="translate(404 8822.484)">
      <path id="Path_1498" data-name="Path 1498" d="M276,660H813.675s-11.269,20.927-37.026,17.708a149.484,149.484,0,0,1-20.927-1.61c-9.659-1.61-24.147,3.22-27.367,8.049,0,0-24.147,14.488-64.392,0,0,0-37.026-16.1-62.782-1.61,0,0-19.318,20.928-69.222-4.829,0,0-12.879-8.049-35.416,8.049,0,0-22.537,19.318-66-8.049,0,0-24.147-6.439-51.514,6.439C379.028,684.147,324.294,692.2,276,660Z" transform="translate(-276 -571.461)" fill="rgba(15,0,0,0.1)"/>
      <path id="Path_1499" data-name="Path 1499" d="M582.407,634.075s27.206,15.026,15.19,36.5C597.6,670.576,578.133,666.564,582.407,634.075Z" transform="translate(-89.525 -587.27)" fill="#c4e4f9"/>
      <path id="Path_1500" data-name="Path 1500" d="M614.007,623s14.488,46.684-22.537,57.953C591.47,680.953,573.762,655.2,614.007,623Z" transform="translate(-85.991 -594.023)" fill="#0f62fe"/>
      <path id="Path_1501" data-name="Path 1501" d="M334.352,621.92s-41.564,22.958-23.207,55.765C311.145,677.685,340.883,671.557,334.352,621.92Z" transform="translate(-257.422 -594.682)" fill="#0f62fe"/>
      <path id="Path_1502" data-name="Path 1502" d="M292.061,605s-22.135,71.324,34.43,88.539C326.492,693.539,353.546,654.189,292.061,605Z" transform="translate(-268.808 -605)" fill="#c4e4f9"/>
    </g>
    <g id="Group_23830" data-name="Group 23830" transform="translate(54.675 2811.349)">
      <path id="Path_3625" data-name="Path 3625" d="M2080.984,1008.589c-13.529,0-24.535,7.262-24.535,16.189s11.006,16.189,24.535,16.189,24.534-7.262,24.534-16.189S2094.512,1008.589,2080.984,1008.589Z" transform="translate(-1270.08 5045.503)" fill="#647ddd" opacity="0.17"/>
      <path id="Path_4051" data-name="Path 4051" d="M2099.474,998.561l-5.689,28.517h-37.691l-5.689-28.517Z" transform="translate(-1260.396 5036.151)" fill="#bddcff"/>
      <path id="Path_4052" data-name="Path 4052" d="M2094.427,1029.108c0,4.821-7.3,10.184-17.914,10.482-.306.007-.619.014-.932.014-11.108,0-18.845-5.533-18.845-10.5s7.738-10.5,18.845-10.5a30.1,30.1,0,0,1,7.844,1C2090.167,1021.42,2094.427,1025.424,2094.427,1029.108Z" transform="translate(-1261.037 5034.121)" fill="#bddcff"/>
      <path id="Path_4053" data-name="Path 4053" d="M2102.345,998.561l-5.689,28.516c0,4.822-7.3,10.184-17.914,10.483a18.46,18.46,0,0,0,3.314-4.409,26.4,26.4,0,0,0,2.3-6.074,50.256,50.256,0,0,0,1.3-9.5c.092-1.628.149-3.257.192-4.871q.2-7.073.412-14.144Z" transform="translate(-1263.267 5036.151)" fill="#8dc0ef"/>
      <ellipse id="Ellipse_104" data-name="Ellipse 104" cx="24.534" cy="16.189" rx="24.534" ry="16.189" transform="translate(790.01 6018.521)" fill="#e2e8f2"/>
      <ellipse id="Ellipse_105" data-name="Ellipse 105" cx="18.845" cy="10.5" rx="18.845" ry="10.5" transform="translate(795.699 6024.21)" fill="#1f3598"/>
      <circle id="Ellipse_106" data-name="Ellipse 106" cx="16.922" cy="16.922" r="16.922" transform="translate(795.131 5968.266) rotate(-80.783)" fill="#8dc0ef"/>
      <circle id="Ellipse_107" data-name="Ellipse 107" cx="11.998" cy="11.998" r="11.998" transform="translate(798.868 5972.658) rotate(-22.5)" fill="#8dc0ef"/>
      <ellipse id="Ellipse_108" data-name="Ellipse 108" cx="13.061" cy="13.061" rx="13.061" ry="13.061" transform="translate(797.48 6016.505) rotate(-67.5)" fill="#8dc0ef"/>
      <path id="Path_4054" data-name="Path 4054" d="M2081.875,999.979a4.7,4.7,0,1,1-4.7-4.7A4.7,4.7,0,0,1,2081.875,999.979Z" transform="translate(-1262.631 5036.484)" fill="#8dc0ef"/>
      <path id="Path_4055" data-name="Path 4055" d="M2089.526,920.662c-3.754,4.793-3.636,6.153-2.1,10.189h-22.436c1.531-4.036,1.65-5.4-2.1-10.189Z" transform="translate(-1261.66 5044.044)" fill="#8dc0ef"/>
      <path id="Path_4056" data-name="Path 4056" d="M2087.944,922.824c-12.378,11.539-10.892,24.328-1.986,33.881h-19.106c8.906-9.553,10.39-22.342-1.986-33.881Z" transform="translate(-1261.861 5043.824)" fill="#8dc0ef"/>
      <path id="Path_4057" data-name="Path 4057" d="M2087.5,923.322c-12.824,11.039-10.544,62.741-7.479,66.3H2072.9c3.067-3.561,5.346-55.262-7.479-66.3Z" transform="translate(-1261.917 5043.773)" fill="#8dc0ef"/>
      <path id="Path_4058" data-name="Path 4058" d="M2085.314,946.01c-4.178,4.327-4.27,8.007.44,12.555h-18.143c4.711-4.547,4.618-8.228.44-12.555Z" transform="translate(-1262.139 5041.477)" fill="#8dc0ef"/>
      <path id="Path_4059" data-name="Path 4059" d="M2084.738,946.76c-9.008,7.925-7.5,41.672-4.4,45.2h-7.055c3.1-3.528,4.611-37.275-4.4-45.2Z" transform="translate(-1262.268 5041.399)" fill="#8dc0ef"/>
      <path id="Path_4060" data-name="Path 4060" d="M2084.516,982.2c-8.471,6.152-6.086,10.65-3.873,13.7h-7.6c2.213-3.047,4.6-7.546-3.872-13.7Z" transform="translate(-1262.297 5037.811)" fill="#8dc0ef"/>
    </g>
  </g>
</svg>
