<svg xmlns="http://www.w3.org/2000/svg" xmlns:xlink="http://www.w3.org/1999/xlink" width="537.675" height="387.88" viewBox="0 0 537.675 387.88"><defs><style>.a{fill:#1f3598;}.b,.q,.y{fill:#647ddd;}.b{opacity:0.17;}.c{fill:#bddcff;}.d{fill:#8dc0ef;}.e{fill:#e2e8f2;}.f{fill:rgba(15,0,0,0.1);}.g{fill:#c4e4f9;}.h{fill:#0f62fe;}.i{opacity:0.18;}.j{fill:#97aabc;}.k{fill:#3772ce;}.l{fill:#ff8358;}.m{fill:#ced6e9;}.n{mix-blend-mode:multiply;isolation:isolate;}.o{fill:#fab300;}.p{fill:#f2f4fa;}.r{fill:#bfc7d8;}.s{fill:#a0d2ff;}.t{fill:#fff;}.u{fill:#e91e63;}.v{fill:#00bcd4;}.w{fill:#4caf50;}.x{fill:#ff9800;}.y{opacity:0.22;}.z{fill:#ffc7cb;}.aa{filter:url(#a);}</style><filter id="a" x="222.037" y="195.398" width="127.35" height="121.275" filterUnits="userSpaceOnUse"><feOffset input="SourceAlpha"/><feGaussianBlur stdDeviation="3" result="b"/><feFlood flood-opacity="0.161"/><feComposite operator="in" in2="b"/><feComposite in="SourceGraphic"/></filter></defs><g transform="translate(-387.325 -2095.448)"><g transform="translate(-19 520)"><path class="a" d="M1921.89,746.8l-.492.049Z" transform="translate(-1236.739 828.647)"/><g transform="translate(1538.325 -10061.071)"><path class="b" d="M2072.958,1008.589c-9.1,0-16.508,4.886-16.508,10.893s7.405,10.893,16.508,10.893,16.508-4.886,16.508-10.893S2082.06,1008.589,2072.958,1008.589Z" transform="translate(-3135.269 10856.271)"/><path class="c" d="M2083.422,998.56l-3.828,19.187h-25.36l-3.828-19.187Z" transform="translate(-3126.776 10853.26)"/><path class="c" d="M2082.1,1025.672c0,3.244-4.915,6.852-12.054,7.053-.206,0-.417.01-.627.01-7.474,0-12.68-3.723-12.68-7.063s5.206-7.068,12.68-7.068a20.252,20.252,0,0,1,5.278.675C2079.23,1020.5,2082.1,1023.193,2082.1,1025.672Z" transform="translate(-3129.278 10845.337)"/><path class="d" d="M2094.624,998.561l-3.828,19.187c0,3.244-4.914,6.852-12.053,7.053a12.414,12.414,0,0,0,2.23-2.967,17.777,17.777,0,0,0,1.545-4.087,33.812,33.812,0,0,0,.876-6.393c.062-1.1.1-2.191.129-3.277q.137-4.759.278-9.517Z" transform="translate(-3137.977 10853.26)"/><ellipse class="e" cx="16.508" cy="10.893" rx="16.508" ry="10.893" transform="translate(-1076.369 11840.927)"/><ellipse class="a" cx="12.68" cy="7.065" rx="12.68" ry="7.065" transform="translate(-1072.542 11844.754)"/><circle class="d" cx="11.386" cy="11.386" r="11.386" transform="translate(-1072.924 11807.111) rotate(-80.783)"/><circle class="d" cx="8.073" cy="8.073" r="8.073" transform="translate(-1070.409 11810.067) rotate(-22.5)"/><circle class="d" cx="8.788" cy="8.788" r="8.788" transform="translate(-1071.343 11839.569) rotate(-67.5)"/><path class="d" d="M2078.8,998.442a3.162,3.162,0,1,1-3.161-3.161A3.162,3.162,0,0,1,2078.8,998.442Z" transform="translate(-3135.5 10854.557)"/><path class="d" d="M2080.81,920.662c-2.526,3.225-2.447,4.14-1.416,6.856h-15.1c1.03-2.716,1.11-3.631-1.416-6.856Z" transform="translate(-3131.707 10884.055)"/><path class="d" d="M2080.394,922.824c-8.328,7.764-7.329,16.369-1.336,22.8H2066.2c5.993-6.428,6.991-15.033-1.336-22.8Z" transform="translate(-3132.492 10883.2)"/><path class="d" d="M2080.277,923.322c-8.629,7.428-7.095,42.215-5.032,44.611h-4.792c2.063-2.4,3.6-37.183-5.032-44.611Z" transform="translate(-3132.711 10883.003)"/><path class="d" d="M2079.523,946.01c-2.811,2.911-2.873,5.388.3,8.447h-12.208c3.169-3.06,3.107-5.536.3-8.447Z" transform="translate(-3133.577 10874.034)"/><path class="d" d="M2079.552,946.76c-6.062,5.333-5.047,28.039-2.959,30.413h-4.747c2.088-2.374,3.1-25.08-2.959-30.413Z" transform="translate(-3134.081 10873.737)"/><path class="d" d="M2079.494,982.2c-5.7,4.139-4.095,7.166-2.606,9.217h-5.116c1.489-2.051,3.094-5.078-2.605-9.217Z" transform="translate(-3134.192 10859.729)"/></g><g transform="translate(406.325 1842.413)"><path class="f" d="M276,660H813.675s-11.269,20.927-37.026,17.708a149.484,149.484,0,0,1-20.927-1.61c-9.659-1.61-24.147,3.22-27.367,8.049,0,0-24.147,14.488-64.392,0,0,0-37.026-16.1-62.782-1.61,0,0-19.318,20.928-69.222-4.829,0,0-12.879-8.049-35.416,8.049,0,0-22.537,19.318-66-8.049,0,0-24.147-6.439-51.514,6.439C379.028,684.147,324.294,692.2,276,660Z" transform="translate(-276 -571.461)"/><path class="g" d="M582.407,634.075s27.206,15.026,15.19,36.5C597.6,670.576,578.133,666.564,582.407,634.075Z" transform="translate(-89.525 -587.27)"/><path class="h" d="M614.007,623s14.488,46.684-22.537,57.953C591.47,680.953,573.762,655.2,614.007,623Z" transform="translate(-85.991 -594.023)"/><path class="h" d="M334.352,621.92s-41.564,22.958-23.207,55.765C311.145,677.685,340.883,671.557,334.352,621.92Z" transform="translate(-257.422 -594.682)"/><path class="g" d="M292.061,605s-22.135,71.324,34.43,88.539C326.492,693.539,353.546,654.189,292.061,605Z" transform="translate(-268.808 -605)"/></g><g transform="translate(-453.413 -216.814)"><g transform="translate(1144.949 1948.182)"><g class="i" transform="translate(0)"><path class="a" d="M1193.745,2042.823c-8.527,4.923-22.351,4.923-30.877,0s-8.527-12.905,0-17.827,22.35-4.923,30.877,0S1202.271,2037.9,1193.745,2042.823Z" transform="translate(-1156.472 -2021.303)"/></g></g><g transform="translate(1121.093 1825.934)"><path class="j" d="M1125.79,1896.536a4.7,4.7,0,0,1-3.1-8.226l11.062-9.7a39.47,39.47,0,0,0,11.756-18.217l5.187-17.064a4.695,4.695,0,1,1,8.984,2.73l-5.187,17.064a48.844,48.844,0,0,1-14.55,22.547l-11.062,9.7A4.679,4.679,0,0,1,1125.79,1896.536Z" transform="translate(-1121.093 -1840.001)"/></g><g transform="translate(1146.334 1947.144)"><path class="a" d="M1175.72,2020.075a2.7,2.7,0,0,1,2.36,1.769,7.927,7.927,0,0,1,.415,3.084,2.621,2.621,0,0,1-2.276,3.313,18.645,18.645,0,0,1-3.254.676c-1.252.108-2.521-.038-3.764.151-.792.121-1.556.375-2.336.558a13.305,13.305,0,0,1-6.717-.172,2.522,2.522,0,0,1-1.306-.719,1.9,1.9,0,0,1,.185-2.311,5.555,5.555,0,0,1,2.077-1.367l6.868-3.154a18.286,18.286,0,0,1,7.04-2.138c.789-.018,1.83.34,1.758,1.126Z" transform="translate(-1158.527 -2019.764)"/></g><g transform="translate(1158.185 1940.951)"><g transform="translate(0 0)"><path class="e" d="M2.866,0h0A2.867,2.867,0,0,1,5.733,2.867V7.288a2.866,2.866,0,0,1-2.866,2.866h0A2.867,2.867,0,0,1,0,7.287V2.866A2.866,2.866,0,0,1,2.866,0Z" transform="translate(6.54 10.12) rotate(175.337)"/></g></g><g transform="translate(1169.706 1951.94)"><g transform="translate(0)"><path class="a" d="M1196.181,2035.4c-.4.889-.815,1.769-1.2,2.653a23.93,23.93,0,0,0-1.081,2.769c-.426,1.424-1.228,4.195-.221,5.488,1.518,1.946,3.993.279,5.226-1.095a56.943,56.943,0,0,0,5.1-6.62,8.735,8.735,0,0,0,1.536-3.375c.632-3.908-1.248-9.449-5.189-8.152-1.439.473-2.052,1.7-2.393,3.3A25.167,25.167,0,0,1,1196.181,2035.4Z" transform="translate(-1193.189 -2026.876)"/></g></g><g transform="translate(1174.499 1948.114)"><g transform="translate(0 0)"><rect class="e" width="5.733" height="10.154" rx="2.867" transform="translate(5.733 10.154) rotate(180)"/></g></g><g transform="translate(1151.141 1861.579)"><g transform="translate(0)"><path class="k" d="M1177.874,1892.865l14.475,5.018,5.783,6.6-1.729,41.63v36.342a3.462,3.462,0,0,1-3.462,3.462h-2.38a3.462,3.462,0,0,1-3.45-3.172l-3.645-43.393-1.2-16.441-3.008-1.22-1.38,19.705,1.623,33.859a3.369,3.369,0,0,1-3.613,3.522l-1.677-.123a3.37,3.37,0,0,1-3.087-2.874l-5.227-35.822a22.549,22.549,0,0,1-.236-3.251v-37.377Z" transform="translate(-1165.657 -1892.865)"/></g></g><g transform="translate(1121.276 1870.724)"><g transform="translate(0)"><path class="l" d="M1127.072,1906.427l-4.17,3.657a4.513,4.513,0,0,0,5.951,6.787l4.517-3.961A8.1,8.1,0,0,0,1127.072,1906.427Z" transform="translate(-1121.364 -1906.427)"/></g></g><g transform="translate(1150.172 1824.133)"><g transform="translate(0)"><path class="e" d="M1164.219,1847.727v40.436l10.09,6.192a22.077,22.077,0,0,0,13.846,3.159,21.844,21.844,0,0,0,4.982-1.12l3.556-1.263-1.317-44.841a7.626,7.626,0,0,0-2.076-4.964,7.168,7.168,0,0,0-1.661-1.354l-3.177-2-.885-.56a28.013,28.013,0,0,0-11.246-3.918,18.544,18.544,0,0,0-2.383-.162,8.609,8.609,0,0,0-4.26.9A11,11,0,0,0,1164.219,1847.727Z" transform="translate(-1164.219 -1837.33)"/></g></g><g transform="translate(1171.821 1832.13)"><path class="e" d="M1198.614,1901.378a21.857,21.857,0,0,0,4.982-1.12l3.556-1.263-1.318-44.841a7.626,7.626,0,0,0-2.076-4.964,16.318,16.318,0,0,0-2.094.342,2.087,2.087,0,0,0-.578.235,5.424,5.424,0,0,0-2.563,1.354c-1.57,1.643-1.191,4.314-.415,6.463.759,2.166,1.805,4.423,1.209,6.625-.433,1.57-1.642,2.852-1.968,4.459-.668,3.393,2.925,11.878,2.582,15.326-.2,1.968-1.625,3.556-2.527,5.307C1195.491,1893.11,1196.267,1897.768,1198.614,1901.378Z" transform="translate(-1196.326 -1849.19)"/></g><g transform="translate(1154.589 1823.116)"><g transform="translate(0 0)"><path class="e" d="M1188.7,1843.114l-5.913,6.63a1.591,1.591,0,0,1-2.48-.132l-3.438-4.776-4.941.881a.985.985,0,0,1-1.158-.97v-1.532a7.191,7.191,0,0,1,5.684-7.034,16.536,16.536,0,0,1,3.452-.359,14.452,14.452,0,0,1,8.288,2.4A3.306,3.306,0,0,1,1188.7,1843.114Z" transform="translate(-1170.769 -1835.822)"/></g></g><g transform="translate(1168.245 1813.974)"><path class="a" d="M1191.022,1822.436c.016,0,.031.015.047.032a.919.919,0,0,0,.016-.2A.238.238,0,0,1,1191.022,1822.436Z" transform="translate(-1191.022 -1822.263)"/></g><g transform="translate(1158.786 1822.92)"><g transform="translate(0)"><path class="l" d="M1182.356,1843.223c-3.006,0-5.361-1.69-5.361-3.846s2.355-3.846,5.361-3.846,5.361,1.69,5.361,3.846S1185.362,1843.223,1182.356,1843.223Z" transform="translate(-1176.995 -1835.53)"/></g></g><g transform="translate(1148.42 1802.239)"><path class="m" d="M1161.621,1809.449a52.375,52.375,0,0,0,5.478,2.8l1.056-5.684a14.581,14.581,0,0,0-2.525-1.687c-.686-.211-2.878,1.54-2.878,1.54Z" transform="translate(-1161.621 -1804.859)"/></g><g transform="translate(1159.511 1812.152)"><g transform="translate(0)"><path class="l" d="M1187.059,1833.7v0h0v-9.645a4.56,4.56,0,0,0-2.816-4.188,4.839,4.839,0,0,0-1.535-.307c-.252,0-.505.018-.74.036a4.508,4.508,0,0,0-3.9,4.459v9.645h0v.474h.051c.311,1.575,2.148,2.752,4.443,2.752s4.133-1.177,4.443-2.752h.051Z" transform="translate(-1178.07 -1819.561)"/></g></g><g class="n" transform="translate(1159.527 1810.779)"><g transform="translate(0)"><path class="l" d="M1178.619,1832.635c3.729-.193,6.689-2.574,6.689-5.463v-9.263a8.742,8.742,0,0,0-2.662-.385h-.245a5.239,5.239,0,0,0-.525.035h-.158a3.65,3.65,0,0,0-1.208.42,2.046,2.046,0,0,0-.49.3l-.209.157a6.6,6.6,0,0,0-.491.49,5.1,5.1,0,0,0-1.225,3.362v8.283Z" transform="translate(-1178.094 -1817.524)"/></g></g><g transform="translate(1151.055 1802.256)"><g transform="translate(0 0)"><path class="l" d="M1180.841,1823.843c1.009-1.3,1.531-3.5,1.885-5.693.252-1.559,2.358-.906,2.364-2.5,0-1.131-1.058-2.339-1.535-3.319a7.109,7.109,0,0,0-2.357-2.885,14.067,14.067,0,0,0-4.4-1.856,34.585,34.585,0,0,0-5.263-1.025l-.49-1.682h-5.516v15.8c0,.153.082.37.106.655.366,4.194,4.476,6.291,7.971,6.383a7.408,7.408,0,0,0,4.367-1.324A12.286,12.286,0,0,0,1180.841,1823.843Z" transform="translate(-1165.529 -1804.885)"/></g></g><g transform="translate(1147.577 1796.815)"><path class="a" d="M1162.031,1801.342a40.48,40.48,0,0,1,5.422-2.7,16.728,16.728,0,0,1,6.4-1.805,10.255,10.255,0,0,1,8.138,3.03c2.872,3.168,3.4,7.764,3.026,11.831a10.574,10.574,0,0,1-1.232,4.7c-.459.721-2.808,2.937-3.84,2.063-.875-.74.192-2.114-.215-3.23a.968.968,0,0,0-.226-.414.916.916,0,0,0-.78-.1,1.19,1.19,0,0,1-.636,0c-.458-.174-.519-.788-.488-1.277.1-1.579.32-3.4-1.5-3.881-1.257-.333-2.675.13-3.894-.4-2.472-1.072-4.629-2.915-7.264-3.484-.359-.077-.986-.3-1.076.061-.29,1.154-.108,1.548-.4,2.335a3.79,3.79,0,0,1-2.723-1.945,3.913,3.913,0,0,1,.069-3.48A3.988,3.988,0,0,1,1162.031,1801.342Z" transform="translate(-1160.371 -1796.815)"/></g><g transform="translate(1161.072 1811.836)"><g transform="translate(0 0)"><g transform="translate(0)"><rect class="k" width="7.718" height="0.503" transform="matrix(0.85, -0.526, 0.526, 0.85, 0, 4.062)"/></g></g></g><g transform="translate(1165.405 1812.049)"><g transform="translate(0 2.671)"><path class="l" d="M1186.81,1823.463a.692.692,0,0,0,.525.043c.018-.045.009-.094.035-.138Z" transform="translate(-1186.81 -1823.369)"/></g><g transform="translate(0.464 0)"><path class="l" d="M1190.7,1819.447a1.9,1.9,0,0,0-1.991,1.232,5.642,5.642,0,0,1-.554,1.147,1.135,1.135,0,0,1-.594.39,1.216,1.216,0,0,0,.89,1.5,2.492,2.492,0,0,0,2-.592,3.064,3.064,0,0,0,1.286-1.852A1.613,1.613,0,0,0,1190.7,1819.447Z" transform="translate(-1187.498 -1819.408)"/></g></g><g transform="translate(1149.27 1807.762)"><g transform="translate(4.992 3.428)"><path class="o" d="M1170.535,1819.2c.153-.519.487-.7.873-.48a2.3,2.3,0,0,1,.872,1.488l.249-.041a2.968,2.968,0,0,0-1.121-1.913c-.5-.285-.925-.048-1.122.618Z" transform="translate(-1170.286 -1818.135)"/></g><g transform="translate(4.992 3.428)"><path class="k" d="M1170.535,1819.2c.153-.519.487-.7.873-.48a2.3,2.3,0,0,1,.872,1.488l.249-.041a2.968,2.968,0,0,0-1.121-1.913c-.5-.285-.925-.048-1.122.618Z" transform="translate(-1170.286 -1818.135)"/></g><g transform="translate(6.737 3.888)"><path class="k" d="M1176.786,1825.859a2.54,2.54,0,0,1-1.256-.381,5.876,5.876,0,0,1-2.656-4.6,1.788,1.788,0,0,1,2.908-1.679,5.881,5.881,0,0,1,2.656,4.6,2.014,2.014,0,0,1-.866,1.856A1.557,1.557,0,0,1,1176.786,1825.859Zm-2.26-6.538a1.046,1.046,0,0,0-.534.136,1.543,1.543,0,0,0-.616,1.42,5.322,5.322,0,0,0,2.405,4.165,1.3,1.3,0,0,0,2.153-1.243,5.323,5.323,0,0,0-2.4-4.165A2.056,2.056,0,0,0,1174.526,1819.321Z" transform="translate(-1172.873 -1818.817)"/></g><path class="k" d="M1166.795,1820.091a2.549,2.549,0,0,1-1.256-.38,5.882,5.882,0,0,1-2.657-4.6,1.788,1.788,0,0,1,2.908-1.68,5.883,5.883,0,0,1,2.657,4.6,2.015,2.015,0,0,1-.867,1.856A1.548,1.548,0,0,1,1166.795,1820.091Zm-2.259-6.538a1.052,1.052,0,0,0-.535.136,1.546,1.546,0,0,0-.616,1.421,5.324,5.324,0,0,0,2.405,4.166,1.3,1.3,0,0,0,2.154-1.244,5.322,5.322,0,0,0-2.405-4.165A2.054,2.054,0,0,0,1164.535,1813.554Z" transform="translate(-1162.882 -1813.05)"/></g><g transform="translate(1173.28 1831.671)"><path class="j" d="M1207.392,1913.591a4.7,4.7,0,0,1-4.55-5.869l4.83-18.722a23.852,23.852,0,0,0-1.011-14.892l-7.82-19.125a4.7,4.7,0,0,1,8.692-3.554l7.82,19.125a33.305,33.305,0,0,1,1.412,20.793l-4.829,18.722A4.7,4.7,0,0,1,1207.392,1913.591Z" transform="translate(-1198.489 -1848.509)"/><g transform="translate(4.403 56.102)"><path class="l" d="M1214.8,1934.75c-1.385,2.713.145,6.6-1.748,8.927a3.732,3.732,0,0,1-4.375.928,6.164,6.164,0,0,1-3.088-3.712,13.562,13.562,0,0,1-.543-5.06,5.307,5.307,0,0,1,.536-2.4,3.7,3.7,0,0,1,2.673-1.646,6.682,6.682,0,0,1,6.768,3.458Z" transform="translate(-1205.019 -1931.712)"/></g></g><g transform="translate(1152.375 1817)"><g transform="translate(0 0)"><path class="p" d="M1173.071,1829.861l.2.348c-.048,1.769-1.323,2.471-2.891,1.566a6.416,6.416,0,0,1-2.891-4.9l.2-.121Z" transform="translate(-1167.486 -1826.75)"/></g></g></g><g transform="translate(1786.325 -9064.071)"><g transform="translate(-999.105 10836.854)"><g class="i" transform="translate(0 0)"><ellipse class="q" cx="24.635" cy="14.223" rx="24.635" ry="14.223"/></g></g><g transform="translate(-978.236 10703.922)"><g transform="translate(0 0)"><path class="k" d="M1639.908,1538.164a5.3,5.3,0,0,1-4.978-7.109l12.82-31.3a5.3,5.3,0,0,1,9.958,3.62l-12.819,31.3A5.3,5.3,0,0,1,1639.908,1538.164Z" transform="translate(-1634.61 -1496.268)"/></g></g><g transform="translate(-997.125 10834.994)"><g transform="translate(0 0)"><path class="a" d="M1625.418,1695.009a3.043,3.043,0,0,1,2.663,2,8.931,8.931,0,0,1,.469,3.479,2.959,2.959,0,0,1-2.568,3.738,21.045,21.045,0,0,1-3.672.762c-1.412.122-2.844-.042-4.247.171-.893.136-1.755.423-2.635.63a15.014,15.014,0,0,1-7.578-.195,2.847,2.847,0,0,1-1.474-.812,2.141,2.141,0,0,1,.209-2.606,6.255,6.255,0,0,1,2.344-1.542l7.749-3.558c2.533-1.163,5.156-2.348,7.943-2.413.891-.02,2.065.384,1.984,1.271Z" transform="translate(-1606.02 -1694.658)"/></g></g><g transform="translate(-983.753 10828.004)"><g transform="translate(0 0)"><rect class="m" width="6.469" height="11.457" rx="3.234" transform="translate(7.375 11.419) rotate(175.355)"/></g></g><g transform="translate(-971.204 10840.857)"><g transform="translate(0 0)"><path class="a" d="M1648.918,1712.107c-.49.894-1,1.779-1.474,2.669a21.811,21.811,0,0,0-1.325,2.784c-.522,1.433-1.5,4.22-.269,5.52,1.858,1.958,4.891.281,6.4-1.1a60.192,60.192,0,0,0,6.251-6.658,8.165,8.165,0,0,0,1.882-3.4c.775-3.931-1.528-9.5-6.355-8.2a4.053,4.053,0,0,0-2.932,3.316A22.451,22.451,0,0,1,1648.918,1712.107Z" transform="translate(-1645.253 -1703.532)"/></g></g><g transform="translate(-964.589 10836.087)"><g transform="translate(0 0)"><rect class="m" width="6.469" height="11.457" rx="3.234" transform="translate(6.469 11.457) rotate(180)"/></g></g><g transform="translate(-990.945 10738.447)"><g transform="translate(0 0)"><path class="a" d="M1629.159,1548.53l16.333,5.662,6.315,12.482-1.742,41.94v39.491a3.906,3.906,0,0,1-3.906,3.906h-2.687a3.906,3.906,0,0,1-3.892-3.579l-4.112-47.447-1.358-18.55-3.4-1.376-1.556,22.233,1.831,36.69a3.8,3.8,0,0,1-4.077,3.974l-1.892-.139a3.8,3.8,0,0,1-3.484-3.243l-6.164-40.73v-44.017Z" transform="translate(-1615.374 -1548.53)"/></g></g><g transform="translate(-968.018 10834.79)"><g transform="translate(0 0)"><path class="a" d="M1655.476,1696.484h2.687a3.862,3.862,0,0,0,3.286-1.254c.728-.867,1.376-1.124,1.376.007v3c0,2.993-1.67,5.42-4.663,5.42h-2.687a5.42,5.42,0,0,1-5.4-4.966v-3.714a.625.625,0,0,1,1.158-.326C1651.875,1695.626,1652.953,1696.507,1655.476,1696.484Z" transform="translate(-1650.075 -1694.351)"/></g></g><g transform="translate(-985.893 10828.651)"><g transform="translate(0 0)"><path class="a" d="M1627.587,1687.311h2.272c1.044,0,3.1-.469,3.489-1.783.282-.95,1.094-.326,1.094.676v2.658a4.7,4.7,0,0,1-4.583,4.808h-2.272a4.676,4.676,0,0,1-4.567-4.405v-3.295a.525.525,0,0,1,.979-.289C1624.542,1686.55,1625.453,1687.332,1627.587,1687.311Z" transform="translate(-1623.02 -1685.058)"/></g></g><g transform="translate(-990.954 10694.507)"><g transform="translate(0 0)"><path class="j" d="M1652,1547.96l-4.011.707a24.816,24.816,0,0,1-21.246-2.3l-11.385-6.269v-45.624a13.768,13.768,0,0,1,.622-4.574,12.216,12.216,0,0,1,3.333-5.2.083.083,0,0,1,.014-.022,12.43,12.43,0,0,1,2.2-1.638,9.729,9.729,0,0,1,4.812-1.017,20.664,20.664,0,0,1,2.684.181,31.634,31.634,0,0,1,12.69,4.422l1,.635,3.578,2.258a7.931,7.931,0,0,1,1.876,1.529c.18.188.353.39.512.591.079.1.151.2.224.3.13.181.26.368.375.563.108.18.209.36.3.548.072.137.136.274.195.412a3.743,3.743,0,0,1,.151.361,1.219,1.219,0,0,1,.058.151.491.491,0,0,1,.043.129c.05.123.086.246.123.368.043.145.087.289.115.433a8.911,8.911,0,0,1,.216,1.255c.015.159.022.318.03.484l.548,19.4Z" transform="translate(-1615.36 -1482.02)"/></g></g><g transform="translate(-990.954 10697.161)"><g transform="translate(0 0)"><path class="e" d="M1652,1549.323l-4.011.707a25.118,25.118,0,0,1-5.62,1.263c-2.647-4.076-3.527-5-1.37-9.3,1.024-1.977,2.633-3.766,2.857-5.989a6.89,6.89,0,0,0-.239-2.265,12.624,12.624,0,0,1-14.356,2.474c-4.257-2.027-9.256-4.4-13.9-6.6v-34.5a12.293,12.293,0,0,1,.622-3.852c1.876-2.937,3.188-4.97,3.333-5.2a.1.1,0,0,1,.014-.022l1.428,15.656,12.178,6.363,9.783-19.435,4.826,3.86c.209-.029.419-.051.628-.072.18.188.353.39.512.591.079.1.151.2.224.3.13.181.26.368.375.563.108.18.209.361.3.548.072.137.136.274.195.412a3.109,3.109,0,0,1,.151.361,1.21,1.21,0,0,1,.058.151.488.488,0,0,1,.043.13,3.858,3.858,0,0,1,.123.368c.043.144.087.288.115.433a8.9,8.9,0,0,1,.216,1.255c.015.158.022.317.03.484l.548,23.728Z" transform="translate(-1615.36 -1486.038)"/></g></g><g transform="translate(-979.732 10683.365)"><g transform="translate(0 11.175)"><path class="m" d="M1638.7,1491.183c3.561,0,6.351-2,6.351-4.557s-2.79-4.557-6.351-4.557-6.351,2-6.351,4.557S1635.136,1491.183,1638.7,1491.183Z" transform="translate(-1632.346 -1482.069)"/></g><g transform="translate(1.28 0)"><path class="l" d="M1634.283,1480.107v0h0v-10.2a4.616,4.616,0,0,1,1.384-3.263,5.084,5.084,0,0,1,1.793-1.164,5.779,5.779,0,0,1,1.731-.325c.285,0,.57.019.835.038a5.172,5.172,0,0,1,2.913,1.355,4.586,4.586,0,0,1,1.487,3.359v10.2h0v.5h-.058c-.35,1.666-2.424,2.909-5.014,2.909s-4.663-1.243-5.013-2.909h-.058Z" transform="translate(-1634.283 -1465.155)"/></g></g><g transform="translate(-1003.757 10697.165)"><g transform="translate(0 0)"><path class="j" d="M1636.139,1488.62l-10.871,8.729-2.148.208-10.366-11.514c-5.167,8.039-12.344,16.523-15.725,25.37a10.131,10.131,0,0,0-.986,5.052c.62,4.016,8.511,6.1,11.626,7.574q7.512,3.554,15.017,7.125a12.638,12.638,0,0,0,16.365-5.085l6.316-10.911a17.6,17.6,0,0,0-4.246-22.567Z" transform="translate(-1595.981 -1486.043)"/></g></g><g transform="translate(-989.271 10669.408)"><g transform="translate(0 0)"><g transform="translate(2.996 4.495)"><path class="l" d="M1622.454,1463.531a10.872,10.872,0,0,0,1.9,6.507,8.261,8.261,0,0,0,6.4,2.8,7.1,7.1,0,0,0,3.809-.839c2.181-1.3,3.2-4.115,3.753-6.77a22.35,22.35,0,0,0,.411-3.059,11.381,11.381,0,0,0-.34-3.464,9.967,9.967,0,0,0-4.362-5.684,15.722,15.722,0,0,0-6.628-2.1,5.311,5.311,0,0,0-3.328.4,2.831,2.831,0,0,0-1.345,1.864,2.189,2.189,0,0,0-.029.854c-.07,2.174-.141,4.333-.213,6.507C1622.454,1461.528,1622.426,1462.521,1622.454,1463.531Z" transform="translate(-1622.442 -1450.835)"/></g><g transform="translate(2.958 16.667)"><path class="a" d="M1622.85,1471.164c-.834,2.371-.278,6.384-.357,8.171a2.31,2.31,0,0,0,.224,1.373,2.264,2.264,0,0,0,1.494.783,14.829,14.829,0,0,0,5.511.413c4.62-.731,7.724-4.888,8.572-9.208a22.36,22.36,0,0,0,.411-3.059,3.574,3.574,0,0,0-.566-.372c-.041,2.122-.772,6.433-3.084,7.084-2.828.8-3.1-2.973-4.21-4.7a4.893,4.893,0,0,0-2.514-1.742,6.288,6.288,0,0,0-3.832-.519A2.51,2.51,0,0,0,1622.85,1471.164Z" transform="translate(-1622.384 -1469.258)"/></g><g transform="translate(18.671 15.25)"><path class="a" d="M1646.167,1467.284c.014,0,.028.016.042.031a1.006,1.006,0,0,0,.014-.2A.248.248,0,0,1,1646.167,1467.284Z" transform="translate(-1646.167 -1467.113)"/></g><g transform="translate(17.863 15.244)"><path class="a" d="M1645.752,1467.282c-.057-.032-.1-.063-.156-.094-.141-.077-.34-.139-.439,0-.07.094.042.2.128.218l-.341.357A.7.7,0,0,0,1645.752,1467.282Z" transform="translate(-1644.944 -1467.105)"/></g><path class="a" d="M1641.306,1448.97c-3.2-5.941-12.706-5.124-18.351-4.524-4.322.462-7.351,4.368-2.746,6.609a4.428,4.428,0,0,0,1.7.33c-.024-.022-.049-.039-.072-.061.254.034.856.073.858.074-.03,0-.561,0-.786-.013,2.873,2.7,7.681,2.194,11.614,2.833a18.585,18.585,0,0,1,.444,4.221,3.844,3.844,0,0,0,.179,1.581,2.17,2.17,0,0,0,1.923.754l0,0c.04.283.083.566.138.85.709,3.634,4.126,4.027,4.249.4C1640.6,1457.733,1643.426,1452.915,1641.306,1448.97Z" transform="translate(-1617.907 -1444.031)"/></g><g transform="translate(17.193 13.777)"><path class="l" d="M1647.082,1464.922a1.872,1.872,0,0,0-1.961,1.213,5.528,5.528,0,0,1-.546,1.13,1.12,1.12,0,0,1-.585.384,1.2,1.2,0,0,0,.876,1.482,2.458,2.458,0,0,0,1.971-.584,3.015,3.015,0,0,0,1.267-1.823A1.589,1.589,0,0,0,1647.082,1464.922Z" transform="translate(-1643.93 -1464.884)"/></g></g><g transform="translate(-996.884 10716.173)"><g transform="translate(20.714 6.557)"><path class="l" d="M1637.773,1529.308l1.391-4.1a.694.694,0,0,1,.676-.471l3.493.089a.254.254,0,0,1,.123.036l5.336,3.234a.25.25,0,0,1,.076.357l-5.342,7.678a.251.251,0,0,1-.409,0l-2.87-3.972a.246.246,0,0,0-.033-.037l-2.256-2.09A.7.7,0,0,1,1637.773,1529.308Z" transform="translate(-1637.736 -1524.741)"/></g><g transform="translate(0 0)"><path class="l" d="M1606.384,1520.517l4.361-5.7h2.492l3.607,5.7Z" transform="translate(-1606.384 -1514.815)"/></g></g></g><g transform="translate(1910.325 -9060.071)"><g transform="translate(-1055.048 10911.026)"><g transform="translate(0 3.339)"><path class="k" d="M1070.35,2048.857c-2.88,2.037-2.6,3.943-6.921,2.88a8.022,8.022,0,0,1-3.74-1.792,2.961,2.961,0,0,1-.708-3.577,4.783,4.783,0,0,1,3.129-1.738,19.245,19.245,0,0,1,6.2-.359,5.29,5.29,0,0,1,2.785.913C1072.631,2046.422,1071.642,2047.943,1070.35,2048.857Z" transform="translate(-1058.638 -2044.167)"/></g><g transform="translate(4.901)"><path class="l" d="M1061.108,2039.985a7.569,7.569,0,0,0-1.945,1.4,27.912,27.912,0,0,0-5.9,6.027,5.083,5.083,0,0,0,3.516,2.785,24.064,24.064,0,0,0,2.738-.969,14.94,14.94,0,0,0,6.048-5.014c.182-.264.359-.62.177-.885l-2.412-2.335c-2.416-2.339-5.989,1-8.425,2.271-.921.481-1.966,1.149-2,2.187-.033.971.863,1.711,1.74,2.127a8.319,8.319,0,0,0,2.746.761Z" transform="translate(-1052.903 -2039.985)"/></g><g transform="translate(16.139 3.713)"><g transform="translate(0)"><rect class="k" width="3.356" height="8.046" rx="1.403"/></g></g><g transform="translate(3.265 0.218)"><path class="k" d="M1065.53,2040.482a3.831,3.831,0,0,0-3.5.508c-1.693,1.022-2.947,2.691-4.424,3.976-2.037,1.771-4.088,2.762-6.58,1.622-.821.5-1.395,1.072-1.369,1.734.037.964,1.764,2.2,2.526,2.724,2.393,1.647,6.242-1,8.189-1.987,1.534-.78,3.159-.635,4.62-1.285C1066.96,2046.9,1067.584,2042.331,1065.53,2040.482Z" transform="translate(-1049.657 -2040.258)"/></g></g><g transform="translate(-1051.216 10760.978)"><path class="l" d="M1064.452,1873.589a23.4,23.4,0,0,0,.57-2.625c-.335-1.252-.632-2.379-.61-2.466l-15.015-15.17a3.194,3.194,0,1,0-5.111,3.832l14.2,17.671.035.042A3.457,3.457,0,0,0,1064.452,1873.589Z" transform="translate(-1043.649 -1852.049)"/></g><g transform="translate(-1023.748 10772.871)"><path class="a" d="M1028.449,1899.254l.069,0a4.535,4.535,0,0,0,4.027-5.344l-4-23.034a4.738,4.738,0,0,0-9.337,1.619l1.574,9.081,1.549,8.945h0C1023.15,1894.765,1023.083,1899.576,1028.449,1899.254Z" transform="translate(-1019.141 -1866.945)"/></g><g transform="translate(-1058.835 10903.333)"><g class="i"><path class="q" d="M1062.315,2052.148c-8.638,4.987-22.643,4.987-31.281,0s-8.638-13.073,0-18.06,22.643-4.988,31.281,0S1070.952,2047.162,1062.315,2052.148Z" transform="translate(-1024.556 -2030.348)"/></g></g><g transform="translate(-1049.861 10820.517)"><path class="l" d="M1056.057,1982.124l3.313-43.479-.855-9.84-20.324,3.068-11.762-5.253-4.1,54.379s5.776,34.941,5.826,35.328a26.131,26.131,0,0,1,.443,5.279,9.639,9.639,0,0,0,6.919-2.393,5.532,5.532,0,0,0-.332-1.912c-.008.057-.019.085-.026-.05l.675-33.11,6.19-37.972.911,16.6,1.108,19.272,2.835,31.348c2.161-.021,5.19-.073,7.348-.184.086-.046.173-.089.259-.136a4.146,4.146,0,0,0-.2-.569Z" transform="translate(-1022.331 -1926.621)"/></g><g transform="translate(-1035.401 10904.919)"><g transform="translate(3.327)"><path class="l" d="M1030.368,2040.914a4.358,4.358,0,0,1-.881-2.541,2.7,2.7,0,0,1,1.482-2.33,7.171,7.171,0,0,1,1.1-.527c2.067-.806,4.77-2.885,7.263-2.892a2.19,2.19,0,0,1,.721-.289l-.129.331a4.274,4.274,0,0,1,2.99,2.069l.117.175c-2.036,1.125-3.6.7-5.414,2.2C1035.332,2039,1033.037,2042.484,1030.368,2040.914Z" transform="translate(-1029.485 -2032.335)"/></g><g transform="translate(0 0.874)"><path class="k" d="M1026.9,2036.088c.519-.986,2.394-1.2,3.423-1.21a10.985,10.985,0,0,1,1.648.113,1.1,1.1,0,0,1,.6.307,1.864,1.864,0,0,0-.127.221,4.7,4.7,0,0,0-.547,1.563.417.417,0,0,0,.181.446,3.058,3.058,0,0,0,1.607.617c1.729.915,3.974-1.5,5.432-2.8,1.063-.939,1.559-.774,2.71-1.452.062-.036.121-.079.184-.113a2.47,2.47,0,0,1,2.945.291,5.185,5.185,0,0,1,.39.712c.958,2.114.346,5.705-2.307,5.665a20.2,20.2,0,0,0-3.967.686c-4.737,2.383-8.452,3.513-11.575-1.569C1026.681,2038.239,1026.312,2037.207,1026.9,2036.088Z" transform="translate(-1026.613 -2033.429)"/></g></g><g transform="translate(-1052.701 10808.815)"><path class="a" d="M1031.222,1911.966l-2.446,3.832a18.342,18.342,0,0,0-2.881,10.091l-4.341,46.431a7.355,7.355,0,0,0,5.151,7.721c8.5,2.62,24.436,5.792,33.007-3.606l1.253-37.3s4.327-21.013-4.312-25.91Z" transform="translate(-1021.521 -1911.966)"/></g><g transform="translate(-1045.965 10770.871)"><path class="e" d="M1051.792,1899.1a31.848,31.848,0,0,0,.079,4.336,2.015,2.015,0,0,1-.916,1.88,26.509,26.509,0,0,1-3.871,2.014c-3.878,1.628-8.325,2.544-12.464,1.628l-.49-.119c-2.377-.608-7.551-2.014-8.017-4.96a1.48,1.48,0,0,1-.039-.363c.008-.276.023-.56.039-.845v-13.222c-1.287-3.831-3.649-6.564-2.472-11.429a17.315,17.315,0,0,1,2.756-6.192c2.18-3,5.324-4.858,9.337-6.027,1.272-.363,2.528-.663,3.665-.9a22.58,22.58,0,0,1,7.362-.277,10.556,10.556,0,0,1,6.595,2.93,5.938,5.938,0,0,1,.553.7c3.064,4.6,1.437,11.027.323,16.018A82.864,82.864,0,0,0,1051.792,1899.1Z" transform="translate(-1023.323 -1864.441)"/></g><g transform="translate(-1034.371 10760.507)"><path class="a" d="M1049.244,1851.644c.016,0,.031.017.046.034a1.065,1.065,0,0,0,.015-.219A.268.268,0,0,1,1049.244,1851.644Z" transform="translate(-1049.244 -1851.459)"/></g><g transform="translate(-1034.313 10760.635)"><path class="l" d="M1046.414,1863.54h-9.234l-1.139-6.8-.854-5.124h9.234Z" transform="translate(-1035.187 -1851.62)"/></g><g class="n" transform="translate(-1033.459 10765.592)"><path class="l" d="M1046.66,1857.828l-4.584,6.964h-.292l-1.139-6.8Z" transform="translate(-1040.645 -1857.828)"/></g><g transform="translate(-1033.688 10758.407)"><path class="l" d="M1047.678,1848.935a.775.775,0,0,0,.59.049c.019-.05.009-.106.038-.154Z" transform="translate(-1047.678 -1848.829)"/></g><g transform="translate(-1033.558 10770.873)"><path class="l" d="M1045.041,1867.483c-1.445,2.117-6.271,1.358-10.877-1.678,1.277-.373,2.533-.672,3.672-.905a22.816,22.816,0,0,1,7.358-.278A3.18,3.18,0,0,1,1045.041,1867.483Z" transform="translate(-1034.164 -1864.443)"/></g><g transform="translate(-1042.052 10740.677)"><g transform="translate(8.092 20.249)"><path class="a" d="M1048.735,1852.169c.014,0,.029.017.042.034a1.12,1.12,0,0,0,.014-.219A.285.285,0,0,1,1048.735,1852.169Z" transform="translate(-1048.735 -1851.984)"/></g><g transform="translate(2.026 3.17)"><path class="l" d="M1034.937,1845.03c.089,2.72.522,5.4,2,7.4a8.411,8.411,0,0,0,6.736,3.179,7.021,7.021,0,0,0,4.01-.953c2.3-1.484,3.369-4.68,3.95-7.7a27.416,27.416,0,0,0,.432-3.479,13.934,13.934,0,0,0-.358-3.939,11.257,11.257,0,0,0-4.591-6.464,15.692,15.692,0,0,0-6.975-2.384,5.223,5.223,0,0,0-3.5.459,3.219,3.219,0,0,0-1.416,2.12,2.65,2.65,0,0,0-.03.971c-.074,2.473-.148,4.928-.223,7.4C1034.937,1842.752,1034.907,1843.882,1034.937,1845.03Z" transform="translate(-1034.924 -1830.592)"/></g><g transform="translate(8.723 18.153)"><path class="l" d="M1047.287,1849.465a.668.668,0,0,0,.544.048c.018-.05.009-.105.037-.154Z" transform="translate(-1047.287 -1849.359)"/></g><path class="k" d="M1028.147,1829.557c7.194-4.168,14.719-4.089,20.014,1.478,2.077,2.184,4.041,8.932,3.769,12.049-.265,3.039-2.573,5.375-4.916,7.084-2.733,2-9.436,6.354-12.719,3.335a5.139,5.139,0,0,1-1.176-1.827c-.874-2.072-.462-4.68-1.764-6.506-1.228-1.719-3.688-2.4-5.016-4.18C1022.827,1836.287,1024.095,1831.906,1028.147,1829.557Z" transform="translate(-1024.291 -1826.622)"/><g transform="translate(5.652 16.289)"><path class="l" d="M1050.673,1848.958a5.967,5.967,0,0,1-1.871,3.843,1.773,1.773,0,0,1-1.511.4c-1.621-.426-1.469-3-.966-4.265a2.914,2.914,0,0,1,2.166-1.891A1.952,1.952,0,0,1,1050.673,1848.958Z" transform="translate(-1045.981 -1847.024)"/></g></g><g transform="translate(-1045.965 10781.287)"><path class="m" d="M1060.406,1880.783c-1.183-2.112-2.2-3.64-4.744-3.229a33.077,33.077,0,0,0-5.2,1.531c-.164.5-.319,1.018-.453,1.563-1.177,4.865,1.185,7.6,2.472,11.429V1905.3c-.016.284-.031.568-.039.844a1.481,1.481,0,0,0,.039.364c.466,2.946,5.64,4.352,8.017,4.96l.49.119V1881.57A3.807,3.807,0,0,1,1060.406,1880.783Z" transform="translate(-1049.692 -1877.487)"/></g><g transform="translate(-1043.609 10804.854)"><path class="k" d="M1054.166,1911.985a31.5,31.5,0,0,1-.082-4.283l.033-.7-.615.332c-6.145,3.318-11.947,6.452-21.741,2.3-.349-.148-.707-.284-1.066-.42a11.318,11.318,0,0,1-2.457-1.162l-.621-.433v3.61c-.015.288-.03.576-.037.843a1.79,1.79,0,0,0,.041.447c.516,3.27,5.979,4.684,8.313,5.289a16.054,16.054,0,0,0,4.018.493,24.272,24.272,0,0,0,9.185-2.027,27,27,0,0,0,3.932-2.042A2.428,2.428,0,0,0,1054.166,1911.985Z" transform="translate(-1027.578 -1907.003)"/></g><g transform="translate(-1064.849 10777.858)"><g transform="translate(0.243 8.801)"><path class="l" d="M1081.044,1906.4a24.186,24.186,0,0,0,.587-2.7c-.345-1.289-.652-2.45-.628-2.54l-15.464-15.625a3.29,3.29,0,1,0-5.265,3.947l14.623,18.2.035.044A3.561,3.561,0,0,0,1081.044,1906.4Z" transform="translate(-1059.617 -1884.216)"/></g><g transform="translate(0 6.284)"><path class="l" d="M1076.878,1887.594c.876,2.829,3.4,4.56,5.643,3.866s3.348-3.549,2.473-6.378-3.4-4.56-5.643-3.866S1076,1884.765,1076.878,1887.594Z" transform="translate(-1076.579 -1881.063)"/></g><g transform="translate(2.722)"><path class="l" d="M1081.738,1884.085h0a1.416,1.416,0,0,0,.933-1.771l-2.513-8.124a1.416,1.416,0,0,0-1.772-.934h0a1.416,1.416,0,0,0-.934,1.771l2.514,8.124A1.416,1.416,0,0,0,1081.738,1884.085Z" transform="translate(-1077.389 -1873.192)"/></g><g transform="translate(15.745 0.454)"><path class="e" d="M1055.486,1907.487l.069.017a4.723,4.723,0,0,0,5.67-4.049l3.23-24.111a4.934,4.934,0,0,0-9.78-1.308l-1.274,9.506-1.257,9.363h0C1051.625,1901.376,1050.055,1906.131,1055.486,1907.487Z" transform="translate(-1051.53 -1873.761)"/></g></g><g transform="translate(-1049.861 10762.145)"><path class="l" d="M1066.133,1861.446h0a1.374,1.374,0,0,0-.069-1.943l-6.044-5.625a1.373,1.373,0,0,0-1.943.07h0a1.374,1.374,0,0,0,.069,1.943l6.044,5.625A1.375,1.375,0,0,0,1066.133,1861.446Z" transform="translate(-1057.708 -1853.51)"/></g><g transform="translate(-1020.271 10907.135)"><g transform="translate(0)"><rect class="k" width="3.356" height="8.046" rx="1.403"/></g></g><g transform="translate(-1027.621 10745.045)"><path class="k" d="M1008.126,1832.093c4.96.268,10.922,1.208,12.846,5.788,1.385,3.3-.043,7.1.5,10.643.682,4.425,4.26,7.719,7.045,11.225s4.907,8.563,2.446,12.3a11.705,11.705,0,0,0-1.5,2.3c-.711,1.976.715,4,1.72,5.84a16.273,16.273,0,0,1-1.172,17.065,7.869,7.869,0,0,1-4.478,3.278c-3.732.774-7.012-2.65-8.686-6.074a27.346,27.346,0,0,1-2.4-16.291,8.53,8.53,0,0,0,.1-4.062c-.662-1.972-2.775-2.973-4.417-4.25a12.076,12.076,0,0,1-2.842-15.214c1-1.665,2.467-3.251,2.422-5.191-.086-3.635-5.01-4.953-6.856-8.085a5.379,5.379,0,0,1,8.7-6.252Z" transform="translate(-1002.175 -1832.093)"/></g></g><g transform="translate(-1248.413 82.793)"><g class="i" transform="translate(1763.892 1801.671)"><ellipse class="q" cx="24.759" cy="14.295" rx="24.759" ry="14.295"/></g><g transform="translate(1762.736 1687.302)"><path class="l" d="M1776.894,1705.789l-7.049,11.672,14.6,15.361-5.463,5.665-13.971-14.213a7.919,7.919,0,0,1-1.214-9.507l6.816-11.829Z" transform="translate(-1762.737 -1702.939)"/></g><g transform="translate(1765.254 1673.685)"><path class="r" d="M1776.409,1687.409c1.788-.824,3.544-1.72,5.282-2.644a4.359,4.359,0,0,1,2.443.979,7.449,7.449,0,0,0,2.18,1.372,4.561,4.561,0,0,1-.569,2.449l-4.347,7.829-4.281,7.713c-2.106,3.639-3.583,8.074-8.4,6.064l-.061-.026a4.407,4.407,0,0,1-1.986-6.191Z" transform="translate(-1766.096 -1684.765)"/></g><g transform="translate(1779.41 1790.34)"><rect class="l" width="6.311" height="13.186" rx="3.156"/></g><g transform="translate(1777.765 1800.932)"><g transform="translate(2.229)"><path class="l" d="M1798.068,1862.93a4.238,4.238,0,0,0,.857-2.469,2.632,2.632,0,0,0-1.44-2.264,7,7,0,0,0-1.064-.511c-2.009-.783-4.635-2.8-7.058-2.81a2.115,2.115,0,0,0-.7-.281l.125.321a4.152,4.152,0,0,0-2.9,2.012l-.114.168c1.977,1.094,3.494.677,5.26,2.139C1793.245,1861.068,1795.474,1864.455,1798.068,1862.93Z" transform="translate(-1785.769 -1854.594)"/></g><g transform="translate(0 0.849)"><path class="a" d="M1801.132,1858.31c-.5-.958-2.327-1.167-3.327-1.176a10.516,10.516,0,0,0-1.6.109,1.072,1.072,0,0,0-.582.3,1.708,1.708,0,0,1,.123.214,4.55,4.55,0,0,1,.532,1.519.4.4,0,0,1-.177.433,2.968,2.968,0,0,1-1.562.6c-1.68.889-3.862-1.461-5.278-2.717-1.032-.913-1.515-.752-2.633-1.411-.06-.035-.117-.078-.179-.11a2.4,2.4,0,0,0-2.861.282,5.008,5.008,0,0,0-.378.692c-.931,2.053-.336,5.544,2.241,5.5a19.606,19.606,0,0,1,3.855.666c4.6,2.316,8.213,3.414,11.247-1.525C1801.346,1860.4,1801.7,1859.4,1801.132,1858.31Z" transform="translate(-1782.795 -1855.727)"/></g></g><g transform="translate(1778.42 1803.085)"><rect class="a" width="3.261" height="7.818" rx="1.452"/></g><g transform="translate(1794.496 1798.62)"><rect class="l" width="6.311" height="13.186" rx="3.156"/></g><g transform="translate(1773.814 1706.783)"><path class="s" d="M1782.765,1730.164l24.709-1.225,2.377,3.723a17.826,17.826,0,0,1,2.8,9.806l1,10.668-1.091,40.009s-5.611,31.577-5.66,31.953c-.018.137-.205,1.164-.335,2.372-3.411.687-7.127,1.11-9.089-.652-.044-.04-.091-.074-.137-.113l.049-.011.468-30.5-2.584-35.232-.358,0-.794,14.462.109,4.017a145.792,145.792,0,0,1-1.849,27.669l-1.3,13.544c-.026,0-.058.005-.085.005a1.018,1.018,0,0,1,.079.381c0,1.081-1.795,1.957-4.008,1.957a5.656,5.656,0,0,1-3.427-.957c-.165.008-.339.026-.489.017-.083-.044-.168-.086-.251-.131a4.118,4.118,0,0,1,.2-.552l-.015-.235c0-.034-.02-.065-.02-.1,0-.017.01-.034.011-.052l-1.7-26.756-3.093-40.6C1777.486,1748.644,1775.844,1734.086,1782.765,1730.164Z" transform="translate(-1777.521 -1728.939)"/></g><g transform="translate(1792.479 1807.679)"><g transform="translate(6.966 3.245)"><path class="a" d="M1813.212,1872.487c2.8,1.979,2.527,3.833,6.725,2.8a7.789,7.789,0,0,0,3.634-1.74,2.877,2.877,0,0,0,.688-3.476,4.645,4.645,0,0,0-3.04-1.689,18.712,18.712,0,0,0-6.024-.348,5.145,5.145,0,0,0-2.707.888C1810.995,1870.122,1811.957,1871.6,1813.212,1872.487Z" transform="translate(-1811.729 -1867.93)"/></g><g transform="translate(2.517)"><path class="l" d="M1810.368,1863.6a7.353,7.353,0,0,1,1.89,1.358,27.13,27.13,0,0,1,5.733,5.856,4.94,4.94,0,0,1-3.416,2.707,23.126,23.126,0,0,1-2.661-.941,14.5,14.5,0,0,1-5.876-4.873c-.178-.255-.349-.6-.172-.859l2.343-2.269c2.348-2.272,5.819.972,8.186,2.207.895.467,1.911,1.116,1.945,2.125.032.943-.837,1.663-1.691,2.066a8.111,8.111,0,0,1-2.667.74Z" transform="translate(-1805.791 -1863.599)"/></g><g transform="translate(0.887 3.608)"><rect class="a" width="3.261" height="7.818" rx="1.452"/></g><g transform="translate(0 0.212)"><path class="a" d="M1803.665,1864.1a3.725,3.725,0,0,1,3.4.493c1.644.993,2.863,2.615,4.3,3.864,1.979,1.721,3.972,2.683,6.393,1.576.8.484,1.355,1.042,1.33,1.685-.035.936-1.714,2.137-2.454,2.646-2.326,1.6-6.065-.969-7.956-1.931-1.49-.758-3.07-.617-4.49-1.249C1802.277,1870.334,1801.67,1865.9,1803.665,1864.1Z" transform="translate(-1802.432 -1863.882)"/></g></g><g transform="translate(1775.213 1669.913)"><path class="m" d="M1783.16,1713.408a30.92,30.92,0,0,1-.076,4.214,1.955,1.955,0,0,0,.89,1.826,25.673,25.673,0,0,0,3.76,1.957c3.768,1.581,8.089,2.472,12.11,1.581l.477-.115c2.31-.591,7.337-1.957,7.789-4.82a1.365,1.365,0,0,0,.038-.353c-.007-.269-.022-.545-.038-.821V1704.03c1.251-3.722,3.546-6.378,2.4-11.106a16.822,16.822,0,0,0-2.679-6.017c-2.118-2.916-5.172-4.72-9.071-5.856-1.235-.353-2.456-.644-3.561-.875a21.946,21.946,0,0,0-7.153-.269,10.251,10.251,0,0,0-6.408,2.847,5.747,5.747,0,0,0-.537.676c-2.978,4.466-1.4,10.714-.315,15.564A80.438,80.438,0,0,1,1783.16,1713.408Z" transform="translate(-1779.389 -1679.732)"/></g><g transform="translate(1795.323 1659.842)"><path class="a" d="M1806.286,1666.471c-.015,0-.03.016-.045.032a1.081,1.081,0,0,1-.014-.213A.259.259,0,0,0,1806.286,1666.471Z" transform="translate(-1806.227 -1666.29)"/></g><g transform="translate(1784.417 1659.968)"><path class="l" d="M1791.673,1678.039h8.972l1.106-6.6.83-4.979h-8.972Z" transform="translate(-1791.673 -1666.457)"/></g><g class="n" transform="translate(1788.652 1664.783)"><path class="l" d="M1797.324,1672.885l4.454,6.766h.284l1.106-6.6Z" transform="translate(-1797.324 -1672.885)"/></g><g transform="translate(1793.807 1659.542)"><path class="l" d="M1804.8,1665.989a.731.731,0,0,1-.556.046c-.019-.047-.008-.1-.037-.145Z" transform="translate(-1804.204 -1665.889)"/></g><g transform="translate(1796.957 1666.109)"><path class="l" d="M1808.918,1675.4c.1.007.209.028.313.042l-.822-.787C1808.583,1674.9,1808.75,1675.149,1808.918,1675.4Z" transform="translate(-1808.409 -1674.654)"/></g><g transform="translate(1783.623 1669.915)"><path class="l" d="M1791.013,1682.688c1.4,2.057,6.092,1.32,10.568-1.631-1.241-.362-2.461-.653-3.567-.88a22.144,22.144,0,0,0-7.15-.269A3.085,3.085,0,0,0,1791.013,1682.688Z" transform="translate(-1790.613 -1679.734)"/></g><g transform="translate(1777.243 1640.575)"><g transform="translate(18.061 18.739)"><path class="a" d="M1806.255,1665.757c-.013,0-.026.016-.039.031a1.016,1.016,0,0,1-.014-.2A.265.265,0,0,0,1806.255,1665.757Z" transform="translate(-1806.202 -1665.585)"/></g><g transform="translate(7.857 2.934)"><path class="l" d="M1808.442,1657.851c-.083,2.518-.483,5-1.849,6.848a7.783,7.783,0,0,1-6.234,2.942,6.5,6.5,0,0,1-3.71-.882c-2.124-1.374-3.118-4.332-3.656-7.127a25.276,25.276,0,0,1-.4-3.219,12.9,12.9,0,0,1,.33-3.644,10.418,10.418,0,0,1,4.248-5.982,14.52,14.52,0,0,1,6.455-2.207,4.834,4.834,0,0,1,3.242.425,2.978,2.978,0,0,1,1.31,1.962,2.477,2.477,0,0,1,.028.9c.069,2.288.138,4.559.207,6.848C1808.442,1655.743,1808.47,1656.789,1808.442,1657.851Z" transform="translate(-1792.583 -1644.49)"/></g><g transform="translate(16.992 16.8)"><path class="l" d="M1805.312,1663.1a.621.621,0,0,1-.5.044c-.016-.047-.008-.1-.033-.142Z" transform="translate(-1804.775 -1662.997)"/></g><path class="a" d="M1804.131,1643.291c-6.657-3.857-13.623-3.784-18.523,1.368-1.922,2.021-3.74,8.267-3.489,11.151.246,2.812,2.383,4.974,4.549,6.556,2.742,2,6.2,3.533,9.327,2.85a4.322,4.322,0,0,0,.847.051,7.514,7.514,0,0,0,1.547-1.709,3.77,3.77,0,0,1,1.332-1.265c.3-1.546.261-3.289,1.231-4.441a6.014,6.014,0,0,1,1.546-1.165,11.483,11.483,0,0,0,3.3-2.814C1809.055,1649.52,1807.881,1645.465,1804.131,1643.291Z" transform="translate(-1782.097 -1640.575)"/><g transform="translate(16.026 15.074)"><path class="l" d="M1803.489,1662.484a5.517,5.517,0,0,0,1.732,3.557,1.639,1.639,0,0,0,1.4.365c1.5-.394,1.36-2.777.895-3.946a2.7,2.7,0,0,0-2-1.75A1.808,1.808,0,0,0,1803.489,1662.484Z" transform="translate(-1803.486 -1660.693)"/></g></g><g transform="translate(1795.669 1680.035)"><path class="m" d="M1807.258,1696.442c1.15-2.052,2.134-3.537,4.609-3.137a32.049,32.049,0,0,1,5.051,1.488c.16.489.31.989.44,1.518,1.143,4.728-1.151,7.384-2.4,11.106v12.847c.016.277.031.552.038.821a1.377,1.377,0,0,1-.038.353c-.453,2.863-5.479,4.229-7.789,4.82l-.477.115v-29.166A3.684,3.684,0,0,0,1807.258,1696.442Z" transform="translate(-1806.69 -1693.24)"/></g><g transform="translate(1778.515 1702.932)"><path class="a" d="M1783.8,1728.641a30.686,30.686,0,0,0,.078-4.162l-.031-.679.6.323c5.97,3.224,11.609,6.269,21.126,2.23.338-.144.686-.276,1.035-.408a11.012,11.012,0,0,0,2.388-1.128l.6-.42v3.507c.015.28.03.56.036.819a1.713,1.713,0,0,1-.04.435c-.5,3.178-5.81,4.552-8.077,5.139a15.592,15.592,0,0,1-3.9.479,23.585,23.585,0,0,1-8.924-1.97,26.184,26.184,0,0,1-3.821-1.985A2.358,2.358,0,0,1,1783.8,1728.641Z" transform="translate(-1783.795 -1723.8)"/></g><g transform="translate(1797.096 1677.145)"><g transform="translate(3.945 27.066)"><path class="l" d="M1817.846,1725.547a23.479,23.479,0,0,1,2.625.582c1,.829,1.9,1.572,1.986,1.589l8.286,23.168a3.2,3.2,0,1,1-5.625,3.039l-10.9-23.473-.024-.05A3.46,3.46,0,0,1,1817.846,1725.547Z" transform="translate(-1813.859 -1725.506)"/></g><g transform="translate(14.065 48.811)"><path class="l" d="M1829.364,1762.239c-2.14-1.923-2.639-4.857-1.116-6.552s4.493-1.511,6.633.413,2.64,4.858,1.116,6.552S1831.5,1764.163,1829.364,1762.239Z" transform="translate(-1827.366 -1754.527)"/></g><path class="m" d="M1817.352,1722.151l-.067.017a4.589,4.589,0,0,1-5.509-3.934l-3.138-23.428a4.794,4.794,0,0,1,9.5-1.271l1.238,9.236,1.222,9.1h0C1821.1,1716.215,1822.628,1720.835,1817.352,1722.151Z" transform="translate(-1808.594 -1689.383)"/></g><g transform="translate(1768.221 1646.674)"><path class="a" d="M1771.772,1694.184c2.258-7.161,5.912-14,6.532-21.486.473-5.7-2.572-22.6,5.739-23.9,3.727-.584,10.689,2.079,12.985,4.909a21.849,21.849,0,0,0-.073,5.707,6.937,6.937,0,0,0,.641,2.2c.246,7.569,5.676,16.359,1.675,23.038-1.109,1.852-2.832,3.253-4.112,4.991-2.456,3.334-3.115,7.628-3.541,11.747s-.732,8.384-2.656,12.051-5.984,6.589-10.039,5.751a9.552,9.552,0,0,1-5.29-3.493C1768.892,1709.879,1769.513,1701.345,1771.772,1694.184Z" transform="translate(-1770.057 -1648.715)"/></g></g><g transform="translate(1927.325 -9979.071)"><path class="b" d="M2076.6,1008.589c-11.111,0-20.15,5.964-20.15,13.3s9.039,13.3,20.15,13.3,20.149-5.964,20.149-13.3S2087.709,1008.589,2076.6,1008.589Z" transform="translate(-3135.269 10873.969)"/><path class="c" d="M2090.7,998.561l-4.672,23.42h-30.954l-4.672-23.42Z" transform="translate(-3126.235 10868.081)"/><path class="c" d="M2087.691,1027.231c0,3.959-6,8.364-14.712,8.609-.251.006-.508.012-.765.012-9.123,0-15.477-4.544-15.477-8.62s6.355-8.627,15.477-8.627a24.716,24.716,0,0,1,6.442.824C2084.192,1020.917,2087.691,1024.205,2087.691,1027.231Z" transform="translate(-3127.893 10862.83)"/><path class="d" d="M2098.127,998.561l-4.672,23.419c0,3.96-6,8.364-14.712,8.609a15.15,15.15,0,0,0,2.722-3.621,21.69,21.69,0,0,0,1.886-4.988,41.262,41.262,0,0,0,1.069-7.8c.076-1.337.122-2.675.158-4q.166-5.809.339-11.616Z" transform="translate(-3133.657 10868.08)"/><ellipse class="e" cx="20.149" cy="13.295" rx="20.149" ry="13.295" transform="translate(-1075.829 11853.344)"/><ellipse class="a" cx="15.477" cy="8.623" rx="15.477" ry="8.623" transform="translate(-1071.157 11858.016)"/><circle class="d" cx="13.898" cy="13.898" r="13.898" transform="translate(-1071.623 11812.07) rotate(-80.783)"/><circle class="d" cx="9.854" cy="9.854" r="9.854" transform="translate(-1068.554 11815.678) rotate(-22.5)"/><ellipse class="d" cx="10.726" cy="10.726" rx="10.726" ry="10.726" transform="translate(-1069.694 11851.688) rotate(-67.5)"/><path class="d" d="M2080.2,999.14a3.859,3.859,0,1,1-3.859-3.859A3.859,3.859,0,0,1,2080.2,999.14Z" transform="translate(-3132.016 10868.939)"/><path class="d" d="M2084.764,920.662c-3.083,3.936-2.986,5.053-1.729,8.368H2064.61c1.257-3.315,1.355-4.432-1.728-8.368Z" transform="translate(-3129.503 10888.485)"/><path class="d" d="M2083.82,922.824c-10.166,9.477-8.946,19.98-1.631,27.826H2066.5c7.314-7.846,8.533-18.349-1.631-27.826Z" transform="translate(-3130.022 10887.919)"/><path class="d" d="M2083.554,923.322c-10.532,9.066-8.66,51.527-6.142,54.452h-5.849c2.519-2.924,4.39-45.385-6.142-54.452Z" transform="translate(-3130.168 10887.788)"/><path class="d" d="M2082.15,946.01c-3.431,3.554-3.507,6.576.362,10.311h-14.9c3.869-3.735,3.793-6.757.362-10.311Z" transform="translate(-3130.742 10881.846)"/><path class="d" d="M2081.9,946.76c-7.4,6.509-6.16,34.224-3.612,37.122H2072.5c2.549-2.9,3.787-30.613-3.612-37.122Z" transform="translate(-3131.075 10881.648)"/><path class="d" d="M2081.772,982.2c-6.957,5.052-5,8.747-3.181,11.25h-6.245c1.818-2.5,3.776-6.2-3.18-11.25Z" transform="translate(-3131.149 10872.367)"/></g><g transform="translate(0 73)"><g class="aa" transform="matrix(1, 0, 0, 1, 406.33, 1502.45)"><path class="t" d="M12.15,0H97.2a12.15,12.15,0,0,1,12.15,12.15V91.125a12.15,12.15,0,0,1-12.15,12.15H12.15A12.15,12.15,0,0,1,0,91.125V12.15A12.15,12.15,0,0,1,12.15,0Z" transform="translate(231.04 204.4)"/></g><g transform="translate(653.202 1720.665)"><path class="u" d="M13.837,12.651a7.516,7.516,0,0,0-7.515,7.515v18.8a7.515,7.515,0,1,0,15.03,0v-18.8a7.52,7.52,0,0,0-7.515-7.515Z" transform="translate(12.518 25.064)"/><path class="u" d="M.019,20.17a7.521,7.521,0,0,0,15.042,0V12.649H7.54A7.523,7.523,0,0,0,.019,20.17Z" transform="translate(0.032 25.06)"/><path class="v" d="M13.85,0h-.009a7.521,7.521,0,0,0,0,15.042h7.515V7.505A7.509,7.509,0,0,0,13.85,0Z" transform="translate(12.514 0.001)"/><path class="v" d="M7.523,21.366H26.357a7.521,7.521,0,1,0,0-15.042H7.523a7.521,7.521,0,1,0,0,15.042Z" transform="translate(-0.002 12.531)"/><path class="w" d="M26.445,6.323a7.5,7.5,0,0,0-7.506,7.506v7.536h7.515a7.521,7.521,0,1,0,0-15.042Z" transform="translate(37.512 12.529)"/><path class="w" d="M12.641,7.516V26.371a7.515,7.515,0,0,0,15.03,0V7.516a7.515,7.515,0,0,0-15.03,0Z" transform="translate(25.036 0.005)"/><g transform="translate(37.668 37.709)"><path class="x" d="M27.67,26.47a7.516,7.516,0,0,0-7.515-7.515H12.64v7.521a7.515,7.515,0,0,0,15.03-.006Z" transform="translate(-12.634 -0.157)"/><path class="x" d="M38.993,12.649H20.159a7.521,7.521,0,0,0,0,15.042H38.993a7.521,7.521,0,1,0,0-15.042Z" transform="translate(-12.638 -12.649)"/></g></g></g></g><g transform="translate(543.24 2113.38)"><path class="y" d="M592.41,757.821c9.867-5.7,9.867-14.933,0-20.63s-25.864-5.7-35.732,0-9.867,14.934,0,20.63S582.543,763.517,592.41,757.821Z" transform="translate(-542.972 -581.085)"/><path d="M564.33,528.076a42.643,42.643,0,0,1,.155-6.771c.516-5.906,3.531-11.416,9.987-12.154,11.83-1.355,14.179,6.868,14.774,16.813-3.673,4.259-8.048,8.464-10.335,13.656-.49,1.112-6.5,1.175-7.295.835-1.94-.826-4.32-4.1-5.428-5.836A14.166,14.166,0,0,1,564.33,528.076Z" transform="translate(-547.792 -509.004)"/><path class="a" d="M590.163,739.16a3.4,3.4,0,0,0,2.4,4.152,56.587,56.587,0,0,0,9.623,4.411,5.434,5.434,0,0,0,2.4.315,2.084,2.084,0,0,0,1.763-1.476,3.16,3.16,0,0,0-1.057-2.5c-2.554-3.024-5.212-6.131-8.764-7.881a6.28,6.28,0,0,0-3.372-.789,3,3,0,0,0-2.625,2Z" transform="translate(-556.117 -581.875)"/><path class="a" d="M562.489,749.416a7.07,7.07,0,0,0,.456,2.411,19.562,19.562,0,0,0,2.643,4.3l1.777,2.4a12.233,12.233,0,0,0,2.02,2.3,4.122,4.122,0,0,0,2.815,1.022,1.144,1.144,0,0,0,.757-.285,1.2,1.2,0,0,0,.227-.386c.717-1.751.227-3.737-.272-5.562-.7-2.569-1.632-4.989-2.327-7.527-.482-1.762-1.056-4.229-3.218-4.538C563.954,743.081,562.418,746.419,562.489,749.416Z" transform="translate(-547.224 -584.492)"/><path class="z" d="M566.011,664.771l-2.277-37.8.78-9.048,18.544,2.821,9.924-.47.338,43.468-4.54,33.656c-.105.778,1.3,1.269,1.3,2.031a2.714,2.714,0,0,1-2.529,2.757,7.215,7.215,0,0,1-3.711-.908,4.815,4.815,0,0,1-2.149-4.01c0-.014,1.363-30.638,1.363-30.638l-2.854-32.74-.831,15.264-1.011,15.543-7.873,41.025c-.127,1.7-.7,3-2.211,3h-2a3.106,3.106,0,0,1-2.908-3.273Z" transform="translate(-547.508 -544.065)"/><path class="a" d="M565.845,602.536l-5.806,9.563s-1.058,31.75.382,49.367a24.075,24.075,0,0,0,16.59,6.359s15.437-2.737,21.557-8.271c0,0-.26-42.582-10.568-57.294Z" transform="translate(-546.315 -539.024)"/><path class="c" d="M594.49,550.011h0a4.216,4.216,0,0,0-2.346,5.48l10.939,27.317a4.216,4.216,0,0,0,5.48,2.346h0a4.216,4.216,0,0,0,2.346-5.48l-10.94-27.317A4.215,4.215,0,0,0,594.49,550.011Z" transform="translate(-556.673 -522.107)"/><path class="k" d="M591.223,543.46c-.013,0-.027.015-.041.03a.954.954,0,0,1-.014-.2A.241.241,0,0,0,591.223,543.46Z" transform="translate(-556.457 -520.042)"/><path class="c" d="M565.436,567.69l2.187,18.55a8.229,8.229,0,0,1,.693.526c4.229,3.632,10.167,3.989,15.876,3.856a34,34,0,0,0,3.9-1.377,4.323,4.323,0,0,0,2.512-3.2l3.971-15.479.054-.268a9.446,9.446,0,0,0-.871-6.09l-3.014-5.787-.91-3.1c-.294-3.414-3.14-6.82-5.588-5.278l-1.126.388-1.8.623-7.925,2.767-2.318.8-4.509,1.568a4.585,4.585,0,0,0-2.72,5.547Z" transform="translate(-547.609 -522.092)"/><path class="e" d="M563.849,561.821l1.587,5.949c.8.984,1.588,1.969,2.392,2.954,1.682,2.083,3.437,4.22,5.775,5.312,3.885,1.815,8.347.335,12.293-1.34,2.438-1.025,4.857-2.123,7.235-3.289.482-.227.978-.475,1.447-.757l.054-.268a9.443,9.443,0,0,0-.871-6.089l-3.014-5.788-1.149-3.917c-.055-2.6-2.1-5.488-5.349-4.464l-1.126.389-1.8.623L573.4,553.9l-2.318.8-4.509,1.568A4.585,4.585,0,0,0,563.849,561.821Z" transform="translate(-547.609 -522.173)"/><path class="z" d="M574.587,554.992a21.77,21.77,0,0,0,4.281,4.87,11.851,11.851,0,0,0,4.079,2.619,4.94,4.94,0,0,0,4.629-.629,4.769,4.769,0,0,0,1.587-3.484,9.888,9.888,0,0,0-.736-3.845,21.473,21.473,0,0,0-1.8-3.725l-1.8.623-7.925,2.767Z" transform="translate(-551.119 -522.458)"/><path class="e" d="M612.975,577.215l-.1.2a.327.327,0,0,0,.077.006C612.956,577.356,612.969,577.286,612.975,577.215Z" transform="translate(-563.446 -530.962)"/><rect class="z" width="8.244" height="15.165" transform="translate(25.689 19.291)"/><path class="z" d="M579.061,541.405l7.478,7.844.039-.111v-5.285Z" transform="translate(-552.56 -519.434)"/><ellipse class="a" cx="6.298" cy="6.943" rx="6.298" ry="6.943" transform="translate(30.825 5.356)"/><path class="k" d="M578.543,533.045c-.013,0-.026.014-.039.029a.871.871,0,0,1-.014-.187A.231.231,0,0,0,578.543,533.045Z" transform="translate(-552.376 -516.692)"/><path class="z" d="M578.021,530.378c1.029-5.265,4.389-10.767,10.06-11.7a.6.6,0,0,0,.418-.922.758.758,0,0,0-.089-.746c.054-.007.107-.016.161-.022a5.066,5.066,0,0,1,3.237.4,2.816,2.816,0,0,1,1.309,1.854,2.215,2.215,0,0,1,.027.85c.069,2.163.138,4.311.207,6.474.027.974.055,1.962.027,2.967a11,11,0,0,1-1.845,6.474,7.953,7.953,0,0,1-6.225,2.781c-1.267.031-2.575-.884-3.705-1.564-2.12-1.3-3.112-3.364-3.65-6.007-.035-.181-.059-.365-.091-.547A.571.571,0,0,0,578.021,530.378Z" transform="translate(-552.173 -511.547)"/><path d="M583.406,514.6a4.765,4.765,0,0,1,2.254-2.971,3.946,3.946,0,0,1,2.165-.554,4.278,4.278,0,0,1,3.163.816c.7.3,1.395.66,2.083,1.033a12.72,12.72,0,0,1,4.293,3.291,7.08,7.08,0,0,1,1.185,5.869,6.4,6.4,0,0,1-2.164,3.493c-.17.64-.6-.683-.772-.042-.26-1.964-1.394-1.654-3.018-2.788A40.367,40.367,0,0,0,587.329,520a9.154,9.154,0,0,1-3.133-2.264,4.122,4.122,0,0,1-.548-.881A2.227,2.227,0,0,1,583.406,514.6Z" transform="translate(-553.897 -509.647)"/><path class="c" d="M620.649,594.881a5.779,5.779,0,1,1-5.776-5.6A5.691,5.691,0,0,1,620.649,594.881Z" transform="translate(-562.228 -534.846)"/><path class="z" d="M615.67,595.983h0a4.551,4.551,0,0,0,3.969,5.067l15.07,2.339a4.552,4.552,0,0,0,5.068-3.97h0a4.552,4.552,0,0,0-3.97-5.068l-15.07-2.339A4.552,4.552,0,0,0,615.67,595.983Z" transform="translate(-564.333 -535.715)"/><path class="s" d="M628.222,604.46c.776,1.537,3.34,2.667,6.391,2.667s5.615-1.13,6.39-2.667l.246-2.087v-9.157h-.174c-.678-1.615-3.31-2.82-6.462-2.82s-5.785,1.2-6.462,2.82h-.175v.81Z" transform="translate(-568.306 -535.205)"/><path class="e" d="M641.25,593.425c0,2.009-2.971,3.637-6.636,3.637s-6.637-1.629-6.637-3.637,2.971-3.637,6.637-3.637S641.25,591.417,641.25,593.425Z" transform="translate(-568.306 -535.009)"/><ellipse class="k" cx="4.728" cy="2.591" rx="4.728" ry="2.591" transform="translate(61.579 55.749)"/><path d="M577.6,530.33a14.014,14.014,0,0,0,6.278-12.206,9.827,9.827,0,0,0-6.116,12.534Z" transform="translate(-551.968 -511.94)"/><path class="e" d="M542.937,585.616a40.17,40.17,0,0,0,3.5,4.193,28.077,28.077,0,0,1,3.1,3.78,16.714,16.714,0,0,1,1.832,3.6,3.149,3.149,0,0,1,.211,1.09,4.361,4.361,0,0,0,6.57,5.734A8.711,8.711,0,0,0,560,595.82a22.586,22.586,0,0,0-3.081-6.883,34.809,34.809,0,0,0-4.056-5.029,33.228,33.228,0,0,1-2.784-3.285c-1.286-1.839-1.759-3.969-1.1-4.949a8.927,8.927,0,0,1,2.34-1.831l10.015-6.411a4.36,4.36,0,0,0-4.7-7.348l-10.022,6.411a15.607,15.607,0,0,0-4.891,4.332C539.013,574.882,539.492,580.689,542.937,585.616Z" transform="translate(-539.978 -525.227)"/><path d="M566.024,536.456a31.748,31.748,0,0,1,.627-5.607,7.457,7.457,0,0,1,1.528-3.625,3.175,3.175,0,0,1,3.587-.949c1.88.913,1.763,3.561,1.645,5.647-.684,12.121,11.516,19.26,11.388,31.25-.046,4.357-2.192,8.381-4.283,12.2-.441.806-1.136,1.741-2.038,1.56a2.058,2.058,0,0,1-1.082-.8,21.662,21.662,0,0,1-4.463-10.579c-.98-6.085.041-11.547-2.44-17.328-.9-2.088-2.364-3.879-3.386-5.908A12.958,12.958,0,0,1,566.024,536.456Z" transform="translate(-548.362 -514.487)"/><path class="z" d="M579.221,537.248a.577.577,0,0,1-.574.064,1.468,1.468,0,0,0-.038-.2Z" transform="translate(-552.414 -518.051)"/><path class="z" d="M573.05,531.3c.9-.311,1.787.69,2.179,1.833a10.03,10.03,0,0,0,.605,1.707,1.289,1.289,0,0,0,.65.58,1.936,1.936,0,0,1-.973,2.238,2.272,2.272,0,0,1-2.19-.882,4.816,4.816,0,0,1-1.406-2.756C571.777,532.9,572.233,531.587,573.05,531.3Z" transform="translate(-550.251 -516.164)"/><path class="z" d="M557.018,621.636a4.364,4.364,0,0,0,6.156-.334,8.711,8.711,0,0,0,1.846-8.191,8.768,8.768,0,0,1-8.627,1.366,3.148,3.148,0,0,1,.211,1.09A4.356,4.356,0,0,0,557.018,621.636Z" transform="translate(-544.996 -542.517)"/></g></g></svg>