<svg xmlns="http://www.w3.org/2000/svg" width="537.675" height="467.851" viewBox="0 0 537.675 467.851"><defs><style>.a{fill:rgba(15,0,0,0.1);}.b{fill:#c4e4f9;}.c,.x{fill:#0f62fe;}.d{fill:#fff;}.e{fill:#8dc0ef;}.f{fill:#1f3598;}.g{fill:#647ddd;opacity:0.17;}.h{fill:#d5e8fa;}.i{fill:#eff6fc;}.j{fill:#bddcff;}.k{fill:#e2e8f2;}.l{fill:#ffc7cb;}.m{fill:#ff8358;}.n{fill:#f2f4f9;}.o{fill:#f2f4fa;}.p{fill:#3772ce;}.q{fill:#4568c7;}.r{fill:#a0d2ff;}.s{fill:#cacaca;}.s,.y{mix-blend-mode:multiply;isolation:isolate;}.t,.y{fill:#e5e9f9;}.u{fill:#32b98e;}.v{fill:#f26c73;}.w{opacity:0.7;}.x{opacity:0.8;}.y{opacity:0.4;}</style></defs><g transform="translate(-406 -4245.2)"><g transform="translate(406 4592.136)"><path class="a" d="M276,660H813.675s-11.269,20.927-37.026,17.708a149.484,149.484,0,0,1-20.927-1.61c-9.659-1.61-24.147,3.22-27.367,8.049,0,0-24.147,14.488-64.392,0,0,0-37.026-16.1-62.782-1.61,0,0-19.318,20.928-69.222-4.829,0,0-12.879-8.049-35.416,8.049,0,0-22.537,19.318-66-8.049,0,0-24.147-6.439-51.514,6.439C379.028,684.147,324.294,692.2,276,660Z" transform="translate(-276 -571.461)"/><path class="b" d="M582.407,634.075s27.206,15.026,15.19,36.5C597.6,670.576,578.133,666.564,582.407,634.075Z" transform="translate(-89.525 -587.27)"/><path class="c" d="M614.007,623s14.488,46.684-22.537,57.953C591.47,680.953,573.762,655.2,614.007,623Z" transform="translate(-85.991 -594.023)"/><path class="c" d="M334.352,621.92s-41.564,22.958-23.207,55.765C311.145,677.685,340.883,671.557,334.352,621.92Z" transform="translate(-257.422 -594.682)"/><path class="b" d="M292.061,605s-22.135,71.324,34.43,88.539C326.492,693.539,353.546,654.189,292.061,605Z" transform="translate(-268.808 -605)"/></g><g transform="translate(-7014.221 3394)"><path class="c" d="M130,0A130,130,0,1,1,0,130,130,130,0,0,1,130,0Z" transform="translate(7421.221 851.2)"/><g transform="translate(8431.568 -430.241)"><path class="d" d="M-754.491,1396.933a1.477,1.477,0,0,1-.182-.011l-36.714-4.468a1.551,1.551,0,0,1-1.271-1.027,1.551,1.551,0,0,1,.368-1.593l8.133-8.134-9.283-9.282-4.031,4.031a1.531,1.531,0,0,1-1.09.451,1.532,1.532,0,0,1-1.09-.451,1.544,1.544,0,0,1,0-2.181l5.121-5.121a1.544,1.544,0,0,1,1.09-.43,1.544,1.544,0,0,1,1.09.43l11.463,11.463a1.53,1.53,0,0,1,.451,1.09,1.531,1.531,0,0,1-.451,1.09l-6.985,6.985,31.617,3.848-3.847-31.617-6.986,6.985a1.532,1.532,0,0,1-1.09.451,1.531,1.531,0,0,1-1.09-.451l-9.673-9.672a20.365,20.365,0,0,0-14.5-6,20.366,20.366,0,0,0-14.5,6l-3.33,3.33a1.533,1.533,0,0,1-1.09.451,1.533,1.533,0,0,1-1.09-.451,1.533,1.533,0,0,1-.452-1.09,1.532,1.532,0,0,1,.452-1.09l3.331-3.33a23.428,23.428,0,0,1,16.679-6.9,23.428,23.428,0,0,1,16.68,6.9l8.582,8.582,8.134-8.134a1.533,1.533,0,0,1,1.091-.452,1.542,1.542,0,0,1,.5.084,1.552,1.552,0,0,1,1.028,1.271l4.467,36.713a1.532,1.532,0,0,1-.44,1.276,1.554,1.554,0,0,1-1.09.451Z" transform="translate(-82.397)"/><rect class="d" width="0.657" height="6.708" transform="translate(-880.812 1365.725) rotate(-45)"/><path class="d" d="M-764.433,1399.832a1.53,1.53,0,0,1-1.09-.451l-4.743-4.743a1.532,1.532,0,0,1-.452-1.09,1.533,1.533,0,0,1,.452-1.09,1.533,1.533,0,0,1,1.09-.451,1.532,1.532,0,0,1,1.09.451l4.743,4.744a1.531,1.531,0,0,1,.452,1.09,1.532,1.532,0,0,1-.452,1.09A1.531,1.531,0,0,1-764.433,1399.832Z" transform="translate(-111.404 -28.053)"/><path class="d" d="M-703.03,1533.775a1.551,1.551,0,0,1-1.09-.452,1.532,1.532,0,0,1-.44-1.276l4.468-36.713a1.551,1.551,0,0,1,1.028-1.271,1.541,1.541,0,0,1,.5-.084,1.531,1.531,0,0,1,1.091.452l8.134,8.133,9.283-9.283-6.145-6.145a1.544,1.544,0,0,1,0-2.18,1.531,1.531,0,0,1,1.09-.451,1.531,1.531,0,0,1,1.09.451l7.235,7.235a1.533,1.533,0,0,1,.452,1.09,1.532,1.532,0,0,1-.452,1.09l-11.463,11.463a1.531,1.531,0,0,1-1.09.451,1.532,1.532,0,0,1-1.09-.451l-6.985-6.986-3.847,31.617,31.617-3.847-6.986-6.985a1.544,1.544,0,0,1,0-2.181l9.672-9.672a20.37,20.37,0,0,0,6.006-14.5,20.37,20.37,0,0,0-6.006-14.5l-5.444-5.444a1.532,1.532,0,0,1-.451-1.09,1.531,1.531,0,0,1,.451-1.09,1.533,1.533,0,0,1,1.09-.451,1.533,1.533,0,0,1,1.09.451l5.444,5.444a23.435,23.435,0,0,1,6.909,16.68,23.434,23.434,0,0,1-6.909,16.679l-8.582,8.582,8.134,8.133a1.552,1.552,0,0,1,.367,1.593,1.553,1.553,0,0,1-1.271,1.028l-36.713,4.467A1.5,1.5,0,0,1-703.03,1533.775Z" transform="translate(-155.835 -80.917)"/><rect class="d" width="6.708" height="0.657" transform="translate(-833.942 1412.131) rotate(-45)"/><path class="d" d="M-626.4,1528.153a1.531,1.531,0,0,1-1.09-.451,1.544,1.544,0,0,1,0-2.181l4.743-4.743a1.531,1.531,0,0,1,1.09-.452,1.532,1.532,0,0,1,1.09.452,1.544,1.544,0,0,1,0,2.18l-4.743,4.743A1.531,1.531,0,0,1-626.4,1528.153Z" transform="translate(-207.306 -114.248)"/><path class="d" d="M-830.194,1628.941a23.435,23.435,0,0,1-16.68-6.909l-8.582-8.582-8.134,8.134a1.532,1.532,0,0,1-1.091.452,1.541,1.541,0,0,1-.5-.084,1.553,1.553,0,0,1-1.028-1.271l-4.467-36.713a1.533,1.533,0,0,1,.44-1.276,1.553,1.553,0,0,1,1.09-.452,1.624,1.624,0,0,1,.186.011l36.713,4.468a1.551,1.551,0,0,1,1.271,1.028,1.551,1.551,0,0,1-.367,1.593l-8.134,8.134,9.283,9.283,5.078-5.078a1.532,1.532,0,0,1,1.09-.451,1.532,1.532,0,0,1,1.09.451,1.544,1.544,0,0,1,0,2.18l-6.168,6.169a1.545,1.545,0,0,1-1.09.43,1.544,1.544,0,0,1-1.09-.43l-11.463-11.463a1.532,1.532,0,0,1-.451-1.09,1.532,1.532,0,0,1,.451-1.09l6.985-6.986-31.617-3.847,3.847,31.617,6.986-6.986a1.543,1.543,0,0,1,1.09-.43,1.543,1.543,0,0,1,1.09.43l9.673,9.672a20.371,20.371,0,0,0,14.5,6.006,20.371,20.371,0,0,0,14.5-6.006l4.377-4.377a1.532,1.532,0,0,1,1.09-.451,1.533,1.533,0,0,1,1.09.451,1.531,1.531,0,0,1,.451,1.09,1.531,1.531,0,0,1-.451,1.09l-4.378,4.378A23.434,23.434,0,0,1-830.194,1628.941Z" transform="translate(-44.252 -155.836)"/><rect class="d" width="0.657" height="6.708" transform="translate(-874.678 1453.331) rotate(-44.999)"/><path class="d" d="M-745.749,1666.688a1.531,1.531,0,0,1-1.09-.452l-4.743-4.743a1.532,1.532,0,0,1-.452-1.09,1.532,1.532,0,0,1,.452-1.09,1.533,1.533,0,0,1,1.09-.452,1.534,1.534,0,0,1,1.09.452l4.743,4.743a1.531,1.531,0,0,1,.452,1.09,1.531,1.531,0,0,1-.452,1.09A1.53,1.53,0,0,1-745.749,1666.688Z" transform="translate(-123.954 -207.304)"/><path class="d" d="M-923.136,1474.955a1.532,1.532,0,0,1-1.09-.452l-5.444-5.444a23.615,23.615,0,0,1,0-33.359l8.582-8.582-8.134-8.133a1.552,1.552,0,0,1-.367-1.593,1.551,1.551,0,0,1,1.271-1.028l36.713-4.468a1.576,1.576,0,0,1,.187-.011,1.551,1.551,0,0,1,1.09.452,1.531,1.531,0,0,1,.44,1.276l-4.468,36.713a1.551,1.551,0,0,1-1.028,1.271,1.541,1.541,0,0,1-.5.084,1.531,1.531,0,0,1-1.091-.452l-8.134-8.133-9.283,9.283,6.145,6.145a1.532,1.532,0,0,1,.452,1.09,1.533,1.533,0,0,1-.452,1.091,1.533,1.533,0,0,1-1.09.452,1.533,1.533,0,0,1-1.09-.452l-7.235-7.235a1.532,1.532,0,0,1-.452-1.09,1.532,1.532,0,0,1,.452-1.09l11.463-11.463a1.531,1.531,0,0,1,1.09-.451,1.531,1.531,0,0,1,1.09.451l6.985,6.985,3.848-31.617-31.617,3.847,6.986,6.985a1.532,1.532,0,0,1,.451,1.09,1.532,1.532,0,0,1-.451,1.09l-9.672,9.672a20.528,20.528,0,0,0,0,29l5.444,5.444a1.532,1.532,0,0,1,.451,1.09,1.531,1.531,0,0,1-.451,1.09A1.532,1.532,0,0,1-923.136,1474.955Z" transform="translate(0 -41.407)"/><rect class="d" width="6.708" height="0.657" transform="translate(-921.548 1415.484) rotate(-45)"/><path class="d" d="M-893.261,1538.366a1.532,1.532,0,0,1-1.09-.451,1.545,1.545,0,0,1,0-2.181l4.743-4.743a1.533,1.533,0,0,1,1.09-.452,1.531,1.531,0,0,1,1.09.452,1.531,1.531,0,0,1,.451,1.09,1.532,1.532,0,0,1-.451,1.09l-4.743,4.744A1.532,1.532,0,0,1-893.261,1538.366Z" transform="translate(-28.055 -121.109)"/></g></g><g transform="translate(586.369 4247.694)"><g transform="translate(0 150.524)"><path class="e" d="M2039.157,945.507a4.862,4.862,0,0,1-4.4,0,1.342,1.342,0,0,1,0-2.542,4.862,4.862,0,0,1,4.4,0A1.342,1.342,0,0,1,2039.157,945.507Z" transform="translate(-1865.109 -720.039)"/><path class="f" d="M2111.816,803.375c-4.857-5.626-10.326,2.358-12.908,5.668-1.755,2.25-7.859,8.221-7.191,11.355.234,1.1.368,1.047,1.453,1.339a6.8,6.8,0,0,0,3.332-.124,18.983,18.983,0,0,0,12.869-9.576c.106,1.377.132,2.756.115,4.136a.4.4,0,0,0,.614.323q.8-.523,1.575-1.09c1.922-1.42,1.074-3.432,1.594-5.719A7.174,7.174,0,0,0,2111.816,803.375Z" transform="translate(-1871.73 -703.892)"/><path class="g" d="M1918.482,928.477c-12.36-7.135-32.4-7.135-44.755,0s-12.359,18.7,0,25.84,32.4,7.135,44.755,0S1930.84,935.612,1918.482,928.477Z" transform="translate(-1845.713 -717.828)"/><path class="g" d="M2116.973,861.83l-164.572-93.6-101.783,61.109a1.83,1.83,0,0,0,.043,3.164l159.985,90.2a10.7,10.7,0,0,0,10.835-.1l95.528-57.326A2,2,0,0,0,2116.973,861.83Z" transform="translate(-1844.027 -700.092)"/><path class="e" d="M2040.069,878.439v57.87a.643.643,0,0,1-.047.226.511.511,0,0,1-.451.273h-5.233a.513.513,0,0,1-.451-.273.643.643,0,0,1-.047-.226v-57.87a.5.5,0,0,1,.5-.5h5.233A.5.5,0,0,1,2040.069,878.439Z" transform="translate(-1865.108 -712.654)"/><path class="e" d="M2040.069,888.351a.441.441,0,0,1-.056.216,1.011,1.011,0,0,1,.056.328,1.531,1.531,0,0,1-.911,1.268,4.854,4.854,0,0,1-4.406,0,1.531,1.531,0,0,1-.911-1.268.993.993,0,0,1,.056-.328.434.434,0,0,1-.056-.216v-9.911a.5.5,0,0,1,.5-.5h5.233a.5.5,0,0,1,.5.5Z" transform="translate(-1865.108 -712.654)"/><path class="e" d="M1851.972,841.677a4.864,4.864,0,0,1-4.4,0,1.342,1.342,0,0,1,0-2.542,4.865,4.865,0,0,1,4.4,0A1.342,1.342,0,0,1,1851.972,841.677Z" transform="translate(-1843.676 -708.151)"/><path class="e" d="M1852.884,774.61V832.48a.643.643,0,0,1-.047.225.508.508,0,0,1-.45.273h-5.233a.512.512,0,0,1-.451-.273.659.659,0,0,1-.047-.225V774.61a.5.5,0,0,1,.5-.5h5.233A.5.5,0,0,1,1852.884,774.61Z" transform="translate(-1843.676 -700.765)"/><path class="e" d="M1852.884,784.521a.443.443,0,0,1-.056.216,1.018,1.018,0,0,1,.056.328,1.531,1.531,0,0,1-.911,1.268,4.855,4.855,0,0,1-4.406,0,1.532,1.532,0,0,1-.911-1.268,1,1,0,0,1,.057-.328.438.438,0,0,1-.057-.216V774.61a.5.5,0,0,1,.5-.5h5.233a.5.5,0,0,1,.5.5Z" transform="translate(-1843.676 -700.765)"/><path class="e" d="M2152.852,879.03a4.864,4.864,0,0,1-4.4,0,1.342,1.342,0,0,1,0-2.542,4.871,4.871,0,0,1,4.4,0A1.341,1.341,0,0,1,2152.852,879.03Z" transform="translate(-1878.126 -712.428)"/><path class="e" d="M2153.765,811.963v57.871a.651.651,0,0,1-.047.226.512.512,0,0,1-.451.272h-5.232a.508.508,0,0,1-.45-.272.635.635,0,0,1-.048-.226V811.963a.5.5,0,0,1,.5-.5h5.232A.5.5,0,0,1,2153.765,811.963Z" transform="translate(-1878.126 -705.042)"/><path class="e" d="M2153.765,826.786a.442.442,0,0,1-.056.216,1.026,1.026,0,0,1,.056.328,1.533,1.533,0,0,1-.91,1.268,4.859,4.859,0,0,1-4.407,0,1.531,1.531,0,0,1-.912-1.268,1.019,1.019,0,0,1,.056-.328.44.44,0,0,1-.056-.216v-9.911a.5.5,0,0,1,.5-.5h5.232a.5.5,0,0,1,.5.5Z" transform="translate(-1878.126 -705.605)"/><path class="h" d="M1843.691,761.734l-.011,12.413,18.482,6.824-.943-6.763Z" transform="translate(-1843.334 -699.348)"/><path class="h" d="M2159.343,813.494V802.411l-20.485,13.17,1.369,3.646Z" transform="translate(-1877.133 -704.006)"/><path class="h" d="M1846.128,762.128l95.966-56.1a21.741,21.741,0,0,1,21.755-.109L2122.268,796.4a5.728,5.728,0,0,1,.023,9.933l-97.526,56.322a21.739,21.739,0,0,1-21.747,0l-156.866-90.623A5.727,5.727,0,0,1,1846.128,762.128Z" transform="translate(-1843.29 -692.629)"/><path class="i" d="M1846.518,750.352l95.966-56.1a21.744,21.744,0,0,1,21.755-.11l158.419,90.482a5.727,5.727,0,0,1,.023,9.933l-97.525,56.323a21.74,21.74,0,0,1-21.748,0l-156.865-90.622A5.727,5.727,0,0,1,1846.518,750.352Z" transform="translate(-1843.335 -691.281)"/><path class="e" d="M1969.759,818.208l-48.717-28.127c-2.211-1.277-2.211-3.346,0-4.622l19.151-11.057a8.847,8.847,0,0,1,8.007,0l48.717,28.127c2.211,1.277,2.211,3.346,0,4.622l-19.152,11.057A8.844,8.844,0,0,1,1969.759,818.208Z" transform="translate(-1852.003 -700.689)"/><path class="e" d="M1919.384,785.658v4.62l54.378,30.285,24.812-14.326v-3.509Z" transform="translate(-1852.003 -702.087)"/><path class="j" d="M1969.759,814.244l-48.717-28.128c-2.211-1.276-2.211-3.345,0-4.622l19.151-11.057a8.851,8.851,0,0,1,8.007,0l48.717,28.128c2.211,1.276,2.211,3.346,0,4.622l-19.152,11.057A8.849,8.849,0,0,1,1969.759,814.244Z" transform="translate(-1852.003 -700.235)"/><path class="j" d="M1981.931,808.421l-47.2-27.252,4.147-2.395,47.2,27.252Z" transform="translate(-1853.76 -701.299)"/><path class="j" d="M1973.9,813.059l-47.2-27.252,4.147-2.395,47.2,27.253Z" transform="translate(-1852.84 -701.83)"/><path class="k" d="M1935.79,781.238l46.262,26.71,3.208-1.852L1939,779.386Z" transform="translate(-1853.882 -701.369)"/><path class="k" d="M1927.757,785.877l46.262,26.71,3.208-1.853-46.262-26.709Z" transform="translate(-1852.961 -701.9)"/><path class="k" d="M1943.607,775.971l46.262,26.71,3.208-1.853-46.262-26.709Z" transform="translate(-1854.776 -700.766)"/><path class="f" d="M2037.5,907.067l1.079-.627c.164-.095.163-.25,0-.345l-1.083-.625a.66.66,0,0,0-.6,0l-1.078.627c-.164.095-.161.251,0,.345l1.083.625a.656.656,0,0,0,.6,0Z" transform="translate(-1865.321 -715.798)"/><rect class="f" width="4.204" height="10.079" rx="1.584" transform="translate(108.151 203.28)"/><path class="l" d="M1965.677,858.4l.15,3.227,1.86,45.434c-.008.17-.022.135-.032.063a6.692,6.692,0,0,0-.43,2.4c2.8,2.046,5.2,3.187,8.94,3a31.873,31.873,0,0,1,.573-6.614c.066-.484,3.672-45.393,3.672-45.393v-.039C1974.876,860.616,1971.213,858.1,1965.677,858.4Z" transform="translate(-1857.304 -710.414)"/><path class="f" d="M1976.655,924.844c3.607,2.551,3.257,4.94,8.669,3.606a10.03,10.03,0,0,0,4.684-2.243,3.708,3.708,0,0,0,.887-4.481c-.772-1.247-2.388-1.834-3.919-2.178a24.139,24.139,0,0,0-7.767-.449,6.627,6.627,0,0,0-3.488,1.145C1973.8,921.794,1975.036,923.7,1976.655,924.844Z" transform="translate(-1858.342 -717.352)"/><path class="l" d="M1974.167,914.245a9.475,9.475,0,0,1,2.437,1.75c2.717,2.263,5.477,4.578,7.39,7.551-.565,1.673-2.4,2.887-4.4,3.489a29.822,29.822,0,0,1-3.431-1.214,18.7,18.7,0,0,1-7.575-6.281c-.229-.33-.45-.777-.223-1.107l3.021-2.924c3.028-2.93,7.5,1.251,10.554,2.844,1.154.6,2.463,1.439,2.508,2.739.042,1.217-1.081,2.144-2.18,2.664a10.453,10.453,0,0,1-3.438.954Z" transform="translate(-1857.6 -716.811)"/><path class="f" d="M1966.192,914.835a4.8,4.8,0,0,1,4.383.636c2.119,1.279,3.691,3.371,5.542,4.981,2.551,2.218,5.12,3.46,8.242,2.032,1.028.624,1.748,1.343,1.715,2.172-.046,1.207-2.209,2.756-3.164,3.412-3,2.063-7.819-1.249-10.258-2.488-1.921-.978-3.958-.8-5.788-1.611C1964.4,922.871,1963.619,917.149,1966.192,914.835Z" transform="translate(-1857.18 -716.846)"/><rect class="f" width="4.204" height="10.079" rx="1.584" transform="translate(82.829 187.269)"/><path class="m" d="M1936.615,852.159l.15-1.471,1.86,39.8c-.007.17-.022.136-.032.063a6.707,6.707,0,0,0-.429,2.4c2.8,2.046,5.2,3.188,8.94,3a31.846,31.846,0,0,1,.573-6.614c.065-.484,2.731-37.877,2.731-37.877v-.039C1944.876,851.55,1942.151,851.853,1936.615,852.159Z" transform="translate(-1853.976 -709.534)"/><path class="f" d="M1947.593,907.113c3.606,2.551,3.257,4.94,8.669,3.608a10.041,10.041,0,0,0,4.684-2.244,3.708,3.708,0,0,0,.887-4.482c-.772-1.247-2.388-1.834-3.919-2.176a24.129,24.129,0,0,0-7.767-.45,6.629,6.629,0,0,0-3.489,1.145C1944.735,904.065,1945.975,905.969,1947.593,907.113Z" transform="translate(-1855.014 -715.322)"/><path class="m" d="M1945.1,896.515a9.476,9.476,0,0,1,2.437,1.75c2.717,2.263,5.477,4.578,7.391,7.551-.565,1.673-2.4,2.887-4.4,3.489a29.93,29.93,0,0,1-3.431-1.214,18.691,18.691,0,0,1-7.575-6.281c-.23-.33-.449-.776-.223-1.108l3.021-2.924c3.027-2.929,7.5,1.252,10.554,2.844,1.153.6,2.463,1.439,2.507,2.74.042,1.216-1.08,2.143-2.179,2.663a10.462,10.462,0,0,1-3.439.954Z" transform="translate(-1854.273 -714.781)"/><path class="f" d="M1937.13,897.1a4.8,4.8,0,0,1,4.383.636c2.119,1.28,3.691,3.371,5.542,4.981,2.551,2.219,5.12,3.459,8.242,2.033,1.028.623,1.747,1.343,1.715,2.171-.045,1.208-2.209,2.756-3.163,3.412-3,2.063-7.819-1.249-10.258-2.488-1.921-.977-3.958-.8-5.788-1.611C1935.339,905.141,1934.558,899.42,1937.13,897.1Z" transform="translate(-1853.853 -714.816)"/><path class="n" d="M2023.977,759.786c0,11.746-4.514,15.05-4.514,15.05s-.989.624-2.459,1.548a.381.381,0,0,0-.078.065l-.312.182q-1.054.663-2.3,1.445l-.079-.04-.833.495-6.374,3.772a5.613,5.613,0,0,1-5.163.039l-14.2-8.207c-1.431-.82-1.431-2.16,0-2.992l6.386-3.694,3.72-2.146h.013c.924-.533,1.808-1.041,2.577-1.5,5.215-3,.259-16.936.012-17.625v-.013h.013Z" transform="translate(-1859.697 -697.566)"/><path class="i" d="M2024.941,759.786c0,11.746-4.514,15.05-4.514,15.05s-.989.624-2.459,1.548a.355.355,0,0,0-.077.065l-.313.182q-1.053.663-2.3,1.445l-.079-.04-.832.495-19.355-11.083,3.719-2.146h.013c.924-.533,1.808-1.041,2.576-1.5,5.216-3,.26-16.936.012-17.625l.013-.013Z" transform="translate(-1860.662 -697.566)"/><path class="o" d="M2015.66,758.943c0,1.8-1.267,2.536-2.83,1.634a6.255,6.255,0,0,1-2.83-4.9c0-1.8,1.267-2.536,2.83-1.634A6.254,6.254,0,0,1,2015.66,758.943Z" transform="translate(-1862.379 -698.423)"/><path class="m" d="M1910.227,809.957a29.41,29.41,0,0,1-.1-3.364c.7-1.465,1.323-2.786,1.316-2.9l21.964-15.246a3.98,3.98,0,0,1,2.878-1.053,4.086,4.086,0,0,1,.573.065,3.963,3.963,0,0,1,2.2,1.224,4.006,4.006,0,0,1-.236,5.655l-21.53,18.512-.052.044A4.33,4.33,0,0,1,1910.227,809.957Z" transform="translate(-1850.941 -702.286)"/><path class="l" d="M1942.944,796.472c-2.638,2.452-6.351,2.745-8.293.655s-1.379-5.772,1.26-8.223,6.351-2.745,8.293-.655S1945.582,794.021,1942.944,796.472Z" transform="translate(-1853.618 -702.225)"/><path class="f" d="M1966.343,854.038l-13.378-7.666c-5.177-2.593-9.253.63-14.806,2.264l.7-.7-2.611-4.077-30.908-2.18c-10.823,6.135-12.918,32.449-12.918,32.449l.01.2h0c-1.279,10.68,15.361,18.707,28.2,20.663a21.077,21.077,0,0,0,13.137-2.308l2.148-1.154,30.993-16.647C1976.254,869.6,1975.925,858.858,1966.343,854.038Z" transform="translate(-1848.909 -708.502)"/><path class="k" d="M1904.048,830.754a39.9,39.9,0,0,1-.1,5.432,2.519,2.519,0,0,0,1.147,2.354,33.311,33.311,0,0,0,4.848,2.524c4.859,2.037,10.429,3.186,15.615,2.037.207-.048.406-.1.612-.148,2.98-.762,9.459-2.523,10.044-6.214a1.835,1.835,0,0,0,.048-.455c-.01-.346-.029-.7-.048-1.059V818.662c1.612-4.8,4.571-8.222,3.1-14.317a21.676,21.676,0,0,0-3.453-7.757c-2.731-3.76-6.669-6.085-11.7-7.55-1.593-.455-3.166-.831-4.591-1.128a28.3,28.3,0,0,0-9.221-.347c-3.235.416-6.332,1.514-8.262,3.671a7.535,7.535,0,0,0-.693.87c-3.838,5.758-1.8,13.813-.406,20.065C1902.365,818.316,1903.81,824.491,1904.048,830.754Z" transform="translate(-1849.69 -702.28)"/><path class="p" d="M1928.538,777.376c-.019,0-.038.021-.058.043a1.3,1.3,0,0,1-.02-.275A.336.336,0,0,0,1928.538,777.376Z" transform="translate(-1853.042 -701.113)"/><path class="l" d="M1912.585,792.258h4.714a8.1,8.1,0,0,0,7.986-6.759l.293-1.754,1.071-6.419h-11.567Z" transform="translate(-1851.224 -701.133)"/><path class="m" d="M1918.75,779.868l5.743,8.723h.366l1.427-8.513Z" transform="translate(-1851.931 -701.424)"/><path class="m" d="M1927.48,774.307a.972.972,0,0,1-.738.06c-.026-.063-.013-.133-.049-.193Z" transform="translate(-1852.839 -700.772)"/><path class="m" d="M1931.5,782.759c.135.009.27.036.4.054l-1.06-1.015C1931.068,782.112,1931.282,782.436,1931.5,782.759Z" transform="translate(-1853.315 -701.645)"/><path class="m" d="M1911.945,791.148c1.811,2.652,7.854,1.7,13.624-2.1-1.6-.466-3.173-.841-4.6-1.133a28.572,28.572,0,0,0-9.218-.348A3.985,3.985,0,0,0,1911.945,791.148Z" transform="translate(-1851.092 -702.28)"/><path class="p" d="M1928.164,771.652c-.02,0-.036.024-.053.047a1.332,1.332,0,0,1-.046-.271A.34.34,0,0,0,1928.164,771.652Z" transform="translate(-1852.996 -700.458)"/><path class="l" d="M1933.954,764.492c.224,3.408-.018,6.819-1.755,9.513-1.909,3-5.334,4.463-8.683,4.891a10.132,10.132,0,0,1-5.528-.643c-3.282-1.538-5.135-5.383-6.3-9.074a31.883,31.883,0,0,1-1.024-4.286,16.261,16.261,0,0,1-.016-4.966,14.213,14.213,0,0,1,5.372-8.7,22.419,22.419,0,0,1,9.1-3.932,7.586,7.586,0,0,1,4.781.094,4.045,4.045,0,0,1,2.178,2.453,3.084,3.084,0,0,1,.163,1.208c.414,3.077.825,6.132,1.239,9.209C1933.666,761.647,1933.849,763.055,1933.954,764.492Z" transform="translate(-1850.981 -697.656)"/><path d="M1907,760a21.417,21.417,0,0,0,2.08,7.384,19.139,19.139,0,0,0,6.543,7.878c2.313,1.449,6.854,2.574,8.805-.019,1.915-2.542.289-6.576,2.182-9.134a8.771,8.771,0,0,1,2.092-1.8,16.511,16.511,0,0,0,4.433-4.289c2.856-4.385,1.513-12.518-3.349-15.094a16.408,16.408,0,0,0-12.849-.632,14.685,14.685,0,0,0-3.706,2.083c-.062.055-.126.1-.206.165A15.989,15.989,0,0,0,1907,760Z" transform="translate(-1850.578 -697.236)"/><path class="m" d="M1926.8,768.7a.967.967,0,0,1-.729.135c-.031-.06-.025-.131-.068-.187Z" transform="translate(-1852.761 -700.14)"/><path class="m" d="M1923.321,769.821a5.535,5.535,0,0,0,1.431,3.064,5.936,5.936,0,0,0,1.579,1.479,2.544,2.544,0,0,0,2.087.286c2.132-.755,1.6-3.949.764-5.457a3.875,3.875,0,0,0-3.161-2.065A2.586,2.586,0,0,0,1923.321,769.821Z" transform="translate(-1852.453 -699.966)"/><path class="d" d="M1929.7,806.2c1.482-2.646,2.752-4.56,5.944-4.045a41.356,41.356,0,0,1,6.512,1.918c.2.63.4,1.275.567,1.958,1.475,6.095-1.484,9.518-3.1,14.317v16.564c.02.356.039.713.049,1.059a1.836,1.836,0,0,1-.049.455c-.584,3.691-7.064,5.451-10.043,6.214-.207.049-.405.1-.613.148v-37.6A4.793,4.793,0,0,0,1929.7,806.2Z" transform="translate(-1853.1 -703.967)"/><path class="f" d="M1921.891,746.8l-.492.05Z" transform="translate(-1852.233 -697.638)"/><path class="l" d="M1944.27,837.1a29.14,29.14,0,0,1-.1-3.364c.7-1.465,1.323-2.786,1.316-2.9l21.964-15.246a3.981,3.981,0,0,1,2.878-1.053,4.054,4.054,0,0,1,.572.065,4,4,0,0,1,1.968,6.879L1951.336,840l-.052.044A4.33,4.33,0,0,1,1944.27,837.1Z" transform="translate(-1854.839 -705.394)"/><path class="l" d="M1976.987,823.614c-2.638,2.452-6.351,2.745-8.294.655s-1.378-5.771,1.26-8.223,6.352-2.745,8.294-.655S1979.625,821.163,1976.987,823.614Z" transform="translate(-1857.516 -705.332)"/><path class="l" d="M1971.4,816.649h0a1.723,1.723,0,0,1,.089-2.434l7.577-7.04a1.721,1.721,0,0,1,2.433.089h0a1.721,1.721,0,0,1-.089,2.433l-7.575,7.04A1.723,1.723,0,0,1,1971.4,816.649Z" transform="translate(-1857.906 -704.498)"/><path class="j" d="M1945.888,839.248l-.081.03a5.681,5.681,0,0,1-7.322-4.081l-7.1-28.41a5.936,5.936,0,0,1,11.517-2.88l2.8,11.2,2.76,11.032h0C1949.684,831.42,1952.2,836.9,1945.888,839.248Z" transform="translate(-1853.356 -703.662)"/><path d="M1926.014,761.758c-.063-.537-.114-1.075-.147-1.616-.29-4.607.569-9.5-3.444-12.939-2.793-2.393-6.83-2.529-10.5-2.315-4.015.233-8.161.79-11.572,2.92-6.4,4-6.373,14.1-4.465,20.594a51.358,51.358,0,0,1,1.715,8c-.047,4.16-2.452,6.27-7.193,7.068a10.538,10.538,0,0,0-8.005,6.234,14.738,14.738,0,0,0-1.244,5.327c-.28,5.73-.826,7.32-7.488,9.355a14.9,14.9,0,0,0-9.321,8.332c-4.679,10.229.14,25.014,10.764,33.023s23.029,6.207,27.709-4.023a23.037,23.037,0,0,0,1.131-14.505c-1.862-8.438-1.055-9.843,2.677-12.929a.3.3,0,0,0,.031-.029,11.07,11.07,0,0,0,3.019-3.988,17.018,17.018,0,0,0,.346-12.008c-1.773-5.708-1.509-9.433,1.3-11.512a26.973,26.973,0,0,1,6.276-1.98,11.473,11.473,0,0,0,8.452-6.74C1928.542,772.582,1926.658,767.268,1926.014,761.758Z" transform="translate(-1845.497 -697.411)"/><path class="q" d="M1873.809,956.189a7.2,7.2,0,0,1,3.259-5.644c1.8-1.039,3.258-.2,3.259,1.881a7.2,7.2,0,0,1-3.259,5.644C1875.269,959.109,1873.809,958.267,1873.809,956.189Z" transform="translate(-1846.784 -720.916)"/><path class="q" d="M1873.809,956.189a7.2,7.2,0,0,1,3.259-5.644c1.8-1.039,3.258-.2,3.259,1.881a7.2,7.2,0,0,1-3.259,5.644C1875.269,959.109,1873.809,958.267,1873.809,956.189Z" transform="translate(-1846.784 -720.916)"/><path class="q" d="M1879.559,950.414l2.808,1.463-4.409,8.035-3.288-1.711.833-4.525Z" transform="translate(-1846.883 -720.952)"/><path class="e" d="M1876.938,957.812a7.2,7.2,0,0,1,3.259-5.644c1.8-1.039,3.258-.2,3.258,1.882a7.2,7.2,0,0,1-3.258,5.644C1878.4,960.732,1876.938,959.89,1876.938,957.812Z" transform="translate(-1847.142 -721.102)"/><path class="k" d="M1876.938,957.812a7.2,7.2,0,0,1,3.259-5.644c1.8-1.039,3.258-.2,3.258,1.882a7.2,7.2,0,0,1-3.258,5.644C1878.4,960.732,1876.938,959.89,1876.938,957.812Z" transform="translate(-1847.142 -721.102)"/><path class="q" d="M1918.062,931.455a7.208,7.208,0,0,1,3.259-5.644c1.8-1.039,3.259-.2,3.259,1.882a7.2,7.2,0,0,1-3.259,5.644C1919.522,934.375,1918.062,933.533,1918.062,931.455Z" transform="translate(-1851.851 -718.084)"/><path class="q" d="M1918.062,931.455a7.208,7.208,0,0,1,3.259-5.644c1.8-1.039,3.259-.2,3.259,1.882a7.2,7.2,0,0,1-3.259,5.644C1919.522,934.375,1918.062,933.533,1918.062,931.455Z" transform="translate(-1851.851 -718.084)"/><path class="q" d="M1923.812,925.68l2.808,1.464-4.408,8.035-3.288-1.711.833-4.525Z" transform="translate(-1851.95 -718.12)"/><path class="e" d="M1921.19,933.077a7.2,7.2,0,0,1,3.259-5.644c1.8-1.04,3.258-.2,3.258,1.882a7.206,7.206,0,0,1-3.258,5.644C1922.649,936,1921.19,935.156,1921.19,933.077Z" transform="translate(-1852.209 -718.27)"/><path class="k" d="M1921.19,933.077a7.2,7.2,0,0,1,3.259-5.644c1.8-1.04,3.258-.2,3.258,1.882a7.206,7.206,0,0,1-3.258,5.644C1922.649,936,1921.19,935.156,1921.19,933.077Z" transform="translate(-1852.209 -718.27)"/><path class="q" d="M1915.986,957.281a7.2,7.2,0,0,1,3.259-5.643c1.8-1.04,3.259-.2,3.259,1.881a7.2,7.2,0,0,1-3.259,5.644C1917.445,960.2,1915.986,959.359,1915.986,957.281Z" transform="translate(-1851.614 -721.041)"/><path class="q" d="M1915.986,957.281a7.2,7.2,0,0,1,3.259-5.643c1.8-1.04,3.259-.2,3.259,1.881a7.2,7.2,0,0,1-3.259,5.644C1917.445,960.2,1915.986,959.359,1915.986,957.281Z" transform="translate(-1851.614 -721.041)"/><path class="q" d="M1921.735,951.506l2.808,1.464L1920.136,961l-3.288-1.711.833-4.525Z" transform="translate(-1851.712 -721.077)"/><path class="e" d="M1919.113,958.9a7.2,7.2,0,0,1,3.259-5.644c1.8-1.039,3.259-.2,3.259,1.882a7.2,7.2,0,0,1-3.259,5.644C1920.573,961.824,1919.113,960.982,1919.113,958.9Z" transform="translate(-1851.972 -721.227)"/><path class="k" d="M1919.113,958.9a7.2,7.2,0,0,1,3.259-5.644c1.8-1.039,3.259-.2,3.259,1.882a7.2,7.2,0,0,1-3.259,5.644C1920.573,961.824,1919.113,960.982,1919.113,958.9Z" transform="translate(-1851.972 -721.227)"/><path class="q" d="M1873.025,932.372a7.2,7.2,0,0,1,3.259-5.644c1.8-1.039,3.259-.2,3.259,1.881a7.2,7.2,0,0,1-3.259,5.644C1874.484,935.293,1873.025,934.451,1873.025,932.372Z" transform="translate(-1846.694 -718.189)"/><path class="q" d="M1873.025,932.372a7.2,7.2,0,0,1,3.259-5.644c1.8-1.039,3.259-.2,3.259,1.881a7.2,7.2,0,0,1-3.259,5.644C1874.484,935.293,1873.025,934.451,1873.025,932.372Z" transform="translate(-1846.694 -718.189)"/><path class="q" d="M1878.775,926.6l2.809,1.464-4.408,8.035-3.288-1.711.833-4.525Z" transform="translate(-1846.792 -718.225)"/><path class="e" d="M1876.153,934a7.2,7.2,0,0,1,3.259-5.644c1.8-1.039,3.259-.2,3.259,1.882a7.2,7.2,0,0,1-3.259,5.643C1877.612,936.916,1876.153,936.074,1876.153,934Z" transform="translate(-1847.053 -718.375)"/><path class="k" d="M1876.153,934a7.2,7.2,0,0,1,3.259-5.644c1.8-1.039,3.259-.2,3.259,1.882a7.2,7.2,0,0,1-3.259,5.643C1877.612,936.916,1876.153,936.074,1876.153,934Z" transform="translate(-1847.053 -718.375)"/><path class="i" d="M1920.017,944.964l-14.42-8.326,14.42-8.325c2.367-1.366,2.367-3.6,0-4.969h0a9.55,9.55,0,0,0-8.608,0l-14.419,8.325-14.42-8.325a9.549,9.549,0,0,0-8.607,0c-2.367,1.367-2.367,3.6,0,4.969l14.42,8.325-14.42,8.326c-2.367,1.366-2.367,3.6,0,4.969h0a9.549,9.549,0,0,0,8.607,0l14.42-8.325,14.419,8.325a9.55,9.55,0,0,0,8.608,0C1922.384,948.567,1922.384,946.33,1920.017,944.964Z" transform="translate(-1846.599 -717.735)"/><path class="i" d="M1920.017,944.964l-14.42-8.326,14.42-8.325c2.367-1.366,2.367-3.6,0-4.969h0a9.55,9.55,0,0,0-8.608,0l-14.419,8.325-14.42-8.325a9.549,9.549,0,0,0-8.607,0c-2.367,1.367-2.367,3.6,0,4.969l14.42,8.325-14.42,8.326c-2.367,1.366-2.367,3.6,0,4.969h0a9.549,9.549,0,0,0,8.607,0l14.42-8.325,14.419,8.325a9.55,9.55,0,0,0,8.608,0C1922.384,948.567,1922.384,946.33,1920.017,944.964Z" transform="translate(-1846.599 -717.735)"/><path class="e" d="M1892,937.286c0,2.694,3.251,4.877,7.262,4.877s7.262-2.184,7.262-4.877-3.251-7.157-7.262-7.157S1892,934.593,1892,937.286Z" transform="translate(-1848.867 -718.63)"/><path class="i" d="M1894.18,933.707c0,1.977,2.385,3.579,5.328,3.579s5.327-1.6,5.327-3.579-2.384-3.578-5.327-3.578S1894.18,931.732,1894.18,933.707Z" transform="translate(-1849.117 -718.63)"/><path class="e" d="M1899.776,890.8a3.281,3.281,0,0,0-3.259,3.3v31.8a3.259,3.259,0,1,0,6.518,0V894.1A3.282,3.282,0,0,0,1899.776,890.8Z" transform="translate(-1849.385 -714.126)"/><path class="r" d="M1959.009,882.966a5.417,5.417,0,0,1-.019.554,16.209,16.209,0,0,1-8.361,12.983L1915.08,916a9.446,9.446,0,0,1-1.682.724,9.7,9.7,0,0,1-7.938-.864l-40.716-23.993a22.221,22.221,0,0,1-10.843-17.08l-4.264-45.639-.442-4.744a5.068,5.068,0,0,1,7.291-5.016l44.071,21.8a5.071,5.071,0,0,1,2.564,2.95l14.092,42.764a5.884,5.884,0,0,0,8.5,3.269l23-13.152A6.882,6.882,0,0,1,1959.009,882.966Z" transform="translate(-1843.964 -705.888)"/><path class="q" d="M1912.189,914.824a2.825,2.825,0,0,1-3.048,3.793,9.688,9.688,0,0,1-3.578-1.249l-40.716-23.993A22.223,22.223,0,0,1,1854,876.3l-3.926-42.02a2.029,2.029,0,0,1,2.92-2.008l35.561,17.582a5.087,5.087,0,0,1,2.564,2.959l14.083,42.764C1905.691,897.063,1908.668,905.587,1912.189,914.824Z" transform="translate(-1844.066 -707.4)"/></g><g transform="translate(51.033)"><path class="s" d="M2320.381,369.219,2115.714,250.293c-3.771-2.409-7.022-.766-7.263,3.668l-1.007,18.55-7.655,140.926a15.263,15.263,0,0,0,6.39,12.391l204.667,118.926c3.771,2.409,7.021.767,7.262-3.667l7.656-140.926,1.007-18.551A15.26,15.26,0,0,0,2320.381,369.219Z" transform="translate(-2091.147 -249.183)"/><path class="t" d="M2313.393,415.2l-7.66,140.923c-.24,4.438-3.492,6.075-7.263,3.672l-115.749-67.261-88.914-51.671a15.252,15.252,0,0,1-6.391-12.384l7.653-140.93,96,56.124Z" transform="translate(-2087.402 -260.801)"/><path class="d" d="M2317.73,386.522l-1,18.452-.008.1L2194.4,333.545l-96-56.124.09-1.637.916-16.913c.24-4.431,3.492-6.075,7.262-3.665l204.67,118.925A15.261,15.261,0,0,1,2317.73,386.522Z" transform="translate(-2090.732 -250.67)"/><path class="u" d="M2392.843,440.851a6.672,6.672,0,0,0,2.9,5.36c1.671,1.019,3.077.273,3.143-1.668a6.673,6.673,0,0,0-2.9-5.359C2394.315,438.164,2392.908,438.91,2392.843,440.851Z" transform="translate(-2179.887 -306.577)"/><path class="v" d="M2377.11,431.248a6.673,6.673,0,0,0,2.9,5.359c1.67,1.019,3.077.273,3.143-1.668a6.673,6.673,0,0,0-2.9-5.359C2378.583,428.561,2377.176,429.307,2377.11,431.248Z" transform="translate(-2175.124 -303.669)"/><g class="w" transform="translate(12.744 48.409)"><path class="c" d="M2361.378,421.645a6.675,6.675,0,0,0,2.9,5.359c1.669,1.019,3.076.272,3.142-1.668a6.669,6.669,0,0,0-2.9-5.359C2362.85,418.958,2361.444,419.7,2361.378,421.645Z" transform="translate(-2183.102 -349.17)"/><path class="x" d="M2176.745,365.882l-71.066-41.029v-6.236l71.066,41.029Z" transform="translate(-2105.68 -318.617)"/><path class="x" d="M2159.835,434.284l-54.156-31.267v-6.236l54.156,31.267Z" transform="translate(-2105.679 -342.285)"/><path class="x" d="M2159.835,434.284l-54.156-31.267v-6.236l54.156,31.267Z" transform="translate(-1965.358 -270.081)"/><path class="x" d="M2171.962,456.918l-54.155-31.267v-6.236l54.155,31.267Z" transform="translate(-2109.352 -349.138)"/><path class="x" d="M2184.089,479.552l-54.156-31.267v-6.236l54.156,31.267Z" transform="translate(-2113.024 -355.992)"/><path class="x" d="M2196.215,502.186,2142.06,470.92v-6.236l54.155,31.267Z" transform="translate(-2116.695 -362.845)"/><path class="x" d="M2229.015,536.756l-86.954-50.2v-6.236l86.954,50.2Z" transform="translate(-2116.695 -367.579)"/><path class="x" d="M2229.015,536.756l-86.954-50.2v-6.236l86.954,50.2Z" transform="translate(-2024.055 -412.536)"/><path class="x" d="M2208.6,540.6l-66.543-38.418v-6.236l66.543,38.418Z" transform="translate(-2116.695 -372.312)"/><path class="x" d="M2184.35,542.234l-66.543-38.418v-6.236L2184.35,536Z" transform="translate(-2109.352 -372.806)"/><path class="x" d="M2237.213,400.794,2216.792,389v-6.236l20.421,11.791Z" transform="translate(-2139.323 -338.041)"/><path class="x" d="M2195.151,392.142l-71.064-41.029v-6.236l71.064,41.029Z" transform="translate(-2111.252 -326.568)"/><path class="x" d="M2216.022,419.825,2144.958,378.8v-6.236l71.064,41.029Z" transform="translate(-2117.573 -334.95)"/><path class="x" d="M2216.022,435.458l-71.064-41.029v-6.236l71.064,41.029Z" transform="translate(-2117.573 -339.684)"/><path class="x" d="M2216.022,435.458l-71.064-41.029v-6.236l71.064,41.029Z" transform="translate(-2034.47 -306.988)"/><path class="x" d="M2149.132,412.322l-25.045-14.46v-5.707l25.045,14.46Z" transform="translate(-2111.252 -340.884)"/><path class="c" d="M2267.582,496.364a11.462,11.462,0,0,1-.046,1.18,1.173,1.173,0,0,1-.15.539.16.16,0,0,1-.249.022,2.294,2.294,0,0,1-.383-.387l-11.977-14.867a2.074,2.074,0,0,1-.319-.882,10.291,10.291,0,0,1-.1-1.651q0-.541.032-.929a5.4,5.4,0,0,1,.077-.621.8.8,0,0,1,.133-.34.329.329,0,0,1,.194-.127l11.961-1.006a.616.616,0,0,1,.642.484,5.8,5.8,0,0,1,.187,1.763q0,.854-.024,1.34a3.981,3.981,0,0,1-.087.741.484.484,0,0,1-.17.318.746.746,0,0,1-.3.079l-8.994.429L2266.832,493a5.455,5.455,0,0,1,.383.512,1.8,1.8,0,0,1,.226.579,5.706,5.706,0,0,1,.109.875Q2267.582,495.49,2267.582,496.364Z" transform="translate(-2157.4 -356.008)"/><path class="c" d="M2285.73,507.465a.666.666,0,0,1-.2.319.479.479,0,0,1-.352.068,2.2,2.2,0,0,1-.562-.168,8.077,8.077,0,0,1-.851-.44,9.139,9.139,0,0,1-1.046-.687,3.236,3.236,0,0,1-.617-.606,1.187,1.187,0,0,1-.241-.567,1.388,1.388,0,0,1,.062-.578l9.337-29.564a.647.647,0,0,1,.187-.339.447.447,0,0,1,.344-.082,2.052,2.052,0,0,1,.57.173,8.56,8.56,0,0,1,.85.439,9.115,9.115,0,0,1,1.054.692,3.089,3.089,0,0,1,.6.6,1.2,1.2,0,0,1,.234.562,1.661,1.661,0,0,1-.047.587Z" transform="translate(-2169.974 -354.876)"/><path class="c" d="M2323.245,514.151q0,.541-.032.919a4.507,4.507,0,0,1-.085.617.855.855,0,0,1-.141.346.243.243,0,0,1-.195.106l-11.976,1a.545.545,0,0,1-.375-.091.8.8,0,0,1-.257-.378,2.633,2.633,0,0,1-.14-.7q-.04-.428-.039-1.053,0-.854.024-1.34a4.044,4.044,0,0,1,.086-.742.544.544,0,0,1,.17-.328.521.521,0,0,1,.3-.068l8.994-.429-8.823-10.548a4.594,4.594,0,0,1-.4-.521,1.768,1.768,0,0,1-.227-.578,5.037,5.037,0,0,1-.1-.87q-.025-.523-.024-1.4,0-.771.039-1.185a1.135,1.135,0,0,1,.14-.544c.068-.086.154-.092.257-.018a2.1,2.1,0,0,1,.375.383l11.991,14.9a1.934,1.934,0,0,1,.32.851A9.23,9.23,0,0,1,2323.245,514.151Z" transform="translate(-2182.851 -364.7)"/><path class="c" d="M2505.757,500.27l.031-.013.043-.017C2506.41,500.051,2504.705,501.285,2505.757,500.27Z" transform="translate(-2334.087 -373.606)"/></g><g class="w" transform="translate(154.344 210.49)"><path class="y" d="M1400.186,429.94c1.821,9.354-4.439,14.633-11.112,14.729s-12.517-6.345-13.053-14.385,4.44-14.633,11.112-14.728S1398.646,422.031,1400.186,429.94Z" transform="translate(-1375.129 -413.266)"/><path class="c" d="M1463.114,541.228l-2.481,3.219-5.518-11.23,2.981-2.2Z" transform="translate(-1436.251 -502.447)"/><path class="c" d="M1481.635,581.126l0,0-6.841-13.311h0c-.188-.563-.832-.893-1.839-.833a7.077,7.077,0,0,0-4.887,2.786,1.629,1.629,0,0,0-.246,1.823h0l1.6,3.12h0l6.786,13.234,7.028-3.7Z" transform="translate(-1445.927 -530.221)"/><path class="c" d="M1511.163,641.511c1.572-.2,1.926.651.792,1.9a9.324,9.324,0,0,1-4.9,2.636c-1.572.2-1.926-.651-.791-1.9A9.326,9.326,0,0,1,1511.163,641.511Z" transform="translate(-1475.242 -587.77)"/><path class="c" d="M1393.226,413.959c-6.61-3.689-13.675-.36-15.78,7.435s1.546,17.1,8.156,20.792,13.675.36,15.78-7.435S1399.835,417.648,1393.226,413.959Zm7.373,19.981a9.776,9.776,0,0,1-14.423,6.121c-5.615-3.133-8.716-11.04-6.928-17.661s8.3-10.353,13.914-7.22S1402.387,427.319,1400.6,433.94Z" transform="translate(-1375.8 -410.872)"/><path class="c" d="M1426.78,424.732c.015-.171.028-.343.037-.514,0-.031,0-.062,0-.092,0-.082.006-.164.009-.246,0-.1.009-.2.011-.3,0-.055,0-.111,0-.166,0-.089,0-.178,0-.267,0-.068,0-.137,0-.205s-.005-.165-.007-.247,0-.178-.008-.267c0-.044,0-.088,0-.132-.005-.117-.015-.234-.023-.351,0-.076-.008-.152-.014-.227,0-.022,0-.043,0-.064q-.025-.314-.06-.628v-.007c0-.019,0-.038-.007-.057q-.032-.277-.071-.554c0-.029-.009-.058-.014-.087-.01-.07-.022-.139-.033-.209-.016-.1-.03-.2-.047-.3-.011-.063-.025-.126-.036-.189s-.029-.154-.044-.23c-.011-.056-.021-.113-.032-.169-.023-.112-.049-.223-.074-.335-.013-.06-.026-.119-.039-.178,0-.021-.009-.042-.014-.064q-.069-.293-.146-.584l-.007-.025c-.015-.056-.032-.111-.047-.166-.041-.149-.082-.3-.127-.447-.007-.023-.015-.046-.023-.07-.037-.122-.077-.242-.117-.364-.032-.1-.061-.195-.094-.291-.006-.018-.013-.034-.019-.052-.108-.313-.224-.622-.346-.928-.011-.026-.019-.053-.029-.078-.032-.078-.067-.154-.1-.23-.053-.126-.105-.251-.161-.375s-.1-.219-.151-.328-.114-.245-.174-.366c-.019-.04-.037-.081-.057-.121-.047-.1-.1-.189-.146-.283-.033-.065-.066-.13-.1-.194-.107-.2-.217-.4-.331-.6l0-.005h0l0-.005q-.2-.337-.4-.664c-.006-.01-.011-.02-.018-.029-.1-.159-.206-.314-.312-.469-.021-.031-.042-.063-.063-.095l0-.006q-.19-.274-.387-.539l-.02-.026c-.04-.054-.082-.106-.123-.16-.084-.11-.168-.221-.254-.328l-.05-.06c-.059-.072-.119-.143-.179-.214s-.13-.159-.2-.236c-.025-.029-.051-.056-.076-.084-.066-.074-.133-.147-.2-.22s-.113-.128-.172-.19c-.033-.035-.068-.068-.1-.1-.073-.076-.147-.151-.221-.225-.052-.051-.1-.105-.153-.156s-.084-.077-.125-.116c-.075-.072-.151-.143-.227-.213-.046-.043-.091-.087-.138-.129s-.1-.087-.154-.132c-.075-.066-.151-.131-.227-.2-.039-.033-.077-.068-.117-.1-.064-.053-.131-.1-.2-.155s-.143-.114-.216-.17c-.03-.022-.057-.046-.087-.069-.088-.067-.18-.129-.269-.194-.062-.044-.123-.09-.185-.133l-.047-.034c-.163-.113-.329-.222-.5-.327l0,0-.037-.022q-.228-.142-.46-.276l-.118-.066q-.191-.107-.382-.205c-.048-.025-.1-.047-.146-.071l-.2-.1c-.052-.025-.1-.051-.154-.075-.083-.038-.165-.072-.248-.108-.059-.026-.119-.053-.178-.078l-.073-.032q-.249-.1-.5-.191h0q-.254-.091-.508-.169l-.067-.019c-.061-.019-.123-.035-.184-.052-.087-.025-.175-.051-.262-.074-.043-.011-.087-.019-.131-.03-.076-.019-.152-.036-.229-.053-.058-.013-.118-.028-.176-.04s-.123-.021-.185-.033c-.077-.014-.154-.028-.231-.041-.041-.007-.082-.015-.122-.021-.073-.011-.145-.017-.218-.026-.09-.012-.181-.024-.27-.033l-.1-.012c-.075-.007-.149-.009-.224-.014-.1-.007-.194-.014-.292-.018l-.086-.005c-.066,0-.132,0-.2,0-.117,0-.233,0-.35,0h-.1c-.129,0-.258.012-.386.021l-.049,0c-.1.008-.2.016-.292.026-.062.007-.123.016-.184.024l-.139.018c-.169.024-.337.051-.5.084l-.015,0c-.045.009-.09.021-.135.031-.139.03-.278.061-.415.1-.067.018-.133.038-.2.057-.089.025-.177.048-.265.076l-.066.023c-.135.044-.269.093-.4.143-.065.024-.131.046-.2.072-.2.079-.391.163-.582.255l-3.131,1.5c.192-.092.386-.176.582-.254.064-.026.13-.048.195-.072.134-.05.267-.1.4-.143.109-.036.22-.068.331-.1.066-.019.133-.04.2-.058.138-.036.277-.067.416-.1.045-.01.09-.022.135-.031.172-.034.345-.063.518-.088l.14-.018c.157-.02.316-.038.475-.05l.05,0c.16-.012.322-.017.484-.021.116,0,.233,0,.35,0,.094,0,.189,0,.284.005s.195.011.292.018.213.015.319.025c.09.009.179.021.269.033.113.015.227.029.341.048.077.012.154.026.23.041.12.022.241.047.362.073l.229.053c.13.032.261.066.391.1l.185.052c.191.058.383.119.574.188h0c.19.069.381.144.571.224.059.025.118.052.177.077.134.059.268.12.4.184l.2.1c.176.088.353.179.529.277.2.109.389.224.579.343l.035.021c.186.117.368.239.549.365.062.043.122.088.183.132.12.086.24.173.357.264.072.055.144.113.215.169.106.084.211.169.314.256.076.064.152.129.227.195.1.086.2.173.291.261q.114.1.227.212.14.135.277.273c.074.074.148.149.221.225.092.1.183.194.273.293.067.074.135.147.2.221.092.1.183.212.273.319.06.072.121.142.179.215.1.127.2.257.3.388.041.054.084.106.124.16q.211.281.411.571c.021.03.04.061.061.091q.169.248.331.5.206.324.4.658l.006.012v0c.115.2.225.4.334.6.034.064.067.13.1.195q.1.2.2.4c.059.121.116.243.173.366s.1.219.151.329.107.249.16.374c.043.1.087.206.128.31q.184.46.346.928c.039.114.076.229.113.343s.08.242.117.364c.052.171.1.342.148.514.016.057.033.113.048.169q.09.334.167.672c.014.059.026.119.039.178q.056.251.106.5.023.115.043.23.045.243.083.487c.011.07.023.139.033.209q.048.322.085.645c0,.018.005.035.007.053q.039.35.065.7c.006.076.009.152.014.228q.016.24.026.482c0,.089.006.179.008.269q.007.225.007.45c0,.089,0,.178,0,.267q0,.233-.012.466c0,.081-.005.163-.009.244q-.015.3-.041.607c0,.03,0,.059-.006.089q-.031.347-.076.692c-.008.066-.019.131-.028.2q-.034.248-.076.494c-.013.079-.028.159-.042.238q-.043.233-.093.465c-.016.075-.031.15-.048.225-.05.221-.1.44-.162.658s-.129.454-.2.675c-.02.063-.042.124-.063.186-.05.152-.1.3-.156.451-.031.086-.064.17-.1.255-.049.126-.1.25-.15.373-.038.091-.077.18-.116.269q-.075.17-.154.336-.071.15-.145.3c-.051.1-.1.2-.154.3q-.092.172-.188.339c-.05.087-.1.174-.152.26-.081.134-.165.265-.25.394-.054.081-.106.164-.16.243-.028.04-.056.079-.084.119q-.143.2-.292.395l-.058.076q-.189.241-.388.469l0,0q-.2.227-.406.439l-.085.084q-.157.158-.319.308c-.043.04-.087.08-.131.119-.1.091-.2.179-.308.266l-.119.1c-.141.114-.285.225-.431.331l-.062.043q-.191.135-.386.262l-.143.09c-.111.069-.222.135-.335.2l-.14.079c-.156.085-.313.168-.473.244l3.131-1.5c.16-.076.317-.159.473-.244l.14-.079q.169-.1.335-.2l.143-.09c.13-.084.259-.171.386-.262l.062-.043c.146-.106.289-.216.431-.331.04-.032.079-.066.119-.1q.156-.129.308-.266c.044-.039.088-.079.13-.119.108-.1.214-.2.319-.308l.084-.084.026-.025q.193-.2.38-.414l0,0q.186-.213.364-.438l.024-.031.058-.076q.149-.193.292-.395l.083-.119c.021-.03.042-.058.062-.088.034-.05.065-.1.1-.155.085-.13.169-.26.25-.394.021-.036.045-.069.066-.1s.057-.1.086-.155q.1-.167.189-.339c.025-.047.053-.091.077-.139s.051-.105.077-.157c.049-.1.1-.2.145-.3.024-.051.05-.1.074-.152s.053-.123.08-.184c.04-.089.079-.178.117-.269.019-.046.041-.091.059-.137.031-.077.06-.158.091-.236s.066-.169.1-.255c.013-.035.026-.068.039-.1.041-.114.078-.232.117-.349.021-.062.042-.123.062-.186.005-.016.011-.03.015-.046q.093-.292.175-.594l.01-.035q.074-.276.139-.554c.008-.035.014-.07.022-.1.017-.075.033-.149.048-.224s.039-.175.057-.264c.013-.067.024-.135.036-.2s.029-.158.042-.237c.009-.052.019-.1.028-.156.018-.113.032-.226.048-.339.009-.065.019-.13.027-.2,0-.022.007-.043.009-.065q.038-.306.065-.614a.123.123,0,0,0,0-.013C1426.776,424.792,1426.778,424.762,1426.78,424.732Z" transform="translate(-1397.797 -405.498)"/><path class="c" d="M1389.452,411.312a10.9,10.9,0,0,0-9.755-.746c-3.317,1.419-5.751,4.45-6.854,8.536-2.151,7.961,1.6,17.506,8.359,21.278a11.675,11.675,0,0,0,6.042,1.565,10.169,10.169,0,0,0,3.713-.82c3.317-1.419,5.751-4.45,6.854-8.536C1399.961,424.629,1396.211,415.084,1389.452,411.312Zm6.8,20.726a10.892,10.892,0,0,1-6.031,7.51,8.949,8.949,0,0,1-3.267.721,10.274,10.274,0,0,1-5.317-1.378c-5.948-3.319-9.247-11.718-7.355-18.723a10.892,10.892,0,0,1,6.031-7.51,9.59,9.59,0,0,1,8.583.656C1394.844,416.634,1398.143,425.033,1396.251,432.038Z" transform="translate(-1372.236 -408.776)"/></g></g></g><g transform="translate(-23 3446)"><path class="g" d="M2082.343,1008.589c-14.278,0-25.894,7.664-25.894,17.085s11.616,17.085,25.894,17.085,25.893-7.664,25.893-17.085S2096.62,1008.589,2082.343,1008.589Z" transform="translate(-1224.594 180.882)"/><path class="j" d="M2102.192,998.561l-6,30.1H2056.41l-6-30.1Z" transform="translate(-1214.708 170.457)"/><path class="j" d="M2096.515,1029.69c0,5.088-7.708,10.748-18.906,11.063-.323.007-.653.015-.983.015-11.723,0-19.889-5.84-19.889-11.078s8.166-11.086,19.889-11.086a31.763,31.763,0,0,1,8.278,1.058C2092.019,1021.576,2096.515,1025.8,2096.515,1029.69Z" transform="translate(-1215.034 169.424)"/><path class="e" d="M2103.653,998.561l-6,30.1c0,5.089-7.708,10.748-18.906,11.063a19.463,19.463,0,0,0,3.5-4.653,27.867,27.867,0,0,0,2.424-6.41,53.025,53.025,0,0,0,1.374-10.027c.1-1.718.157-3.437.2-5.141q.214-7.465.435-14.928Z" transform="translate(-1216.168 170.457)"/><ellipse class="k" cx="25.893" cy="17.085" rx="25.893" ry="17.085" transform="translate(835.698 1151.93)"/><ellipse class="f" cx="19.889" cy="11.081" rx="19.889" ry="11.081" transform="translate(841.702 1157.934)"/><circle class="e" cx="17.859" cy="17.859" r="17.859" transform="translate(841.103 1098.891) rotate(-80.783)"/><circle class="e" cx="12.663" cy="12.663" r="12.663" transform="translate(845.047 1103.527) rotate(-22.5)"/><ellipse class="e" cx="13.784" cy="13.784" rx="13.784" ry="13.784" transform="translate(843.582 1149.802) rotate(-67.5)"/><path class="e" d="M2082.4,1000.239a4.959,4.959,0,1,1-4.958-4.958A4.959,4.959,0,0,1,2082.4,1000.239Z" transform="translate(-1215.845 170.626)"/><path class="e" d="M2091,920.662c-3.962,5.058-3.837,6.494-2.221,10.754H2065.1c1.616-4.26,1.741-5.7-2.22-10.754Z" transform="translate(-1215.351 174.473)"/><path class="e" d="M2089.222,922.824c-13.063,12.178-11.5,25.676-2.1,35.758h-20.164c9.4-10.082,10.966-23.58-2.1-35.758Z" transform="translate(-1215.453 174.361)"/><path class="e" d="M2088.723,923.322c-13.534,11.651-11.128,66.215-7.893,69.973h-7.517c3.237-3.758,5.642-58.323-7.893-69.973Z" transform="translate(-1215.481 174.335)"/><path class="e" d="M2086.295,946.01c-4.409,4.567-4.506,8.451.465,13.25h-19.148c4.972-4.8,4.874-8.683.465-13.25Z" transform="translate(-1215.595 173.166)"/><path class="e" d="M2085.616,946.76c-9.507,8.364-7.917,43.98-4.642,47.7h-7.446c3.275-3.724,4.866-39.339-4.641-47.7Z" transform="translate(-1215.66 173.127)"/><path class="e" d="M2085.366,982.2c-8.94,6.492-6.423,11.24-4.088,14.456h-8.025c2.336-3.216,4.852-7.964-4.087-14.456Z" transform="translate(-1215.675 171.301)"/></g></g></svg>