<svg xmlns="http://www.w3.org/2000/svg" xmlns:xlink="http://www.w3.org/1999/xlink" width="549" height="424.749" viewBox="0 0 549 424.749"><defs><style>.a{fill:#fff;}.b{fill:none;}.c{fill:#8dc0ef;}.d{fill:#1f3598;}.e{fill:#647ddd;opacity:0.17;}.f{fill:#d5e8fa;}.g{fill:#eff6fc;}.h{fill:#bddcff;}.i{fill:#e2e8f2;}.j{fill:#75a3ec;}.k{fill:#ffc7cb;}.l{fill:#ff8358;}.m{fill:#577de8;}.n{fill:#f2f4fa;}.o{fill:#3772ce;}.p{fill:#fec7cb;}.q{fill:#4568c7;}.r{fill:#a0d2ff;}.s{fill:#636363;}.t{fill:#842229;}.u{fill:rgba(15,0,0,0.1);}.v{fill:#c4e4f9;}.w{fill:#0f62fe;}.x{fill:#cacaca;mix-blend-mode:multiply;}.ab,.x{isolation:isolate;}.y{fill:#1162fb;}.z{fill:#32b98e;}.aa{fill:#f26c73;}.ac{clip-path:url(#a);}.ad{clip-path:url(#d);}.ae{fill:#e95059;}.af{fill:#536099;}.ag{fill:#fcad9d;}.ah{fill:#f1947d;}.ai{fill:#4b598c;}.aj{font-size:14px;}.aj,.ak{font-family:'.AppleSystemUIFont';}.ak{font-size:13px;}.al{clip-path:url(#g);}.am{fill:#3d3535;}.an{fill:#f2bf5e;}.ao{fill:#e8b156;}.ap{clip-path:url(#j);}.aq{fill:#ef6d53;}.ar{fill:#ad847b;}.as{fill:#87655f;}.at{fill:#e0563f;}.au{filter:url(#h);}.av{filter:url(#e);}.aw{filter:url(#b);}</style><clipPath id="a"><path class="a" d="M-2127.408,2503.746l.252-88.788,167.207,96.537-.252,88.789Z" transform="translate(2127.408 -2414.958)"/></clipPath><filter id="b" x="396.272" y="138.748" width="152.727" height="145.243" filterUnits="userSpaceOnUse"><feOffset input="SourceAlpha"/><feGaussianBlur stdDeviation="3" result="c"/><feFlood flood-opacity="0.161"/><feComposite operator="in" in2="c"/><feComposite in="SourceGraphic"/></filter><clipPath id="d"><rect class="b" width="134.632" height="70.6" transform="translate(0)"/></clipPath><filter id="e" x="255.275" y="88.476" width="148.148" height="140.917" filterUnits="userSpaceOnUse"><feOffset input="SourceAlpha"/><feGaussianBlur stdDeviation="3" result="f"/><feFlood flood-opacity="0.161"/><feComposite operator="in" in2="f"/><feComposite in="SourceGraphic"/></filter><clipPath id="g"><rect class="b" width="131.798" height="69.113" transform="translate(0)"/></clipPath><filter id="h" x="254.75" y="215.748" width="150.101" height="142.762" filterUnits="userSpaceOnUse"><feOffset input="SourceAlpha"/><feGaussianBlur stdDeviation="3" result="i"/><feFlood flood-opacity="0.161"/><feComposite operator="in" in2="i"/><feComposite in="SourceGraphic"/></filter><clipPath id="j"><rect class="b" width="131.612" height="69.764" transform="translate(0)"/></clipPath></defs><g transform="translate(-404 -2651.252)"><g transform="translate(487.158 2829.983)"><path class="c" d="M2038.455,945.1a4.22,4.22,0,0,1-3.821,0,1.165,1.165,0,0,1,0-2.207,4.222,4.222,0,0,1,3.821,0A1.165,1.165,0,0,1,2038.455,945.1Z" transform="translate(-1887.386 -749.402)"/><path class="d" d="M2109.155,803.117c-4.216-4.883-8.962,2.047-11.2,4.92-1.524,1.953-6.822,7.136-6.241,9.856.2.954.318.909,1.26,1.162a5.9,5.9,0,0,0,2.891-.108,16.48,16.48,0,0,0,11.171-8.312c.092,1.2.115,2.392.1,3.59a.344.344,0,0,0,.533.28q.7-.454,1.368-.946c1.668-1.232.932-2.978,1.384-4.964A6.226,6.226,0,0,0,2109.155,803.117Z" transform="translate(-1900.768 -716.769)"/><path class="e" d="M1911.35,927.77c-10.728-6.193-28.12-6.193-38.846,0s-10.727,16.235,0,22.428,28.118,6.193,38.846,0S1922.076,933.964,1911.35,927.77Z" transform="translate(-1848.188 -744.933)"/><path class="e" d="M2081.689,849.473l-142.844-81.239L1850.5,821.275a1.588,1.588,0,0,0,.037,2.746L1989.4,902.309a9.287,9.287,0,0,0,9.405-.09l82.915-49.758A1.732,1.732,0,0,0,2081.689,849.473Z" transform="translate(-1844.78 -709.089)"/><path class="c" d="M2039.247,878.374V928.6a.562.562,0,0,1-.041.2.443.443,0,0,1-.391.237h-4.542a.445.445,0,0,1-.391-.237.556.556,0,0,1-.041-.2V878.374a.435.435,0,0,1,.432-.433h4.542A.435.435,0,0,1,2039.247,878.374Z" transform="translate(-1887.385 -734.477)"/><path class="c" d="M2039.247,886.977a.389.389,0,0,1-.049.188.891.891,0,0,1,.049.285,1.329,1.329,0,0,1-.792,1.1,4.213,4.213,0,0,1-3.824,0,1.331,1.331,0,0,1-.791-1.1.865.865,0,0,1,.049-.285.379.379,0,0,1-.049-.187v-8.6a.435.435,0,0,1,.432-.433h4.542a.435.435,0,0,1,.432.433Z" transform="translate(-1887.385 -734.477)"/><path class="c" d="M1851.27,841.272a4.223,4.223,0,0,1-3.821,0,1.165,1.165,0,0,1,0-2.207,4.221,4.221,0,0,1,3.821,0A1.165,1.165,0,0,1,1851.27,841.272Z" transform="translate(-1844.069 -725.375)"/><path class="c" d="M1852.061,774.544v50.23a.55.55,0,0,1-.041.2.441.441,0,0,1-.391.237h-4.542a.445.445,0,0,1-.392-.237.565.565,0,0,1-.04-.2v-50.23a.435.435,0,0,1,.432-.433h4.542A.435.435,0,0,1,1852.061,774.544Z" transform="translate(-1844.069 -710.449)"/><path class="c" d="M1852.061,783.146a.383.383,0,0,1-.048.188.882.882,0,0,1,.048.285,1.328,1.328,0,0,1-.791,1.1,4.214,4.214,0,0,1-3.824,0,1.329,1.329,0,0,1-.791-1.1.864.864,0,0,1,.049-.285.376.376,0,0,1-.049-.188v-8.6a.435.435,0,0,1,.432-.433h4.542a.435.435,0,0,1,.432.433Z" transform="translate(-1844.069 -710.449)"/><path class="c" d="M2152.15,878.625a4.222,4.222,0,0,1-3.822,0,1.165,1.165,0,0,1,0-2.207,4.227,4.227,0,0,1,3.822,0A1.164,1.164,0,0,1,2152.15,878.625Z" transform="translate(-1913.697 -734.019)"/><path class="c" d="M2152.943,811.9v50.23a.571.571,0,0,1-.042.2.442.442,0,0,1-.391.236h-4.542a.441.441,0,0,1-.39-.236.559.559,0,0,1-.041-.2V811.9a.435.435,0,0,1,.431-.432h4.542A.436.436,0,0,1,2152.943,811.9Z" transform="translate(-1913.697 -719.093)"/><path class="c" d="M2152.943,825.412a.393.393,0,0,1-.049.188.911.911,0,0,1,.049.285,1.33,1.33,0,0,1-.791,1.1,4.216,4.216,0,0,1-3.825,0,1.328,1.328,0,0,1-.791-1.1.9.9,0,0,1,.048-.285.389.389,0,0,1-.048-.188v-8.6a.435.435,0,0,1,.431-.432h4.542a.435.435,0,0,1,.433.432Z" transform="translate(-1913.697 -720.23)"/><path class="f" d="M1843.69,761.735l-.01,10.774,16.041,5.923-.819-5.87Z" transform="translate(-1843.38 -707.585)"/><path class="f" d="M2156.639,812.031V802.41l-17.78,11.431,1.188,3.165Z" transform="translate(-1911.688 -716.998)"/><path class="f" d="M1845.753,754.328l83.3-48.694a18.87,18.87,0,0,1,18.883-.095l137.5,78.535a4.972,4.972,0,0,1,.02,8.622l-84.649,48.886a18.87,18.87,0,0,1-18.877,0l-136.155-78.658A4.971,4.971,0,0,1,1845.753,754.328Z" transform="translate(-1843.29 -694.006)"/><path class="g" d="M1846.143,742.553l83.3-48.693a18.872,18.872,0,0,1,18.883-.1l137.5,78.536a4.97,4.97,0,0,1,.021,8.621L2001.2,829.809a18.87,18.87,0,0,1-18.877,0L1846.165,751.15A4.971,4.971,0,0,1,1846.143,742.553Z" transform="translate(-1843.38 -691.281)"/><path class="c" d="M1963.108,812.3l-42.284-24.413c-1.919-1.108-1.919-2.9,0-4.012l16.622-9.6a7.678,7.678,0,0,1,6.949,0l42.285,24.413c1.919,1.109,1.919,2.9,0,4.012l-16.623,9.6A7.677,7.677,0,0,1,1963.108,812.3Z" transform="translate(-1860.899 -710.295)"/><path class="c" d="M1919.384,785.658v4.01l47.2,26.287,21.536-12.434v-3.046Z" transform="translate(-1860.899 -713.121)"/><path class="h" d="M1963.108,808.334l-42.284-24.414c-1.919-1.107-1.919-2.9,0-4.012l16.622-9.6a7.682,7.682,0,0,1,6.949,0l42.285,24.414c1.919,1.108,1.919,2.9,0,4.012l-16.623,9.6A7.681,7.681,0,0,1,1963.108,808.334Z" transform="translate(-1860.899 -709.377)"/><path class="h" d="M1975.7,804.506l-40.969-23.654,3.6-2.078,40.969,23.654Z" transform="translate(-1864.45 -711.528)"/><path class="h" d="M1967.665,809.144,1926.7,785.49l3.6-2.078,40.969,23.654Z" transform="translate(-1862.591 -712.601)"/><path class="i" d="M1935.79,780.994l40.154,23.184,2.785-1.608-40.155-23.184Z" transform="translate(-1864.696 -711.67)"/><path class="i" d="M1927.757,785.632l40.154,23.184,2.784-1.609-40.154-23.183Z" transform="translate(-1862.836 -712.743)"/><path class="i" d="M1943.607,775.726l40.154,23.184,2.785-1.609-40.154-23.183Z" transform="translate(-1866.505 -710.451)"/><path class="j" d="M2037.893,819.187c0,2.689-4.1,4.868-9.165,4.868s-9.165-2.18-9.165-4.868,4.1-4.868,9.165-4.868S2037.893,816.5,2037.893,819.187Z" transform="translate(-1884.082 -719.754)"/><ellipse class="h" cx="9.165" cy="4.867" rx="9.165" ry="4.867" transform="translate(135.482 92.152)"/><path class="d" d="M2037.267,906.847l.936-.544c.142-.082.142-.216,0-.3l-.94-.543a.573.573,0,0,0-.518,0l-.935.544a.159.159,0,0,0,0,.3l.94.543a.571.571,0,0,0,.518,0Z" transform="translate(-1887.816 -740.83)"/><rect class="d" width="3.649" height="8.749" rx="1.584" transform="translate(93.872 176.441)"/><path class="k" d="M1965.677,858.4l.13,2.8,1.615,39.435c-.006.148-.019.118-.027.055a5.81,5.81,0,0,0-.373,2.079c2.43,1.776,4.514,2.766,7.76,2.6a27.693,27.693,0,0,1,.5-5.74c.057-.42,3.187-39.4,3.187-39.4V860.2C1973.662,860.32,1970.481,858.137,1965.677,858.4Z" transform="translate(-1871.612 -729.95)"/><path class="d" d="M1976.4,924.068c3.131,2.214,2.827,4.288,7.525,3.131a8.71,8.71,0,0,0,4.066-1.947,3.218,3.218,0,0,0,.77-3.89,5.2,5.2,0,0,0-3.4-1.89,20.937,20.937,0,0,0-6.741-.39,5.75,5.75,0,0,0-3.028.994C1973.921,921.421,1975,923.074,1976.4,924.068Z" transform="translate(-1873.71 -743.971)"/><path class="k" d="M1973.387,914.245a8.205,8.205,0,0,1,2.115,1.519,30.337,30.337,0,0,1,6.414,6.554c-.49,1.452-2.081,2.506-3.823,3.029a26,26,0,0,1-2.977-1.054,16.226,16.226,0,0,1-6.575-5.452c-.2-.287-.39-.674-.193-.962l2.621-2.538c2.628-2.543,6.513,1.086,9.161,2.469,1,.523,2.138,1.249,2.176,2.377.037,1.056-.937,1.861-1.892,2.313a9.078,9.078,0,0,1-2.985.828Z" transform="translate(-1872.211 -742.878)"/><path class="d" d="M1965.981,914.8a4.166,4.166,0,0,1,3.8.552c1.839,1.11,3.2,2.926,4.81,4.323,2.215,1.925,4.445,3,7.154,1.764.892.542,1.517,1.166,1.488,1.885-.039,1.048-1.917,2.392-2.746,2.962-2.6,1.791-6.786-1.084-8.9-2.16-1.668-.849-3.435-.691-5.024-1.4C1964.428,921.773,1963.748,916.807,1965.981,914.8Z" transform="translate(-1871.363 -742.949)"/><rect class="d" width="3.649" height="8.749" rx="1.584" transform="translate(71.893 162.544)"/><path class="l" d="M1936.615,851.965l.13-1.277,1.615,34.543c-.006.148-.019.118-.028.055a5.807,5.807,0,0,0-.373,2.079c2.43,1.776,4.514,2.767,7.76,2.6a27.7,27.7,0,0,1,.5-5.741c.057-.42,2.371-32.876,2.371-32.876v-.034C1943.784,851.436,1941.42,851.7,1936.615,851.965Z" transform="translate(-1864.886 -728.17)"/><path class="d" d="M1947.341,906.338c3.13,2.214,2.827,4.288,7.524,3.131a8.717,8.717,0,0,0,4.066-1.948,3.219,3.219,0,0,0,.77-3.89,5.2,5.2,0,0,0-3.4-1.889,20.957,20.957,0,0,0-6.741-.39,5.753,5.753,0,0,0-3.028.994C1944.859,903.691,1945.936,905.345,1947.341,906.338Z" transform="translate(-1866.985 -739.868)"/><path class="l" d="M1944.325,896.515a8.245,8.245,0,0,1,2.115,1.519,30.359,30.359,0,0,1,6.414,6.554c-.49,1.452-2.081,2.506-3.823,3.028a26.01,26.01,0,0,1-2.977-1.054,16.222,16.222,0,0,1-6.575-5.451c-.2-.287-.39-.674-.193-.962l2.622-2.538c2.628-2.543,6.513,1.087,9.161,2.469,1,.523,2.138,1.249,2.177,2.378.036,1.055-.937,1.86-1.892,2.312a9.068,9.068,0,0,1-2.985.828Z" transform="translate(-1865.486 -738.775)"/><path class="d" d="M1936.919,897.067a4.165,4.165,0,0,1,3.8.552c1.839,1.111,3.2,2.926,4.81,4.324,2.214,1.926,4.445,3,7.154,1.765.892.541,1.516,1.165,1.488,1.884-.04,1.048-1.917,2.392-2.746,2.961-2.6,1.791-6.787-1.084-8.9-2.16-1.668-.849-3.435-.691-5.024-1.4C1935.365,904.043,1934.687,899.077,1936.919,897.067Z" transform="translate(-1864.638 -738.846)"/><path class="m" d="M2017.766,695.8v0Z" transform="translate(-1850.83 -673.37)"/><path class="n" d="M2014.913,758.245c0,1.566-1.1,2.2-2.456,1.418a5.427,5.427,0,0,1-2.456-4.254c0-1.566,1.1-2.2,2.456-1.418A5.428,5.428,0,0,1,2014.913,758.245Z" transform="translate(-1881.869 -705.715)"/><path class="l" d="M1910.213,806.978a25.558,25.558,0,0,1-.088-2.92c.606-1.271,1.148-2.418,1.142-2.515l19.064-13.233a3.455,3.455,0,0,1,2.5-.914,3.516,3.516,0,0,1,.5.056,3.442,3.442,0,0,1,1.912,1.062,3.477,3.477,0,0,1-.205,4.908l-18.688,16.068-.045.038A3.759,3.759,0,0,1,1910.213,806.978Z" transform="translate(-1858.754 -713.523)"/><path class="k" d="M1941.7,795.2c-2.29,2.128-5.513,2.383-7.2.569s-1.2-5.01,1.094-7.137,5.513-2.383,7.2-.569S1943.986,793.075,1941.7,795.2Z" transform="translate(-1864.164 -713.398)"/><path class="d" d="M1956.575,852.406l-11.612-6.654c-4.493-2.25-8.032.546-12.852,1.965l.612-.612-2.267-3.539-26.828-1.892c-9.394,5.325-11.212,28.165-11.212,28.165l.009.171h0c-1.111,9.27,13.332,16.237,24.477,17.935a18.3,18.3,0,0,0,11.4-2l1.865-1,26.9-14.449C1965.178,865.909,1964.892,856.589,1956.575,852.406Z" transform="translate(-1854.646 -726.084)"/><path class="j" d="M1903.405,825.021a34.63,34.63,0,0,1-.086,4.715,2.188,2.188,0,0,0,1,2.044,28.885,28.885,0,0,0,4.208,2.19c4.217,1.768,9.052,2.765,13.552,1.768.18-.042.352-.086.532-.128,2.586-.662,8.21-2.19,8.717-5.393a1.548,1.548,0,0,0,.042-.395c-.008-.3-.025-.611-.042-.919V814.526c1.4-4.165,3.968-7.136,2.688-12.427a18.811,18.811,0,0,0-3-6.733c-2.371-3.264-5.788-5.282-10.151-6.553-1.383-.395-2.749-.722-3.985-.979a24.565,24.565,0,0,0-8-.3c-2.808.362-5.5,1.314-7.171,3.187a6.448,6.448,0,0,0-.6.755c-3.332,5-1.563,11.989-.353,17.416C1901.945,814.226,1903.2,819.585,1903.405,825.021Z" transform="translate(-1856.224 -713.51)"/><path class="o" d="M1928.528,777.345c-.017,0-.033.018-.05.037a1.12,1.12,0,0,1-.017-.238A.292.292,0,0,0,1928.528,777.345Z" transform="translate(-1862.999 -711.151)"/><path class="k" d="M1912.585,790.287h4.091a7.029,7.029,0,0,0,6.932-5.867l.255-1.523.929-5.571h-10.04Z" transform="translate(-1859.325 -711.193)"/><path class="p" d="M1918.75,779.868l4.984,7.572h.318l1.238-7.389Z" transform="translate(-1860.752 -711.781)"/><path class="l" d="M1927.376,774.289a.843.843,0,0,1-.64.052c-.022-.055-.01-.115-.042-.168Z" transform="translate(-1862.59 -710.463)"/><path class="l" d="M1931.412,782.632c.117.008.234.032.35.047l-.92-.881C1931.038,782.071,1931.224,782.351,1931.412,782.632Z" transform="translate(-1863.551 -712.228)"/><path class="o" d="M1928.151,771.622c-.017,0-.032.021-.047.041a1.175,1.175,0,0,1-.04-.235A.293.293,0,0,0,1928.151,771.622Z" transform="translate(-1862.907 -709.828)"/><path class="l" d="M1926.7,768.7a.839.839,0,0,1-.632.117c-.028-.052-.022-.114-.059-.162Z" transform="translate(-1862.431 -709.186)"/><path class="p" d="M1923.32,769.466a4.8,4.8,0,0,0,1.242,2.659,5.151,5.151,0,0,0,1.37,1.284,2.209,2.209,0,0,0,1.811.248c1.851-.655,1.389-3.427.662-4.737a3.362,3.362,0,0,0-2.743-1.792A2.244,2.244,0,0,0,1923.32,769.466Z" transform="translate(-1861.809 -708.833)"/><path class="j" d="M1929.6,805.657c1.287-2.3,2.389-3.958,5.158-3.511a35.951,35.951,0,0,1,5.652,1.665c.178.547.347,1.107.492,1.7,1.28,5.29-1.288,8.261-2.687,12.427v14.376c.017.309.034.619.042.919a1.571,1.571,0,0,1-.042.4c-.507,3.2-6.132,4.731-8.717,5.393l-.532.128V806.512A4.169,4.169,0,0,0,1929.6,805.657Z" transform="translate(-1863.117 -716.92)"/><path class="d" d="M1921.826,746.8l-.427.043Z" transform="translate(-1861.364 -704.129)"/><path class="k" d="M1944.255,834.121a25.234,25.234,0,0,1-.087-2.92c.607-1.271,1.148-2.418,1.142-2.515l19.064-13.233a3.455,3.455,0,0,1,2.5-.914,3.5,3.5,0,0,1,.5.056,3.442,3.442,0,0,1,1.913,1.062,3.478,3.478,0,0,1-.2,4.908l-18.687,16.068-.046.038A3.758,3.758,0,0,1,1944.255,834.121Z" transform="translate(-1866.631 -719.804)"/><path class="k" d="M1975.739,822.345c-2.29,2.128-5.513,2.383-7.2.569s-1.2-5.01,1.094-7.137,5.513-2.383,7.2-.569S1978.028,820.217,1975.739,822.345Z" transform="translate(-1872.042 -719.679)"/><path class="k" d="M1971.343,815.338h0a1.5,1.5,0,0,1,.077-2.113l6.577-6.11a1.493,1.493,0,0,1,2.111.078h0a1.494,1.494,0,0,1-.077,2.112l-6.575,6.11A1.5,1.5,0,0,1,1971.343,815.338Z" transform="translate(-1872.83 -717.994)"/><path class="c" d="M1943.949,833.988l-.069.026a4.932,4.932,0,0,1-6.356-3.543l-6.163-24.659a5.152,5.152,0,0,1,10-2.5l2.431,9.722,2.4,9.576h0C1947.244,827.194,1949.426,831.948,1943.949,833.988Z" transform="translate(-1863.635 -716.304)"/><path class="q" d="M1873.809,955.385a6.252,6.252,0,0,1,2.828-4.9c1.563-.9,2.828-.171,2.83,1.633a6.25,6.25,0,0,1-2.83,4.9C1875.076,957.92,1873.809,957.189,1873.809,955.385Z" transform="translate(-1850.352 -751.175)"/><path class="q" d="M1873.809,955.385a6.252,6.252,0,0,1,2.828-4.9c1.563-.9,2.828-.171,2.83,1.633a6.25,6.25,0,0,1-2.83,4.9C1875.076,957.92,1873.809,957.189,1873.809,955.385Z" transform="translate(-1850.352 -751.175)"/><path class="q" d="M1878.914,950.414l2.438,1.27-3.826,6.974-2.854-1.485.724-3.928Z" transform="translate(-1850.552 -751.248)"/><path class="c" d="M1876.937,957.007a6.251,6.251,0,0,1,2.828-4.9c1.562-.9,2.828-.171,2.828,1.633a6.253,6.253,0,0,1-2.828,4.9C1878.2,959.542,1876.937,958.812,1876.937,957.007Z" transform="translate(-1851.076 -751.55)"/><path class="i" d="M1876.937,957.007a6.251,6.251,0,0,1,2.828-4.9c1.562-.9,2.828-.171,2.828,1.633a6.253,6.253,0,0,1-2.828,4.9C1878.2,959.542,1876.937,958.812,1876.937,957.007Z" transform="translate(-1851.076 -751.55)"/><path class="q" d="M1918.062,930.651a6.255,6.255,0,0,1,2.828-4.9c1.562-.9,2.829-.171,2.829,1.633a6.25,6.25,0,0,1-2.829,4.9C1919.329,933.186,1918.062,932.455,1918.062,930.651Z" transform="translate(-1860.593 -745.451)"/><path class="q" d="M1918.062,930.651a6.255,6.255,0,0,1,2.828-4.9c1.562-.9,2.829-.171,2.829,1.633a6.25,6.25,0,0,1-2.829,4.9C1919.329,933.186,1918.062,932.455,1918.062,930.651Z" transform="translate(-1860.593 -745.451)"/><path class="q" d="M1923.167,925.68l2.438,1.27-3.827,6.974-2.854-1.485.724-3.928Z" transform="translate(-1860.792 -745.524)"/><path class="c" d="M1921.19,932.273a6.25,6.25,0,0,1,2.828-4.9c1.562-.9,2.829-.171,2.829,1.633a6.254,6.254,0,0,1-2.829,4.9C1922.456,934.808,1921.19,934.077,1921.19,932.273Z" transform="translate(-1861.317 -745.827)"/><path class="i" d="M1921.19,932.273a6.25,6.25,0,0,1,2.828-4.9c1.562-.9,2.829-.171,2.829,1.633a6.254,6.254,0,0,1-2.829,4.9C1922.456,934.808,1921.19,934.077,1921.19,932.273Z" transform="translate(-1861.317 -745.827)"/><path class="q" d="M1915.986,956.477a6.249,6.249,0,0,1,2.828-4.9c1.562-.9,2.828-.171,2.828,1.632a6.252,6.252,0,0,1-2.828,4.9C1917.252,959.012,1915.986,958.28,1915.986,956.477Z" transform="translate(-1860.112 -751.428)"/><path class="q" d="M1915.986,956.477a6.249,6.249,0,0,1,2.828-4.9c1.562-.9,2.828-.171,2.828,1.632a6.252,6.252,0,0,1-2.828,4.9C1917.252,959.012,1915.986,958.28,1915.986,956.477Z" transform="translate(-1860.112 -751.428)"/><path class="q" d="M1921.09,951.506l2.437,1.27-3.826,6.974-2.854-1.485.724-3.928Z" transform="translate(-1860.312 -751.5)"/><path class="c" d="M1919.113,958.1a6.252,6.252,0,0,1,2.829-4.9c1.562-.9,2.828-.171,2.828,1.633a6.251,6.251,0,0,1-2.828,4.9C1920.38,960.635,1919.113,959.9,1919.113,958.1Z" transform="translate(-1860.836 -751.803)"/><path class="i" d="M1919.113,958.1a6.252,6.252,0,0,1,2.829-4.9c1.562-.9,2.828-.171,2.828,1.633a6.251,6.251,0,0,1-2.828,4.9C1920.38,960.635,1919.113,959.9,1919.113,958.1Z" transform="translate(-1860.836 -751.803)"/><path class="q" d="M1873.025,931.569a6.254,6.254,0,0,1,2.828-4.9c1.562-.9,2.829-.171,2.829,1.633a6.25,6.25,0,0,1-2.829,4.9C1874.292,934.1,1873.025,933.373,1873.025,931.569Z" transform="translate(-1850.17 -745.664)"/><path class="q" d="M1873.025,931.569a6.254,6.254,0,0,1,2.828-4.9c1.562-.9,2.829-.171,2.829,1.633a6.25,6.25,0,0,1-2.829,4.9C1874.292,934.1,1873.025,933.373,1873.025,931.569Z" transform="translate(-1850.17 -745.664)"/><path class="q" d="M1878.129,926.6l2.438,1.27-3.827,6.974-2.854-1.485.723-3.928Z" transform="translate(-1850.37 -745.736)"/><path class="c" d="M1876.153,933.192a6.25,6.25,0,0,1,2.828-4.9c1.562-.9,2.828-.171,2.828,1.633a6.252,6.252,0,0,1-2.828,4.9C1877.419,935.727,1876.153,935,1876.153,933.192Z" transform="translate(-1850.894 -746.039)"/><path class="i" d="M1876.153,933.192a6.25,6.25,0,0,1,2.828-4.9c1.562-.9,2.828-.171,2.828,1.633a6.252,6.252,0,0,1-2.828,4.9C1877.419,935.727,1876.153,935,1876.153,933.192Z" transform="translate(-1850.894 -746.039)"/><path class="g" d="M1913.7,941.974l-12.516-7.226,12.516-7.226c2.054-1.186,2.054-3.127,0-4.313h0a8.289,8.289,0,0,0-7.471,0l-12.516,7.226-12.516-7.226a8.288,8.288,0,0,0-7.471,0c-2.054,1.187-2.054,3.127,0,4.313l12.516,7.226-12.516,7.226c-2.054,1.186-2.054,3.128,0,4.314h0a8.289,8.289,0,0,0,7.471,0l12.516-7.226,12.516,7.226a8.289,8.289,0,0,0,7.471,0C1915.756,945.1,1915.756,943.16,1913.7,941.974Z" transform="translate(-1849.977 -744.746)"/><path class="g" d="M1913.7,941.974l-12.516-7.226,12.516-7.226c2.054-1.186,2.054-3.127,0-4.313h0a8.289,8.289,0,0,0-7.471,0l-12.516,7.226-12.516-7.226a8.288,8.288,0,0,0-7.471,0c-2.054,1.187-2.054,3.127,0,4.313l12.516,7.226-12.516,7.226c-2.054,1.186-2.054,3.128,0,4.314h0a8.289,8.289,0,0,0,7.471,0l12.516-7.226,12.516,7.226a8.289,8.289,0,0,0,7.471,0C1915.756,945.1,1915.756,943.16,1913.7,941.974Z" transform="translate(-1849.977 -744.746)"/><path class="c" d="M1892,936.342c0,2.338,2.821,4.233,6.3,4.233s6.3-1.9,6.3-4.233-2.823-6.213-6.3-6.213S1892,934,1892,936.342Z" transform="translate(-1854.561 -746.553)"/><path class="g" d="M1894.18,933.235c0,1.716,2.07,3.107,4.625,3.107s4.624-1.391,4.624-3.107-2.07-3.106-4.624-3.106S1894.18,931.52,1894.18,933.235Z" transform="translate(-1855.066 -746.553)"/><path class="c" d="M1899.346,890.8a2.848,2.848,0,0,0-2.829,2.868v27.6a2.829,2.829,0,1,0,5.657,0v-27.6A2.848,2.848,0,0,0,1899.346,890.8Z" transform="translate(-1855.607 -737.452)"/><path class="r" d="M1944.507,874.5c0,.154,0,.318-.016.481a14.069,14.069,0,0,1-7.257,11.269l-30.855,16.919a8.175,8.175,0,0,1-1.459.628,8.424,8.424,0,0,1-6.891-.75l-35.341-20.826a19.289,19.289,0,0,1-9.411-14.825l-3.7-39.613-.384-4.118a4.4,4.4,0,0,1,6.328-4.354l38.252,18.926A4.4,4.4,0,0,1,1896,840.8l12.232,37.118a5.107,5.107,0,0,0,7.38,2.838l19.961-11.416A5.973,5.973,0,0,1,1944.507,874.5Z" transform="translate(-1844.651 -720.802)"/><path class="q" d="M1903.987,903.9a2.452,2.452,0,0,1-2.646,3.293,8.412,8.412,0,0,1-3.106-1.084l-35.341-20.826a19.286,19.286,0,0,1-9.41-14.825l-3.408-36.472a1.761,1.761,0,0,1,2.534-1.742l30.866,15.261a4.418,4.418,0,0,1,2.226,2.569l12.223,37.118C1898.347,888.48,1900.931,895.878,1903.987,903.9Z" transform="translate(-1844.859 -723.858)"/><g transform="translate(-1224.896 -1530.006)"><path class="s" d="M1295.541,1590.606a4.662,4.662,0,1,1,4.418-4.656A4.547,4.547,0,0,1,1295.541,1590.606Zm0-8.589a3.941,3.941,0,1,0,3.7,3.933A3.824,3.824,0,0,0,1295.541,1582.017Z"/></g><path class="k" d="M1930.852,762.176c.195,2.958-.016,5.919-1.523,8.257-1.656,2.6-4.63,3.874-7.536,4.246a8.8,8.8,0,0,1-4.8-.558c-2.849-1.335-4.457-4.672-5.469-7.876a27.692,27.692,0,0,1-.889-3.72,14.1,14.1,0,0,1-.013-4.31,12.334,12.334,0,0,1,4.662-7.55,19.456,19.456,0,0,1,7.9-3.413,6.583,6.583,0,0,1,4.149.081,3.513,3.513,0,0,1,1.891,2.129,2.685,2.685,0,0,1,.141,1.049l1.075,7.993C1930.6,759.708,1930.761,760.929,1930.852,762.176Z" transform="translate(-1858.834 -704.165)"/><path class="t" d="M1906.99,757.8a18.6,18.6,0,0,0,1.806,6.409,16.608,16.608,0,0,0,5.68,6.838c2.008,1.257,5.948,2.234,7.643-.016,1.662-2.207.25-5.708,1.893-7.928a7.611,7.611,0,0,1,1.816-1.562,14.332,14.332,0,0,0,3.847-3.723c2.48-3.806,1.313-10.866-2.907-13.1a14.243,14.243,0,0,0-11.152-.549,12.747,12.747,0,0,0-3.216,1.809c-.054.048-.109.087-.179.144A13.878,13.878,0,0,0,1906.99,757.8Z" transform="translate(-1858.021 -703.316)"/><g transform="translate(-1223.896 -1528.006)"><rect class="s" width="10.835" height="0.723" transform="translate(1288.623 1587.47) rotate(-24.214)"/></g></g><g transform="translate(527.792 2872.135)"><g transform="translate(0)"><g transform="translate(0)"><g transform="translate(0)"><g transform="translate(0)"><path class="t" d="M923.978,640.4c-2.693-5.014-10.823-5.749-14.373-1.3s-1.025,12.213,4.463,13.725a8.886,8.886,0,0,0,10.281-5.132,8.764,8.764,0,0,0-4.145-10.683Z" transform="translate(-907.962 -636.157)"/></g></g></g></g></g><g transform="translate(404 2955.085)"><path class="u" d="M276,660H813.675s-11.269,20.927-37.026,17.708a149.484,149.484,0,0,1-20.927-1.61c-9.659-1.61-24.147,3.22-27.367,8.049,0,0-24.147,14.488-64.392,0,0,0-37.026-16.1-62.782-1.61,0,0-19.318,20.928-69.222-4.829,0,0-12.879-8.049-35.416,8.049,0,0-22.537,19.318-66-8.049,0,0-24.147-6.439-51.514,6.439C379.028,684.147,324.294,692.2,276,660Z" transform="translate(-276 -571.461)"/><path class="v" d="M582.407,634.075s27.206,15.026,15.19,36.5C597.6,670.576,578.133,666.564,582.407,634.075Z" transform="translate(-89.525 -587.27)"/><path class="w" d="M614.007,623s14.488,46.684-22.537,57.953C591.47,680.953,573.762,655.2,614.007,623Z" transform="translate(-85.991 -594.023)"/><path class="w" d="M334.352,621.92s-41.564,22.958-23.207,55.765C311.145,677.685,340.883,671.557,334.352,621.92Z" transform="translate(-257.422 -594.682)"/><path class="v" d="M292.061,605s-22.135,71.324,34.43,88.539C326.492,693.539,353.546,654.189,292.061,605Z" transform="translate(-268.808 -605)"/></g><g transform="translate(0 -38)"><path class="x" d="M2325.625,372.073,2116.092,250.319c-3.859-2.466-7.188-.784-7.435,3.755l-1.032,18.991-7.837,144.276a15.624,15.624,0,0,0,6.542,12.685L2315.862,551.78c3.86,2.466,7.188.785,7.435-3.754l7.838-144.276,1.031-18.992A15.626,15.626,0,0,0,2325.625,372.073Z" transform="translate(-1583.142 2440.068)"/><path class="y" d="M2318.765,418.237l-7.842,144.273c-.246,4.544-3.576,6.22-7.435,3.759l-118.5-68.86-91.028-52.9a15.613,15.613,0,0,1-6.543-12.679l7.835-144.28,98.277,57.458Z" transform="translate(-1579.602 2429.087)"/><path class="a" d="M2322.942,389.67l-1.022,18.891-.008.1-125.235-73.228L2098.4,277.975l.092-1.676.938-17.315c.246-4.536,3.576-6.22,7.435-3.752L2316.4,376.984A15.625,15.625,0,0,1,2322.942,389.67Z" transform="translate(-1582.748 2438.663)"/><path class="z" d="M2392.843,440.9a6.831,6.831,0,0,0,2.973,5.488c1.71,1.044,3.15.279,3.217-1.708a6.832,6.832,0,0,0-2.974-5.487C2394.35,438.15,2392.909,438.915,2392.843,440.9Z" transform="translate(-1667.025 2385.816)"/><path class="aa" d="M2377.11,431.3a6.831,6.831,0,0,0,2.974,5.487c1.71,1.044,3.15.279,3.216-1.708a6.828,6.828,0,0,0-2.973-5.487C2378.617,428.547,2377.176,429.312,2377.11,431.3Z" transform="translate(-1662.521 2388.565)"/><g transform="translate(2658.408 349.043)"><g class="ab" transform="translate(-2127.408 2414.957)"><g class="ac"><g transform="translate(0.099 36.267)"><path class="a" d="M-1822.1,2604.235q-3.863-2.23-6.022-.317t-2.175,7.789a22.206,22.206,0,0,0,2.124,10.136,15.114,15.114,0,0,0,6,6.492,6.446,6.446,0,0,0,4.361,1.114,3.924,3.924,0,0,0,2.772-2.278l-1.942-2.527a3.024,3.024,0,0,1-1.926,1.948,4.23,4.23,0,0,1-3.257-.728,10.263,10.263,0,0,1-4.09-4.407,14.191,14.191,0,0,1-1.436-6.5l.01-3.485a10.56,10.56,0,0,1,.387-3.047,4.088,4.088,0,0,1,1.1-1.883,2.423,2.423,0,0,1,1.747-.619,5.053,5.053,0,0,1,2.34.781,9.6,9.6,0,0,1,3.134,2.9,13.217,13.217,0,0,1,1.85,3.96l1.979-.228a17.908,17.908,0,0,0-2.676-5.306,14.012,14.012,0,0,0-4.281-3.792" transform="translate(1891.028 -2600.795)"/><path class="a" d="M-1733.868,2643.568l-8.133-4.7-.007,2.337,2.847,1.644-.053,18.625-2.847-1.644-.007,2.335,8.133,4.7.007-2.336-2.847-1.644.053-18.625,2.847,1.644.007-2.337" transform="translate(1820.861 -2629.296)"/><path class="a" d="M-1677.245,2687.869q-3.865-2.231-6.022-.317t-2.176,7.789a22.191,22.191,0,0,0,2.125,10.137,15.111,15.111,0,0,0,6,6.492,6.452,6.452,0,0,0,4.361,1.114,3.927,3.927,0,0,0,2.77-2.279l-1.942-2.527a3.027,3.027,0,0,1-1.925,1.949,4.231,4.231,0,0,1-3.257-.728,10.269,10.269,0,0,1-4.091-4.408,14.193,14.193,0,0,1-1.436-6.5l.01-3.485a10.545,10.545,0,0,1,.387-3.047,4.088,4.088,0,0,1,1.1-1.883,2.425,2.425,0,0,1,1.748-.618,5.05,5.05,0,0,1,2.34.781,9.607,9.607,0,0,1,3.134,2.9,13.234,13.234,0,0,1,1.85,3.96l1.979-.228a17.908,17.908,0,0,0-2.677-5.307,14,14,0,0,0-4.28-3.792" transform="translate(1775.83 -2667.306)"/><path class="a" d="M-2125.088,2608.774l.039-13.769,3.268,1.886a7.79,7.79,0,0,1,1.72,1.357,8.681,8.681,0,0,1,1.347,1.843,9.7,9.7,0,0,1,.877,2.225,9.729,9.729,0,0,1,.31,2.5l-.008,2.855a6.09,6.09,0,0,1-.323,2.132,2.415,2.415,0,0,1-.887,1.206,1.977,1.977,0,0,1-1.353.284,4.557,4.557,0,0,1-1.723-.631l-3.268-1.886m3.313-13.735-5.1-2.943-.05,17.473,5.1,2.943a6.6,6.6,0,0,0,2.573.935,2.727,2.727,0,0,0,1.976-.5,3.883,3.883,0,0,0,1.26-2.006,12.149,12.149,0,0,0,.448-3.564,18.09,18.09,0,0,0-.426-4.071,14.309,14.309,0,0,0-1.245-3.452,12.3,12.3,0,0,0-1.967-2.778,11.353,11.353,0,0,0-2.569-2.034" transform="translate(2126.923 -2592.096)"/><path class="a" d="M-2053.3,2656.749l-1.72-.993-2.749,7.2-.615,1.747-.109-.063-.517-2.4-2.676-10.329-1.744-1.007,4.167,15.826-.857,2.258-1.765-1.019-.005,1.778.893.516a6.219,6.219,0,0,0,1.036.5,1.365,1.365,0,0,0,.709.083.8.8,0,0,0,.48-.336,3.977,3.977,0,0,0,.4-.738l5.078-13.016" transform="translate(2076.432 -2638.861)"/><path class="a" d="M-1998.228,2688.327a2.79,2.79,0,0,0-2.017-.52,1.867,1.867,0,0,0-1.171,1.062l-.086-.05.006-2.079-1.744-1.007-.036,12.918,1.744,1.007.025-8.982a1.681,1.681,0,0,1,.232-.958.938.938,0,0,1,.623-.406,1.965,1.965,0,0,1,.884.057,4.259,4.259,0,0,1,1.014.435,5.241,5.241,0,0,1,2.539,4.958l-.023,7.953,1.742,1.006.023-8.287a8.709,8.709,0,0,0-1-4.226,7.161,7.161,0,0,0-2.752-2.881" transform="translate(2028.592 -2666.563)"/><path class="a" d="M-1943.105,2737.874a4.888,4.888,0,0,1-1.621-1.462,3.162,3.162,0,0,1-.6-1.824v-.524q0-.953.69-1.056a4.011,4.011,0,0,1,2.191.764l2.31,1.333-.006,2.127a1.335,1.335,0,0,1-.221.8,1.04,1.04,0,0,1-.611.4,1.913,1.913,0,0,1-.939-.041,4.836,4.836,0,0,1-1.2-.516m.426-11.59a4.049,4.049,0,0,0-2.529-.72,1.954,1.954,0,0,0-1.465.947l1.042,1.73a1.839,1.839,0,0,1,1.148-.743,2.615,2.615,0,0,1,1.713.462,5.353,5.353,0,0,1,2,1.884,4.76,4.76,0,0,1,.648,2.479l0,1.278-2.222-1.283q-2.463-1.422-3.63-1.12t-1.174,2.131a6.446,6.446,0,0,0,.984,3.427,7.639,7.639,0,0,0,2.775,2.655,3.331,3.331,0,0,0,2.028.569,1.506,1.506,0,0,0,1.225-1.1l.109.063a5.314,5.314,0,0,0,.53,1.811,3.406,3.406,0,0,0,1.4,1.412l.98.566,0-1.777-1.286-.742.02-7.094a7.1,7.1,0,0,0-1.123-3.852,8.92,8.92,0,0,0-3.178-2.986" transform="translate(1983.957 -2698.219)"/><path class="a" d="M-1874.208,2759.93a2.881,2.881,0,0,0-2.279-.532,1.813,1.813,0,0,0-1.149,1.163l-.043-.025a7.538,7.538,0,0,0-1.389-2.8,7.477,7.477,0,0,0-2.047-1.791,3.782,3.782,0,0,0-1.133-.468,1.7,1.7,0,0,0-.841.023,1.34,1.34,0,0,0-.613.4,3.439,3.439,0,0,0-.448.671l-.088-.051.006-2.079-1.742-1.006-.037,12.918,1.742,1.006.026-8.982a1.681,1.681,0,0,1,.232-.958.985.985,0,0,1,.6-.419,1.755,1.755,0,0,1,.851.038,4.12,4.12,0,0,1,1,.429,4.423,4.423,0,0,1,1.828,1.934,6.715,6.715,0,0,1,.581,2.949l-.022,7.953,1.742,1.006.026-8.982a1.786,1.786,0,0,1,.221-.965.936.936,0,0,1,.59-.425,1.752,1.752,0,0,1,.84.033,3.957,3.957,0,0,1,.991.421,4.5,4.5,0,0,1,1.871,1.959,6.714,6.714,0,0,1,.581,2.948l-.023,7.953,1.744,1.007.023-8.287a8.882,8.882,0,0,0-.96-4.2,6.864,6.864,0,0,0-2.686-2.843" transform="translate(1935.334 -2720.406)"/><path class="a" d="M-1791.913,2787.411l-1.744-1.007-.037,12.917,1.744,1.007.037-12.917m-.856-6.111q-.566-.327-.818-.159a.756.756,0,0,0-.253.669v.326a1.956,1.956,0,0,0,.249.958,2.076,2.076,0,0,0,.816.786q.567.327.818.158a.754.754,0,0,0,.253-.668v-.326a1.961,1.961,0,0,0-.249-.959,2.075,2.075,0,0,0-.816-.784" transform="translate(1862.035 -2742.391)"/><path class="a" d="M-1765.438,2829.839a5.045,5.045,0,0,0-2.115-.744,2.226,2.226,0,0,0-1.583.44,3.138,3.138,0,0,0-.986,1.563,8.666,8.666,0,0,0-.345,2.608,13.161,13.161,0,0,0,.329,3,11.518,11.518,0,0,0,.974,2.693,10.2,10.2,0,0,0,1.575,2.265,8.956,8.956,0,0,0,2.112,1.695,4.11,4.11,0,0,0,2.694.728,2.24,2.24,0,0,0,1.628-1.291l-1.261-1.706q-.942,1.713-3.056.492a5.858,5.858,0,0,1-2.339-2.441,7,7,0,0,1-.787-3.25l.006-2.2a4.705,4.705,0,0,1,.2-1.452,1.722,1.722,0,0,1,.592-.888,1.411,1.411,0,0,1,.983-.234,3.476,3.476,0,0,1,1.373.505,5.579,5.579,0,0,1,1.741,1.556,6.193,6.193,0,0,1,1,2.132l1.463-.009a10.56,10.56,0,0,0-1.507-3.064,8.348,8.348,0,0,0-2.689-2.394" transform="translate(1843.447 -2780.567)"/><path class="a" d="M-1685.191,2862.749l.039-13.769,3.268,1.887a7.765,7.765,0,0,1,1.721,1.357,8.675,8.675,0,0,1,1.347,1.843,9.694,9.694,0,0,1,.877,2.225,9.716,9.716,0,0,1,.31,2.5l-.008,2.855a6.088,6.088,0,0,1-.323,2.132,2.414,2.414,0,0,1-.887,1.206,1.979,1.979,0,0,1-1.353.284,4.55,4.55,0,0,1-1.722-.63l-3.268-1.887m3.312-13.734-5.1-2.943-.049,17.473,5.1,2.943a6.605,6.605,0,0,0,2.573.934,2.727,2.727,0,0,0,1.976-.5,3.883,3.883,0,0,0,1.26-2.006,12.144,12.144,0,0,0,.448-3.565,18.09,18.09,0,0,0-.426-4.07,14.283,14.283,0,0,0-1.245-3.452,12.3,12.3,0,0,0-1.967-2.778,11.334,11.334,0,0,0-2.57-2.034" transform="translate(1777.089 -2794.073)"/><path class="a" d="M-1618.6,2920.535v-.174a3.644,3.644,0,0,1,.245-1.416,1.812,1.812,0,0,1,.668-.848,1.563,1.563,0,0,1,1.015-.225,3.261,3.261,0,0,1,1.308.469,5.679,5.679,0,0,1,2.164,2.283,6.628,6.628,0,0,1,.809,3.222v.273l-6.209-3.585m3.241-3.871a4.895,4.895,0,0,0-2.082-.726,2.313,2.313,0,0,0-1.594.446,3.2,3.2,0,0,0-1.031,1.549,7.983,7.983,0,0,0-.367,2.571,12.388,12.388,0,0,0,.352,3,12.2,12.2,0,0,0,1.019,2.719,10.616,10.616,0,0,0,1.586,2.283,8.762,8.762,0,0,0,2.08,1.676,4.5,4.5,0,0,0,2.747.766,2.149,2.149,0,0,0,1.705-1.173l-1.239-1.749a1.643,1.643,0,0,1-1.236.941,2.963,2.963,0,0,1-1.864-.5,6.144,6.144,0,0,1-1.4-1.112,7.032,7.032,0,0,1-1.043-1.43,7.282,7.282,0,0,1-.65-1.616,6.4,6.4,0,0,1-.224-1.672l0-.6,8.083,4.667,0-.948a11.042,11.042,0,0,0-.331-2.716,11.371,11.371,0,0,0-.963-2.542,10.61,10.61,0,0,0-1.522-2.191,8.278,8.278,0,0,0-2.025-1.644" transform="translate(1724.131 -2849.631)"/><path class="a" d="M-1556.238,2916.4l-1.742-1.006-.047,16.447a3.607,3.607,0,0,0,.464,1.759,3.541,3.541,0,0,0,1.381,1.387l1.548.894.005-1.777-1.656-.956.047-16.748" transform="translate(1674.501 -2849.205)"/><path class="a" d="M-1527.909,2939.831l-1.742-1.006-.037,12.917,1.742,1.006.037-12.917m-.856-6.11q-.567-.327-.818-.159a.762.762,0,0,0-.252.67v.326a1.967,1.967,0,0,0,.248.957,2.075,2.075,0,0,0,.816.785c.378.218.651.271.818.158a.753.753,0,0,0,.253-.668v-.326a1.962,1.962,0,0,0-.249-.959,2.066,2.066,0,0,0-.816-.784" transform="translate(1652.081 -2863.606)"/><path class="a" d="M-1499.528,2976.471l-1.678-.969-2.022,5.252-1.232,3.7-.11-.063-1.207-5.109-1.943-7.541-1.742-1.006,3.906,15.194,2.026,1.17,4-10.628" transform="translate(1635.879 -2893.214)"/><path class="a" d="M-1453.13,3016.069v-.174a3.672,3.672,0,0,1,.244-1.417,1.825,1.825,0,0,1,.668-.848,1.563,1.563,0,0,1,1.015-.225,3.274,3.274,0,0,1,1.308.469,5.69,5.69,0,0,1,2.166,2.284,6.637,6.637,0,0,1,.809,3.222v.273l-6.209-3.585m3.24-3.872a4.889,4.889,0,0,0-2.081-.724,2.308,2.308,0,0,0-1.595.445,3.193,3.193,0,0,0-1.029,1.55,7.947,7.947,0,0,0-.367,2.572,12.325,12.325,0,0,0,.351,3,12.142,12.142,0,0,0,1.018,2.718,10.6,10.6,0,0,0,1.587,2.284,8.747,8.747,0,0,0,2.078,1.675,4.5,4.5,0,0,0,2.747.766,2.15,2.15,0,0,0,1.705-1.173l-1.239-1.749a1.643,1.643,0,0,1-1.234.942,2.968,2.968,0,0,1-1.864-.5,6.123,6.123,0,0,1-1.4-1.112,6.964,6.964,0,0,1-1.043-1.43,7.177,7.177,0,0,1-.65-1.616,6.342,6.342,0,0,1-.224-1.672l0-.6,8.082,4.667,0-.948a11.078,11.078,0,0,0-.33-2.715,11.431,11.431,0,0,0-.964-2.543,10.591,10.591,0,0,0-1.522-2.19,8.267,8.267,0,0,0-2.025-1.645" transform="translate(1592.537 -2925.606)"/><path class="a" d="M-1386.781,3041.647l-.676-.39a2.762,2.762,0,0,0-2.159-.518,1.743,1.743,0,0,0-1.094,1.022l-.11-.063.007-2.378-1.742-1.006-.037,12.918,1.743,1.006.025-8.761a.958.958,0,0,1,.8-1.08,3.512,3.512,0,0,1,2.212.662l1.025.592.006-2" transform="translate(1542.935 -2946.957)"/><path class="a" d="M-1349.4,3063.147l-1.722-.994-2.748,7.2-.616,1.746-.109-.063-.517-2.4-2.677-10.33-1.742-1.006,4.166,15.825-.857,2.258-1.765-1.019-.005,1.778.894.516a6.159,6.159,0,0,0,1.034.5,1.365,1.365,0,0,0,.709.083.8.8,0,0,0,.482-.336,3.955,3.955,0,0,0,.395-.738l5.078-13.016" transform="translate(1516.644 -2962.055)"/><path class="a" d="M-1931.178,2860.224l.018-6.309,4.226,2.44a4.6,4.6,0,0,1,1.687,1.627,4.174,4.174,0,0,1,.594,2.2l0,1.3q0,1.2-.6,1.506t-1.691-.324l-4.226-2.44m4.249-5.721-6.056-3.5-.05,17.473,1.83,1.056.021-7.459,4.226,2.44q2.047,1.182,3.151.478t1.111-3.032a8.661,8.661,0,0,0-1.09-4.3,8.2,8.2,0,0,0-3.144-3.157" transform="translate(1972.73 -2797.999)"/><path class="a" d="M-1867.587,2883.614l-1.742-1.006-.047,16.447a3.61,3.61,0,0,0,.464,1.759,3.547,3.547,0,0,0,1.383,1.388l1.546.893.005-1.777-1.656-.956.047-16.748" transform="translate(1922.105 -2823.13)"/><path class="a" d="M-1840.728,2943.951a4.9,4.9,0,0,1-1.622-1.463,3.159,3.159,0,0,1-.594-1.824v-.524q0-.953.69-1.056a4.006,4.006,0,0,1,2.191.764l2.31,1.334-.006,2.127a1.335,1.335,0,0,1-.221.8,1.045,1.045,0,0,1-.613.4,1.912,1.912,0,0,1-.937-.041,4.825,4.825,0,0,1-1.2-.516m.426-11.59a4.047,4.047,0,0,0-2.529-.72,1.946,1.946,0,0,0-1.465.948l1.042,1.73a1.831,1.831,0,0,1,1.148-.742,2.609,2.609,0,0,1,1.711.461,5.358,5.358,0,0,1,2,1.884,4.76,4.76,0,0,1,.648,2.479l0,1.278-2.222-1.283q-2.463-1.422-3.63-1.119t-1.174,2.131a6.451,6.451,0,0,0,.983,3.426,7.643,7.643,0,0,0,2.775,2.655,3.328,3.328,0,0,0,2.028.569,1.507,1.507,0,0,0,1.226-1.1l.108.063a5.31,5.31,0,0,0,.529,1.81,3.41,3.41,0,0,0,1.4,1.412l.98.566.005-1.777-1.285-.741.02-7.094a7.092,7.092,0,0,0-1.124-3.852,8.917,8.917,0,0,0-3.177-2.985" transform="translate(1902.54 -2862.104)"/><path class="a" d="M-1781.094,2960.878l-1.722-.994-2.748,7.2-.616,1.746-.108-.062-.517-2.4-2.677-10.33-1.742-1.006,4.166,15.825-.857,2.258-1.765-1.019-.005,1.778.894.516a6.163,6.163,0,0,0,1.034.5,1.363,1.363,0,0,0,.709.083.8.8,0,0,0,.481-.336,3.967,3.967,0,0,0,.395-.738l5.078-13.016" transform="translate(1859.954 -2880.724)"/><path class="a" d="M-1726.423,2982.2a6.521,6.521,0,0,1-1.123-.824,6.082,6.082,0,0,1-.924-1.051,5.25,5.25,0,0,1-.619-1.187,3.6,3.6,0,0,1-.226-1.252l.014-4.831a1.491,1.491,0,0,1,.231-.862,1.054,1.054,0,0,1,.623-.433,1.982,1.982,0,0,1,.927.018,4.025,4.025,0,0,1,1.124.461,6.066,6.066,0,0,1,2.328,2.413,6.781,6.781,0,0,1,.842,3.3l-.006,2.214a2.638,2.638,0,0,1-.858,2.315q-.852.58-2.333-.276m-2.85-18.721-1.742-1.006-.052,18.525,1.742,1.006.006-2.079.088.051a7.428,7.428,0,0,0,3.282,4.278,4.03,4.03,0,0,0,1.9.62,2.057,2.057,0,0,0,1.453-.516,3.362,3.362,0,0,0,.921-1.6,9.379,9.379,0,0,0,.323-2.623,13.794,13.794,0,0,0-.307-2.985,11.793,11.793,0,0,0-.909-2.657,9.831,9.831,0,0,0-1.446-2.189,7.519,7.519,0,0,0-1.894-1.571,3.4,3.4,0,0,0-2.016-.58,1.606,1.606,0,0,0-1.28,1.061l-.088-.051.022-7.686" transform="translate(1812.114 -2886.647)"/><path class="a" d="M-1668.245,3044.928a6.327,6.327,0,0,1-2.307-2.335,6.887,6.887,0,0,1-.884-3.569l.005-1.852q.006-2.052.9-2.54a2.356,2.356,0,0,1,2.313.333,6.336,6.336,0,0,1,2.307,2.334,6.9,6.9,0,0,1,.884,3.571l-.005,1.852q-.006,2.052-.9,2.538a2.352,2.352,0,0,1-2.313-.332m.033-11.741a4.906,4.906,0,0,0-2.071-.719,2.305,2.305,0,0,0-1.6.439,3.263,3.263,0,0,0-1.041,1.543,7.7,7.7,0,0,0-.378,2.566,12.076,12.076,0,0,0,.362,3.005,12.528,12.528,0,0,0,1.029,2.725,10.523,10.523,0,0,0,1.6,2.29,8.78,8.78,0,0,0,2.068,1.669,4.849,4.849,0,0,0,2.06.714,2.366,2.366,0,0,0,1.605-.441,3.184,3.184,0,0,0,1.052-1.523,7.676,7.676,0,0,0,.378-2.579,12.147,12.147,0,0,0-.362-2.993,12.327,12.327,0,0,0-1.04-2.744,10.9,10.9,0,0,0-1.6-2.289,8.643,8.643,0,0,0-2.057-1.665" transform="translate(1766.178 -2942.302)"/><path class="a" d="M-1608.657,3079.332a6.32,6.32,0,0,1-2.306-2.335,6.88,6.88,0,0,1-.885-3.57l.005-1.853q.006-2.052.9-2.539a2.35,2.35,0,0,1,2.311.333,6.333,6.333,0,0,1,2.307,2.334,6.9,6.9,0,0,1,.884,3.571l-.005,1.852q-.006,2.053-.9,2.538a2.351,2.351,0,0,1-2.313-.332m.033-11.742a4.908,4.908,0,0,0-2.071-.718,2.306,2.306,0,0,0-1.605.439,3.262,3.262,0,0,0-1.041,1.542,7.706,7.706,0,0,0-.378,2.565,12.083,12.083,0,0,0,.362,3.006,12.544,12.544,0,0,0,1.029,2.725,10.526,10.526,0,0,0,1.6,2.29,8.781,8.781,0,0,0,2.068,1.669,4.841,4.841,0,0,0,2.06.714,2.36,2.36,0,0,0,1.6-.441,3.17,3.17,0,0,0,1.052-1.523,7.661,7.661,0,0,0,.379-2.578,12.14,12.14,0,0,0-.363-2.993,12.259,12.259,0,0,0-1.04-2.744,10.868,10.868,0,0,0-1.6-2.288,8.64,8.64,0,0,0-2.057-1.665" transform="translate(1718.79 -2969.662)"/><path class="a" d="M-1548.377,3067.923l-1.742-1.006-.052,18.525,1.742,1.006.013-4.605,1.683-1.01,3.707,8.734,2.114,1.22-4.553-10.452,4.175-2.7-2.112-1.219-3.193,2.094-1.726,1.209-.088-.051.033-11.74" transform="translate(1668.254 -2969.704)"/></g></g></g></g></g><g transform="translate(-8659.843 -7865)"><g class="aw" transform="matrix(1, 0, 0, 1, 9063.84, 10516.25)"><path class="a" d="M14.97,0H119.758a14.97,14.97,0,0,1,14.97,14.97v97.3a14.97,14.97,0,0,1-14.97,14.97H14.97A14.97,14.97,0,0,1,0,112.273V14.97A14.97,14.97,0,0,1,14.97,0Z" transform="translate(405.27 147.75)"/></g><g transform="translate(9468.362 10667.917)"><g class="ad" transform="translate(0 0)"><g transform="translate(30.741 8.693)"><path class="ae" d="M2452.55,2796.153a.641.641,0,0,1,.652,1.069,15.1,15.1,0,0,0-3.945,6.14c-1.3,3.7-1.435,7.661-1.752,11.55s-.86,7.877-2.853,11.288-5.748,6.148-9.851,6c0-6.878.034-13.911,2.444-20.4s8.232-14.178,15.305-15.645Z" transform="translate(-2421.005 -2779.637)"/><path class="af" d="M2449.725,2950.289h-73.15q.952-10.5,1.9-21a24.609,24.609,0,0,1,1.689-8.146,9.719,9.719,0,0,1,6.418-5.567c2.686-.616,24.427-6.624,26.565-7.214,2.139.591,23.881,6.6,26.567,7.214a9.718,9.718,0,0,1,6.416,5.567,24.548,24.548,0,0,1,1.689,8.146Q2448.773,2939.786,2449.725,2950.289Z" transform="translate(-2376.575 -2865.275)"/><path class="ae" d="M2500.585,2736.622a11.225,11.225,0,0,0-3.823-7.605c-2.546-2.123-6.095-2.438-9.352-2.482a19.223,19.223,0,0,0-7.795,1.366c-3.573,1.53-5.165,5.2-5.477,8.722a32.17,32.17,0,0,0,.951,9.146s12.258.767,12.258.769h.015s.015,0,.015,0l12.258-.767A32.178,32.178,0,0,0,2500.585,2736.622Z" transform="translate(-2450.972 -2726.532)"/><path class="ag" d="M2512.336,2862.3q-.461-7.109-.921-14.218l-7.133-2.668v.007l-7.127,2.666q-.46,7.107-.921,14.213a4.457,4.457,0,0,0,1.666,3.42,9.394,9.394,0,0,0,12.787-.011A4.45,4.45,0,0,0,2512.336,2862.3Z" transform="translate(-2467.877 -2817.246)"/><path class="ah" d="M2499.915,2848.914a32.306,32.306,0,0,0,14.965,9.219q-.326-5.026-.651-10.052l-7.133-2.668v.007l-7.128,2.666Q2499.942,2848.5,2499.915,2848.914Z" transform="translate(-2470.691 -2817.246)"/><path class="ag" d="M2503.812,2755.847c-1.232-3.686-3.811-6.4-6.656-7a5.534,5.534,0,0,0-1.063-.121c-.946-.014-4.61-.014-5.556,0a5.527,5.527,0,0,0-1.062.121c-2.844.6-5.424,3.316-6.656,7a24.71,24.71,0,0,0-.779,10.142,12.946,12.946,0,0,0,2.055,6.349,16.568,16.568,0,0,0,5.479,5.68,10.092,10.092,0,0,0,2.98,1.458,1.937,1.937,0,0,0,.345.074,4.171,4.171,0,0,0,.831,0,1.925,1.925,0,0,0,.345-.074,10.093,10.093,0,0,0,2.98-1.458,16.574,16.574,0,0,0,5.479-5.68,12.941,12.941,0,0,0,2.055-6.349A24.7,24.7,0,0,0,2503.812,2755.847Z" transform="translate(-2456.911 -2743.458)"/><g transform="translate(21.281 15.449)"><path class="ag" d="M2470.711,2793.917a1.973,1.973,0,0,0-.757-1.478,4.511,4.511,0,0,0-1.136-.595,1.7,1.7,0,0,0-1.926.5,3.582,3.582,0,0,0-.408,2.738,9.068,9.068,0,0,0,2.751,4.905.92.92,0,0,0,.806.27c.715-.14.815-1.088.82-1.864Q2470.874,2796.152,2470.711,2793.917Z" transform="translate(-2466.394 -2791.736)"/></g><g transform="translate(47.048 15.449)"><path class="ag" d="M2575.293,2793.917a1.974,1.974,0,0,1,.757-1.478,4.517,4.517,0,0,1,1.136-.595,1.694,1.694,0,0,1,1.926.5,3.583,3.583,0,0,1,.408,2.738,9.068,9.068,0,0,1-2.751,4.905.92.92,0,0,1-.806.27c-.715-.14-.815-1.088-.82-1.864Q2575.13,2796.152,2575.293,2793.917Z" transform="translate(-2575.143 -2791.736)"/></g><path class="ae" d="M2497.495,2735.589a2.65,2.65,0,0,0-1.762-.534,30.977,30.977,0,0,0-6.6.4c-2.719.46-5.525,1.385-7.264,3.425-1.692,1.985-1.91,4.693-2.415,7.2q-.118.584-.235,1.169a5.79,5.79,0,0,0,5.935-3.1c.508-1.1.678-2.443,1.683-3.174a5.128,5.128,0,0,1,3.256-.528,13.336,13.336,0,0,0,4.011-.318,5.836,5.836,0,0,0,3.282-2.1A1.927,1.927,0,0,0,2497.495,2735.589Z" transform="translate(-2454.902 -2733.01)"/><path class="ai" d="M2424.194,3026.393a42.258,42.258,0,0,0-1.059-15.348q-.368-1.406-.84-2.761-.078,2.157-.157,4.313-.03.807-.059,1.613l-.026,12.183Z" transform="translate(-2411.278 -2941.527)"/><path class="ai" d="M2628.663,3026.393a42.269,42.269,0,0,1,1.059-15.348q.368-1.406.84-2.761.079,2.157.158,4.313.03.807.059,1.613.013,6.092.026,12.183Z" transform="translate(-2568.728 -2941.527)"/><path class="a" d="M2516.532,2842.616a4.112,4.112,0,0,0,4.213-4h-8.426A4.112,4.112,0,0,0,2516.532,2842.616Z" transform="translate(-2480.156 -2812.058)"/></g></g></g><text class="aj" transform="translate(9495 10768)"><tspan x="0" y="0">HR ISSUES</tspan></text></g><g transform="translate(-8804 -8135)"><g class="av" transform="matrix(1, 0, 0, 1, 9208, 10786.25)"><path class="a" d="M14.461,0H115.687a14.461,14.461,0,0,1,14.461,14.461v94a14.461,14.461,0,0,1-14.461,14.461H14.461A14.461,14.461,0,0,1,0,108.457v-94A14.461,14.461,0,0,1,14.461,0Z" transform="translate(264.28 97.48)"/></g><text class="ak" transform="translate(9539 10973)"><tspan x="-21.147" y="0">STAFF </tspan><tspan x="-39.47" y="16">FULFILMENT</tspan></text><g transform="translate(9472.045 10883)"><g class="al" transform="translate(0 0)"><g transform="translate(30.094 8.51)"><path class="am" d="M3127.726,2766.764l-2.92,43.468h15.866v-44.179Z" transform="translate(-3105.047 -2756.886)"/><path class="am" d="M3206.032,2766.764l2.92,43.468h-15.865v-44.179Z" transform="translate(-3157.491 -2756.886)"/><path class="an" d="M3111.23,2949.406h-71.61q.932-10.281,1.862-20.562a24.087,24.087,0,0,1,1.654-7.975,9.512,9.512,0,0,1,6.282-5.45c2.63-.6,23.914-6.484,26.006-7.063,2.094.579,23.378,6.459,26.007,7.063a9.511,9.511,0,0,1,6.281,5.45,24.014,24.014,0,0,1,1.654,7.975Q3110.3,2939.124,3111.23,2949.406Z" transform="translate(-3039.62 -2866.182)"/><path class="am" d="M3163.072,2736.41a10.989,10.989,0,0,0-3.743-7.446c-2.492-2.078-5.966-2.387-9.155-2.43a18.821,18.821,0,0,0-7.631,1.337c-3.5,1.5-5.056,5.086-5.361,8.538a31.492,31.492,0,0,0,.931,8.954s12,.751,12,.752h.014s.014,0,.014,0l12-.751A31.484,31.484,0,0,0,3163.072,2736.41Z" transform="translate(-3114.503 -2726.532)"/><path class="ag" d="M3175.042,2861.944q-.451-6.96-.9-13.919l-6.982-2.612v.007l-6.978,2.61q-.45,6.957-.9,13.914a4.362,4.362,0,0,0,1.631,3.347,9.2,9.2,0,0,0,12.518-.011A4.358,4.358,0,0,0,3175.042,2861.944Z" transform="translate(-3131.52 -2817.839)"/><path class="ah" d="M3162.96,2848.84a31.62,31.62,0,0,0,14.65,9.025q-.319-4.92-.637-9.84l-6.983-2.612v.007l-6.978,2.61Q3162.986,2848.435,3162.96,2848.84Z" transform="translate(-3134.352 -2817.839)"/><path class="ag" d="M3166.394,2755.7c-1.206-3.608-3.731-6.265-6.515-6.854a5.4,5.4,0,0,0-1.041-.118c-.926-.014-4.513-.014-5.438,0a5.393,5.393,0,0,0-1.041.118c-2.784.59-5.309,3.246-6.515,6.854a24.186,24.186,0,0,0-.763,9.928,12.676,12.676,0,0,0,2.011,6.215,16.221,16.221,0,0,0,5.364,5.56,9.875,9.875,0,0,0,2.918,1.427,1.886,1.886,0,0,0,.338.072,4.092,4.092,0,0,0,.813,0,1.886,1.886,0,0,0,.338-.072,9.875,9.875,0,0,0,2.918-1.427,16.227,16.227,0,0,0,5.363-5.56,12.677,12.677,0,0,0,2.012-6.215A24.178,24.178,0,0,0,3166.394,2755.7Z" transform="translate(-3120.481 -2743.569)"/><g transform="translate(20.833 15.124)"><path class="ag" d="M3133.666,2793.871a1.933,1.933,0,0,0-.741-1.447,4.426,4.426,0,0,0-1.112-.582,1.659,1.659,0,0,0-1.886.49,3.507,3.507,0,0,0-.4,2.68,8.88,8.88,0,0,0,2.693,4.8.9.9,0,0,0,.789.264c.7-.137.8-1.066.8-1.825Q3133.825,2796.06,3133.666,2793.871Z" transform="translate(-3129.439 -2791.736)"/></g><g transform="translate(46.057 15.124)"><path class="ag" d="M3238.335,2793.871a1.933,1.933,0,0,1,.741-1.447,4.43,4.43,0,0,1,1.112-.582,1.66,1.66,0,0,1,1.886.49,3.508,3.508,0,0,1,.4,2.68,8.879,8.879,0,0,1-2.693,4.8.9.9,0,0,1-.789.264c-.7-.137-.8-1.066-.8-1.825Q3238.176,2796.06,3238.335,2793.871Z" transform="translate(-3238.188 -2791.736)"/></g><path class="am" d="M3167.334,2735.577a2.6,2.6,0,0,1,1.725-.523,30.327,30.327,0,0,1,6.457.392c2.663.451,5.409,1.356,7.111,3.353,1.657,1.944,1.87,4.594,2.364,7.051q.114.572.23,1.144a5.668,5.668,0,0,1-5.81-3.032c-.5-1.078-.665-2.392-1.648-3.107a5.02,5.02,0,0,0-3.188-.517,13.059,13.059,0,0,1-3.927-.311,5.715,5.715,0,0,1-3.213-2.061A1.887,1.887,0,0,1,3167.334,2735.577Z" transform="translate(-3137.415 -2733.053)"/><path class="ao" d="M3087.195,3026.012a41.366,41.366,0,0,0-1.036-15.025q-.361-1.377-.822-2.7-.077,2.112-.154,4.222-.029.79-.058,1.579l-.025,11.927Z" transform="translate(-3074.55 -2942.932)"/><path class="ao" d="M3291.7,3026.012a41.371,41.371,0,0,1,1.036-15.025q.361-1.377.822-2.7l.155,4.222q.029.79.058,1.579.013,5.963.025,11.927Z" transform="translate(-3233.029 -2942.932)"/><path class="a" d="M3179.489,2842.532a4.025,4.025,0,0,0,4.124-3.918h-8.248A4.025,4.025,0,0,0,3179.489,2842.532Z" transform="translate(-3143.879 -2812.617)"/></g></g></g></g><g transform="translate(-9089 -8038)"><g class="au" transform="matrix(1, 0, 0, 1, 9493, 10689.25)"><path class="a" d="M14.678,0H117.423A14.678,14.678,0,0,1,132.1,14.678v95.406a14.678,14.678,0,0,1-14.678,14.678H14.678A14.678,14.678,0,0,1,0,110.084V14.678A14.678,14.678,0,0,1,14.678,0Z" transform="translate(263.75 224.75)"/></g><g transform="translate(9755.024 10917.328)"><g class="ap" transform="translate(0)"><g transform="translate(27.248 4.768)"><path class="aq" d="M3091.448,3326.556a25.494,25.494,0,0,0-1.608-8.123,9.394,9.394,0,0,0-6.109-5.551c-.3-.072-.866-.218-1.638-.419-1.135-.345-2.294-.625-3.424-.9-7.957-2.112-22.068-5.92-22.068-5.92l-.016.017-.057-.017a2.063,2.063,0,0,1-3.681,0l-.056.017-.017-.017s-14.11,3.808-22.068,5.92c-1.13.278-2.289.558-3.423.9-.772.2-1.34.346-1.639.419a9.4,9.4,0,0,0-6.109,5.551,25.507,25.507,0,0,0-1.608,8.123q-.906,10.472-1.811,20.943h77.142Q3092.353,3337.028,3091.448,3326.556Z" transform="translate(-3016.116 -3259.672)"/><path class="ar" d="M3162.942,3265.676l-.039.031a13.9,13.9,0,0,1-17-.036h0q.371-5.8.743-11.591l7.774-2.941v-.007l7.781,2.942Q3162.57,3259.875,3162.942,3265.676Z" transform="translate(-3115.84 -3217.924)"/><path class="as" d="M3148.855,3254.993a35.183,35.183,0,0,0,16.324,10.165q-.356-5.542-.71-11.084l-7.781-2.942v.008l-7.774,2.939Q3148.885,3254.536,3148.855,3254.993Z" transform="translate(-3118.11 -3217.925)"/><path class="am" d="M3148.939,3129.607a12.423,12.423,0,0,0-4.171-8.386c-2.777-2.341-6.648-2.688-10.2-2.737a20.766,20.766,0,0,0-8.5,1.506c-3.9,1.687-5.634,5.729-5.974,9.616a35.829,35.829,0,0,0,1.037,10.085s13.371.846,13.371.848h.016s.016,0,.016,0l13.37-.846A35.829,35.829,0,0,0,3148.939,3129.607Z" transform="translate(-3095.953 -3116.332)"/><path class="ar" d="M3152.653,3151.1c-1.343-4.064-4.157-7.056-7.26-7.72a5.983,5.983,0,0,0-1.159-.133c-1.032-.016-5.028-.016-6.06,0a5.949,5.949,0,0,0-1.159.133c-3.1.664-5.917,3.656-7.26,7.72a27.524,27.524,0,0,0-.85,11.182,14.379,14.379,0,0,0,2.242,7,18.175,18.175,0,0,0,5.976,6.262c1.02.654,7.141.654,8.162,0a18.191,18.191,0,0,0,5.977-6.262,14.39,14.39,0,0,0,2.242-7A27.536,27.536,0,0,0,3152.653,3151.1Z" transform="translate(-3102.626 -3135.288)"/><g transform="translate(22.082 19.184)"><path class="ar" d="M3116.161,3193.643a2.183,2.183,0,0,0-.825-1.63,4.919,4.919,0,0,0-1.24-.656,1.835,1.835,0,0,0-2.1.552,3.989,3.989,0,0,0-.445,3.019,10.03,10.03,0,0,0,3,5.409,1,1,0,0,0,.879.3c.78-.155.89-1.2.894-2.055C3116.333,3196.932,3116.279,3195.283,3116.161,3193.643Z" transform="translate(-3111.452 -3191.237)"/></g><g transform="translate(50.188 19.184)"><path class="ar" d="M3232.961,3193.643a2.184,2.184,0,0,1,.826-1.63,4.9,4.9,0,0,1,1.24-.656,1.835,1.835,0,0,1,2.1.552,3.988,3.988,0,0,1,.445,3.019,10.024,10.024,0,0,1-3,5.409,1,1,0,0,1-.879.3c-.78-.155-.889-1.2-.894-2.055C3232.789,3196.932,3232.843,3195.283,3232.961,3193.643Z" transform="translate(-3232.797 -3191.237)"/></g><path class="at" d="M3071.1,3425.886a42.21,42.21,0,0,0-1.035-15.167q-.36-1.389-.821-2.728l-.154,4.262c-.02.532-.038,1.063-.058,1.594l-.025,12.039Z" transform="translate(-3056.754 -3338.058)"/><path class="at" d="M3286.369,3425.886a42.2,42.2,0,0,1,1.035-15.167q.36-1.389.821-2.728.077,2.131.154,4.262c.02.532.037,1.063.058,1.594l.025,12.039Z" transform="translate(-3223.57 -3338.058)"/><g transform="translate(24.066)"><path class="am" d="M3120.017,3127.213c1.334-4.119,2.128-7.573,6.276-9.983,4.125-2.4,9.62-2.085,13.839-.086,1.077.51,6.426,3.222,4.137,4.715a1.565,1.565,0,0,1-.291.146,1.024,1.024,0,0,0-.6,1.375,2.164,2.164,0,0,1-.9,2.552,6.516,6.516,0,0,1-4.114,1.264,14.332,14.332,0,0,1-4.3-.843,5.553,5.553,0,0,0-3.579-.4c-1.287.478-1.9,1.849-2.785,2.865a6.421,6.421,0,0,1-7.212,1.534C3120.7,3129.963,3120.58,3127.4,3120.017,3127.213Z" transform="translate(-3120.017 -3114.077)"/><path class="am" d="M3149.022,3122.874c-.005-.1-.011-.207-.012-.31a17.172,17.172,0,0,0-.208-2.5,13.323,13.323,0,0,0-2.881-6.653c-2.422-2.828-6.1-3.849-9.784-4.067a30.97,30.97,0,0,0-3.325-.006,14.418,14.418,0,0,0-7.956,2.445,11.674,11.674,0,0,0-4.1,6.006,16.5,16.5,0,0,0-.732,4.761h0v1.689h0a.314.314,0,0,1,.308.217c.455,1.488,1.316,4.271,1.407,4.348a11.677,11.677,0,0,1,5.333-7.993,15.087,15.087,0,0,1,13.926-.532,11.915,11.915,0,0,1,1.7,1.014,11.063,11.063,0,0,1,2.818,2.921,11.507,11.507,0,0,1,1.078,2.087,12.639,12.639,0,0,1,.412,1.221,5.147,5.147,0,0,1,.308,1.269c.121-.2.878-2.645,1.334-4.126l.366.073v-.076c0-.066,0-.131,0-.2,0-.091,0-.182,0-.273s0-.2.005-.3,0-.192.005-.288q0-.115,0-.229c0-.047,0-.093,0-.139C3149.03,3123.117,3149.028,3123,3149.022,3122.874Z" transform="translate(-3120.017 -3109.3)"/></g><path class="a" d="M3169.567,3248.705a4.039,4.039,0,0,0,4.118-3.955h-8.237A4.039,4.039,0,0,0,3169.567,3248.705Z" transform="translate(-3130.86 -3213.037)"/></g></g></g><text class="aj" transform="translate(9825 11015)"><tspan x="-52.428" y="0">PROCUREMENT</tspan></text></g></g></svg>