<svg xmlns="http://www.w3.org/2000/svg" width="94.392" height="258.306" viewBox="0 0 94.392 258.306"><defs><style>.a{fill:#1f3598;}.b{fill:#fec7cb;}.c{fill:#75a3ec;}.d{fill:#3772ce;}.e{fill:#ff8358;}.f{fill:#8dc0ef;}.g{fill:#e2e8f2;}.h{mix-blend-mode:multiply;isolation:isolate;}.i{fill:#842229;}.j{fill:#842128;}.k{fill:#636363;}</style></defs><g transform="translate(19.906 120.531)"><g transform="translate(40.507 106.023)"><g transform="translate(0)"><g transform="translate(0)"><g transform="translate(0)"><g transform="translate(0)"><g transform="translate(0)"><g transform="translate(0)"><path class="a" d="M882.583,875.538c.78,1.363,1.581,2.707,2.343,4.063a40.516,40.516,0,0,1,2.181,4.272c.923,2.221,2.679,6.548,1.4,8.819-1.929,3.419-6.014,1.181-8.155-.813a92.183,92.183,0,0,1-9.039-9.755,14.626,14.626,0,0,1-2.99-5.168c-1.718-6.194.064-15.484,6.3-14.108,2.279.5,3.449,2.374,4.277,4.886A42.587,42.587,0,0,0,882.583,875.538Z" transform="translate(-867.702 -862.711)"/></g></g></g></g></g></g></g><g transform="translate(0 90.945)"><g transform="translate(0)"><g transform="translate(0)"><g transform="translate(0)"><g transform="translate(0)"><g transform="translate(0)"><g transform="translate(0)"><path class="a" d="M928.022,860.759c.265,1.274.556,2.542.806,3.805a27.555,27.555,0,0,1,.582,3.891c.1,1.942.266,5.709-1.724,6.837-3,1.7-6.074-1.476-7.4-3.725a76.9,76.9,0,0,1-5.153-10.451,10.412,10.412,0,0,1-1.035-4.844c.517-5.085,5.4-11.032,10.807-7.644,1.974,1.238,2.431,3.026,2.344,5.139A28.7,28.7,0,0,0,928.022,860.759Z" transform="translate(-914.065 -847.633)"/></g></g></g></g></g></g></g><g transform="translate(2.794 15.773)"><g transform="translate(0)"><g transform="translate(0)"><g transform="translate(0)"><g transform="translate(0)"><g transform="translate(0)"><g transform="translate(0)"><path class="b" d="M908.706,772.461l-2.8,13.879-25.973,62.37c-.871,2.858.481,5.8,3.021,6.576l3.162.964c2.39.728,3.923-1.057,4.94-3.677L923.273,791.5l3.4-9C920.576,779.381,914.58,776.053,908.706,772.461Z" transform="translate(-879.669 -772.461)"/></g></g></g></g></g></g></g><g transform="translate(9.153)"><g transform="translate(0)"><g transform="translate(0)"><g transform="translate(0)"><g transform="translate(0)"><g transform="translate(0)"><g transform="translate(0)"><path class="b" d="M919.479,882.549c-.823-1.943-6.631-13.888-6.982-15.695L893.4,766.827l-2.132-8.122c-7.03-.418-14.1-1.068-21.236-2.017l6.893,20.613L902.1,868.817c1.041,4.165,8.118,14.8,10.175,16.136l3.448,2.238c.989.642,2.177,1.307,3.244.851a2.649,2.649,0,0,0,1.346-2.531A8.212,8.212,0,0,0,919.479,882.549Z" transform="translate(-870.032 -756.688)"/></g></g></g></g></g></g></g><g transform="translate(2.496 87.019)"><g transform="translate(0)"><g transform="translate(0)"><g transform="translate(0)"><g transform="translate(0)"><g transform="translate(0)"><g transform="translate(0)"><path class="b" d="M925.865,854.291l-.1,6.728a8.186,8.186,0,0,1-.434,3.046,2.65,2.65,0,0,1-2.253,1.773c-1.16-.013-1.978-1.1-2.625-2.088l-2.251-3.439c-1.344-2.051-2.741-4.287-2.66-6.808.094-2.947,2.162-5.423,4.111-7.613.95-1.067,2.087-2.222,3.459-2.182A3.326,3.326,0,0,1,925.431,845a6.553,6.553,0,0,1,1.533,4.476c-.079,2.129-1.151,4.147-1.223,6.276Z" transform="translate(-915.539 -843.707)"/></g></g></g></g></g></g></g></g><g transform="translate(0 0)"><g transform="translate(56.575 42.506)"><g transform="translate(0)"><g transform="translate(0)"><g transform="translate(0)"><g transform="translate(0)"><g transform="translate(0)"><g transform="translate(0)"><g transform="translate(0)"><g transform="translate(0)"><g transform="translate(0)"><g transform="translate(0)"><g transform="translate(0)"><g transform="translate(0)"><g transform="translate(0)"><g transform="translate(0)"><g transform="translate(0)"><g transform="translate(0)"><g transform="translate(0)"><g transform="translate(0)"><g transform="translate(0)"><path class="c" d="M878.8,727.276l-6.443-42.861a6.761,6.761,0,1,0-13.371,2.017l6.59,43.817a6.538,6.538,0,0,0,.54,1.825l14.373,31.078a17.437,17.437,0,0,0,12.3-5.6Z" transform="translate(-858.915 -678.663)"/></g></g></g></g></g></g></g></g></g></g></g></g></g></g></g></g></g></g></g><g transform="translate(21.578 78.891)"><g transform="translate(0)"><g transform="translate(0)"><g transform="translate(0)"><g transform="translate(0)"><g transform="translate(0)"><g transform="translate(0)"><g transform="translate(0)"><g transform="translate(0)"><g transform="translate(0)"><g transform="translate(0)"><g transform="translate(0)"><g transform="translate(0)"><g transform="translate(0)"><g transform="translate(0)"><g transform="translate(0)"><g transform="translate(0)"><g transform="translate(0)"><g transform="translate(0)"><path class="b" d="M870.591,764.718l-3.312-7.164a17.437,17.437,0,0,1-12.3,5.6l3.346,7.243a6.752,6.752,0,0,0,6.139,3.92,6.753,6.753,0,0,0,6.128-9.6Z" transform="translate(-854.978 -757.554)"/></g></g></g></g></g></g></g></g></g></g></g></g></g></g></g></g></g></g></g></g><g transform="translate(18.316 95.386)"><path class="a" d="M924.393,731.543l2.362,5.316a24.933,24.933,0,0,1,4.109,14l.19,72.295s-38.85,16.166-56.044-2.174l-.746-51.743s1.543-29.151,13.864-35.944Z" transform="translate(-874.264 -731.543)"/></g><g transform="translate(53.195 32.036)"><g transform="translate(0)"><g transform="translate(0)"><g transform="translate(0)"><g transform="translate(0)"><g transform="translate(0)"><g transform="translate(0)"><g transform="translate(0)"><g transform="translate(0)"><g transform="translate(0)"><g transform="translate(0)"><g transform="translate(0)"><g transform="translate(0)"><g transform="translate(0)"><g transform="translate(0)"><g transform="translate(0)"><g transform="translate(0)"><g transform="translate(0)"><g transform="translate(0)"><path class="d" d="M896.175,668.458c-.022,0-.043.024-.065.048a1.5,1.5,0,0,1-.022-.313A.389.389,0,0,0,896.175,668.458Z" transform="translate(-896.088 -668.193)"/></g></g></g></g></g></g></g></g></g></g></g></g></g></g></g></g></g></g></g><g transform="translate(55.595 41.234)"><g transform="translate(0)"><g transform="translate(0)"><g transform="translate(0)"><g transform="translate(0)"><g transform="translate(0)"><g transform="translate(0)"><g transform="translate(0)"><g transform="translate(0)"><g transform="translate(0)"><g transform="translate(0)"><g transform="translate(0)"><g transform="translate(0)"><g transform="translate(0)"><g transform="translate(0)"><g transform="translate(0)"><g transform="translate(0)"><g transform="translate(0)"><g transform="translate(0)"><path class="e" d="M893.315,678.485c.154.01.307.041.46.061l-1.206-1.155C892.825,677.748,893.07,678.117,893.315,678.485Z" transform="translate(-892.569 -677.391)"/></g></g></g></g></g></g></g></g></g></g></g></g></g></g></g></g></g></g></g><g transform="translate(24.538 42.519)"><g transform="translate(0)"><g transform="translate(0)"><g transform="translate(0)"><g transform="translate(0)"><g transform="translate(0)"><g transform="translate(0)"><g transform="translate(0)"><g transform="translate(0)"><g transform="translate(0)"><g transform="translate(0)"><g transform="translate(0)"><g transform="translate(0)"><g transform="translate(0)"><g transform="translate(0)"><g transform="translate(0)"><g transform="translate(0)"><g transform="translate(0)"><g transform="translate(0)"><path class="c" d="M875.393,697.714l2.533,9.506,4.991,28.873c.521,1.956,3.935,3.565,5.64,4.41,4.589,2.274,13.529,3.4,26.718-2.187a6.908,6.908,0,0,0,4.008-5.1l5.2-21.394.083-.43a15.059,15.059,0,0,0-1.391-9.726l-4.817-9.245v-4.943c0-5.863-5.186-10.086-10.381-8.445l-4.671,1.621-12.665,4.413-10.906,3.792A7.324,7.324,0,0,0,875.393,697.714Z" transform="translate(-875.13 -678.676)"/></g></g></g></g></g></g></g></g></g></g></g></g></g></g></g></g></g></g></g><g transform="translate(24.538 42.519)"><g transform="translate(0)"><g transform="translate(0)"><g transform="translate(0)"><g transform="translate(0)"><g transform="translate(0)"><g transform="translate(0)"><g transform="translate(0)"><g transform="translate(0)"><g transform="translate(0)"><g transform="translate(0)"><g transform="translate(0)"><g transform="translate(0)"><g transform="translate(0)"><g transform="translate(0)"><g transform="translate(0)"><g transform="translate(0)"><g transform="translate(0)"><g transform="translate(0)"><path class="f" d="M875.393,697.714l2.533,9.506c1.272,1.57,2.543,3.151,3.823,4.722,2.681,3.322,5.49,6.744,9.221,8.485,6.208,2.9,13.338.531,19.638-2.141q5.845-2.461,11.56-5.253c.774-.37,1.566-.76,2.312-1.211l.083-.43a15.059,15.059,0,0,0-1.391-9.726l-4.817-9.245v-4.943c0-5.863-5.186-10.086-10.381-8.445l-4.671,1.621-12.665,4.413-10.906,3.792A7.324,7.324,0,0,0,875.393,697.714Z" transform="translate(-875.13 -678.676)"/></g></g></g></g></g></g></g></g></g></g></g></g></g></g></g></g></g></g></g><g transform="translate(40.048 44.502)"><g transform="translate(0)"><g transform="translate(0)"><g transform="translate(0)"><g transform="translate(0)"><g transform="translate(0)"><g transform="translate(0)"><g transform="translate(0)"><g transform="translate(0)"><g transform="translate(0)"><g transform="translate(0)"><g transform="translate(0)"><g transform="translate(0)"><g transform="translate(0)"><g transform="translate(0)"><g transform="translate(0)"><g transform="translate(0)"><g transform="translate(0)"><g transform="translate(0)"><path class="b" d="M908.973,694.267a1.574,1.574,0,0,1-.913.428c-1.509.236-2.985-.6-4.314-1.431a97.544,97.544,0,0,1-9.766-7.1c-.439-.361-.879-.733-1.318-1.1l7.423-2.58,5.238-1.825c.169.35.338.7.5,1.059a48.61,48.61,0,0,1,2.376,6.376c.4,1.351.733,2.726,1.014,4.111A2.4,2.4,0,0,1,908.973,694.267Z" transform="translate(-892.662 -680.659)"/></g></g></g></g></g></g></g></g></g></g></g></g></g></g></g></g></g></g></g><g transform="translate(0 53.388)"><g transform="translate(0)"><g transform="translate(0)"><g transform="translate(0)"><g transform="translate(0)"><g transform="translate(0)"><g transform="translate(0)"><g transform="translate(0)"><g transform="translate(0)"><g transform="translate(0)"><g transform="translate(0)"><g transform="translate(0)"><g transform="translate(0)"><g transform="translate(0)"><g transform="translate(0)"><g transform="translate(0)"><g transform="translate(0)"><g transform="translate(0)"><g transform="translate(0)"><g transform="translate(0)"><path class="f" d="M936.688,745.269c1.747.15,3.5.275,5.249.31q1.669.033,3.336-.045c.312-.014.53-.02.708-.023.162-.036.36-.077.647-.131.262-.05,1.039-.271,1.492-.388.217-.131.371-.218.454-.255.047-.043.1-.1.127-.116.049-.113.094-.222.113-.282a9.7,9.7,0,0,0,.416-3.253,12.387,12.387,0,0,1,.14-1.5c-4.268-6.85-12.587-10.166-18.073-12.336a47.461,47.461,0,0,1-4.416-1.9,2.233,2.233,0,0,1,.354-2.546l18.628-22.143a6.758,6.758,0,0,0-10.344-8.7l-18.558,22.062a15.763,15.763,0,0,0-.55,19.94c2.164,2.792,5.583,4.145,9.913,5.858C929.991,741.265,934.282,742.97,936.688,745.269Z" transform="translate(-913.125 -689.545)"/></g></g></g></g></g></g></g></g></g></g></g></g></g></g></g></g></g></g></g></g><g transform="translate(77.823 72.112)"><g transform="translate(0)"><g transform="translate(0)"><g transform="translate(0)"><g transform="translate(0)"><g transform="translate(0)"><g transform="translate(0)"><g transform="translate(0)"><g transform="translate(0)"><g transform="translate(0)"><g transform="translate(0)"><g transform="translate(0)"><g transform="translate(0)"><g transform="translate(0)"><g transform="translate(0)"><g transform="translate(0)"><g transform="translate(0)"><g transform="translate(0)"><g transform="translate(0)"><path class="g" d="M871.547,708.269l-.153.316a.466.466,0,0,0,.123.011C871.517,708.493,871.537,708.381,871.547,708.269Z" transform="translate(-871.394 -708.269)"/></g></g></g></g></g></g></g></g></g></g></g></g></g></g></g></g></g></g></g><g transform="translate(40.037 32.213)"><g transform="translate(0)"><g transform="translate(0)"><g transform="translate(0)"><g transform="translate(0)"><g transform="translate(0)"><g transform="translate(0)"><g transform="translate(0)"><g transform="translate(0)"><g transform="translate(0)"><g transform="translate(0)"><g transform="translate(0)"><g transform="translate(0)"><g transform="translate(0)"><g transform="translate(0)"><g transform="translate(0)"><g transform="translate(0)"><g transform="translate(0)"><g transform="translate(0)"><rect class="b" width="13.168" height="17.797" transform="translate(0)"/></g></g></g></g></g></g></g></g></g></g></g></g></g></g></g></g></g></g></g><g class="h" transform="translate(40.032 37.235)"><g transform="translate(0)"><g transform="translate(0)"><g transform="translate(0)"><g transform="translate(0)"><g transform="translate(0)"><g transform="translate(0)"><g transform="translate(0)"><g transform="translate(0)"><g transform="translate(0)"><g transform="translate(0)"><g transform="translate(0)"><g transform="translate(0)"><g transform="translate(0)"><g transform="translate(0)"><g transform="translate(0)"><g transform="translate(0)"><g transform="translate(0)"><g transform="translate(0)"><path class="e" d="M896.17,674.329l13.106,7.682.062-.177v-8.443Z" transform="translate(-896.17 -673.392)"/></g></g></g></g></g></g></g></g></g></g></g></g></g></g></g></g></g></g></g><g transform="translate(20.553)"><g transform="translate(7.508 4.171)"><g transform="translate(0)"><g transform="translate(0)"><g transform="translate(0)"><g transform="translate(0)"><g transform="translate(0)"><g transform="translate(0)"><g transform="translate(0)"><g transform="translate(0)"><g transform="translate(0)"><g transform="translate(0)"><g transform="translate(0)"><g transform="translate(0)"><g transform="translate(0)"><g transform="translate(0)"><g transform="translate(0)"><g transform="translate(0)"><g transform="translate(0)"><g transform="translate(0)"><path class="i" d="M884.7,650.014c.378-12.4,11.4-9.706,21.945-8.8a10.891,10.891,0,0,1,2.857.5A8.676,8.676,0,0,1,911.668,643c6.148,4.631,10.367,11.679,9.536,18.777-1.56,13.327-20.4,18.381-30.53,8.558C885.2,665.023,884.48,657.19,884.7,650.014Z" transform="translate(-884.666 -640.328)"/></g></g></g></g></g></g></g></g></g></g></g></g></g></g></g></g></g></g></g><g transform="translate(17.99 9.291)"><g transform="translate(0)"><g transform="translate(0)"><g transform="translate(0)"><g transform="translate(0)"><g transform="translate(0)"><g transform="translate(0)"><g transform="translate(0)"><g transform="translate(0)"><g transform="translate(0)"><g transform="translate(0)"><g transform="translate(0)"><g transform="translate(0)"><g transform="translate(0)"><g transform="translate(0)"><g transform="translate(0)"><g transform="translate(0)"><g transform="translate(0)"><g transform="translate(0)"><path class="b" d="M910.808,666.077c-.138,3.886-.8,7.722-3.081,10.573-2.507,3.18-6.555,4.442-10.395,4.543a11.537,11.537,0,0,1-6.187-1.363c-3.542-2.12-5.2-6.687-6.094-11a36.312,36.312,0,0,1-.667-4.971,18.466,18.466,0,0,1,.552-5.628,16.184,16.184,0,0,1,7.083-9.235,25.521,25.521,0,0,1,10.763-3.407c1.817-.227-4.113-.278-2.48.656,1.081.606,4.184,1.767,4.437,3.028.116.455,5.748.934,5.679,1.388.114,3.533.229,7.04.344,10.573C910.808,662.822,910.854,664.437,910.808,666.077Z" transform="translate(-884.366 -645.448)"/></g></g></g></g></g></g></g></g></g></g></g></g></g></g></g></g></g></g></g><g transform="translate(0)"><g transform="translate(0)"><g transform="translate(0)"><g transform="translate(0)"><g transform="translate(0)"><g transform="translate(0)"><g transform="translate(0)"><g transform="translate(0)"><g transform="translate(0)"><g transform="translate(0)"><g transform="translate(0)"><g transform="translate(0)"><g transform="translate(0)"><g transform="translate(0)"><g transform="translate(0)"><g transform="translate(0)"><g transform="translate(0)"><g transform="translate(0)"><g transform="translate(0)"><path class="i" d="M927.708,641.384c-3.32-6.182-13.344-7.088-17.72-1.6s-1.264,15.057,5.5,16.921a10.955,10.955,0,0,0,12.675-6.327,10.8,10.8,0,0,0-5.11-13.171Z" transform="translate(-907.962 -636.157)"/></g></g></g></g></g></g></g></g></g></g></g></g></g></g></g></g></g></g></g><g transform="translate(14.886 9.498)"><g transform="translate(0)"><g transform="translate(0)"><g transform="translate(0)"><g transform="translate(0)"><g transform="translate(0)"><g transform="translate(0)"><g transform="translate(0)"><g transform="translate(0)"><g transform="translate(0)"><g transform="translate(0)"><g transform="translate(0)"><g transform="translate(0)"><g transform="translate(0)"><g transform="translate(0)"><g transform="translate(0)"><g transform="translate(0)"><g transform="translate(0)"><g transform="translate(0)"><path class="j" d="M912.185,654.044a23.9,23.9,0,0,1-5.549,8.513,13.971,13.971,0,0,1-9.187,3.969,5.492,5.492,0,0,1-4.354-1.609,5.937,5.937,0,0,1-1.06-2.341,15.319,15.319,0,0,1,.628-10.017A11.628,11.628,0,0,1,900.071,646a13.077,13.077,0,0,1,10.235,2.013c2.136,1.379,4.127,3.743,3.512,6.21Z" transform="translate(-891.484 -645.655)"/></g></g></g></g></g></g></g></g></g></g></g></g></g></g></g></g></g></g></g><g transform="translate(16.541 29.568)"><g transform="translate(0)"><g transform="translate(0)"><g transform="translate(0)"><g transform="translate(0)"><g transform="translate(0)"><g transform="translate(0)"><g transform="translate(0)"><g transform="translate(0)"><g transform="translate(0)"><g transform="translate(0)"><g transform="translate(0)"><g transform="translate(0)"><g transform="translate(0)"><g transform="translate(0)"><g transform="translate(0)"><g transform="translate(0)"><g transform="translate(0)"><g transform="translate(0)"><path class="k" d="M911.85,672.335l.426-.73-10.062-5.88-.426.73Z" transform="translate(-901.788 -665.725)"/></g></g></g></g></g></g></g></g></g></g></g></g></g></g></g></g></g></g></g><g transform="translate(14.12 28.673)"><g transform="translate(6.744 5.883)"><g transform="translate(0)"><g transform="translate(0)"><g transform="translate(0)"><g transform="translate(0)"><g transform="translate(0)"><g transform="translate(0)"><g transform="translate(0)"><g transform="translate(0)"><g transform="translate(0)"><g transform="translate(0)"><g transform="translate(0)"><g transform="translate(0)"><g transform="translate(0)"><g transform="translate(0)"><g transform="translate(0)"><g transform="translate(0)"><g transform="translate(0)"><g transform="translate(0)"><path class="b" d="M907.954,670.921a.856.856,0,0,1-.851.095,2.053,2.053,0,0,0-.056-.3Z" transform="translate(-907.047 -670.713)"/></g></g></g></g></g></g></g></g></g></g></g></g></g></g></g></g></g></g></g><g transform="translate(0)"><g transform="translate(0)"><g transform="translate(0)"><g transform="translate(0)"><g transform="translate(0)"><g transform="translate(0)"><g transform="translate(0)"><g transform="translate(0)"><g transform="translate(0)"><g transform="translate(0)"><g transform="translate(0)"><g transform="translate(0)"><g transform="translate(0)"><g transform="translate(0)"><g transform="translate(0)"><g transform="translate(0)"><g transform="translate(0)"><g transform="translate(0)"><g transform="translate(0)"><path class="b" d="M909.515,664.915c1.33-.461,2.645,1.022,3.225,2.714a14.773,14.773,0,0,0,.9,2.527,1.912,1.912,0,0,0,.962.86,2.865,2.865,0,0,1-1.44,3.313c-1.133.371-2.309-.356-3.241-1.3a7.125,7.125,0,0,1-2.083-4.079C907.631,667.271,908.307,665.334,909.515,664.915Z" transform="translate(-907.799 -664.83)"/></g></g></g></g></g></g></g></g></g></g></g></g></g></g></g></g></g></g></g></g><g transform="translate(26.394 22.197)"><g transform="translate(8.129 5.508)"><g transform="translate(0)"><g transform="translate(0)"><g transform="translate(0)"><g transform="translate(0)"><g transform="translate(0)"><g transform="translate(0)"><g transform="translate(0)"><g transform="translate(0)"><g transform="translate(0)"><g transform="translate(0)"><g transform="translate(0)"><g transform="translate(0)"><g transform="translate(0)"><g transform="translate(0)"><g transform="translate(0)"><g transform="translate(0)"><g transform="translate(0)"><g transform="translate(0)"><g transform="translate(0)"><g transform="translate(0)"><path class="k" d="M893.9,665.567c-.245-.831-.78-1.126-1.4-.77a3.685,3.685,0,0,0-1.4,2.382l-.4-.065a4.742,4.742,0,0,1,1.794-3.061c.793-.458,1.48-.079,1.795.989Z" transform="translate(-890.705 -663.862)"/></g></g></g></g></g></g></g></g></g></g></g></g></g></g></g></g></g></g></g></g></g><g transform="translate(0)"><g transform="translate(8.129 5.508)"><g transform="translate(0)"><g transform="translate(0)"><g transform="translate(0)"><g transform="translate(0)"><g transform="translate(0)"><g transform="translate(0)"><g transform="translate(0)"><g transform="translate(0)"><g transform="translate(0)"><g transform="translate(0)"><g transform="translate(0)"><g transform="translate(0)"><g transform="translate(0)"><g transform="translate(0)"><g transform="translate(0)"><g transform="translate(0)"><g transform="translate(0)"><g transform="translate(0)"><g transform="translate(0)"><path class="k" d="M893.9,665.567c-.245-.831-.78-1.126-1.4-.77a3.685,3.685,0,0,0-1.4,2.382l-.4-.065a4.742,4.742,0,0,1,1.794-3.061c.793-.458,1.48-.079,1.795.989Z" transform="translate(-890.705 -663.862)"/></g></g></g></g></g></g></g></g></g></g></g></g></g></g></g></g></g></g></g></g><g transform="translate(0 6.226)"><g transform="translate(0)"><g transform="translate(0)"><g transform="translate(0)"><g transform="translate(0)"><g transform="translate(0)"><g transform="translate(0)"><g transform="translate(0)"><g transform="translate(0)"><g transform="translate(0)"><g transform="translate(0)"><g transform="translate(0)"><g transform="translate(0)"><g transform="translate(0)"><g transform="translate(0)"><g transform="translate(0)"><g transform="translate(0)"><g transform="translate(0)"><g transform="translate(0)"><g transform="translate(0)"><path class="k" d="M896.14,675.89a4.106,4.106,0,0,0,2.021-.612,9.437,9.437,0,0,0,4.262-7.382,2.881,2.881,0,0,0-4.685-2.705,9.434,9.434,0,0,0-4.262,7.382,3.244,3.244,0,0,0,1.4,2.988A2.493,2.493,0,0,0,896.14,675.89Zm3.617-10.465a1.675,1.675,0,0,1,.846.214,2.456,2.456,0,0,1,.975,2.257,8.5,8.5,0,0,1-3.84,6.649,2.06,2.06,0,0,1-3.417-1.972,8.5,8.5,0,0,1,3.84-6.65A3.261,3.261,0,0,1,899.757,665.425Z" transform="translate(-893.476 -664.579)"/></g></g></g></g></g></g></g></g></g></g></g></g></g></g></g></g></g></g></g></g><g transform="translate(10.782)"><g transform="translate(0)"><g transform="translate(0)"><g transform="translate(0)"><g transform="translate(0)"><g transform="translate(0)"><g transform="translate(0)"><g transform="translate(0)"><g transform="translate(0)"><g transform="translate(0)"><g transform="translate(0)"><g transform="translate(0)"><g transform="translate(0)"><g transform="translate(0)"><g transform="translate(0)"><g transform="translate(0)"><g transform="translate(0)"><g transform="translate(0)"><g transform="translate(0)"><g transform="translate(0)"><path class="k" d="M885.358,669.664a4.107,4.107,0,0,0,2.021-.611,9.437,9.437,0,0,0,4.262-7.382,2.881,2.881,0,0,0-4.685-2.7,9.434,9.434,0,0,0-4.262,7.382,3.246,3.246,0,0,0,1.4,2.988A2.5,2.5,0,0,0,885.358,669.664Zm3.617-10.464a1.673,1.673,0,0,1,.846.214,2.456,2.456,0,0,1,.975,2.257,8.495,8.495,0,0,1-3.84,6.649,2.06,2.06,0,0,1-3.417-1.972,8.5,8.5,0,0,1,3.84-6.65A3.261,3.261,0,0,1,888.975,659.2Z" transform="translate(-882.694 -658.354)"/></g></g></g></g></g></g></g></g></g></g></g></g></g></g></g></g></g></g></g></g></g></g><g transform="translate(22.375 5.025)"><g transform="translate(0)"><g transform="translate(0)"><g transform="translate(0)"><g transform="translate(0)"><g transform="translate(0)"><g transform="translate(0)"><g transform="translate(0)"><g transform="translate(0)"><g transform="translate(0)"><g transform="translate(0)"><g transform="translate(0)"><g transform="translate(0)"><g transform="translate(0)"><g transform="translate(0)"><g transform="translate(0)"><g transform="translate(0)"><g transform="translate(0)"><g transform="translate(0)"><path class="i" d="M886.733,651.955l19.5,6.343a12.482,12.482,0,0,0-3.656-11c-2.847-2.846-6.792-5.547-10.784-6.062-3.139-.4-7.151,1.536-7.93,4.6-.862,3.391,2.907,5.992,6.085,7.454Z" transform="translate(-883.743 -641.182)"/></g></g></g></g></g></g></g></g></g></g></g></g></g></g></g></g></g></g></g></g><g transform="translate(75.192 126.815)"><g transform="translate(0)"><g transform="translate(0)"><g transform="translate(0)"><g transform="translate(0)"><g transform="translate(0)"><g transform="translate(0)"><g transform="translate(0)"><g transform="translate(0)"><g transform="translate(0)"><g transform="translate(0)"><g transform="translate(0)"><g transform="translate(0)"><g transform="translate(0)"><g transform="translate(0)"><g transform="translate(0)"><g transform="translate(0)"><g transform="translate(0)"><g transform="translate(0)"><path class="e" d="M874.167,763.04a.317.317,0,0,0,.011.1,14.244,14.244,0,0,1-1.678-.169Z" transform="translate(-872.5 -762.972)"/></g></g></g></g></g></g></g></g></g></g></g></g></g></g></g></g></g></g></g><g transform="translate(24.307 100.647)"><g transform="translate(0)"><g transform="translate(0)"><g transform="translate(0)"><g transform="translate(0)"><g transform="translate(0)"><g transform="translate(0)"><g transform="translate(0)"><g transform="translate(0)"><g transform="translate(0)"><g transform="translate(0)"><g transform="translate(0)"><g transform="translate(0)"><g transform="translate(0)"><g transform="translate(0)"><g transform="translate(0)"><g transform="translate(0)"><g transform="translate(0)"><g transform="translate(0)"><path class="b" d="M918.707,736.856a11.294,11.294,0,0,0-6.077,1.052q-.345.172-.674.38a4.555,4.555,0,0,0-.413,7.22,6.737,6.737,0,0,1,2.324,3.978,5.451,5.451,0,0,0,5.3,4.887h.273a5.688,5.688,0,0,0,2.528-.593A5.761,5.761,0,0,0,925,747.746,17.64,17.64,0,0,0,918.707,736.856Z" transform="translate(-909.967 -736.804)"/></g></g></g></g></g></g></g></g></g></g></g></g></g></g></g></g></g></g></g></g></svg>