<svg xmlns="http://www.w3.org/2000/svg" xmlns:xlink="http://www.w3.org/1999/xlink" width="537.675" height="462.399" viewBox="0 0 537.675 462.399"><defs><style>.a{fill:#1f3598;}.b{fill:#525252;}.c,.d{fill:#fff;}.c{font-size:20px;font-family:HelveticaNeue, Helvetica Neue;}.e{fill:#8dc0ef;}.f{fill:#647ddd;opacity:0.17;}.g{fill:#d5e8fa;}.h{fill:#eff6fc;}.i{fill:#bddcff;}.j{fill:#e2e8f2;}.k{fill:#75a3ec;}.l{fill:#ffc7cb;}.m{fill:#ff8358;}.n{fill:#577de8;}.o{fill:#f2f4fa;}.p{fill:#3772ce;}.q{fill:#fec7cb;}.r{fill:#4568c7;}.s{fill:#a0d2ff;}.t{fill:#636363;}.u{fill:#842229;}.v{fill:#f2f4f9;}.w{fill:#484255;}.x{fill:#ced6e9;}.y{fill:#fbc1b1;}.z{fill:rgba(15,0,0,0.1);}.aa{fill:#c4e4f9;}.ab{fill:#0f62fe;}.ac{fill:#e91e63;}.ad{fill:#00bcd4;}.ae{fill:#4caf50;}.af{fill:#ff9800;}.ag{filter:url(#a);}</style><filter id="a" x="61.037" y="0.847" width="162.817" height="154.771" filterUnits="userSpaceOnUse"><feOffset input="SourceAlpha"/><feGaussianBlur stdDeviation="3" result="b"/><feFlood flood-opacity="0.161"/><feComposite operator="in" in2="b"/><feComposite in="SourceGraphic"/></filter></defs><g transform="translate(-396.325 -7016)"><path class="a" d="M2037.531,907.092l1.095-.636c.166-.1.165-.253,0-.35l-1.1-.634a.669.669,0,0,0-.606,0l-1.094.636a.185.185,0,0,0,0,.35l1.1.634a.665.665,0,0,0,.605,0Z" transform="translate(-1386.833 6475.772)"/><g transform="translate(-10 1298)"><g transform="translate(-6416 -8388)"><circle class="b" cx="130" cy="130" r="130" transform="translate(7100 14106)"/><text class="c" transform="translate(7192 14158)"><tspan x="0" y="19">SCRUM</tspan></text></g><path class="d" d="M3089.833,1512.44a34.987,34.987,0,1,0-31.646-53.166l-1.257,2.053,6.837,1.75-10.735,10.979-4.143-14.787,6.27,1.6.665-1.2A37.066,37.066,0,0,1,3068,1446.61a36.853,36.853,0,0,1,51.362,11.478l.5.813.957.026c.163,0,.326.006.488.006a17.573,17.573,0,0,0,5.818-34.14l-3.434-1.215,2.4,7.178-15.047-3.064,10.176-11.5,1.946,5.819,1.07.166a19.406,19.406,0,0,1-.832,38.474l-2.411.266.98,2.219a36.872,36.872,0,0,1-15.009,45.969l-1.857,1.112-1.962.881c-.251.113-.5.224-.756.331a36.845,36.845,0,0,1-3.971,1.415l-1.277.375v1.028h-3.525v-.286l-1.948.189c-.608.059-1.222.1-1.835.132Zm15.819,1.807v-1.839h3.525v1.839Z" transform="translate(-2282.888 4388.807)"/><g transform="translate(40 -8)"><rect class="d" width="3.525" height="1.84" transform="translate(789.476 5909.277)"/><rect class="d" width="3.525" height="1.84" transform="translate(801.075 5909.277)"/><rect class="d" width="3.525" height="1.84" transform="translate(795.183 5909.277)"/><path class="d" d="M3274.073,1676.658h-.7v-1.84h.7v-6.759l13.3,7.678-13.3,7.679Z" transform="translate(-2466.583 4234.459)"/></g></g><g transform="translate(-157 2417)"><g transform="translate(642.158 4736.983)"><path class="e" d="M2040.053,946.025a5.683,5.683,0,0,1-5.145,0c-1.421-.821-1.421-2.151,0-2.972a5.685,5.685,0,0,1,5.145,0C2041.475,943.874,2041.475,945.2,2040.053,946.025Z" transform="translate(-1836.63 -682.502)"/><path class="a" d="M2115.216,803.7c-5.677-6.576-12.067,2.756-15.085,6.625-2.052,2.63-9.186,9.609-8.4,13.271.274,1.284.428,1.224,1.7,1.565a7.938,7.938,0,0,0,3.893-.145c6.7-1.614,12.006-5.4,15.043-11.192.124,1.61.155,3.221.134,4.834a.463.463,0,0,0,.718.378q.938-.612,1.842-1.274c2.246-1.659,1.256-4.01,1.863-6.685A8.383,8.383,0,0,0,2115.216,803.7Z" transform="translate(-1834.61 -687.431)"/><path class="f" d="M1927.6,929.38c-14.446-8.339-37.865-8.339-52.309,0s-14.445,21.861,0,30.2,37.863,8.34,52.309,0S1942.045,937.72,1927.6,929.38Z" transform="translate(-1842.55 -683.178)"/><path class="f" d="M2162.078,877.627,1969.73,768.234l-118.961,71.423a2.139,2.139,0,0,0,.05,3.7l186.987,105.42a12.506,12.506,0,0,0,12.665-.121l111.65-67A2.333,2.333,0,0,0,2162.078,877.627Z" transform="translate(-1843.065 -688.591)"/><path class="e" d="M2041.12,878.524v67.637a.76.76,0,0,1-.055.264.6.6,0,0,1-.526.319h-6.117a.6.6,0,0,1-.527-.319.748.748,0,0,1-.055-.264V878.524a.586.586,0,0,1,.582-.583h6.117A.586.586,0,0,1,2041.12,878.524Z" transform="translate(-1836.629 -684.757)"/><path class="e" d="M2041.12,890.108a.525.525,0,0,1-.065.252,1.2,1.2,0,0,1,.065.384,1.789,1.789,0,0,1-1.066,1.482,5.673,5.673,0,0,1-5.149,0,1.793,1.793,0,0,1-1.065-1.482,1.164,1.164,0,0,1,.066-.384.51.51,0,0,1-.066-.252V878.524a.586.586,0,0,1,.582-.583h6.117a.586.586,0,0,1,.582.583Z" transform="translate(-1836.629 -684.757)"/><path class="e" d="M1852.869,842.2a5.687,5.687,0,0,1-5.146,0c-1.42-.821-1.42-2.151,0-2.971a5.684,5.684,0,0,1,5.146,0C1854.29,840.044,1854.29,841.374,1852.869,842.2Z" transform="translate(-1843.172 -686.132)"/><path class="e" d="M1853.935,774.694v67.638a.741.741,0,0,1-.055.263.594.594,0,0,1-.526.318h-6.116a.6.6,0,0,1-.527-.318.761.761,0,0,1-.054-.263V774.694a.586.586,0,0,1,.581-.583h6.116A.585.585,0,0,1,1853.935,774.694Z" transform="translate(-1843.172 -688.386)"/><path class="e" d="M1853.935,786.278a.518.518,0,0,1-.065.253,1.193,1.193,0,0,1,.065.384,1.789,1.789,0,0,1-1.064,1.482,5.674,5.674,0,0,1-5.15,0,1.79,1.79,0,0,1-1.065-1.482,1.162,1.162,0,0,1,.066-.384.506.506,0,0,1-.066-.253V774.694a.586.586,0,0,1,.581-.583h6.116a.585.585,0,0,1,.582.583Z" transform="translate(-1843.172 -688.386)"/><path class="e" d="M2153.749,879.548a5.686,5.686,0,0,1-5.146,0c-1.42-.82-1.42-2.151,0-2.971a5.692,5.692,0,0,1,5.146,0C2155.171,877.4,2155.171,878.728,2153.749,879.548Z" transform="translate(-1832.656 -684.826)"/><path class="e" d="M2154.816,812.047v67.638a.765.765,0,0,1-.056.264.6.6,0,0,1-.526.318h-6.117a.594.594,0,0,1-.525-.318.752.752,0,0,1-.055-.264V812.047a.586.586,0,0,1,.581-.582h6.117A.587.587,0,0,1,2154.816,812.047Z" transform="translate(-1832.656 -687.08)"/><path class="e" d="M2154.816,828.543a.527.527,0,0,1-.066.253,1.223,1.223,0,0,1,.066.384,1.791,1.791,0,0,1-1.065,1.482,5.678,5.678,0,0,1-5.15,0,1.788,1.788,0,0,1-1.065-1.482,1.214,1.214,0,0,1,.065-.384.523.523,0,0,1-.065-.253V816.959a.585.585,0,0,1,.581-.582h6.117a.586.586,0,0,1,.583.582Z" transform="translate(-1832.656 -686.909)"/><path class="g" d="M1843.693,761.735l-.013,14.508,21.6,7.975-1.1-7.9Z" transform="translate(-1843.276 -688.818)"/><path class="g" d="M2162.8,815.365V802.411L2138.858,817.8l1.6,4.262Z" transform="translate(-1832.959 -687.397)"/><path class="g" d="M1846.606,772.1l112.164-65.569a25.41,25.41,0,0,1,25.427-.127l185.157,105.752a6.7,6.7,0,0,1,.027,11.61L2055.4,889.592a25.409,25.409,0,0,1-25.418,0L1846.635,783.673A6.694,6.694,0,0,1,1846.606,772.1Z" transform="translate(-1843.29 -690.87)"/><path class="h" d="M1847,760.323l112.164-65.568a25.412,25.412,0,0,1,25.427-.129L2169.744,800.38a6.693,6.693,0,0,1,.028,11.609l-113.986,65.829a25.409,25.409,0,0,1-25.418,0L1847.026,771.9A6.694,6.694,0,0,1,1847,760.323Z" transform="translate(-1843.276 -691.281)"/><path class="e" d="M1978.261,825.763l-56.938-32.874c-2.584-1.492-2.584-3.911,0-5.4l22.383-12.923a10.339,10.339,0,0,1,9.358,0L2010,807.437c2.584,1.493,2.584,3.911,0,5.4l-22.384,12.923A10.338,10.338,0,0,1,1978.261,825.763Z" transform="translate(-1840.63 -688.409)"/><path class="e" d="M1919.384,785.658v5.4l63.556,35.4,29-16.744v-4.1Z" transform="translate(-1840.63 -687.982)"/><path class="i" d="M1978.261,821.8l-56.938-32.875c-2.584-1.491-2.584-3.91,0-5.4L1943.7,770.6a10.345,10.345,0,0,1,9.358,0L2010,803.474c2.584,1.492,2.584,3.91,0,5.4L1987.618,821.8A10.342,10.342,0,0,1,1978.261,821.8Z" transform="translate(-1840.63 -688.548)"/><path class="i" d="M1989.9,813.424l-55.168-31.852,4.847-2.8,55.168,31.852Z" transform="translate(-1840.094 -688.223)"/><path class="i" d="M1981.864,818.062,1926.7,786.21l4.847-2.8,55.167,31.852Z" transform="translate(-1840.375 -688.061)"/><path class="j" d="M1935.79,781.551l54.07,31.219,3.75-2.165-54.071-31.218Z" transform="translate(-1840.057 -688.202)"/><path class="j" d="M1927.757,786.189l54.07,31.218,3.749-2.166-54.07-31.217Z" transform="translate(-1840.337 -688.039)"/><path class="j" d="M1943.607,776.283l54.07,31.219,3.75-2.166-54.07-31.218Z" transform="translate(-1839.784 -688.386)"/><path class="k" d="M2044.245,820.874c0,3.62-5.524,6.555-12.341,6.555s-12.341-2.935-12.341-6.555,5.525-6.555,12.341-6.555S2044.245,817.254,2044.245,820.874Z" transform="translate(-1837.129 -686.981)"/><ellipse class="i" cx="12.341" cy="6.554" rx="12.341" ry="6.554" transform="translate(182.435 124.089)"/><path class="a" d="M2037.81,907.349l1.26-.733c.192-.111.191-.292-.005-.4l-1.266-.731a.772.772,0,0,0-.7,0l-1.259.733a.214.214,0,0,0,0,.4l1.266.73a.769.769,0,0,0,.7,0Z" transform="translate(-1836.565 -683.797)"/><rect class="a" width="4.914" height="11.78" rx="1.584" transform="translate(126.404 237.589)"/><path class="l" d="M1965.677,858.409l.175,3.771,2.174,53.1c-.008.2-.026.159-.037.074a7.817,7.817,0,0,0-.5,2.8c3.272,2.392,6.078,3.725,10.448,3.5a37.3,37.3,0,0,1,.67-7.73c.077-.566,4.291-53.055,4.291-53.055v-.045C1976.429,860.993,1972.146,858.053,1965.677,858.409Z" transform="translate(-1839.012 -685.44)"/><path class="a" d="M1976.977,925.835c4.216,2.982,3.807,5.774,10.133,4.216a11.731,11.731,0,0,0,5.475-2.622c1.422-1.392,2.062-3.584,1.037-5.238-.9-1.458-2.791-2.143-4.581-2.545a28.192,28.192,0,0,0-9.077-.525,7.744,7.744,0,0,0-4.077,1.338C1973.637,922.271,1975.086,924.5,1976.977,925.835Z" transform="translate(-1838.696 -683.323)"/><path class="l" d="M1975.162,914.245a11.049,11.049,0,0,1,2.848,2.045c3.175,2.645,6.4,5.35,8.637,8.825-.66,1.955-2.8,3.375-5.148,4.078a34.988,34.988,0,0,1-4.009-1.419,21.849,21.849,0,0,1-8.854-7.341c-.268-.386-.525-.908-.26-1.3l3.53-3.417c3.539-3.425,8.77,1.463,12.336,3.324,1.348.7,2.879,1.682,2.93,3.2.05,1.422-1.262,2.506-2.548,3.114a12.225,12.225,0,0,1-4.019,1.115Z" transform="translate(-1838.921 -683.488)"/><path class="a" d="M1966.459,914.882a5.609,5.609,0,0,1,5.124.743c2.477,1.5,4.313,3.94,6.477,5.822,2.982,2.592,5.985,4.044,9.634,2.375,1.2.729,2.042,1.57,2,2.539-.053,1.411-2.581,3.221-3.7,3.988-3.5,2.411-9.138-1.46-11.99-2.908-2.246-1.143-4.625-.931-6.765-1.883C1964.368,924.275,1963.453,917.588,1966.459,914.882Z" transform="translate(-1839.05 -683.477)"/><rect class="a" width="4.914" height="11.781" rx="1.584" transform="translate(96.809 218.877)"/><path class="m" d="M1936.615,852.407l.175-1.719,2.174,46.514c-.009.2-.026.158-.037.074a7.818,7.818,0,0,0-.5,2.8c3.272,2.392,6.078,3.726,10.448,3.5a37.318,37.318,0,0,1,.67-7.73c.077-.566,3.193-44.27,3.193-44.27v-.045C1946.269,851.7,1943.085,852.05,1936.615,852.407Z" transform="translate(-1840.028 -685.709)"/><path class="a" d="M1947.916,908.1c4.215,2.982,3.806,5.774,10.132,4.217a11.737,11.737,0,0,0,5.475-2.622c1.422-1.392,2.062-3.583,1.037-5.238-.9-1.457-2.791-2.143-4.581-2.544a28.215,28.215,0,0,0-9.077-.526,7.747,7.747,0,0,0-4.078,1.338C1944.575,904.542,1946.024,906.768,1947.916,908.1Z" transform="translate(-1839.712 -683.943)"/><path class="m" d="M1946.1,896.515a11.1,11.1,0,0,1,2.848,2.045c3.175,2.645,6.4,5.35,8.637,8.825-.66,1.955-2.8,3.375-5.148,4.078a35.017,35.017,0,0,1-4.009-1.419,21.843,21.843,0,0,1-8.854-7.341c-.269-.387-.525-.907-.26-1.3l3.53-3.417c3.538-3.424,8.77,1.463,12.336,3.324,1.349.7,2.879,1.682,2.931,3.2.049,1.421-1.262,2.5-2.548,3.113a12.21,12.21,0,0,1-4.019,1.115Z" transform="translate(-1839.938 -684.108)"/><path class="a" d="M1937.4,897.152a5.609,5.609,0,0,1,5.123.743c2.477,1.5,4.313,3.94,6.477,5.822,2.982,2.593,5.986,4.043,9.634,2.376,1.2.728,2.042,1.569,2,2.537-.053,1.412-2.582,3.221-3.7,3.988-3.5,2.412-9.139-1.459-11.989-2.908-2.246-1.143-4.626-.931-6.765-1.883C1935.305,906.545,1934.391,899.858,1937.4,897.152Z" transform="translate(-1840.066 -684.097)"/><path class="n" d="M2017.767,695.8v0Z" transform="translate(-1792.976 -665.596)"/><path class="o" d="M2016.615,759.836c0,2.109-1.48,2.964-3.307,1.909a7.308,7.308,0,0,1-3.307-5.729c0-2.109,1.48-2.964,3.308-1.91A7.31,7.31,0,0,1,2016.615,759.836Z" transform="translate(-1837.463 -689.101)"/><path class="m" d="M1910.245,813.766a34.429,34.429,0,0,1-.118-3.932c.816-1.712,1.546-3.256,1.538-3.386l25.671-17.819a4.653,4.653,0,0,1,3.364-1.23,4.746,4.746,0,0,1,.669.076,4.635,4.635,0,0,1,2.575,1.43,4.682,4.682,0,0,1-.277,6.609L1918.5,817.15l-.061.052A5.061,5.061,0,0,1,1910.245,813.766Z" transform="translate(-1840.953 -687.922)"/><path class="l" d="M1944.539,798.095c-3.083,2.866-7.423,3.208-9.693.766s-1.612-6.746,1.472-9.611,7.423-3.208,9.693-.766S1947.622,795.23,1944.539,798.095Z" transform="translate(-1840.136 -687.94)"/><path class="a" d="M1978.828,856.125l-15.636-8.96c-6.05-3.03-10.815.736-17.306,2.646l.824-.824-3.052-4.765-36.125-2.548c-12.649,7.17-15.1,37.926-15.1,37.926l.012.231h0c-1.5,12.483,17.953,21.865,32.96,24.151a24.637,24.637,0,0,0,15.355-2.7l2.511-1.349,36.224-19.457C1990.412,874.308,1990.027,861.758,1978.828,856.125Z" transform="translate(-1841.574 -686.025)"/><path class="k" d="M1904.868,838.082a46.629,46.629,0,0,1-.116,6.349,2.946,2.946,0,0,0,1.341,2.752,38.887,38.887,0,0,0,5.667,2.95c5.679,2.381,12.188,3.724,18.249,2.381.242-.057.474-.115.716-.173,3.482-.891,11.056-2.948,11.738-7.262a2.08,2.08,0,0,0,.057-.532c-.011-.4-.034-.822-.057-1.238V823.949c1.885-5.608,5.343-9.61,3.62-16.733a25.334,25.334,0,0,0-4.037-9.066c-3.192-4.395-7.794-7.112-13.668-8.824-1.862-.532-3.7-.972-5.366-1.318a33.08,33.08,0,0,0-10.778-.4c-3.781.487-7.4,1.77-9.656,4.291a8.713,8.713,0,0,0-.809,1.017c-4.487,6.73-2.1,16.145-.475,23.452C1902.9,823.544,1904.591,830.761,1904.868,838.082Z" transform="translate(-1841.336 -687.924)"/><path class="p" d="M1928.552,777.415c-.022,0-.045.025-.067.05a1.511,1.511,0,0,1-.023-.321A.394.394,0,0,0,1928.552,777.415Z" transform="translate(-1840.312 -688.28)"/><path class="l" d="M1912.585,794.778h5.509a9.465,9.465,0,0,0,9.334-7.9l.343-2.05,1.251-7.5H1915.5Z" transform="translate(-1840.868 -688.274)"/><path class="q" d="M1918.75,779.868l6.711,10.2h.428l1.667-9.95Z" transform="translate(-1840.652 -688.185)"/><path class="m" d="M1927.612,774.329a1.135,1.135,0,0,1-.862.07c-.03-.073-.014-.155-.057-.226Z" transform="translate(-1840.374 -688.384)"/><path class="m" d="M1931.61,782.921c.157.011.314.043.472.063l-1.239-1.186C1931.105,782.166,1931.357,782.543,1931.61,782.921Z" transform="translate(-1840.23 -688.117)"/><path class="p" d="M1928.181,771.69c-.023,0-.043.028-.063.055a1.586,1.586,0,0,1-.054-.317A.394.394,0,0,0,1928.181,771.69Z" transform="translate(-1840.325 -688.48)"/><path class="m" d="M1926.936,768.713a1.13,1.13,0,0,1-.851.157c-.037-.07-.03-.153-.079-.218Z" transform="translate(-1840.398 -688.577)"/><path class="q" d="M1923.321,770.276a6.465,6.465,0,0,0,1.673,3.581,6.933,6.933,0,0,0,1.845,1.729,2.974,2.974,0,0,0,2.439.334c2.492-.882,1.871-4.615.892-6.379a4.527,4.527,0,0,0-3.694-2.414A3.022,3.022,0,0,0,1923.321,770.276Z" transform="translate(-1840.492 -688.63)"/><path class="k" d="M1929.822,806.9c1.733-3.092,3.217-5.33,6.946-4.728a48.42,48.42,0,0,1,7.611,2.242c.24.736.467,1.49.662,2.288,1.724,7.124-1.735,11.125-3.619,16.733v19.359c.023.416.046.833.057,1.238a2.125,2.125,0,0,1-.057.532c-.683,4.313-8.257,6.371-11.738,7.262-.242.058-.475.116-.716.173V808.051A5.613,5.613,0,0,0,1929.822,806.9Z" transform="translate(-1840.295 -687.409)"/><path class="a" d="M1921.974,746.8l-.576.058Z" transform="translate(-1840.559 -689.34)"/><path class="l" d="M1944.288,840.909a34,34,0,0,1-.117-3.932c.817-1.712,1.546-3.256,1.538-3.386l25.671-17.819a4.652,4.652,0,0,1,3.364-1.23,4.705,4.705,0,0,1,.668.076,4.634,4.634,0,0,1,2.576,1.43,4.683,4.683,0,0,1-.276,6.609l-25.164,21.637-.062.051A5.061,5.061,0,0,1,1944.288,840.909Z" transform="translate(-1839.763 -686.973)"/><path class="l" d="M1978.582,825.237c-3.083,2.866-7.423,3.208-9.694.766s-1.61-6.746,1.473-9.61,7.424-3.208,9.694-.766S1981.664,822.373,1978.582,825.237Z" transform="translate(-1838.947 -686.992)"/><path class="l" d="M1971.481,818.326h0a2.014,2.014,0,0,1,.1-2.845l8.856-8.228a2.01,2.01,0,0,1,2.843.1h0a2.011,2.011,0,0,1-.1,2.844l-8.854,8.228A2.013,2.013,0,0,1,1971.481,818.326Z" transform="translate(-1838.828 -687.246)"/><path class="e" d="M1948.365,845.971l-.093.035a6.642,6.642,0,0,1-8.559-4.77l-8.3-33.205a6.937,6.937,0,0,1,13.46-3.365l3.273,13.091,3.226,12.894h0C1952.8,836.822,1955.74,843.224,1948.365,845.971Z" transform="translate(-1840.217 -687.502)"/><path class="r" d="M1873.809,957.216a8.419,8.419,0,0,1,3.809-6.6c2.1-1.215,3.809-.231,3.81,2.2a8.416,8.416,0,0,1-3.81,6.6C1875.515,960.63,1873.809,959.645,1873.809,957.216Z" transform="translate(-1842.223 -682.235)"/><path class="r" d="M1873.809,957.216a8.419,8.419,0,0,1,3.809-6.6c2.1-1.215,3.809-.231,3.81,2.2a8.416,8.416,0,0,1-3.81,6.6C1875.515,960.63,1873.809,959.645,1873.809,957.216Z" transform="translate(-1842.223 -682.235)"/><path class="r" d="M1880.384,950.414l3.283,1.711-5.153,9.391-3.844-2,.974-5.289Z" transform="translate(-1842.193 -682.224)"/><path class="e" d="M1876.937,958.839a8.418,8.418,0,0,1,3.809-6.6c2.1-1.214,3.808-.23,3.808,2.2a8.42,8.42,0,0,1-3.808,6.6C1878.642,962.252,1876.937,961.269,1876.937,958.839Z" transform="translate(-1842.113 -682.178)"/><path class="j" d="M1876.937,958.839a8.418,8.418,0,0,1,3.809-6.6c2.1-1.214,3.808-.23,3.808,2.2a8.42,8.42,0,0,1-3.808,6.6C1878.642,962.252,1876.937,961.269,1876.937,958.839Z" transform="translate(-1842.113 -682.178)"/><path class="r" d="M1918.062,932.482a8.423,8.423,0,0,1,3.809-6.6c2.1-1.214,3.809-.23,3.809,2.2a8.416,8.416,0,0,1-3.809,6.6C1919.768,935.9,1918.062,934.911,1918.062,932.482Z" transform="translate(-1840.676 -683.099)"/><path class="r" d="M1918.062,932.482a8.423,8.423,0,0,1,3.809-6.6c2.1-1.214,3.809-.23,3.809,2.2a8.416,8.416,0,0,1-3.809,6.6C1919.768,935.9,1918.062,934.911,1918.062,932.482Z" transform="translate(-1840.676 -683.099)"/><path class="r" d="M1924.637,925.68l3.282,1.71-5.153,9.391-3.844-2,.974-5.289Z" transform="translate(-1840.646 -683.088)"/><path class="e" d="M1921.19,934.105a8.416,8.416,0,0,1,3.809-6.6c2.1-1.215,3.81-.23,3.81,2.2a8.421,8.421,0,0,1-3.81,6.6C1922.895,937.518,1921.19,936.534,1921.19,934.105Z" transform="translate(-1840.566 -683.043)"/><path class="j" d="M1921.19,934.105a8.416,8.416,0,0,1,3.809-6.6c2.1-1.215,3.81-.23,3.81,2.2a8.421,8.421,0,0,1-3.81,6.6C1922.895,937.518,1921.19,936.534,1921.19,934.105Z" transform="translate(-1840.566 -683.043)"/><path class="r" d="M1915.986,958.308a8.415,8.415,0,0,1,3.809-6.6c2.1-1.215,3.809-.231,3.809,2.2a8.419,8.419,0,0,1-3.809,6.6C1917.691,961.723,1915.986,960.737,1915.986,958.308Z" transform="translate(-1840.748 -682.197)"/><path class="r" d="M1915.986,958.308a8.415,8.415,0,0,1,3.809-6.6c2.1-1.215,3.809-.231,3.809,2.2a8.419,8.419,0,0,1-3.809,6.6C1917.691,961.723,1915.986,960.737,1915.986,958.308Z" transform="translate(-1840.748 -682.197)"/><path class="r" d="M1922.561,951.506l3.282,1.711-5.152,9.391-3.844-2,.975-5.289Z" transform="translate(-1840.718 -682.185)"/><path class="e" d="M1919.113,959.932a8.419,8.419,0,0,1,3.809-6.6c2.1-1.214,3.809-.23,3.809,2.2a8.418,8.418,0,0,1-3.809,6.6C1920.819,963.345,1919.113,962.36,1919.113,959.932Z" transform="translate(-1840.639 -682.14)"/><path class="j" d="M1919.113,959.932a8.419,8.419,0,0,1,3.809-6.6c2.1-1.214,3.809-.23,3.809,2.2a8.418,8.418,0,0,1-3.809,6.6C1920.819,963.345,1919.113,962.36,1919.113,959.932Z" transform="translate(-1840.639 -682.14)"/><path class="r" d="M1873.025,933.4a8.421,8.421,0,0,1,3.809-6.6c2.1-1.214,3.809-.23,3.809,2.2a8.416,8.416,0,0,1-3.809,6.6C1874.731,936.813,1873.025,935.83,1873.025,933.4Z" transform="translate(-1842.25 -683.067)"/><path class="r" d="M1873.025,933.4a8.421,8.421,0,0,1,3.809-6.6c2.1-1.214,3.809-.23,3.809,2.2a8.416,8.416,0,0,1-3.809,6.6C1874.731,936.813,1873.025,935.83,1873.025,933.4Z" transform="translate(-1842.25 -683.067)"/><path class="r" d="M1879.6,926.6l3.282,1.711-5.153,9.391-3.843-2,.974-5.289Z" transform="translate(-1842.22 -683.056)"/><path class="e" d="M1876.153,935.023a8.417,8.417,0,0,1,3.809-6.6c2.1-1.214,3.808-.23,3.808,2.2a8.418,8.418,0,0,1-3.808,6.6C1877.858,938.437,1876.153,937.452,1876.153,935.023Z" transform="translate(-1842.141 -683.01)"/><path class="j" d="M1876.153,935.023a8.417,8.417,0,0,1,3.809-6.6c2.1-1.214,3.808-.23,3.808,2.2a8.418,8.418,0,0,1-3.808,6.6C1877.858,938.437,1876.153,937.452,1876.153,935.023Z" transform="translate(-1842.141 -683.01)"/><path class="h" d="M1928.089,948.786l-16.853-9.731,16.853-9.731c2.766-1.6,2.766-4.21,0-5.808h0a11.161,11.161,0,0,0-10.06,0l-16.853,9.731-16.853-9.731a11.161,11.161,0,0,0-10.06,0c-2.766,1.6-2.766,4.211,0,5.808l16.854,9.731-16.854,9.731c-2.766,1.6-2.766,4.212,0,5.808h0a11.162,11.162,0,0,0,10.06,0l16.853-9.731,16.853,9.731a11.162,11.162,0,0,0,10.06,0C1930.855,953,1930.855,950.383,1928.089,948.786Z" transform="translate(-1842.279 -683.206)"/><path class="h" d="M1928.089,948.786l-16.853-9.731,16.853-9.731c2.766-1.6,2.766-4.21,0-5.808h0a11.161,11.161,0,0,0-10.06,0l-16.853,9.731-16.853-9.731a11.161,11.161,0,0,0-10.06,0c-2.766,1.6-2.766,4.211,0,5.808l16.854,9.731-16.854,9.731c-2.766,1.6-2.766,4.212,0,5.808h0a11.162,11.162,0,0,0,10.06,0l16.853-9.731,16.853,9.731a11.162,11.162,0,0,0,10.06,0C1930.855,953,1930.855,950.383,1928.089,948.786Z" transform="translate(-1842.279 -683.206)"/><path class="e" d="M1892,938.495c0,3.148,3.8,5.7,8.488,5.7s8.488-2.552,8.488-5.7-3.8-8.366-8.488-8.366S1892,935.346,1892,938.495Z" transform="translate(-1841.587 -682.933)"/><path class="h" d="M1894.18,934.311c0,2.31,2.788,4.183,6.228,4.183s6.226-1.873,6.226-4.183-2.788-4.182-6.226-4.182S1894.18,932,1894.18,934.311Z" transform="translate(-1841.51 -682.933)"/><path class="e" d="M1900.326,890.8a3.835,3.835,0,0,0-3.809,3.862v37.165a3.809,3.809,0,1,0,7.617,0V894.661A3.835,3.835,0,0,0,1900.326,890.8Z" transform="translate(-1841.429 -684.307)"/><path class="s" d="M1977.547,893.788c0,.208,0,.428-.022.648a18.945,18.945,0,0,1-9.772,15.175L1926.2,932.393a11.007,11.007,0,0,1-1.965.846,11.344,11.344,0,0,1-9.279-1.01l-47.588-28.043a25.975,25.975,0,0,1-12.672-19.962l-4.984-53.341-.517-5.545a5.923,5.923,0,0,1,8.521-5.863l51.509,25.485a5.921,5.921,0,0,1,3,3.447l16.471,49.982a6.877,6.877,0,0,0,9.938,3.821l26.878-15.372A8.043,8.043,0,0,1,1977.547,893.788Z" transform="translate(-1843.084 -686.822)"/><path class="r" d="M1922.673,928.794a3.3,3.3,0,0,1-3.562,4.434,11.328,11.328,0,0,1-4.182-1.46l-47.588-28.043a25.97,25.97,0,0,1-12.671-19.962l-4.589-49.113a2.371,2.371,0,0,1,3.412-2.346l41.563,20.55a5.948,5.948,0,0,1,3,3.459l16.46,49.982C1915.078,908.035,1918.558,918,1922.673,928.794Z" transform="translate(-1843.053 -686.361)"/><g transform="translate(89.177 69.063)"><g transform="translate(0)"><path class="t" d="M1297.073,1593.833a6.278,6.278,0,1,1,5.949-6.27A6.123,6.123,0,0,1,1297.073,1593.833Zm0-11.566a5.307,5.307,0,1,0,4.977,5.3A5.15,5.15,0,0,0,1297.073,1582.268Z" transform="translate(-1291.122 -1581.294)"/></g></g><path class="l" d="M1937.917,767.451c.263,3.984-.021,7.97-2.051,11.119-2.23,3.508-6.235,5.216-10.147,5.717a11.843,11.843,0,0,1-6.46-.751c-3.837-1.8-6-6.291-7.365-10.605a37.313,37.313,0,0,1-1.2-5.009,18.988,18.988,0,0,1-.018-5.8,16.609,16.609,0,0,1,6.278-10.167,26.2,26.2,0,0,1,10.64-4.6,8.864,8.864,0,0,1,5.587.11,4.73,4.73,0,0,1,2.547,2.867,3.618,3.618,0,0,1,.19,1.413l1.448,10.764C1937.581,764.127,1937.8,765.771,1937.917,767.451Z" transform="translate(-1840.941 -689.335)"/><path class="u" d="M1907,762.826a25.046,25.046,0,0,0,2.431,8.63,22.365,22.365,0,0,0,7.648,9.208c2.7,1.693,8.01,3.009,10.292-.022,2.238-2.971.337-7.686,2.55-10.676a10.25,10.25,0,0,1,2.445-2.1,19.3,19.3,0,0,0,5.18-5.013c3.339-5.125,1.769-14.631-3.914-17.642a19.179,19.179,0,0,0-15.017-.739,17.168,17.168,0,0,0-4.331,2.436c-.073.064-.147.117-.24.193A18.688,18.688,0,0,0,1907,762.826Z" transform="translate(-1841.064 -689.463)"/><g transform="translate(87.159 74.088)"><g transform="translate(0 0)"><rect class="t" width="14.589" height="0.973" transform="translate(0 5.984) rotate(-24.214)"/></g></g><g transform="translate(54.717 56.76)"><g transform="translate(0)"><g transform="translate(0)"><g transform="translate(0)"><path class="u" d="M929.529,641.866c-3.626-6.752-14.574-7.741-19.354-1.751s-1.381,16.445,6.009,18.481a11.965,11.965,0,0,0,13.844-6.91,11.8,11.8,0,0,0-5.581-14.385Z" transform="translate(-907.962 -636.157)"/></g></g></g></g></g></g><g transform="translate(34 1271)"><path class="v" d="M2027.759,761.164c0,12.934-4.97,16.572-4.97,16.572s-1.088.687-2.707,1.7a.41.41,0,0,0-.086.071l-.344.2q-1.16.73-2.534,1.59l-.087-.044-.917.545-7.019,4.154a6.181,6.181,0,0,1-5.686.043l-15.641-9.038c-1.576-.9-1.576-2.378,0-3.295l7.032-4.068,4.1-2.363h.015c1.017-.587,1.991-1.146,2.836-1.647,5.743-3.308.286-18.649.014-19.408v-.015h.014Z" transform="translate(-1371.857 5201.568)"/><path class="h" d="M2027.969,761.164c0,12.934-4.97,16.572-4.97,16.572s-1.089.687-2.708,1.7a.385.385,0,0,0-.086.071l-.344.2q-1.16.73-2.534,1.59l-.087-.044-.917.545-21.313-12.2,4.1-2.363h.014c1.017-.587,1.991-1.146,2.837-1.647,5.743-3.308.286-18.649.013-19.408l.015-.015Z" transform="translate(-1372.067 5201.568)"/><path class="o" d="M2016.233,759.478c0,1.987-1.4,2.793-3.116,1.8a6.889,6.889,0,0,1-3.116-5.4c0-1.987,1.4-2.793,3.116-1.8A6.886,6.886,0,0,1,2016.233,759.478Z" transform="translate(-1372.441 5201.381)"/><path class="e" d="M2001.521,749.255s5.787,15.8,0,19.144l-2.8,1.615-.009,0-10.969,6.336c-1.544.892-1.543,2.351,0,3.242l15.409,8.9a6.088,6.088,0,0,0,5.587-.047l7.824-4.627.078.036c.9-.559,1.74-1.085,2.5-1.559l.344-.2c.032-.02.054-.044.083-.065,1.586-1,2.661-1.677,2.661-1.677s4.894-3.584,4.894-16.318Z" transform="translate(-1356.185 5185.738)"/><path class="v" d="M2027.126,760.933c0,12.736-4.894,16.318-4.894,16.318s-1.072.677-2.666,1.678a.414.414,0,0,0-.084.07l-.339.2q-1.142.719-2.5,1.566l-.085-.043-.9.537-6.911,4.09a6.085,6.085,0,0,1-5.6.042l-15.4-8.9c-1.552-.889-1.552-2.342,0-3.244l6.924-4.006,4.034-2.327h.014c1-.578,1.96-1.128,2.793-1.622,5.655-3.258.281-18.363.013-19.11v-.014h.014Z" transform="translate(-1356.185 5185.86)"/><path class="h" d="M2027.463,760.933c0,12.736-4.894,16.318-4.894,16.318s-1.073.677-2.667,1.678a.389.389,0,0,0-.084.07l-.339.2q-1.142.719-2.5,1.566l-.085-.043-.9.537L1995.01,769.24l4.033-2.327h.014c1-.578,1.96-1.128,2.793-1.622,5.655-3.258.281-18.363.013-19.11l.015-.014Z" transform="translate(-1356.521 5185.86)"/><path class="d" d="M2063.59,708.413,1981.983,661.3c-2.028-1.17-3.576-.685-5.348.744l-3.77,2.114,4.055,2.867v63.755a11.19,11.19,0,0,0,5.063,8.77l79.912,46.135v3.626a.653.653,0,0,0,1.023.537l3.833-2.642c1.158-.4,1.9-1.615,1.9-3.465V717.194A11.205,11.205,0,0,0,2063.59,708.413Z" transform="translate(-1355.637 5189.271)"/><path class="w" d="M2063.071,720.523v66.544c0,3.237-2.271,4.536-5.063,2.924L1976.4,742.876a11.186,11.186,0,0,1-5.063-8.77V667.563c0-3.237,2.27-4.547,5.063-2.935l81.606,47.113A11.21,11.21,0,0,1,2063.071,720.523Z" transform="translate(-1355.576 5189.141)"/><path class="n" d="M1977.728,736.762V672.688l79.458,45.874v64.074Z" transform="translate(-1355.832 5188.791)"/><path class="e" d="M2060.246,793.615a5.187,5.187,0,0,1-2.559-.774l-81.606-47.114a11.684,11.684,0,0,1-5.358-9.281V722.56l92.915,53.642v13.2a4.114,4.114,0,0,1-1.777,3.791A3.19,3.19,0,0,1,2060.246,793.615ZM1971.9,724.606v11.839a10.557,10.557,0,0,0,4.768,8.259l81.607,47.114a2.515,2.515,0,0,0,4.178-2.412V776.885Z" transform="translate(-1355.553 5186.802)"/><path class="o" d="M2016.137,759.389c0,1.957-1.374,2.75-3.068,1.771a6.783,6.783,0,0,1-3.068-5.314c0-1.957,1.374-2.75,3.069-1.771A6.781,6.781,0,0,1,2016.137,759.389Z" transform="translate(-1357.119 5185.561)"/><path class="m" d="M1443.883,1493.577l-3.782,20.435a8.164,8.164,0,0,1-3.323,6.565c-11.923,10.339-3.842-6.255-3.842-6.565l3.782-20.435a3.582,3.582,0,0,1,7.165,0Z" transform="translate(-789.701 4416.165)"/><path class="x" d="M1455.057,1508.656a2.958,2.958,0,0,0,1.386-.9,2.157,2.157,0,0,0,.542-1.448l3.31-13.919c0-2.76-1.791-4.995-4-4.995s-4,2.235-4,4.995l-2.777,11.672a1.951,1.951,0,0,0,.974,2.063Z" transform="translate(-805.782 4417.485)"/><path class="x" d="M1482.378,1508.467c-.023,6.155-.723,13.118-2.633,14.873-1.475,1.356-4.17,1.461-7.025.955q-.27-.043-.539-.1a29,29,0,0,1-8.646-3.258c-.449-.269-5.626-2.652-7.815-3.976a.283.283,0,0,0-.284-.028c1.239-2.969,2.681-6.755,2.524-9.9-.133-2.7-1.555-5.5-1.943-8.235-.7-4.983-.742-12.146,4.26-15.048a6.1,6.1,0,0,1,3.007-.638,9.272,9.272,0,0,1,1.669.114c7.706,1.4,11.786,3.887,14.107,7.7,1.56,2.549,2.335,5.7,2.883,9.512.034.232.067.487.095.757.018.137.033.274.047.416A66.9,66.9,0,0,1,1482.378,1508.467Z" transform="translate(-808.813 4419.669)"/><path class="x" d="M1476.424,1488.718l-4.168,4.673a1.121,1.121,0,0,1-1.747-.093l-2.424-3.367-3.483.621a.7.7,0,0,1-.816-.683v-1.08a5.069,5.069,0,0,1,4.006-4.957,11.63,11.63,0,0,1,2.432-.253,10.187,10.187,0,0,1,5.842,1.694A2.33,2.33,0,0,1,1476.424,1488.718Z" transform="translate(-813.063 4419.429)"/><path class="x" d="M1500.3,1516.564c-.024,6.155-.723,13.119-2.633,14.873-1.475,1.357-4.17,1.461-7.025.955a7.965,7.965,0,0,1,.373-.846c2.558-4.15,2.889-5.342,2.373-10.263a15.916,15.916,0,0,1,.114-5.834c.5-1.792,1.632-3.527,1.286-5.352a10.968,10.968,0,0,0-.936-2.33,8.925,8.925,0,0,1-.577-5.191,4.845,4.845,0,0,1,1.234-2.6,3.512,3.512,0,0,1,2.472-.96c1.56,2.549,2.335,5.7,2.884,9.512.033.232.066.487.095.756.019.132.033.274.047.416C1500.18,1511.491,1500.289,1513.926,1500.3,1516.564Z" transform="translate(-826.733 4411.572)"/><path class="a" d="M1476.286,1486.253a2.071,2.071,0,0,1-.662,1.47,4.6,4.6,0,0,1-5.867.052,1.98,1.98,0,0,1,0-3.045c.043-.038.09-.081.138-.118,0,0,.009-.009.014-.009a4.083,4.083,0,0,1,2-.841c.123-.019.246-.033.374-.043s.25-.014.378-.014a4.2,4.2,0,0,1,2.96,1.083A2.062,2.062,0,0,1,1476.286,1486.253Z" transform="translate(-815.739 4419.366)"/><path class="m" d="M1476.359,1473.15v9.2a4.206,4.206,0,0,1-2.959,1.083,4.286,4.286,0,0,1-2.841-.974.579.579,0,0,1-.066-.057v-9.252Z" transform="translate(-816.478 4424.739)"/><path class="y" d="M1473.156,1483.423a4.53,4.53,0,0,1-3-1.034c0,.006-.028-.022-.046-.039l-.073-.07-.026-.125v-9.488h6.339v9.534l-.069.069A4.477,4.477,0,0,1,1473.156,1483.423Zm-2.671-1.373a4.11,4.11,0,0,0,2.671.9,4.056,4.056,0,0,0,2.723-.947v-8.864h-5.394Z" transform="translate(-816.233 4424.984)"/><path class="m" d="M1476.057,1475.75l-.506.752-2.558,3.664-.359.51-2.075,3.106a.618.618,0,0,1-.066-.057v-4.794l0-.023a34.567,34.567,0,0,1,2.828-3l2.288-.127Z" transform="translate(-816.478 4423.415)"/><path class="m" d="M1471.415,1462.947c-.024.341-.424.623-.846.893-.141.094-.282.188-.412.294-.012,0-.024,0-.035.024a1.334,1.334,0,0,0-.27.235.69.69,0,0,0-.2.341,6.82,6.82,0,0,1-.411,1.281,6.94,6.94,0,0,1-2.657,3.127,7.108,7.108,0,0,1-.788.411,5.409,5.409,0,0,1-1.7.47,4.33,4.33,0,0,1-.682.024,5.7,5.7,0,0,1-5.3-4.7,10.894,10.894,0,0,1-.2-1.751c-.012-.683,0-1.352.024-2.011.047-1.047.082-2.093.117-3.127.012-.423.035-.835.047-1.258a1.363,1.363,0,0,1,.011-.576,1.921,1.921,0,0,1,1-1.258,4.3,4.3,0,0,1,2.469-.282,12.693,12.693,0,0,1,4.9,1.423,6.851,6.851,0,0,1,3.222,3.833C1469.934,1461.09,1471.45,1462.16,1471.415,1462.947Z" transform="translate(-810.068 4433.964)"/><path class="a" d="M1471.181,1453.1a6.552,6.552,0,0,0-1.538-3.906,6.891,6.891,0,0,0-3.251-2.02,7.22,7.22,0,0,0-2.579-.394,18.291,18.291,0,0,0-3.551,1.007c-1.221.342-2.513.412-3.7.848a3.485,3.485,0,0,0-2.457,2.64,3.187,3.187,0,0,0,2.076,3.016,9.341,9.341,0,0,0,3.858.489c.888-.013,2.739-.388,3.54.027,1.222.634.767,2.481,1.348,3.467a.946.946,0,0,0,.848.482c.8-.056,1.086-1.185,1.84-1.458a1.154,1.154,0,0,1,1.375.657,1.613,1.613,0,0,1-.254,1.58c-.36.472-1.066.524-1.389.9-.267.312-.167.846-.06,1.344a1.338,1.338,0,0,0,.8,1.01C1471.242,1463.873,1471.293,1454.588,1471.181,1453.1Z" transform="translate(-808.128 4438.169)"/><path class="m" d="M1483.064,1504.551v21.38a8.165,8.165,0,0,1-3.323,6.564c-14.459,8.7-19.654,3.626-4.236-5.781a.981.981,0,0,0,.394-.784v-21.38a3.583,3.583,0,1,1,7.165,0Z" transform="translate(-810.758 4410.578)"/><path class="x" d="M1496.6,1524.223a4.13,4.13,0,0,0,3.814-1.422,2.161,2.161,0,0,0,.542-1.449v-17.227c0-2.76-1.791-4.995-4-4.995s-4,2.235-4,4.995v17.851a1.261,1.261,0,0,0,.77,1.162A12.826,12.826,0,0,0,1496.6,1524.223Z" transform="translate(-827.911 4411.514)"/><path class="e" d="M2063.07,776.586v12.863c0,3.237-2.271,4.536-5.063,2.924L1976.4,745.257a11.185,11.185,0,0,1-5.063-8.77V723.625Z" transform="translate(-1355.576 5186.759)"/></g><g transform="translate(23 1317)"><path class="f" d="M2080.984,1008.589c-13.529,0-24.535,7.262-24.535,16.189s11.006,16.189,24.535,16.189,24.534-7.262,24.534-16.189S2094.512,1008.589,2080.984,1008.589Z" transform="translate(-1270.08 5045.503)"/><path class="i" d="M2099.474,998.561l-5.689,28.517h-37.691l-5.689-28.517Z" transform="translate(-1260.396 5036.151)"/><path class="i" d="M2094.427,1029.108c0,4.821-7.3,10.184-17.914,10.482-.306.007-.619.014-.932.014-11.108,0-18.845-5.533-18.845-10.5s7.738-10.5,18.845-10.5a30.1,30.1,0,0,1,7.844,1C2090.167,1021.42,2094.427,1025.424,2094.427,1029.108Z" transform="translate(-1261.037 5034.121)"/><path class="e" d="M2102.345,998.561l-5.689,28.516c0,4.822-7.3,10.184-17.914,10.483a18.46,18.46,0,0,0,3.314-4.409,26.4,26.4,0,0,0,2.3-6.074,50.256,50.256,0,0,0,1.3-9.5c.092-1.628.149-3.257.192-4.871q.2-7.073.412-14.144Z" transform="translate(-1263.267 5036.151)"/><ellipse class="j" cx="24.534" cy="16.189" rx="24.534" ry="16.189" transform="translate(790.01 6018.521)"/><ellipse class="a" cx="18.845" cy="10.5" rx="18.845" ry="10.5" transform="translate(795.699 6024.21)"/><circle class="e" cx="16.922" cy="16.922" r="16.922" transform="translate(795.131 5968.266) rotate(-80.783)"/><circle class="e" cx="11.998" cy="11.998" r="11.998" transform="translate(798.868 5972.658) rotate(-22.5)"/><ellipse class="e" cx="13.061" cy="13.061" rx="13.061" ry="13.061" transform="translate(797.48 6016.505) rotate(-67.5)"/><path class="e" d="M2081.875,999.979a4.7,4.7,0,1,1-4.7-4.7A4.7,4.7,0,0,1,2081.875,999.979Z" transform="translate(-1262.631 5036.484)"/><path class="e" d="M2089.526,920.662c-3.754,4.793-3.636,6.153-2.1,10.189h-22.436c1.531-4.036,1.65-5.4-2.1-10.189Z" transform="translate(-1261.66 5044.044)"/><path class="e" d="M2087.944,922.824c-12.378,11.539-10.892,24.328-1.986,33.881h-19.106c8.906-9.553,10.39-22.342-1.986-33.881Z" transform="translate(-1261.861 5043.824)"/><path class="e" d="M2087.5,923.322c-12.824,11.039-10.544,62.741-7.479,66.3H2072.9c3.067-3.561,5.346-55.262-7.479-66.3Z" transform="translate(-1261.917 5043.773)"/><path class="e" d="M2085.314,946.01c-4.178,4.327-4.27,8.007.44,12.555h-18.143c4.711-4.547,4.618-8.228.44-12.555Z" transform="translate(-1262.139 5041.477)"/><path class="e" d="M2084.738,946.76c-9.008,7.925-7.5,41.672-4.4,45.2h-7.055c3.1-3.528,4.611-37.275-4.4-45.2Z" transform="translate(-1262.268 5041.399)"/><path class="e" d="M2084.516,982.2c-8.471,6.152-6.086,10.65-3.873,13.7h-7.6c2.213-3.047,4.6-7.546-3.872-13.7Z" transform="translate(-1262.297 5037.811)"/></g><g transform="translate(396.325 7357.484)"><path class="z" d="M276,660H813.675s-11.269,20.927-37.026,17.708a149.484,149.484,0,0,1-20.927-1.61c-9.659-1.61-24.147,3.22-27.367,8.049,0,0-24.147,14.488-64.392,0,0,0-37.026-16.1-62.782-1.61,0,0-19.318,20.928-69.222-4.829,0,0-12.879-8.049-35.416,8.049,0,0-22.537,19.318-66-8.049,0,0-24.147-6.439-51.514,6.439C379.028,684.147,324.294,692.2,276,660Z" transform="translate(-276 -571.461)"/><path class="aa" d="M582.407,634.075s27.206,15.026,15.19,36.5C597.6,670.576,578.133,666.564,582.407,634.075Z" transform="translate(-89.525 -587.27)"/><path class="ab" d="M614.007,623s14.488,46.684-22.537,57.953C591.47,680.953,573.762,655.2,614.007,623Z" transform="translate(-85.991 -594.023)"/><path class="ab" d="M334.352,621.92s-41.564,22.958-23.207,55.765C311.145,677.685,340.883,671.557,334.352,621.92Z" transform="translate(-257.422 -594.682)"/><path class="aa" d="M292.061,605s-22.135,71.324,34.43,88.539C326.492,693.539,353.546,654.189,292.061,605Z" transform="translate(-268.808 -605)"/></g><g transform="translate(-171 5319)"><g class="ag" transform="matrix(1, 0, 0, 1, 567.33, 1697)"><path class="d" d="M16.091,0H128.726a16.091,16.091,0,0,1,16.091,16.091v104.59a16.091,16.091,0,0,1-16.091,16.091H16.091A16.091,16.091,0,0,1,0,120.681V16.091A16.091,16.091,0,0,1,16.091,0Z" transform="translate(70.04 9.85)"/></g><g transform="translate(666.286 1727.796)"><path class="ac" d="M16.274,12.651A9.954,9.954,0,0,0,6.322,22.6V47.5a9.952,9.952,0,1,0,19.9,0V22.6a9.959,9.959,0,0,0-9.952-9.952Z" transform="translate(18.628 37.297)"/><path class="ac" d="M.019,22.609a9.96,9.96,0,1,0,19.921,0v-9.96H9.979a9.962,9.962,0,0,0-9.96,9.96Z" transform="translate(0.048 37.291)"/><path class="ad" d="M16.292,0H16.28a9.96,9.96,0,0,0,0,19.921h9.952V9.94A9.944,9.944,0,0,0,16.292,0Z" transform="translate(18.622 0.001)"/><path class="ad" d="M9.962,26.245H34.9a9.96,9.96,0,1,0,0-19.921H9.962a9.96,9.96,0,1,0,0,19.921Z" transform="translate(-0.002 18.646)"/><path class="ae" d="M28.88,6.323a9.939,9.939,0,0,0-9.941,9.941v9.98h9.952a9.96,9.96,0,1,0,0-19.921Z" transform="translate(55.821 18.643)"/><path class="ae" d="M12.641,9.953v24.97a9.952,9.952,0,0,0,19.9,0V9.953a9.952,9.952,0,0,0-19.9,0Z" transform="translate(37.256 0.007)"/><g transform="translate(49.885 49.94)"><path class="af" d="M32.545,28.907a9.954,9.954,0,0,0-9.952-9.952H12.64v9.96a9.952,9.952,0,0,0,19.9-.008Z" transform="translate(-12.632 5.94)"/><path class="af" d="M47.541,12.649H22.6a9.96,9.96,0,0,0,0,19.921H47.541a9.96,9.96,0,1,0,0-19.921Z" transform="translate(-12.638 -12.649)"/></g></g></g></g></svg>