<svg xmlns="http://www.w3.org/2000/svg" width="548.149" height="278.955" viewBox="0 0 548.149 278.955"><defs><style>.a{fill:#493278;}.b{fill:#3e2768;}.c{fill:#ee3f5c;}.d{fill:#5678bb;}.e{fill:#f69876;}.f{fill:#fff;}.g{fill:#f0999f;}.h{fill:#e2e5f3;}.i{fill:#f5f5fa;}.j{fill:#3d2768;}.k{fill:#5dc5c7;}.l{fill:#2d1d50;}.m{fill:#bdc0df;}.n{fill:rgba(15,0,0,0.1);}.o{fill:#c4e4f9;}.p{fill:#0f62fe;}.q,.u{fill:#ffc7cb;}.r,.s{fill:#a0d2ff;}.s,.u{stroke:rgba(0,0,0,0);}.t{fill:#e2e8f2;}.v{fill:#dfe3f1;}.w{fill:#dd6372;}</style></defs><g transform="translate(-7637 1443.555)"><g transform="translate(8045.646 -1414.692)"><path class="a" d="M5695.11-232.863v.006l-56.146-32.419Z" transform="translate(-5555.607 304.773)"/><ellipse class="b" cx="30.905" cy="19.275" rx="30.905" ry="19.275" transform="translate(59.115 66.218)"/><ellipse class="b" cx="30.905" cy="19.275" rx="30.905" ry="19.275" transform="translate(10.329 71.293)"/><path class="c" d="M5599.218-291.086a33.671,33.671,0,0,0-25.074-30.111,33.48,33.48,0,0,0-8.5-1.086,33.669,33.669,0,0,0-33.671,33.671,33.455,33.455,0,0,0,.594,6.313,33.352,33.352,0,0,0,1.494,5.381,33.7,33.7,0,0,0,28.13,21.8h.005c1.133.112,2.284.172,3.447.172a33.6,33.6,0,0,0,13.545-2.836,33.816,33.816,0,0,0,10.307-7.067,33.692,33.692,0,0,0,6.064-8.3,33.455,33.455,0,0,0,3.755-15.462C5599.313-289.442,5599.283-290.268,5599.218-291.086Zm-15.195,13.279a33.622,33.622,0,0,0-27.608-14.394,33.459,33.459,0,0,0-8.283,1.032,33.409,33.409,0,0,1,7.339-2.866,33.491,33.491,0,0,1,8.5-1.086,33.615,33.615,0,0,1,24.968,11.072A33.878,33.878,0,0,0,5584.023-277.807Z" transform="translate(-5522.744 322.283)"/><path class="d" d="M5586-245.195a33.486,33.486,0,0,1-4.932,17.544,33.79,33.79,0,0,1-12.916,12.181,33.522,33.522,0,0,1-12.372,3.768h0c-1.134.112-2.285.172-3.447.172a33.668,33.668,0,0,1-33.671-33.665,33.552,33.552,0,0,1,9.819-23.769,33.589,33.589,0,0,1,15.349-8.817l.219-.053a33.471,33.471,0,0,1,8.284-1.032,33.624,33.624,0,0,1,27.608,14.394,33.5,33.5,0,0,1,5.47,12.958A33.574,33.574,0,0,1,5586-245.195Z" transform="translate(-5518.654 308.948)"/><path class="e" d="M5667.324-247.679a33.668,33.668,0,0,1-33.671,33.666c-1.163,0-2.313-.06-3.447-.173h-.005a33.581,33.581,0,0,1-21.514-10.906,33.034,33.034,0,0,1-2.64-3.322,33.161,33.161,0,0,1-5.144-11.445,33.158,33.158,0,0,1-.825-5.352c-.065-.819-.1-1.638-.1-2.469a33.545,33.545,0,0,1,4.931-17.556,33.861,33.861,0,0,1,4.919-6.242,33.7,33.7,0,0,1,10.276-7.037,33.6,33.6,0,0,1,13.545-2.837,33.529,33.529,0,0,1,8.5,1.086,33.741,33.741,0,0,1,20.807,16v.006A33.492,33.492,0,0,1,5667.324-247.679Z" transform="translate(-5543.633 309.711)"/><path class="b" d="M5596.105-272.008a33.9,33.9,0,0,0-4.919,6.242,33.277,33.277,0,0,0-5.09-5.749,33.5,33.5,0,0,0-22.516-8.645,33.472,33.472,0,0,0-8.285,1.032,33.435,33.435,0,0,1,7.339-2.866,33.5,33.5,0,0,1,8.5-1.086,33.516,33.516,0,0,1,18.623,5.613A33.955,33.955,0,0,1,5596.105-272.008Z" transform="translate(-5529.908 310.242)"/><path class="b" d="M5598.548-240.615a33.16,33.16,0,0,0,.825,5.352,33.344,33.344,0,0,1-4.271-14.115c-.066-.818-.1-1.637-.1-2.468a33.6,33.6,0,0,1,3.288-14.542,33.284,33.284,0,0,1,5.091,5.749,33.541,33.541,0,0,0-4.931,17.556C5598.454-242.253,5598.482-241.434,5598.548-240.615Z" transform="translate(-5542.105 305.115)"/><ellipse class="f" cx="7.029" cy="7.029" rx="7.029" ry="7.029" transform="translate(6.991 77.109) rotate(-80.812)"/><ellipse class="f" cx="7.029" cy="7.029" rx="7.029" ry="7.029" transform="translate(103.501 72.554) rotate(-76.659)"/><ellipse class="f" cx="4.885" cy="4.885" rx="4.885" ry="4.885" transform="translate(18.56 12.234)"/></g><path class="d" d="M5527.229-329.862c0,.025-.012.064-.012.089l-.026-.013Z" transform="translate(2519.367 -978.174)"/><path class="g" d="M5527.229-329.862c0,.025-.012.064-.012.089l-.026-.013Z" transform="translate(2519.367 -978.174)"/><path class="g" d="M5532.629-322.592c.191.355.394.761.609,1.231C5533.023-321.818,5532.82-322.237,5532.629-322.592Z" transform="translate(2521.98 -974.678)"/><path class="g" d="M5534.771-317.025c.836,3.068,1.23,6.15.457,8.014C5536-310.888,5535.6-313.957,5534.771-317.025Z" transform="translate(2523.01 -972.001)"/><g transform="translate(7743.34 -1404.963)"><ellipse class="h" cx="18.684" cy="11.871" rx="18.684" ry="11.871" transform="translate(9.702 126.069)"/><path class="h" d="M3794.734,802.441l.041.712A5.8,5.8,0,0,1,3794.734,802.441Z" transform="translate(-3792.31 -711.508)"/><path class="h" d="M3842.687,802.441a6.165,6.165,0,0,1-.066.918Z" transform="translate(-3806.42 -711.508)"/><path class="h" d="M3828.575,798.066l-.066.918c-.749,5.354-8.011,9.554-16.857,9.554-8.958,0-16.29-4.307-16.877-9.761l-.041-.712c0-5.784,7.576-10.472,16.918-10.472S3828.575,792.281,3828.575,798.066Z" transform="translate(-3792.31 -707.133)"/><path class="i" d="M3828.526,803.654l-2.783,39.138c0,4.121-6.441,7.457-14.384,7.457-6.745,0-12.4-2.406-13.955-5.648a4.09,4.09,0,0,1-.429-1.81l-2.18-39.342c.589,5.451,7.915,9.762,16.877,9.762C3820.517,813.212,3827.777,809.011,3828.526,803.654Z" transform="translate(-3792.327 -711.806)"/><path class="j" d="M3827.423,797.884l-.062.815c-.443,3.17-3.459,5.88-7.754,7.328a21.562,21.562,0,0,1-4.758,1.005c-.43.046-.869.075-1.317.1-.355.016-.719.025-1.083.025-.6,0-1.183-.02-1.759-.066a21.192,21.192,0,0,1-2.292-.281,19.607,19.607,0,0,1-3.239-.827c-4.3-1.485-7.295-4.25-7.643-7.46l-.037-.633c0-2.243,1.291-4.3,3.435-5.9a15.982,15.982,0,0,1,4.8-2.371c.484-.153.981-.286,1.494-.406a23.347,23.347,0,0,1,5.238-.583c.422,0,.844.012,1.258.037.579.025,1.146.074,1.7.145a19.125,19.125,0,0,1,7.593,2.512C3825.731,792.99,3827.423,795.315,3827.423,797.884Z" transform="translate(-3793.118 -707.435)"/><path class="k" d="M3816.9,727.446c-.025-2.2-1.937-6.48-.827-11.478,2.826-12.736-4.8-41.686-5.921-42.435-.716-.476-3.468,8.941-5.818,20.7a3.221,3.221,0,0,1,1.018.273,3.373,3.373,0,0,1,0,6.161,3.307,3.307,0,0,1-1.377.294,3.247,3.247,0,0,1-.534-.042,2.4,2.4,0,0,1-.344-.075c-.864,5.019-1.592,10.2-2.018,15.028a66.037,66.037,0,0,0,.012,14.812,251.817,251.817,0,0,0,5.569,25c.7,2.611,1.386,5.073,2.011,7.27,1.692,5.946,2.962,10,2.962,10v.207c.5.042,1.011.062,1.523.062.078,0,.157,0,.235,0,.364,0,.729-.008,1.084-.025.448-.02.886-.049,1.316-.1.065-1.986.314-9.628.559-18.23C3816.649,744.261,3816.951,732.175,3816.9,727.446Zm-6.748-15.371a2.178,2.178,0,0,1,1.17.339,2.137,2.137,0,0,1,.488.413v0a2.192,2.192,0,0,1-.365,3.228v0s-.008,0-.011.008a2.183,2.183,0,0,1-1.283.413,2.205,2.205,0,1,1,0-4.41Zm-1.506,27v0a2.2,2.2,0,1,1,.364-3.235v0a2.194,2.194,0,0,1-.364,3.227Zm5.085,9.6a3.275,3.275,0,0,1-1.307.294h-.071a3.278,3.278,0,0,1-.534-.042,3.376,3.376,0,0,1,.2-6.691,1.751,1.751,0,0,1,.2-.012c.046,0,.087,0,.132,0a3.326,3.326,0,0,1,1.378.293,3.37,3.37,0,0,1,0,6.161Z" transform="translate(-3794.058 -673.516)"/><path class="k" d="M3836.137,724a3.3,3.3,0,0,1,1.328.273,64.2,64.2,0,0,0,1.055-8.937c-.046-9.371-3.9-25.256-5.13-26.46-.062-.062-.116-.087-.163-.075l0,0c-.969.319-9.4,19.67-11.387,31.669-.125.758-.223,1.485-.294,2.177-.008.074-.016.149-.02.223-.013.121-.025.241-.037.368-.092,1.03-.179,2.3-.257,3.77-.013.277-.03.559-.042.848q-.031.491-.051,1.006c-.016.315-.028.633-.044.96-.028.7-.058,1.432-.086,2.189q-.02.515-.038,1.043c0,.157-.013.318-.017.484a2.876,2.876,0,0,1,.335-.017,3.316,3.316,0,0,1,1.378.294,3.373,3.373,0,0,1,0,6.161,3.315,3.315,0,0,1-1.378.293,3.227,3.227,0,0,1-.534-.041c-.046,1.883-.087,3.836-.124,5.822-.009.4-.017.794-.024,1.2-.062,3.174-.116,6.418-.158,9.608,0,.4-.013.8-.016,1.2s-.012.794-.017,1.192c-.091,7.062-.144,13.691-.175,18.47.448-.02.887-.049,1.317-.1.376-.037.745-.082,1.109-.14.228-.033.451-.071.674-.112a19.712,19.712,0,0,0,2.976-.753c.53-2.243,1.829-7.792,3.393-14.713,2.143-9.463,4.774-21.491,6.6-31.156-.057,0-.111,0-.168,0a3.374,3.374,0,1,1,0-6.748Zm-7.928,26.849a2.2,2.2,0,0,1,0-4.407,2.2,2.2,0,1,1,0,4.407Zm2.466-39.225v0a2.2,2.2,0,1,1,.365-3.236v0a2.195,2.195,0,0,1-.365,3.227Z" transform="translate(-3799.825 -678.018)"/><path class="k" d="M3805.906,778.539q-.081-1.161-.161-2.392a1.981,1.981,0,0,1-.567.079,2.17,2.17,0,0,1-1.8-.944,2.133,2.133,0,0,1-.4-1.258,2.214,2.214,0,0,1,2.2-2.206,1.566,1.566,0,0,1,.278.021c-.021-.322-.046-.65-.066-.976-.724-10.762-1.532-22.769-1.792-26.626-.273-4.051-2.755-9.09-5.283-12.781-2.164-3.153-4.361-5.321-5.259-5.048-.806.244-1.353,3.91-1.6,8.411a3.223,3.223,0,0,1,.628-.124,3.109,3.109,0,0,1,.335-.016,3.444,3.444,0,0,1,.36.02,1.356,1.356,0,0,1,.174.025,3.212,3.212,0,0,1,.844.248,3.3,3.3,0,0,1,1.158.857,3.373,3.373,0,0,1-1.158,5.3,3.1,3.1,0,0,1-.592.2,3.5,3.5,0,0,1-.786.091,3.261,3.261,0,0,1-.534-.042,2.5,2.5,0,0,1-.343-.074,2.529,2.529,0,0,1-.244-.079c.016,4.531.319,8.759.931,10.444.5,1.369,1.866,5.71,3.488,10.956a3.17,3.17,0,0,1,1.328-.43,1.581,1.581,0,0,1,.2-.013c.045,0,.087,0,.132,0a3.5,3.5,0,0,1,.935.128,3.194,3.194,0,0,1,.443.166,3.374,3.374,0,0,1,1.142,5.333,3.492,3.492,0,0,1-1.142.828,3.2,3.2,0,0,1-1.109.281c.484,1.576.972,3.165,1.444,4.716,1.9,6.248,3.612,11.9,4.245,14a17.974,17.974,0,0,0,1.8.53c.132.033.264.066.4.091.338.079.691.149,1.042.207C3806.443,786.479,3806.2,782.879,3805.906,778.539Zm-6.09-32.042a2.175,2.175,0,0,1,1.171.339,2.115,2.115,0,0,1,.488.414v0a2.194,2.194,0,0,1-.364,3.227v0s-.008,0-.013.009a2.176,2.176,0,0,1-1.283.414,2.206,2.206,0,0,1,0-4.411Z" transform="translate(-3791.296 -689.096)"/><path class="j" d="M3792.147,734.707a3.2,3.2,0,0,0-.628.124c.248-4.5.794-8.168,1.6-8.412,0,0-.173,3.575-.1,8.316a1.319,1.319,0,0,0-.174-.025,3.4,3.4,0,0,0-.36-.021A3.056,3.056,0,0,0,3792.147,734.707Z" transform="translate(-3791.362 -689.105)"/><path class="j" d="M3798.313,768.519a3.5,3.5,0,0,0-.935-.128c-.045,0-.086,0-.132,0a1.559,1.559,0,0,0-.2.013,3.169,3.169,0,0,0-1.328.43c-1.622-5.247-2.991-9.587-3.488-10.956-.613-1.684-.915-5.913-.931-10.444a3,3,0,0,0,.587.153,3.248,3.248,0,0,0,.534.042,3.489,3.489,0,0,0,.786-.091c.327,5.006,1.03,10.125,2.453,13.311A71.842,71.842,0,0,1,3798.313,768.519Z" transform="translate(-3791.296 -695.299)"/><path class="j" d="M3807.786,805.476a17.955,17.955,0,0,1-1.8-.53c-.634-2.1-2.342-7.749-4.246-14-.472-1.552-.959-3.14-1.444-4.716a3.2,3.2,0,0,0,1.109-.281,3.489,3.489,0,0,0,1.141-.828C3804.521,792.212,3806.516,800.238,3807.786,805.476Z" transform="translate(-3793.95 -706.405)"/><path class="l" d="M3820.308,754.889c-.244,8.6-.492,16.244-.559,18.23-.43.046-.868.075-1.316.1-.354.016-.719.025-1.084.025-.079,0-.157,0-.235,0l-.731-24.259a3.273,3.273,0,0,0,1.306-.294,3.37,3.37,0,0,0,0-6.161,3.328,3.328,0,0,0-1.377-.293c-.045,0-.087,0-.133,0l-.786-26.154s.008,0,.012-.008v0a2.192,2.192,0,0,0,.364-3.228v0a2.1,2.1,0,0,0-.488-.413l-1.171-38.881c1.125.749,8.748,29.7,5.921,42.435-1.109,5,.8,9.28.827,11.477C3820.912,732.182,3820.61,744.268,3820.308,754.889Z" transform="translate(-3798.019 -673.523)"/><path class="j" d="M3822.665,761.359c0,12.26,0,30.118,0,37.5-.364.058-.732.1-1.109.14-.43.046-.869.075-1.317.1.031-4.779.084-11.408.175-18.47,0-.4.012-.791.017-1.192s.013-.8.016-1.2c.042-3.19.1-6.434.158-9.608.007-.4.016-.8.024-1.2.037-1.986.078-3.939.124-5.822a3.221,3.221,0,0,0,.534.041A3.315,3.315,0,0,0,3822.665,761.359Z" transform="translate(-3799.825 -699.402)"/><path class="j" d="M3833.521,688.8l0,.016c-.319.919-10.551,30.44-10.556,43.13v1.866a3.313,3.313,0,0,0-1.377-.294,2.906,2.906,0,0,0-.336.017c0-.166.013-.327.017-.484q.018-.528.037-1.043c.029-.757.058-1.49.086-2.189.016-.327.029-.646.045-.96q.02-.515.05-1.006c.012-.289.03-.57.042-.848.078-1.469.166-2.74.256-3.77.013-.128.024-.248.038-.368,0-.074.013-.149.02-.223.07-.691.17-1.419.294-2.177C3824.117,708.475,3832.553,689.123,3833.521,688.8Z" transform="translate(-3800.123 -678.021)"/><path class="i" d="M3834.056,727.375a3.373,3.373,0,0,0,3.376,3.372c.058,0,.112,0,.169,0-1.825,9.666-4.456,21.693-6.6,31.156-1.564,6.922-2.864,12.471-3.394,14.714a19.7,19.7,0,0,1-2.975.753L3827.7,749.9a2.2,2.2,0,0,0,4.009-1.258,2.207,2.207,0,0,0-2.206-2.205,2.174,2.174,0,0,0-1.48.579l3.946-35.393v0a2.194,2.194,0,0,0,.365-3.228v0l2.18-19.571,0-.016.167.07c1.232,1.2,5.084,17.088,5.129,26.46a64.1,64.1,0,0,1-1.055,8.937,3.306,3.306,0,0,0-1.328-.273A3.374,3.374,0,0,0,3834.056,727.375Z" transform="translate(-3801.121 -678.021)"/><path class="i" d="M3806.641,778.539q-.08-1.161-.161-2.392a1.984,1.984,0,0,1-.567.079,2.171,2.171,0,0,1-1.8-.944,2.135,2.135,0,0,1-.4-1.258,2.213,2.213,0,0,1,2.2-2.206,1.564,1.564,0,0,1,.278.021c-.021-.322-.045-.65-.066-.976-.725-10.762-1.531-22.769-1.792-26.626-.272-4.051-2.755-9.09-5.284-12.781-2.164-3.153-4.361-5.321-5.259-5.048l1.9,9.422a3.336,3.336,0,0,1,.84,2.226,3.272,3.272,0,0,1-.175,1.059l9.915,49.143c.339.079.691.149,1.042.207C3807.178,786.479,3806.934,782.879,3806.641,778.539Zm-4.8-28.057v0s-.008,0-.013.009a2.17,2.17,0,0,1-1.282.414,2.206,2.206,0,1,1,0-4.411,2.18,2.18,0,0,1,1.171.339,2.136,2.136,0,0,1,.488.414v0a2.194,2.194,0,0,1-.365,3.227Z" transform="translate(-3792.031 -689.096)"/><path class="m" d="M3829.613,803.739l-2.783,39.139c0,4.121-6.44,7.457-14.384,7.457-6.744,0-12.4-2.406-13.955-5.647l-.007-.022c18.9-17.291,14.275-31.369,14.275-31.369C3821.6,813.3,3828.865,809.1,3829.613,803.739Z" transform="translate(-3793.415 -711.891)"/></g><g transform="translate(7637 -1285.516)"><path class="n" d="M276,660H813.675s-11.269,20.927-37.026,17.708a149.484,149.484,0,0,1-20.927-1.61c-9.659-1.61-24.147,3.22-27.367,8.049,0,0-24.147,14.488-64.392,0,0,0-37.026-16.1-62.782-1.61,0,0-19.318,20.928-69.222-4.829,0,0-12.879-8.049-35.416,8.049,0,0-22.537,19.318-66-8.049,0,0-24.147-6.439-51.514,6.439C379.028,684.147,324.294,692.2,276,660Z" transform="translate(-276 -571.461)"/><path class="o" d="M582.407,634.075s27.206,15.026,15.19,36.5C597.6,670.576,578.133,666.564,582.407,634.075Z" transform="translate(-89.525 -587.27)"/><path class="p" d="M614.007,623s14.488,46.684-22.537,57.953C591.47,680.953,573.762,655.2,614.007,623Z" transform="translate(-85.991 -594.023)"/><path class="p" d="M334.352,621.92s-41.564,22.958-23.207,55.765C311.145,677.685,340.883,671.557,334.352,621.92Z" transform="translate(-257.422 -594.682)"/><path class="o" d="M292.061,605s-22.135,71.324,34.43,88.539C326.492,693.539,353.546,654.189,292.061,605Z" transform="translate(-268.808 -605)"/></g><g transform="translate(7795.637 -1443.555)"><path class="d" d="M5527.229-329.862c0,.025-.012.064-.012.089l-.026-.013Z" transform="translate(-5297.27 456.381)"/><path class="g" d="M5527.229-329.862c0,.025-.012.064-.012.089l-.026-.013Z" transform="translate(-5297.27 456.381)"/><path class="b" d="M5373.965-313.757s104.519,65.99,108.571,70.746,4.925,6.656,4.925,6.656,11.331-6.339,13.074-9.035Z" transform="translate(-5370.947 464.125)"/><path class="f" d="M5574.429-271.374c3.933,2.537-.7,8.242-4.526,12l-69.542,40.148s-9.626-9.942-35.458-18.6c-8.865-2.979-22.6-10.563-36.8-19.224-27.2-16.612-56.178-37.219-56.178-37.219s1.193-3.69,8.484-8.5c2.892-1.915,19.668-11.084,38.881-21.457a.282.282,0,0,0,.089-.05c29.255-15.814,64.115-34.416,64.115-34.416,13.468,12.883,36.686,24.081,56.214,32.868l8.346,3.715c1.571.7,3.094,1.37,4.564,2.03-3.4,4.083-6.7,8.09-8.875,11.273,0,.012-.014.012-.027.025a20.038,20.038,0,0,0-2.244,3.982,2.536,2.536,0,0,0-.166,2.041c.381.723.837,1.687,1.295,2.79,1.318-1.47,2.739-3.119,2.739-3.119.557-1.117,7.316-12.782,13.238-8.116s43.33,24.753,39.1,28.457S5568.3-275.317,5574.429-271.374Z" transform="translate(-5371.925 442.518)"/><path class="b" d="M5429.008-331.386s-5.463,4.731-10.322,4.967-21.77.244-11.415,5.917,24.028,7.186,21.737,11.624-14.284,4.6-10.747,6.291,24.517.261,24.307,3.643-15.4,2.3-8.244,4.971,29.589,3.558,29.589,3.558,26.63-15.5,25.574-15.926-39.99-19.868-39.99-19.868Z" transform="translate(-5356.517 455.648)"/><path class="b" d="M5447.315-278.742s2.916-3.089,7.114-7.672,25.966,3.35,41.608-1.145,27.071-15.92,21.133-20.557l-5.937-4.636s-15.178,6.245-15.982,6.054-29.616-.36-29.616-.36-9.263.846-9.933,2.22-8.172,7.075-8.172,7.075l-4.868,10.2Z" transform="translate(-5337.915 464.608)"/><path class="q" d="M5445.861-305.426s-1.761,1.78-7.308,2.566-12.043.946-13.075,4.989,8.4,13.236,12.045,13.791,10.54-7.688,10.54-7.688,21.467-14.028,14.577-20.607C5462.64-312.375,5455.473-315.755,5445.861-305.426Z" transform="translate(-5346.215 464.535)"/><path class="q" d="M5458.249-309.7l-.392,11.807c-4.91,2.218-5.023,15.217-6.721,18.488s-7.395,3.487-13.975,0c-2.7-1.432-2.879-4.413-1.9-7.672a34.341,34.341,0,0,1,7.317-12.085c3.6-3.588,2.967-5.706,6.506-10.145,2.257-2.827,5.351-2.206,7.317-1.395l.011.013A9.865,9.865,0,0,1,5458.249-309.7Z" transform="translate(-5341.735 465.267)"/><path class="r" d="M5522.349-290.5a13.882,13.882,0,0,1-7.456,1.509,35.006,35.006,0,0,1-4.11-.634c-5.071-1.028-5.579-.419-3.8-5.466a19.3,19.3,0,0,0,.837-4.9c.075-.875.113-1.787.15-2.713-2.142,1.687-3.64,2.854-3.64,2.854s2.018,4.21-5.108,7.494c-5.758,2.649-26.29,2.84-33.948,4.071.317-3.4,2-4.2,2-4.2a2.247,2.247,0,0,0-.088-3.412,10.8,10.8,0,0,0-1.7-.418.1.1,0,0,0-.052-.013c-8.267-1.306-15.028,7.38-15.028,7.38-15.938-8.978-44.306-44.7-31.028-55.581a.9.9,0,0,1,.1-.089,11.487,11.487,0,0,1,4.629-2.206c-.078.191-1.89,5.01,0,7.394,1.926,2.421,4.666,2.32,3.2,6.861-1.485,4.552,3.27,10.043,4.856,7.406-3.272.634-2.853-4.337-2.639-8.878s-1.268-4.869-3.488-7.189c-.581-.609-.784-2.79-.722-5.833a13.077,13.077,0,0,1,1.877-.141,23.688,23.688,0,0,1,7.253,1.091c6.113,1.813,12.465,5.541,17.551,9.042.013.012.013.012.025.012,5.872,5.135,7.191,16.119,7.191,16.119a67.079,67.079,0,0,1,1.166-9.791c1.154.964,1.8,1.547,1.8,1.547s.205.077.572.228c4.007,1.536,28.252,10.754,43.914,14.508q1.408.342,2.739.684.951.249,1.865.495c2.638.724,5.06,1.459,7.227,2.258.623.215,1.23.443,1.815.672a2.526,2.526,0,0,0-.166,2.041C5522.349-304.128,5526.635-292.4,5522.349-290.5Z" transform="translate(-5350.761 448.045)"/><path class="q" d="M5470.236-370.566c.2.317-.533,8.559-.533,8.559l-7.508-.418s-17.435,2.854-22.078,4.971-7.822,27.263-8.673,29.369a.718.718,0,0,0-.038.406c.216,2.409,8.192,8.039,8.711,12.275.546,4.515-7.722,8.041-10.994,8.675s-2.853-4.337-2.638-8.878-1.268-4.869-3.488-7.189c-.581-.609-.784-2.79-.723-5.833.014-.469.026-.952.053-1.459.406-8.75,2.611-22.814,4.653-29,2.942-8.876,45.5-26.427,45.5-26.427S5470.02-370.883,5470.236-370.566Z" transform="translate(-5347.723 429.622)"/><path class="s" d="M30.453,0c-.384,0,.643.557.254.6C25.715,1.144,17.85,8.59,1.408,30.14A6.868,6.868,0,0,0,2.7,39.767c3.017,2.3,10.989,1.905,13.29-1.109C27.213,23.95,33.445,25.908,35.322,24.8c2.562.812.832-6.154,2.678-8.338a6.867,6.867,0,0,0-.81-9.678" transform="matrix(0.921, 0.391, -0.391, 0.921, 96.78, 32.46)"/><path class="t" d="M5498.079-300.49v.013c-.268,1.99-.558,3.943-.862,5.794-.571,3.526-1.167,6.683-1.635,9.017-.521,2.537-.875,4.1-.875,4.1-.318.064-.634.114-.937.164a17.112,17.112,0,0,1-3.489.141c-8.293-.508-14.431-7.229-18.819-13.721-5.135-7.583-26.3-7.367-26.3-7.367a67.222,67.222,0,0,1,1.166-9.791c.165-.887.344-1.787.52-2.7,1.775-8.8,4.413-18.057,5.187-21.531,1.166-5.288-5.921-12.162-5.707-14.9s.215-5.706,4.856-10.994,7.608-19.871,8.774-21.875,4.871-1.661,4.871-1.661l10.981-.025c8.2,1.876,18.336,8.775,21.3,10.88a.466.466,0,0,1,.087.064c.292.216.5.355.623.456a.956.956,0,0,1,.139.1l-1.027,26.376-.2,5.238c-.521,4.438,1.585,13.252,2.283,26.338A92.449,92.449,0,0,1,5498.079-300.49Z" transform="translate(-5336.712 429.469)"/><path class="u" d="M5458.741-388.762s.9,5.549-.009,7.688-3.357,18.943.009,19.655,13.51-17.12,11.765-25.045" transform="translate(-5331.011 428.061)"/><path class="q" d="M5517.013-328.162c-.761,2.3-3.285,5.82-6.456,9.79-2.065,2.6-4.4,5.389-6.694,8.142-3.4,4.083-6.7,8.09-8.875,11.273,0,.012-.015.012-.028.025a19.973,19.973,0,0,0-2.243,3.982,2.533,2.533,0,0,0-.167,2.041c.381.723.837,1.687,1.295,2.79,2.157,5.174,4.451,13.43.912,15a13.881,13.881,0,0,1-7.456,1.509,35.028,35.028,0,0,1-4.109-.634c-5.072-1.028-5.58-.419-3.8-5.466a19.235,19.235,0,0,0,.838-4.9c.076-.875.114-1.787.151-2.713,0-.1.015-.216.015-.317.164-3.742.252-7.711,1.419-10.742.126-.342.278-.671.431-.989.469-.937,1.28-2.434,2.294-4.311v-.013c1.789-3.31,4.2-7.773,6.416-12.288,3.78-7.659,7.039-15.47,5.872-18.108-1.305-2.956-7.7-10.044-13.429-17.069-4.122-5.06-7.913-10.068-9.232-13.518-3.043-7.912,2.74-17.74,9.409-13.48a.506.506,0,0,1,.089.064c.292.216.5.355.622.456a1.074,1.074,0,0,1,.139.1S5519.676-336.126,5517.013-328.162Z" transform="translate(-5323.17 432.667)"/><path class="v" d="M5491.1-304.281s-31.5,5.18-33.642,4.2a2.246,2.246,0,0,0-.089-3.412s-7.228-10.144-11.146-14.481c-2.928-3.246-9.052-12.554-9.863-13.416,2.3,2.282,17.853,20.822,19.374,19.871,1.7-1.066,1.115-6.08,2.436-8.617s3.646-4.967,3.117-2.166c-.638,3.378-2.468,11.079-1.162,12.2,2.324,2.008-.154,8.824,4.169,8.291s11.514-3.826,17.018-3.826A36.242,36.242,0,0,1,5491.1-304.281Z" transform="translate(-5340.945 455.648)"/><path class="v" d="M5429.789-325.2c-1.585,2.637-6.341-2.853-4.856-7.406,1.47-4.54-1.271-4.439-3.2-6.861-1.889-2.384-.078-7.2,0-7.394.392-.1.8-.178,1.2-.24-.062,3.043.142,5.224.722,5.833,2.221,2.32,3.692,2.637,3.487,7.189S5426.517-324.566,5429.789-325.2Z" transform="translate(-5348.388 448.093)"/><path class="v" d="M5465.437-297.187c-8.267-1.306-15.028,7.38-15.028,7.38-15.938-8.978-44.306-44.7-31.028-55.581-.925.875-7.444,8.1,6.923,26.757,15.37,19.973,24.105,26,24.105,26s3.793-4.2,8.067-4.921A14.286,14.286,0,0,1,5465.437-297.187Z" transform="translate(-5350.761 448.916)"/><path class="w" d="M5459.233-310.43c-1.967-.811-5.06-1.432-7.316,1.4-3.54,4.439-2.9,6.557-6.507,10.145a34.363,34.363,0,0,0-7.317,12.085c-.329-.064-5.084-.976-7.441-4.869-2.462-4.046-2.626-7.85.633-8.091s13.022-3.207,15.51-6.125C5450.345-310.075,5457.813-314.26,5459.233-310.43Z" transform="translate(-5344.57 464.999)"/><path class="v" d="M5487.966-292.639c-15.053,3.17-37.079,0-37.079,0a11.827,11.827,0,0,1-1.675-6.658,7.3,7.3,0,0,1,.063-.951c7.659-1.231,28.191-1.422,33.949-4.071,7.126-3.284,5.108-7.494,5.108-7.494s1.5-1.167,3.64-2.854c-.037.926-.075,1.838-.151,2.713a19.279,19.279,0,0,1-.838,4.9c-1.775,5.047-1.268,4.438,3.8,5.466a35.048,35.048,0,0,0,4.11.634,13.88,13.88,0,0,0,7.456-1.509c4.287-1.9,0-13.632-2.207-17.792a2.532,2.532,0,0,1,.166-2.041c8.356,3.284,12.87,7.24,13.3,12.705C5518.249-301.681,5503.032-295.81,5487.966-292.639Z" transform="translate(-5334.766 460.017)"/><path class="s" d="M30.453,0c-.384,0,.643.646.254.7-4.992.632-12.857,9.274-29.3,34.284A8.849,8.849,0,0,0,2.7,46.151c3.017,2.67,10.989,2.212,13.29-1.288,11.221-17.069,17.453-14.8,19.33-16.086,2.562.942.832-7.142,2.678-9.677a8.88,8.88,0,0,0-.81-11.232" transform="translate(146.884 101.768) rotate(-80)"/><path class="v" d="M5448.663-334.017a67.02,67.02,0,0,0-1.166,9.791s-1.319-10.983-7.19-16.119C5443.921-337.858,5446.889-335.487,5448.663-334.017Z" transform="translate(-5339.047 451.341)"/><path class="v" d="M5430.678-267.843l-2.574-.406c-27.2-16.612-56.178-37.219-56.178-37.219s1.193-3.69,8.484-8.5c2.892-1.915,19.668-11.084,38.881-21.457-2.143,1.331-40.806,25.4-30.319,32.083,10.778,6.861,25.679-4.463,23.458,5.326S5430.678-267.843,5430.678-267.843Z" transform="translate(-5371.925 453.709)"/><path class="v" d="M5514.955-271.916c3.829-3.754,8.458-9.459,4.525-12-6.123-3.943,19.021-7.672,23.246-11.374s-33.174-23.778-39.1-28.457-12.682,7-13.238,8.116c0,0-1.422,1.648-2.74,3.119-.458-1.1-.914-2.067-1.295-2.79a2.533,2.533,0,0,1,.167-2.041,19.959,19.959,0,0,1,2.244-3.982c.013-.013.027-.013.027-.025,2.178-3.184,5.477-7.191,8.876-11.273,7.924,3.538,14.366,6.517,18.006,8.876,13.315,8.648,42.087,27.112,42.087,27.112Z" transform="translate(-5316.977 455.056)"/><path class="g" d="M5532.629-322.592c.191.355.394.761.609,1.231C5533.023-321.818,5532.82-322.237,5532.629-322.592Z" transform="translate(-5294.656 459.877)"/><path class="g" d="M5534.771-317.025c.836,3.068,1.23,6.15.457,8.014C5536-310.888,5535.6-313.957,5534.771-317.025Z" transform="translate(-5293.627 462.554)"/><path class="b" d="M5458.658-244.164l112.708-60.243-4.146-2.431Z" transform="translate(-5330.224 467.452)"/><path d="M1233.026,2119.109c.062-.542.114-1.084.148-1.629.4-6.442-.079-11.772,6.68-14.6,5.934-2.483,14.525.045,19.044,4.166,9.425,8.591,4.065,16.734,2.774,26.831.047,4.2,2.472,6.323,7.253,7.127a10.626,10.626,0,0,1,8.07,6.284,14.858,14.858,0,0,1,1.254,5.373c.282,5.777.835,7.379,7.549,9.431a15.019,15.019,0,0,1,9.4,8.4c4.718,10.313-.141,25.22-10.853,33.293s-23.218,6.258-27.935-4.055a23.226,23.226,0,0,1-1.141-14.624c1.876-8.507,1.065-9.926-2.7-13.036a.243.243,0,0,1-.032-.028,11.188,11.188,0,0,1-3.045-4.022,17.154,17.154,0,0,1-.348-12.105c1.787-5.756,1.522-9.51-1.309-11.607a27.254,27.254,0,0,0-6.328-2,11.564,11.564,0,0,1-8.52-6.794C1230.477,2130.02,1232.377,2124.663,1233.026,2119.109Z" transform="translate(-1105.255 -2101.897)"/><path class="q" d="M1227.223,2130.146c.138,3.866.8,7.681,3.066,10.518,2.494,3.163,6.521,4.418,10.342,4.519a11.456,11.456,0,0,0,6.154-1.355c3.523-2.108,5.171-6.651,6.063-10.945a36.11,36.11,0,0,0,.663-4.945,18.394,18.394,0,0,0-.549-5.6,16.1,16.1,0,0,0-7.047-9.187,25.372,25.372,0,0,0-10.707-3.389,8.577,8.577,0,0,0-5.377.652,4.573,4.573,0,0,0-2.173,3.012,3.484,3.484,0,0,0-.046,1.38c-.114,3.515-.229,7-.343,10.519C1227.223,2126.907,1227.178,2128.514,1227.223,2130.146Z" transform="translate(-1105.845 -2100.889)"/><path d="M1258.209,2134.214c-9.332-2.677-16.721-6.984-19.5-13.791a1.578,1.578,0,0,0-2.615-.494c-3.661,3.867-7.693,5.876-9.373,3.714-3.251-4.185,3.47-18.314,11.372-19.652,16.417-2.781,26.143,14.413,22.847,28.532Z" transform="translate(-1106.017 -2101.662)"/><path class="q" d="M1253.333,2126.342c-1.473-.511-2.93,1.131-3.572,3.006a16.492,16.492,0,0,1-.993,2.8,2.117,2.117,0,0,1-1.066.952,3.174,3.174,0,0,0,1.6,3.669c1.253.412,2.557-.394,3.589-1.446a7.884,7.884,0,0,0,2.306-4.517C1255.42,2128.951,1254.671,2126.8,1253.333,2126.342Z" transform="translate(-1103.185 -2098.72)"/></g></g></svg>