<svg xmlns="http://www.w3.org/2000/svg" width="537.675" height="499.4" viewBox="0 0 537.675 499.4"><defs><style>.a{fill:#525252;}.b,.o{fill:#fff;}.b{stroke:#fff;}.c{opacity:0.18;}.d{fill:#1f3598;}.e{fill:#8dc0ef;}.f{fill:#ced6e9;}.g{fill:#a0d2ff;}.h{fill:#3772ce;}.i{fill:#bfc7d8;}.j{fill:#e2e8f2;}.k{fill:#eff6fc;}.l{fill:#ff8358;}.m{opacity:0.71;}.m,.t{mix-blend-mode:multiply;isolation:isolate;}.n{fill:#fbc1b1;}.p{opacity:0.34;}.q{fill:#fff9ff;}.r,.x{fill:#647ddd;}.s{fill:#26366d;}.u{fill:rgba(15,0,0,0.1);}.v{fill:#c4e4f9;}.w{fill:#0f62fe;}.x{opacity:0.22;}.y{fill:#ffc7cb;}.z{fill:#bddcff;}</style></defs><g transform="translate(-407 -3662)"><circle class="a" cx="130" cy="130" r="130" transform="translate(660 3662)"/><g transform="translate(1800.407 1741.586)"><path class="b" d="M-1057.231,2025.244a6.183,6.183,0,0,1-6.176-6.176V2000.59a6.183,6.183,0,0,1,6.176-6.176h26.419a6.183,6.183,0,0,1,6.176,6.176v18.478a6.183,6.183,0,0,1-6.176,6.176Zm0-30.393a5.746,5.746,0,0,0-5.739,5.739v18.478a5.746,5.746,0,0,0,5.739,5.739h26.419a5.746,5.746,0,0,0,5.739-5.739V2000.59a5.746,5.746,0,0,0-5.739-5.739Z" transform="translate(-0.686 -0.686)"/><path class="b" d="M-967.185,2028.877a.219.219,0,0,1-.218-.219.219.219,0,0,1,.218-.218h8.214a.219.219,0,0,1,.219.218.219.219,0,0,1-.219.219Z" transform="translate(-66.568 -24.036)"/><path class="b" d="M-1063.188,2028.786a.218.218,0,0,1-.219-.218.219.219,0,0,1,.219-.218h21.628a.219.219,0,0,1,.219.218.218.218,0,0,1-.219.218Z" transform="translate(-0.686 -23.974)"/><path class="b" d="M-839.291,2025.244a6.183,6.183,0,0,1-6.176-6.176V2000.59a6.183,6.183,0,0,1,6.176-6.176h26.419a6.183,6.183,0,0,1,6.176,6.176v18.478a6.183,6.183,0,0,1-6.176,6.176Zm0-30.393a5.745,5.745,0,0,0-5.739,5.739v18.478a5.745,5.745,0,0,0,5.739,5.739h26.419a5.745,5.745,0,0,0,5.739-5.739V2000.59a5.745,5.745,0,0,0-5.739-5.739Z" transform="translate(-150.246 -0.686)"/><path class="b" d="M-749.245,2028.877a.219.219,0,0,1-.218-.219.219.219,0,0,1,.218-.218h8.214a.219.219,0,0,1,.218.218.219.219,0,0,1-.218.219Z" transform="translate(-216.128 -24.036)"/><path class="b" d="M-845.249,2028.877a.219.219,0,0,1-.218-.219.219.219,0,0,1,.218-.218h21.629a.219.219,0,0,1,.218.218.219.219,0,0,1-.218.219Z" transform="translate(-150.246 -24.036)"/><path class="b" d="M-1057.231,2181.455a6.183,6.183,0,0,1-6.176-6.176V2156.8a6.183,6.183,0,0,1,6.176-6.176h26.419a6.183,6.183,0,0,1,6.176,6.176v18.479a6.183,6.183,0,0,1-6.176,6.176Zm0-30.393a5.746,5.746,0,0,0-5.739,5.739v18.479a5.746,5.746,0,0,0,5.739,5.739h26.419a5.746,5.746,0,0,0,5.739-5.739V2156.8a5.746,5.746,0,0,0-5.739-5.739Z" transform="translate(-0.686 -107.885)"/><path class="b" d="M-967.185,2185.087a.219.219,0,0,1-.218-.219.219.219,0,0,1,.218-.219h8.214a.219.219,0,0,1,.219.219.219.219,0,0,1-.219.219Z" transform="translate(-66.568 -131.234)"/><path class="b" d="M-1063.188,2185.087a.219.219,0,0,1-.219-.219.219.219,0,0,1,.219-.219h21.628a.219.219,0,0,1,.219.219.219.219,0,0,1-.219.219Z" transform="translate(-0.686 -131.234)"/><path class="b" d="M-839.291,2181.455a6.183,6.183,0,0,1-6.176-6.176V2155.85a5.231,5.231,0,0,1,5.225-5.225h27.37a6.183,6.183,0,0,1,6.176,6.176v18.479a6.183,6.183,0,0,1-6.176,6.176Zm-.951-30.393a4.793,4.793,0,0,0-4.788,4.788v19.429a5.746,5.746,0,0,0,5.739,5.739h26.419a5.746,5.746,0,0,0,5.739-5.739V2156.8a5.745,5.745,0,0,0-5.739-5.739Z" transform="translate(-150.246 -107.885)"/><path class="b" d="M-749.245,2185.087a.219.219,0,0,1-.218-.219.219.219,0,0,1,.218-.219h8.214a.219.219,0,0,1,.218.219.219.219,0,0,1-.218.219Z" transform="translate(-216.128 -131.234)"/><path class="b" d="M-845.249,2185.087a.219.219,0,0,1-.218-.219.219.219,0,0,1,.218-.219h21.629a.219.219,0,0,1,.218.219.219.219,0,0,1-.218.219Z" transform="translate(-150.246 -131.234)"/><path class="b" d="M-937.752,2325.715a21.463,21.463,0,0,1-21.439-21.439,21.463,21.463,0,0,1,21.439-21.439,21.463,21.463,0,0,1,21.439,21.439A21.463,21.463,0,0,1-937.752,2325.715Zm0-42.441a21.026,21.026,0,0,0-21,21,21.026,21.026,0,0,0,21,21,21.026,21.026,0,0,0,21-21A21.026,21.026,0,0,0-937.752,2283.274Z" transform="translate(-72.204 -198.614)"/><path class="b" d="M-922.307,2334.1a14.394,14.394,0,0,1-14.378-14.377,14.394,14.394,0,0,1,14.378-14.378,14.394,14.394,0,0,1,14.377,14.378A14.394,14.394,0,0,1-922.307,2334.1Zm0-28.318a13.956,13.956,0,0,0-13.941,13.94,13.957,13.957,0,0,0,13.941,13.941,13.957,13.957,0,0,0,13.941-13.941A13.956,13.956,0,0,0-922.307,2305.778Z" transform="translate(-87.648 -214.057)"/><path class="b" d="M-905.516,2345.768a.217.217,0,0,1-.154-.063l-4.329-4.329a.219.219,0,0,1,0-.309.215.215,0,0,1,.155-.064.216.216,0,0,1,.155.064l4.174,4.174,8.5-8.5a.215.215,0,0,1,.155-.064.213.213,0,0,1,.154.064.218.218,0,0,1,0,.309l-8.657,8.657A.217.217,0,0,1-905.516,2345.768Z" transform="translate(-105.918 -235.559)"/><path class="b" d="M-941.013,2043.284a.219.219,0,0,1-.218-.219.219.219,0,0,1,.218-.219h30.047a.219.219,0,0,1,.219.219.219.219,0,0,1-.219.219Z" transform="translate(-84.529 -33.923)"/><path class="b" d="M-784.161,2110.338a.219.219,0,0,1-.218-.219V2091.5a.219.219,0,0,1,.218-.219.219.219,0,0,1,.219.219v18.619A.219.219,0,0,1-784.161,2110.338Z" transform="translate(-192.167 -67.161)"/><path class="b" d="M-941.013,2199.5a.219.219,0,0,1-.218-.219.219.219,0,0,1,.218-.219h30.047a.219.219,0,0,1,.219.219.219.219,0,0,1-.219.219Z" transform="translate(-84.529 -141.122)"/><g transform="translate(-1064.407 1993.414)"><path class="b" d="M-1057.917,2024.872a6.5,6.5,0,0,1-6.49-6.49V1999.9a6.5,6.5,0,0,1,6.49-6.49h26.419a6.5,6.5,0,0,1,6.49,6.49v18.478a6.5,6.5,0,0,1-6.49,6.49Zm0-30.393a5.431,5.431,0,0,0-5.425,5.425v18.478a5.431,5.431,0,0,0,5.425,5.425h26.419a5.431,5.431,0,0,0,5.425-5.425V1999.9a5.431,5.431,0,0,0-5.425-5.425Z" transform="translate(1064.407 -1993.414)"/><path class="b" d="M-967.871,2028.5a.533.533,0,0,1-.532-.532.533.533,0,0,1,.532-.533h8.214a.533.533,0,0,1,.532.533.533.533,0,0,1-.532.532Z" transform="translate(998.525 -2016.764)"/><path class="b" d="M-1063.875,2028.413a.533.533,0,0,1-.532-.532.533.533,0,0,1,.532-.532h21.628a.533.533,0,0,1,.532.532.533.533,0,0,1-.532.532Z" transform="translate(1064.407 -2016.702)"/><path class="b" d="M-839.977,2024.872a6.5,6.5,0,0,1-6.49-6.49V1999.9a6.5,6.5,0,0,1,6.49-6.49h26.419a6.5,6.5,0,0,1,6.489,6.49v18.478a6.5,6.5,0,0,1-6.489,6.49Zm0-30.393a5.431,5.431,0,0,0-5.425,5.425v18.478a5.431,5.431,0,0,0,5.425,5.425h26.419a5.431,5.431,0,0,0,5.425-5.425V1999.9a5.431,5.431,0,0,0-5.425-5.425Z" transform="translate(914.847 -1993.414)"/><path class="b" d="M-749.931,2028.5a.533.533,0,0,1-.532-.532.533.533,0,0,1,.532-.533h8.215a.533.533,0,0,1,.532.533.533.533,0,0,1-.532.532Z" transform="translate(848.966 -2016.764)"/><path class="b" d="M-845.935,2028.5a.533.533,0,0,1-.532-.532.533.533,0,0,1,.532-.533h21.629a.533.533,0,0,1,.532.533.533.533,0,0,1-.532.532Z" transform="translate(914.847 -2016.764)"/><path class="b" d="M-1057.917,2181.082a6.5,6.5,0,0,1-6.49-6.49v-18.478a6.5,6.5,0,0,1,6.49-6.49h26.419a6.5,6.5,0,0,1,6.49,6.49v18.478a6.5,6.5,0,0,1-6.49,6.49Zm0-30.393a5.431,5.431,0,0,0-5.425,5.426v18.478a5.431,5.431,0,0,0,5.425,5.426h26.419a5.432,5.432,0,0,0,5.425-5.426v-18.478a5.431,5.431,0,0,0-5.425-5.426Z" transform="translate(1064.407 -2100.612)"/><path class="b" d="M-967.871,2184.715a.533.533,0,0,1-.532-.532.533.533,0,0,1,.532-.532h8.214a.533.533,0,0,1,.532.532.533.533,0,0,1-.532.532Z" transform="translate(998.525 -2123.962)"/><path class="b" d="M-1063.875,2184.715a.533.533,0,0,1-.532-.532.533.533,0,0,1,.532-.532h21.628a.533.533,0,0,1,.532.532.533.533,0,0,1-.532.532Z" transform="translate(1064.407 -2123.962)"/><path class="b" d="M-839.977,2181.082a6.5,6.5,0,0,1-6.49-6.49v-19.429a5.545,5.545,0,0,1,5.539-5.538h27.37a6.5,6.5,0,0,1,6.489,6.49v18.478a6.5,6.5,0,0,1-6.489,6.49Zm-.951-30.393a4.479,4.479,0,0,0-4.474,4.474v19.429a5.431,5.431,0,0,0,5.425,5.426h26.419a5.432,5.432,0,0,0,5.425-5.426v-18.478a5.431,5.431,0,0,0-5.425-5.426Z" transform="translate(914.847 -2100.612)"/><path class="b" d="M-749.931,2184.715a.533.533,0,0,1-.532-.532.533.533,0,0,1,.532-.532h8.215a.533.533,0,0,1,.532.532.533.533,0,0,1-.532.532Z" transform="translate(848.966 -2123.962)"/><path class="b" d="M-845.935,2184.715a.533.533,0,0,1-.532-.532.533.533,0,0,1,.532-.532h21.629a.533.533,0,0,1,.532.532.533.533,0,0,1-.532.532Z" transform="translate(914.847 -2123.962)"/><path class="b" d="M-938.438,2325.342a21.777,21.777,0,0,1-21.752-21.753,21.777,21.777,0,0,1,21.752-21.752,21.777,21.777,0,0,1,21.753,21.752A21.777,21.777,0,0,1-938.438,2325.342Zm0-42.441a20.712,20.712,0,0,0-20.688,20.688,20.712,20.712,0,0,0,20.688,20.688,20.712,20.712,0,0,0,20.688-20.688A20.712,20.712,0,0,0-938.438,2282.9Z" transform="translate(992.89 -2191.342)"/><path class="b" d="M-922.994,2333.725a14.708,14.708,0,0,1-14.691-14.691,14.708,14.708,0,0,1,14.691-14.691,14.708,14.708,0,0,1,14.691,14.691A14.708,14.708,0,0,1-922.994,2333.725Zm0-28.318a13.642,13.642,0,0,0-13.627,13.627,13.642,13.642,0,0,0,13.627,13.627,13.642,13.642,0,0,0,13.627-13.627A13.643,13.643,0,0,0-922.994,2305.406Z" transform="translate(977.445 -2206.786)"/><path class="b" d="M-906.2,2345.4a.53.53,0,0,1-.376-.155l-4.329-4.329a.528.528,0,0,1-.156-.376.529.529,0,0,1,.156-.376.527.527,0,0,1,.376-.156.527.527,0,0,1,.376.156l3.952,3.952,8.28-8.281a.531.531,0,0,1,.377-.156.529.529,0,0,1,.376.155.533.533,0,0,1,0,.753l-8.657,8.656A.528.528,0,0,1-906.2,2345.4Z" transform="translate(959.175 -2228.288)"/><path class="b" d="M-941.7,2042.912a.533.533,0,0,1-.532-.532.533.533,0,0,1,.532-.532h30.047a.533.533,0,0,1,.532.532.533.533,0,0,1-.532.532Z" transform="translate(980.565 -2026.651)"/><path class="b" d="M-784.847,2109.966a.533.533,0,0,1-.532-.532v-18.619a.533.533,0,0,1,.532-.532.533.533,0,0,1,.532.532v18.619A.533.533,0,0,1-784.847,2109.966Z" transform="translate(872.926 -2059.889)"/><path class="b" d="M-941.7,2199.123a.533.533,0,0,1-.532-.532.533.533,0,0,1,.532-.532h30.047a.533.533,0,0,1,.532.532.533.533,0,0,1-.532.532Z" transform="translate(980.565 -2133.85)"/><path class="b" d="M-999.5,2279.867a3.822,3.822,0,0,1-3.818-3.818v-29.024a.533.533,0,0,1,.532-.532.533.533,0,0,1,.532.532v29.024a2.757,2.757,0,0,0,2.754,2.754h10.246a.533.533,0,0,1,.532.532.533.533,0,0,1-.532.532Z" transform="translate(1022.486 -2167.087)"/></g><path class="b" d="M-998.815,2280.24a3.508,3.508,0,0,1-3.5-3.5v-29.024a.218.218,0,0,1,.218-.218.218.218,0,0,1,.218.218v29.024a3.071,3.071,0,0,0,3.067,3.067h10.246a.219.219,0,0,1,.219.219.219.219,0,0,1-.219.218Z" transform="translate(-42.607 -174.36)"/></g><g transform="translate(0 71)"><g transform="translate(494.232 3965.641)"><g class="c" transform="translate(0 0)"><ellipse class="d" cx="25.823" cy="14.91" rx="25.823" ry="14.91"/></g></g><g transform="translate(608.026 4002.896)"><g class="c" transform="translate(0 0)"><ellipse class="d" cx="25.823" cy="14.91" rx="25.823" ry="14.91"/></g></g><g transform="translate(630.191 3789.607)"><g transform="translate(0 0)"><g transform="translate(1.545 57.986)"><g transform="translate(78.153 7.316)"><path class="e" d="M1372.883,1548.353a.68.68,0,0,1-.65-.481l-9.552-31.112a.68.68,0,1,1,1.3-.4l9.552,31.113a.681.681,0,0,1-.65.88Z" transform="translate(-1362.651 -1515.88)"/></g><g transform="translate(50.108 21.253)"><path class="e" d="M1324.683,1577.4a.68.68,0,0,1-.679-.662l-1.065-40.427a.68.68,0,0,1,.662-.7.666.666,0,0,1,.7.662l1.065,40.427a.68.68,0,0,1-.662.7Z" transform="translate(-1322.939 -1535.615)"/></g><path class="e" d="M1252.668,1539.221a.68.68,0,0,1-.672-.791l5.354-32.34a.68.68,0,0,1,1.342.222l-5.354,32.34A.681.681,0,0,1,1252.668,1539.221Z" transform="translate(-1251.987 -1505.521)"/></g><g transform="translate(1.259 34.822)"><path class="f" d="M1251.581,1496.047l44.2,25.641a5.645,5.645,0,0,0,5.8-.078l34.487-21.268-46.411-27.622Z" transform="translate(-1251.581 -1472.721)"/></g><path class="g" d="M1304.8,1424.561l31.138,17.367a8.108,8.108,0,0,1,4.638,8l-5.035,35.932a9.37,9.37,0,0,1-5.391,7.269l-30,14.763c-2.035,1-4.53-.344-4.442-2.394l.008-.175a11.745,11.745,0,0,1,5.4-9.165l17.359-11.69a2.179,2.179,0,0,0-.175-3.72l-31.135-18.016c-.7-.381-2.227.329-2.9.757l-31.067,18.067a1.836,1.836,0,0,1-2.826-1.351l-.556-5.36c-.248-2.395,1.578-4.04,3.629-5.3l27.035-15.92,10.862-25.189C1293.6,1423.844,1299.908,1422.03,1304.8,1424.561Z" transform="translate(-1249.799 -1423.413)"/></g></g><g transform="translate(678.628 3764.265)"><g transform="translate(0 0)"><path class="h" d="M1341.913,1399.06c-.947-4.036-2.722-7.537-5.935-9.621-3.821-2.478-9.615-2.812-13.439.588a7.007,7.007,0,0,0-.727.729c-2.794,3.363-3.208,7.331-3.427,11.348.854,2.387,2.56,4.131,3.858,6.248s.683,2.66.3,5.048a17.6,17.6,0,0,0,2.458,11.986,2.937,2.937,0,0,0,1.062,1.125,3.2,3.2,0,0,0,1.766.164q4.789-.467,9.564-1.064c1.513-.189,3.171-.465,4.151-1.632a6.123,6.123,0,0,0,1.006-3.837C1342.72,1414.527,1343.541,1406,1341.913,1399.06Z" transform="translate(-1318.385 -1387.527)"/></g></g><g transform="translate(654.021 3822.51)"><g transform="translate(0 0)"><path class="h" d="M1313.5,1509.346l15.771-10.376a10.934,10.934,0,0,0,3.543-7.8c.276-9.446-.293-14.4-8.617-19.18l-13.493-1.935a6.034,6.034,0,0,0-5.884,2.765h0c-1.063,1.686-4.434,4.874-4.875,6.858a6.526,6.526,0,0,1-3.649,4.609L1283.543,1490Z" transform="translate(-1283.543 -1470.001)"/></g></g><g transform="translate(668.011 3789.584)"><g transform="translate(0 0)"><path class="i" d="M4.12,0h0A4.121,4.121,0,0,1,8.241,4.121v20.16a4.12,4.12,0,0,1-4.12,4.12h0A4.12,4.12,0,0,1,0,24.281V4.12A4.12,4.12,0,0,1,4.12,0Z" transform="translate(7.65 29.429) rotate(-158.168)"/></g></g><g transform="translate(686.719 3782.827)"><g transform="translate(0 0)"><path class="d" d="M1329.842,1413.973c.014,0,.027.014.04.029a.923.923,0,0,0,.013-.191A.235.235,0,0,1,1329.842,1413.973Z" transform="translate(-1329.842 -1413.811)"/></g></g><g transform="translate(673.135 3788.949)"><g transform="translate(0 0)"><path class="f" d="M1342.375,1434.715l-1.63,6.106-3.892,18.552a4.4,4.4,0,0,1-2.249,2.833c-2.95,1.465-10.074,2.187-18.545-1.4a4.438,4.438,0,0,1-2.578-3.28l-2.648-13.745-.055-.276a9.7,9.7,0,0,1,.894-6.25l3.095-5.941v-3.177c0-3.768,3.335-6.477,6.67-5.425l1.155.4,1.85.639,8.134,2.84,2.379.825,4.627,1.609A4.707,4.707,0,0,1,1342.375,1434.715Z" transform="translate(-1310.606 -1422.48)"/></g></g><g transform="translate(673.143 3788.949)"><g transform="translate(0 0)"><path class="j" d="M1339.586,1429.021l-4.627-1.609-2.379-.825-8.134-2.84-1.85-.639-1.155-.4c-3.335-1.052-6.669,1.658-6.669,5.425v3.177l-3.095,5.941a9.586,9.586,0,0,0-1.053,3.917,3.877,3.877,0,0,0,1.7,3.386h0c2.441,1.2,4.924,2.324,7.427,3.376,4.05,1.719,8.629,3.238,12.617,1.375,2.4-1.121,4.2-3.314,5.927-5.453q.41-.5.816-1a12.191,12.191,0,0,0,2.306-4.529l.963-3.6A4.707,4.707,0,0,0,1339.586,1429.021Z" transform="translate(-1310.618 -1422.48)"/></g></g><g transform="translate(680.781 3783.523)"><g transform="translate(0 6.437)"><path class="k" d="M1337.323,1430.375l-5.24,5.875a1.409,1.409,0,0,1-2.2-.117l-3.047-4.232-4.379.781a.873.873,0,0,1-1.027-.859v-1.357a6.373,6.373,0,0,1,5.037-6.233,14.613,14.613,0,0,1,3.058-.318,12.812,12.812,0,0,1,7.345,2.13A2.93,2.93,0,0,1,1337.323,1430.375Z" transform="translate(-1321.434 -1423.913)"/></g><g transform="translate(3.246 6.515)"><path class="d" d="M1335.135,1427.226a2.6,2.6,0,0,1-.832,1.849,5.784,5.784,0,0,1-7.376.065,2.489,2.489,0,0,1,0-3.828c.053-.047.112-.1.172-.148l.011-.012a5.169,5.169,0,0,1,2.526-1.058c.155-.024.309-.042.47-.054s.315-.018.476-.018a5.28,5.28,0,0,1,3.72,1.361A2.589,2.589,0,0,1,1335.135,1427.226Z" transform="translate(-1326.03 -1424.023)"/></g><g transform="translate(4.141 0)"><path class="l" d="M1334.673,1414.8v11.567a5.294,5.294,0,0,1-3.72,1.361,5.385,5.385,0,0,1-3.572-1.225.832.832,0,0,1-.083-.071V1414.8Z" transform="translate(-1327.297 -1414.798)"/></g><g class="m" transform="translate(4.141 1.605)"><path class="l" d="M1334.293,1417.07l-.636.945-3.215,4.607-.452.642-2.609,3.9a.833.833,0,0,1-.083-.071v-6.027l.006-.03a43.268,43.268,0,0,1,3.554-3.774l2.876-.16Z" transform="translate(-1327.297 -1417.07)"/></g></g><g transform="translate(699.915 3847.629)"><g transform="translate(0 0)"><path class="l" d="M1356.566,1509.957h0a2.247,2.247,0,0,0-.727-3.6,7.364,7.364,0,0,0-4.212-.724,3.744,3.744,0,0,0-2.558,1.256,3.379,3.379,0,0,0-.514,1.828,8.373,8.373,0,0,0,.52,3.86,5,5,0,0,0,4.582,3.108,3.651,3.651,0,0,0,2.564-.987C1358.029,1512.92,1355.241,1512.026,1356.566,1509.957Z" transform="translate(-1348.528 -1505.57)"/></g></g><g transform="translate(671.607 3807.352)"><g transform="translate(0 0)"><path class="f" d="M1308.444,1448.538l.094.194a.3.3,0,0,1-.075.006C1308.463,1448.676,1308.45,1448.607,1308.444,1448.538Z" transform="translate(-1308.444 -1448.538)"/></g></g><g transform="translate(693.027 3779.088)"><g transform="translate(0 0)"><path class="d" d="M1338.774,1408.672c.013,0,.026.014.038.028a.888.888,0,0,0,.013-.183A.225.225,0,0,1,1338.774,1408.672Z" transform="translate(-1338.774 -1408.517)"/></g></g><g transform="translate(678.316 3768.492)"><g transform="translate(0 0)"><path class="l" d="M1332.968,1406.687c-1.006-5.146-4.29-10.525-9.834-11.438a.587.587,0,0,1-.409-.9.739.739,0,0,1,.087-.729c-.052-.006-.1-.016-.158-.021a4.948,4.948,0,0,0-3.164.393,2.752,2.752,0,0,0-1.279,1.812,2.168,2.168,0,0,0-.027.83c-.067,2.114-.134,4.214-.2,6.328-.027.951-.054,1.918-.027,2.9a10.753,10.753,0,0,0,1.8,6.328,7.775,7.775,0,0,0,6.085,2.719c1.239.03,2.518-.865,3.622-1.529,2.073-1.269,3.042-3.289,3.567-5.871.034-.177.058-.357.089-.535A.559.559,0,0,1,1332.968,1406.687Z" transform="translate(-1317.944 -1393.514)"/></g></g><g transform="translate(692.401 3778.001)"><g transform="translate(0 3.885)"><path class="l" d="M1337.888,1412.616a.565.565,0,0,0,.562.063,1.447,1.447,0,0,1,.037-.2Z" transform="translate(-1337.888 -1412.479)"/></g><g transform="translate(0.496 0)"><path class="l" d="M1342.013,1407.034c-.879-.3-1.747.674-2.13,1.792a9.741,9.741,0,0,1-.592,1.669,1.263,1.263,0,0,1-.636.568,1.894,1.894,0,0,0,.951,2.188,2.224,2.224,0,0,0,2.141-.862,4.711,4.711,0,0,0,1.375-2.694C1343.258,1408.589,1342.811,1407.31,1342.013,1407.034Z" transform="translate(-1338.59 -1406.977)"/></g></g><g transform="translate(696.894 3794.896)"><g transform="translate(0 0)"><path class="j" d="M1352.592,1470.934c-.093,0-.186,0-.28-.009a4.08,4.08,0,0,1-3.8-4.346c.989-14.644-.532-25.18-1.8-27.847a4.081,4.081,0,0,1,1.607-7.831,5.684,5.684,0,0,1,4.157,1.892c5.884,6.3,4.366,31.485,4.173,34.336A4.081,4.081,0,0,1,1352.592,1470.934Z" transform="translate(-1344.249 -1430.901)"/></g></g><g transform="translate(675.938 3766.893)"><g transform="translate(0 0)"><path class="h" d="M1334.3,1402.322l-.013-.009c-2-1.48-3.088-3.685-4.282-5.749a10.6,10.6,0,0,0-4.189-4.572,7.33,7.33,0,0,0-7.913.974c-1.723,1.438-4.4,6.359-2.863,8.592,2.64,3.821,11.61,3.172,16.754,2.944A2.778,2.778,0,0,1,1334.3,1402.322Z" transform="translate(-1314.575 -1391.249)"/></g></g><g transform="translate(550.667 3840.894)"><g transform="translate(0 0)"><path class="j" d="M1137.193,1496.979a1.836,1.836,0,0,0,1.424,1.6c.786.193,1.424-.208,1.424-.9a1.835,1.835,0,0,0-1.424-1.6C1137.831,1495.888,1137.193,1496.29,1137.193,1496.979Z" transform="translate(-1137.193 -1496.034)"/></g></g><g transform="translate(531.849 3853.728)"><g transform="translate(0 0)"><path class="j" d="M1342.749,1702.744l91.728-52.1-240.723-136.443-83.207,49.225Z" transform="translate(-1110.547 -1514.205)"/></g></g><g transform="translate(735.308 3840.636)"><g transform="translate(0 0)"><g transform="translate(1.545 57.986)"><g transform="translate(78.153 7.316)"><path class="e" d="M1521.727,1620.608a.682.682,0,0,1-.65-.481l-9.552-31.113a.68.68,0,0,1,1.3-.4l9.552,31.113a.682.682,0,0,1-.651.88Z" transform="translate(-1511.494 -1588.135)"/></g><g transform="translate(50.108 21.253)"><path class="e" d="M1473.527,1649.658a.681.681,0,0,1-.679-.662l-1.065-40.427a.68.68,0,0,1,1.359-.036l1.065,40.427a.679.679,0,0,1-.662.7Z" transform="translate(-1471.783 -1607.869)"/></g><path class="e" d="M1401.512,1611.476a.664.664,0,0,1-.112-.01.68.68,0,0,1-.561-.781l5.354-32.34a.68.68,0,0,1,1.343.222l-5.354,32.34A.681.681,0,0,1,1401.512,1611.476Z" transform="translate(-1400.83 -1577.775)"/></g><g transform="translate(1.259 34.822)"><path class="f" d="M1400.425,1568.3l44.2,25.642a5.647,5.647,0,0,0,5.8-.078l34.487-21.268-46.411-27.622Z" transform="translate(-1400.425 -1544.975)"/></g><path class="g" d="M1453.647,1496.815l31.138,17.368a8.105,8.105,0,0,1,4.637,8l-5.034,35.932a9.37,9.37,0,0,1-5.391,7.269l-30,14.763c-2.035,1-4.53-.343-4.441-2.393l.008-.176a11.747,11.747,0,0,1,5.395-9.165l17.359-11.689a2.179,2.179,0,0,0-.174-3.721l-31.134-18.016c-.7-.38-2.227.33-2.9.758l-31.067,18.067a1.836,1.836,0,0,1-2.826-1.351l-.556-5.359c-.248-2.395,1.578-4.04,3.629-5.3l27.035-15.92,10.862-25.189C1442.444,1496.1,1448.751,1494.285,1453.647,1496.815Z" transform="translate(-1398.643 -1495.668)"/></g></g><g transform="translate(751.388 3836.629)"><g transform="translate(0 0)"><path class="l" d="M1456.313,1495.148l-5.44,29.395a11.744,11.744,0,0,1-4.78,9.443l-16.484,13.21a5.153,5.153,0,0,1-6.087-8.316L1440,1525.67a1.407,1.407,0,0,0,.567-1.127l5.44-29.395a5.153,5.153,0,0,1,10.306,0Z" transform="translate(-1421.412 -1489.995)"/></g></g><g transform="translate(771.21 3834.796)"><g transform="translate(0 0)"><path class="f" d="M1457.5,1517.976a4.257,4.257,0,0,0,1.994-1.287,3.1,3.1,0,0,0,.78-2.084l4.761-20.021c0-3.97-2.576-7.185-5.758-7.185s-5.757,3.215-5.757,7.185l-3.994,16.789a2.806,2.806,0,0,0,1.4,2.968Z" transform="translate(-1449.48 -1487.399)"/></g></g><g transform="translate(743.466 3886.142)"><g transform="translate(0 0)"><path class="l" d="M1410.691,1567.828h0a1.641,1.641,0,0,0,2.314-.038l4.754-4.915a1.64,1.64,0,0,0-.038-2.313h0a1.64,1.64,0,0,0-2.313.038l-4.755,4.915A1.641,1.641,0,0,0,1410.691,1567.828Z" transform="translate(-1410.194 -1560.104)"/></g></g><g transform="translate(738.158 3942.758)"><g transform="translate(0 0)"><path class="d" d="M1420.109,1640.587a2.734,2.734,0,0,1,2.393,1.793,8.032,8.032,0,0,1,.422,3.126,3.555,3.555,0,0,1-.7,2.612,3.518,3.518,0,0,1-1.607.747,18.835,18.835,0,0,1-3.3.686c-1.269.109-2.557-.038-3.816.154-.8.122-1.578.38-2.369.566a13.493,13.493,0,0,1-6.809-.175,2.552,2.552,0,0,1-1.323-.729,1.923,1.923,0,0,1,.188-2.343,5.623,5.623,0,0,1,2.106-1.386l6.963-3.2c2.277-1.045,4.634-2.11,7.138-2.167.8-.018,1.855.344,1.783,1.141Z" transform="translate(-1402.679 -1640.272)"/></g></g><g transform="translate(750.391 3936.695)"><g transform="translate(0 0)"><path class="f" d="M1423.4,1641.977l.228-.018a2.792,2.792,0,0,0,2.556-3.009l-.381-4.7a2.792,2.792,0,0,0-3.008-2.557l-.228.018a2.792,2.792,0,0,0-2.556,3.009l.381,4.7A2.792,2.792,0,0,0,1423.4,1641.977Z" transform="translate(-1420.001 -1631.688)"/></g></g><g transform="translate(752.76 3944.748)"><g transform="translate(0)"><path class="d" d="M1426.388,1651.733c-.405.9-.826,1.793-1.22,2.69a24.138,24.138,0,0,0-1.1,2.806c-.432,1.444-1.245,4.253-.223,5.564,1.538,1.973,4.048.284,5.3-1.11a57.63,57.63,0,0,0,5.174-6.711,8.857,8.857,0,0,0,1.558-3.422c.641-3.962-1.265-9.581-5.26-8.265-1.459.48-2.081,1.727-2.427,3.343A25.525,25.525,0,0,1,1426.388,1651.733Z" transform="translate(-1423.355 -1643.089)"/></g></g><g transform="translate(758.3 3940.869)"><g transform="translate(0 0)"><rect class="f" width="5.812" height="10.295" rx="2.906" transform="translate(5.812 10.295) rotate(-180)"/></g></g><g transform="translate(742.942 3877.882)"><g transform="translate(0 0)"><path class="h" d="M1452.583,1550.989l-9.223-2.581-2.417,4.854-28.069,13.774a5.489,5.489,0,0,0-3.345,5.974l.448,2.722.018.007,5.088,34.863a3.417,3.417,0,0,0,3.129,2.914l1.7.125a3.416,3.416,0,0,0,3.663-3.57l-1.441-30.054.214.075,24.806-13.006.111.428-.691.579.764-.3.037.143c-5.392,3.813-12.236,9.411-18.189,14.136a6.283,6.283,0,0,0-2.193,3.419,8.559,8.559,0,0,0-.364,2.083l-3.5,28.049a3.511,3.511,0,0,0,3.5,3.216h2.414a3.51,3.51,0,0,0,3.51-3.51l5.63-22.352,34.264-19.161a9.144,9.144,0,0,0,4.332-7.166l.446-12.11Z" transform="translate(-1409.454 -1548.408)"/></g></g><g transform="translate(774.866 3880.422)"><g transform="translate(0 0)"><path class="f" d="M1455.207,1552.005q-.194.479-.388.938C1454.5,1553.7,1454.663,1552.256,1455.207,1552.005Z" transform="translate(-1454.657 -1552.005)"/></g></g><g transform="translate(775.416 3831.766)"><g transform="translate(0 0)"><path class="f" d="M1494.191,1519.585c-.034,8.854-1.04,18.87-3.787,21.393-2.121,1.951-6,2.1-10.105,1.374q-.388-.061-.776-.143a41.718,41.718,0,0,1-12.437-4.686c-.646-.387-8.093-3.815-11.241-5.719a.409.409,0,0,0-.408-.04c1.782-4.271,3.856-9.718,3.631-14.247-.191-3.889-2.237-7.908-2.8-11.845-1.013-7.167-1.067-17.47,6.127-21.646a8.768,8.768,0,0,1,4.325-.918,13.335,13.335,0,0,1,2.4.163c11.085,2.02,16.953,5.59,20.293,11.071,2.244,3.666,3.359,8.195,4.148,13.682.048.333.1.7.136,1.088.027.2.047.394.068.6A96.339,96.339,0,0,1,1494.191,1519.585Z" transform="translate(-1455.436 -1483.108)"/></g></g><g transform="translate(776.726 3846.029)"><g transform="translate(0 0)"><path class="f" d="M1457.291,1506.607c.036.085.073.173.109.258v-3.422c-.009-.046-.017-.093-.025-.138Z" transform="translate(-1457.291 -1503.305)"/></g></g><g transform="translate(781.313 3832.099)"><g transform="translate(0 0)"><path class="f" d="M1481.965,1490.972l-6,6.723a1.613,1.613,0,0,1-2.513-.134l-3.486-4.843-5.01.893a1,1,0,0,1-1.174-.983v-1.554a7.291,7.291,0,0,1,5.763-7.131,16.729,16.729,0,0,1,3.5-.364,14.656,14.656,0,0,1,8.4,2.437A3.352,3.352,0,0,1,1481.965,1490.972Z" transform="translate(-1463.786 -1483.579)"/></g></g><g transform="translate(800.277 3842.999)"><g transform="translate(0 0)"><path class="f" d="M1504.533,1524.258c-.034,8.854-1.04,18.87-3.787,21.393-2.122,1.951-6,2.1-10.105,1.374a11.375,11.375,0,0,1,.537-1.217c3.679-5.97,4.155-7.684,3.413-14.763-.292-2.8-.578-5.679.163-8.392.715-2.577,2.347-5.073,1.85-7.7a15.771,15.771,0,0,0-1.347-3.353,12.837,12.837,0,0,1-.83-7.467,6.968,6.968,0,0,1,1.775-3.74,5.051,5.051,0,0,1,3.557-1.381c2.244,3.666,3.359,8.195,4.147,13.682.048.333.1.7.136,1.088.027.19.047.394.068.6C1504.363,1516.961,1504.519,1520.464,1504.533,1524.258Z" transform="translate(-1490.64 -1499.015)"/></g></g><g transform="translate(785.025 3832.187)"><g transform="translate(0 0)"><path class="d" d="M1479.461,1487.37a2.978,2.978,0,0,1-.952,2.115,6.619,6.619,0,0,1-8.439.075,2.848,2.848,0,0,1,0-4.379c.061-.054.129-.116.2-.17.006-.006.013-.013.02-.013a5.87,5.87,0,0,1,2.883-1.21c.177-.027.354-.047.538-.062s.36-.021.544-.021a6.044,6.044,0,0,1,4.257,1.557A2.965,2.965,0,0,1,1479.461,1487.37Z" transform="translate(-1469.043 -1483.704)"/></g></g><g transform="translate(774.465 3806.1)"><g transform="translate(11.245 18.293)"><g transform="translate(0.34 0.34)"><path class="l" d="M1478.932,1473.15v13.233a6.049,6.049,0,0,1-4.256,1.557,6.164,6.164,0,0,1-4.087-1.4.9.9,0,0,1-.1-.082V1473.15Z" transform="translate(-1470.493 -1473.15)"/></g><path class="n" d="M1474.534,1488.139a6.514,6.514,0,0,1-4.314-1.487c0,.008-.041-.032-.066-.056l-.1-.1-.037-.179v-13.648h9.119v13.715l-.1.1A6.442,6.442,0,0,1,1474.534,1488.139Zm-3.843-1.975a5.912,5.912,0,0,0,3.843,1.3,5.833,5.833,0,0,0,3.917-1.362v-12.749h-7.759Z" transform="translate(-1470.012 -1472.668)"/></g><g class="m" transform="translate(11.585 20.47)"><path class="l" d="M1478.5,1475.75l-.727,1.081-3.679,5.27-.516.734-2.985,4.468a.9.9,0,0,1-.1-.082v-6.9l.006-.034a49.71,49.71,0,0,1,4.067-4.318l3.291-.183Z" transform="translate(-1470.493 -1475.75)"/></g><g transform="translate(2.693 5.835)"><path class="l" d="M1477.34,1466.42c-.034.491-.609.9-1.218,1.285-.2.136-.406.271-.593.423-.017,0-.034,0-.051.034a1.942,1.942,0,0,0-.388.338.987.987,0,0,0-.287.49,9.8,9.8,0,0,1-.592,1.843,9.985,9.985,0,0,1-3.822,4.5,10.316,10.316,0,0,1-1.133.592,7.789,7.789,0,0,1-2.452.677,6.264,6.264,0,0,1-.981.034,8.194,8.194,0,0,1-7.627-6.765,15.568,15.568,0,0,1-.287-2.519c-.017-.982,0-1.945.034-2.893.068-1.5.119-3.01.169-4.5.017-.609.051-1.2.068-1.809a1.956,1.956,0,0,1,.017-.829,2.762,2.762,0,0,1,1.438-1.809,6.182,6.182,0,0,1,3.551-.406,18.264,18.264,0,0,1,7.052,2.047,9.858,9.858,0,0,1,4.634,5.513C1475.209,1463.748,1477.391,1465.287,1477.34,1466.42Z" transform="translate(-1457.902 -1455.027)"/></g><g transform="translate(0)"><path class="d" d="M1478.675,1455.872a9.424,9.424,0,0,0-2.212-5.618,9.913,9.913,0,0,0-4.677-2.906,10.369,10.369,0,0,0-3.71-.567c-1.771.122-3.4.971-5.107,1.448-1.756.492-3.615.593-5.328,1.22s-3.348,1.982-3.535,3.8c-.192,1.869,1.26,3.594,2.986,4.339a13.432,13.432,0,0,0,5.55.7c1.277-.018,3.939-.558,5.093.039,1.759.912,1.1,3.569,1.939,4.987a1.363,1.363,0,0,0,1.22.694c1.151-.08,1.562-1.7,2.647-2.1a1.66,1.66,0,0,1,1.978.945,2.32,2.32,0,0,1-.366,2.273c-.518.679-1.533.753-2,1.294-.385.448-.24,1.217-.086,1.934a1.922,1.922,0,0,0,1.145,1.453C1478.763,1471.374,1478.836,1458.019,1478.675,1455.872Z" transform="translate(-1454.089 -1446.765)"/></g></g><g transform="translate(852.142 3941.18)"><g transform="translate(1.7 1.7)"><path class="e" d="M1566.486,1640.445l3.3,45.93Z" transform="translate(-1566.486 -1640.445)"/></g><g transform="translate(0)"><path class="e" d="M1569.075,1687.368a1.7,1.7,0,0,1-1.694-1.578l-3.3-45.93a1.7,1.7,0,0,1,3.391-.244l3.3,45.931a1.7,1.7,0,0,1-1.574,1.817C1569.157,1687.367,1569.116,1687.368,1569.075,1687.368Z" transform="translate(-1564.079 -1638.038)"/></g></g><g transform="translate(533.012 3860.871)"><g transform="translate(0 0)"><path class="e" d="M1116.665,1524.442a6.8,6.8,0,0,1-3.05.218l-1.42,48.648a1.7,1.7,0,0,0,1.65,1.749h.051a1.7,1.7,0,0,0,1.7-1.65l1.433-49.086C1116.9,1524.36,1116.789,1524.406,1116.665,1524.442Z" transform="translate(-1112.194 -1524.321)"/></g></g><g transform="translate(755.596 3994.446)"><g transform="translate(0 0)"><path class="g" d="M1431.745,1765.023a1.7,1.7,0,0,1-1.7-1.606l-2.675-48.16a1.7,1.7,0,1,1,3.395-.189l2.675,48.16a1.7,1.7,0,0,1-1.6,1.792C1431.808,1765.022,1431.776,1765.023,1431.745,1765.023Z" transform="translate(-1427.371 -1713.463)"/></g></g><g transform="translate(527.804 3810.983)"><g transform="translate(0)"><path class="g" d="M1422.521,1577.464l-214.391-123.783-94.963,49.714-6.954,4.016a2.784,2.784,0,0,0-1.392,2.41v1.887a2.806,2.806,0,0,0,1.4,2.429l224.984,129.9a4.469,4.469,0,0,0,4.468,0l99.2-57.276a3.744,3.744,0,0,0,1.871-3.242v-2.953Z" transform="translate(-1104.82 -1453.681)"/></g></g><g transform="translate(528.04 3804.175)"><g transform="translate(0 0)"><path class="k" d="M1333.539,1634.659l-228.266-131.793a.236.236,0,0,1,0-.408l99.642-57.53a6.626,6.626,0,0,1,6.626,0l225.307,130.084Z" transform="translate(-1105.155 -1444.04)"/></g></g><g transform="translate(651.379 3903.596)"><g transform="translate(0 0)"><path class="d" d="M1279.8,1584.987c.016,0,.03.015.046.03a.857.857,0,0,0,.016-.2A.23.23,0,0,1,1279.8,1584.987Z" transform="translate(-1279.801 -1584.819)"/></g></g><g transform="translate(643.278 3906.929)"><g transform="translate(0 0)"><path class="l" d="M1269.9,1589.538l-1.547,10.892c-.214,1.508,1.559,2.73,3.959,2.73s4.52-1.222,4.734-2.73h.04l1.547-10.892Z" transform="translate(-1268.33 -1589.538)"/></g></g><g transform="translate(640.123 3888.403)"><g transform="translate(19.251 12.703)"><path class="h" d="M1294.243,1587.87a3.293,3.293,0,1,1,3.12-3.288A3.211,3.211,0,0,1,1294.243,1587.87Zm0-6.066a2.783,2.783,0,1,0,2.61,2.777A2.7,2.7,0,0,0,1294.243,1581.8Z" transform="translate(-1291.122 -1581.294)"/></g><g transform="translate(3.282 6.969)"><path class="l" d="M1272.942,1586.026c-.953-1.419-1.878,1.909-2.116.406-.247-1.558-2.311-.905-2.317-2.5-.005-1.131,1.037-2.338,1.5-3.317a7.091,7.091,0,0,1,2.31-2.884,13.661,13.661,0,0,1,4.311-1.854,33.349,33.349,0,0,1,5.158-1.025l.48-1.682h5.406v15.791a3.088,3.088,0,0,1-.1.655,6.583,6.583,0,0,1-8.854,4.533Z" transform="translate(-1268.509 -1573.174)"/></g><g transform="translate(0 0)"><path class="d" d="M1289.568,1569.86a3.823,3.823,0,0,1-1.167,1.647c-2.387,2.2-4.612,2.307-6.64,4.173-1.4,1.281-2.764,4.685-2.674,7.321a1.5,1.5,0,0,0-.071.275.976.976,0,0,0,.09.2,3.738,3.738,0,0,0,.808,2.123,5.024,5.024,0,0,0,3.355,1.537,4.427,4.427,0,0,0,3.284-.951c-.1.091.1,3.222-.121,3.795a4.65,4.65,0,0,1-2.556,2.721c-2.535,1.075-5.4-.226-7.453-1.782-1.242-.943-2.7-3.71-4.208-3.953l-3.069-.494a3.33,3.33,0,0,1-3.589-2.837c-1.615-5.783-3.333-11.213,1.316-16.5,4.307-4.868,16.612-5.069,21.638-.732A3.379,3.379,0,0,1,1289.568,1569.86Z" transform="translate(-1263.862 -1563.306)"/></g><g transform="translate(7.297 14.547)"><path class="d" d="M1281.437,1593.983l-6.825-2.242-.418-7.836h7.243Z" transform="translate(-1274.194 -1583.904)"/></g><g transform="translate(11.983 15.666)"><path class="l" d="M1280.994,1589.527c.5,1.816,1.97,2.984,3.291,2.609s1.99-2.152,1.494-3.968-1.97-2.984-3.291-2.608S1280.5,1587.712,1280.994,1589.527Z" transform="translate(-1280.83 -1585.49)"/></g><g transform="translate(17.487 13.926)"><rect class="h" width="7.652" height="0.51" transform="translate(0 3.138) rotate(-24.214)"/></g><g transform="translate(15.873 8.159)"><rect class="d" width="2.881" height="11.042" rx="1.44"/></g></g><g transform="translate(651.366 3977.104)"><g transform="translate(0 24.551)"><path class="h" d="M1295.7,1724.174c-2.089-1.642-6.871,1.218-9.165,1.729-1.482.33-6.888.637-6.469,3.206a8.906,8.906,0,0,0-.269,1.969,7.638,7.638,0,0,0,.238,2.507,6.689,6.689,0,0,0,3.172,1.9,4.055,4.055,0,0,0,.428-.051,9.5,9.5,0,0,0,2.839-1.333c2.829-1.734,7.068-3.257,9.2-5.878C1296.615,1727.058,1296.88,1725.1,1295.7,1724.174Z" transform="translate(-1279.782 -1723.671)"/></g><g transform="translate(0.962 21.323)"><path class="f" d="M2.906,0H7.389a2.906,2.906,0,0,1,2.906,2.906v0a2.9,2.9,0,0,1-2.9,2.9H2.907A2.907,2.907,0,0,1,0,2.906v0A2.906,2.906,0,0,1,2.906,0Z" transform="translate(0 10.294) rotate(-89.292)"/></g><g transform="translate(0.094 0)"><path class="h" d="M1280.045,1688.907l-.13,24.812a3.416,3.416,0,0,0,3.129,2.914l1.7.125a3.416,3.416,0,0,0,3.663-3.571l3.044-24.281Z" transform="translate(-1279.915 -1688.907)"/></g></g><g transform="translate(627.148 3954.28)"><g transform="translate(0 0)"><path class="h" d="M1284.857,1671.187l-28.4,17.715-6.875-4.141a8.46,8.46,0,0,1-4.093-7.249v-9.874l1.462,1.082,3.142-1.347,24.97-10.7.482-.041c.313-.028.619-.041.925-.041a11.2,11.2,0,0,1,10.859,8.446c0,.013.007.027.007.04A5.633,5.633,0,0,1,1284.857,1671.187Z" transform="translate(-1245.49 -1656.587)"/></g></g><g transform="translate(627.148 3961.584)"><g transform="translate(0 0)"><path class="d" d="M1302.184,1675.382a11.212,11.212,0,0,0-10.86-8.453c-.307,0-.612.013-.925.041l-.482.04-2.578,1.1-14.7,6.308a20.541,20.541,0,0,1-20.307-2.355l-2.239-1.654-4.6-3.4v13.54a8.46,8.46,0,0,0,4.093,7.249l6.875,4.141,8.011,4.821a10.481,10.481,0,0,0,10.955-.082l24.29-15.151A5.622,5.622,0,0,0,1302.184,1675.382Z" transform="translate(-1245.49 -1666.929)"/></g></g><g transform="translate(655.853 3894.911)"><g transform="translate(0 0)"><path class="e" d="M1338.033,1588.175l-26.751-15.324a2.372,2.372,0,0,0-1.644-.282c-.759.175-1.469.413-1.468,1.077l-.04,24.865,2.353,1.39c-.77.375-24.252,11.8-24.29,11.833l-.057.959a1.156,1.156,0,0,0,.577,1c4,2.315,27.412,15.851,27.412,15.851a2.489,2.489,0,0,0,2.49,0l22.255-12.863a.751.751,0,0,0,.376-.65l.039-25.7A2.489,2.489,0,0,0,1338.033,1588.175Z" transform="translate(-1286.136 -1572.522)"/><g transform="translate(21.908 0.342)"><path class="h" d="M1347.609,1616.091l-30.39-17.339-.062-24.81a.931.931,0,0,1,1.394-.811l28.024,16.054a1.965,1.965,0,0,1,.989,1.7Z" transform="translate(-1317.157 -1573.007)"/><g transform="translate(2.085 3.008)"><path class="d" d="M1320.11,1598.661v-21.4l26.152,15.011.053,21.428Z" transform="translate(-1320.11 -1577.266)"/></g></g><g transform="translate(0.023 25.908)"><path class="o" d="M1338.488,1626.724l-30.374-17.516-21.48,12.415a.932.932,0,0,0,0,1.613l27.963,16.159a1.964,1.964,0,0,0,1.968,0Z" transform="translate(-1286.168 -1609.208)"/></g><g transform="translate(13.117 29.519)"><g transform="translate(27.433 10.482)"><path class="e" d="M1343.554,1630.342l2.062,1.184,2.084-1.178-2.061-1.184Z" transform="translate(-1343.554 -1629.164)"/></g><g transform="translate(24.391 8.735)"><path class="e" d="M1339.246,1627.868l2.062,1.184,2.084-1.178-2.061-1.184Z" transform="translate(-1339.246 -1626.69)"/></g><g transform="translate(21.348 6.988)"><path class="e" d="M1334.938,1625.394l2.062,1.184,2.084-1.178-2.061-1.184Z" transform="translate(-1334.938 -1624.216)"/></g><g transform="translate(18.306 5.241)"><path class="e" d="M1330.63,1622.92l2.061,1.184,2.084-1.178-2.061-1.184Z" transform="translate(-1330.63 -1621.742)"/></g><g transform="translate(15.264 3.494)"><path class="e" d="M1326.322,1620.446l2.062,1.184,2.083-1.178-2.061-1.184Z" transform="translate(-1326.322 -1619.268)"/></g><g transform="translate(12.221 1.746)"><path class="e" d="M1322.014,1617.973l2.061,1.184,2.085-1.179-2.062-1.184Z" transform="translate(-1322.014 -1616.794)"/></g><g transform="translate(9.179)"><path class="e" d="M1317.706,1615.5l3.455,1.984,2.084-1.178-3.456-1.984Z" transform="translate(-1317.706 -1614.321)"/></g><g transform="translate(24.509 12.136)"><path class="e" d="M1339.413,1632.683l2.061,1.184,2.084-1.178-2.061-1.184Z" transform="translate(-1339.413 -1631.505)"/></g><g transform="translate(21.466 10.388)"><path class="e" d="M1335.1,1630.209l2.061,1.184,2.084-1.178-2.061-1.184Z" transform="translate(-1335.104 -1629.031)"/></g><g transform="translate(18.423 8.641)"><path class="e" d="M1330.8,1627.735l2.061,1.184,2.084-1.178-2.062-1.184Z" transform="translate(-1330.796 -1626.557)"/></g><g transform="translate(15.381 6.894)"><path class="e" d="M1326.488,1625.261l2.062,1.184,2.084-1.178-2.062-1.184Z" transform="translate(-1326.488 -1624.083)"/></g><g transform="translate(12.338 5.147)"><path class="e" d="M1322.18,1622.788l2.061,1.183,2.084-1.178-2.062-1.184Z" transform="translate(-1322.18 -1621.609)"/></g><g transform="translate(9.296 3.4)"><path class="e" d="M1317.872,1620.314l2.062,1.184,2.084-1.179-2.061-1.183Z" transform="translate(-1317.872 -1619.136)"/></g><g transform="translate(6.254 1.653)"><path class="e" d="M1313.565,1617.84l2.061,1.184,2.084-1.178-2.061-1.184Z" transform="translate(-1313.565 -1616.662)"/></g><g transform="translate(21.583 13.789)"><path class="e" d="M1335.271,1635.024l2.062,1.184,2.084-1.178-2.061-1.184Z" transform="translate(-1335.271 -1633.846)"/></g><g transform="translate(18.541 12.042)"><path class="e" d="M1330.963,1632.55l2.061,1.184,2.084-1.178-2.062-1.184Z" transform="translate(-1330.963 -1631.372)"/></g><g transform="translate(15.499 10.294)"><path class="e" d="M1326.655,1630.077l2.061,1.183,2.084-1.178-2.061-1.184Z" transform="translate(-1326.655 -1628.898)"/></g><g transform="translate(12.456 8.547)"><path class="e" d="M1322.347,1627.6l2.061,1.184,2.084-1.178-2.061-1.184Z" transform="translate(-1322.347 -1626.424)"/></g><g transform="translate(9.414 6.801)"><path class="e" d="M1318.039,1625.129l2.061,1.184,2.084-1.178-2.061-1.184Z" transform="translate(-1318.039 -1623.951)"/></g><g transform="translate(5.057 4.299)"><path class="e" d="M1311.87,1621.586l3.375,1.939,2.084-1.178-3.375-1.939Z" transform="translate(-1311.87 -1620.408)"/></g><g transform="translate(3.329 3.307)"><path class="e" d="M1309.423,1620.181l2.061,1.184,2.084-1.178-2.061-1.184Z" transform="translate(-1309.423 -1619.003)"/></g><g transform="translate(6.085 8.683)"><path class="e" d="M1313.325,1627.794l2.061,1.184,2.084-1.178-2.061-1.184Z" transform="translate(-1313.325 -1626.616)"/></g><g transform="translate(3.042 6.936)"><path class="e" d="M1309.017,1625.32l2.061,1.184,2.084-1.178-2.061-1.184Z" transform="translate(-1309.017 -1624.142)"/></g><g transform="translate(0 5.189)"><path class="e" d="M1304.709,1622.846l2.062,1.184,2.083-1.178-2.061-1.184Z" transform="translate(-1304.709 -1621.668)"/></g><g transform="translate(9.127 10.429)"><path class="e" d="M1331.115,1635.635l-11.4-6.546-2.083,1.178,11.531,6.622Z" transform="translate(-1317.633 -1629.089)"/></g></g><g transform="translate(11.375 40.706)"><path class="e" d="M1318.116,1635.909l-9.824-5.672a.567.567,0,0,0-.583.008l-5.368,3.307a.209.209,0,0,0,0,.359l9.821,5.674a.568.568,0,0,0,.583-.008l5.372-3.309A.209.209,0,0,0,1318.116,1635.909Z" transform="translate(-1302.242 -1630.161)"/></g></g></g><g transform="translate(631.244 3914.945)"><g transform="translate(0 0)"><path class="l" d="M1290.74,1620.2c-1.845,1.374-11.27,8.323-15.567,10.263a18.017,18.017,0,0,1-7.471,1.612,15.748,15.748,0,0,1-5.413-.96,11.537,11.537,0,0,1-6.824-6.125,10.13,10.13,0,0,1-.639-2.031l-3.471-17.133c-.419-2.064,1.268-4.211,3.763-4.794s4.866.619,5.285,2.688l3.471,17.133c.005.011,0,.022.009.033a4.213,4.213,0,0,0,2.809,3.049,6.516,6.516,0,0,0,4.878-.248c2.371-1.072,9.356-5.955,13.56-9.085a5.1,5.1,0,0,1,6.433.105C1293.113,1616.253,1292.743,1618.718,1290.74,1620.2Z" transform="translate(-1251.29 -1600.889)"/></g></g><g transform="translate(627.126 3914.048)"><g transform="translate(0 0)"><path class="f" d="M1280.6,1653.715a5.251,5.251,0,0,1-3.489,5.107c-1.279.456-3.407,1.183-5.087,1.578a11.187,11.187,0,0,1-1.326.238,22.428,22.428,0,0,1-14.043-3.2l-9.248-5.386a3.954,3.954,0,0,1-1.952-3.5l.972-38.387a11.163,11.163,0,0,1,5.542-9.629,8.769,8.769,0,0,1,4.325-.911,18.864,18.864,0,0,1,2.414.163,28.406,28.406,0,0,1,11.4,3.972c2.394,1.516,5.366,2.5,7.283,4.393a6.414,6.414,0,0,1,1.979,4.645C1279.421,1614.145,1280.6,1653.715,1280.6,1653.715Z" transform="translate(-1245.459 -1599.619)"/></g><g class="p" transform="translate(24.505 11.718)"><path class="f" d="M1283.418,1618.292a.574.574,0,0,1-.251.274,21.029,21.029,0,0,0-.325,3.934c-.013,2.462.1,5-.775,7.3a32.756,32.756,0,0,0-1.748,4.134c-.8,3.482,1.625,6.814,2.326,10.309.775,3.89-.605,7.84-.972,11.785a36.1,36.1,0,0,0,.551,9.242c1.68-.395,3.808-1.122,5.087-1.578a5.251,5.251,0,0,0,3.489-5.107s-1.095-36.59-1.215-40.6C1287.783,1616,1284.819,1615.155,1283.418,1618.292Z" transform="translate(-1280.158 -1616.212)"/></g></g><g transform="translate(655.651 3924.849)"><g transform="translate(0 0)"><path class="l" d="M1319.861,1638.168c-1.353,1.693-8.272,10.254-11.567,12.659a10.076,10.076,0,0,1-5.928,2.034,9.758,9.758,0,0,1-4.538-1.124,13.612,13.612,0,0,1-6.28-7.411,18.073,18.073,0,0,1-.755-2.473l-4.791-20.87c-.579-2.514.558-5.149,2.532-5.881s4.052.712,4.631,3.232l4.791,20.87c.006.013.006.027.011.04a5.436,5.436,0,0,0,2.644,3.693,3.686,3.686,0,0,0,3.963-.345c1.817-1.329,6.976-7.348,10.058-11.2a3.2,3.2,0,0,1,5.275.07A5.691,5.691,0,0,1,1319.861,1638.168Z" transform="translate(-1285.851 -1614.912)"/></g></g><g transform="translate(653.315 3924.563)"><g transform="translate(0)"><path class="f" d="M1300.2,1638.633l-5.938-19.914a5.829,5.829,0,0,0-2.865-3.489,6.076,6.076,0,0,0-4.552-.484,5.925,5.925,0,0,0-3.566,2.8,5.687,5.687,0,0,0-.5,4.443l5.954,19.98a15.8,15.8,0,0,0,1.022,2.576l.251.493a.689.689,0,0,0,.831.336l.534-.176c.308-.1.622-.217.907-.334a23.638,23.638,0,0,0,7.6-4.838l.334-.319a.657.657,0,0,0,.136-.773Z" transform="translate(-1282.543 -1614.509)"/></g></g><g transform="translate(671.488 3970.036)"><g transform="translate(0 40.364)"><path class="h" d="M1325.518,1736.6c-2.263-1.779-7.444,1.32-9.93,1.874-1.607.358-7.463.691-7.01,3.475a9.608,9.608,0,0,0-.292,2.133,8.291,8.291,0,0,0,.258,2.717,7.25,7.25,0,0,0,3.438,2.063,4.342,4.342,0,0,0,.463-.055,10.3,10.3,0,0,0,3.076-1.444c3.066-1.879,7.659-3.529,9.965-6.369C1326.515,1739.723,1326.8,1737.606,1325.518,1736.6Z" transform="translate(-1308.276 -1736.052)"/></g><g transform="translate(1.045 36.867)"><rect class="f" width="6.298" height="11.155" rx="3.149" transform="translate(6.298 11.23) rotate(-179.314)"/></g><g transform="translate(0.101 0)"><path class="d" d="M1309.108,1679.9l-.689,39.641a3.7,3.7,0,0,0,3.391,3.157l1.843.136a3.7,3.7,0,0,0,3.97-3.869l3.049-40.071Z" transform="translate(-1308.419 -1678.898)"/></g></g><g transform="translate(740.292 3887.209)"><g transform="translate(2.527 1.045)"><path class="e" d="M1460.74,1579.174l-1.015.736-27.915-16.816-22.532,15.636,24.531,13.682a5.918,5.918,0,0,0,5.547.116l20.985-11.253a1.374,1.374,0,0,0,.4-2.1Z" transform="translate(-1409.279 -1563.094)"/></g><g transform="translate(0 0)"><path class="q" d="M1432.975,1592.463l-27.274-15.212,22.532-15.636,31.456,17.124Z" transform="translate(-1405.701 -1561.615)"/></g><g transform="translate(17.672 4.464)"><path class="e" d="M1436.809,1567.936l17.989,9.183-7.517,2.917-16.557-8.227Z" transform="translate(-1430.725 -1567.936)"/></g></g><g transform="translate(779.498 3844.379)"><g transform="translate(0 0)"><path class="l" d="M1494.078,1506.121v30.754a11.746,11.746,0,0,1-4.78,9.443l-19.885,11.85a5.153,5.153,0,0,1-6.087-8.316l19.878-11.85a1.411,1.411,0,0,0,.566-1.127v-30.754a5.153,5.153,0,0,1,10.307,0Z" transform="translate(-1461.217 -1500.968)"/></g></g><g transform="translate(801.913 3843.081)"><g transform="translate(0 0)"><path class="f" d="M1498.205,1535.224a5.94,5.94,0,0,0,5.485-2.044,3.108,3.108,0,0,0,.78-2.084v-24.781c0-3.969-2.576-7.185-5.758-7.185s-5.757,3.216-5.757,7.185v25.678a1.815,1.815,0,0,0,1.107,1.671A18.436,18.436,0,0,0,1498.205,1535.224Z" transform="translate(-1492.956 -1499.13)"/></g></g><g transform="translate(774.977 3895.251)"><g transform="translate(0 0)"><path class="l" d="M1455.31,1580.728h0a1.641,1.641,0,0,0,2.313-.038l4.755-4.915a1.641,1.641,0,0,0-.038-2.313h0a1.641,1.641,0,0,0-2.314.039l-4.754,4.915A1.64,1.64,0,0,0,1455.31,1580.728Z" transform="translate(-1454.814 -1573.003)"/></g></g><g transform="translate(751.388 3871.816)"><g transform="translate(0 0)"><path class="l" d="M1446.46,1548.337c.328-4.081-.182-9.208-4.828-8.44a3.291,3.291,0,0,1-1.251-.032,1.412,1.412,0,0,1-.381.442l-16.478,13.211a5.153,5.153,0,0,0,6.087,8.316l16.484-13.21C1446.219,1548.531,1446.339,1548.434,1446.46,1548.337Z" transform="translate(-1421.412 -1539.82)"/></g></g><g transform="translate(650.351 3811.776)"><g transform="translate(0 0)"><path class="f" d="M1302.554,1456.469h0a3.646,3.646,0,0,1-1.078,5.042l-17.5,11.336a3.645,3.645,0,0,1-5.042-1.078h0a3.645,3.645,0,0,1,1.078-5.042l17.5-11.336A3.646,3.646,0,0,1,1302.554,1456.469Z" transform="translate(-1278.345 -1454.804)"/></g></g><g transform="translate(678.11 3827.702)"><g transform="translate(0 0)"><path class="j" d="M1346.931,1479.972h0a4.01,4.01,0,0,1-2.367,5.153l-21.509,7.967a4.01,4.01,0,0,1-5.153-2.367h0a4.01,4.01,0,0,1,2.367-5.153l21.508-7.966A4.01,4.01,0,0,1,1346.931,1479.972Z" transform="translate(-1317.652 -1477.354)"/></g></g><g transform="translate(674.199 3836.646)"><g transform="translate(0 0)"><path class="l" d="M1315.517,1501.158c-.047,0-.093,0-.14,0a3.4,3.4,0,0,1-3.261-3.535l.053-1.3a3.4,3.4,0,0,1,.189-.99,8.965,8.965,0,0,1,4.158-4.9,3.4,3.4,0,1,1,3.266,5.965,2.169,2.169,0,0,0-.844.828l-.027.667A3.4,3.4,0,0,1,1315.517,1501.158Z" transform="translate(-1312.114 -1490.017)"/></g></g><g transform="translate(644.679 3822.432)"><g transform="translate(0 4.144)"><path class="l" d="M1270.809,1483.484h0a1.641,1.641,0,0,0,2.313-.038l4.755-4.915a1.641,1.641,0,0,0-.038-2.314h0a1.641,1.641,0,0,0-2.313.039l-4.754,4.915A1.64,1.64,0,0,0,1270.809,1483.484Z" transform="translate(-1270.313 -1475.759)"/></g><g transform="translate(3.673 0)"><path class="l" d="M1278.917,1481.032c-.047,0-.093,0-.14,0a3.4,3.4,0,0,1-3.26-3.535l.052-1.3a3.432,3.432,0,0,1,.19-.99,8.967,8.967,0,0,1,4.158-4.9,3.4,3.4,0,1,1,3.266,5.965,2.162,2.162,0,0,0-.844.828l-.027.667A3.4,3.4,0,0,1,1278.917,1481.032Z" transform="translate(-1275.514 -1469.891)"/></g></g><g transform="translate(736.96 3876.468)"><g transform="translate(0 0)"><g transform="translate(1.723)"><path class="e" d="M1405.588,1546.623l12.489,6.867c.631.343.292.155,13.3,7.091a1.915,1.915,0,0,1,.97,1.391l3.317,24.272a1.39,1.39,0,0,1-2.15,1.391l-25.788-13.957a1.915,1.915,0,0,1-.97-1.391l-3.317-24.271A1.391,1.391,0,0,1,1405.588,1546.623Z" transform="translate(-1403.422 -1546.405)"/></g><g transform="translate(0 0.497)"><path class="d" d="M1403.147,1547.327l12.49,6.866,13.3,7.091a1.913,1.913,0,0,1,.97,1.391l3.317,24.272a1.39,1.39,0,0,1-2.15,1.39l-25.788-13.957a1.917,1.917,0,0,1-.97-1.391L1401,1548.718A1.39,1.39,0,0,1,1403.147,1547.327Z" transform="translate(-1400.982 -1547.109)"/></g></g><g transform="translate(12.951 19.858)"><path class="k" d="M1422.288,1577.3c0,.946-.664,1.33-1.484.857a3.277,3.277,0,0,1-1.484-2.57c0-.946.664-1.33,1.484-.856A3.28,3.28,0,0,1,1422.288,1577.3Z" transform="translate(-1419.321 -1574.524)"/></g></g><g transform="translate(538.191 3798.828)"><g transform="translate(0 0.884)"><g transform="translate(2.165 143.302)"><g class="c"><path class="r" d="M1129.44,1659.309c7.795,4.5,20.433,4.5,28.228,0s7.795-11.8,0-16.3-20.434-4.5-28.228,0S1121.645,1654.808,1129.44,1659.309Z" transform="translate(-1123.594 -1639.635)"/></g></g><g transform="translate(0 28.409)"><path class="d" d="M1129.065,1498.564a20.135,20.135,0,0,0-.738,8.561,19.593,19.593,0,0,0,.951,4.145l5.422,15.429a3.812,3.812,0,0,1-2.341,4.855,4.108,4.108,0,0,1-.932.2,3.808,3.808,0,0,1-3.922-2.543l-5.42-15.414a28,28,0,0,1-.3-17.506l5.2-16.675a3.817,3.817,0,0,1,7.284,2.287Z" transform="translate(-1120.528 -1476.948)"/></g><g transform="translate(0.084 58.251)"><path class="l" d="M1132.394,1543.967a4.106,4.106,0,0,1-.932.2,3.808,3.808,0,0,1-3.922-2.543l-5.42-15.414a27.916,27.916,0,0,1-1.472-7.009,26.532,26.532,0,0,0,7.715.335,19.6,19.6,0,0,0,.951,4.145l5.422,15.429A3.812,3.812,0,0,1,1132.394,1543.967Z" transform="translate(-1120.647 -1519.203)"/></g><g transform="translate(3.414 68.608)"><path class="l" d="M1128.446,1581.818l-3.084-37.1.8-8.879,18.921,2.768,10.95-4.74-1.174,46.935s-3.951,34.384-4,34.733a22.922,22.922,0,0,0-.413,4.764,9.156,9.156,0,0,1-6.441-2.16,4.841,4.841,0,0,1,.309-1.725c.007.052.018.077.023-.046l-.628-32.73-2.2-32.129-.848,14.979-1.031,15.254-6.271,36.843c-2.011-.019-3.362-.066-5.37-.166-.08-.041-.161-.08-.241-.122a3.834,3.834,0,0,1,.188-.513Z" transform="translate(-1125.362 -1533.869)"/></g><g transform="translate(26.722 154.686)"><path class="h" d="M1159.743,1659.987c2.6,1.838,2.347,3.559,6.246,2.6a7.232,7.232,0,0,0,3.375-1.617,2.672,2.672,0,0,0,.639-3.228,4.321,4.321,0,0,0-2.823-1.568,17.4,17.4,0,0,0-5.6-.323,4.781,4.781,0,0,0-2.513.825C1157.685,1657.79,1158.578,1659.162,1159.743,1659.987Z" transform="translate(-1158.366 -1655.755)"/></g><g transform="translate(5.701 148.612)"><rect class="s" width="6.589" height="7.653" rx="1.541" transform="translate(6.589 7.653) rotate(180)"/></g><g transform="translate(22.59 151.673)"><path class="l" d="M1156.766,1651.488a6.823,6.823,0,0,1,1.756,1.26,25.19,25.19,0,0,1,5.324,5.439,4.585,4.585,0,0,1-3.172,2.514,21.61,21.61,0,0,1-2.472-.874,13.474,13.474,0,0,1-5.458-4.525c-.165-.238-.323-.559-.16-.8l2.177-2.107c2.181-2.111,5.4.9,7.6,2.049.831.434,1.775,1.037,1.807,1.974.03.876-.778,1.544-1.57,1.919a7.538,7.538,0,0,1-2.477.687Z" transform="translate(-1152.515 -1651.488)"/></g><g transform="translate(21.076 155.024)"><rect class="h" width="3.029" height="7.261" rx="1.431"/></g><g transform="translate(20.252 151.869)"><path class="h" d="M1150.351,1651.969a3.457,3.457,0,0,1,3.157.458c1.527.922,2.659,2.429,3.992,3.588,1.838,1.6,3.689,2.492,5.938,1.464.74.45,1.259.968,1.236,1.565-.033.869-1.593,1.985-2.28,2.458-2.16,1.487-5.633-.9-7.39-1.792-1.384-.7-2.852-.573-4.17-1.16C1149.061,1657.758,1148.5,1653.637,1150.351,1651.969Z" transform="translate(-1149.205 -1651.766)"/></g><g transform="translate(7.52 151.029)"><rect class="h" width="2.951" height="7.074" rx="1.475"/></g><g transform="translate(5.479 146.997)"><path class="h" d="M1131.436,1652.041h1.188a3.15,3.15,0,0,0,3.151-3.15v-1.016a3.008,3.008,0,0,0-3.008-3.008h-1.472a3.009,3.009,0,0,0-3.009,3.008v1.016A3.151,3.151,0,0,0,1131.436,1652.041Z" transform="translate(-1128.286 -1644.867)"/></g><g transform="translate(2.83 60.86)"><path class="h" d="M1152.353,1522.9l2.208,3.458a16.56,16.56,0,0,1,2.6,9.107l-.592,47.029s-19.045,10.516-29.925-1.415l-1.131-33.659s-3.906-18.963,3.891-23.382Z" transform="translate(-1124.535 -1522.898)"/></g><g transform="translate(5.554 26.618)"><path class="f" d="M1131.9,1505.688a28.746,28.746,0,0,1-.071,3.913,1.817,1.817,0,0,0,.827,1.7,23.919,23.919,0,0,0,3.492,1.817,19.029,19.029,0,0,0,11.248,1.468l.442-.107c2.145-.549,6.814-1.818,7.235-4.476a1.337,1.337,0,0,0,.035-.328c-.007-.249-.021-.506-.035-.762v-11.932c1.162-3.458,3.293-5.924,2.231-10.314a15.618,15.618,0,0,0-2.488-5.588,15.064,15.064,0,0,0-8.425-5.439c-1.148-.328-2.281-.6-3.307-.813a20.39,20.39,0,0,0-6.643-.249,9.526,9.526,0,0,0-5.952,2.644,5.46,5.46,0,0,0-.5.627c-2.766,4.149-1.3,9.951-.292,14.456A74.7,74.7,0,0,1,1131.9,1505.688Z" transform="translate(-1128.393 -1474.411)"/></g><g transform="translate(24.365 16.25)"><path class="d" d="M1155.084,1459.9c-.014,0-.028.016-.042.031a.961.961,0,0,1-.014-.2A.245.245,0,0,0,1155.084,1459.9Z" transform="translate(-1155.028 -1459.73)"/></g><g transform="translate(14.034 16.368)"><path class="l" d="M1140.4,1470.87h8.5l1.048-6.256.786-4.717h-8.5Z" transform="translate(-1140.4 -1459.898)"/></g><g class="t" transform="translate(18.045 21.643)"><path class="l" d="M1146.08,1467.367l4.219,6.41h.269l1.048-6.255Z" transform="translate(-1146.08 -1467.367)"/></g><g transform="translate(23.214 14.317)"><path class="l" d="M1153.976,1457.09a.711.711,0,0,1-.542.045c-.018-.046-.009-.1-.036-.142Z" transform="translate(-1153.398 -1456.993)"/></g><g transform="translate(25.913 22.899)"><path class="l" d="M1157.7,1469.851c.1.007.2.027.3.04l-.779-.746C1157.386,1469.376,1157.544,1469.614,1157.7,1469.851Z" transform="translate(-1157.221 -1469.145)"/></g><g transform="translate(13.365 26.619)"><path class="l" d="M1139.825,1477.157c1.3,1.91,5.658,1.225,9.815-1.516-1.153-.335-2.286-.606-3.313-.816a20.542,20.542,0,0,0-6.64-.251A2.87,2.87,0,0,0,1139.825,1477.157Z" transform="translate(-1139.453 -1474.413)"/></g><g transform="translate(24.745 14.208)"><path class="d" d="M1155.623,1457.01c-.014,0-.028.016-.042.031a.971.971,0,0,1-.014-.2A.248.248,0,0,0,1155.623,1457.01Z" transform="translate(-1155.566 -1456.839)"/></g><g transform="translate(27.224 10.868)"><path class="h" d="M1161.488,1458.3a4.513,4.513,0,0,1-2.085-2.057,2.752,2.752,0,0,1,2.023-4.05,4.519,4.519,0,0,1,2.9.433c1.959.98,2.917,3.048,2.135,4.612a3.1,3.1,0,0,1-2.876,1.57A4.7,4.7,0,0,1,1161.488,1458.3Zm2.6-5.195a3.977,3.977,0,0,0-2.55-.388,2.22,2.22,0,0,0-1.648,3.3,3.974,3.974,0,0,0,1.84,1.807c1.695.847,3.6.479,4.253-.821S1165.779,1453.948,1164.084,1453.1Z" transform="translate(-1159.077 -1452.11)"/></g><g transform="translate(13.762 2.092)"><path class="l" d="M1157.083,1453c-.089,2.508-.52,4.984-1.989,6.824a8.66,8.66,0,0,1-6.709,2.932,7.443,7.443,0,0,1-3.994-.88c-2.285-1.368-3.354-4.316-3.934-7.1a23.457,23.457,0,0,1-.43-3.209,11.952,11.952,0,0,1,.356-3.632,10.456,10.456,0,0,1,4.572-5.961,16.475,16.475,0,0,1,6.947-2.2,5.572,5.572,0,0,1,3.489.423,2.973,2.973,0,0,1,1.41,1.955,2.277,2.277,0,0,1,.03.9c.074,2.28.148,4.545.222,6.825C1157.083,1450.9,1157.113,1451.939,1157.083,1453Z" transform="translate(-1140.015 -1439.683)"/></g><g transform="translate(9.886)"><path class="h" d="M1134.53,1447.845a15.743,15.743,0,0,0,.974,5.552,14.058,14.058,0,0,0,4.2,6.245c1.583,1.231,4.819,2.39,6.439.64,1.588-1.717.7-4.786,2.273-6.516a6.443,6.443,0,0,1,1.663-1.16,12.133,12.133,0,0,0,3.558-2.807c2.414-2.994,2.035-9.04-1.329-11.284a12.06,12.06,0,0,0-9.345-1.415,10.8,10.8,0,0,0-2.864,1.249c-.049.035-.1.064-.162.106C1136.823,1440.452,1134.571,1446.006,1134.53,1447.845Z" transform="translate(-1134.526 -1436.721)"/></g><g transform="translate(23.594 12.276)"><path class="l" d="M1154.514,1454.2a.714.714,0,0,1-.542.044c-.018-.046-.009-.1-.036-.142Z" transform="translate(-1153.936 -1454.103)"/></g><g transform="translate(24.614 12.725)"><path class="h" d="M1155.569,1459.758l3.923-1.468,5.359-3.088-.267-.463-5.319,3.069-3.883,1.448Z" transform="translate(-1155.382 -1454.74)"/></g><g transform="translate(21.753 11.298)"><path class="l" d="M1151.333,1454.5a4.064,4.064,0,0,0,.819,2.347,4.374,4.374,0,0,0,1.044,1.2,1.867,1.867,0,0,0,1.505.364c1.615-.393,1.463-2.768.963-3.932a2.843,2.843,0,0,0-2.158-1.744A1.9,1.9,0,0,0,1151.333,1454.5Z" transform="translate(-1151.33 -1452.718)"/></g><g transform="translate(24.553 33.282)"><path class="f" d="M1155.3,1485.986v31.37l.442-.107c2.146-.549,6.814-1.818,7.235-4.476a1.337,1.337,0,0,0,.035-.328c-.007-.249-.021-.506-.035-.762v-11.932c1.162-3.458,3.293-5.924,2.231-10.314a15.618,15.618,0,0,0-2.488-5.588h-5.282A2.145,2.145,0,0,0,1155.3,1485.986Z" transform="translate(-1155.295 -1483.848)"/></g><g transform="translate(8.621 57.284)"><path class="d" d="M1132.743,1522.331a28.432,28.432,0,0,0,.073-3.867l-.029-.63.554.3c5.544,2.995,10.782,5.823,19.62,2.072.315-.134.638-.256.962-.379a10.2,10.2,0,0,0,2.217-1.048l.561-.391v3.258c.014.26.027.521.034.76a1.572,1.572,0,0,1-.038.4c-.465,2.951-5.4,4.227-7.5,4.772a14.485,14.485,0,0,1-3.626.444,21.911,21.911,0,0,1-8.288-1.829,24.37,24.37,0,0,1-3.549-1.843A2.189,2.189,0,0,1,1132.743,1522.331Z" transform="translate(-1132.735 -1517.834)"/></g><g transform="translate(20.504 19.016)"><path class="f" d="M1172.836,1478.947a20.146,20.146,0,0,0,8.441-1.609c1.312-.542,3.876-2.92,5.037-3.732l12.383-9.271a3.812,3.812,0,0,1,5.307.938,4.136,4.136,0,0,1,.447.843,3.809,3.809,0,0,1-1.385,4.466l-13.675,10.958a28,28,0,0,1-16.769,5.033l-21.381-2.872c-2.1-.075-1.67-1.752-1.595-3.85.055-2.106,4.987-6.535,7.093-6.479Z" transform="translate(-1149.561 -1463.647)"/></g><g transform="translate(66.766 12.38)"><g transform="translate(0 5.237)"><path class="l" d="M1222.842,1469.672c-2.234,1.976-5.314,2.144-6.879.375s-1.025-4.806,1.208-6.782,5.313-2.145,6.879-.376S1225.075,1467.7,1222.842,1469.672Z" transform="translate(-1215.067 -1461.666)"/></g><g transform="translate(2.595)"><path class="l" d="M1219.1,1462.3h0a1.427,1.427,0,0,1,.123-2.013l6.413-5.676a1.426,1.426,0,0,1,2.013.123h0a1.426,1.426,0,0,1-.123,2.013l-6.413,5.676A1.426,1.426,0,0,1,1219.1,1462.3Z" transform="translate(-1218.742 -1454.25)"/></g></g></g><g transform="translate(0.467 0)"><path class="d" d="M1148.439,1450.071c2.82.74,5.588-2.237,5.507-5.15s-2.177-5.414-4.575-7.071a13.954,13.954,0,0,0-15.112-.308c-4.141,2.65-5.315,7.052-5.873,11.936s-.781,9.854-1.491,14.718c-1.116,7.654-5.153,14.732-5.661,22.45-.235,3.569.4,7.387,2.741,10.09a13.128,13.128,0,0,0,8.425,4.007c4.364.533,9.051-.467,12.346-3.377,5.85-5.167,5.679-14.3,4.034-21.926s-4.287-15.621-1.814-23.023a3.606,3.606,0,0,1,2.013-2.537Z" transform="translate(-1121.188 -1435.469)"/></g></g><g transform="translate(570.646 3753.111)"><g transform="translate(0 0)"><path class="f" d="M1207.426,1416.087l.029-10.544c.014-5.072-3.556-11.251-7.965-13.8l-28.324-16.348c-2.218-1.285-4.23-1.4-5.683-.558q2.2-1.28,4.409-2.565c1.453-.844,3.466-.722,5.689.559l28.318,16.35c4.41,2.546,7.98,8.723,7.967,13.8l-.03,10.544c-.009,2.518-.9,4.29-2.329,5.124l-4.414,2.565C1206.528,1420.378,1207.419,1418.606,1207.426,1416.087Z" transform="translate(-1165.483 -1371.734)"/></g></g><g transform="translate(568.962 3754.994)"><g transform="translate(0 0)"><path class="j" d="M1171.146,1375.5c-4.41-2.551-8-.5-8.017,4.57l-.03,10.541c-.013,5.074,3.553,11.249,7.97,13.8a12.63,12.63,0,0,1-2.881,5.023,9.844,9.844,0,0,0,10.391-.684l20.809,12.012c4.41,2.548,8,.5,8.018-4.568l.029-10.544c.014-5.071-3.557-11.251-7.966-13.8Z" transform="translate(-1163.099 -1374.401)"/></g></g><g transform="translate(601.146 3935.657)"><g transform="translate(14.751 46.115)"><g transform="translate(0 20.204)"><g transform="translate(1.038 17.806)"><path class="d" d="M1231.029,1753.745a5.213,5.213,0,0,1,2.359-4.085c1.3-.752,2.359-.143,2.359,1.362a5.212,5.212,0,0,1-2.359,4.085C1232.085,1755.859,1231.029,1755.25,1231.029,1753.745Z" transform="translate(-1231.029 -1749.338)"/><path class="d" d="M1231.029,1753.745a5.213,5.213,0,0,1,2.359-4.085c1.3-.752,2.359-.143,2.359,1.362a5.212,5.212,0,0,1-2.359,4.085C1232.085,1755.859,1231.029,1755.25,1231.029,1753.745Z" transform="translate(-1231.029 -1749.338)"/><g transform="translate(0.552 0.201)"><path class="d" d="M1235.349,1749.623l2.033,1.06-3.191,5.816-2.38-1.238.6-3.275Z" transform="translate(-1231.811 -1749.623)"/></g><g transform="translate(2.005 1.04)"><path class="f" d="M1233.868,1755.218a5.213,5.213,0,0,1,2.359-4.085c1.3-.752,2.359-.143,2.359,1.362a5.215,5.215,0,0,1-2.359,4.086C1234.924,1757.332,1233.868,1756.723,1233.868,1755.218Z" transform="translate(-1233.868 -1750.811)"/><path class="f" d="M1233.868,1755.218a5.213,5.213,0,0,1,2.359-4.085c1.3-.752,2.359-.143,2.359,1.362a5.215,5.215,0,0,1-2.359,4.086C1234.924,1757.332,1233.868,1756.723,1233.868,1755.218Z" transform="translate(-1233.868 -1750.811)"/></g></g><g transform="translate(29.403 1.953)"><path class="d" d="M1271.193,1731.3a5.215,5.215,0,0,1,2.359-4.085c1.3-.752,2.359-.143,2.359,1.362a5.213,5.213,0,0,1-2.359,4.085C1272.25,1733.411,1271.194,1732.8,1271.193,1731.3Z" transform="translate(-1271.193 -1726.89)"/><path class="d" d="M1271.193,1731.3a5.215,5.215,0,0,1,2.359-4.085c1.3-.752,2.359-.143,2.359,1.362a5.213,5.213,0,0,1-2.359,4.085C1272.25,1733.411,1271.194,1732.8,1271.193,1731.3Z" transform="translate(-1271.193 -1726.89)"/><g transform="translate(0.552 0.201)"><path class="d" d="M1275.514,1727.175l2.033,1.059-3.191,5.816-2.38-1.238.6-3.276Z" transform="translate(-1271.975 -1727.175)"/></g><g transform="translate(2.005 1.04)"><path class="f" d="M1274.032,1732.769a5.213,5.213,0,0,1,2.359-4.085c1.3-.752,2.359-.142,2.359,1.362a5.213,5.213,0,0,1-2.359,4.085C1275.088,1734.883,1274.032,1734.274,1274.032,1732.769Z" transform="translate(-1274.032 -1728.362)"/><path class="f" d="M1274.032,1732.769a5.213,5.213,0,0,1,2.359-4.085c1.3-.752,2.359-.142,2.359,1.362a5.213,5.213,0,0,1-2.359,4.085C1275.088,1734.883,1274.032,1734.274,1274.032,1732.769Z" transform="translate(-1274.032 -1728.362)"/></g></g><g transform="translate(28.073 18.507)"><path class="d" d="M1269.31,1754.737a5.214,5.214,0,0,1,2.358-4.085c1.3-.752,2.359-.143,2.359,1.362a5.213,5.213,0,0,1-2.359,4.085C1270.366,1756.851,1269.31,1756.241,1269.31,1754.737Z" transform="translate(-1269.31 -1750.33)"/><path class="d" d="M1269.31,1754.737a5.214,5.214,0,0,1,2.358-4.085c1.3-.752,2.359-.143,2.359,1.362a5.213,5.213,0,0,1-2.359,4.085C1270.366,1756.851,1269.31,1756.241,1269.31,1754.737Z" transform="translate(-1269.31 -1750.33)"/><g transform="translate(0.552 0.201)"><path class="d" d="M1273.63,1750.614l2.033,1.059-3.191,5.816-2.38-1.238.6-3.276Z" transform="translate(-1270.091 -1750.614)"/></g><g transform="translate(2.004 1.04)"><path class="f" d="M1272.148,1756.209a5.215,5.215,0,0,1,2.359-4.085c1.3-.752,2.359-.142,2.359,1.362a5.211,5.211,0,0,1-2.359,4.085C1273.2,1758.323,1272.148,1757.714,1272.148,1756.209Z" transform="translate(-1272.148 -1751.802)"/><path class="f" d="M1272.148,1756.209a5.215,5.215,0,0,1,2.359-4.085c1.3-.752,2.359-.142,2.359,1.362a5.211,5.211,0,0,1-2.359,4.085C1273.2,1758.323,1272.148,1757.714,1272.148,1756.209Z" transform="translate(-1272.148 -1751.802)"/></g></g><g transform="translate(0.536 2.541)"><path class="d" d="M1230.317,1732.13a5.215,5.215,0,0,1,2.359-4.085c1.3-.752,2.359-.143,2.359,1.362a5.212,5.212,0,0,1-2.359,4.085C1231.374,1734.244,1230.317,1733.635,1230.317,1732.13Z" transform="translate(-1230.317 -1727.723)"/><path class="d" d="M1230.317,1732.13a5.215,5.215,0,0,1,2.359-4.085c1.3-.752,2.359-.143,2.359,1.362a5.212,5.212,0,0,1-2.359,4.085C1231.374,1734.244,1230.317,1733.635,1230.317,1732.13Z" transform="translate(-1230.317 -1727.723)"/><g transform="translate(0.552 0.201)"><path class="d" d="M1234.638,1728.008l2.033,1.06-3.191,5.816-2.38-1.238.6-3.276Z" transform="translate(-1231.099 -1728.008)"/></g><g transform="translate(2.005 1.04)"><path class="f" d="M1233.156,1733.6a5.213,5.213,0,0,1,2.359-4.086c1.3-.752,2.359-.142,2.359,1.362a5.213,5.213,0,0,1-2.359,4.085C1234.212,1735.717,1233.156,1735.107,1233.156,1733.6Z" transform="translate(-1233.156 -1729.195)"/><path class="f" d="M1233.156,1733.6a5.213,5.213,0,0,1,2.359-4.086c1.3-.752,2.359-.142,2.359,1.362a5.213,5.213,0,0,1-2.359,4.085C1234.212,1735.717,1233.156,1735.107,1233.156,1733.6Z" transform="translate(-1233.156 -1729.195)"/></g></g><path class="k" d="M1264.179,1740.516l-10.438-6.026,10.438-6.026c1.713-.99,1.713-2.608,0-3.6h0a6.91,6.91,0,0,0-6.23,0l-10.438,6.026-10.438-6.026a6.908,6.908,0,0,0-6.229,0c-1.713.989-1.713,2.607,0,3.6l10.437,6.026-10.437,6.026c-1.713.989-1.713,2.608,0,3.6h0a6.908,6.908,0,0,0,6.229,0l10.438-6.026,10.438,6.026a6.91,6.91,0,0,0,6.23,0C1265.892,1743.124,1265.892,1741.5,1264.179,1740.516Z" transform="translate(-1229.559 -1724.124)"/><path class="k" d="M1264.179,1740.516l-10.438-6.026,10.438-6.026c1.713-.99,1.713-2.608,0-3.6h0a6.91,6.91,0,0,0-6.23,0l-10.438,6.026-10.438-6.026a6.908,6.908,0,0,0-6.229,0c-1.713.989-1.713,2.607,0,3.6l10.437,6.026-10.437,6.026c-1.713.989-1.713,2.608,0,3.6h0a6.908,6.908,0,0,0,6.229,0l10.438-6.026,10.438,6.026a6.91,6.91,0,0,0,6.23,0C1265.892,1743.124,1265.892,1741.5,1264.179,1740.516Z" transform="translate(-1229.559 -1724.124)"/></g><g transform="translate(12.696)"><g transform="translate(0 25.209)"><path class="e" d="M1247.536,1736.393c0,1.95,2.353,3.53,5.256,3.53s5.257-1.58,5.257-3.53-2.354-5.181-5.257-5.181S1247.536,1734.443,1247.536,1736.393Z" transform="translate(-1247.536 -1731.212)"/></g><g transform="translate(1.4 25.209)"><path class="k" d="M1249.519,1733.8c0,1.431,1.726,2.59,3.856,2.59s3.857-1.16,3.857-2.59-1.727-2.591-3.857-2.591S1249.519,1732.372,1249.519,1733.8Z" transform="translate(-1249.519 -1731.212)"/></g><g transform="translate(2.898)"><path class="e" d="M1254,1695.516a2.376,2.376,0,0,0-2.359,2.391v23.017a2.359,2.359,0,1,0,4.718,0v-23.017A2.375,2.375,0,0,0,1254,1695.516Z" transform="translate(-1251.639 -1695.516)"/></g></g></g><g transform="translate(0 0)"><path class="g" d="M1208.688,1634.23l3.4,36.472a16.085,16.085,0,0,0,7.849,12.363l29.475,17.366a7.04,7.04,0,0,0,6.96.107l25.73-14.115a11.735,11.735,0,0,0,6.057-9.394h0a4.984,4.984,0,0,0-7.443-4.706l-16.646,9.518a4.256,4.256,0,0,1-6.154-2.363l-10.2-30.956a3.67,3.67,0,0,0-1.857-2.14l-31.9-15.778A3.666,3.666,0,0,0,1208.688,1634.23Z" transform="translate(-1208.671 -1630.217)"/></g></g><g transform="translate(486.271 3898.824)"><g transform="translate(14.753 46.113)"><g transform="translate(0 20.204)"><g transform="translate(1.039 17.807)"><path class="d" d="M1068.37,1701.588a5.215,5.215,0,0,1,2.359-4.085c1.3-.752,2.359-.143,2.359,1.362a5.213,5.213,0,0,1-2.359,4.085C1069.427,1703.7,1068.37,1703.093,1068.37,1701.588Z" transform="translate(-1068.37 -1697.181)"/><path class="d" d="M1068.37,1701.588a5.215,5.215,0,0,1,2.359-4.085c1.3-.752,2.359-.143,2.359,1.362a5.213,5.213,0,0,1-2.359,4.085C1069.427,1703.7,1068.37,1703.093,1068.37,1701.588Z" transform="translate(-1068.37 -1697.181)"/><g transform="translate(0.552 0.201)"><path class="d" d="M1072.691,1697.465l2.033,1.059-3.191,5.816-2.38-1.238.6-3.276Z" transform="translate(-1069.152 -1697.465)"/></g><g transform="translate(2.005 1.04)"><path class="f" d="M1071.209,1703.061a5.213,5.213,0,0,1,2.359-4.086c1.3-.752,2.359-.142,2.359,1.362a5.213,5.213,0,0,1-2.359,4.085C1072.265,1705.174,1071.209,1704.565,1071.209,1703.061Z" transform="translate(-1071.209 -1698.653)"/><path class="f" d="M1071.209,1703.061a5.213,5.213,0,0,1,2.359-4.086c1.3-.752,2.359-.142,2.359,1.362a5.213,5.213,0,0,1-2.359,4.085C1072.265,1705.174,1071.209,1704.565,1071.209,1703.061Z" transform="translate(-1071.209 -1698.653)"/></g></g><g transform="translate(29.405 1.953)"><path class="d" d="M1108.535,1679.14a5.213,5.213,0,0,1,2.359-4.085c1.3-.752,2.359-.142,2.359,1.362a5.215,5.215,0,0,1-2.359,4.086C1109.591,1681.254,1108.535,1680.644,1108.535,1679.14Z" transform="translate(-1108.535 -1674.732)"/><path class="d" d="M1108.535,1679.14a5.213,5.213,0,0,1,2.359-4.085c1.3-.752,2.359-.142,2.359,1.362a5.215,5.215,0,0,1-2.359,4.086C1109.591,1681.254,1108.535,1680.644,1108.535,1679.14Z" transform="translate(-1108.535 -1674.732)"/><g transform="translate(0.552 0.201)"><path class="d" d="M1112.855,1675.017l2.033,1.059-3.191,5.816-2.38-1.238.6-3.276Z" transform="translate(-1109.316 -1675.017)"/></g><g transform="translate(2.004 1.04)"><path class="f" d="M1111.373,1680.612a5.215,5.215,0,0,1,2.359-4.085c1.3-.752,2.359-.143,2.359,1.362a5.213,5.213,0,0,1-2.359,4.085C1112.43,1682.726,1111.373,1682.117,1111.373,1680.612Z" transform="translate(-1111.373 -1676.205)"/><path class="f" d="M1111.373,1680.612a5.215,5.215,0,0,1,2.359-4.085c1.3-.752,2.359-.143,2.359,1.362a5.213,5.213,0,0,1-2.359,4.085C1112.43,1682.726,1111.373,1682.117,1111.373,1680.612Z" transform="translate(-1111.373 -1676.205)"/></g></g><g transform="translate(28.073 18.507)"><path class="d" d="M1106.65,1702.58a5.213,5.213,0,0,1,2.359-4.085c1.3-.752,2.359-.143,2.359,1.362a5.213,5.213,0,0,1-2.359,4.086C1107.707,1704.694,1106.65,1704.085,1106.65,1702.58Z" transform="translate(-1106.65 -1698.173)"/><path class="d" d="M1106.65,1702.58a5.213,5.213,0,0,1,2.359-4.085c1.3-.752,2.359-.143,2.359,1.362a5.213,5.213,0,0,1-2.359,4.086C1107.707,1704.694,1106.65,1704.085,1106.65,1702.58Z" transform="translate(-1106.65 -1698.173)"/><g transform="translate(0.552 0.201)"><path class="d" d="M1110.97,1698.457l2.033,1.06-3.191,5.816-2.38-1.238.6-3.275Z" transform="translate(-1107.432 -1698.457)"/></g><g transform="translate(2.005 1.04)"><path class="f" d="M1109.489,1704.052a5.213,5.213,0,0,1,2.359-4.085c1.3-.752,2.359-.142,2.359,1.362a5.215,5.215,0,0,1-2.359,4.085C1110.545,1706.167,1109.489,1705.557,1109.489,1704.052Z" transform="translate(-1109.489 -1699.645)"/><path class="f" d="M1109.489,1704.052a5.213,5.213,0,0,1,2.359-4.085c1.3-.752,2.359-.142,2.359,1.362a5.215,5.215,0,0,1-2.359,4.085C1110.545,1706.167,1109.489,1705.557,1109.489,1704.052Z" transform="translate(-1109.489 -1699.645)"/></g></g><g transform="translate(0.536 2.541)"><path class="d" d="M1067.658,1679.973a5.215,5.215,0,0,1,2.359-4.085c1.3-.751,2.359-.142,2.359,1.362a5.214,5.214,0,0,1-2.358,4.085C1068.715,1682.087,1067.659,1681.477,1067.658,1679.973Z" transform="translate(-1067.658 -1675.565)"/><path class="d" d="M1067.658,1679.973a5.215,5.215,0,0,1,2.359-4.085c1.3-.751,2.359-.142,2.359,1.362a5.214,5.214,0,0,1-2.358,4.085C1068.715,1682.087,1067.659,1681.477,1067.658,1679.973Z" transform="translate(-1067.658 -1675.565)"/><g transform="translate(0.553 0.201)"><path class="d" d="M1071.979,1675.85l2.033,1.059-3.191,5.816-2.38-1.238.6-3.276Z" transform="translate(-1068.44 -1675.85)"/></g><g transform="translate(2.005 1.04)"><path class="f" d="M1070.5,1681.445a5.213,5.213,0,0,1,2.359-4.085c1.3-.752,2.359-.143,2.359,1.362a5.213,5.213,0,0,1-2.359,4.085C1071.553,1683.559,1070.5,1682.95,1070.5,1681.445Z" transform="translate(-1070.497 -1677.038)"/><path class="f" d="M1070.5,1681.445a5.213,5.213,0,0,1,2.359-4.085c1.3-.752,2.359-.143,2.359,1.362a5.213,5.213,0,0,1-2.359,4.085C1071.553,1683.559,1070.5,1682.95,1070.5,1681.445Z" transform="translate(-1070.497 -1677.038)"/></g></g><path class="k" d="M1101.519,1688.358l-10.438-6.026,10.438-6.026c1.713-.989,1.713-2.608,0-3.6h0a6.914,6.914,0,0,0-6.23,0l-10.437,6.026-10.438-6.026a6.914,6.914,0,0,0-6.23,0c-1.713.989-1.713,2.608,0,3.6l10.438,6.026-10.438,6.026c-1.713.989-1.713,2.608,0,3.6h0a6.915,6.915,0,0,0,6.23,0l10.438-6.027,10.437,6.027a6.915,6.915,0,0,0,6.23,0C1103.232,1690.966,1103.232,1689.348,1101.519,1688.358Z" transform="translate(-1066.899 -1671.967)"/><path class="k" d="M1101.519,1688.358l-10.438-6.026,10.438-6.026c1.713-.989,1.713-2.608,0-3.6h0a6.914,6.914,0,0,0-6.23,0l-10.437,6.026-10.438-6.026a6.914,6.914,0,0,0-6.23,0c-1.713.989-1.713,2.608,0,3.6l10.438,6.026-10.438,6.026c-1.713.989-1.713,2.608,0,3.6h0a6.915,6.915,0,0,0,6.23,0l10.438-6.027,10.437,6.027a6.915,6.915,0,0,0,6.23,0C1103.232,1690.966,1103.232,1689.348,1101.519,1688.358Z" transform="translate(-1066.899 -1671.967)"/></g><g transform="translate(12.696)"><g transform="translate(0 25.209)"><path class="e" d="M1084.876,1684.235c0,1.95,2.354,3.53,5.256,3.53s5.257-1.58,5.257-3.53-2.354-5.181-5.257-5.181S1084.876,1682.285,1084.876,1684.235Z" transform="translate(-1084.876 -1679.054)"/></g><g transform="translate(1.4 25.209)"><path class="k" d="M1086.859,1681.644c0,1.431,1.727,2.59,3.856,2.59s3.857-1.16,3.857-2.59-1.727-2.59-3.857-2.59S1086.859,1680.214,1086.859,1681.644Z" transform="translate(-1086.859 -1679.054)"/></g><g transform="translate(2.898)"><path class="e" d="M1091.338,1643.358a2.376,2.376,0,0,0-2.359,2.391v23.017a2.359,2.359,0,1,0,4.718,0v-23.017A2.375,2.375,0,0,0,1091.338,1643.358Z" transform="translate(-1088.979 -1643.358)"/></g></g></g><g transform="translate(3.227 26.931)"><path class="h" d="M1122.163,1635.742l-34.068-19.545-37.517,11.466,38.758,22.919,32.826-8.182Z" transform="translate(-1050.578 -1616.197)"/></g><g transform="translate(0 0)"><path class="g" d="M1125.513,1624.473c0,.129,0,.265-.013.4a11.721,11.721,0,0,1-6.052,9.391l-5.494,3.012-6.583,3.611-13.05,7.161-.605.333a7.065,7.065,0,0,1-6.964-.109l-33.457-19.714a7.054,7.054,0,0,1-3.434-5.413l-3.706-39.714-.129-1.36a3.667,3.667,0,0,1,5.277-3.625l31.9,15.777a3.638,3.638,0,0,1,1.857,2.142l10.2,30.954a4.253,4.253,0,0,0,6.155,2.36l16.647-9.514A4.981,4.981,0,0,1,1125.513,1624.473Z" transform="translate(-1046.009 -1578.062)"/></g></g><g transform="translate(846.166 3914.441)"><g transform="translate(0 0)"><path class="d" d="M1555.673,1600.331c-.014,0-.028.013-.042.027a.829.829,0,0,1-.013-.182A.21.21,0,0,0,1555.673,1600.331Z" transform="translate(-1555.617 -1600.176)"/></g></g><g transform="translate(568.962 3754.994)"><g transform="translate(0 0)"><path class="j" d="M1171.146,1375.5c-4.41-2.551-8-.5-8.017,4.57l-.03,10.541c-.013,5.074,3.553,11.249,7.97,13.8a12.63,12.63,0,0,1-2.881,5.023,9.844,9.844,0,0,0,10.391-.684l20.809,12.012c4.41,2.548,8,.5,8.018-4.568l.029-10.544c.014-5.071-3.557-11.251-7.966-13.8Z" transform="translate(-1163.099 -1374.401)"/></g></g><g transform="translate(407 3969.484)"><path class="u" d="M276,660H813.675s-11.269,20.927-37.026,17.708a149.484,149.484,0,0,1-20.927-1.61c-9.659-1.61-24.147,3.22-27.367,8.049,0,0-24.147,14.488-64.392,0,0,0-37.026-16.1-62.782-1.61,0,0-19.318,20.928-69.222-4.829,0,0-12.879-8.049-35.416,8.049,0,0-22.537,19.318-66-8.049,0,0-24.147-6.439-51.514,6.439C379.028,684.147,324.294,692.2,276,660Z" transform="translate(-276 -571.461)"/><path class="v" d="M582.407,634.075s27.206,15.026,15.19,36.5C597.6,670.576,578.133,666.564,582.407,634.075Z" transform="translate(-89.525 -587.27)"/><path class="w" d="M614.007,623s14.488,46.684-22.537,57.953C591.47,680.953,573.762,655.2,614.007,623Z" transform="translate(-85.991 -594.023)"/><path class="w" d="M334.352,621.92s-41.564,22.958-23.207,55.765C311.145,677.685,340.883,671.557,334.352,621.92Z" transform="translate(-257.422 -594.682)"/><path class="v" d="M292.061,605s-22.135,71.324,34.43,88.539C326.492,693.539,353.546,654.189,292.061,605Z" transform="translate(-268.808 -605)"/></g><g transform="translate(470.24 3695.38)"><path class="x" d="M593.245,758.3c10.058-5.807,10.058-15.222,0-21.03s-26.365-5.808-36.424,0-10.058,15.223,0,21.03S583.187,764.11,593.245,758.3Z" transform="translate(-542.85 -578.144)"/><path d="M564.331,528.445a43.475,43.475,0,0,1,.158-6.9c.526-6.021,3.6-11.637,10.18-12.389,12.059-1.381,14.454,7,15.06,17.139-3.744,4.341-8.2,8.628-10.535,13.92-.5,1.134-6.621,1.2-7.436.851-1.978-.842-4.4-4.178-5.533-5.949A14.44,14.44,0,0,1,564.331,528.445Z" transform="translate(-547.474 -509.004)"/><path class="d" d="M590.164,739.233a3.461,3.461,0,0,0,2.448,4.232,57.686,57.686,0,0,0,9.81,4.5,5.539,5.539,0,0,0,2.45.321,2.125,2.125,0,0,0,1.8-1.5,3.221,3.221,0,0,0-1.078-2.544c-2.6-3.083-5.313-6.25-8.933-8.034a6.4,6.4,0,0,0-3.437-.8,3.055,3.055,0,0,0-2.676,2.042Z" transform="translate(-555.459 -578.902)"/><path class="d" d="M562.489,749.531a7.208,7.208,0,0,0,.465,2.457,19.937,19.937,0,0,0,2.694,4.38l1.812,2.445a12.47,12.47,0,0,0,2.059,2.342,4.2,4.2,0,0,0,2.87,1.042,1.166,1.166,0,0,0,.772-.29,1.218,1.218,0,0,0,.232-.393c.731-1.785.231-3.809-.277-5.669-.715-2.618-1.664-5.086-2.372-7.672-.492-1.8-1.076-4.31-3.281-4.626C563.982,743.073,562.417,746.475,562.489,749.531Z" transform="translate(-546.929 -581.412)"/><path class="y" d="M566.062,665.679l-2.321-38.536.8-9.224,18.9,2.875,10.117-.479.345,44.31-4.628,34.308c-.107.793,1.329,1.294,1.328,2.07a2.766,2.766,0,0,1-2.578,2.81,7.354,7.354,0,0,1-3.783-.926,4.909,4.909,0,0,1-2.19-4.087c0-.015,1.389-31.231,1.389-31.231L580.531,634.2l-.847,15.56L578.652,665.6l-8.026,41.819c-.129,1.728-.712,3.057-2.253,3.057h-2.038a3.166,3.166,0,0,1-2.964-3.336Z" transform="translate(-547.201 -542.635)"/><path class="d" d="M565.964,602.541l-5.919,9.748s-1.078,32.365.389,50.323a24.542,24.542,0,0,0,16.911,6.482s15.736-2.791,21.975-8.431c0,0-.265-43.407-10.773-58.4Z" transform="translate(-546.057 -537.799)"/><path class="z" d="M594.542,550.017h0a4.3,4.3,0,0,0-2.392,5.586L603.3,583.449a4.3,4.3,0,0,0,5.586,2.392h0a4.3,4.3,0,0,0,2.392-5.586l-11.151-27.846A4.3,4.3,0,0,0,594.542,550.017Z" transform="translate(-555.992 -521.573)"/><path class="h" d="M591.224,543.463c-.014,0-.028.015-.042.03a.974.974,0,0,1-.014-.2A.245.245,0,0,0,591.224,543.463Z" transform="translate(-555.785 -519.592)"/><path class="z" d="M565.47,568.039l2.229,18.91a8.4,8.4,0,0,1,.706.536c4.31,3.7,10.363,4.066,16.183,3.93a34.659,34.659,0,0,0,3.979-1.4,4.407,4.407,0,0,0,2.56-3.257l4.048-15.778.055-.273a9.629,9.629,0,0,0-.888-6.208l-3.073-5.9-.928-3.164c-.3-3.48-3.2-6.952-5.7-5.38l-1.147.4-1.837.635-8.078,2.82-2.363.82-4.6,1.6a4.674,4.674,0,0,0-2.772,5.654Z" transform="translate(-547.298 -521.558)"/><path class="j" d="M563.852,562.052l1.618,6.064c.813,1,1.619,2.007,2.438,3.012,1.714,2.123,3.5,4.3,5.886,5.415,3.961,1.85,8.509.341,12.531-1.366,2.486-1.044,4.951-2.164,7.375-3.353.491-.232,1-.484,1.475-.771l.055-.273a9.626,9.626,0,0,0-.888-6.207l-3.073-5.9-1.171-3.993c-.056-2.65-2.141-5.595-5.453-4.55l-1.147.4-1.837.635-8.078,2.82-2.363.82-4.6,1.6A4.674,4.674,0,0,0,563.852,562.052Z" transform="translate(-547.298 -521.636)"/><path class="y" d="M574.587,555.073a22.192,22.192,0,0,0,4.364,4.964,12.08,12.08,0,0,0,4.158,2.67,5.036,5.036,0,0,0,4.719-.641,4.862,4.862,0,0,0,1.618-3.551,10.081,10.081,0,0,0-.751-3.92,21.9,21.9,0,0,0-1.83-3.8l-1.837.635-8.078,2.82Z" transform="translate(-550.664 -521.909)"/><path class="j" d="M612.977,577.215l-.1.2a.334.334,0,0,0,.079.006C612.958,577.359,612.97,577.287,612.977,577.215Z" transform="translate(-562.489 -530.066)"/><rect class="y" width="8.403" height="15.459" transform="translate(26.186 19.665)"/><path class="y" d="M579.061,541.405l7.623,8,.04-.113V543.9Z" transform="translate(-552.046 -519.009)"/><ellipse class="d" cx="6.42" cy="7.078" rx="6.42" ry="7.078" transform="translate(31.422 5.46)"/><path class="h" d="M578.544,533.048c-.013,0-.026.014-.039.03a.889.889,0,0,1-.014-.191A.235.235,0,0,0,578.544,533.048Z" transform="translate(-551.87 -516.379)"/><path class="y" d="M578.024,530.639c1.049-5.367,4.474-10.976,10.255-11.928a.613.613,0,0,0,.427-.94.773.773,0,0,0-.091-.76c.055-.007.109-.016.164-.022a5.164,5.164,0,0,1,3.3.409,2.87,2.87,0,0,1,1.334,1.89,2.258,2.258,0,0,1,.028.866c.07,2.2.14,4.394.211,6.6.028.993.056,2,.028,3.024a11.215,11.215,0,0,1-1.881,6.6,8.107,8.107,0,0,1-6.345,2.835c-1.292.032-2.625-.9-3.777-1.595-2.161-1.323-3.173-3.429-3.72-6.123-.035-.185-.06-.372-.093-.558A.582.582,0,0,0,578.024,530.639Z" transform="translate(-551.676 -511.443)"/><path d="M583.41,514.666a4.857,4.857,0,0,1,2.3-3.029,4.022,4.022,0,0,1,2.207-.565,4.361,4.361,0,0,1,3.224.832c.709.308,1.422.673,2.123,1.053a12.966,12.966,0,0,1,4.376,3.355,7.216,7.216,0,0,1,1.208,5.983,6.528,6.528,0,0,1-2.206,3.56c-.174.652-.613-.7-.787-.043-.265-2-1.421-1.686-3.076-2.842a41.148,41.148,0,0,0-5.369-2.792,9.332,9.332,0,0,1-3.193-2.308,4.2,4.2,0,0,1-.558-.9A2.27,2.27,0,0,1,583.41,514.666Z" transform="translate(-553.329 -509.62)"/><path class="z" d="M620.872,594.99a5.891,5.891,0,1,1-5.888-5.709A5.8,5.8,0,0,1,620.872,594.99Z" transform="translate(-561.32 -533.792)"/><path class="y" d="M615.671,596.06h0a4.639,4.639,0,0,0,4.046,5.166l15.362,2.385a4.64,4.64,0,0,0,5.166-4.046h0A4.641,4.641,0,0,0,636.2,594.4l-15.362-2.384A4.64,4.64,0,0,0,615.671,596.06Z" transform="translate(-563.34 -534.625)"/><path class="g" d="M628.227,604.733c.791,1.566,3.4,2.719,6.515,2.719s5.724-1.152,6.514-2.719l.251-2.128V593.27h-.178c-.691-1.646-3.375-2.874-6.587-2.874s-5.9,1.228-6.587,2.874h-.178v.825Z" transform="translate(-567.15 -534.136)"/><path class="j" d="M641.507,593.5c0,2.047-3.029,3.708-6.765,3.708s-6.766-1.66-6.766-3.708,3.029-3.708,6.766-3.708S641.507,591.448,641.507,593.5Z" transform="translate(-567.15 -533.948)"/><ellipse class="h" cx="4.82" cy="2.642" rx="4.82" ry="2.642" transform="translate(62.771 56.828)"/><path d="M577.6,530.566a14.285,14.285,0,0,0,6.4-12.442,10.017,10.017,0,0,0-6.234,12.776Z" transform="translate(-551.479 -511.82)"/><path class="j" d="M542.994,586.124a40.952,40.952,0,0,0,3.572,4.275,28.628,28.628,0,0,1,3.163,3.853,17.04,17.04,0,0,1,1.867,3.667,3.207,3.207,0,0,1,.215,1.111,4.445,4.445,0,0,0,6.7,5.845,8.879,8.879,0,0,0,1.881-8.349,23.021,23.021,0,0,0-3.141-7.016,35.479,35.479,0,0,0-4.134-5.127,33.88,33.88,0,0,1-2.838-3.348c-1.311-1.875-1.793-4.046-1.126-5.045a9.1,9.1,0,0,1,2.385-1.867l10.209-6.535a4.444,4.444,0,0,0-4.786-7.49l-10.216,6.535a15.91,15.91,0,0,0-4.986,4.416C538.994,575.181,539.483,581.1,542.994,586.124Z" transform="translate(-539.978 -524.565)"/><path d="M566.025,536.657a32.36,32.36,0,0,1,.639-5.716,7.6,7.6,0,0,1,1.558-3.7,3.237,3.237,0,0,1,3.657-.967c1.917.93,1.8,3.63,1.677,5.756-.7,12.355,11.739,19.633,11.609,31.855-.047,4.442-2.235,8.543-4.366,12.441-.45.822-1.159,1.774-2.078,1.59a2.1,2.1,0,0,1-1.1-.811,22.081,22.081,0,0,1-4.55-10.784c-1-6.2.042-11.771-2.487-17.663-.914-2.128-2.41-3.954-3.452-6.023A13.208,13.208,0,0,1,566.025,536.657Z" transform="translate(-548.02 -514.263)"/><path class="y" d="M579.233,537.251a.588.588,0,0,1-.586.065,1.5,1.5,0,0,0-.039-.208Z" transform="translate(-551.907 -517.682)"/><path class="y" d="M573.072,531.3c.916-.317,1.822.7,2.221,1.869a10.222,10.222,0,0,0,.617,1.74,1.314,1.314,0,0,0,.663.592,1.974,1.974,0,0,1-.992,2.282,2.316,2.316,0,0,1-2.233-.9,4.908,4.908,0,0,1-1.434-2.809C571.775,532.927,572.24,531.593,573.072,531.3Z" transform="translate(-549.832 -515.872)"/><path class="y" d="M557.046,621.8a4.449,4.449,0,0,0,6.275-.341,8.879,8.879,0,0,0,1.881-8.349,8.938,8.938,0,0,1-8.794,1.393,3.211,3.211,0,0,1,.215,1.112A4.44,4.44,0,0,0,557.046,621.8Z" transform="translate(-544.791 -541.15)"/></g></g></g></svg>