<svg xmlns="http://www.w3.org/2000/svg" width="535.614" height="283.822" viewBox="0 0 535.614 283.822"><defs><style>.a{fill:rgba(15,0,0,0.1);}.b{fill:#c4e4f9;}.c{fill:#0f62fe;}.d{fill:#e2e5f3;}.e{fill:#f5f5fa;}.f{fill:#3d2768;}.g{fill:#5dc5c7;}.h{fill:#2d1d50;}.i{fill:#bdc0df;}.j{fill:#bdc1e1;}.k{fill:#fff;}.l{fill:#b3bade;}.m{fill:#3c2768;}.n{fill:#f69874;}.o{fill:#5678bb;}.p{fill:#ee3f5c;}.q{fill:#ffc7cb;}.r{fill:#d9def0;}.s{fill:#e2e8f2;}.t{fill:#c76a72;}.u{fill:#e4e6f3;}</style></defs><g transform="translate(-409.387 -4205.889)"><g transform="translate(8741.387 -9578)"><path class="a" d="M276,660H811.614s-11.225,20.847-36.884,17.64a148.9,148.9,0,0,1-20.847-1.6c-9.622-1.6-24.054,3.207-27.262,8.018,0,0-24.055,14.433-64.145,0,0,0-36.884-16.036-62.542-1.6,0,0-19.244,20.847-68.956-4.811,0,0-12.829-8.018-35.28,8.018,0,0-22.451,19.243-65.749-8.018,0,0-24.055-6.415-51.316,6.414C378.633,684.054,324.109,692.073,276,660Z" transform="translate(-8608 13375.459)"/><path class="b" d="M582.4,634.075s27.1,14.968,15.132,36.361C597.537,670.436,578.147,666.439,582.4,634.075Z" transform="translate(-8423.412 13359.81)"/><path class="c" d="M613.906,623s14.433,46.505-22.451,57.731C591.455,680.731,573.815,655.073,613.906,623Z" transform="translate(-8419.913 13353.125)"/><path class="c" d="M334.245,621.92s-41.4,22.87-23.118,55.552C311.127,677.471,340.751,671.366,334.245,621.92Z" transform="translate(-8589.611 13352.473)"/><path class="b" d="M292.045,605s-22.05,71.051,34.3,88.2C326.343,693.2,353.294,654,292.045,605Z" transform="translate(-8600.88 13342.259)"/></g><g transform="translate(-44 23)"><path class="d" d="M3842.688,802.441a6.367,6.367,0,0,1-.067.943Z" transform="translate(-2950.864 3547.063)"/><path class="d" d="M3829.5,798.351l-.067.943c-.77,5.5-8.23,9.815-17.317,9.815-9.2,0-16.734-4.425-17.338-10.027l-.042-.731c0-5.942,7.783-10.758,17.38-10.758S3829.5,792.409,3829.5,798.351Z" transform="translate(-2937.674 3551.153)"/><path class="e" d="M3829.446,803.659l-2.859,40.206c0,4.234-6.616,7.661-14.776,7.661-6.929,0-12.738-2.471-14.336-5.8a4.2,4.2,0,0,1-.44-1.859l-2.24-40.416c.6,5.6,8.131,10.028,17.337,10.028C3821.219,813.478,3828.678,809.162,3829.446,803.659Z" transform="translate(-2937.69 3546.785)"/><path class="f" d="M3828.24,798.137l-.064.837c-.455,3.256-3.553,6.04-7.966,7.528a22.148,22.148,0,0,1-4.888,1.033c-.442.047-.893.077-1.352.1-.365.017-.739.025-1.114.025-.611,0-1.215-.021-1.806-.068a21.757,21.757,0,0,1-2.355-.289,20.182,20.182,0,0,1-3.328-.85c-4.42-1.526-7.493-4.365-7.851-7.664l-.038-.65c0-2.3,1.326-4.421,3.528-6.066a16.428,16.428,0,0,1,4.935-2.435c.5-.157,1.007-.293,1.535-.417a23.975,23.975,0,0,1,5.38-.6c.434,0,.867.012,1.293.038.595.025,1.177.076,1.747.149a19.641,19.641,0,0,1,7.8,2.58C3826.5,793.109,3828.24,795.5,3828.24,798.137Z" transform="translate(-2938.43 3550.87)"/><path class="g" d="M3817.34,728.917c-.025-2.257-1.989-6.656-.85-11.791,2.9-13.083-4.926-42.824-6.083-43.593-.736-.489-3.562,9.185-5.977,21.269a3.324,3.324,0,0,1,1.046.28,3.465,3.465,0,0,1,0,6.329,3.407,3.407,0,0,1-1.415.3,3.344,3.344,0,0,1-.549-.043,2.452,2.452,0,0,1-.353-.077c-.888,5.156-1.636,10.474-2.074,15.438a67.818,67.818,0,0,0,.013,15.217,258.529,258.529,0,0,0,5.721,25.682c.718,2.682,1.424,5.211,2.065,7.468,1.738,6.108,3.043,10.274,3.043,10.274v.212c.514.043,1.038.064,1.564.064.081,0,.162,0,.242,0,.375,0,.749-.009,1.114-.025.459-.021.91-.051,1.352-.1.068-2.04.323-9.891.574-18.728C3817.085,746.191,3817.4,733.775,3817.34,728.917Zm-6.932-15.79a2.237,2.237,0,0,1,1.2.349,2.183,2.183,0,0,1,.5.425v0a2.253,2.253,0,0,1-.374,3.316v0s-.008,0-.012.009a2.243,2.243,0,0,1-1.318.425,2.265,2.265,0,1,1,0-4.531Zm-1.547,27.738v0a2.265,2.265,0,1,1,.374-3.323v0a2.253,2.253,0,0,1-.374,3.315Zm5.223,9.861a3.361,3.361,0,0,1-1.343.3h-.072a3.376,3.376,0,0,1-.548-.043,3.468,3.468,0,0,1,.2-6.873,1.783,1.783,0,0,1,.208-.012c.047,0,.089,0,.136,0a3.414,3.414,0,0,1,1.415.3,3.462,3.462,0,0,1,0,6.329Z" transform="translate(-2939.308 3582.574)"/><path class="g" d="M3836.571,724.956a3.394,3.394,0,0,1,1.365.28,65.94,65.94,0,0,0,1.084-9.181c-.047-9.627-4-25.945-5.27-27.182-.064-.064-.12-.089-.166-.077l0,0c-.995.327-9.661,20.207-11.7,32.533-.127.778-.23,1.526-.3,2.236-.008.076-.017.153-.021.229-.013.124-.025.247-.038.378-.094,1.059-.183,2.363-.263,3.873-.013.285-.03.574-.043.871q-.031.5-.052,1.033c-.017.323-.03.65-.046.986-.03.718-.059,1.471-.089,2.248q-.019.529-.038,1.072c0,.161-.013.327-.017.5a3,3,0,0,1,.345-.017,3.4,3.4,0,0,1,1.415.3,3.465,3.465,0,0,1,0,6.329,3.4,3.4,0,0,1-1.415.3,3.335,3.335,0,0,1-.549-.042c-.047,1.934-.089,3.94-.128,5.981-.009.408-.017.816-.025,1.228-.064,3.26-.12,6.593-.162,9.87,0,.408-.013.82-.017,1.228s-.012.816-.017,1.225c-.094,7.255-.148,14.064-.179,18.974.459-.021.91-.051,1.352-.1.387-.038.765-.085,1.139-.144.234-.034.464-.072.693-.115a20.245,20.245,0,0,0,3.056-.773c.544-2.3,1.879-8,3.486-15.115,2.2-9.721,4.9-22.077,6.779-32.007-.06,0-.115,0-.174,0a3.466,3.466,0,1,1,0-6.933Zm-8.144,27.582a2.244,2.244,0,0,1-1.853-.969,2.221,2.221,0,0,1-.408-1.292,2.264,2.264,0,1,1,2.261,2.261Zm2.533-40.295v0a2.264,2.264,0,1,1,.375-3.324v0a2.254,2.254,0,0,1-.375,3.316Z" transform="translate(-2944.699 3578.366)"/><path class="g" d="M3806.3,779.962q-.082-1.192-.166-2.457a2.031,2.031,0,0,1-.583.081,2.229,2.229,0,0,1-1.848-.969,2.19,2.19,0,0,1-.409-1.292,2.273,2.273,0,0,1,2.257-2.266,1.616,1.616,0,0,1,.285.021c-.022-.331-.047-.667-.068-1-.744-11.055-1.573-23.39-1.841-27.352-.28-4.161-2.83-9.338-5.428-13.13-2.223-3.239-4.48-5.466-5.4-5.186-.829.251-1.39,4.017-1.645,8.641a3.31,3.31,0,0,1,.646-.128,3.179,3.179,0,0,1,.345-.017,3.526,3.526,0,0,1,.37.021,1.377,1.377,0,0,1,.178.025,3.309,3.309,0,0,1,.867.255,3.454,3.454,0,0,1,1.874,4.255,3.451,3.451,0,0,1-1.874,2.074,3.181,3.181,0,0,1-.608.209,3.589,3.589,0,0,1-.807.093,3.343,3.343,0,0,1-.549-.043,2.531,2.531,0,0,1-.353-.076,2.59,2.59,0,0,1-.251-.081c.017,4.655.328,9,.957,10.729.51,1.406,1.917,5.865,3.583,11.255a3.259,3.259,0,0,1,1.364-.442,1.623,1.623,0,0,1,.208-.013c.046,0,.089,0,.136,0a3.6,3.6,0,0,1,.961.132,3.291,3.291,0,0,1,.455.17,3.465,3.465,0,0,1,1.173,5.478,3.587,3.587,0,0,1-1.173.851,3.283,3.283,0,0,1-1.139.289c.5,1.619,1,3.251,1.483,4.845,1.956,6.419,3.71,12.225,4.361,14.38a18.463,18.463,0,0,0,1.845.544c.136.034.272.068.412.093.348.081.71.153,1.071.212C3806.857,788.119,3806.606,784.421,3806.3,779.962Zm-6.257-32.916a2.238,2.238,0,0,1,1.2.349,2.186,2.186,0,0,1,.5.425v0a2.253,2.253,0,0,1-.374,3.315v0s-.009,0-.013.009a2.235,2.235,0,0,1-1.317.425,2.266,2.266,0,0,1,0-4.531Z" transform="translate(-2936.727 3568.011)"/><path class="f" d="M3807.99,806.032a18.487,18.487,0,0,1-1.845-.544c-.65-2.155-2.405-7.961-4.361-14.38-.485-1.594-.986-3.226-1.483-4.845a3.282,3.282,0,0,0,1.139-.289,3.584,3.584,0,0,0,1.173-.851C3804.636,792.4,3806.685,800.65,3807.99,806.032Z" transform="translate(-2939.207 3551.833)"/><path class="h" d="M3820.477,757.109c-.25,8.837-.506,16.687-.574,18.728-.442.047-.893.077-1.352.1-.365.017-.739.025-1.114.025-.08,0-.161,0-.242,0l-.752-24.92a3.36,3.36,0,0,0,1.343-.3,3.462,3.462,0,0,0,0-6.329,3.413,3.413,0,0,0-1.415-.3c-.047,0-.089,0-.136,0l-.807-26.867s.008,0,.012-.009v0a2.253,2.253,0,0,0,.374-3.316v0a2.181,2.181,0,0,0-.5-.425l-1.2-39.942c1.156.769,8.986,30.51,6.083,43.593-1.139,5.134.825,9.534.85,11.791C3821.1,733.782,3820.788,746.2,3820.477,757.109Z" transform="translate(-2943.01 3582.568)"/><path class="f" d="M3822.731,761.359c0,12.594,0,30.939,0,38.523-.374.059-.752.106-1.139.144-.442.047-.893.077-1.352.1.031-4.91.085-11.719.179-18.974,0-.409.012-.812.017-1.225s.013-.82.017-1.228c.042-3.277.1-6.609.162-9.87.008-.412.017-.82.025-1.228.039-2.04.081-4.047.128-5.981a3.335,3.335,0,0,0,.549.042A3.4,3.4,0,0,0,3822.731,761.359Z" transform="translate(-2944.699 3558.379)"/><path class="f" d="M3833.856,688.8l0,.017c-.328.944-10.838,31.271-10.843,44.307v1.917a3.4,3.4,0,0,0-1.415-.3,3,3,0,0,0-.345.017c0-.17.013-.336.018-.5q.018-.542.038-1.072c.03-.777.06-1.53.089-2.248.017-.336.03-.663.046-.986q.02-.529.051-1.033c.013-.3.03-.586.043-.871.08-1.509.169-2.814.263-3.873.013-.131.025-.254.038-.378,0-.076.013-.153.021-.229.072-.71.175-1.458.3-2.236C3824.2,709.011,3832.861,689.131,3833.856,688.8Z" transform="translate(-2944.977 3578.363)"/><path class="e" d="M3834.313,728.427a3.466,3.466,0,0,0,3.469,3.464c.06,0,.114,0,.174,0-1.875,9.929-4.578,22.285-6.779,32.007-1.607,7.111-2.942,12.811-3.486,15.115a20.245,20.245,0,0,1-3.056.773l3.149-28.211a2.263,2.263,0,0,0,4.119-1.292,2.267,2.267,0,0,0-2.266-2.266,2.233,2.233,0,0,0-1.521.595l4.054-36.358v0a2.254,2.254,0,0,0,.375-3.316v0l2.24-20.105,0-.017.17.072c1.267,1.237,5.224,17.555,5.271,27.182a65.912,65.912,0,0,1-1.084,9.181,3.392,3.392,0,0,0-1.364-.28A3.467,3.467,0,0,0,3834.313,728.427Z" transform="translate(-2945.909 3578.363)"/><path class="e" d="M3806.991,779.962q-.082-1.192-.166-2.457a2.031,2.031,0,0,1-.583.081,2.229,2.229,0,0,1-1.848-.969,2.19,2.19,0,0,1-.409-1.292,2.273,2.273,0,0,1,2.257-2.266,1.616,1.616,0,0,1,.285.021c-.022-.331-.047-.667-.068-1-.744-11.055-1.573-23.39-1.841-27.352-.28-4.161-2.83-9.338-5.428-13.13-2.223-3.239-4.48-5.466-5.4-5.186l1.951,9.679a3.429,3.429,0,0,1,.863,2.287,3.378,3.378,0,0,1-.179,1.088l10.184,50.484c.348.081.71.153,1.071.212C3807.543,788.119,3807.293,784.421,3806.991,779.962Zm-4.926-28.823v0s-.009,0-.013.009a2.235,2.235,0,0,1-1.317.425,2.266,2.266,0,0,1,0-4.531,2.238,2.238,0,0,1,1.2.349,2.186,2.186,0,0,1,.5.425v0a2.253,2.253,0,0,1-.374,3.315Z" transform="translate(-2937.413 3568.011)"/><path class="i" d="M3830.462,803.739l-2.859,40.206c0,4.234-6.616,7.661-14.776,7.661-6.929,0-12.738-2.471-14.336-5.8l-.007-.022c19.42-17.763,14.665-32.225,14.665-32.225C3822.235,813.557,3829.694,809.242,3830.462,803.739Z" transform="translate(-2938.707 3546.705)"/></g><g transform="translate(559.584 4205.889)"><path class="j" d="M1453.771,970.812,1423.8,953.59l-.017-2.322,29.992,17.315Z" transform="translate(-1321.094 -762.503)"/><path class="k" d="M1454.032,953.354l-27.172,15.378-29.992-17.315,26.892-15.54Z" transform="translate(-1294.183 -762.653)"/><path class="j" d="M1424.04,953.187v2.258l-27.172,15.349v-2.229Z" transform="translate(-1264.191 -762.485)"/><path class="j" d="M1526.416,894.1l-99.01-56.888v-8.551l99.01,57.155Z" transform="translate(-1397.401 -763.691)"/><path class="k" d="M1539.852,829.275l-101,57.161-111.477-64.36,99.957-57.761Z" transform="translate(-1309.84 -764.314)"/><g transform="translate(78.034 38.174)"><path class="k" d="M1400.569,817.314c0,11.262,14.039,20.4,31.36,20.4,10.99,0,20.655-3.672,26.249-9.239a15.7,15.7,0,0,0,5.111-11.158c0-11.262-14.039-20.383-31.36-20.383-13.481,0-24.977,5.528-29.414,13.286A14.207,14.207,0,0,0,1400.569,817.314Z" transform="translate(-1397.441 -796.931)"/><path class="l" d="M1408.014,815.681c0,7.667,9.563,13.883,21.343,13.883.442,0,.87-.012,1.3-.025-9.86-.4-17.659-5.723-17.659-12.235,0-6.773,8.434-12.262,18.854-12.262,10.015,0,18.215,5.087,18.813,11.5.025-.284.039-.57.039-.856,0-7.655-9.55-13.87-21.344-13.87S1408.014,808.025,1408.014,815.681Z" transform="translate(-1394.792 -795.297)"/><path class="m" d="M1408.043,816.492v.155h.013c.052,3.517,2.4,6.682,6.111,8.889l.013.012a24.7,24.7,0,0,0,11.521,3.18c9.486-.363,17.3-4.761,19.45-10.6a9.166,9.166,0,0,0,.558-2.4.354.354,0,0,0-.013-.077,7.858,7.858,0,0,0-.662-2.478,12.319,12.319,0,0,0-4.839-5.359,21.849,21.849,0,0,0-7.15-2.919c-.247-.052-.493-.1-.739-.155a29.108,29.108,0,0,0-5.41-.507c-.8,0-1.61.04-2.388.1C1415.219,805.087,1408.043,810.252,1408.043,816.492Z" transform="translate(-1389.839 -794.487)"/><path class="l" d="M1404.4,818c0,11.262,14.039,20.4,31.361,20.4,13.441,0,24.924-5.514,29.375-13.26-5.593,5.566-15.259,9.239-26.249,9.239-17.321,0-31.36-9.135-31.36-20.4a14.208,14.208,0,0,1,1.947-7.1A15.728,15.728,0,0,0,1404.4,818Z" transform="translate(-1404.398 -793.598)"/><path class="n" d="M1408.529,815.753a2.688,2.688,0,0,0,2.024,1.763h.013c.987.183,1.907-.089,2.608,1.44,1.194,2.6,1.454,5.294,3.5,7.449l.014.012a24.7,24.7,0,0,0,11.521,3.18c9.486-.363,17.3-4.761,19.45-10.6l.558-2.4a.355.355,0,0,0-.013-.077c-.065-.286-.286-1.284-.662-2.477-.662-2.168-1.829-4.97-3.439-5.4-.765-.207-1.167-.143-1.4.039-.6.442-.3,1.622-2.518,1.349-2.881-.35-1.973-3.439-4.632-4.269l-.739-.155c-3.582-.442-1.091,3.217-3.906,3.035-1.245-.077-2.452-1.751-3.892-3.439-1.8-2.128-4-4.294-7.136-3.335-5.619,1.726-6.708,3.141-8.434,6.06S1406.907,812.534,1408.529,815.753Z" transform="translate(-1392.349 -795.356)"/><path class="o" d="M1414.773,812.652c0,.981,1.307,1.777,2.919,1.777s2.92-.8,2.92-1.777-1.307-1.777-2.92-1.777S1414.773,811.671,1414.773,812.652Z" transform="translate(-1373.725 -792.262)"/><path class="p" d="M1426.409,810.9c0,.589.784,1.066,1.753,1.066s1.753-.478,1.753-1.066-.785-1.068-1.753-1.068S1426.409,810.307,1426.409,810.9Z" transform="translate(-1398.56 -792.612)"/><path class="k" d="M1422.152,816.993c0,.981,1.307,1.777,2.919,1.777s2.919-.8,2.919-1.777-1.307-1.777-2.919-1.777S1422.152,816.012,1422.152,816.993Z" transform="translate(-1390.954 -790.808)"/></g><path class="q" d="M1474.344,842.792s9.107-12.2,15-13.426,9.749,2.043,11.388-.206-8.648-14.231-13.2-10.325-7.738,8.078-13.381,10.531a84.024,84.024,0,0,1-11.552,3.926Z" transform="translate(-1407.435 -763.794)"/><path class="j" d="M1455.838,904.8l50.007,28.587,50.009-28.587-50-28.875Z" transform="translate(-1455.546 -763.233)"/><path class="m" d="M1453.582,893.66s3.268,15.879,10.708,19.854,29.962,19.57,48.462,8.99c14.162-8.1,26.145-14.957,30.983-17.724,1.482-.854,2.3-1.316,2.3-1.316s-8.754-10.079-18.617-16.586h-.01a46.714,46.714,0,0,0-4.475-2.63,78.946,78.946,0,0,0-23.123-7.36Z" transform="translate(-1443.445 -763.224)"/><path class="r" d="M1539.852,829.275l-112.516-64.961-99.957,57.761,118.584-23.813Z" transform="translate(-1309.84 -764.314)"/><path class="s" d="M1479.578,894.326s7.35,9.4,15.172,10.57,13.278,4.877,22.661,7.762,14.839-7.2,14.839-7.2,1.109-6.556-.648-17.568a77.51,77.51,0,0,0-6.968-20.924c1.089,1.845,6.134,7.891,6.134,7.891a20.694,20.694,0,0,0,10.3-3.435c4.662-3.308,6.752-9.2,6.752-9.2a35.3,35.3,0,0,0-6.261-8.617c-3.68-3.455-2.944-11.875-5.211-18.137s-12.827-14.956-16.605-17.783-4.358-3.749-4.358-3.749l-29.266-6.017c-12.1,10.688-6.223,38.227-8.028,52.909S1479.578,894.326,1479.578,894.326Z" transform="translate(-1469.443 -763.892)"/><path class="q" d="M1512.888,810.485s-2.162,2.086-2.427,7.238h-5.787l-1.717-9.762,4.966-3.733Z" transform="translate(-1460.156 -763.928)"/><path class="q" d="M1509.691,790.283a54.34,54.34,0,0,1-.982,15.663c-1.8,8.712-2.831,8.819-6.159,7.784s-10.525-4.228-12-7.784-1.636-10.426-1.636-10.426l8.015-12.579h2.465Z" transform="translate(-1442.968 -764.134)"/><path class="k" d="M1465.138,915.736v63.686l-4.673-2.692.228-63.536Z" transform="translate(-1369.502 -762.872)"/><path class="j" d="M1545.928,915.736v63.686l4.672-2.692-.228-63.536Z" transform="translate(-1541.256 -762.872)"/><path class="t" d="M1361.994,810.584l-4.5-2.747A28.777,28.777,0,0,0,1361.994,810.584Z" transform="translate(-1162.385 -763.893)"/><path class="j" d="M1505.385,824.572l49.99,28.874v43.314l-50-28.869Z" transform="translate(-1505.082 -763.731)"/><path class="u" d="M1500.542,824.6l5.04-2.91,49.829,28.968-4.878,2.816Z" transform="translate(-1500.239 -763.759)"/><path class="u" d="M1505.42,850.38v42.956l-4.878,3.175V853.2Z" transform="translate(-1450.249 -763.481)"/><path class="u" d="M1550.556,867.476v37.4l4.381,2.272V870.005Z" transform="translate(-1550.264 -763.315)"/><path class="k" d="M1550.594,872.268v32.587l-3.978,2.27V869.971Z" transform="translate(-1541.944 -763.291)"/><path class="u" d="M1505.363,893.545v37.4l4.381,2.272.052-37.127Z" transform="translate(-1459.493 -763.063)"/><path class="k" d="M1505.4,893.5V930.94l-3.978,2.269-.006-37.119Z" transform="translate(-1451.115 -763.063)"/><path class="r" d="M1505.847,904.518v8.731l-50,28.632-.006-8.777Z" transform="translate(-1405.539 -762.956)"/><path class="k" d="M1555.375,941.882l-50.014-28.6v-8.759l50.007,28.587Z" transform="translate(-1505.069 -762.956)"/><path class="k" d="M1510.034,941.548v63.686l-4.672-2.692.228-63.536Z" transform="translate(-1459.728 -762.622)"/><path class="j" d="M1500.734,941.548v63.686l4.672-2.692-.228-63.536Z" transform="translate(-1450.429 -762.622)"/><path class="k" d="M1555.228,915.736v63.686l-4.672-2.692.228-63.536Z" transform="translate(-1550.556 -762.872)"/><path class="j" d="M1455.838,915.736v63.686l4.672-2.692-.227-63.536Z" transform="translate(-1360.202 -762.872)"/><path d="M1545.684,790.368s-1.227-21.834-18.156-14.718c-12.065,5.071-12.68,27.3-18.975,26.612s-21.4,8.743-19.244,22.8,11.323,35.352,28.084,28.875,5.6-16.414,9.646-21.59c4.656-5.959-5.4-19.28-.492-23s4.432-9.814,5.147-14.721S1545.684,790.368,1545.684,790.368Z" transform="translate(-1478.961 -764.218)"/><path class="u" d="M1428.375,828.652v8.393l-101,57.052v-8.284Z" transform="translate(-1198.363 -763.691)"/><path class="j" d="M1433.285,889.411v64.927s-1.933,2.423-7.253,2.423-5.81-2.086-5.81-2.086V890.169l5.81,3.338Z" transform="translate(-1297.017 -763.103)"/><path class="m" d="M1417.418,952.185s-2.532,4.842.878,7.8,30.4,3.3,30.522,0-22.332-9.828-22.332-9.828l-5.393-1.693Z" transform="translate(-1308.805 -762.531)"/><path class="q" d="M1457.249,903.4s-.814.462-2.3,1.316l.019.009-.225,8.755,8.529,39.334a21.824,21.824,0,0,0,5.27,0c3.435-.324,3.8-2.031,3.8-2.031s-6.007-64.135-12.671-66.834c-6.546-2.649-20.541,2.67-21.041,2.866C1448.495,893.324,1457.249,903.4,1457.249,903.4Z" transform="translate(-1354.663 -763.163)"/><path class="q" d="M1433.841,874.487s9.814,11.777,19.393,13.033,30.659-22.435,30.659-22.435,6.379,1.05,9.981-7.577-2.129-11.9-4.092-11.561,3.268,5.063.657,7.292-6.379.716-8.342,1.354-1.639,1-1.963,5.595-13.582,8.165-19.834,8.833-9.4-7.165-9.4-7.165-2.09,5.889-6.752,9.2A20.694,20.694,0,0,1,1433.841,874.487Z" transform="translate(-1372.516 -763.524)"/><path class="q" d="M1445.829,854.48c-.061-.254.8-5.1-.736-5.346s-2.821,5.643-2.821,5.643l2.162.676Z" transform="translate(-1332.008 -763.493)"/></g></g></svg>