<svg xmlns="http://www.w3.org/2000/svg" width="538" height="415.2" viewBox="0 0 538 415.2"><defs><style>.a{fill:#1162fb;}.b{fill:#fff;}.c{fill:rgba(15,0,0,0.1);}.d{fill:#c4e4f9;}.e{fill:#0f62fe;}.f{fill:#4568c7;}.g{fill:#8dc0ef;}.h{fill:#e2e8f2;}.i{fill:#1f3598;}.j{fill:#647ddd;opacity:0.17;}.k{fill:#d5e8fa;}.l{fill:#eff6fc;}.m{fill:#bddcff;}.n{fill:#75a3ec;}.o{fill:#ffc7cb;}.p{fill:#ff8358;}.q{fill:#f2f4fa;}.r{fill:#3772ce;}.s{fill:#a0d2ff;}.t{fill:#f2f4f9;}.u{fill:#484255;}.v{fill:#577de8;}.w{fill:#ced6e9;}.x{fill:#fbc1b1;}</style></defs><g transform="translate(-407 -2627.2)"><g transform="translate(-277 -5447)"><path class="a" d="M130,0A130,130,0,1,1,0,130,130,130,0,0,1,130,0Z" transform="translate(684 8074.2)"/><path class="b" d="M634.99,490.211a7.774,7.774,0,1,1-7.77-7.77A7.777,7.777,0,0,1,634.99,490.211Zm-7.77-90.944h0a16.534,16.534,0,0,0-16.275,19.526c2.684,14.561,6.495,34.474,9.942,49.663a6.494,6.494,0,0,0,12.667,0c3.447-15.189,7.258-35.1,9.942-49.663A16.535,16.535,0,0,0,627.22,399.267Z" transform="translate(193.333 7754.733)"/></g><g transform="translate(407.325 2921.484)"><path class="c" d="M276,660H813.675s-11.269,20.927-37.026,17.708a149.484,149.484,0,0,1-20.927-1.61c-9.659-1.61-24.147,3.22-27.367,8.049,0,0-24.147,14.488-64.392,0,0,0-37.026-16.1-62.782-1.61,0,0-19.318,20.928-69.222-4.829,0,0-12.879-8.049-35.416,8.049,0,0-22.537,19.318-66-8.049,0,0-24.147-6.439-51.514,6.439C379.028,684.147,324.294,692.2,276,660Z" transform="translate(-276 -571.461)"/><path class="d" d="M582.407,634.075s27.206,15.026,15.19,36.5C597.6,670.576,578.133,666.564,582.407,634.075Z" transform="translate(-89.525 -587.27)"/><path class="e" d="M614.007,623s14.488,46.684-22.537,57.953C591.47,680.953,573.762,655.2,614.007,623Z" transform="translate(-85.991 -594.023)"/><path class="e" d="M334.352,621.92s-41.564,22.958-23.207,55.765C311.145,677.685,340.883,671.557,334.352,621.92Z" transform="translate(-257.422 -594.682)"/><path class="d" d="M292.061,605s-22.135,71.324,34.43,88.539C326.492,693.539,353.546,654.189,292.061,605Z" transform="translate(-268.808 -605)"/></g><g transform="translate(99 -12)"><path class="f" d="M1873.809,956.622a7.715,7.715,0,0,1,3.49-6.045c1.928-1.114,3.49-.212,3.491,2.015a7.714,7.714,0,0,1-3.491,6.045C1875.372,959.75,1873.809,958.848,1873.809,956.622Z" transform="translate(-1346.063 2030.438)"/><path class="f" d="M1873.809,956.622a7.715,7.715,0,0,1,3.49-6.045c1.928-1.114,3.49-.212,3.491,2.015a7.714,7.714,0,0,1-3.491,6.045C1875.372,959.75,1873.809,958.848,1873.809,956.622Z" transform="translate(-1346.063 2030.438)"/><path class="f" d="M1879.907,950.414l3.008,1.568-4.722,8.606-3.522-1.832.893-4.847Z" transform="translate(-1346.107 2030.421)"/><path class="g" d="M1876.937,958.244a7.715,7.715,0,0,1,3.49-6.045c1.927-1.112,3.49-.211,3.49,2.016a7.717,7.717,0,0,1-3.49,6.045C1878.5,961.372,1876.937,960.471,1876.937,958.244Z" transform="translate(-1346.224 2030.354)"/><path class="h" d="M1876.937,958.244a7.715,7.715,0,0,1,3.49-6.045c1.927-1.112,3.49-.211,3.49,2.016a7.717,7.717,0,0,1-3.49,6.045C1878.5,961.372,1876.937,960.471,1876.937,958.244Z" transform="translate(-1346.224 2030.354)"/><path class="f" d="M1915.986,957.714a7.713,7.713,0,0,1,3.49-6.045c1.927-1.114,3.49-.212,3.49,2.015a7.715,7.715,0,0,1-3.49,6.046C1917.548,960.842,1915.986,959.939,1915.986,957.714Z" transform="translate(-1348.237 2030.381)"/><path class="f" d="M1915.986,957.714a7.713,7.713,0,0,1,3.49-6.045c1.927-1.114,3.49-.212,3.49,2.015a7.715,7.715,0,0,1-3.49,6.046C1917.548,960.842,1915.986,959.939,1915.986,957.714Z" transform="translate(-1348.237 2030.381)"/><path class="f" d="M1922.083,951.506l3.008,1.568-4.721,8.606-3.522-1.832.892-4.847Z" transform="translate(-1348.281 2030.365)"/><path class="g" d="M1919.113,959.337a7.715,7.715,0,0,1,3.49-6.045c1.928-1.113,3.49-.211,3.49,2.015a7.714,7.714,0,0,1-3.49,6.046C1920.676,962.465,1919.113,961.563,1919.113,959.337Z" transform="translate(-1348.397 2030.298)"/><path class="h" d="M1919.113,959.337a7.715,7.715,0,0,1,3.49-6.045c1.928-1.113,3.49-.211,3.49,2.015a7.714,7.714,0,0,1-3.49,6.046C1920.676,962.465,1919.113,961.563,1919.113,959.337Z" transform="translate(-1348.397 2030.298)"/><path class="g" d="M2039.535,945.725a5.21,5.21,0,0,1-4.716,0c-1.3-.752-1.3-1.971,0-2.723a5.211,5.211,0,0,1,4.716,0C2040.837,943.754,2040.837,944.973,2039.535,945.725Z" transform="translate(-1354.312 2030.833)"/><path class="i" d="M2113.248,803.514c-5.2-6.026-11.06,2.526-13.826,6.071-1.88,2.41-8.417,8.805-7.7,12.162.251,1.177.394,1.122,1.556,1.434a7.278,7.278,0,0,0,3.569-.133c6.137-1.479,11-4.947,13.785-10.257.113,1.475.142,2.952.124,4.43a.424.424,0,0,0,.658.346q.859-.561,1.687-1.168c2.058-1.52,1.15-3.675,1.707-6.126A7.683,7.683,0,0,0,2113.248,803.514Z" transform="translate(-1357.293 2038.101)"/><path class="j" d="M1922.324,928.857c-13.239-7.643-34.7-7.643-47.937,0s-13.238,20.034,0,27.677,34.7,7.643,47.937,0S1935.56,936.5,1922.324,928.857Z" transform="translate(-1345.581 2031.828)"/><path class="j" d="M2135.973,868.485,1959.7,768.234l-109.019,65.454a1.96,1.96,0,0,0,.046,3.389l171.359,96.61a11.461,11.461,0,0,0,11.606-.111l102.319-61.4A2.138,2.138,0,0,0,2135.973,868.485Z" transform="translate(-1344.822 2039.812)"/><path class="g" d="M2040.511,878.475v61.984a.691.691,0,0,1-.05.242.547.547,0,0,1-.483.292h-5.605a.549.549,0,0,1-.483-.292.691.691,0,0,1-.05-.242V878.475a.538.538,0,0,1,.533-.534h5.605A.537.537,0,0,1,2040.511,878.475Z" transform="translate(-1354.312 2034.157)"/><path class="g" d="M2040.511,889.091a.478.478,0,0,1-.06.231,1.1,1.1,0,0,1,.06.352,1.639,1.639,0,0,1-.976,1.358,5.2,5.2,0,0,1-4.719,0,1.641,1.641,0,0,1-.976-1.358,1.059,1.059,0,0,1,.061-.352.464.464,0,0,1-.061-.231V878.475a.538.538,0,0,1,.533-.534h5.605a.537.537,0,0,1,.533.534Z" transform="translate(-1354.312 2034.157)"/><path class="g" d="M1852.35,841.9a5.209,5.209,0,0,1-4.716,0c-1.3-.752-1.3-1.971,0-2.723a5.209,5.209,0,0,1,4.716,0C1853.652,839.924,1853.652,841.143,1852.35,841.9Z" transform="translate(-1344.664 2036.184)"/><path class="g" d="M1853.326,774.645V836.63a.69.69,0,0,1-.05.241.545.545,0,0,1-.482.292h-5.606a.548.548,0,0,1-.483-.292.7.7,0,0,1-.05-.241V774.645a.537.537,0,0,1,.533-.534h5.606A.537.537,0,0,1,1853.326,774.645Z" transform="translate(-1344.664 2039.509)"/><path class="g" d="M1853.326,785.261a.476.476,0,0,1-.06.232,1.1,1.1,0,0,1,.06.352,1.64,1.64,0,0,1-.976,1.358,5.2,5.2,0,0,1-4.719,0,1.641,1.641,0,0,1-.976-1.358,1.07,1.07,0,0,1,.061-.352.466.466,0,0,1-.061-.232V774.645a.537.537,0,0,1,.533-.534h5.606a.537.537,0,0,1,.533.534Z" transform="translate(-1344.664 2039.509)"/><path class="g" d="M2153.23,879.248a5.211,5.211,0,0,1-4.716,0c-1.3-.751-1.3-1.971,0-2.723a5.218,5.218,0,0,1,4.716,0C2154.533,877.277,2154.533,878.5,2153.23,879.248Z" transform="translate(-1360.172 2034.259)"/><path class="g" d="M2154.208,812v61.985a.689.689,0,0,1-.052.242.546.546,0,0,1-.483.291h-5.6a.546.546,0,0,1-.482-.291.693.693,0,0,1-.05-.242V812a.537.537,0,0,1,.533-.533h5.6A.538.538,0,0,1,2154.208,812Z" transform="translate(-1360.172 2037.583)"/><path class="g" d="M2154.208,827.526a.471.471,0,0,1-.061.231,1.092,1.092,0,0,1,.061.352,1.642,1.642,0,0,1-.976,1.358,5.2,5.2,0,0,1-4.72,0,1.639,1.639,0,0,1-.976-1.358,1.084,1.084,0,0,1,.06-.352.468.468,0,0,1-.06-.231V816.91a.536.536,0,0,1,.533-.533h5.6a.537.537,0,0,1,.534.533Z" transform="translate(-1360.172 2037.33)"/><path class="k" d="M1843.692,761.735l-.012,13.3,19.8,7.309-1.01-7.244Z" transform="translate(-1344.51 2040.147)"/><path class="k" d="M2160.8,814.282V802.411l-21.941,14.106,1.467,3.906Z" transform="translate(-1359.725 2038.05)"/><path class="k" d="M1846.329,766.327l102.79-60.089a23.286,23.286,0,0,1,23.3-.117L2142.1,803.036a6.135,6.135,0,0,1,.024,10.64L2037.668,874a23.286,23.286,0,0,1-23.294,0l-168.019-97.066A6.134,6.134,0,0,1,1846.329,766.327Z" transform="translate(-1344.49 2043.171)"/><path class="l" d="M1846.719,754.552l102.79-60.088a23.289,23.289,0,0,1,23.3-.118l169.682,96.915a6.134,6.134,0,0,1,.025,10.639l-104.459,60.328a23.286,23.286,0,0,1-23.294,0l-168.019-97.065A6.135,6.135,0,0,1,1846.719,754.552Z" transform="translate(-1344.51 2043.778)"/><path class="g" d="M1973.34,821.39l-52.18-30.127c-2.368-1.368-2.368-3.584,0-4.951l20.512-11.843a9.475,9.475,0,0,1,8.576,0l52.18,30.127c2.368,1.368,2.368,3.584,0,4.951l-20.513,11.843A9.473,9.473,0,0,1,1973.34,821.39Z" transform="translate(-1348.412 2039.543)"/><path class="g" d="M1919.384,785.658v4.949l58.244,32.439L2004.2,807.7v-3.759Z" transform="translate(-1348.412 2038.914)"/><path class="m" d="M1973.34,817.427,1921.16,787.3c-2.368-1.367-2.368-3.583,0-4.951l20.512-11.843a9.481,9.481,0,0,1,8.576,0l52.18,30.128c2.368,1.367,2.368,3.583,0,4.951l-20.513,11.843A9.479,9.479,0,0,1,1973.34,817.427Z" transform="translate(-1348.412 2039.747)"/><path class="m" d="M1985.286,810.528l-50.558-29.19,4.442-2.565,50.558,29.19Z" transform="translate(-1349.203 2039.268)"/><path class="m" d="M1977.253,815.167l-50.557-29.19,4.442-2.565L1981.7,812.6Z" transform="translate(-1348.789 2039.029)"/><path class="h" d="M1935.79,781.37l49.551,28.609,3.436-1.984-49.551-28.609Z" transform="translate(-1349.258 2039.237)"/><path class="h" d="M1927.757,786.008l49.551,28.609,3.436-1.985-49.551-28.609Z" transform="translate(-1348.844 2038.998)"/><path class="h" d="M1943.607,776.1l49.551,28.61,3.437-1.985-49.551-28.608Z" transform="translate(-1349.661 2039.508)"/><path class="n" d="M2042.182,820.326c0,3.318-5.063,6.008-11.309,6.008s-11.31-2.69-11.31-6.008,5.064-6.007,11.31-6.007S2042.182,817.009,2042.182,820.326Z" transform="translate(-1353.576 2037.436)"/><ellipse class="m" cx="11.309" cy="6.007" rx="11.309" ry="6.007" transform="translate(665.987 2848.777)"/><path class="i" d="M2037.633,907.186l1.156-.672c.175-.1.174-.267-.005-.37l-1.16-.67a.706.706,0,0,0-.639,0l-1.154.672a.2.2,0,0,0,0,.37l1.16.67a.7.7,0,0,0,.639,0Z" transform="translate(-1354.407 2032.742)"/><rect class="i" width="4.503" height="10.796" rx="1.584" transform="translate(614.64 2952.792)"/><path class="o" d="M1965.677,858.406l.16,3.456,1.993,48.664c-.007.182-.023.145-.034.067a7.175,7.175,0,0,0-.46,2.566c3,2.192,5.571,3.413,9.576,3.211a34.172,34.172,0,0,1,.614-7.084c.071-.519,3.932-48.621,3.932-48.621v-.042C1975.531,860.775,1971.606,858.08,1965.677,858.406Z" transform="translate(-1350.798 2035.165)"/><path class="i" d="M1976.791,925.261c3.863,2.733,3.489,5.291,9.286,3.863a10.744,10.744,0,0,0,5.017-2.4,3.973,3.973,0,0,0,.951-4.8c-.827-1.335-2.558-1.964-4.2-2.332a25.847,25.847,0,0,0-8.319-.481,7.1,7.1,0,0,0-3.737,1.226C1973.729,922,1975.057,924.035,1976.791,925.261Z" transform="translate(-1351.266 2032.042)"/><path class="o" d="M1974.586,914.245a10.133,10.133,0,0,1,2.61,1.874c2.91,2.424,5.866,4.9,7.916,8.087-.6,1.792-2.569,3.093-4.718,3.737a32.065,32.065,0,0,1-3.674-1.3,20.025,20.025,0,0,1-8.114-6.727c-.246-.354-.481-.832-.238-1.187l3.235-3.132c3.243-3.138,8.036,1.34,11.3,3.046,1.236.645,2.639,1.541,2.686,2.934.045,1.3-1.157,2.3-2.335,2.854a11.2,11.2,0,0,1-3.683,1.022Z" transform="translate(-1350.932 2032.286)"/><path class="i" d="M1966.3,914.855a5.14,5.14,0,0,1,4.695.681c2.27,1.37,3.953,3.611,5.936,5.335,2.732,2.376,5.485,3.706,8.828,2.177,1.1.669,1.872,1.439,1.837,2.327-.049,1.293-2.366,2.952-3.389,3.655-3.211,2.21-8.375-1.337-10.987-2.665-2.058-1.047-4.24-.853-6.2-1.725C1964.387,923.463,1963.549,917.334,1966.3,914.855Z" transform="translate(-1350.743 2032.27)"/><rect class="i" width="4.503" height="10.796" rx="1.584" transform="translate(587.518 2935.643)"/><path class="p" d="M1936.615,852.263l.16-1.575,1.993,42.626c-.008.182-.024.145-.034.067a7.17,7.17,0,0,0-.46,2.566c3,2.192,5.57,3.414,9.575,3.211a34.149,34.149,0,0,1,.614-7.084c.07-.519,2.926-40.57,2.926-40.57v-.042C1945.462,851.612,1942.544,851.936,1936.615,852.263Z" transform="translate(-1349.3 2035.562)"/><path class="i" d="M1947.729,907.531c3.863,2.733,3.488,5.292,9.285,3.864a10.754,10.754,0,0,0,5.017-2.4,3.972,3.972,0,0,0,.95-4.8c-.827-1.335-2.558-1.964-4.2-2.331a25.855,25.855,0,0,0-8.319-.482,7.1,7.1,0,0,0-3.737,1.226C1944.667,904.265,1946,906.306,1947.729,907.531Z" transform="translate(-1349.768 2032.956)"/><path class="p" d="M1945.524,896.515a10.163,10.163,0,0,1,2.61,1.874c2.91,2.424,5.866,4.9,7.916,8.088-.6,1.791-2.568,3.093-4.718,3.737a32.045,32.045,0,0,1-3.674-1.3,20.021,20.021,0,0,1-8.114-6.727c-.246-.354-.481-.831-.238-1.187l3.235-3.132c3.242-3.138,8.036,1.341,11.3,3.046,1.236.645,2.639,1.541,2.686,2.935.045,1.3-1.157,2.3-2.335,2.853a11.2,11.2,0,0,1-3.683,1.021Z" transform="translate(-1349.434 2033.199)"/><path class="i" d="M1937.243,897.125a5.139,5.139,0,0,1,4.695.681c2.27,1.371,3.953,3.611,5.935,5.335,2.732,2.377,5.485,3.706,8.828,2.178,1.1.668,1.871,1.438,1.837,2.326-.049,1.294-2.366,2.952-3.389,3.654-3.212,2.21-8.375-1.337-10.987-2.665-2.058-1.047-4.24-.853-6.2-1.725C1935.325,905.733,1934.487,899.6,1937.243,897.125Z" transform="translate(-1349.245 2033.184)"/><path class="q" d="M2016.063,759.319c0,1.933-1.357,2.716-3.031,1.75a6.7,6.7,0,0,1-3.031-5.25c0-1.933,1.357-2.716,3.031-1.75A6.7,6.7,0,0,1,2016.063,759.319Z" transform="translate(-1353.083 2040.563)"/><path class="p" d="M1910.235,811.562a31.484,31.484,0,0,1-.108-3.6c.749-1.569,1.417-2.984,1.409-3.1l23.525-16.33a4.263,4.263,0,0,1,3.082-1.128,4.368,4.368,0,0,1,.614.069,4.247,4.247,0,0,1,2.36,1.311,4.292,4.292,0,0,1-.253,6.057L1917.8,814.663l-.056.047A4.638,4.638,0,0,1,1910.235,811.562Z" transform="translate(-1347.934 2038.824)"/><path class="o" d="M1943.615,797.155c-2.826,2.626-6.8,2.94-8.882.7s-1.477-6.182,1.349-8.807,6.8-2.94,8.882-.7S1946.441,794.53,1943.615,797.155Z" transform="translate(-1349.139 2038.852)"/><path class="i" d="M1971.6,854.917l-14.329-8.211c-5.545-2.777-9.912.674-15.859,2.425l.755-.755-2.8-4.367-33.106-2.335c-11.592,6.571-13.836,34.756-13.836,34.756l.01.211h0c-1.37,11.439,16.453,20.037,30.206,22.132a22.576,22.576,0,0,0,14.072-2.472l2.3-1.236,33.2-17.831C1982.218,871.581,1981.865,860.08,1971.6,854.917Z" transform="translate(-1347.019 2036.026)"/><path class="h" d="M1904.393,833.841a42.735,42.735,0,0,1-.106,5.818,2.7,2.7,0,0,0,1.229,2.522,35.656,35.656,0,0,0,5.193,2.7c5.2,2.182,11.17,3.412,16.724,2.182.222-.052.435-.105.656-.158,3.191-.817,10.131-2.7,10.757-6.655a1.949,1.949,0,0,0,.052-.487c-.01-.371-.031-.753-.052-1.134V820.889c1.727-5.14,4.9-8.806,3.317-15.335a23.214,23.214,0,0,0-3.7-8.308c-2.925-4.027-7.143-6.518-12.526-8.087-1.706-.487-3.392-.891-4.918-1.208a30.31,30.31,0,0,0-9.877-.371c-3.465.446-6.782,1.622-8.849,3.932a8.029,8.029,0,0,0-.742.932c-4.112,6.168-1.928,14.8-.434,21.492C1902.591,820.519,1904.139,827.132,1904.393,833.841Z" transform="translate(-1347.371 2038.827)"/><path class="r" d="M1928.544,777.393c-.021,0-.041.023-.062.045a1.387,1.387,0,0,1-.021-.294A.361.361,0,0,0,1928.544,777.393Z" transform="translate(-1348.879 2039.352)"/><path class="o" d="M1912.585,793.32h5.049a8.674,8.674,0,0,0,8.554-7.24l.314-1.879,1.146-6.875h-12.389Z" transform="translate(-1348.062 2039.343)"/><path class="p" d="M1918.75,779.868l6.15,9.343h.392l1.528-9.118Z" transform="translate(-1348.38 2039.212)"/><path class="p" d="M1927.535,774.316a1.041,1.041,0,0,1-.79.065c-.028-.068-.013-.142-.052-.207Z" transform="translate(-1348.789 2039.505)"/><path class="p" d="M1931.545,782.827c.144.01.288.039.432.058l-1.135-1.087C1931.083,782.135,1931.313,782.481,1931.545,782.827Z" transform="translate(-1349.003 2039.113)"/><path class="p" d="M1911.981,791.418c1.94,2.841,8.413,1.822,14.593-2.253-1.714-.5-3.4-.9-4.926-1.214a30.6,30.6,0,0,0-9.872-.373A4.268,4.268,0,0,0,1911.981,791.418Z" transform="translate(-1348.002 2038.827)"/><path class="r" d="M1928.171,771.668c-.021,0-.039.026-.057.05a1.434,1.434,0,0,1-.05-.29A.362.362,0,0,0,1928.171,771.668Z" transform="translate(-1348.858 2039.647)"/><path class="o" d="M1935.624,765.738c.24,3.651-.02,7.3-1.88,10.189-2.045,3.214-5.714,4.78-9.3,5.239a10.853,10.853,0,0,1-5.92-.689c-3.516-1.647-5.5-5.766-6.749-9.719a34.228,34.228,0,0,1-1.1-4.591,17.4,17.4,0,0,1-.017-5.319,15.224,15.224,0,0,1,5.753-9.318,24.014,24.014,0,0,1,9.751-4.211,8.127,8.127,0,0,1,5.121.1,4.334,4.334,0,0,1,2.333,2.627,3.319,3.319,0,0,1,.174,1.295c.443,3.3.883,6.568,1.327,9.864C1935.315,762.692,1935.511,764.2,1935.624,765.738Z" transform="translate(-1347.952 2040.908)"/><path d="M1907,761.193a22.952,22.952,0,0,0,2.228,7.909,20.5,20.5,0,0,0,7.009,8.438c2.478,1.552,7.34,2.757,9.431-.02,2.051-2.723.309-7.043,2.337-9.783a9.391,9.391,0,0,1,2.24-1.927,17.687,17.687,0,0,0,4.748-4.594c3.06-4.7,1.621-13.408-3.587-16.167a17.575,17.575,0,0,0-13.762-.677,15.727,15.727,0,0,0-3.969,2.232c-.066.059-.135.107-.22.177A17.125,17.125,0,0,0,1907,761.193Z" transform="translate(-1347.771 2041.097)"/><path class="p" d="M1926.858,768.708a1.036,1.036,0,0,1-.781.144c-.033-.064-.027-.14-.072-.2Z" transform="translate(-1348.753 2039.79)"/><path class="p" d="M1923.321,770.013a5.928,5.928,0,0,0,1.533,3.282,6.366,6.366,0,0,0,1.691,1.584,2.725,2.725,0,0,0,2.235.306c2.284-.808,1.715-4.229.818-5.845a4.149,4.149,0,0,0-3.385-2.212A2.77,2.77,0,0,0,1923.321,770.013Z" transform="translate(-1348.614 2039.869)"/><path class="b" d="M1929.751,806.5c1.588-2.834,2.948-4.885,6.366-4.333a44.329,44.329,0,0,1,6.975,2.054c.219.674.428,1.366.607,2.1,1.579,6.528-1.59,10.195-3.317,15.335V839.39c.021.381.042.763.052,1.134a1.96,1.96,0,0,1-.052.487c-.626,3.953-7.567,5.839-10.757,6.655-.222.053-.435.106-.656.158V807.551A5.142,5.142,0,0,0,1929.751,806.5Z" transform="translate(-1348.906 2038.067)"/><path class="i" d="M1921.925,746.8l-.527.053Z" transform="translate(-1348.515 2040.916)"/><path class="o" d="M1944.278,838.7a31.209,31.209,0,0,1-.108-3.6c.749-1.569,1.417-2.984,1.409-3.1l23.525-16.33a4.264,4.264,0,0,1,3.083-1.128,4.358,4.358,0,0,1,.612.069,4.287,4.287,0,0,1,2.108,7.368l-23.061,19.828-.056.047A4.638,4.638,0,0,1,1944.278,838.7Z" transform="translate(-1349.688 2037.425)"/><path class="o" d="M1977.658,824.3c-2.826,2.626-6.8,2.94-8.884.7s-1.476-6.182,1.35-8.807,6.8-2.94,8.883-.7S1980.483,821.673,1977.658,824.3Z" transform="translate(-1350.894 2037.453)"/><path class="o" d="M1971.436,817.356h0a1.846,1.846,0,0,1,.1-2.607l8.115-7.54a1.844,1.844,0,0,1,2.606.1h0a1.844,1.844,0,0,1-.1,2.606l-8.114,7.54A1.846,1.846,0,0,1,1971.436,817.356Z" transform="translate(-1351.069 2037.828)"/><path class="m" d="M1946.931,842.08l-.086.032a6.085,6.085,0,0,1-7.843-4.371l-7.605-30.43a6.358,6.358,0,0,1,12.336-3.084l3,12,2.957,11.817h0C1951,833.7,1953.69,839.562,1946.931,842.08Z" transform="translate(-1349.021 2038.205)"/><path d="M1930.525,762.963c-.068-.575-.122-1.151-.157-1.731-.31-4.935.61-10.173-3.69-13.859-2.991-2.564-7.315-2.709-11.248-2.479-4.3.249-8.742.846-12.394,3.128-6.859,4.284-6.826,15.1-4.783,22.058a55,55,0,0,1,1.837,8.573c-.05,4.456-2.626,6.716-7.705,7.57a11.288,11.288,0,0,0-8.574,6.677,15.8,15.8,0,0,0-1.333,5.706c-.3,6.137-.885,7.841-8.02,10.021a15.958,15.958,0,0,0-9.984,8.924c-5.012,10.957.15,26.793,11.53,35.371s24.666,6.649,29.678-4.309a24.678,24.678,0,0,0,1.212-15.536c-1.994-9.038-1.131-10.543,2.867-13.849a.3.3,0,0,0,.033-.031,11.859,11.859,0,0,0,3.234-4.272,18.226,18.226,0,0,0,.37-12.861c-1.9-6.114-1.616-10.1,1.39-12.331a28.887,28.887,0,0,1,6.723-2.121,12.29,12.29,0,0,0,9.052-7.219C1933.233,774.556,1931.215,768.864,1930.525,762.963Z" transform="translate(-1345.483 2041.019)"/><path class="f" d="M1918.062,931.888a7.718,7.718,0,0,1,3.49-6.045c1.927-1.113,3.49-.211,3.49,2.016a7.712,7.712,0,0,1-3.49,6.045C1919.625,935.016,1918.062,934.114,1918.062,931.888Z" transform="translate(-1348.344 2031.712)"/><path class="f" d="M1918.062,931.888a7.718,7.718,0,0,1,3.49-6.045c1.927-1.113,3.49-.211,3.49,2.016a7.712,7.712,0,0,1-3.49,6.045C1919.625,935.016,1918.062,934.114,1918.062,931.888Z" transform="translate(-1348.344 2031.712)"/><path class="f" d="M1924.16,925.68l3.008,1.568-4.722,8.606-3.522-1.832.893-4.847Z" transform="translate(-1348.388 2031.696)"/><path class="g" d="M1921.19,933.51a7.713,7.713,0,0,1,3.49-6.045c1.927-1.114,3.49-.211,3.49,2.016a7.718,7.718,0,0,1-3.49,6.045C1922.752,936.639,1921.19,935.737,1921.19,933.51Z" transform="translate(-1348.505 2031.629)"/><path class="h" d="M1921.19,933.51a7.713,7.713,0,0,1,3.49-6.045c1.927-1.114,3.49-.211,3.49,2.016a7.718,7.718,0,0,1-3.49,6.045C1922.752,936.639,1921.19,935.737,1921.19,933.51Z" transform="translate(-1348.505 2031.629)"/><path class="f" d="M1873.025,932.806a7.717,7.717,0,0,1,3.49-6.046c1.927-1.113,3.49-.211,3.49,2.016a7.712,7.712,0,0,1-3.49,6.045C1874.588,935.934,1873.025,935.032,1873.025,932.806Z" transform="translate(-1346.021 2031.665)"/><path class="f" d="M1873.025,932.806a7.717,7.717,0,0,1,3.49-6.046c1.927-1.113,3.49-.211,3.49,2.016a7.712,7.712,0,0,1-3.49,6.045C1874.588,935.934,1873.025,935.032,1873.025,932.806Z" transform="translate(-1346.021 2031.665)"/><path class="f" d="M1879.122,926.6l3.008,1.568-4.722,8.606-3.522-1.832.893-4.847Z" transform="translate(-1346.066 2031.649)"/><path class="g" d="M1876.153,934.429a7.713,7.713,0,0,1,3.49-6.045c1.927-1.113,3.49-.211,3.49,2.015a7.714,7.714,0,0,1-3.49,6.045C1877.715,937.557,1876.153,936.655,1876.153,934.429Z" transform="translate(-1346.184 2031.581)"/><path class="h" d="M1876.153,934.429a7.713,7.713,0,0,1,3.49-6.045c1.927-1.113,3.49-.211,3.49,2.015a7.714,7.714,0,0,1-3.49,6.045C1877.715,937.557,1876.153,936.655,1876.153,934.429Z" transform="translate(-1346.184 2031.581)"/><path class="l" d="M1923.417,946.574l-15.445-8.917,15.445-8.917c2.535-1.464,2.535-3.858,0-5.323h0a10.228,10.228,0,0,0-9.219,0l-15.445,8.917-15.445-8.917a10.228,10.228,0,0,0-9.219,0c-2.535,1.464-2.535,3.859,0,5.323l15.445,8.917-15.445,8.917c-2.535,1.463-2.535,3.859,0,5.323h0a10.228,10.228,0,0,0,9.219,0l15.445-8.917L1914.2,951.9a10.228,10.228,0,0,0,9.219,0C1925.952,950.433,1925.952,948.037,1923.417,946.574Z" transform="translate(-1345.979 2031.869)"/><path class="l" d="M1923.417,946.574l-15.445-8.917,15.445-8.917c2.535-1.464,2.535-3.858,0-5.323h0a10.228,10.228,0,0,0-9.219,0l-15.445,8.917-15.445-8.917a10.228,10.228,0,0,0-9.219,0c-2.535,1.464-2.535,3.859,0,5.323l15.445,8.917-15.445,8.917c-2.535,1.463-2.535,3.859,0,5.323h0a10.228,10.228,0,0,0,9.219,0l15.445-8.917L1914.2,951.9a10.228,10.228,0,0,0,9.219,0C1925.952,950.433,1925.952,948.037,1923.417,946.574Z" transform="translate(-1345.979 2031.869)"/><path class="g" d="M1892,937.8c0,2.885,3.481,5.224,7.778,5.224s7.778-2.339,7.778-5.224-3.483-7.666-7.778-7.666S1892,934.91,1892,937.8Z" transform="translate(-1347 2031.467)"/><path class="l" d="M1894.18,933.962c0,2.117,2.555,3.834,5.707,3.834s5.706-1.717,5.706-3.834-2.554-3.833-5.706-3.833S1894.18,931.846,1894.18,933.962Z" transform="translate(-1347.113 2031.467)"/><path class="g" d="M1900.008,890.8a3.514,3.514,0,0,0-3.491,3.539V928.4a3.491,3.491,0,1,0,6.981,0V894.338A3.514,3.514,0,0,0,1900.008,890.8Z" transform="translate(-1347.233 2033.494)"/><path class="s" d="M1966.818,887.525c0,.191,0,.393-.02.594a17.362,17.362,0,0,1-8.955,13.906L1919.766,922.9a10.113,10.113,0,0,1-1.8.775,10.394,10.394,0,0,1-8.5-.926l-43.611-25.7a23.8,23.8,0,0,1-11.613-18.294l-4.567-48.883-.473-5.082a5.428,5.428,0,0,1,7.809-5.373l47.2,23.355a5.429,5.429,0,0,1,2.747,3.159l15.094,45.8a6.3,6.3,0,0,0,9.107,3.5l24.632-14.087A7.371,7.371,0,0,1,1966.818,887.525Z" transform="translate(-1344.793 2037.203)"/><path class="f" d="M1916.605,920.709a3.026,3.026,0,0,1-3.264,4.063,10.372,10.372,0,0,1-3.833-1.338l-43.611-25.7a23.8,23.8,0,0,1-11.613-18.294l-4.206-45.008a2.173,2.173,0,0,1,3.127-2.15l38.089,18.833a5.45,5.45,0,0,1,2.747,3.17l15.084,45.8C1909.645,901.685,1912.834,910.815,1916.605,920.709Z" transform="translate(-1344.839 2036.522)"/><g transform="translate(26 -3155)"><path class="t" d="M2027.759,761.164c0,12.934-4.97,16.572-4.97,16.572s-1.088.687-2.707,1.7a.41.41,0,0,0-.086.071l-.344.2q-1.16.73-2.534,1.59l-.087-.044-.917.545-7.019,4.154a6.181,6.181,0,0,1-5.686.043l-15.641-9.038c-1.576-.9-1.576-2.378,0-3.295l7.032-4.068,4.1-2.363h.015c1.017-.587,1.991-1.146,2.836-1.647,5.743-3.308.286-18.649.014-19.408v-.015h.014Z" transform="translate(-1371.857 5201.568)"/><path class="l" d="M2027.969,761.164c0,12.934-4.97,16.572-4.97,16.572s-1.089.687-2.708,1.7a.385.385,0,0,0-.086.071l-.344.2q-1.16.73-2.534,1.59l-.087-.044-.917.545-21.313-12.2,4.1-2.363h.014c1.017-.587,1.991-1.146,2.837-1.647,5.743-3.308.286-18.649.013-19.408l.015-.015Z" transform="translate(-1372.067 5201.568)"/><path class="q" d="M2016.233,759.478c0,1.987-1.4,2.793-3.116,1.8a6.889,6.889,0,0,1-3.116-5.4c0-1.987,1.4-2.793,3.116-1.8A6.886,6.886,0,0,1,2016.233,759.478Z" transform="translate(-1372.441 5201.381)"/><path class="g" d="M2001.521,749.255s5.787,15.8,0,19.144l-2.8,1.615-.009,0-10.969,6.336c-1.544.892-1.543,2.351,0,3.242l15.409,8.9a6.088,6.088,0,0,0,5.587-.047l7.824-4.627.078.036c.9-.559,1.74-1.085,2.5-1.559l.344-.2c.032-.02.054-.044.083-.065,1.586-1,2.661-1.677,2.661-1.677s4.894-3.584,4.894-16.318Z" transform="translate(-1356.185 5185.738)"/><path class="t" d="M2027.126,760.933c0,12.736-4.894,16.318-4.894,16.318s-1.072.677-2.666,1.678a.414.414,0,0,0-.084.07l-.339.2q-1.142.719-2.5,1.566l-.085-.043-.9.537-6.911,4.09a6.085,6.085,0,0,1-5.6.042l-15.4-8.9c-1.552-.889-1.552-2.342,0-3.244l6.924-4.006,4.034-2.327h.014c1-.578,1.96-1.128,2.793-1.622,5.655-3.258.281-18.363.013-19.11v-.014h.014Z" transform="translate(-1356.185 5185.86)"/><path class="l" d="M2027.463,760.933c0,12.736-4.894,16.318-4.894,16.318s-1.073.677-2.667,1.678a.389.389,0,0,0-.084.07l-.339.2q-1.142.719-2.5,1.566l-.085-.043-.9.537L1995.01,769.24l4.033-2.327h.014c1-.578,1.96-1.128,2.793-1.622,5.655-3.258.281-18.363.013-19.11l.015-.014Z" transform="translate(-1356.521 5185.86)"/><path class="b" d="M2063.59,708.413,1981.983,661.3c-2.028-1.17-3.576-.685-5.348.744l-3.77,2.114,4.055,2.867v63.755a11.19,11.19,0,0,0,5.063,8.77l79.912,46.135v3.626a.653.653,0,0,0,1.023.537l3.833-2.642c1.158-.4,1.9-1.615,1.9-3.465V717.194A11.205,11.205,0,0,0,2063.59,708.413Z" transform="translate(-1355.637 5189.271)"/><path class="u" d="M2063.071,720.523v66.544c0,3.237-2.271,4.536-5.063,2.924L1976.4,742.876a11.186,11.186,0,0,1-5.063-8.77V667.563c0-3.237,2.27-4.547,5.063-2.935l81.606,47.113A11.21,11.21,0,0,1,2063.071,720.523Z" transform="translate(-1355.576 5189.141)"/><path class="v" d="M1977.728,736.762V672.688l79.458,45.874v64.074Z" transform="translate(-1355.832 5188.791)"/><path class="g" d="M2060.246,793.615a5.187,5.187,0,0,1-2.559-.774l-81.606-47.114a11.684,11.684,0,0,1-5.358-9.281V722.56l92.915,53.642v13.2a4.114,4.114,0,0,1-1.777,3.791A3.19,3.19,0,0,1,2060.246,793.615ZM1971.9,724.606v11.839a10.557,10.557,0,0,0,4.768,8.259l81.607,47.114a2.515,2.515,0,0,0,4.178-2.412V776.885Z" transform="translate(-1355.553 5186.802)"/><path class="q" d="M2016.137,759.389c0,1.957-1.374,2.75-3.068,1.771a6.783,6.783,0,0,1-3.068-5.314c0-1.957,1.374-2.75,3.069-1.771A6.781,6.781,0,0,1,2016.137,759.389Z" transform="translate(-1357.119 5185.561)"/><path class="p" d="M1443.883,1493.577l-3.782,20.435a8.164,8.164,0,0,1-3.323,6.565c-11.923,10.339-3.842-6.255-3.842-6.565l3.782-20.435a3.582,3.582,0,0,1,7.165,0Z" transform="translate(-789.701 4416.165)"/><path class="w" d="M1455.057,1508.656a2.958,2.958,0,0,0,1.386-.9,2.157,2.157,0,0,0,.542-1.448l3.31-13.919c0-2.76-1.791-4.995-4-4.995s-4,2.235-4,4.995l-2.777,11.672a1.951,1.951,0,0,0,.974,2.063Z" transform="translate(-805.782 4417.485)"/><path class="w" d="M1482.378,1508.467c-.023,6.155-.723,13.118-2.633,14.873-1.475,1.356-4.17,1.461-7.025.955q-.27-.043-.539-.1a29,29,0,0,1-8.646-3.258c-.449-.269-5.626-2.652-7.815-3.976a.283.283,0,0,0-.284-.028c1.239-2.969,2.681-6.755,2.524-9.9-.133-2.7-1.555-5.5-1.943-8.235-.7-4.983-.742-12.146,4.26-15.048a6.1,6.1,0,0,1,3.007-.638,9.272,9.272,0,0,1,1.669.114c7.706,1.4,11.786,3.887,14.107,7.7,1.56,2.549,2.335,5.7,2.883,9.512.034.232.067.487.095.757.018.137.033.274.047.416A66.9,66.9,0,0,1,1482.378,1508.467Z" transform="translate(-808.813 4419.669)"/><path class="w" d="M1476.424,1488.718l-4.168,4.673a1.121,1.121,0,0,1-1.747-.093l-2.424-3.367-3.483.621a.7.7,0,0,1-.816-.683v-1.08a5.069,5.069,0,0,1,4.006-4.957,11.63,11.63,0,0,1,2.432-.253,10.187,10.187,0,0,1,5.842,1.694A2.33,2.33,0,0,1,1476.424,1488.718Z" transform="translate(-813.063 4419.429)"/><path class="w" d="M1500.3,1516.564c-.024,6.155-.723,13.119-2.633,14.873-1.475,1.357-4.17,1.461-7.025.955a7.965,7.965,0,0,1,.373-.846c2.558-4.15,2.889-5.342,2.373-10.263a15.916,15.916,0,0,1,.114-5.834c.5-1.792,1.632-3.527,1.286-5.352a10.968,10.968,0,0,0-.936-2.33,8.925,8.925,0,0,1-.577-5.191,4.845,4.845,0,0,1,1.234-2.6,3.512,3.512,0,0,1,2.472-.96c1.56,2.549,2.335,5.7,2.884,9.512.033.232.066.487.095.756.019.132.033.274.047.416C1500.18,1511.491,1500.289,1513.926,1500.3,1516.564Z" transform="translate(-826.733 4411.572)"/><path class="i" d="M1476.286,1486.253a2.071,2.071,0,0,1-.662,1.47,4.6,4.6,0,0,1-5.867.052,1.98,1.98,0,0,1,0-3.045c.043-.038.09-.081.138-.118,0,0,.009-.009.014-.009a4.083,4.083,0,0,1,2-.841c.123-.019.246-.033.374-.043s.25-.014.378-.014a4.2,4.2,0,0,1,2.96,1.083A2.062,2.062,0,0,1,1476.286,1486.253Z" transform="translate(-815.739 4419.366)"/><path class="p" d="M1476.359,1473.15v9.2a4.206,4.206,0,0,1-2.959,1.083,4.286,4.286,0,0,1-2.841-.974.579.579,0,0,1-.066-.057v-9.252Z" transform="translate(-816.478 4424.739)"/><path class="x" d="M1473.156,1483.423a4.53,4.53,0,0,1-3-1.034c0,.006-.028-.022-.046-.039l-.073-.07-.026-.125v-9.488h6.339v9.534l-.069.069A4.477,4.477,0,0,1,1473.156,1483.423Zm-2.671-1.373a4.11,4.11,0,0,0,2.671.9,4.056,4.056,0,0,0,2.723-.947v-8.864h-5.394Z" transform="translate(-816.233 4424.984)"/><path class="p" d="M1476.057,1475.75l-.506.752-2.558,3.664-.359.51-2.075,3.106a.618.618,0,0,1-.066-.057v-4.794l0-.023a34.567,34.567,0,0,1,2.828-3l2.288-.127Z" transform="translate(-816.478 4423.415)"/><path class="p" d="M1471.415,1462.947c-.024.341-.424.623-.846.893-.141.094-.282.188-.412.294-.012,0-.024,0-.035.024a1.334,1.334,0,0,0-.27.235.69.69,0,0,0-.2.341,6.82,6.82,0,0,1-.411,1.281,6.94,6.94,0,0,1-2.657,3.127,7.108,7.108,0,0,1-.788.411,5.409,5.409,0,0,1-1.7.47,4.33,4.33,0,0,1-.682.024,5.7,5.7,0,0,1-5.3-4.7,10.894,10.894,0,0,1-.2-1.751c-.012-.683,0-1.352.024-2.011.047-1.047.082-2.093.117-3.127.012-.423.035-.835.047-1.258a1.363,1.363,0,0,1,.011-.576,1.921,1.921,0,0,1,1-1.258,4.3,4.3,0,0,1,2.469-.282,12.693,12.693,0,0,1,4.9,1.423,6.851,6.851,0,0,1,3.222,3.833C1469.934,1461.09,1471.45,1462.16,1471.415,1462.947Z" transform="translate(-810.068 4433.964)"/><path class="i" d="M1471.181,1453.1a6.552,6.552,0,0,0-1.538-3.906,6.891,6.891,0,0,0-3.251-2.02,7.22,7.22,0,0,0-2.579-.394,18.291,18.291,0,0,0-3.551,1.007c-1.221.342-2.513.412-3.7.848a3.485,3.485,0,0,0-2.457,2.64,3.187,3.187,0,0,0,2.076,3.016,9.341,9.341,0,0,0,3.858.489c.888-.013,2.739-.388,3.54.027,1.222.634.767,2.481,1.348,3.467a.946.946,0,0,0,.848.482c.8-.056,1.086-1.185,1.84-1.458a1.154,1.154,0,0,1,1.375.657,1.613,1.613,0,0,1-.254,1.58c-.36.472-1.066.524-1.389.9-.267.312-.167.846-.06,1.344a1.338,1.338,0,0,0,.8,1.01C1471.242,1463.873,1471.293,1454.588,1471.181,1453.1Z" transform="translate(-808.128 4438.169)"/><path class="p" d="M1483.064,1504.551v21.38a8.165,8.165,0,0,1-3.323,6.564c-14.459,8.7-19.654,3.626-4.236-5.781a.981.981,0,0,0,.394-.784v-21.38a3.583,3.583,0,1,1,7.165,0Z" transform="translate(-810.758 4410.578)"/><path class="w" d="M1496.6,1524.223a4.13,4.13,0,0,0,3.814-1.422,2.161,2.161,0,0,0,.542-1.449v-17.227c0-2.76-1.791-4.995-4-4.995s-4,2.235-4,4.995v17.851a1.261,1.261,0,0,0,.77,1.162A12.826,12.826,0,0,0,1496.6,1524.223Z" transform="translate(-827.911 4411.514)"/><path class="g" d="M2063.07,776.586v12.863c0,3.237-2.271,4.536-5.063,2.924L1976.4,745.257a11.185,11.185,0,0,1-5.063-8.77V723.625Z" transform="translate(-1355.576 5186.759)"/></g></g><g transform="translate(16.516 48)"><path class="j" d="M2082.343,1008.589c-14.278,0-25.894,7.664-25.894,17.085s11.616,17.085,25.894,17.085,25.893-7.664,25.893-17.085S2096.62,1008.589,2082.343,1008.589Z" transform="translate(-1240.594 1898.862)"/><path class="m" d="M2102.192,998.561l-6,30.1H2056.41l-6-30.1Z" transform="translate(-1230.708 1888.438)"/><path class="m" d="M2096.515,1029.69c0,5.088-7.708,10.748-18.906,11.063-.323.007-.653.015-.983.015-11.723,0-19.889-5.84-19.889-11.078s8.166-11.086,19.889-11.086a31.763,31.763,0,0,1,8.278,1.058C2092.019,1021.576,2096.515,1025.8,2096.515,1029.69Z" transform="translate(-1231.034 1887.405)"/><path class="g" d="M2103.653,998.561l-6,30.1c0,5.089-7.708,10.748-18.906,11.063a19.463,19.463,0,0,0,3.5-4.653,27.867,27.867,0,0,0,2.424-6.41,53.025,53.025,0,0,0,1.374-10.027c.1-1.718.157-3.437.2-5.141q.214-7.465.435-14.928Z" transform="translate(-1232.168 1888.438)"/><ellipse class="h" cx="25.893" cy="17.085" rx="25.893" ry="17.085" transform="translate(819.698 2869.91)"/><ellipse class="i" cx="19.889" cy="11.081" rx="19.889" ry="11.081" transform="translate(825.702 2875.915)"/><circle class="g" cx="17.859" cy="17.859" r="17.859" transform="translate(825.103 2816.871) rotate(-80.783)"/><circle class="g" cx="12.663" cy="12.663" r="12.663" transform="translate(829.047 2821.508) rotate(-22.5)"/><ellipse class="g" cx="13.784" cy="13.784" rx="13.784" ry="13.784" transform="translate(827.582 2867.783) rotate(-67.5)"/><path class="g" d="M2082.4,1000.239a4.959,4.959,0,1,1-4.958-4.958A4.959,4.959,0,0,1,2082.4,1000.239Z" transform="translate(-1231.845 1888.607)"/><path class="g" d="M2091,920.662c-3.962,5.058-3.837,6.494-2.221,10.754H2065.1c1.616-4.26,1.741-5.7-2.22-10.754Z" transform="translate(-1231.351 1892.453)"/><path class="g" d="M2089.222,922.824c-13.063,12.178-11.5,25.676-2.1,35.758h-20.164c9.4-10.082,10.966-23.58-2.1-35.758Z" transform="translate(-1231.453 1892.341)"/><path class="g" d="M2088.723,923.322c-13.534,11.651-11.128,66.215-7.893,69.973h-7.517c3.237-3.758,5.642-58.323-7.893-69.973Z" transform="translate(-1231.481 1892.316)"/><path class="g" d="M2086.295,946.01c-4.409,4.567-4.506,8.451.465,13.25h-19.148c4.972-4.8,4.874-8.683.465-13.25Z" transform="translate(-1231.595 1891.146)"/><path class="g" d="M2085.616,946.76c-9.507,8.364-7.917,43.98-4.642,47.7h-7.446c3.275-3.724,4.866-39.339-4.641-47.7Z" transform="translate(-1231.66 1891.108)"/><path class="g" d="M2085.366,982.2c-8.94,6.492-6.423,11.24-4.088,14.456h-8.025c2.336-3.216,4.852-7.964-4.087-14.456Z" transform="translate(-1231.675 1889.281)"/></g></g></svg>