<svg xmlns="http://www.w3.org/2000/svg" xmlns:xlink="http://www.w3.org/1999/xlink" width="537.675" height="444.349" viewBox="0 0 537.675 444.349"><defs><style>.a{fill:none;}.b{fill:#1162fb;}.c{fill:#fff;}.d{fill:#3d2768;}.e{fill:rgba(15,0,0,0.1);}.f{fill:#c4e4f9;}.g{fill:#0f62fe;}.h{fill:#647ddd;opacity:0.17;}.i{fill:#bddcff;}.j{fill:#8dc0ef;}.k{fill:#e2e8f2;}.l{fill:#1f3598;}.m{fill:#d5e8fa;}.n{fill:#eff6fc;}.o{fill:#75a3ec;}.p{fill:#f2f4f9;}.q{fill:#484255;}.r{fill:#577de8;}.s{fill:#f2f4fa;}.t{fill:#3772ce;}.u{fill:#ff8358;}.v{fill:#fd8358;}.w{fill:#4568c7;}.x{fill:#ced6e9;}.y{fill:#a0d2fe;}.z{opacity:0.34;}.aa{fill:#c1d7ea;}.ab{fill:#cacaca;mix-blend-mode:multiply;}.ab,.ae{isolation:isolate;}.ac{fill:#32b98e;}.ad{fill:#f26c73;}.af{clip-path:url(#a);}.ag{fill:#0af;}.ah{fill:#272768;}.ai{fill:#ff69a6;}.aj{fill:#00e1ff;}</style><clipPath id="a"><path class="a" d="M7634.007,1627.671l.451-158.713,223.342,129.2-7.62,154.325Z" transform="translate(-7634.007 -1468.959)"/></clipPath></defs><g transform="translate(-406 -2122.651)"><g transform="translate(-1153 -8172)"><g transform="translate(330 3829)"><circle class="b" cx="130" cy="130" r="130" transform="translate(1235 6490)"/></g><g transform="translate(449.667 9620.012)"><path class="c" d="M1190.873,888.663a9.4,9.4,0,0,1-9.54-9.223V809.047c.373.092.75.17,1.128.232v70.16a8.285,8.285,0,0,0,8.412,8.132h104.708a8.285,8.285,0,0,0,8.41-8.132V843.988c.379-.062.756-.141,1.129-.232V879.44a9.4,9.4,0,0,1-9.539,9.223Zm71.8-20.245a3.441,3.441,0,1,1,0-6.878h20.942a3.441,3.441,0,1,1,0,6.878Zm-59.834-17.354a3.44,3.44,0,1,1,0-6.877H1250.7a3.44,3.44,0,1,1,0,6.877Zm83.766-17.354a3.44,3.44,0,1,1,0-6.877h14.958a3.44,3.44,0,1,1,0,6.877Zm18.514-16.922c-.373-.091-.75-.17-1.129-.232V778.211a8.285,8.285,0,0,0-8.41-8.132H1190.873a8.285,8.285,0,0,0-8.412,8.132v3.636c-.378.063-.756.142-1.128.233v-3.87a9.4,9.4,0,0,1,9.54-9.223h104.708a9.4,9.4,0,0,1,9.539,9.223Zm-75.356-.432a3.44,3.44,0,1,1,0-6.877h44.875a3.44,3.44,0,1,1,0,6.877ZM1184.889,799a3.44,3.44,0,1,1,0-6.877H1217.8a3.44,3.44,0,1,1,0,6.877Z"/><path class="c" d="M1257.255,798.724q-.25-.1-.5-.183V776.116h.5Z" transform="translate(16.155 0.575)"/><rect class="c" width="0.502" height="21.815" transform="translate(1248.962 776.691)"/><rect class="c" width="0.503" height="5.83" transform="translate(1198.65 778.016)"/><rect class="c" width="0.502" height="21.815" transform="translate(1225.017 777.221)"/><rect class="c" width="0.502" height="3.167" transform="translate(1272.625 878.082)"/><path class="c" d="M1236.8,864.533v-5.421c.165.12.331.236.5.347v5.074Z" transform="translate(11.881 16.717)"/><path class="c" d="M1217.078,865.1V852.067c.159.242.327.479.5.709V865.1Z" transform="translate(7.657 16.148)"/><path class="c" d="M1256.519,840.279V829.531c.165.12.332.236.5.347v10.4Z" transform="translate(16.105 11.097)"/><path class="c" d="M1251.708,821.324h-3.74a6.434,6.434,0,0,1-4.79-1.716,5.288,5.288,0,0,1-1.364-2.783h.481a4.557,4.557,0,0,0,.574,1.553c.671,1.115,2.1,2.443,5.1,2.443h3.741l0-1.366,2.76,1.6-2.76,1.6Z" transform="translate(13.961 8.537)"/><rect class="c" width="0.503" height="19.151" transform="translate(1198.65 862.098)"/><path class="c" d="M1197.356,825.642V812.824c.168.039.335.074.5.1v12.713Z" transform="translate(1.293 8.13)"/><path class="c" d="M1204.871,806.533h-3.74a6.437,6.437,0,0,1-4.791-1.716,5.285,5.285,0,0,1-1.363-2.782h.481a4.546,4.546,0,0,0,.574,1.552c.67,1.115,2.1,2.443,5.1,2.443h3.741l0-1.366,2.759,1.6-2.759,1.6Z" transform="translate(1.101 5.898)"/><path class="c" d="M1237.3,825.657c-.167-.065-.334-.126-.5-.183v-2.988c.159.242.326.478.5.709Z" transform="translate(11.881 9.417)"/><rect class="c" width="0.502" height="8.495" transform="translate(1224.735 825.484)"/><path class="c" d="M1231.987,850.9h-3.74a6.441,6.441,0,0,1-4.791-1.716,5.285,5.285,0,0,1-1.362-2.782h.48a4.566,4.566,0,0,0,.574,1.553c.67,1.114,2.1,2.442,5.1,2.442h3.741l0-1.365,2.759,1.6-2.759,1.6Z" transform="translate(9.409 13.816)"/></g></g><path class="d" d="M3048,672.045a3.255,3.255,0,0,0-.632.124c.25-4.52.8-8.2,1.608-8.446,0,0-.174,3.59-.1,8.351a1.151,1.151,0,0,0-.174-.025c-.121-.012-.241-.021-.361-.021A2.867,2.867,0,0,0,3048,672.045Z" transform="translate(-2524.727 1778.574)"/><g transform="translate(406 2446.085)"><path class="e" d="M276,660H813.675s-11.269,20.927-37.026,17.708a149.484,149.484,0,0,1-20.927-1.61c-9.659-1.61-24.147,3.22-27.367,8.049,0,0-24.147,14.488-64.392,0,0,0-37.026-16.1-62.782-1.61,0,0-19.318,20.928-69.222-4.829,0,0-12.879-8.049-35.416,8.049,0,0-22.537,19.318-66-8.049,0,0-24.147-6.439-51.514,6.439C379.028,684.147,324.294,692.2,276,660Z" transform="translate(-276 -571.461)"/><path class="f" d="M582.407,634.075s27.206,15.026,15.19,36.5C597.6,670.576,578.133,666.564,582.407,634.075Z" transform="translate(-89.525 -587.27)"/><path class="g" d="M614.007,623s14.488,46.684-22.537,57.953C591.47,680.953,573.762,655.2,614.007,623Z" transform="translate(-85.991 -594.023)"/><path class="g" d="M334.352,621.92s-41.564,22.958-23.207,55.765C311.145,677.685,340.883,671.557,334.352,621.92Z" transform="translate(-257.422 -594.682)"/><path class="f" d="M292.061,605s-22.135,71.324,34.43,88.539C326.492,693.539,353.546,654.189,292.061,605Z" transform="translate(-268.808 -605)"/></g><path class="h" d="M2082.343,1008.589c-14.278,0-25.894,7.664-25.894,17.085s11.616,17.085,25.894,17.085,25.893-7.664,25.893-17.085S2096.62,1008.589,2082.343,1008.589Z" transform="translate(-1184.594 1407.882)"/><path class="i" d="M2102.192,998.561l-6,30.1H2056.41l-6-30.1Z" transform="translate(-1174.708 1397.457)"/><path class="i" d="M2096.515,1029.69c0,5.088-7.708,10.748-18.906,11.063-.323.007-.653.015-.983.015-11.723,0-19.889-5.84-19.889-11.078s8.166-11.086,19.889-11.086a31.763,31.763,0,0,1,8.278,1.058C2092.019,1021.576,2096.515,1025.8,2096.515,1029.69Z" transform="translate(-1175.034 1396.424)"/><path class="j" d="M2103.653,998.561l-6,30.1c0,5.089-7.708,10.748-18.906,11.063a19.463,19.463,0,0,0,3.5-4.653,27.867,27.867,0,0,0,2.424-6.41,53.025,53.025,0,0,0,1.374-10.027c.1-1.718.157-3.437.2-5.141q.214-7.465.435-14.928Z" transform="translate(-1176.168 1397.457)"/><ellipse class="k" cx="25.893" cy="17.085" rx="25.893" ry="17.085" transform="translate(875.698 2378.93)"/><ellipse class="l" cx="19.889" cy="11.081" rx="19.889" ry="11.081" transform="translate(881.702 2384.934)"/><circle class="j" cx="17.859" cy="17.859" r="17.859" transform="translate(881.103 2325.891) rotate(-80.783)"/><circle class="j" cx="12.663" cy="12.663" r="12.663" transform="translate(885.047 2330.527) rotate(-22.5)"/><ellipse class="j" cx="13.784" cy="13.784" rx="13.784" ry="13.784" transform="translate(883.582 2376.802) rotate(-67.5)"/><path class="j" d="M2082.4,1000.239a4.959,4.959,0,1,1-4.958-4.958A4.959,4.959,0,0,1,2082.4,1000.239Z" transform="translate(-1175.845 1397.626)"/><path class="j" d="M2091,920.662c-3.962,5.058-3.837,6.494-2.221,10.754H2065.1c1.616-4.26,1.741-5.7-2.22-10.754Z" transform="translate(-1175.351 1401.473)"/><path class="j" d="M2089.222,922.824c-13.063,12.178-11.5,25.676-2.1,35.758h-20.164c9.4-10.082,10.966-23.58-2.1-35.758Z" transform="translate(-1175.453 1401.361)"/><path class="j" d="M2088.723,923.322c-13.534,11.651-11.128,66.215-7.893,69.973h-7.517c3.237-3.758,5.642-58.323-7.893-69.973Z" transform="translate(-1175.481 1401.335)"/><path class="j" d="M2086.295,946.01c-4.409,4.567-4.506,8.451.465,13.25h-19.148c4.972-4.8,4.874-8.683.465-13.25Z" transform="translate(-1175.595 1400.166)"/><path class="j" d="M2085.616,946.76c-9.507,8.364-7.917,43.98-4.642,47.7h-7.446c3.275-3.724,4.866-39.339-4.641-47.7Z" transform="translate(-1175.66 1400.127)"/><path class="j" d="M2085.366,982.2c-8.94,6.492-6.423,11.24-4.088,14.456h-8.025c2.336-3.216,4.852-7.964-4.087-14.456Z" transform="translate(-1175.675 1398.301)"/><path class="h" d="M2082.343,1008.589c-14.278,0-25.894,7.664-25.894,17.085s11.616,17.085,25.894,17.085,25.893-7.664,25.893-17.085S2096.62,1008.589,2082.343,1008.589Z" transform="translate(-1184.594 1407.882)"/><path class="i" d="M2102.192,998.561l-6,30.1H2056.41l-6-30.1Z" transform="translate(-1174.708 1397.457)"/><path class="i" d="M2096.515,1029.69c0,5.088-7.708,10.748-18.906,11.063-.323.007-.653.015-.983.015-11.723,0-19.889-5.84-19.889-11.078s8.166-11.086,19.889-11.086a31.763,31.763,0,0,1,8.278,1.058C2092.019,1021.576,2096.515,1025.8,2096.515,1029.69Z" transform="translate(-1175.034 1396.424)"/><path class="j" d="M2103.653,998.561l-6,30.1c0,5.089-7.708,10.748-18.906,11.063a19.463,19.463,0,0,0,3.5-4.653,27.867,27.867,0,0,0,2.424-6.41,53.025,53.025,0,0,0,1.374-10.027c.1-1.718.157-3.437.2-5.141q.214-7.465.435-14.928Z" transform="translate(-1176.168 1397.457)"/><ellipse class="k" cx="25.893" cy="17.085" rx="25.893" ry="17.085" transform="translate(875.698 2378.93)"/><ellipse class="l" cx="19.889" cy="11.081" rx="19.889" ry="11.081" transform="translate(881.702 2384.934)"/><circle class="j" cx="17.859" cy="17.859" r="17.859" transform="translate(881.103 2325.891) rotate(-80.783)"/><circle class="j" cx="12.663" cy="12.663" r="12.663" transform="translate(885.047 2330.527) rotate(-22.5)"/><ellipse class="j" cx="13.784" cy="13.784" rx="13.784" ry="13.784" transform="translate(883.582 2376.802) rotate(-67.5)"/><path class="j" d="M2082.4,1000.239a4.959,4.959,0,1,1-4.958-4.958A4.959,4.959,0,0,1,2082.4,1000.239Z" transform="translate(-1175.845 1397.626)"/><path class="j" d="M2091,920.662c-3.962,5.058-3.837,6.494-2.221,10.754H2065.1c1.616-4.26,1.741-5.7-2.22-10.754Z" transform="translate(-1175.351 1401.473)"/><path class="j" d="M2089.222,922.824c-13.063,12.178-11.5,25.676-2.1,35.758h-20.164c9.4-10.082,10.966-23.58-2.1-35.758Z" transform="translate(-1175.453 1401.361)"/><path class="j" d="M2088.723,923.322c-13.534,11.651-11.128,66.215-7.893,69.973h-7.517c3.237-3.758,5.642-58.323-7.893-69.973Z" transform="translate(-1175.481 1401.335)"/><path class="j" d="M2086.295,946.01c-4.409,4.567-4.506,8.451.465,13.25h-19.148c4.972-4.8,4.874-8.683.465-13.25Z" transform="translate(-1175.595 1400.166)"/><path class="j" d="M2085.616,946.76c-9.507,8.364-7.917,43.98-4.642,47.7h-7.446c3.275-3.724,4.866-39.339-4.641-47.7Z" transform="translate(-1175.66 1400.127)"/><path class="j" d="M2085.366,982.2c-8.94,6.492-6.423,11.24-4.088,14.456h-8.025c2.336-3.216,4.852-7.964-4.087-14.456Z" transform="translate(-1175.675 1398.301)"/><g transform="translate(10134 -11140)"><path class="l" d="M2109.767,803.177c-4.363-5.054-9.276,2.118-11.6,5.092-1.577,2.021-7.06,7.385-6.46,10.2.211.987.33.941,1.3,1.2a6.1,6.1,0,0,0,2.993-.111,17.052,17.052,0,0,0,11.561-8.6c.1,1.237.119,2.475.1,3.716a.356.356,0,0,0,.552.29q.721-.47,1.415-.979c1.726-1.275.965-3.082,1.432-5.138A6.443,6.443,0,0,0,2109.767,803.177Z" transform="translate(-11449.845 12726.582)"/><path class="j" d="M2152.312,878.718a4.37,4.37,0,0,1-3.955,0,1.206,1.206,0,0,1,0-2.284,4.376,4.376,0,0,1,3.955,0A1.205,1.205,0,0,1,2152.312,878.718Z" transform="translate(-11461.272 12711.335)"/><path class="j" d="M2153.132,811.912V863.9a.577.577,0,0,1-.043.2.458.458,0,0,1-.405.244h-4.7a.457.457,0,0,1-.4-.244.581.581,0,0,1-.042-.2V811.912a.45.45,0,0,1,.447-.447h4.7A.451.451,0,0,1,2153.132,811.912Z" transform="translate(-11461.272 12724.528)"/><path class="j" d="M2153.132,825.728a.394.394,0,0,1-.051.194.914.914,0,0,1,.051.3,1.377,1.377,0,0,1-.819,1.139,4.363,4.363,0,0,1-3.958,0,1.375,1.375,0,0,1-.818-1.139.913.913,0,0,1,.05-.3.394.394,0,0,1-.05-.194v-8.9a.45.45,0,0,1,.447-.447h4.7a.451.451,0,0,1,.448.447Z" transform="translate(-11461.272 12723.522)"/><path class="m" d="M2157.26,812.367v-9.957l-18.4,11.831,1.23,3.276Z" transform="translate(-11459.498 12726.38)"/><g transform="translate(-9558.621 13416.02)"><path class="j" d="M2038.616,945.2a4.369,4.369,0,0,1-3.955,0,1.206,1.206,0,0,1,0-2.284,4.371,4.371,0,0,1,3.955,0A1.205,1.205,0,0,1,2038.616,945.2Z" transform="translate(-1879.396 -718.281)"/><path class="h" d="M1912.989,927.933c-11.1-6.41-29.1-6.41-40.2,0s-11.1,16.8,0,23.212,29.1,6.41,40.2,0S1924.09,934.343,1912.989,927.933Z" transform="translate(-1844.75 -714.331)"/><path class="h" d="M2089.8,852.313l-147.838-84.079-91.433,54.9a1.644,1.644,0,0,0,.038,2.842L1994.283,907a9.612,9.612,0,0,0,9.734-.093l85.814-51.5A1.793,1.793,0,0,0,2089.8,852.313Z" transform="translate(-1841.738 -682.649)"/><path class="j" d="M2039.435,878.389v51.986a.579.579,0,0,1-.042.2.459.459,0,0,1-.4.245h-4.7a.461.461,0,0,1-.4-.245.579.579,0,0,1-.042-.2V878.389a.451.451,0,0,1,.447-.448h4.7A.45.45,0,0,1,2039.435,878.389Z" transform="translate(-1879.396 -705.089)"/><path class="j" d="M2039.435,887.293a.4.4,0,0,1-.05.194.918.918,0,0,1,.05.3,1.375,1.375,0,0,1-.819,1.139,4.361,4.361,0,0,1-3.958,0,1.377,1.377,0,0,1-.819-1.139.891.891,0,0,1,.051-.3.39.39,0,0,1-.051-.194v-8.9a.451.451,0,0,1,.447-.448h4.7a.45.45,0,0,1,.447.448Z" transform="translate(-1879.396 -705.089)"/><path class="j" d="M1851.431,841.365a4.37,4.37,0,0,1-3.955,0,1.206,1.206,0,0,1,0-2.284,4.369,4.369,0,0,1,3.955,0A1.206,1.206,0,0,1,1851.431,841.365Z" transform="translate(-1841.11 -697.043)"/><path class="j" d="M1852.25,774.559v51.987a.579.579,0,0,1-.042.2.457.457,0,0,1-.4.245h-4.7a.46.46,0,0,1-.405-.245.59.59,0,0,1-.042-.2V774.559a.45.45,0,0,1,.447-.448h4.7A.45.45,0,0,1,1852.25,774.559Z" transform="translate(-1841.11 -683.851)"/><path class="j" d="M1852.25,783.462a.4.4,0,0,1-.05.194.917.917,0,0,1,.05.3,1.375,1.375,0,0,1-.818,1.139,4.362,4.362,0,0,1-3.958,0,1.377,1.377,0,0,1-.818-1.139.9.9,0,0,1,.051-.3.392.392,0,0,1-.051-.194v-8.9a.45.45,0,0,1,.447-.448h4.7a.45.45,0,0,1,.447.448Z" transform="translate(-1841.11 -683.851)"/><path class="m" d="M1843.69,761.735l-.01,11.15,16.6,6.13-.847-6.076Z" transform="translate(-1840.5 -681.32)"/><path class="m" d="M1845.839,756.121l86.208-50.4a19.53,19.53,0,0,1,19.543-.1L2093.9,786.908a5.145,5.145,0,0,1,.021,8.923l-87.608,50.6a19.53,19.53,0,0,1-19.537,0l-140.916-81.408A5.144,5.144,0,0,1,1845.839,756.121Z" transform="translate(-1840.421 -669.318)"/><path class="n" d="M1846.229,744.346l86.208-50.4a19.532,19.532,0,0,1,19.543-.1l142.311,81.282a5.145,5.145,0,0,1,.021,8.923l-87.609,50.6a19.529,19.529,0,0,1-19.536,0l-140.916-81.407A5.145,5.145,0,0,1,1846.229,744.346Z" transform="translate(-1840.5 -666.909)"/><path class="j" d="M1964.636,813.656l-43.763-25.267c-1.986-1.147-1.986-3.006,0-4.152l17.2-9.933a7.947,7.947,0,0,1,7.193,0l43.763,25.267c1.986,1.147,1.986,3.006,0,4.152l-17.2,9.933A7.945,7.945,0,0,1,1964.636,813.656Z" transform="translate(-1855.985 -683.715)"/><path class="j" d="M1919.384,785.658v4.15l48.849,27.206,22.289-12.869v-3.153Z" transform="translate(-1855.985 -686.213)"/><path class="i" d="M1964.636,809.693l-43.763-25.268c-1.986-1.146-1.986-3.005,0-4.152l17.2-9.933a7.952,7.952,0,0,1,7.193,0l43.763,25.268c1.986,1.146,1.986,3.005,0,4.152l-17.2,9.933A7.95,7.95,0,0,1,1964.636,809.693Z" transform="translate(-1855.985 -682.904)"/><path class="i" d="M1977.131,805.406l-42.4-24.481,3.726-2.151,42.4,24.481Z" transform="translate(-1859.124 -684.805)"/><path class="i" d="M1969.1,810.044l-42.4-24.481,3.726-2.151,42.4,24.481Z" transform="translate(-1857.481 -685.754)"/><path class="k" d="M1935.79,781.05l41.558,23.994,2.882-1.664-41.558-23.995Z" transform="translate(-1859.341 -684.931)"/><path class="k" d="M1927.757,785.688l41.558,23.994,2.882-1.665-41.558-23.994Z" transform="translate(-1857.698 -685.879)"/><path class="k" d="M1943.607,775.783l41.558,23.995,2.882-1.665-41.558-23.994Z" transform="translate(-1860.94 -683.854)"/><path class="o" d="M2038.533,819.357c0,2.782-4.246,5.038-9.485,5.038s-9.485-2.256-9.485-5.038,4.247-5.038,9.485-5.038S2038.533,816.575,2038.533,819.357Z" transform="translate(-1876.475 -692.076)"/><ellipse class="i" cx="9.485" cy="5.038" rx="9.485" ry="5.038" transform="translate(143.087 119.746)"/><path class="l" d="M2037.321,906.9l.969-.563c.147-.085.146-.224,0-.31l-.973-.562a.592.592,0,0,0-.536,0l-.968.563a.164.164,0,0,0,0,.31l.973.562a.589.589,0,0,0,.536,0Z" transform="translate(-1879.776 -710.704)"/><path class="j" d="M1998.96,749.255s4.794,13.092,0,15.861l-2.318,1.338-.007,0-9.088,5.249a1.42,1.42,0,0,0,0,2.686l12.766,7.374a5.044,5.044,0,0,0,4.629-.039l6.482-3.833.064.03c.745-.463,1.442-.9,2.068-1.292l.285-.169c.027-.017.045-.036.069-.054,1.314-.825,2.205-1.39,2.205-1.39s4.054-2.969,4.054-13.52Z" transform="translate(-1869.731 -678.767)"/><path class="p" d="M2020.175,758.4c0,10.552-4.055,13.52-4.055,13.52s-.888.561-2.209,1.39a.335.335,0,0,0-.07.058l-.281.164q-.946.6-2.068,1.3l-.071-.036-.748.445-5.726,3.389a5.042,5.042,0,0,1-4.638.035l-12.76-7.373c-1.286-.737-1.286-1.94,0-2.688l5.737-3.319,3.342-1.928h.012c.83-.479,1.624-.935,2.314-1.344,4.685-2.7.233-15.214.011-15.833v-.012h.012Z" transform="translate(-1869.73 -678.136)"/><path class="n" d="M2021.9,758.4c0,10.552-4.054,13.52-4.054,13.52s-.888.561-2.209,1.39a.314.314,0,0,0-.07.058l-.281.164q-.946.6-2.067,1.3l-.071-.036-.748.445-17.387-9.956,3.342-1.928h.012c.83-.479,1.624-.935,2.314-1.344,4.685-2.7.233-15.214.011-15.833l.012-.012Z" transform="translate(-1871.454 -678.136)"/><path class="c" d="M2048.031,700.221l-67.612-39.035c-1.68-.97-2.963-.567-4.431.617l-3.124,1.752,3.36,2.375v52.822a9.271,9.271,0,0,0,4.195,7.266l66.208,38.224v3a.541.541,0,0,0,.847.445l3.175-2.189c.959-.333,1.577-1.338,1.577-2.871V707.5A9.284,9.284,0,0,0,2048.031,700.221Z" transform="translate(-1866.924 -660.643)"/><path class="q" d="M2047.339,710.819v55.132c0,2.682-1.881,3.758-4.195,2.422l-67.612-39.035a9.267,9.267,0,0,1-4.2-7.266V666.941c0-2.682,1.881-3.767,4.2-2.432l67.611,39.034A9.286,9.286,0,0,1,2047.339,710.819Z" transform="translate(-1866.611 -661.317)"/><path class="r" d="M1977.728,725.774V672.688l65.832,38.007v53.086Z" transform="translate(-1867.919 -663.107)"/><path class="j" d="M2047.339,767.5V778.16c0,2.682-1.881,3.758-4.195,2.422l-67.612-39.035a9.267,9.267,0,0,1-4.2-7.266V723.625Z" transform="translate(-1866.611 -673.525)"/><path class="j" d="M2044.893,781.43a4.3,4.3,0,0,1-2.12-.641l-67.612-39.035a9.68,9.68,0,0,1-4.439-7.69v-11.5L2047.7,767v10.939a3.408,3.408,0,0,1-1.472,3.141A2.644,2.644,0,0,1,2044.893,781.43ZM1971.7,724.255v9.809a8.746,8.746,0,0,0,3.95,6.843l67.612,39.034a2.083,2.083,0,0,0,3.461-2V767.569Z" transform="translate(-1866.486 -673.307)"/><path class="s" d="M2015.085,758.406c0,1.621-1.138,2.278-2.542,1.468a5.62,5.62,0,0,1-2.542-4.4c0-1.621,1.139-2.278,2.542-1.468A5.618,5.618,0,0,1,2015.085,758.406Z" transform="translate(-1874.52 -679.668)"/><path class="j" d="M2008.851,700.026l-17.805-10.279v12.685l17.8,10.279Z" transform="translate(-1870.643 -666.595)"/><path class="j" d="M2035.71,715.533l-17.806-10.28v12.685l17.806,10.28Z" transform="translate(-1876.137 -669.768)"/><path class="j" d="M2008.851,721.141l-17.805-10.28v12.684l17.8,10.279Z" transform="translate(-1870.642 -670.914)"/><path class="j" d="M2035.71,736.647l-17.806-10.28v12.684l17.806,10.28Z" transform="translate(-1876.136 -674.086)"/><path class="t" d="M1928.53,777.352c-.018,0-.034.019-.052.038a1.158,1.158,0,0,1-.018-.247A.3.3,0,0,0,1928.53,777.352Z" transform="translate(-1857.841 -684.472)"/><path class="u" d="M1927.4,774.293a.873.873,0,0,1-.662.054c-.024-.057-.011-.119-.044-.174Z" transform="translate(-1857.479 -683.864)"/><path class="u" d="M1931.432,782.661c.121.008.242.033.363.049l-.952-.912C1931.044,782.08,1931.237,782.371,1931.432,782.661Z" transform="translate(-1858.329 -685.424)"/><path class="t" d="M1928.154,771.629c-.018,0-.033.022-.048.042a1.2,1.2,0,0,1-.042-.243A.3.3,0,0,0,1928.154,771.629Z" transform="translate(-1857.76 -683.303)"/><path class="u" d="M1926.72,768.7a.869.869,0,0,1-.655.121c-.028-.054-.022-.118-.06-.168Z" transform="translate(-1857.339 -682.735)"/><path class="l" d="M1921.84,746.8l-.442.044Z" transform="translate(-1856.397 -678.266)"/><path class="v" d="M8.488,8.639c-2.37,2.2-5.705,2.466-7.451.589S-.2,4.043,2.17,1.841,7.875-.625,9.62,1.252,10.857,6.437,8.488,8.639Z" transform="matrix(0.985, -0.174, 0.174, 0.985, 97.199, 122.279)"/><path class="v" d="M.414,8.924h0a1.548,1.548,0,0,1,.08-2.187L7.3.414a1.546,1.546,0,0,1,2.186.08h0a1.546,1.546,0,0,1-.08,2.186L2.6,9A1.548,1.548,0,0,1,.414,8.924Z" transform="matrix(0.985, -0.174, 0.174, 0.985, 98.861, 116.104)"/><path class="w" d="M1873.809,955.57a6.471,6.471,0,0,1,2.927-5.07c1.617-.934,2.927-.177,2.928,1.69a6.469,6.469,0,0,1-2.928,5.07C1875.12,958.193,1873.809,957.436,1873.809,955.57Z" transform="translate(-1846.663 -719.848)"/><path class="w" d="M1873.809,955.57a6.471,6.471,0,0,1,2.927-5.07c1.617-.934,2.927-.177,2.928,1.69a6.469,6.469,0,0,1-2.928,5.07C1875.12,958.193,1873.809,957.436,1873.809,955.57Z" transform="translate(-1846.663 -719.848)"/><path class="w" d="M1879.062,950.414l2.523,1.315-3.96,7.218-2.954-1.537.749-4.065Z" transform="translate(-1846.839 -719.912)"/><path class="j" d="M1876.937,957.192a6.47,6.47,0,0,1,2.927-5.07c1.616-.933,2.927-.177,2.927,1.69a6.472,6.472,0,0,1-2.927,5.07C1878.248,959.816,1876.937,959.059,1876.937,957.192Z" transform="translate(-1847.302 -720.18)"/><path class="k" d="M1876.937,957.192a6.47,6.47,0,0,1,2.927-5.07c1.616-.933,2.927-.177,2.927,1.69a6.472,6.472,0,0,1-2.927,5.07C1878.248,959.816,1876.937,959.059,1876.937,957.192Z" transform="translate(-1847.302 -720.18)"/><path class="w" d="M1918.062,930.835a6.473,6.473,0,0,1,2.927-5.07c1.617-.933,2.927-.177,2.927,1.69a6.468,6.468,0,0,1-2.927,5.07C1919.373,933.459,1918.062,932.7,1918.062,930.835Z" transform="translate(-1855.714 -714.789)"/><path class="w" d="M1918.062,930.835a6.473,6.473,0,0,1,2.927-5.07c1.617-.933,2.927-.177,2.927,1.69a6.468,6.468,0,0,1-2.927,5.07C1919.373,933.459,1918.062,932.7,1918.062,930.835Z" transform="translate(-1855.714 -714.789)"/><path class="w" d="M1923.315,925.68l2.522,1.315-3.96,7.218-2.954-1.537.749-4.065Z" transform="translate(-1855.89 -714.853)"/><path class="j" d="M1921.19,932.458a6.469,6.469,0,0,1,2.927-5.07c1.616-.934,2.927-.177,2.927,1.69a6.474,6.474,0,0,1-2.927,5.07C1922.5,935.082,1921.19,934.325,1921.19,932.458Z" transform="translate(-1856.354 -715.121)"/><path class="k" d="M1921.19,932.458a6.469,6.469,0,0,1,2.927-5.07c1.616-.934,2.927-.177,2.927,1.69a6.474,6.474,0,0,1-2.927,5.07C1922.5,935.082,1921.19,934.325,1921.19,932.458Z" transform="translate(-1856.354 -715.121)"/><path class="w" d="M1915.986,956.661a6.469,6.469,0,0,1,2.927-5.07c1.616-.934,2.927-.177,2.927,1.69a6.47,6.47,0,0,1-2.927,5.07C1917.3,959.286,1915.986,958.528,1915.986,956.661Z" transform="translate(-1855.289 -720.072)"/><path class="w" d="M1915.986,956.661a6.469,6.469,0,0,1,2.927-5.07c1.616-.934,2.927-.177,2.927,1.69a6.47,6.47,0,0,1-2.927,5.07C1917.3,959.286,1915.986,958.528,1915.986,956.661Z" transform="translate(-1855.289 -720.072)"/><path class="w" d="M1921.239,951.506l2.523,1.315-3.96,7.218-2.954-1.537.748-4.065Z" transform="translate(-1855.466 -720.136)"/><path class="j" d="M1919.113,958.285a6.471,6.471,0,0,1,2.927-5.07c1.617-.933,2.927-.177,2.927,1.69a6.47,6.47,0,0,1-2.927,5.07C1920.424,960.908,1919.113,960.151,1919.113,958.285Z" transform="translate(-1855.929 -720.404)"/><path class="k" d="M1919.113,958.285a6.471,6.471,0,0,1,2.927-5.07c1.617-.933,2.927-.177,2.927,1.69a6.47,6.47,0,0,1-2.927,5.07C1920.424,960.908,1919.113,960.151,1919.113,958.285Z" transform="translate(-1855.929 -720.404)"/><path class="w" d="M1873.025,931.754a6.472,6.472,0,0,1,2.927-5.07c1.616-.933,2.927-.177,2.927,1.69a6.468,6.468,0,0,1-2.927,5.07C1874.336,934.377,1873.025,933.62,1873.025,931.754Z" transform="translate(-1846.502 -714.977)"/><path class="w" d="M1873.025,931.754a6.472,6.472,0,0,1,2.927-5.07c1.616-.933,2.927-.177,2.927,1.69a6.468,6.468,0,0,1-2.927,5.07C1874.336,934.377,1873.025,933.62,1873.025,931.754Z" transform="translate(-1846.502 -714.977)"/><path class="w" d="M1878.278,926.6l2.523,1.315-3.96,7.218-2.954-1.537.749-4.065Z" transform="translate(-1846.678 -715.042)"/><path class="j" d="M1876.153,933.377a6.469,6.469,0,0,1,2.927-5.07c1.616-.933,2.927-.177,2.927,1.69a6.47,6.47,0,0,1-2.927,5.07C1877.463,936,1876.153,935.243,1876.153,933.377Z" transform="translate(-1847.142 -715.308)"/><path class="k" d="M1876.153,933.377a6.469,6.469,0,0,1,2.927-5.07c1.616-.933,2.927-.177,2.927,1.69a6.47,6.47,0,0,1-2.927,5.07C1877.463,936,1876.153,935.243,1876.153,933.377Z" transform="translate(-1847.142 -715.308)"/><path class="n" d="M1915.153,942.661l-12.953-7.479,12.953-7.479c2.126-1.227,2.126-3.236,0-4.464h0a8.578,8.578,0,0,0-7.732,0l-12.953,7.479-12.953-7.479a8.578,8.578,0,0,0-7.732,0c-2.126,1.228-2.126,3.237,0,4.464l12.954,7.479-12.954,7.479c-2.126,1.227-2.126,3.237,0,4.464h0a8.578,8.578,0,0,0,7.732,0l12.953-7.479,12.953,7.479a8.578,8.578,0,0,0,7.732,0C1917.28,945.9,1917.28,943.889,1915.153,942.661Z" transform="translate(-1846.332 -714.166)"/><path class="n" d="M1915.153,942.661l-12.953-7.479,12.953-7.479c2.126-1.227,2.126-3.236,0-4.464h0a8.578,8.578,0,0,0-7.732,0l-12.953,7.479-12.953-7.479a8.578,8.578,0,0,0-7.732,0c-2.126,1.228-2.126,3.237,0,4.464l12.954,7.479-12.954,7.479c-2.126,1.227-2.126,3.237,0,4.464h0a8.578,8.578,0,0,0,7.732,0l12.953-7.479,12.953,7.479a8.578,8.578,0,0,0,7.732,0C1917.28,945.9,1917.28,943.889,1915.153,942.661Z" transform="translate(-1846.332 -714.166)"/><path class="j" d="M1892,936.559c0,2.42,2.92,4.381,6.523,4.381s6.524-1.962,6.524-4.381-2.921-6.43-6.524-6.43S1892,934.139,1892,936.559Z" transform="translate(-1850.384 -715.763)"/><path class="n" d="M1894.18,933.343c0,1.776,2.143,3.215,4.786,3.215s4.785-1.44,4.785-3.215-2.142-3.214-4.785-3.214S1894.18,931.569,1894.18,933.343Z" transform="translate(-1850.829 -715.763)"/><path class="j" d="M1899.444,890.8a2.948,2.948,0,0,0-2.928,2.968v28.565a2.928,2.928,0,1,0,5.855,0V893.767A2.948,2.948,0,0,0,1899.444,890.8Z" transform="translate(-1851.308 -707.719)"/><g transform="translate(30.479 92.236)"><g transform="translate(28.787 74.885)"><g transform="translate(0 29.156)"><path class="t" d="M1298.681,1724.268c-2.481-1.95-8.16,1.447-10.885,2.054-1.76.392-8.18.756-7.682,3.807a10.57,10.57,0,0,0-.32,2.338,9.069,9.069,0,0,0,.283,2.977,7.945,7.945,0,0,0,3.767,2.261,4.815,4.815,0,0,0,.508-.06,11.28,11.28,0,0,0,3.371-1.583c3.36-2.059,8.394-3.867,10.921-6.98C1299.772,1727.693,1300.087,1725.373,1298.681,1724.268Z" transform="translate(-1279.783 -1723.671)"/></g><g transform="translate(1.143 25.323)"><path class="x" d="M3.451,0H8.775a3.451,3.451,0,0,1,3.451,3.451v0A3.449,3.449,0,0,1,8.776,6.9H3.452A3.452,3.452,0,0,1,0,3.451v0A3.451,3.451,0,0,1,3.451,0Z" transform="translate(0 12.225) rotate(-89.292)"/></g><g transform="translate(0.111 0)"><path class="t" d="M1280.069,1688.907l-.154,29.467a4.056,4.056,0,0,0,3.716,3.46l2.02.148a4.057,4.057,0,0,0,4.35-4.24l3.615-28.835Z" transform="translate(-1279.915 -1688.907)"/></g></g><g transform="translate(0.026 56.452)"><g transform="translate(0)"><path class="w" d="M1312.818,1676.967a13.316,13.316,0,0,0-12.9-10.038c-.364,0-.727.016-1.1.049l-.573.048-3.061,1.308-17.456,7.491a24.394,24.394,0,0,1-24.116-2.8l-2.659-1.964-5.468-4.038V1683.1a10.047,10.047,0,0,0,4.861,8.609l8.165,4.918,9.514,5.726a12.447,12.447,0,0,0,13.01-.1l28.847-17.993A6.677,6.677,0,0,0,1312.818,1676.967Z" transform="translate(-1245.49 -1666.929)"/></g></g><g transform="translate(4.891 1.065)"><g transform="translate(0)"><path class="u" d="M1298.14,1623.826c-2.192,1.632-13.384,9.884-18.487,12.189a21.4,21.4,0,0,1-8.873,1.915,18.7,18.7,0,0,1-6.429-1.141,13.7,13.7,0,0,1-8.1-7.274,12.026,12.026,0,0,1-.759-2.412l-4.122-20.347c-.5-2.451,1.506-5,4.469-5.693s5.779.735,6.277,3.193l4.122,20.347c.006.013,0,.026.01.039a5,5,0,0,0,3.336,3.621,7.738,7.738,0,0,0,5.793-.294c2.816-1.273,11.111-7.072,16.1-10.789,2.379-1.77,5.8-1.713,7.64.125S1300.519,1622.063,1298.14,1623.826Z" transform="translate(-1251.29 -1600.889)"/></g></g><g transform="translate(0 0)"><g transform="translate(0)"><path class="y" d="M1287.2,1663.862a6.236,6.236,0,0,1-4.143,6.065c-1.519.541-4.046,1.4-6.041,1.874a13.29,13.29,0,0,1-1.574.283,26.636,26.636,0,0,1-16.677-3.8l-10.983-6.4a4.7,4.7,0,0,1-2.318-4.159l1.155-45.588a13.257,13.257,0,0,1,6.582-11.435,10.414,10.414,0,0,1,5.136-1.082,22.407,22.407,0,0,1,2.867.194c5.04.606,10.652,2.7,13.543,4.717,2.843,1.8,6.372,2.971,8.649,5.217a7.618,7.618,0,0,1,2.35,5.516C1285.792,1616.869,1287.2,1663.862,1287.2,1663.862Z" transform="translate(-1245.459 -1599.619)"/></g><g class="z" transform="translate(29.102 13.916)"><path class="y" d="M1284.03,1618.683a.682.682,0,0,1-.3.325,24.968,24.968,0,0,0-.387,4.672c-.016,2.924.113,5.935-.92,8.674-.63,1.663-1.68,3.174-2.076,4.91-.953,4.135,1.93,8.092,2.762,12.243.921,4.619-.719,9.311-1.155,14a42.873,42.873,0,0,0,.654,10.975c2-.469,4.522-1.333,6.041-1.874a6.236,6.236,0,0,0,4.143-6.065s-1.3-43.453-1.443-48.213C1289.213,1615.955,1285.693,1614.956,1284.03,1618.683Z" transform="translate(-1280.159 -1616.212)"/></g></g><g transform="translate(33.876 12.826)"><g transform="translate(0 0)"><path class="u" d="M1326.241,1642.53c-1.607,2.01-9.823,12.177-13.737,15.033a11.965,11.965,0,0,1-7.04,2.416,11.592,11.592,0,0,1-5.389-1.334,16.167,16.167,0,0,1-7.458-8.8,21.476,21.476,0,0,1-.9-2.936l-5.69-24.784c-.688-2.986.663-6.115,3.007-6.985s4.812.845,5.5,3.839l5.69,24.785c.007.016.007.032.013.048a6.456,6.456,0,0,0,3.14,4.386,4.378,4.378,0,0,0,4.707-.41c2.158-1.578,8.285-8.726,11.945-13.3a3.8,3.8,0,0,1,6.264.083A6.759,6.759,0,0,1,1326.241,1642.53Z" transform="translate(-1285.851 -1614.912)"/></g></g><g transform="translate(52.684 66.49)"><g transform="translate(0 47.935)"><path class="w" d="M1328.753,1736.7c-2.688-2.113-8.841,1.568-11.793,2.225-1.908.425-8.863.82-8.325,4.127a11.423,11.423,0,0,0-.346,2.533,9.849,9.849,0,0,0,.306,3.227,8.611,8.611,0,0,0,4.083,2.45,5.218,5.218,0,0,0,.55-.065,12.241,12.241,0,0,0,3.653-1.715c3.641-2.232,9.1-4.191,11.834-7.564C1329.936,1740.412,1330.276,1737.9,1328.753,1736.7Z" transform="translate(-1308.276 -1736.052)"/></g><g transform="translate(1.241 43.783)"><rect class="w" width="7.479" height="13.247" rx="3.74" transform="translate(7.479 13.336) rotate(-179.314)"/></g><g transform="translate(0.12)"><path class="w" d="M1309.237,1680.092l-.818,47.077a4.394,4.394,0,0,0,4.027,3.749l2.188.161a4.4,4.4,0,0,0,4.714-4.594l3.621-47.587Z" transform="translate(-1308.419 -1678.898)"/></g></g><g transform="translate(31.102 12.488)"><g transform="translate(0 0)"><path class="w" d="M1303.517,1643.158l-7.052-23.649a6.922,6.922,0,0,0-3.4-4.144,7.215,7.215,0,0,0-5.405-.575,7.036,7.036,0,0,0-4.235,3.324,6.753,6.753,0,0,0-.593,5.277l7.071,23.727a18.748,18.748,0,0,0,1.214,3.059l.3.585a.819.819,0,0,0,.986.4l.634-.209c.366-.121.739-.258,1.078-.4a28.074,28.074,0,0,0,9.029-5.746l.4-.379a.78.78,0,0,0,.161-.917Z" transform="translate(-1282.543 -1614.509)"/></g></g></g><path class="aa" d="M1947.84,876.447c0,.16,0,.329-.017.5a14.561,14.561,0,0,1-7.51,11.663l-31.934,17.511a8.479,8.479,0,0,1-1.511.65,8.718,8.718,0,0,1-7.131-.776l-36.576-21.554a19.964,19.964,0,0,1-9.74-15.343l-3.831-41-.4-4.262a4.552,4.552,0,0,1,6.549-4.506l39.589,19.587a4.553,4.553,0,0,1,2.3,2.65l12.659,38.416a5.285,5.285,0,0,0,7.638,2.937l20.659-11.815A6.182,6.182,0,0,1,1947.84,876.447Z" transform="translate(-1849.172 -705.582)"/><path class="w" d="M1905.872,906.408a2.538,2.538,0,0,1-2.738,3.408,8.7,8.7,0,0,1-3.215-1.122l-36.576-21.554A19.962,19.962,0,0,1,1853.6,871.8l-3.527-37.748a1.823,1.823,0,0,1,2.623-1.8l31.945,15.795a4.571,4.571,0,0,1,2.3,2.658l12.651,38.416C1900.035,890.453,1902.709,898.11,1905.872,906.408Z" transform="translate(-1849.355 -708.284)"/><g transform="matrix(-0.996, 0.087, -0.087, -0.996, 67.592, 86.691)"><g transform="translate(0 0)"><path class="u" d="M21.21,12.128c-.112-3.117-.646-6.193-2.473-8.48C16.727,1.1,13.481.085,10.4,0A9.241,9.241,0,0,0,5.438,1.1C2.6,2.8,1.269,6.461.55,9.922a29.078,29.078,0,0,0-.535,3.987,14.83,14.83,0,0,0,.443,4.514A12.984,12.984,0,0,0,6.139,25.83a20.463,20.463,0,0,0,8.633,2.732,6.924,6.924,0,0,0,4.335-.526,3.692,3.692,0,0,0,1.753-2.429,2.833,2.833,0,0,0,.037-1.114c.092-2.833.184-5.647.277-8.48C21.21,14.738,21.247,13.443,21.21,12.128Z"/></g></g><g transform="translate(48.725 78.227) rotate(9)"><g transform="translate(0 0)"><path class="u" d="M11.543,5.4V17.581h-.066A3.761,3.761,0,0,1,9.6,19.93a7.512,7.512,0,0,1-3.83.955c-2.942,0-5.306-1.409-5.7-3.3H0V5.4A5.238,5.238,0,0,1,1.689,1.582,5.929,5.929,0,0,1,5,.041C5.305.024,5.628,0,5.956,0A6.485,6.485,0,0,1,7.926.371,5.663,5.663,0,0,1,9.96,1.7,5.2,5.2,0,0,1,11.543,5.4Z"/></g></g><g transform="translate(38.401 53.708)"><g transform="translate(0.268 0)"><path class="t" d="M693.139,992.3c0,8.632-6.019,15.622-13.463,15.622a12.138,12.138,0,0,1-7.908-2.985,16.483,16.483,0,0,1-5.545-12.637,18,18,0,0,1,.293-3.24,17.417,17.417,0,0,1,1.625-4.816,14.66,14.66,0,0,1,5.111-5.68,12.058,12.058,0,0,1,6.424-1.886c.283,0,.575.011.858.033a11.984,11.984,0,0,1,5.161,1.6C690.109,980.873,693.139,986.177,693.139,992.3Z" transform="translate(-666.224 -976.68)"/></g><g transform="translate(3.933 4.751)"><path class="u" d="M698.621,996.959c0,8.066-6.272,14.6-14.019,14.6a13.552,13.552,0,0,1-8.241-2.79,14.792,14.792,0,0,1-5.767-11.814c0-8.076,6.272-14.614,14.008-14.614.293,0,.6.011.889.032A14.356,14.356,0,0,1,698.621,996.959Z" transform="translate(-670.594 -982.345)"/></g><g transform="translate(2.276 3.034)"><path class="t" d="M674.67,992.748a5.2,5.2,0,0,1,1.175-2.516l1.006-1.073c.034-.036.071-.061.106-.1.288-3.433,2.414-7.168,5.142-8.767l-4.856,1.718-1.388,2.264V981.66A15.347,15.347,0,0,0,668.618,992h5.155v.748Z" transform="translate(-668.618 -980.297)"/></g><g transform="translate(0 0.566)"><path class="t" d="M699.948,980.5c.146-2.442-.885-3.985-4.2-2.657-7.262,2.912-15.08-1.574-22.245,1.827-8.617,4.089-9.4,16.016-4.89,24.325,1.8,3.321,4.854,7.725,8.441,7.393,6.79-.631,10.224-6.512,14.1-15.932,1.2-2.91,2.529-3.134,4.452-4.966C697.375,988.806,699.749,983.822,699.948,980.5Z" transform="translate(-665.905 -977.355)"/></g><g transform="translate(18.808 15.84)"><path class="u" d="M696.691,1000.021a4.189,4.189,0,1,1-4.18-4.454A4.324,4.324,0,0,1,696.691,1000.021Z" transform="translate(-688.33 -995.567)"/></g></g></g></g><g transform="translate(-70 128)"><g transform="translate(7713 -13444)"><g transform="translate(-7040.199 15438.651)"><path class="ab" d="M2325.625,372.073,2116.092,250.319c-3.859-2.466-7.188-.784-7.435,3.755l-1.032,18.991-7.837,144.276a15.624,15.624,0,0,0,6.542,12.685L2315.862,551.78c3.86,2.466,7.188.785,7.435-3.754l7.838-144.276,1.031-18.992A15.626,15.626,0,0,0,2325.625,372.073Z" transform="translate(-2090.942 -249.183)"/><path class="c" d="M2322.942,389.67l-1.022,18.891-.008.1-125.235-73.228L2098.4,277.975l.092-1.676.938-17.315c.246-4.536,3.576-6.22,7.435-3.752L2316.4,376.984A15.625,15.625,0,0,1,2322.942,389.67Z" transform="translate(-2090.549 -250.589)"/><path class="ac" d="M2392.843,440.9a6.831,6.831,0,0,0,2.973,5.488c1.71,1.044,3.15.279,3.217-1.708a6.832,6.832,0,0,0-2.974-5.487C2394.35,438.15,2392.909,438.915,2392.843,440.9Z" transform="translate(-2174.826 -303.435)"/><path class="ad" d="M2377.11,431.3a6.831,6.831,0,0,0,2.974,5.487c1.71,1.044,3.15.279,3.216-1.708a6.828,6.828,0,0,0-2.973-5.487C2378.617,428.547,2377.176,429.312,2377.11,431.3Z" transform="translate(-2170.322 -300.686)"/><g transform="translate(-61.619 7.153)"><g transform="translate(128.573 77.05)"><g transform="translate(4.243)"><path class="c" d="M397.276,142.008l21.176,12.226v-1.378l-21.176-12.226Z" transform="translate(-384.767 -133.407)"/><path class="c" d="M380.8,131.115l-10.347-5.974v1.379l10.347,5.973Z" transform="translate(-370.451 -125.142)"/><path class="c" d="M447.324,169.524V170.9l13.362,7.714v-1.378Z" transform="translate(-411.477 -148.828)"/></g><g transform="translate(0.002 2.563)"><path class="c" d="M384.778,144.161l-23.422-13.523v1.379l23.422,13.523Z" transform="translate(-361.356 -130.639)"/><path class="c" d="M416.221,162.315v1.379l27.866,16.088V178.4Z" transform="translate(-390.637 -147.544)"/></g><g transform="translate(0.002 7.575)"><path class="c" d="M370.7,146.78l-9.342-5.394v1.379l9.342,5.394Z" transform="translate(-361.356 -141.386)"/><path class="c" d="M386.025,155.63v1.379l13,7.505v-1.378Z" transform="translate(-374.521 -148.988)"/></g><g transform="translate(4.242 25.677)"><path class="c" d="M462.837,233.543v1.378l6.129,3.538V237.08Z" transform="translate(-419.755 -208.67)"/><path class="c" d="M423.3,212.1l16.273,9.395v-1.378L423.3,210.718Z" transform="translate(-398.656 -196.489)"/><path class="c" d="M392.933,193.185,370.449,180.2v1.378l22.484,12.981Z" transform="translate(-370.449 -180.204)"/></g><g transform="translate(0.001 28.24)"><path class="c" d="M381.389,198.646,396.55,207.4V206.02l-15.162-8.753Z" transform="translate(-372.046 -191.874)"/><path class="c" d="M431.34,226.107l-12.8-7.391v1.378l12.8,7.391Z" transform="translate(-391.873 -203.32)"/><path class="c" d="M450.627,237.242v1.378l11.822,6.825v-1.378Z" transform="translate(-408.997 -213.207)"/><path class="c" d="M368.534,189.846l-7.18-4.146v1.378l7.181,4.146Z" transform="translate(-361.354 -185.701)"/></g><g transform="translate(0.001 33.252)"><path class="c" d="M364.514,198.274l-3.16-1.825v1.378l3.159,1.825Z" transform="translate(-361.354 -196.449)"/><path class="c" d="M372.768,203.039v1.378l19.182,11.075v-1.379Z" transform="translate(-367.445 -199.966)"/></g><g transform="translate(4.242 51.352)"><path class="c" d="M392.933,248.246l-22.485-12.981v1.379l22.485,12.981Z" transform="translate(-370.448 -235.265)"/><path class="c" d="M423.3,267.158l9.04,5.219V271l-9.04-5.219Z" transform="translate(-398.655 -251.55)"/><path class="c" d="M447.322,279.647v1.379l13.363,7.714v-1.378Z" transform="translate(-411.475 -258.951)"/></g><g transform="translate(0.001 53.916)"><path class="c" d="M382.615,253.037l-21.261-12.275v1.379l21.261,12.275Z" transform="translate(-361.354 -240.763)"/><path class="c" d="M411.583,271.141l10.5,6.065v-1.378l-10.5-6.065Z" transform="translate(-388.16 -256.239)"/><path class="c" d="M438.746,285.444v1.379l17.362,10.023v-1.378Z" transform="translate(-402.657 -264.609)"/></g><g transform="translate(0.001 58.928)"><path class="c" d="M404.731,276.556v1.378l4.276,2.469v-1.379Z" transform="translate(-384.504 -264.877)"/><path class="c" d="M379.42,261.942l-18.066-10.43v1.378l18.066,10.43Z" transform="translate(-361.354 -251.511)"/></g><g transform="translate(4.242 78.129)"><path class="c" d="M404.134,312.135l-33.686-19.448v1.379l33.686,19.447Z" transform="translate(-370.448 -292.688)"/><path class="c" d="M447.321,337.07v1.379l13.363,7.714v-1.378Z" transform="translate(-411.474 -316.374)"/></g><g transform="translate(0 80.694)"><path class="c" d="M448.376,348.429l-8.581-4.954v1.378l8.581,4.956Z" transform="translate(-403.216 -322.356)"/><path class="c" d="M394.956,318.965,413.7,329.789V328.41l-18.747-10.823Z" transform="translate(-379.286 -308.54)"/><path class="c" d="M462.835,356.776v1.378l6.128,3.538v-1.378Z" transform="translate(-415.512 -329.455)"/><path class="c" d="M374.86,305.985l-13.507-7.8v1.378l13.508,7.8Z" transform="translate(-361.352 -298.187)"/></g><g transform="translate(0 85.705)"><path class="c" d="M370.695,314.328l-9.342-5.394v1.378l9.342,5.394Z" transform="translate(-361.352 -308.935)"/><path class="c" d="M386.023,323.177v1.378l13,7.505v-1.378Z" transform="translate(-374.518 -316.536)"/></g><path class="c" d="M385.856,383.328l-24.5-14.147V367.8l24.5,14.147Z" transform="translate(-361.352 -254.646)"/><g transform="translate(4.241 105.581)"><path class="c" d="M388.548,362.008l-18.1-10.45v1.379l18.1,10.45Z" transform="translate(-370.447 -351.558)"/><path class="c" d="M413.9,378.023l22.459,12.966V389.61L413.9,376.644Z" transform="translate(-393.637 -364.946)"/><path class="c" d="M466.7,407.127V408.5l4.327,2.5v-1.378Z" transform="translate(-421.815 -381.214)"/></g><g transform="translate(0 108.145)"><path class="c" d="M381.386,370l14.081,8.129v-1.378l-14.081-8.128Z" transform="translate(-372.044 -363.229)"/><path class="c" d="M429.211,396.231l-12.994-7.5v1.379l12.994,7.5Z" transform="translate(-390.633 -373.96)"/><path class="c" d="M368.532,361.2l-7.18-4.145v1.378l7.18,4.146Z" transform="translate(-361.352 -357.056)"/><path class="c" d="M448.718,407.494v1.378l12.711,7.339v-1.379Z" transform="translate(-407.978 -383.974)"/></g><g transform="translate(59.329 31.788)"><path class="c" d="M491.822,193.311v12.781l11.069,6.391V199.7Zm10.194,17.656-9.319-5.38v-10.76l9.319,5.38Z" transform="translate(-490.311 -193.311)"/><path class="c" d="M503.689,204.328l-1.3-2.252-8.138,4.7-4.36-7.552-1.309.756,4.36,7.552h0l1.3,2.253,1.309-.755h0Z" transform="translate(-488.582 -196.465)"/></g><g transform="translate(59.329 57.52)"><path class="c" d="M491.821,248.491v12.781l11.069,6.39V254.881Zm10.194,17.655-9.319-5.38v-10.76l9.319,5.38Z" transform="translate(-490.31 -248.491)"/><path class="c" d="M503.688,259.507l-1.3-2.252-8.138,4.7-4.36-7.552-1.309.756,4.361,7.552h0l1.3,2.253,1.309-.756h0Z" transform="translate(-488.58 -251.645)"/></g><g transform="translate(59.328 83.251)"><path class="c" d="M491.82,303.67v12.781l11.069,6.39v-12.78Zm10.194,17.656-9.319-5.379v-10.76l9.319,5.38Z" transform="translate(-490.309 -303.67)"/><path class="c" d="M503.687,314.687l-1.3-2.252-8.139,4.7-4.359-7.552-1.31.756,4.361,7.552h0l1.3,2.252,1.309-.756h0Z" transform="translate(-488.579 -306.824)"/></g><g transform="translate(59.328 109.973)"><path class="c" d="M491.819,360.976v12.781l11.069,6.39V367.366Zm10.194,17.656-9.319-5.38V362.492l9.318,5.379Z" transform="translate(-490.308 -360.976)"/><path class="c" d="M503.686,371.992l-1.3-2.251-8.138,4.7-4.36-7.552-1.309.756,4.36,7.551h0l1.3,2.253,1.309-.756h0Z" transform="translate(-488.579 -364.13)"/></g><g transform="translate(59.328 137.424)"><path class="c" d="M491.819,419.844v12.781l11.069,6.39V426.234ZM502.013,437.5l-9.319-5.379V421.36l9.319,5.38Z" transform="translate(-490.308 -419.844)"/><path class="c" d="M503.686,430.861l-1.3-2.252-8.139,4.7-4.36-7.552-1.309.755,4.36,7.552h0l1.3,2.252,1.308-.755h0Z" transform="translate(-488.578 -422.999)"/></g></g></g></g></g><g transform="translate(-6954.007 553.041)"><g class="ae" transform="translate(7634.007 1468.959)"><g class="af" transform="translate(0)"><g transform="translate(0 0)"><path class="c" d="M7677.189,1613.014,7656.372,1601l-.021,7.34,20.816,12.019.021-7.34m21.358,11.673a.9.9,0,0,1-1.129.006l-19.689-11.368-.021,7.34,20.817,12.018.022-8m.609-24.4-.093,32.712,19.668,11.355a2.991,2.991,0,0,1,1.146,1.354l.093-32.571-19.593-11.312a3.059,3.059,0,0,1-1.222-1.539m-21.849-29.247-20.817-12.019-.1,35.2,20.817,12.019.1-35.2m106.782,61.651-20.816-12.019-.022,7.9,20.816,12.019.022-7.9m-63.528-37.336-.032,11.313,20.817,12.019.03-10.656-19.689-11.368a2.983,2.983,0,0,1-1.126-1.308m-21.9-12.642a.9.9,0,0,1-1.13.006l-19.689-11.368-.1,35.2,19.689,11.368a2.976,2.976,0,0,1,1.125,1.308l.1-36.511m-21.314-27.172-20.817-12.019-.024,8.718,20.817,12.018.024-8.718m21.355,12.33-20.816-12.019-.024,8.718,19.689,11.368a2.978,2.978,0,0,1,1.126,1.309l.025-9.376m21.359,11.64a.892.892,0,0,1-1.15.027l-19.668-11.355-.077,26.987c.239-.359.7-.43,1.228-.125l19.592,11.312.076-26.845m-72.725-58.761.014-5.11,6.744,3.894-.015,5.11-6.743-3.894m11.1,6.408.015-5.11,15.3,8.831-.014,5.11-15.3-8.831m21.216,12.249.015-5.11,15.3,8.831-.016,5.11-15.3-8.831m21.216,12.249.015-5.11,15.3,8.832-.016,5.11-15.3-8.831m21.215,12.249.016-5.11,15.3,8.831-.015,5.11-15.3-8.832m21.217,12.249.016-5.11,15.3,8.832-.015,5.11-15.3-8.832m21.216,12.249.016-5.11,15.3,8.832-.015,5.11-15.3-8.832m21.216,12.249.015-5.11,15.3,8.832-.015,5.11-15.3-8.832m21.216,12.249.015-5.11,15.3,8.831-.015,5.11-15.3-8.832m19.829,52.346.129-45.942.54.312-.13,45.942,13.895,8.022-.168,58.985-81.791-47.222.168-58.985,3.287,1.9.022-7.9-20.817-12.019-.029,10.656,7.4,4.274a3.073,3.073,0,0,1,1.395,2.413l-.012,3.569c0,.888-.63,1.244-1.4.8l-7.4-4.274-.14,49.317-.54-.312.14-49.317-20.816-12.019-.14,49.317-.54-.312.032-11.345a.894.894,0,0,1-1.151.027l-19.667-11.356-.03,10.655-.54-.311.03-10.655-20.817-12.019-.029,10.655-.54-.311.03-10.655-20.817-12.019-.03,10.655-.539-.312.03-10.655-7.306-4.218a3.072,3.072,0,0,1-1.393-2.413l.01-3.57c0-.886.63-1.244,1.4-.8l7.306,4.218.021-7.34-7.306-4.218a3.068,3.068,0,0,1-1.393-2.412l.01-3.569c0-.886.631-1.244,1.4-.8l7.306,4.218.1-35.2-7.306-4.218a3.062,3.062,0,0,1-1.393-2.412l.01-3.569c0-.886.631-1.244,1.4-.8l7.307,4.218.024-8.718-7.307-4.218a3.071,3.071,0,0,1-1.392-2.412l.01-3.569c0-.887.63-1.245,1.4-.8l7.306,4.218.044-15.765.54.312-.045,15.765,20.817,12.018.044-15.765.54.311-.045,15.765,20.817,12.019.045-15.765.539.312-.045,15.765,19.668,11.355a2.992,2.992,0,0,1,1.146,1.354l.048-16.456.539.311-.091,31.922a.9.9,0,0,1,1.13-.007l19.689,11.368.089-31.265.539.311-.089,31.265,20.817,12.018.088-31.265.54.312-.089,31.265,20.817,12.019.088-31.265.539.312-.088,31.265,4.6,2.658a3.069,3.069,0,0,1,1.393,2.412l-.01,3.569c0,.888-.631,1.244-1.4.8l-4.6-2.658-.022,7.9,20.817,12.019.129-45.942.54.311-.13,45.942,20.817,12.019m-.258-59.242a1.78,1.78,0,0,1-.8-1.394c0-.51.366-.718.81-.462l10.95,6.322a1.782,1.782,0,0,1,.806,1.394c0,.511-.366.717-.81.462L7826.524,1606m.01-3.29a1.779,1.779,0,0,1-.8-1.395c0-.51.365-.718.81-.462l10.95,6.322a1.783,1.783,0,0,1,.8,1.394c0,.511-.366.719-.81.463l-10.95-6.322m-165.365-94.036.01-3.837,24.079,13.9-.011,3.837-24.078-13.9m165.374,90.745a1.781,1.781,0,0,1-.8-1.394c0-.511.365-.719.811-.463l10.95,6.322a1.783,1.783,0,0,1,.8,1.395c0,.51-.366.718-.811.462l-10.95-6.322m-173.607-90.809a12.192,12.192,0,0,1-5.532-9.582c.011-3.521,2.5-4.942,5.568-3.173a12.194,12.194,0,0,1,5.532,9.581c-.011,3.522-2.5,4.943-5.568,3.173m197.694,85.155-216.174-124.807-.449,158.712,216.173,124.808,7.224-153.059" transform="translate(-7634.007 -1468.959)"/><path class="ag" d="M7777.728,1903.6l-.54-.312-.03,10.655.54.311.03-10.655m.04-14.122-.54-.312-.021,7.34.54.311.021-7.34m.118-41.977-.539-.312-.1,35.2.539.311.1-35.2m.045-15.5-.54-.312-.025,8.718.541.312.024-8.718m.063-22.547-.539-.312-.045,15.765.539.312.045-15.765" transform="translate(-7755.401 -1757.446)"/><path class="ag" d="M7918.249,1984.733l-.54-.312-.03,10.655.539.311.031-10.655m.039-14.122-.539-.312-.021,7.34.539.312.021-7.34m.119-41.977-.539-.312-.1,35.2.539.312.1-35.2m.044-15.5-.539-.312-.025,8.718.54.312.024-8.718m.064-22.547-.539-.312-.046,15.765.54.312.045-15.765" transform="translate(-7874.566 -1826.245)"/><path class="ag" d="M8058.768,2065.862l-.54-.312-.029,10.655.539.312.03-10.655m.2-71.6-.539-.312-.026,9.376a2.65,2.65,0,0,1,.267,1.1l-.01,3.569a1.092,1.092,0,0,1-.272.793l-.1,36.511a2.667,2.667,0,0,1,.268,1.1l-.011,3.569a1.086,1.086,0,0,1-.271.792l-.023,8,.54.312.092-32.712a2.535,2.535,0,0,1-.17-.874l.01-3.569a1.216,1.216,0,0,1,.175-.674l.076-26.987m.065-22.547-.54-.312-.044,15.765.539.312.045-15.765" transform="translate(-7993.729 -1895.044)"/><path class="ag" d="M8199.4,2108.33l-.539-.312-.092,32.571a2.657,2.657,0,0,1,.247,1.059l-.011,3.57a1.109,1.109,0,0,1-.252.771l-.032,11.346.539.312.14-49.317m.158-55.481-.539-.312-.047,16.456a2.642,2.642,0,0,1,.246,1.06l-.01,3.569a1.1,1.1,0,0,1-.252.771l-.077,26.845.54.311.033-11.313a2.638,2.638,0,0,1-.268-1.1l.011-3.569a1.091,1.091,0,0,1,.271-.792l.091-31.922" transform="translate(-8112.892 -1963.844)"/><path class="ag" d="M8339.918,2189.459l-.54-.312-.14,49.317.54.312.14-49.317m.05-17.436-.54-.312-.03,10.656.539.311.031-10.656m.107-38.046-.539-.311-.09,31.265.54.312.089-31.265" transform="translate(-8232.056 -2032.643)"/><path class="ag" d="M8481.418,2253.152l-.54-.312-.021,7.9.539.311.022-7.9m.106-38.045-.539-.312-.088,31.265.54.312.087-31.265" transform="translate(-8352.15 -2101.441)"/><path class="ag" d="M8621.938,2334.281l-.539-.312-.022,7.9.539.312.022-7.9m.108-38.045-.539-.312-.09,31.265.541.312.088-31.265" transform="translate(-8471.313 -2170.241)"/><path class="ag" d="M8762.563,2377.365l-.537-.312L8761.9,2423l.539.312.129-45.942" transform="translate(-8590.477 -2239.04)"/><path class="ag" d="M8903.086,2458.495l-.541-.312-.129,45.941.539.312.131-45.941" transform="translate(-8709.641 -2307.839)"/><path class="ah" d="M7793.1,1924.6l-19.668-11.355-.539-.312-20.817-12.019-.539-.312-20.816-12.019-.539-.312-7.307-4.218c-.771-.445-1.4-.087-1.4.8l-.011,3.569a3.074,3.074,0,0,0,1.393,2.412l7.306,4.218.54.312,20.816,12.019.54.311,20.817,12.019.539.312,19.668,11.355a.893.893,0,0,0,1.15-.027,1.109,1.109,0,0,0,.253-.771l.01-3.569a2.642,2.642,0,0,0-.247-1.06,2.987,2.987,0,0,0-1.147-1.354" transform="translate(-7708.167 -1820.807)"/><path class="ag" d="M7791.761,2395.691l-19.668-11.355-.539-.312-20.817-12.018-.539-.311-20.817-12.019-.539-.311-7.306-4.218c-.771-.445-1.4-.087-1.4.8l-.011,3.57a3.072,3.072,0,0,0,1.393,2.413l7.306,4.218.54.312,20.816,12.019.54.312,20.816,12.019.54.311,19.668,11.355a.893.893,0,0,0,1.15-.027,1.106,1.106,0,0,0,.252-.771l.011-3.57a2.659,2.659,0,0,0-.247-1.059,2.989,2.989,0,0,0-1.147-1.354" transform="translate(-7707.035 -2220.299)"/><path class="ag" d="M7771.473,2014.268l-19.69-11.368-.539-.312-20.816-12.019-.54-.312-7.306-4.218c-.771-.445-1.4-.088-1.4.8l-.01,3.569a3.068,3.068,0,0,0,1.393,2.413l7.306,4.218.54.312,20.817,12.019.539.311,19.688,11.368a.9.9,0,0,0,1.13-.006,1.086,1.086,0,0,0,.272-.792l.011-3.569a2.667,2.667,0,0,0-.268-1.1,2.983,2.983,0,0,0-1.125-1.309" transform="translate(-7707.921 -1907.292)"/><path class="ah" d="M8111.865,2325.709l-7.4-4.274-.539-.312-20.817-12.019-.54-.312-19.593-11.311c-.526-.3-.987-.234-1.226.125a1.208,1.208,0,0,0-.176.674l-.01,3.569a2.512,2.512,0,0,0,.17.874,3.064,3.064,0,0,0,1.223,1.539l19.593,11.312.539.312L8103.9,2327.9l.539.312,7.4,4.274c.773.446,1.4.089,1.4-.8l.01-3.569a3.069,3.069,0,0,0-1.394-2.413" transform="translate(-7996.582 -2171.399)"/><path class="ah" d="M8270.726,2302.513l-4.6-2.658-.541-.312-20.817-12.019-.539-.312-20.815-12.019-.541-.312-19.688-11.368a.9.9,0,0,0-1.13.006,1.088,1.088,0,0,0-.272.792l-.01,3.569a2.679,2.679,0,0,0,.267,1.1,2.99,2.99,0,0,0,1.125,1.309l19.69,11.368.539.312,20.817,12.018.539.312,20.817,12.018.539.312,4.6,2.658c.771.446,1.4.089,1.4-.8l.011-3.569a3.073,3.073,0,0,0-1.393-2.412" transform="translate(-8115.478 -2142.595)"/><path class="ah" d="M7770.689,2290.464,7751,2279.1l-.539-.311-20.817-12.019-.539-.311-7.307-4.218c-.771-.446-1.4-.088-1.4.8l-.01,3.569a3.066,3.066,0,0,0,1.392,2.412l7.306,4.218.54.311,20.816,12.019.54.312,19.689,11.368a.9.9,0,0,0,1.13-.006,1.088,1.088,0,0,0,.271-.793l.011-3.569a2.665,2.665,0,0,0-.268-1.1,2.971,2.971,0,0,0-1.126-1.309" transform="translate(-7707.259 -2141.511)"/><path class="ai" d="M7728.512,1779.981l-6.743-3.894-.016,5.11,6.744,3.894.015-5.11" transform="translate(-7708.417 -1729.41)"/><path class="ai" d="M7810.1,1827.085l-15.3-8.831-.015,5.11,15.3,8.832.016-5.11" transform="translate(-7770.351 -1765.167)"/><path class="ai" d="M7949.693,1907.68l-15.3-8.832-.015,5.11,15.3,8.831.015-5.11" transform="translate(-7888.73 -1833.513)"/><path class="ai" d="M8089.288,1988.274l-15.3-8.831-.015,5.11,15.3,8.832.016-5.11" transform="translate(-8007.109 -1901.859)"/><path class="ai" d="M8228.882,2068.869l-15.3-8.832-.014,5.11,15.3,8.832.015-5.11" transform="translate(-8125.487 -1970.205)"/><path class="ai" d="M8368.48,2149.468l-15.295-8.832-.016,5.11,15.3,8.831.014-5.11" transform="translate(-8243.871 -2038.554)"/><path class="ai" d="M8508.075,2230.063l-15.3-8.832-.014,5.11,15.3,8.832.015-5.11" transform="translate(-8362.25 -2106.899)"/><path class="ai" d="M8647.672,2310.657l-15.3-8.831-.016,5.11,15.3,8.832.016-5.11" transform="translate(-8480.628 -2175.245)"/><path class="ai" d="M8787.265,2391.252l-15.3-8.832-.016,5.11,15.3,8.831.015-5.11" transform="translate(-8599.006 -2243.591)"/><path class="ah" d="M8907.313,2320.857l-10.948-6.323c-.446-.256-.81-.048-.811.463a1.778,1.778,0,0,0,.8,1.394l10.95,6.322c.443.256.81.048.811-.462a1.781,1.781,0,0,0-.806-1.395" transform="translate(-8703.822 -2185.929)"/><path class="ah" d="M8907.252,2342.514l-10.947-6.323c-.447-.256-.811-.048-.811.462a1.78,1.78,0,0,0,.8,1.395l10.951,6.323c.443.256.809.048.809-.463a1.775,1.775,0,0,0-.8-1.394" transform="translate(-8703.771 -2204.294)"/><path class="ah" d="M8907.192,2364.17l-10.951-6.322c-.443-.257-.808-.048-.81.462a1.783,1.783,0,0,0,.8,1.394l10.951,6.322c.443.256.809.049.81-.462a1.783,1.783,0,0,0-.8-1.394" transform="translate(-8703.718 -2222.66)"/><path class="aj" d="M8466.963,2556.31l.007-2.611,60.533,34.949-.007,2.612-60.533-34.949m.016-5.752.008-2.61,64.751,37.384-.007,2.61-64.752-37.384m.017-5.751.008-2.611,62.23,35.929-.006,2.611L8467,2544.807m.018-5.752.006-2.61,63.6,36.721-.007,2.61-63.6-36.721m.016-5.751.007-2.612,64.751,37.384-.006,2.611-64.752-37.384m.021-7.832.015-4.895,38.056,21.971-.014,4.9-38.057-21.971m73.032,26.34-13.895-8.022-.539-.312-20.816-12.019-.54-.311-20.817-12.019-.539-.312-20.817-12.019-.539-.312-3.288-1.9-.167,58.985,81.791,47.222.167-58.985" transform="translate(-8332.873 -2347.193)"/><path class="c" d="M8554.928,2631.75l-38.057-21.971-.014,4.895,38.057,21.971.014-4.9" transform="translate(-8382.68 -2436.395)"/><path class="c" d="M8581.471,2713.719l-64.752-37.384-.007,2.611,64.752,37.384.007-2.611" transform="translate(-8382.557 -2492.836)"/><path class="c" d="M8580.216,2750.905l-63.6-36.721-.008,2.61,63.6,36.722.008-2.61" transform="translate(-8382.465 -2524.932)"/><path class="c" d="M8578.735,2787.955l-62.231-35.929-.007,2.611,62.231,35.93.007-2.611" transform="translate(-8382.374 -2557.023)"/><path class="c" d="M8581.148,2827.258l-64.752-37.384-.006,2.61,64.75,37.384.008-2.61" transform="translate(-8382.285 -2589.118)"/><path class="c" d="M8576.824,2862.664l-60.533-34.949-.008,2.612,60.533,34.949.008-2.611" transform="translate(-8382.193 -2621.209)"/><path class="ah" d="M7727.727,1641.695c-3.065-1.77-5.558-.348-5.567,3.173a12.189,12.189,0,0,0,5.531,9.582c3.065,1.77,5.558.349,5.568-3.173a12.193,12.193,0,0,0-5.532-9.581" transform="translate(-7708.762 -1614.797)"/><path class="ah" d="M7836.814,1718.941l-24.078-13.9-.011,3.837,24.078,13.9.011-3.837" transform="translate(-7785.563 -1669.159)"/></g></g></g></g></g></g></svg>