<svg xmlns="http://www.w3.org/2000/svg" width="537.675" height="363.225" viewBox="0 0 537.675 363.225"><defs><style>.a,.q{fill:#647ddd;}.a{opacity:0.21;}.b{fill:#e2e8f2;}.c{fill:#ff8358;}.d{fill:#1f3598;}.e{fill:#3772ce;}.f{fill:#ced6e9;}.g{mix-blend-mode:multiply;isolation:isolate;}.h{fill:#fab300;}.i{fill:#4568c7;}.j{fill:#a0d2fe;}.k{opacity:0.51;}.l{fill:#87ace0;}.m{fill:rgba(15,0,0,0.1);}.n{fill:#c4e4f9;}.o{fill:#0f62fe;}.p{opacity:0.18;}.r{fill:#b5e6ff;}</style></defs><g transform="translate(-407.325 -2069.175)"><g transform="translate(-137.738 1125.377)"><ellipse class="a" cx="34.72" cy="20.046" rx="34.72" ry="20.046" transform="translate(786.096 1170.573)"/><ellipse class="a" cx="34.096" cy="19.686" rx="34.096" ry="19.686" transform="translate(651.257 1217.698)"/><path class="b" d="M783.316,1050.707c-4.277,1.794-6.824.01-8.473-4.167-1.718-4.357-1.623-9.668,2.8-11.862,2.054-1.02,5.66-4.329,8.577-8.68a20.436,20.436,0,0,0,2.99-7.085c.022-.1.045-.2.069-.294L794.957,996c1.209-4.814,5.906-8.08,10.5-7.294s7.324,5.327,6.116,10.141l-5.646,22.48a40.143,40.143,0,0,1-5.863,13.722c-4.635,6.912-10.689,12.671-16.194,15.4C783.684,1050.545,783.5,1050.63,783.316,1050.707Z"/><path class="c" d="M777.1,1051.984c-6.428,4.423-17.92,11.352-28.246,12.5-3.517.392-5.739-2.615-4.964-6.714s4.251-7.74,7.771-8.132c10.992-1.223,25.354-12.6,25.5-12.717,3.323-2.651,6.089-1.223,7.462,1.913a7.684,7.684,0,0,1-2.476,9.451C781.913,1048.471,780.035,1049.966,777.1,1051.984Z"/><path class="d" d="M828.9,1180.414a5.177,5.177,0,0,0-.176.663Z"/><path class="d" d="M828.9,1180.414c.019-.057.042-.113.063-.169q.174-.71.357-1.413Z"/><path class="d" d="M841.424,1181.812c-.082-2.752-1.245-4.638-4.185-4.982-1.988-.232-4.092-.348-5.813.555a5.284,5.284,0,0,0-2.463,2.859c-1.18,3.214-4.577,30.525,2.189,27.047C838.51,1203.508,841.643,1189.095,841.424,1181.812Z"/><path class="d" d="M816.555,1170.041c-5.515-6.388-11.724,2.677-14.656,6.435-1.992,2.554-8.922,9.334-8.164,12.892.266,1.247.417,1.19,1.648,1.521a7.738,7.738,0,0,0,3.784-.141c6.506-1.568,11.662-5.245,14.612-10.872.119,1.563.15,3.128.13,4.7a.45.45,0,0,0,.7.366q.912-.594,1.789-1.237c2.181-1.612,1.219-3.9,1.809-6.494A8.143,8.143,0,0,0,816.555,1170.041Z"/><path class="c" d="M838.158,1120.027l-.314-55.514,4.723-13.287-28.313,4.143-17.372-7.093,1.7,70.233s6.952,51.452,7.023,51.974c.241,1.787-2.845,6.322-3.928,7.783a7.294,7.294,0,0,0-1.76,3.227c-.362,2.929,2.681,2.544,4.4,1.977,3.519-1.162,14.039-8.744,11.046-13.711.09-.415.02.449,0,0l.858-47.007,2.387-48.078,1.269,22.415,1.543,22.825,8.547,60.118-.882,7.33c-.224,1.852-.442,5.657.1,7.449.236.772.8,1.625,1.659,1.614a2.243,2.243,0,0,0,1.225-.522c3.94-2.812,6.618-9.006,7.284-13.585a8.058,8.058,0,0,0-.439-4.528Z"/><path class="e" d="M801.213,1035.182l-3.3,5.034a23.608,23.608,0,0,0-3.891,13.256l.886,68.457s31.456,15.308,47.737-2.059l.706-49s3.872-27.6-7.8-34.036Z"/><path class="e" d="M814.5,975.445c.021,0,.041.023.062.045a1.4,1.4,0,0,0,.021-.295A.363.363,0,0,1,814.5,975.445Z"/><path class="f" d="M841.475,1003.149l-2.4,9-4.726,27.34c-.493,1.852-3.726,3.376-5.341,4.176-4.345,2.153-12.811,3.223-25.3-2.071a6.539,6.539,0,0,1-3.8-4.829l-4.922-20.258-.079-.407a14.274,14.274,0,0,1,1.318-9.21l4.561-8.755v-4.68c0-5.552,4.911-9.551,9.831-8l4.422,1.535,11.993,4.179,10.327,3.59A6.937,6.937,0,0,1,841.475,1003.149Z"/><path class="b" d="M841.475,1003.149l-2.4,9c-1.2,1.487-2.407,2.984-3.62,4.472-2.538,3.145-5.2,6.386-8.731,8.034-5.879,2.748-12.63.5-18.6-2.027q-5.535-2.331-10.947-4.975c-.732-.35-1.482-.72-2.189-1.146l-.079-.407a14.274,14.274,0,0,1,1.318-9.21l4.561-8.755v-4.68c0-5.552,4.911-9.551,9.831-8l4.422,1.535,11.993,4.179,10.327,3.59A6.937,6.937,0,0,1,841.475,1003.149Z"/><path class="c" d="M827.039,991.173a93.125,93.125,0,0,1-10.5,7.759c-1.256.8-2.651,1.583-4.082,1.355a1.48,1.48,0,0,1-.863-.4,2.274,2.274,0,0,1-.227-1.952,45.75,45.75,0,0,1,3.681-10.943Z"/><path class="c" d="M827.052,975.366v15.779l-12.469,1.067V975.366Z"/><g class="g"><path class="c" d="M827.052,981l-12.41,9.408-.059.9V980.117Z"/></g><path class="e" d="M839.645,957.746c-6.637-2.136-3.528-7.079-7.405-11.3-4.5-4.892-12.4-2.217-16.525,1.6a3.734,3.734,0,0,1-1.568,1.05c-4.153.974-6.11-2.288-9.82,1.88-2.478,2.782-4.283,7.369-6.844,10.5-1.477,1.8-2.995,4.395-1.594,6.258,1.017,1.352,3.237,1.634,3.8,3.231.377,1.069-.2,2.208-.513,3.3a7.563,7.563,0,0,0,2.917,8.132c6.489,4.429,9.263-2.473,13.943-4.816,7.044-3.527,8.385,7.26,13.3,9.722a6.361,6.361,0,0,0,8.491-3.47c.791-2.3.15-4.82.211-7.255.144-5.726,5.879-4.322,7.161-9.189C846.2,963.611,843.213,958.9,839.645,957.746Z"/><path class="e" d="M822.7,954.459c1.148-1.779.61-4.113.034-6.149a4.418,4.418,0,0,1,1.836-.569,7.326,7.326,0,0,1,.528-.983c-1.143-.888-2.094-1.182-3.49.033-2.242,1.951-3.924,4.817-3.623,7.774a5.885,5.885,0,0,0,.979,2.651C820.315,956.407,821.851,955.774,822.7,954.459Z"/><path class="e" d="M835.659,956.146a26.944,26.944,0,0,0-5.366-4.417,13.733,13.733,0,0,0-3.379-1.735c-3.667-1.138-11.969.724-15.044,3.041-5.821,4.385-9.816,11.058-9.029,17.779,2.2,18.761,27.975,14.327,34.736,1.344a14.3,14.3,0,0,0,.383-12.645A14.64,14.64,0,0,0,835.659,956.146Z"/><path class="c" d="M802.476,974.888c.131,3.68.762,7.312,2.918,10.012,2.374,3.011,6.207,4.206,9.844,4.3a10.909,10.909,0,0,0,5.858-1.29c3.353-2.007,4.922-6.332,5.771-10.418a34.327,34.327,0,0,0,.631-4.707,17.5,17.5,0,0,0-.522-5.329,15.33,15.33,0,0,0-6.708-8.745,24.155,24.155,0,0,0-10.192-3.226,8.177,8.177,0,0,0-5.118.621,4.358,4.358,0,0,0-2.068,2.868,3.346,3.346,0,0,0-.044,1.314c-.109,3.345-.217,6.666-.326,10.012C802.476,971.806,802.432,973.335,802.476,974.888Z"/><path class="e" d="M810.852,963.494a22.656,22.656,0,0,0,5.254,8.061,13.235,13.235,0,0,0,8.7,3.759,5.208,5.208,0,0,0,4.124-1.524,5.647,5.647,0,0,0,1-2.217,14.507,14.507,0,0,0-.595-9.486,11.011,11.011,0,0,0-7.015-6.209,12.383,12.383,0,0,0-9.692,1.906c-2.023,1.306-3.908,3.545-3.325,5.88Z"/><rect class="d" width="11.036" height="0.785" transform="matrix(0.864, -0.504, 0.504, 0.864, 818.958, 980.127)"/><path class="c" d="M823.936,979.475a.809.809,0,0,0,.805.09,2.1,2.1,0,0,1,.053-.287Z"/><path class="c" d="M829.554,973.788c-1.259-.436-2.505.968-3.053,2.57a14.018,14.018,0,0,1-.849,2.393,1.814,1.814,0,0,1-.911.814A2.714,2.714,0,0,0,826.1,982.7c1.072.352,2.186-.337,3.069-1.236a6.741,6.741,0,0,0,1.972-3.862C831.339,976.019,830.7,974.185,829.554,973.788Z"/><path class="h" d="M808.838,974.405c.232-.786.738-1.066,1.323-.729a3.5,3.5,0,0,1,1.322,2.256l.377-.062a4.5,4.5,0,0,0-1.7-2.9c-.751-.433-1.4-.074-1.7.937Z"/><path class="d" d="M808.838,974.405c.232-.786.738-1.066,1.323-.729a3.5,3.5,0,0,1,1.322,2.256l.377-.062a4.5,4.5,0,0,0-1.7-2.9c-.751-.433-1.4-.074-1.7.937Z"/><path class="d" d="M817.035,984.173a3.869,3.869,0,0,1-1.911-.579,8.926,8.926,0,0,1-4.031-6.984,2.72,2.72,0,0,1,4.424-2.554,8.922,8.922,0,0,1,4.033,6.983,3.064,3.064,0,0,1-1.321,2.824A2.357,2.357,0,0,1,817.035,984.173Zm-3.426-9.909a1.588,1.588,0,0,0-.8.2,2.332,2.332,0,0,0-.927,2.143,8.059,8.059,0,0,0,3.639,6.3,1.958,1.958,0,0,0,3.247-1.875,8.056,8.056,0,0,0-3.64-6.3A3.1,3.1,0,0,0,813.609,974.264Z"/><path class="d" d="M806.825,978.278a3.877,3.877,0,0,1-1.91-.578,8.924,8.924,0,0,1-4.032-6.984,2.721,2.721,0,0,1,4.425-2.555,8.927,8.927,0,0,1,4.032,6.984,3.064,3.064,0,0,1-1.32,2.823A2.361,2.361,0,0,1,806.825,978.278Zm-3.425-9.909a1.59,1.59,0,0,0-.805.2,2.332,2.332,0,0,0-.927,2.143,8.056,8.056,0,0,0,3.639,6.3,1.958,1.958,0,0,0,3.247-1.874,8.053,8.053,0,0,0-3.639-6.3A3.1,3.1,0,0,0,803.4,968.369Z"/><path class="e" d="M814.033,961.7a54.88,54.88,0,0,1-11.533,5.286,9,9,0,0,1-.663-8.157,13.279,13.279,0,0,1,5.533-6.268c4.275-2.626,10.411-3.033,13.918.555a4.005,4.005,0,0,1,1.252,2.332c.187,2-1.826,3.439-3.616,4.348a73.542,73.542,0,0,1-8.318,3.6Z"/><path class="b" d="M839.788,1023.9l3.643-7.652-2.984-1.406a1.4,1.4,0,0,0-1.29.054L814.719,1029a1.394,1.394,0,0,0-.7,1.206v37.554a1.393,1.393,0,0,0,.8,1.26l1.392.656a1.611,1.611,0,0,0,2.141-.765l1.818-3.818,19.614-11.324Z"/><path class="d" d="M843.431,1055.489l-23.615,13.633a1.433,1.433,0,0,1-2.149-1.241v-34.629a3.688,3.688,0,0,1,1.845-3.195l23.92-13.81Z"/><path class="b" d="M852.266,1044.457a7.582,7.582,0,0,1-6.826-4.27l-15.83-32.554A7.585,7.585,0,1,1,843.252,1001l15.829,32.555a7.586,7.586,0,0,1-6.815,10.9Z"/><path class="c" d="M816.2,1058.647a6.5,6.5,0,0,1,0-13c25.938,0,29.625-9.73,29.641-9.828a6.5,6.5,0,0,1,12.831,2.108C858.327,1040.045,854.175,1058.647,816.2,1058.647Z"/><path class="c" d="M820.859,1049.619h0a2.668,2.668,0,0,1-3.635-.659l-3.644-4.99a2.513,2.513,0,0,1,.554-3.563h0a2.668,2.668,0,0,1,3.636.66l3.644,4.99A2.513,2.513,0,0,1,820.859,1049.619Z"/><path class="e" d="M681.117,1003.586c.022,0,.043.021.065.043a1.273,1.273,0,0,0,.021-.281A.325.325,0,0,1,681.117,1003.586Z"/><path class="c" d="M676.364,1010.208l-2.383,16.779c-.33,2.322,2.4,4.2,6.1,4.2s6.963-1.882,7.292-4.2h.061l2.383-16.779Z"/><path class="b" d="M670.546,1030.172a53.92,53.92,0,0,1,.027-5.439,5.644,5.644,0,0,1,2.688-4.186c3.731-2.49,8.674-1.595,12.212.8,4.785,3.239,3.9,6.112,3.952,11.107.065,6.842.4,17.688.6,24.528h0l-2.118.753a12.992,12.992,0,0,1-2.968.666,10.428,10.428,0,0,1-6.1-1.168l-2.233-5.66-.4,4.2-4.946-2.415a2.315,2.315,0,0,1-1.149-2.058C670.256,1045.587,670.4,1035.882,670.546,1030.172Z"/><path class="e" d="M683.982,1217.1c-7.6-2.082-24.261.268-23.4,5.556a13.719,13.719,0,0,0-.414,3.032c-.377,10.6,14.834,4.294,20.067,1.386C690.019,1221.638,688.887,1218.448,683.982,1217.1Z"/><path class="d" d="M657.634,1072.333a40.937,40.937,0,0,0-.855,15.761,40.006,40.006,0,0,0,1.748,7.62l9.617,28.355c1.224,3.634-.4,7.666-3.662,8.952a6.115,6.115,0,0,1-1.531.379,6.452,6.452,0,0,1-6.591-4.651l-9.614-28.327a57.216,57.216,0,0,1-1.244-32.214l7.89-30.726c.974-3.685,4.46-5.784,7.791-4.62,3.353,1.134,5.29,5.064,4.344,8.773Z"/><path class="e" d="M694.026,1232.127a4.211,4.211,0,0,0-3.685,2.763,12.359,12.359,0,0,0-.649,4.814c0,1.428.061,3.021,1.079,4.023a5.426,5.426,0,0,0,2.476,1.151c7.719,2.09,16.792.495,24.248-1.88a4.043,4.043,0,0,0,3-3.527c.007-2.406-2.686-3.8-4.993-4.481a82.189,82.189,0,0,0-20.37-3.347c-1.233-.028-2.857.53-2.746,1.758Z"/><path class="b" d="M4.3,0h.352a4.3,4.3,0,0,1,4.3,4.3v7.256a4.3,4.3,0,0,1-4.3,4.3H4.3a4.3,4.3,0,0,1-4.3-4.3V4.3A4.3,4.3,0,0,1,4.3,0Z" transform="translate(670.589 1225.274) rotate(-179.317)"/><rect class="b" width="8.953" height="15.857" rx="4.3" transform="translate(701.706 1237.388) rotate(-180)"/><path class="i" d="M705.283,1114.639l-9.017-21.612-43.2,6.708,0,15.153s7.276,42.171,7.521,43.853l-1.341,52.8c.356,2.441,3.407,5.354,5.867,5.536l2.62.192c3.15.232,6.841-2.344,6.69-5.5l4.875-45.144-2.632-34.808,7.607,6.438.2-.073,5.347,32c2.339,12.373.031,53.286.031,53.286.235,2.8,3.624,4.954,6.434,4.954h3.719c2.986,0,6.454-2.421,6.454-5.407l.969-48.949a59.9,59.9,0,0,0-.133-11.408Z"/><path class="j" d="M706.162,1119.4c-.531-17.923-1.259-42.468-1.413-58.6-.018-1.894.015-3.657.047-5.362.184-9.892.318-17.04-10.868-24.613-8.32-5.633-22-9.561-33.184-2.1a15.947,15.947,0,0,0-7.5,11.7,49.417,49.417,0,0,0-.17,8.548c.068,1.888.138,3.839.088,5.831-.191,7.506-.385,17.81-.572,27.774-.186,9.9-.378,20.142-.567,27.6a7.134,7.134,0,0,0,3.6,6.363l14.325,6.994.777-8.16,4.4,11.163.378.176c4.445,2.072,8.239,3.335,13.193,3.335a33.063,33.063,0,0,0,3.362-.179,35.1,35.1,0,0,0,8.02-1.8l6.272-2.228Z"/><g class="k"><path class="j" d="M692.744,1101.752c.047-.961.032-1.929.016-2.889q-.108-6.591-.216-13.182c-.2-12.123-5.93-31.216-1.637-42.232.762-1.954,3.018-5.836,5.572-5.822-.474.053.158.568.325.729a24.255,24.255,0,0,1,3.667,4.6,10.691,10.691,0,0,0,2.153,2.471l2.659,79.687c-5.905,1.6-12.076,4.952-16.194-1.982a12.175,12.175,0,0,1-.429-10.837c1.053-2.461,2.79-4.619,3.56-7.182A13.97,13.97,0,0,0,692.744,1101.752Z"/></g><path class="l" d="M700.572,1221.651h-3.718c-1.709,0-3.286-1.28-4.549-2.783a1.666,1.666,0,0,0-2.952,1.057v4.146a7.5,7.5,0,0,0,7.5,7.5h3.719a7.5,7.5,0,0,0,7.474-6.873v-5.141a.866.866,0,0,0-1.6-.452C705.557,1220.463,704.065,1221.683,700.572,1221.651Z"/><path class="l" d="M668.64,1211.309h-3.353c-1.54,0-4.572-.68-5.148-2.582-.416-1.374-1.615-.472-1.615.981v3.847a6.864,6.864,0,0,0,6.763,6.96h3.353a6.843,6.843,0,0,0,6.739-6.377v-4.77a.777.777,0,0,0-1.444-.42C673.134,1210.207,671.789,1211.339,668.64,1211.309Z"/><path class="c" d="M745.645,1066.024l-30.725,20.1Z"/><path class="c" d="M714.926,1093.457a7.334,7.334,0,0,1-4.021-13.47l30.726-20.1a7.333,7.333,0,0,1,8.028,12.273l-30.726,20.1A7.3,7.3,0,0,1,714.926,1093.457Z"/><path class="i" d="M708.276,1094.359a8.923,8.923,0,0,1-5.723-5.391l-14.64-39.032a8.827,8.827,0,0,1,5.229-11.394,8.956,8.956,0,0,1,11.471,5.243l14.64,39.032a8.87,8.87,0,0,1-10.977,11.542Z"/><path class="c" d="M747.4,1056.422c4.538-.306,8.341-5.245,12.778-4.6a5.571,5.571,0,0,1,4.541,4.894,9.2,9.2,0,0,1-2.386,6.8,20.274,20.274,0,0,1-6.067,4.576,7.925,7.925,0,0,1-3.481,1.149,5.517,5.517,0,0,1-4.159-2.161c-2.568-3.022-4.8-10.2-1.226-10.655Z"/><path class="c" d="M751.628,1050.613h0a2.1,2.1,0,0,0-2.8.94l-2.266,4.551a2.1,2.1,0,0,0,.94,2.8h0a2.1,2.1,0,0,0,2.8-.94l2.266-4.551A2.1,2.1,0,0,0,751.628,1050.613Z"/><path class="i" d="M752.658,1061.437a8.389,8.389,0,0,0-11.6-2.426l-30.725,20.1a8.379,8.379,0,1,0,9.174,14.025l30.726-20.1a8.38,8.38,0,0,0,2.425-11.6Z"/><path class="e" d="M698.316,995.307c0,10.292-7.177,18.627-16.052,18.627a14.473,14.473,0,0,1-9.429-3.559,19.653,19.653,0,0,1-6.611-15.068,21.465,21.465,0,0,1,.349-3.863,20.767,20.767,0,0,1,1.938-5.742,17.48,17.48,0,0,1,6.094-6.773,14.377,14.377,0,0,1,7.659-2.249c.337,0,.686.013,1.023.039a14.289,14.289,0,0,1,6.154,1.905C694.7,981.68,698.316,988,698.316,995.307Z"/><path class="c" d="M704.011,999.77c0,9.617-7.478,17.413-16.715,17.413a16.159,16.159,0,0,1-9.826-3.327,17.637,17.637,0,0,1-6.876-14.086c0-9.629,7.478-17.425,16.7-17.425.349,0,.711.013,1.06.038C697.1,982.948,704.011,990.505,704.011,999.77Z"/><path class="e" d="M675.834,995.143a6.194,6.194,0,0,1,1.4-3l1.2-1.279c.04-.043.085-.073.126-.114.343-4.093,2.878-8.547,6.131-10.453l-5.79,2.048-1.655,2.7v-3.122a18.3,18.3,0,0,0-8.629,12.33h6.146v.892Z"/><path class="e" d="M706.5,981.106c.174-2.912-1.055-4.752-5.006-3.168-8.659,3.472-17.981-1.877-26.524,2.178-10.274,4.876-11.205,19.1-5.831,29,2.148,3.96,5.788,9.211,10.065,8.815,8.1-.752,12.19-7.765,16.812-19,1.428-3.47,3.015-3.737,5.308-5.921C703.428,991.009,706.259,985.066,706.5,981.106Z"/><path class="c" d="M698.3,1000.878a4.995,4.995,0,1,1-4.984-5.311A5.155,5.155,0,0,1,698.3,1000.878Z"/></g><g transform="translate(407.325 2311.484)"><path class="m" d="M276,660H813.675s-11.269,20.927-37.026,17.708a149.484,149.484,0,0,1-20.927-1.61c-9.659-1.61-24.147,3.22-27.367,8.049,0,0-24.147,14.488-64.392,0,0,0-37.026-16.1-62.782-1.61,0,0-19.318,20.928-69.222-4.829,0,0-12.879-8.049-35.416,8.049,0,0-22.537,19.318-66-8.049,0,0-24.147-6.439-51.514,6.439C379.028,684.147,324.294,692.2,276,660Z" transform="translate(-276 -571.461)"/><path class="n" d="M582.407,634.075s27.206,15.026,15.19,36.5C597.6,670.576,578.133,666.564,582.407,634.075Z" transform="translate(-89.525 -587.27)"/><path class="o" d="M614.007,623s14.488,46.684-22.537,57.953C591.47,680.953,573.762,655.2,614.007,623Z" transform="translate(-85.991 -594.023)"/><path class="o" d="M334.352,621.92s-41.564,22.958-23.207,55.765C311.145,677.685,340.883,671.557,334.352,621.92Z" transform="translate(-257.422 -594.682)"/><path class="n" d="M292.061,605s-22.135,71.324,34.43,88.539C326.492,693.539,353.546,654.189,292.061,605Z" transform="translate(-268.808 -605)"/></g><g transform="translate(733.437 2144.677)"><g transform="translate(18.828 26.972)"><path class="c" d="M1071.288,1880.667a31.06,31.06,0,0,0,.757-3.488c-.445-1.663-.84-3.161-.81-3.277l-19.949-20.154a4.243,4.243,0,1,0-6.79,5.092l18.861,23.478.047.056A4.593,4.593,0,0,0,1071.288,1880.667Z" transform="translate(-1043.649 -1852.049)"/></g><g transform="translate(55.321 42.773)"><path class="d" d="M1031.508,1909.871l.091-.006a6.026,6.026,0,0,0,5.35-7.1l-5.309-30.6a6.3,6.3,0,0,0-12.406,2.151l2.092,12.065,2.058,11.885h0C1024.467,1903.907,1024.379,1910.3,1031.508,1909.871Z" transform="translate(-1019.141 -1866.945)"/></g><g transform="translate(8.704 216.104)"><g class="p"><path class="q" d="M1074.722,2059.312c-11.476,6.625-30.083,6.625-41.56,0s-11.476-17.369,0-23.994,30.083-6.626,41.56,0S1086.2,2052.687,1074.722,2059.312Z" transform="translate(-1024.556 -2030.348)"/></g></g><g transform="translate(20.627 106.075)"><path class="c" d="M1067.14,2000.362l4.4-57.766-1.136-13.073-27,4.076-15.627-6.979-5.444,72.247s7.674,46.423,7.74,46.937a34.713,34.713,0,0,1,.589,7.014c3.845.2,6.315-1.009,9.193-3.179a7.351,7.351,0,0,0-.441-2.541c-.011.076-.026.114-.034-.067l.9-43.99,8.224-50.45,1.21,22.053,1.472,25.6,3.767,41.649c2.87-.028,6.9-.1,9.762-.244.115-.062.23-.119.344-.18a5.51,5.51,0,0,0-.268-.755Z" transform="translate(-1022.331 -1926.621)"/></g><g transform="translate(13.736 226.327)"><g transform="translate(0 4.436)"><path class="e" d="M1074.2,2050.4c-3.826,2.706-3.455,5.239-9.195,3.826a10.659,10.659,0,0,1-4.97-2.38,3.935,3.935,0,0,1-.941-4.752c.819-1.323,2.533-1.946,4.157-2.309a25.575,25.575,0,0,1,8.238-.476,7.029,7.029,0,0,1,3.7,1.214C1077.229,2047.164,1075.915,2049.184,1074.2,2050.4Z" transform="translate(-1058.638 -2044.167)"/></g><g transform="translate(6.511)"><path class="c" d="M1063.8,2039.985a10.053,10.053,0,0,0-2.584,1.856c-2.882,2.4-5.81,4.855-7.839,8.008.6,1.775,2.543,3.062,4.672,3.7a31.959,31.959,0,0,0,3.638-1.287,19.849,19.849,0,0,0,8.035-6.662c.242-.351.476-.823.235-1.175l-3.2-3.1c-3.21-3.107-7.957,1.328-11.193,3.017-1.224.638-2.613,1.526-2.66,2.905-.044,1.29,1.147,2.273,2.312,2.826a11.059,11.059,0,0,0,3.648,1.011Z" transform="translate(-1052.903 -2039.985)"/></g><g transform="translate(21.442 4.933)"><g transform="translate(0)"><rect class="e" width="4.459" height="10.69" rx="1.403"/></g></g><g transform="translate(4.338 0.289)"><path class="e" d="M1070.745,2040.556a5.09,5.09,0,0,0-4.648.675c-2.249,1.358-3.915,3.575-5.878,5.283-2.706,2.353-5.431,3.669-8.742,2.156-1.091.662-1.853,1.425-1.819,2.3.049,1.28,2.343,2.923,3.355,3.618,3.18,2.188,8.293-1.324,10.88-2.639,2.038-1.036,4.2-.844,6.139-1.708C1072.645,2049.08,1073.475,2043.012,1070.745,2040.556Z" transform="translate(-1049.657 -2040.258)"/></g></g><g transform="translate(39.839 218.212)"><g transform="translate(4.42)"><path class="c" d="M1030.658,2043.733a5.789,5.789,0,0,1-1.171-3.376,3.594,3.594,0,0,1,1.969-3.1,9.53,9.53,0,0,1,1.455-.7c2.746-1.071,6.337-3.833,9.65-3.842a2.914,2.914,0,0,1,.958-.384l-.172.439a5.678,5.678,0,0,1,3.973,2.75l.156.232c-2.705,1.495-4.778.924-7.193,2.925C1037.253,2041.188,1034.2,2045.818,1030.658,2043.733Z" transform="translate(-1029.485 -2032.335)"/></g><g transform="translate(0 1.161)"><path class="e" d="M1027,2036.961c.689-1.31,3.181-1.6,4.547-1.608a14.608,14.608,0,0,1,2.19.149,1.465,1.465,0,0,1,.8.408,2.457,2.457,0,0,0-.169.294,6.236,6.236,0,0,0-.726,2.076.554.554,0,0,0,.241.593,4.064,4.064,0,0,0,2.135.82c2.3,1.216,5.281-2,7.216-3.715,1.412-1.248,2.072-1.028,3.6-1.929.082-.048.16-.1.244-.15a3.282,3.282,0,0,1,3.913.386,6.891,6.891,0,0,1,.518.946c1.273,2.809.459,7.58-3.066,7.527a26.832,26.832,0,0,0-5.271.911c-6.293,3.166-11.229,4.667-15.379-2.084C1026.7,2039.819,1026.214,2038.449,1027,2036.961Z" transform="translate(-1026.613 -2033.429)"/></g></g><g transform="translate(16.854 90.529)"><path class="d" d="M1034.41,1911.966l-3.25,5.092a24.371,24.371,0,0,0-3.828,13.407l-5.767,61.688a9.772,9.772,0,0,0,6.843,10.258c11.292,3.48,32.466,7.695,43.853-4.792l1.664-49.554s5.749-27.918-5.729-34.424Z" transform="translate(-1021.521 -1911.966)"/></g><g transform="translate(25.803 40.116)"><path class="b" d="M1061.147,1910.489a42.332,42.332,0,0,0,.105,5.761,2.677,2.677,0,0,1-1.217,2.5,35.217,35.217,0,0,1-5.143,2.675c-5.152,2.163-11.061,3.38-16.56,2.163l-.65-.158c-3.159-.808-10.032-2.676-10.652-6.59a1.972,1.972,0,0,1-.052-.483c.011-.367.031-.745.052-1.122v-17.567c-1.71-5.089-4.848-8.72-3.284-15.185a23.006,23.006,0,0,1,3.662-8.227c2.9-3.989,7.073-6.455,12.4-8.008,1.69-.483,3.358-.881,4.869-1.2a30,30,0,0,1,9.781-.368c3.432.441,6.716,1.606,8.762,3.893a7.912,7.912,0,0,1,.735.924c4.071,6.108,1.909,14.65.429,21.282C1062.932,1897.3,1061.4,1903.846,1061.147,1910.489Z" transform="translate(-1023.323 -1864.441)"/></g><g transform="translate(41.207 26.346)"><path class="d" d="M1049.244,1851.705c.021,0,.041.022.062.045a1.422,1.422,0,0,0,.02-.291A.356.356,0,0,1,1049.244,1851.705Z" transform="translate(-1049.244 -1851.459)"/></g><g transform="translate(41.284 26.517)"><path class="c" d="M1050.1,1867.457h-12.268l-1.513-9.029-1.135-6.808h12.268Z" transform="translate(-1035.187 -1851.62)"/></g><g class="g" transform="translate(42.419 33.102)"><path class="c" d="M1048.637,1857.828l-6.09,9.252h-.388l-1.513-9.029Z" transform="translate(-1040.645 -1857.828)"/></g><g transform="translate(42.115 23.556)"><path class="c" d="M1047.678,1848.969a1.03,1.03,0,0,0,.784.065c.025-.067.012-.141.051-.2Z" transform="translate(-1047.678 -1848.829)"/></g><g transform="translate(42.288 40.119)"><path class="c" d="M1048.615,1868.481c-1.92,2.813-8.331,1.8-14.451-2.23,1.7-.5,3.366-.893,4.878-1.2a30.316,30.316,0,0,1,9.776-.369A4.225,4.225,0,0,1,1048.615,1868.481Z" transform="translate(-1034.164 -1864.443)"/></g><g transform="translate(31.003 0)"><g transform="translate(10.751 26.903)"><path class="d" d="M1048.735,1852.23c.019,0,.038.022.056.045a1.494,1.494,0,0,0,.019-.291A.378.378,0,0,1,1048.735,1852.23Z" transform="translate(-1048.735 -1851.984)"/></g><g transform="translate(2.692 4.212)"><path class="c" d="M1034.941,1849.774c.119,3.614.694,7.18,2.654,9.831a11.176,11.176,0,0,0,8.95,4.224,9.329,9.329,0,0,0,5.327-1.267c3.05-1.972,4.475-6.218,5.248-10.231a36.413,36.413,0,0,0,.574-4.622,18.511,18.511,0,0,0-.475-5.233,14.956,14.956,0,0,0-6.1-8.588,20.849,20.849,0,0,0-9.267-3.167,6.94,6.94,0,0,0-4.654.61,4.277,4.277,0,0,0-1.881,2.816,3.522,3.522,0,0,0-.04,1.29c-.1,3.285-.2,6.547-.3,9.831C1034.941,1846.747,1034.9,1848.25,1034.941,1849.774Z" transform="translate(-1034.924 -1830.592)"/></g><g transform="translate(11.59 24.119)"><path class="c" d="M1047.287,1849.5a.888.888,0,0,0,.723.064c.024-.067.012-.14.049-.2Z" transform="translate(-1047.287 -1849.359)"/></g><path class="e" d="M1029.414,1830.521c9.557-5.537,19.556-5.433,26.591,1.964,2.759,2.9,5.369,11.868,5.008,16.009-.352,4.037-3.419,7.141-6.531,9.412-3.631,2.652-12.537,8.442-16.9,4.431a6.826,6.826,0,0,1-1.562-2.427c-1.161-2.753-.613-6.218-2.344-8.644-1.631-2.284-4.9-3.19-6.665-5.554C1022.346,1839.464,1024.031,1833.642,1029.414,1830.521Z" transform="translate(-1024.291 -1826.622)"/><g transform="translate(7.509 21.642)"><path class="c" d="M1052.215,1849.594a7.927,7.927,0,0,1-2.485,5.105,2.356,2.356,0,0,1-2.008.525c-2.153-.566-1.952-3.987-1.284-5.667a3.871,3.871,0,0,1,2.878-2.512A2.593,2.593,0,0,1,1052.215,1849.594Z" transform="translate(-1045.981 -1847.024)"/></g></g><g transform="translate(25.803 53.956)"><path class="f" d="M1063.927,1881.867c-1.572-2.806-2.919-4.837-6.3-4.291a43.97,43.97,0,0,0-6.907,2.035c-.219.668-.424,1.352-.6,2.077-1.564,6.464,1.574,10.1,3.284,15.185v17.567c-.021.378-.041.755-.052,1.122a1.972,1.972,0,0,0,.052.483c.62,3.914,7.493,5.782,10.652,6.59l.65.158v-39.881A5.066,5.066,0,0,1,1063.927,1881.867Z" transform="translate(-1049.692 -1877.487)"/></g><g transform="translate(28.935 85.265)"><path class="e" d="M1062.9,1913.622a41.86,41.86,0,0,1-.108-5.691l.043-.928-.817.441c-8.164,4.408-15.873,8.572-28.885,3.05-.464-.2-.939-.378-1.416-.558a15.026,15.026,0,0,1-3.264-1.543l-.825-.575v4.8c-.02.383-.04.766-.05,1.12a2.373,2.373,0,0,0,.055.594c.685,4.345,7.944,6.223,11.045,7.026a21.337,21.337,0,0,0,5.338.655,32.246,32.246,0,0,0,12.2-2.693,35.852,35.852,0,0,0,5.224-2.713A3.227,3.227,0,0,0,1062.9,1913.622Z" transform="translate(-1027.578 -1907.003)"/></g><g transform="translate(0.715 49.4)"><g transform="translate(0.323 11.694)"><path class="c" d="M1088.086,1913.693a32.117,32.117,0,0,0,.78-3.593c-.458-1.712-.866-3.255-.835-3.374l-20.546-20.759a4.371,4.371,0,1,0-6.995,5.245l19.428,24.181.047.058A4.732,4.732,0,0,0,1088.086,1913.693Z" transform="translate(-1059.617 -1884.216)"/></g><g transform="translate(0 8.349)"><path class="c" d="M1076.977,1889.74c1.164,3.758,4.52,6.058,7.5,5.136s4.448-4.715,3.285-8.473-4.52-6.058-7.5-5.136S1075.814,1885.982,1076.977,1889.74Z" transform="translate(-1076.579 -1881.063)"/></g><g transform="translate(3.616)"><path class="c" d="M1083.167,1887.664h0a1.881,1.881,0,0,0,1.24-2.353l-3.339-10.793a1.882,1.882,0,0,0-2.354-1.241h0a1.882,1.882,0,0,0-1.241,2.353l3.34,10.793A1.881,1.881,0,0,0,1083.167,1887.664Z" transform="translate(-1077.389 -1873.192)"/></g><g transform="translate(20.919 0.604)"><path class="b" d="M1056.786,1918.569l.092.022a6.275,6.275,0,0,0,7.534-5.379l4.291-32.034a6.555,6.555,0,0,0-12.994-1.738l-1.693,12.63-1.67,12.44h0C1051.656,1910.451,1049.57,1916.767,1056.786,1918.569Z" transform="translate(-1051.53 -1873.761)"/></g></g><g transform="translate(0 4.002)"><g transform="translate(1.088)"><path class="r" d="M1060.774,1870.076l17.989,11.329c1.147.721,2.582-.015,3.207-1.645l6.56-33.5c.625-1.63.2-3.538-.945-4.259l-17.99-11.329c-1.146-.722-2.582.015-3.206,1.645l-6.561,33.5C1059.205,1867.447,1059.628,1869.354,1060.774,1870.076Z" transform="translate(-1059.541 -1830.394)"/></g><g transform="translate(0 0.153)"><path class="d" d="M1061.8,1870.22l17.989,11.329c1.147.722,2.582-.015,3.207-1.645l6.56-33.5c.625-1.63.2-3.538-.945-4.26l-17.989-11.329c-1.147-.721-2.582.015-3.207,1.645l-6.56,33.5C1060.231,1867.591,1060.654,1869.5,1061.8,1870.22Z" transform="translate(-1060.567 -1830.539)"/></g><g transform="translate(2.946 5.213)"><path class="f" d="M1065.313,1865.524l13.7,8.627c.873.551,1.967-.012,2.442-1.253l4.995-25.508a2.77,2.77,0,0,0-.72-3.244l-13.7-8.626c-.873-.549-1.967.012-2.442,1.253l-5,25.508A2.768,2.768,0,0,0,1065.313,1865.524Z" transform="translate(-1064.373 -1835.309)"/></g></g><g transform="translate(20.628 28.522)"><path class="c" d="M1068.9,1864.054h0a1.826,1.826,0,0,0-.092-2.581l-8.03-7.473a1.825,1.825,0,0,0-2.581.093h0a1.826,1.826,0,0,0,.092,2.581l8.03,7.473A1.827,1.827,0,0,0,1068.9,1864.054Z" transform="translate(-1057.708 -1853.51)"/></g><g transform="translate(59.941 221.156)"><g transform="translate(0)"><rect class="e" width="4.459" height="10.69" rx="1.403"/></g></g><g transform="translate(50.176 5.803)"><path class="e" d="M1010.081,1832.093c6.59.356,14.511,1.6,17.068,7.69,1.84,4.384-.057,9.44.668,14.14.907,5.879,5.66,10.255,9.36,14.913s6.519,11.377,3.249,16.346a15.549,15.549,0,0,0-1.988,3.058c-.944,2.625.949,5.31,2.286,7.759a21.62,21.62,0,0,1-1.557,22.673,10.455,10.455,0,0,1-5.949,4.355c-4.959,1.029-9.317-3.521-11.54-8.07a36.331,36.331,0,0,1-3.19-21.644c.293-1.8.717-3.672.138-5.4-.879-2.62-3.687-3.95-5.868-5.646a16.045,16.045,0,0,1-3.775-20.214c1.326-2.212,3.278-4.319,3.219-6.9-.114-4.83-6.656-6.58-9.109-10.741a7.146,7.146,0,0,1,11.558-8.307Z" transform="translate(-1002.175 -1832.093)"/></g></g></g></svg>