<svg xmlns="http://www.w3.org/2000/svg" width="537.675" height="400.199" viewBox="0 0 537.675 400.199"><defs><style>.a,.ag{fill:#0f62fe;}.b,.c,.d{fill:none;stroke:#fff;stroke-linecap:round;stroke-linejoin:round;}.b,.c{stroke-width:2.5px;}.c{stroke-dasharray:0.73 3.651;}.d{stroke-width:2px;}.e{fill:rgba(15,0,0,0.1);}.f{fill:#c4e4f9;}.g{fill:#647ddd;opacity:0.17;}.h{fill:#bddcff;}.i{fill:#8dc0ef;}.j{fill:#e2e8f2;}.k{fill:#1f3598;}.l{fill:#d5e8fa;}.m{fill:#eff6fc;}.n{fill:#75a3ec;}.o{fill:#f2f4f9;}.p{fill:#fff;}.q{fill:#484255;}.r{fill:#577de8;}.s{fill:#f2f4fa;}.t{fill:#3772ce;}.u{fill:#ff8358;}.v{fill:#fd8358;}.w{fill:#4568c7;}.x{fill:#ced6e9;}.y{fill:#a0d2fe;}.z{opacity:0.34;}.aa{fill:#c1d7ea;}.ab{fill:#cacaca;}.ab,.ah{mix-blend-mode:multiply;isolation:isolate;}.ac,.ah{fill:#e5e9f9;}.ad{fill:#32b98e;}.ae{fill:#f26c73;}.af{opacity:0.7;}.ag{opacity:0.8;}.ah{opacity:0.4;}</style></defs><g transform="translate(-409 -4650.2)"><g transform="translate(9326 -8327)"><path class="a" d="M130,0A130,130,0,1,1,0,130,130,130,0,0,1,130,0Z" transform="translate(-8896.779 12977.2)"/><g transform="translate(-8829.648 13050.514)"><path class="b" d="M126.712,172.762H150a11.46,11.46,0,0,1,11.46,11.46v65.461A11.46,11.46,0,0,1,150,261.143H46.46A11.46,11.46,0,0,1,35,249.683V197.146" transform="translate(-35 -156.869)"/><line class="b" x2="7.218" transform="translate(59.618 96.551)"/><line class="b" x2="126.455" transform="translate(0 89.514)"/><line class="b" y1="14.182" x2="1.313" transform="translate(51.078 104.231)"/><line class="b" x2="1.313" y2="14.182" transform="translate(74.063 104.231)"/><line class="b" x2="49.225" transform="translate(38.615 118.413)"/><line class="b" x1="10.737" y1="10.737" transform="translate(108.393 24.259)"/><line class="b" x1="10.065" y1="10.065" transform="translate(98.173 25.034)"/><line class="c" x1="10.065" y1="10.065" transform="translate(108.239 35.099)"/><path class="d" d="M201.659,315.781,204.1,309.9a1.566,1.566,0,0,0-.738-1.995l-7.45-3.779a1.586,1.586,0,0,1-.849-1.536,24.7,24.7,0,0,0-.008-3.538,1.583,1.583,0,0,1,.849-1.538l7.458-3.784a1.564,1.564,0,0,0,.738-1.993l-3.533-8.531a1.567,1.567,0,0,0-1.933-.888l-7.948,2.6a1.582,1.582,0,0,1-1.688-.488,25.063,25.063,0,0,0-2.5-2.505,1.582,1.582,0,0,1-.485-1.687l2.594-7.941a1.564,1.564,0,0,0-.888-1.932l-8.529-3.533a1.565,1.565,0,0,0-1.995.738l-3.779,7.45a1.585,1.585,0,0,1-1.536.849,24.688,24.688,0,0,0-3.536.008,1.584,1.584,0,0,1-1.54-.849l-3.783-7.458a1.565,1.565,0,0,0-1.995-.738L152.5,270.36a1.564,1.564,0,0,0-.888,1.932l2.6,7.949a1.582,1.582,0,0,1-.488,1.688,24.725,24.725,0,0,0-2.505,2.494,1.586,1.586,0,0,1-1.688.487l-7.94-2.6a1.565,1.565,0,0,0-1.932.888l-3.533,8.531a1.563,1.563,0,0,0,.737,1.993l7.45,3.779a1.582,1.582,0,0,1,.849,1.538,25.149,25.149,0,0,0,.008,3.536,1.578,1.578,0,0,1-.849,1.538l-7.458,3.784a1.567,1.567,0,0,0-.738,1.995l3.534,8.529a1.564,1.564,0,0,0,1.932.888l7.949-2.6a1.583,1.583,0,0,1,1.688.488,24.883,24.883,0,0,0,2.494,2.505,1.585,1.585,0,0,1,.487,1.688l-2.6,7.94a1.564,1.564,0,0,0,.888,1.932l8.529,3.533a1.564,1.564,0,0,0,1.995-.738l3.779-7.448a1.583,1.583,0,0,1,1.536-.85,24.924,24.924,0,0,0,3.536-.006,1.58,1.58,0,0,1,1.54.847l3.783,7.458a1.564,1.564,0,0,0,1.995.738l5.33-2.207" transform="translate(-126.516 -266.707)"/><path class="d" d="M198.019,319.085,176.237,297.3a13.647,13.647,0,0,0-18.382-16.155l7.466,7.466-.473,6.957-6.957.471-7.464-7.466a13.645,13.645,0,0,0,16.153,18.382l21.782,21.783a6.828,6.828,0,1,0,9.656-9.656Z" transform="translate(-118.735 -258.917)"/></g></g><g transform="translate(409 4929.484)"><path class="e" d="M276,660H813.675s-11.269,20.927-37.026,17.708a149.484,149.484,0,0,1-20.927-1.61c-9.659-1.61-24.147,3.22-27.367,8.049,0,0-24.147,14.488-64.392,0,0,0-37.026-16.1-62.782-1.61,0,0-19.318,20.928-69.222-4.829,0,0-12.879-8.049-35.416,8.049,0,0-22.537,19.318-66-8.049,0,0-24.147-6.439-51.514,6.439C379.028,684.147,324.294,692.2,276,660Z" transform="translate(-276 -571.461)"/><path class="f" d="M582.407,634.075s27.206,15.026,15.19,36.5C597.6,670.576,578.133,666.564,582.407,634.075Z" transform="translate(-89.525 -587.27)"/><path class="a" d="M614.007,623s14.488,46.684-22.537,57.953C591.47,680.953,573.762,655.2,614.007,623Z" transform="translate(-85.991 -594.023)"/><path class="a" d="M334.352,621.92s-41.564,22.958-23.207,55.765C311.145,677.685,340.883,671.557,334.352,621.92Z" transform="translate(-257.422 -594.682)"/><path class="f" d="M292.061,605s-22.135,71.324,34.43,88.539C326.492,693.539,353.546,654.189,292.061,605Z" transform="translate(-268.808 -605)"/></g><g transform="translate(-5.484 -6)"><path class="g" d="M2082.343,1008.589c-14.278,0-25.894,7.664-25.894,17.085s11.616,17.085,25.894,17.085,25.893-7.664,25.893-17.085S2096.62,1008.589,2082.343,1008.589Z" transform="translate(-1161.594 3904.882)"/><path class="h" d="M2102.192,998.561l-6,30.1H2056.41l-6-30.1Z" transform="translate(-1151.708 3894.457)"/><path class="h" d="M2096.515,1029.69c0,5.088-7.708,10.748-18.906,11.063-.323.007-.653.015-.983.015-11.723,0-19.889-5.84-19.889-11.078s8.166-11.086,19.889-11.086a31.763,31.763,0,0,1,8.278,1.058C2092.019,1021.576,2096.515,1025.8,2096.515,1029.69Z" transform="translate(-1152.034 3893.424)"/><path class="i" d="M2103.653,998.561l-6,30.1c0,5.089-7.708,10.748-18.906,11.063a19.463,19.463,0,0,0,3.5-4.653,27.867,27.867,0,0,0,2.424-6.41,53.025,53.025,0,0,0,1.374-10.027c.1-1.718.157-3.437.2-5.141q.214-7.465.435-14.928Z" transform="translate(-1153.168 3894.457)"/><ellipse class="j" cx="25.893" cy="17.085" rx="25.893" ry="17.085" transform="translate(898.698 4875.93)"/><ellipse class="k" cx="19.889" cy="11.081" rx="19.889" ry="11.081" transform="translate(904.702 4881.934)"/><circle class="i" cx="17.859" cy="17.859" r="17.859" transform="translate(904.103 4822.891) rotate(-80.783)"/><circle class="i" cx="12.663" cy="12.663" r="12.663" transform="translate(908.047 4827.527) rotate(-22.5)"/><ellipse class="i" cx="13.784" cy="13.784" rx="13.784" ry="13.784" transform="translate(906.582 4873.802) rotate(-67.5)"/><path class="i" d="M2082.4,1000.239a4.959,4.959,0,1,1-4.958-4.958A4.959,4.959,0,0,1,2082.4,1000.239Z" transform="translate(-1152.845 3894.626)"/><path class="i" d="M2091,920.662c-3.962,5.058-3.837,6.494-2.221,10.754H2065.1c1.616-4.26,1.741-5.7-2.22-10.754Z" transform="translate(-1152.351 3898.473)"/><path class="i" d="M2089.222,922.824c-13.063,12.178-11.5,25.676-2.1,35.758h-20.164c9.4-10.082,10.966-23.58-2.1-35.758Z" transform="translate(-1152.453 3898.361)"/><path class="i" d="M2088.723,923.322c-13.534,11.651-11.128,66.215-7.893,69.973h-7.517c3.237-3.758,5.642-58.323-7.893-69.973Z" transform="translate(-1152.481 3898.335)"/><path class="i" d="M2086.295,946.01c-4.409,4.567-4.506,8.451.465,13.25h-19.148c4.972-4.8,4.874-8.683.465-13.25Z" transform="translate(-1152.595 3897.166)"/><path class="i" d="M2085.616,946.76c-9.507,8.364-7.917,43.98-4.642,47.7h-7.446c3.275-3.724,4.866-39.339-4.641-47.7Z" transform="translate(-1152.66 3897.127)"/><path class="i" d="M2085.366,982.2c-8.94,6.492-6.423,11.24-4.088,14.456h-8.025c2.336-3.216,4.852-7.964-4.087-14.456Z" transform="translate(-1152.675 3895.301)"/></g><g transform="translate(10173 -8646)"><path class="k" d="M2109.767,803.177c-4.363-5.054-9.276,2.118-11.6,5.092-1.577,2.021-7.06,7.385-6.46,10.2.211.987.33.941,1.3,1.2a6.1,6.1,0,0,0,2.993-.111,17.052,17.052,0,0,0,11.561-8.6c.1,1.237.119,2.475.1,3.716a.356.356,0,0,0,.552.29q.721-.47,1.415-.979c1.726-1.275.965-3.082,1.432-5.138A6.443,6.443,0,0,0,2109.767,803.177Z" transform="translate(-11449.845 12726.582)"/><path class="i" d="M2152.312,878.718a4.37,4.37,0,0,1-3.955,0,1.206,1.206,0,0,1,0-2.284,4.376,4.376,0,0,1,3.955,0A1.205,1.205,0,0,1,2152.312,878.718Z" transform="translate(-11461.272 12711.335)"/><path class="i" d="M2153.132,811.912V863.9a.577.577,0,0,1-.043.2.458.458,0,0,1-.405.244h-4.7a.457.457,0,0,1-.4-.244.581.581,0,0,1-.042-.2V811.912a.45.45,0,0,1,.447-.447h4.7A.451.451,0,0,1,2153.132,811.912Z" transform="translate(-11461.272 12724.528)"/><path class="i" d="M2153.132,825.728a.394.394,0,0,1-.051.194.914.914,0,0,1,.051.3,1.377,1.377,0,0,1-.819,1.139,4.363,4.363,0,0,1-3.958,0,1.375,1.375,0,0,1-.818-1.139.913.913,0,0,1,.05-.3.394.394,0,0,1-.05-.194v-8.9a.45.45,0,0,1,.447-.447h4.7a.451.451,0,0,1,.448.447Z" transform="translate(-11461.272 12723.522)"/><path class="l" d="M2157.26,812.367v-9.957l-18.4,11.831,1.23,3.276Z" transform="translate(-11459.498 12726.38)"/><g transform="translate(-9558.621 13416.02)"><path class="i" d="M2038.616,945.2a4.369,4.369,0,0,1-3.955,0,1.206,1.206,0,0,1,0-2.284,4.371,4.371,0,0,1,3.955,0A1.205,1.205,0,0,1,2038.616,945.2Z" transform="translate(-1879.396 -718.281)"/><path class="g" d="M1912.989,927.933c-11.1-6.41-29.1-6.41-40.2,0s-11.1,16.8,0,23.212,29.1,6.41,40.2,0S1924.09,934.343,1912.989,927.933Z" transform="translate(-1844.75 -714.331)"/><path class="g" d="M2089.8,852.313l-147.838-84.079-91.433,54.9a1.644,1.644,0,0,0,.038,2.842L1994.283,907a9.612,9.612,0,0,0,9.734-.093l85.814-51.5A1.793,1.793,0,0,0,2089.8,852.313Z" transform="translate(-1841.738 -682.649)"/><path class="i" d="M2039.435,878.389v51.986a.579.579,0,0,1-.042.2.459.459,0,0,1-.4.245h-4.7a.461.461,0,0,1-.4-.245.579.579,0,0,1-.042-.2V878.389a.451.451,0,0,1,.447-.448h4.7A.45.45,0,0,1,2039.435,878.389Z" transform="translate(-1879.396 -705.089)"/><path class="i" d="M2039.435,887.293a.4.4,0,0,1-.05.194.918.918,0,0,1,.05.3,1.375,1.375,0,0,1-.819,1.139,4.361,4.361,0,0,1-3.958,0,1.377,1.377,0,0,1-.819-1.139.891.891,0,0,1,.051-.3.39.39,0,0,1-.051-.194v-8.9a.451.451,0,0,1,.447-.448h4.7a.45.45,0,0,1,.447.448Z" transform="translate(-1879.396 -705.089)"/><path class="i" d="M1851.431,841.365a4.37,4.37,0,0,1-3.955,0,1.206,1.206,0,0,1,0-2.284,4.369,4.369,0,0,1,3.955,0A1.206,1.206,0,0,1,1851.431,841.365Z" transform="translate(-1841.11 -697.043)"/><path class="i" d="M1852.25,774.559v51.987a.579.579,0,0,1-.042.2.457.457,0,0,1-.4.245h-4.7a.46.46,0,0,1-.405-.245.59.59,0,0,1-.042-.2V774.559a.45.45,0,0,1,.447-.448h4.7A.45.45,0,0,1,1852.25,774.559Z" transform="translate(-1841.11 -683.851)"/><path class="i" d="M1852.25,783.462a.4.4,0,0,1-.05.194.917.917,0,0,1,.05.3,1.375,1.375,0,0,1-.818,1.139,4.362,4.362,0,0,1-3.958,0,1.377,1.377,0,0,1-.818-1.139.9.9,0,0,1,.051-.3.392.392,0,0,1-.051-.194v-8.9a.45.45,0,0,1,.447-.448h4.7a.45.45,0,0,1,.447.448Z" transform="translate(-1841.11 -683.851)"/><path class="l" d="M1843.69,761.735l-.01,11.15,16.6,6.13-.847-6.076Z" transform="translate(-1840.5 -681.32)"/><path class="l" d="M1845.839,756.121l86.208-50.4a19.53,19.53,0,0,1,19.543-.1L2093.9,786.908a5.145,5.145,0,0,1,.021,8.923l-87.608,50.6a19.53,19.53,0,0,1-19.537,0l-140.916-81.408A5.144,5.144,0,0,1,1845.839,756.121Z" transform="translate(-1840.421 -669.318)"/><path class="m" d="M1846.229,744.346l86.208-50.4a19.532,19.532,0,0,1,19.543-.1l142.311,81.282a5.145,5.145,0,0,1,.021,8.923l-87.609,50.6a19.529,19.529,0,0,1-19.536,0l-140.916-81.407A5.145,5.145,0,0,1,1846.229,744.346Z" transform="translate(-1840.5 -666.909)"/><path class="i" d="M1964.636,813.656l-43.763-25.267c-1.986-1.147-1.986-3.006,0-4.152l17.2-9.933a7.947,7.947,0,0,1,7.193,0l43.763,25.267c1.986,1.147,1.986,3.006,0,4.152l-17.2,9.933A7.945,7.945,0,0,1,1964.636,813.656Z" transform="translate(-1855.985 -683.715)"/><path class="i" d="M1919.384,785.658v4.15l48.849,27.206,22.289-12.869v-3.153Z" transform="translate(-1855.985 -686.213)"/><path class="h" d="M1964.636,809.693l-43.763-25.268c-1.986-1.146-1.986-3.005,0-4.152l17.2-9.933a7.952,7.952,0,0,1,7.193,0l43.763,25.268c1.986,1.146,1.986,3.005,0,4.152l-17.2,9.933A7.95,7.95,0,0,1,1964.636,809.693Z" transform="translate(-1855.985 -682.904)"/><path class="h" d="M1977.131,805.406l-42.4-24.481,3.726-2.151,42.4,24.481Z" transform="translate(-1859.124 -684.805)"/><path class="h" d="M1969.1,810.044l-42.4-24.481,3.726-2.151,42.4,24.481Z" transform="translate(-1857.481 -685.754)"/><path class="j" d="M1935.79,781.05l41.558,23.994,2.882-1.664-41.558-23.995Z" transform="translate(-1859.341 -684.931)"/><path class="j" d="M1927.757,785.688l41.558,23.994,2.882-1.665-41.558-23.994Z" transform="translate(-1857.698 -685.879)"/><path class="j" d="M1943.607,775.783l41.558,23.995,2.882-1.665-41.558-23.994Z" transform="translate(-1860.94 -683.854)"/><path class="n" d="M2038.533,819.357c0,2.782-4.246,5.038-9.485,5.038s-9.485-2.256-9.485-5.038,4.247-5.038,9.485-5.038S2038.533,816.575,2038.533,819.357Z" transform="translate(-1876.475 -692.076)"/><ellipse class="h" cx="9.485" cy="5.038" rx="9.485" ry="5.038" transform="translate(143.087 119.746)"/><path class="k" d="M2037.321,906.9l.969-.563c.147-.085.146-.224,0-.31l-.973-.562a.592.592,0,0,0-.536,0l-.968.563a.164.164,0,0,0,0,.31l.973.562a.589.589,0,0,0,.536,0Z" transform="translate(-1879.776 -710.704)"/><path class="i" d="M1998.96,749.255s4.794,13.092,0,15.861l-2.318,1.338-.007,0-9.088,5.249a1.42,1.42,0,0,0,0,2.686l12.766,7.374a5.044,5.044,0,0,0,4.629-.039l6.482-3.833.064.03c.745-.463,1.442-.9,2.068-1.292l.285-.169c.027-.017.045-.036.069-.054,1.314-.825,2.205-1.39,2.205-1.39s4.054-2.969,4.054-13.52Z" transform="translate(-1869.731 -678.767)"/><path class="o" d="M2020.175,758.4c0,10.552-4.055,13.52-4.055,13.52s-.888.561-2.209,1.39a.335.335,0,0,0-.07.058l-.281.164q-.946.6-2.068,1.3l-.071-.036-.748.445-5.726,3.389a5.042,5.042,0,0,1-4.638.035l-12.76-7.373c-1.286-.737-1.286-1.94,0-2.688l5.737-3.319,3.342-1.928h.012c.83-.479,1.624-.935,2.314-1.344,4.685-2.7.233-15.214.011-15.833v-.012h.012Z" transform="translate(-1869.73 -678.136)"/><path class="m" d="M2021.9,758.4c0,10.552-4.054,13.52-4.054,13.52s-.888.561-2.209,1.39a.314.314,0,0,0-.07.058l-.281.164q-.946.6-2.067,1.3l-.071-.036-.748.445-17.387-9.956,3.342-1.928h.012c.83-.479,1.624-.935,2.314-1.344,4.685-2.7.233-15.214.011-15.833l.012-.012Z" transform="translate(-1871.454 -678.136)"/><path class="p" d="M2048.031,700.221l-67.612-39.035c-1.68-.97-2.963-.567-4.431.617l-3.124,1.752,3.36,2.375v52.822a9.271,9.271,0,0,0,4.195,7.266l66.208,38.224v3a.541.541,0,0,0,.847.445l3.175-2.189c.959-.333,1.577-1.338,1.577-2.871V707.5A9.284,9.284,0,0,0,2048.031,700.221Z" transform="translate(-1866.924 -660.643)"/><path class="q" d="M2047.339,710.819v55.132c0,2.682-1.881,3.758-4.195,2.422l-67.612-39.035a9.267,9.267,0,0,1-4.2-7.266V666.941c0-2.682,1.881-3.767,4.2-2.432l67.611,39.034A9.286,9.286,0,0,1,2047.339,710.819Z" transform="translate(-1866.611 -661.317)"/><path class="r" d="M1977.728,725.774V672.688l65.832,38.007v53.086Z" transform="translate(-1867.919 -663.107)"/><path class="i" d="M2047.339,767.5V778.16c0,2.682-1.881,3.758-4.195,2.422l-67.612-39.035a9.267,9.267,0,0,1-4.2-7.266V723.625Z" transform="translate(-1866.611 -673.525)"/><path class="i" d="M2044.893,781.43a4.3,4.3,0,0,1-2.12-.641l-67.612-39.035a9.68,9.68,0,0,1-4.439-7.69v-11.5L2047.7,767v10.939a3.408,3.408,0,0,1-1.472,3.141A2.644,2.644,0,0,1,2044.893,781.43ZM1971.7,724.255v9.809a8.746,8.746,0,0,0,3.95,6.843l67.612,39.034a2.083,2.083,0,0,0,3.461-2V767.569Z" transform="translate(-1866.486 -673.307)"/><path class="s" d="M2015.085,758.406c0,1.621-1.138,2.278-2.542,1.468a5.62,5.62,0,0,1-2.542-4.4c0-1.621,1.139-2.278,2.542-1.468A5.618,5.618,0,0,1,2015.085,758.406Z" transform="translate(-1874.52 -679.668)"/><path class="i" d="M2008.851,700.026l-17.805-10.279v12.685l17.8,10.279Z" transform="translate(-1870.643 -666.595)"/><path class="i" d="M2035.71,715.533l-17.806-10.28v12.685l17.806,10.28Z" transform="translate(-1876.137 -669.768)"/><path class="i" d="M2008.851,721.141l-17.805-10.28v12.684l17.8,10.279Z" transform="translate(-1870.642 -670.914)"/><path class="i" d="M2035.71,736.647l-17.806-10.28v12.684l17.806,10.28Z" transform="translate(-1876.136 -674.086)"/><path class="t" d="M1928.53,777.352c-.018,0-.034.019-.052.038a1.158,1.158,0,0,1-.018-.247A.3.3,0,0,0,1928.53,777.352Z" transform="translate(-1857.841 -684.472)"/><path class="u" d="M1927.4,774.293a.873.873,0,0,1-.662.054c-.024-.057-.011-.119-.044-.174Z" transform="translate(-1857.479 -683.864)"/><path class="u" d="M1931.432,782.661c.121.008.242.033.363.049l-.952-.912C1931.044,782.08,1931.237,782.371,1931.432,782.661Z" transform="translate(-1858.329 -685.424)"/><path class="t" d="M1928.154,771.629c-.018,0-.033.022-.048.042a1.2,1.2,0,0,1-.042-.243A.3.3,0,0,0,1928.154,771.629Z" transform="translate(-1857.76 -683.303)"/><path class="u" d="M1926.72,768.7a.869.869,0,0,1-.655.121c-.028-.054-.022-.118-.06-.168Z" transform="translate(-1857.339 -682.735)"/><path class="k" d="M1921.84,746.8l-.442.044Z" transform="translate(-1856.397 -678.266)"/><path class="v" d="M8.488,8.639c-2.37,2.2-5.705,2.466-7.451.589S-.2,4.043,2.17,1.841,7.875-.625,9.62,1.252,10.857,6.437,8.488,8.639Z" transform="matrix(0.985, -0.174, 0.174, 0.985, 97.199, 122.279)"/><path class="v" d="M.414,8.924h0a1.548,1.548,0,0,1,.08-2.187L7.3.414a1.546,1.546,0,0,1,2.186.08h0a1.546,1.546,0,0,1-.08,2.186L2.6,9A1.548,1.548,0,0,1,.414,8.924Z" transform="matrix(0.985, -0.174, 0.174, 0.985, 98.861, 116.104)"/><path class="w" d="M1873.809,955.57a6.471,6.471,0,0,1,2.927-5.07c1.617-.934,2.927-.177,2.928,1.69a6.469,6.469,0,0,1-2.928,5.07C1875.12,958.193,1873.809,957.436,1873.809,955.57Z" transform="translate(-1846.663 -719.848)"/><path class="w" d="M1873.809,955.57a6.471,6.471,0,0,1,2.927-5.07c1.617-.934,2.927-.177,2.928,1.69a6.469,6.469,0,0,1-2.928,5.07C1875.12,958.193,1873.809,957.436,1873.809,955.57Z" transform="translate(-1846.663 -719.848)"/><path class="w" d="M1879.062,950.414l2.523,1.315-3.96,7.218-2.954-1.537.749-4.065Z" transform="translate(-1846.839 -719.912)"/><path class="i" d="M1876.937,957.192a6.47,6.47,0,0,1,2.927-5.07c1.616-.933,2.927-.177,2.927,1.69a6.472,6.472,0,0,1-2.927,5.07C1878.248,959.816,1876.937,959.059,1876.937,957.192Z" transform="translate(-1847.302 -720.18)"/><path class="j" d="M1876.937,957.192a6.47,6.47,0,0,1,2.927-5.07c1.616-.933,2.927-.177,2.927,1.69a6.472,6.472,0,0,1-2.927,5.07C1878.248,959.816,1876.937,959.059,1876.937,957.192Z" transform="translate(-1847.302 -720.18)"/><path class="w" d="M1918.062,930.835a6.473,6.473,0,0,1,2.927-5.07c1.617-.933,2.927-.177,2.927,1.69a6.468,6.468,0,0,1-2.927,5.07C1919.373,933.459,1918.062,932.7,1918.062,930.835Z" transform="translate(-1855.714 -714.789)"/><path class="w" d="M1918.062,930.835a6.473,6.473,0,0,1,2.927-5.07c1.617-.933,2.927-.177,2.927,1.69a6.468,6.468,0,0,1-2.927,5.07C1919.373,933.459,1918.062,932.7,1918.062,930.835Z" transform="translate(-1855.714 -714.789)"/><path class="w" d="M1923.315,925.68l2.522,1.315-3.96,7.218-2.954-1.537.749-4.065Z" transform="translate(-1855.89 -714.853)"/><path class="i" d="M1921.19,932.458a6.469,6.469,0,0,1,2.927-5.07c1.616-.934,2.927-.177,2.927,1.69a6.474,6.474,0,0,1-2.927,5.07C1922.5,935.082,1921.19,934.325,1921.19,932.458Z" transform="translate(-1856.354 -715.121)"/><path class="j" d="M1921.19,932.458a6.469,6.469,0,0,1,2.927-5.07c1.616-.934,2.927-.177,2.927,1.69a6.474,6.474,0,0,1-2.927,5.07C1922.5,935.082,1921.19,934.325,1921.19,932.458Z" transform="translate(-1856.354 -715.121)"/><path class="w" d="M1915.986,956.661a6.469,6.469,0,0,1,2.927-5.07c1.616-.934,2.927-.177,2.927,1.69a6.47,6.47,0,0,1-2.927,5.07C1917.3,959.286,1915.986,958.528,1915.986,956.661Z" transform="translate(-1855.289 -720.072)"/><path class="w" d="M1915.986,956.661a6.469,6.469,0,0,1,2.927-5.07c1.616-.934,2.927-.177,2.927,1.69a6.47,6.47,0,0,1-2.927,5.07C1917.3,959.286,1915.986,958.528,1915.986,956.661Z" transform="translate(-1855.289 -720.072)"/><path class="w" d="M1921.239,951.506l2.523,1.315-3.96,7.218-2.954-1.537.748-4.065Z" transform="translate(-1855.466 -720.136)"/><path class="i" d="M1919.113,958.285a6.471,6.471,0,0,1,2.927-5.07c1.617-.933,2.927-.177,2.927,1.69a6.47,6.47,0,0,1-2.927,5.07C1920.424,960.908,1919.113,960.151,1919.113,958.285Z" transform="translate(-1855.929 -720.404)"/><path class="j" d="M1919.113,958.285a6.471,6.471,0,0,1,2.927-5.07c1.617-.933,2.927-.177,2.927,1.69a6.47,6.47,0,0,1-2.927,5.07C1920.424,960.908,1919.113,960.151,1919.113,958.285Z" transform="translate(-1855.929 -720.404)"/><path class="w" d="M1873.025,931.754a6.472,6.472,0,0,1,2.927-5.07c1.616-.933,2.927-.177,2.927,1.69a6.468,6.468,0,0,1-2.927,5.07C1874.336,934.377,1873.025,933.62,1873.025,931.754Z" transform="translate(-1846.502 -714.977)"/><path class="w" d="M1873.025,931.754a6.472,6.472,0,0,1,2.927-5.07c1.616-.933,2.927-.177,2.927,1.69a6.468,6.468,0,0,1-2.927,5.07C1874.336,934.377,1873.025,933.62,1873.025,931.754Z" transform="translate(-1846.502 -714.977)"/><path class="w" d="M1878.278,926.6l2.523,1.315-3.96,7.218-2.954-1.537.749-4.065Z" transform="translate(-1846.678 -715.042)"/><path class="i" d="M1876.153,933.377a6.469,6.469,0,0,1,2.927-5.07c1.616-.933,2.927-.177,2.927,1.69a6.47,6.47,0,0,1-2.927,5.07C1877.463,936,1876.153,935.243,1876.153,933.377Z" transform="translate(-1847.142 -715.308)"/><path class="j" d="M1876.153,933.377a6.469,6.469,0,0,1,2.927-5.07c1.616-.933,2.927-.177,2.927,1.69a6.47,6.47,0,0,1-2.927,5.07C1877.463,936,1876.153,935.243,1876.153,933.377Z" transform="translate(-1847.142 -715.308)"/><path class="m" d="M1915.153,942.661l-12.953-7.479,12.953-7.479c2.126-1.227,2.126-3.236,0-4.464h0a8.578,8.578,0,0,0-7.732,0l-12.953,7.479-12.953-7.479a8.578,8.578,0,0,0-7.732,0c-2.126,1.228-2.126,3.237,0,4.464l12.954,7.479-12.954,7.479c-2.126,1.227-2.126,3.237,0,4.464h0a8.578,8.578,0,0,0,7.732,0l12.953-7.479,12.953,7.479a8.578,8.578,0,0,0,7.732,0C1917.28,945.9,1917.28,943.889,1915.153,942.661Z" transform="translate(-1846.332 -714.166)"/><path class="m" d="M1915.153,942.661l-12.953-7.479,12.953-7.479c2.126-1.227,2.126-3.236,0-4.464h0a8.578,8.578,0,0,0-7.732,0l-12.953,7.479-12.953-7.479a8.578,8.578,0,0,0-7.732,0c-2.126,1.228-2.126,3.237,0,4.464l12.954,7.479-12.954,7.479c-2.126,1.227-2.126,3.237,0,4.464h0a8.578,8.578,0,0,0,7.732,0l12.953-7.479,12.953,7.479a8.578,8.578,0,0,0,7.732,0C1917.28,945.9,1917.28,943.889,1915.153,942.661Z" transform="translate(-1846.332 -714.166)"/><path class="i" d="M1892,936.559c0,2.42,2.92,4.381,6.523,4.381s6.524-1.962,6.524-4.381-2.921-6.43-6.524-6.43S1892,934.139,1892,936.559Z" transform="translate(-1850.384 -715.763)"/><path class="m" d="M1894.18,933.343c0,1.776,2.143,3.215,4.786,3.215s4.785-1.44,4.785-3.215-2.142-3.214-4.785-3.214S1894.18,931.569,1894.18,933.343Z" transform="translate(-1850.829 -715.763)"/><path class="i" d="M1899.444,890.8a2.948,2.948,0,0,0-2.928,2.968v28.565a2.928,2.928,0,1,0,5.855,0V893.767A2.948,2.948,0,0,0,1899.444,890.8Z" transform="translate(-1851.308 -707.719)"/><g transform="translate(30.479 92.236)"><g transform="translate(28.787 74.885)"><g transform="translate(0 29.156)"><path class="t" d="M1298.681,1724.268c-2.481-1.95-8.16,1.447-10.885,2.054-1.76.392-8.18.756-7.682,3.807a10.57,10.57,0,0,0-.32,2.338,9.069,9.069,0,0,0,.283,2.977,7.945,7.945,0,0,0,3.767,2.261,4.815,4.815,0,0,0,.508-.06,11.28,11.28,0,0,0,3.371-1.583c3.36-2.059,8.394-3.867,10.921-6.98C1299.772,1727.693,1300.087,1725.373,1298.681,1724.268Z" transform="translate(-1279.783 -1723.671)"/></g><g transform="translate(1.143 25.323)"><path class="x" d="M3.451,0H8.775a3.451,3.451,0,0,1,3.451,3.451v0A3.449,3.449,0,0,1,8.776,6.9H3.452A3.452,3.452,0,0,1,0,3.451v0A3.451,3.451,0,0,1,3.451,0Z" transform="translate(0 12.225) rotate(-89.292)"/></g><g transform="translate(0.111 0)"><path class="t" d="M1280.069,1688.907l-.154,29.467a4.056,4.056,0,0,0,3.716,3.46l2.02.148a4.057,4.057,0,0,0,4.35-4.24l3.615-28.835Z" transform="translate(-1279.915 -1688.907)"/></g></g><g transform="translate(0.026 56.452)"><g transform="translate(0)"><path class="w" d="M1312.818,1676.967a13.316,13.316,0,0,0-12.9-10.038c-.364,0-.727.016-1.1.049l-.573.048-3.061,1.308-17.456,7.491a24.394,24.394,0,0,1-24.116-2.8l-2.659-1.964-5.468-4.038V1683.1a10.047,10.047,0,0,0,4.861,8.609l8.165,4.918,9.514,5.726a12.447,12.447,0,0,0,13.01-.1l28.847-17.993A6.677,6.677,0,0,0,1312.818,1676.967Z" transform="translate(-1245.49 -1666.929)"/></g></g><g transform="translate(4.891 1.065)"><g transform="translate(0)"><path class="u" d="M1298.14,1623.826c-2.192,1.632-13.384,9.884-18.487,12.189a21.4,21.4,0,0,1-8.873,1.915,18.7,18.7,0,0,1-6.429-1.141,13.7,13.7,0,0,1-8.1-7.274,12.026,12.026,0,0,1-.759-2.412l-4.122-20.347c-.5-2.451,1.506-5,4.469-5.693s5.779.735,6.277,3.193l4.122,20.347c.006.013,0,.026.01.039a5,5,0,0,0,3.336,3.621,7.738,7.738,0,0,0,5.793-.294c2.816-1.273,11.111-7.072,16.1-10.789,2.379-1.77,5.8-1.713,7.64.125S1300.519,1622.063,1298.14,1623.826Z" transform="translate(-1251.29 -1600.889)"/></g></g><g transform="translate(0 0)"><g transform="translate(0)"><path class="y" d="M1287.2,1663.862a6.236,6.236,0,0,1-4.143,6.065c-1.519.541-4.046,1.4-6.041,1.874a13.29,13.29,0,0,1-1.574.283,26.636,26.636,0,0,1-16.677-3.8l-10.983-6.4a4.7,4.7,0,0,1-2.318-4.159l1.155-45.588a13.257,13.257,0,0,1,6.582-11.435,10.414,10.414,0,0,1,5.136-1.082,22.407,22.407,0,0,1,2.867.194c5.04.606,10.652,2.7,13.543,4.717,2.843,1.8,6.372,2.971,8.649,5.217a7.618,7.618,0,0,1,2.35,5.516C1285.792,1616.869,1287.2,1663.862,1287.2,1663.862Z" transform="translate(-1245.459 -1599.619)"/></g><g class="z" transform="translate(29.102 13.916)"><path class="y" d="M1284.03,1618.683a.682.682,0,0,1-.3.325,24.968,24.968,0,0,0-.387,4.672c-.016,2.924.113,5.935-.92,8.674-.63,1.663-1.68,3.174-2.076,4.91-.953,4.135,1.93,8.092,2.762,12.243.921,4.619-.719,9.311-1.155,14a42.873,42.873,0,0,0,.654,10.975c2-.469,4.522-1.333,6.041-1.874a6.236,6.236,0,0,0,4.143-6.065s-1.3-43.453-1.443-48.213C1289.213,1615.955,1285.693,1614.956,1284.03,1618.683Z" transform="translate(-1280.159 -1616.212)"/></g></g><g transform="translate(33.876 12.826)"><g transform="translate(0 0)"><path class="u" d="M1326.241,1642.53c-1.607,2.01-9.823,12.177-13.737,15.033a11.965,11.965,0,0,1-7.04,2.416,11.592,11.592,0,0,1-5.389-1.334,16.167,16.167,0,0,1-7.458-8.8,21.476,21.476,0,0,1-.9-2.936l-5.69-24.784c-.688-2.986.663-6.115,3.007-6.985s4.812.845,5.5,3.839l5.69,24.785c.007.016.007.032.013.048a6.456,6.456,0,0,0,3.14,4.386,4.378,4.378,0,0,0,4.707-.41c2.158-1.578,8.285-8.726,11.945-13.3a3.8,3.8,0,0,1,6.264.083A6.759,6.759,0,0,1,1326.241,1642.53Z" transform="translate(-1285.851 -1614.912)"/></g></g><g transform="translate(52.684 66.49)"><g transform="translate(0 47.935)"><path class="w" d="M1328.753,1736.7c-2.688-2.113-8.841,1.568-11.793,2.225-1.908.425-8.863.82-8.325,4.127a11.423,11.423,0,0,0-.346,2.533,9.849,9.849,0,0,0,.306,3.227,8.611,8.611,0,0,0,4.083,2.45,5.218,5.218,0,0,0,.55-.065,12.241,12.241,0,0,0,3.653-1.715c3.641-2.232,9.1-4.191,11.834-7.564C1329.936,1740.412,1330.276,1737.9,1328.753,1736.7Z" transform="translate(-1308.276 -1736.052)"/></g><g transform="translate(1.241 43.783)"><rect class="w" width="7.479" height="13.247" rx="3.74" transform="translate(7.479 13.336) rotate(-179.314)"/></g><g transform="translate(0.12)"><path class="w" d="M1309.237,1680.092l-.818,47.077a4.394,4.394,0,0,0,4.027,3.749l2.188.161a4.4,4.4,0,0,0,4.714-4.594l3.621-47.587Z" transform="translate(-1308.419 -1678.898)"/></g></g><g transform="translate(31.102 12.488)"><g transform="translate(0 0)"><path class="w" d="M1303.517,1643.158l-7.052-23.649a6.922,6.922,0,0,0-3.4-4.144,7.215,7.215,0,0,0-5.405-.575,7.036,7.036,0,0,0-4.235,3.324,6.753,6.753,0,0,0-.593,5.277l7.071,23.727a18.748,18.748,0,0,0,1.214,3.059l.3.585a.819.819,0,0,0,.986.4l.634-.209c.366-.121.739-.258,1.078-.4a28.074,28.074,0,0,0,9.029-5.746l.4-.379a.78.78,0,0,0,.161-.917Z" transform="translate(-1282.543 -1614.509)"/></g></g></g><path class="aa" d="M1947.84,876.447c0,.16,0,.329-.017.5a14.561,14.561,0,0,1-7.51,11.663l-31.934,17.511a8.479,8.479,0,0,1-1.511.65,8.718,8.718,0,0,1-7.131-.776l-36.576-21.554a19.964,19.964,0,0,1-9.74-15.343l-3.831-41-.4-4.262a4.552,4.552,0,0,1,6.549-4.506l39.589,19.587a4.553,4.553,0,0,1,2.3,2.65l12.659,38.416a5.285,5.285,0,0,0,7.638,2.937l20.659-11.815A6.182,6.182,0,0,1,1947.84,876.447Z" transform="translate(-1849.172 -705.582)"/><path class="w" d="M1905.872,906.408a2.538,2.538,0,0,1-2.738,3.408,8.7,8.7,0,0,1-3.215-1.122l-36.576-21.554A19.962,19.962,0,0,1,1853.6,871.8l-3.527-37.748a1.823,1.823,0,0,1,2.623-1.8l31.945,15.795a4.571,4.571,0,0,1,2.3,2.658l12.651,38.416C1900.035,890.453,1902.709,898.11,1905.872,906.408Z" transform="translate(-1849.355 -708.284)"/><g transform="matrix(-0.996, 0.087, -0.087, -0.996, 67.592, 86.691)"><g transform="translate(0 0)"><path class="u" d="M21.21,12.128c-.112-3.117-.646-6.193-2.473-8.48C16.727,1.1,13.481.085,10.4,0A9.241,9.241,0,0,0,5.438,1.1C2.6,2.8,1.269,6.461.55,9.922a29.078,29.078,0,0,0-.535,3.987,14.83,14.83,0,0,0,.443,4.514A12.984,12.984,0,0,0,6.139,25.83a20.463,20.463,0,0,0,8.633,2.732,6.924,6.924,0,0,0,4.335-.526,3.692,3.692,0,0,0,1.753-2.429,2.833,2.833,0,0,0,.037-1.114c.092-2.833.184-5.647.277-8.48C21.21,14.738,21.247,13.443,21.21,12.128Z"/></g></g><g transform="translate(48.725 78.227) rotate(9)"><g transform="translate(0 0)"><path class="u" d="M11.543,5.4V17.581h-.066A3.761,3.761,0,0,1,9.6,19.93a7.512,7.512,0,0,1-3.83.955c-2.942,0-5.306-1.409-5.7-3.3H0V5.4A5.238,5.238,0,0,1,1.689,1.582,5.929,5.929,0,0,1,5,.041C5.305.024,5.628,0,5.956,0A6.485,6.485,0,0,1,7.926.371,5.663,5.663,0,0,1,9.96,1.7,5.2,5.2,0,0,1,11.543,5.4Z"/></g></g><g transform="translate(38.401 53.708)"><g transform="translate(0.268 0)"><path class="t" d="M693.139,992.3c0,8.632-6.019,15.622-13.463,15.622a12.138,12.138,0,0,1-7.908-2.985,16.483,16.483,0,0,1-5.545-12.637,18,18,0,0,1,.293-3.24,17.417,17.417,0,0,1,1.625-4.816,14.66,14.66,0,0,1,5.111-5.68,12.058,12.058,0,0,1,6.424-1.886c.283,0,.575.011.858.033a11.984,11.984,0,0,1,5.161,1.6C690.109,980.873,693.139,986.177,693.139,992.3Z" transform="translate(-666.224 -976.68)"/></g><g transform="translate(3.933 4.751)"><path class="u" d="M698.621,996.959c0,8.066-6.272,14.6-14.019,14.6a13.552,13.552,0,0,1-8.241-2.79,14.792,14.792,0,0,1-5.767-11.814c0-8.076,6.272-14.614,14.008-14.614.293,0,.6.011.889.032A14.356,14.356,0,0,1,698.621,996.959Z" transform="translate(-670.594 -982.345)"/></g><g transform="translate(2.276 3.034)"><path class="t" d="M674.67,992.748a5.2,5.2,0,0,1,1.175-2.516l1.006-1.073c.034-.036.071-.061.106-.1.288-3.433,2.414-7.168,5.142-8.767l-4.856,1.718-1.388,2.264V981.66A15.347,15.347,0,0,0,668.618,992h5.155v.748Z" transform="translate(-668.618 -980.297)"/></g><g transform="translate(0 0.566)"><path class="t" d="M699.948,980.5c.146-2.442-.885-3.985-4.2-2.657-7.262,2.912-15.08-1.574-22.245,1.827-8.617,4.089-9.4,16.016-4.89,24.325,1.8,3.321,4.854,7.725,8.441,7.393,6.79-.631,10.224-6.512,14.1-15.932,1.2-2.91,2.529-3.134,4.452-4.966C697.375,988.806,699.749,983.822,699.948,980.5Z" transform="translate(-665.905 -977.355)"/></g><g transform="translate(18.808 15.84)"><path class="u" d="M696.691,1000.021a4.189,4.189,0,1,1-4.18-4.454A4.324,4.324,0,0,1,696.691,1000.021Z" transform="translate(-688.33 -995.567)"/></g></g></g></g><g transform="translate(9864 -8149)"><g transform="translate(-9195.632 12805.693)"><path class="ab" d="M2292.8,354.213l-179.08-104.058c-3.3-2.108-6.144-.67-6.355,3.209l-.881,16.231-6.7,123.308a13.354,13.354,0,0,0,5.591,10.842L2284.457,507.8c3.3,2.108,6.144.671,6.354-3.209l6.7-123.308.881-16.231A13.352,13.352,0,0,0,2292.8,354.213Z" transform="translate(-2092.226 -249.183)"/><path class="ac" d="M2285.14,399.244l-6.7,123.305c-.21,3.884-3.056,5.316-6.354,3.213L2170.8,466.91l-77.8-45.211a13.344,13.344,0,0,1-5.592-10.836l6.7-123.311,83.995,49.108Z" transform="translate(-2087.402 -264.145)"/><path class="p" d="M2290.309,369.966l-.874,16.145-.007.085-107.033-62.585L2098.4,274.5l.079-1.432.8-14.8c.21-3.877,3.056-5.316,6.354-3.207l179.083,104.058A13.353,13.353,0,0,1,2290.309,369.966Z" transform="translate(-2091.69 -251.098)"/><path class="ad" d="M2392.842,440.585a5.838,5.838,0,0,0,2.542,4.69c1.462.892,2.692.239,2.75-1.46a5.839,5.839,0,0,0-2.542-4.689C2394.131,438.234,2392.9,438.887,2392.842,440.585Z" transform="translate(-2359.511 -413.098)"/><path class="ae" d="M2377.11,430.983a5.839,5.839,0,0,0,2.541,4.689c1.462.892,2.692.238,2.75-1.46a5.839,5.839,0,0,0-2.541-4.689C2378.4,428.631,2377.167,429.284,2377.11,430.983Z" transform="translate(-2353.375 -409.353)"/><g class="af" transform="translate(11.15 42.357)"><path class="a" d="M2361.378,421.38a5.841,5.841,0,0,0,2.542,4.689c1.461.892,2.691.238,2.749-1.46a5.835,5.835,0,0,0-2.541-4.689C2362.666,419.028,2361.436,419.681,2361.378,421.38Z" transform="translate(-2358.391 -447.965)"/><path class="ag" d="M2167.861,359.973l-62.181-35.9v-5.457l62.181,35.9Z" transform="translate(-2105.68 -318.617)"/><path class="ag" d="M2153.065,429.6l-47.385-27.358v-5.457l47.385,27.358Z" transform="translate(-2105.679 -349.098)"/><path class="ag" d="M2153.065,429.6l-47.385-27.358v-5.457l47.385,27.358Z" transform="translate(-1982.901 -285.92)"/><path class="ag" d="M2165.192,452.229l-47.385-27.358v-5.457l47.385,27.358Z" transform="translate(-2110.409 -357.924)"/><path class="ag" d="M2177.319,474.864l-47.386-27.358v-5.457l47.386,27.358Z" transform="translate(-2115.137 -366.75)"/><path class="ag" d="M2189.445,497.5,2142.06,470.14v-5.457l47.385,27.358Z" transform="translate(-2119.866 -375.577)"/><path class="ag" d="M2218.143,529.7l-76.083-43.928v-5.457l76.083,43.927Z" transform="translate(-2119.865 -381.673)"/><path class="ag" d="M2218.143,529.7l-76.083-43.928v-5.457l76.083,43.927Z" transform="translate(-2038.808 -421.01)"/><path class="ag" d="M2200.283,535.021l-58.224-33.615v-5.457l58.224,33.615Z" transform="translate(-2119.866 -387.769)"/><path class="ag" d="M2176.031,536.652l-58.224-33.615v-5.457l58.224,33.615Z" transform="translate(-2110.409 -388.405)"/><path class="ag" d="M2234.66,398.54l-17.868-10.317v-5.456l17.868,10.316Z" transform="translate(-2149.008 -343.633)"/><path class="ag" d="M2186.266,386.233l-62.18-35.9v-5.457l62.18,35.9Z" transform="translate(-2112.856 -328.857)"/><path class="ag" d="M2207.137,413.916l-62.18-35.9v-5.457l62.18,35.9Z" transform="translate(-2120.996 -339.652)"/><path class="ag" d="M2207.137,429.549l-62.18-35.9v-5.457l62.18,35.9Z" transform="translate(-2120.996 -345.748)"/><path class="ag" d="M2207.137,429.549l-62.18-35.9v-5.457l62.18,35.9Z" transform="translate(-2048.283 -317.14)"/><path class="ag" d="M2146,409.8l-21.914-12.652v-4.994L2146,404.807Z" transform="translate(-2112.857 -347.293)"/><path class="a" d="M2265.928,493.979a10.067,10.067,0,0,1-.041,1.033,1.029,1.029,0,0,1-.131.471.14.14,0,0,1-.218.02,2.027,2.027,0,0,1-.335-.339l-10.479-13.008a1.813,1.813,0,0,1-.28-.772,8.983,8.983,0,0,1-.089-1.445q0-.474.028-.813a4.673,4.673,0,0,1,.068-.544.7.7,0,0,1,.116-.3.287.287,0,0,1,.17-.111l10.465-.88a.539.539,0,0,1,.562.424,5.072,5.072,0,0,1,.163,1.543q0,.747-.021,1.172a3.462,3.462,0,0,1-.076.649.424.424,0,0,1-.149.278.655.655,0,0,1-.26.069l-7.869.375,7.719,9.229a4.747,4.747,0,0,1,.335.448,1.578,1.578,0,0,1,.2.506,4.974,4.974,0,0,1,.1.766Q2265.928,493.215,2265.928,493.979Z" transform="translate(-2169.522 -371.171)"/><path class="a" d="M2285.245,503.383a.583.583,0,0,1-.177.28.419.419,0,0,1-.308.059,1.918,1.918,0,0,1-.491-.147,7.066,7.066,0,0,1-.745-.385,8,8,0,0,1-.915-.6,2.836,2.836,0,0,1-.54-.53,1.039,1.039,0,0,1-.211-.5,1.214,1.214,0,0,1,.054-.506l8.17-25.868a.565.565,0,0,1,.164-.3.391.391,0,0,1,.3-.072,1.8,1.8,0,0,1,.5.151,7.485,7.485,0,0,1,.744.384,7.987,7.987,0,0,1,.923.605,2.707,2.707,0,0,1,.526.522,1.051,1.051,0,0,1,.205.492,1.459,1.459,0,0,1-.041.514Z" transform="translate(-2183.961 -369.87)"/><path class="a" d="M2321.59,511.919q0,.474-.028.8a3.934,3.934,0,0,1-.075.539.748.748,0,0,1-.123.3.213.213,0,0,1-.17.093l-10.479.872a.477.477,0,0,1-.329-.08.7.7,0,0,1-.225-.331,2.3,2.3,0,0,1-.123-.608q-.035-.374-.034-.921,0-.747.021-1.172a3.536,3.536,0,0,1,.075-.649.476.476,0,0,1,.149-.287.456.456,0,0,1,.26-.059l7.87-.375-7.719-9.229a3.99,3.99,0,0,1-.348-.456,1.544,1.544,0,0,1-.2-.506,4.382,4.382,0,0,1-.088-.762q-.022-.458-.021-1.223,0-.674.034-1.037a.993.993,0,0,1,.123-.476c.06-.075.134-.08.225-.016a1.837,1.837,0,0,1,.329.335l10.492,13.035a1.69,1.69,0,0,1,.28.745A8.068,8.068,0,0,1,2321.59,511.919Z" transform="translate(-2198.747 -381.152)"/><path class="a" d="M2505.713,500.263l.027-.011.038-.015C2506.284,500.072,2504.793,501.152,2505.713,500.263Z" transform="translate(-2355.506 -389.435)"/></g><g class="af" transform="translate(135.048 184.175)"><path class="ah" d="M1397.16,428.141c1.593,8.184-3.884,12.8-9.723,12.887s-10.952-5.552-11.421-12.586,3.885-12.8,9.723-12.887S1395.813,421.221,1397.16,428.141Z" transform="translate(-1375.235 -413.552)"/><path class="a" d="M1462.113,539.951l-2.171,2.817-4.828-9.826,2.608-1.926Z" transform="translate(-1438.609 -506.019)"/><path class="a" d="M1479.885,579.357l0,0-5.986-11.647h0c-.165-.492-.728-.781-1.609-.729a6.192,6.192,0,0,0-4.276,2.438,1.425,1.425,0,0,0-.215,1.6h0l1.4,2.73h0l5.938,11.58,6.149-3.239Z" transform="translate(-1448.642 -534.815)"/><path class="a" d="M1510.467,641.508c1.375-.177,1.686.569.693,1.666a8.158,8.158,0,0,1-4.289,2.306c-1.376.177-1.686-.569-.693-1.666A8.16,8.16,0,0,1,1510.467,641.508Z" transform="translate(-1479.037 -594.485)"/><path class="a" d="M1391.178,413.771c-5.784-3.227-11.965-.315-13.807,6.505s1.353,14.965,7.136,18.193,11.965.315,13.807-6.505S1396.962,417,1391.178,413.771Zm6.452,17.483a8.554,8.554,0,0,1-12.62,5.356c-4.913-2.742-7.627-9.66-6.062-15.453s7.262-9.059,12.174-6.317S1399.195,425.461,1397.63,431.254Z" transform="translate(-1375.931 -411.07)"/><path class="a" d="M1424.1,422.327c.013-.15.025-.3.033-.45,0-.027,0-.054,0-.081,0-.071.005-.143.008-.215,0-.087.008-.174.01-.261,0-.048,0-.1,0-.145,0-.078,0-.156,0-.233,0-.06,0-.12,0-.18s0-.144-.007-.216,0-.156-.007-.234c0-.038,0-.077,0-.115,0-.1-.013-.2-.02-.307,0-.066-.007-.133-.012-.2,0-.019,0-.038,0-.056q-.022-.275-.052-.55v-.006c0-.017,0-.033-.006-.05q-.028-.243-.062-.485c0-.026-.008-.051-.012-.076-.009-.061-.02-.122-.029-.183-.014-.087-.026-.174-.041-.26-.01-.055-.021-.111-.031-.166s-.025-.134-.038-.2c-.01-.049-.018-.1-.028-.148-.02-.1-.043-.2-.065-.293-.011-.052-.022-.1-.034-.156l-.012-.056q-.06-.256-.128-.511l-.006-.022c-.013-.049-.028-.1-.041-.146-.036-.131-.072-.261-.111-.391-.006-.021-.013-.04-.02-.061-.032-.107-.068-.212-.1-.318-.028-.085-.053-.17-.082-.255-.005-.015-.012-.03-.017-.045-.094-.274-.2-.545-.3-.812-.009-.023-.017-.046-.026-.069-.028-.068-.058-.134-.086-.2-.046-.11-.092-.22-.141-.328s-.087-.192-.132-.287-.1-.214-.152-.32c-.017-.035-.032-.071-.05-.105-.041-.083-.085-.165-.128-.248-.029-.057-.058-.114-.088-.17q-.141-.265-.29-.524l0,0h0l0,0q-.171-.295-.353-.581c-.005-.008-.01-.017-.016-.026-.088-.139-.18-.275-.273-.411l-.055-.083,0,0q-.166-.24-.339-.472l-.018-.023c-.035-.047-.072-.093-.108-.14-.074-.1-.147-.193-.222-.287l-.044-.052c-.051-.063-.1-.125-.156-.187s-.114-.139-.173-.207c-.022-.025-.045-.049-.067-.074-.058-.065-.116-.129-.175-.193s-.1-.112-.15-.166c-.029-.031-.059-.06-.088-.09-.064-.066-.128-.132-.193-.2-.045-.045-.089-.092-.134-.137s-.073-.067-.109-.1c-.065-.063-.132-.125-.2-.186-.04-.037-.08-.076-.12-.113s-.09-.076-.135-.115c-.066-.058-.132-.115-.2-.171-.034-.029-.068-.06-.1-.088-.056-.046-.115-.09-.171-.135s-.125-.1-.189-.149l-.076-.06c-.077-.058-.157-.113-.235-.17-.054-.039-.107-.079-.162-.117l-.041-.03c-.143-.1-.288-.194-.435-.286l0,0-.033-.02q-.2-.125-.4-.242l-.1-.058q-.167-.093-.335-.18c-.042-.022-.085-.041-.128-.063l-.173-.085c-.045-.022-.09-.045-.135-.066-.073-.033-.145-.063-.217-.095l-.156-.068-.064-.028q-.218-.089-.436-.167h0q-.222-.08-.444-.148l-.058-.016c-.053-.016-.107-.031-.161-.046-.076-.021-.153-.045-.229-.064-.038-.01-.076-.017-.114-.026-.066-.016-.133-.031-.2-.046-.051-.011-.1-.025-.154-.035s-.108-.019-.162-.029l-.2-.036c-.036-.006-.071-.014-.107-.019-.064-.01-.127-.015-.191-.023-.079-.01-.158-.021-.236-.029l-.083-.01c-.066-.006-.131-.008-.2-.012-.085-.006-.17-.012-.255-.016l-.075,0c-.058,0-.116,0-.173,0-.1,0-.2,0-.306,0h-.086c-.113,0-.226.01-.338.018l-.042,0c-.086.007-.171.014-.256.023-.054.006-.107.014-.161.021l-.121.016c-.148.021-.295.045-.441.074l-.013,0c-.04.008-.078.018-.118.027-.122.026-.243.053-.364.085-.059.015-.117.033-.175.05-.077.022-.155.042-.232.067l-.058.021c-.118.039-.235.082-.351.125-.057.021-.114.041-.171.063-.172.069-.342.142-.509.223l-2.74,1.312c.168-.08.338-.154.509-.222.056-.023.114-.042.171-.063.117-.044.234-.087.352-.125.1-.031.192-.059.289-.087.058-.017.117-.035.175-.05.12-.031.242-.059.364-.085.04-.009.078-.019.118-.027.15-.03.3-.055.454-.077l.122-.016c.138-.018.276-.033.416-.044l.044,0c.14-.01.281-.015.423-.018.1,0,.2,0,.306,0,.083,0,.165,0,.248,0s.17.01.256.016.186.013.28.022c.078.008.157.018.235.029.1.013.2.026.3.042l.2.036c.105.02.211.041.317.064l.2.046c.114.028.228.058.342.09l.162.046c.167.05.335.1.5.165h0c.166.06.333.126.5.2l.155.068c.117.051.235.1.352.161l.173.085c.154.077.309.156.463.242.172.1.34.2.507.3l.031.018c.163.1.322.209.481.319.054.038.107.077.161.116.1.075.21.152.313.231.063.048.126.1.188.148.093.073.184.148.275.224.067.056.133.113.2.17q.129.113.255.229.1.092.2.186.122.118.243.239c.064.065.129.13.193.2.08.084.16.17.239.256.058.064.118.128.175.194.081.092.16.185.239.279.052.063.106.124.157.188.09.111.179.225.266.339.036.047.073.092.108.14q.185.246.36.5l.053.08c.1.145.2.291.29.439q.18.283.35.576l.006.01h0c.1.173.2.349.292.527l.088.17q.091.175.178.353c.052.106.1.213.151.32s.089.191.132.288.094.218.14.327c.038.09.076.18.112.271q.161.4.3.812c.034.1.066.2.1.3s.07.212.1.318c.045.149.088.3.13.449.014.05.029.1.042.148q.078.293.146.588c.012.052.023.1.034.156q.049.22.093.441.02.1.038.2.039.212.073.426c.01.061.02.122.029.183.028.188.053.376.075.564,0,.015,0,.031.006.046q.034.306.057.613c.005.067.008.133.012.2q.014.21.023.421c0,.078,0,.157.007.235q.006.2.006.394c0,.078,0,.156,0,.234q0,.2-.011.408c0,.071,0,.142-.008.214q-.014.266-.036.532c0,.026,0,.052-.006.078q-.027.3-.066.606c-.007.057-.016.114-.024.172q-.03.217-.066.432c-.011.069-.024.139-.037.208q-.037.2-.081.407c-.014.066-.027.131-.042.2-.044.193-.09.385-.141.576s-.113.4-.174.591c-.017.055-.037.109-.055.163-.044.133-.089.265-.137.395-.027.075-.056.149-.085.223-.043.11-.086.219-.131.327-.033.079-.067.158-.1.235q-.066.148-.135.294t-.127.259c-.044.087-.089.174-.135.259q-.081.151-.165.3c-.044.077-.088.152-.133.227-.071.117-.144.232-.219.345-.047.071-.092.143-.14.212l-.073.1q-.125.177-.255.346l-.051.066q-.166.211-.339.41l0,0q-.174.2-.355.384l-.074.073q-.138.138-.279.27l-.114.1c-.089.08-.178.157-.269.233l-.1.087c-.124.1-.249.2-.377.289l-.055.038q-.167.119-.337.229l-.125.078c-.1.06-.194.118-.293.174l-.122.069c-.136.075-.274.147-.414.214l2.74-1.312c.14-.067.277-.139.414-.214l.122-.069q.148-.084.293-.174l.125-.078q.171-.11.338-.229l.054-.038c.127-.092.253-.189.377-.289l.1-.087q.136-.113.269-.232l.114-.1c.095-.088.187-.178.279-.27l.074-.074.022-.022q.169-.176.333-.362l0,0q.163-.186.318-.383l.021-.027.051-.067q.13-.169.255-.345l.073-.1c.018-.026.037-.051.054-.077.03-.044.057-.091.086-.135.074-.113.148-.228.219-.345.019-.031.039-.06.058-.092s.05-.091.075-.135q.085-.146.165-.3c.022-.041.046-.08.068-.121s.045-.092.067-.137c.043-.085.086-.171.127-.259.021-.045.044-.088.065-.133s.046-.108.07-.161c.035-.078.069-.156.1-.235.017-.04.036-.079.052-.12.027-.068.052-.138.079-.207s.058-.148.085-.223c.011-.03.023-.059.034-.089.036-.1.068-.2.1-.305.018-.055.037-.108.054-.163,0-.014.009-.027.013-.04q.081-.256.153-.52l.008-.031q.065-.241.122-.485c.007-.03.013-.061.019-.092.015-.065.029-.131.042-.2s.034-.154.05-.231c.012-.059.021-.118.031-.177s.025-.138.037-.207c.008-.046.017-.091.024-.136.016-.1.028-.2.042-.3.008-.057.017-.114.024-.171,0-.019.006-.038.008-.057q.034-.268.057-.537s0-.008,0-.012C1424.095,422.38,1424.1,422.354,1424.1,422.327Z" transform="translate(-1398.738 -405.498)"/><path class="a" d="M1387.3,411.116a9.537,9.537,0,0,0-8.535-.653,10.83,10.83,0,0,0-6,7.469c-1.882,6.965,1.4,15.317,7.314,18.618a10.214,10.214,0,0,0,5.287,1.37,8.9,8.9,0,0,0,3.248-.717,10.83,10.83,0,0,0,6-7.469C1396.495,422.768,1393.214,414.416,1387.3,411.116Zm5.95,18.135a9.53,9.53,0,0,1-5.277,6.571,7.831,7.831,0,0,1-2.858.631,8.99,8.99,0,0,1-4.652-1.205c-5.2-2.9-8.091-10.253-6.435-16.382a9.53,9.53,0,0,1,5.277-6.571,8.391,8.391,0,0,1,7.51.574C1392.017,415.773,1394.9,423.122,1393.249,429.25Z" transform="translate(-1372.236 -408.897)"/></g></g></g></g></svg>