<svg xmlns="http://www.w3.org/2000/svg" width="89.817" height="273.78" viewBox="0 0 89.817 273.78"><defs><style>.a{fill:#647ddd;opacity:0.17;}.b{fill:#ff8358;}.c{fill:#4568c7;}.d{fill:#1f3598;}.e{fill:#e2e8f2;}.f{fill:#a0d2ff;}.g{fill:#3772ce;}</style></defs><g transform="translate(8675.359 -8967.117)"><path class="a" d="M1150.534,742.275c-15.549-8.977-40.76-8.977-56.31,0s-15.55,23.534,0,32.512,40.761,8.978,56.31,0S1166.084,751.253,1150.534,742.275Z" transform="translate(-9747.738 8459.377)"/><g transform="translate(-9747.738 8459.377)"><path class="b" d="M1152.27,657.566l-6.63-31.91-.023-.084a21.623,21.623,0,0,1,.492-10.67,101.489,101.489,0,0,0-12.184-7.415l-.367,1.015-.221.608a35.552,35.552,0,0,0-1.9,8.229,73.078,73.078,0,0,1,.113,8.531c.11.851.241,1.7.418,2.54l6.643,31.993a6.985,6.985,0,0,0,6.18,5.522,6.819,6.819,0,0,0,2.073-.117A6.97,6.97,0,0,0,1152.27,657.566Z"/><path class="c" d="M1147.691,609.808l-7.43-47.175a8.214,8.214,0,0,0-16.177,2.859l7.649,44.268-1.451-.279a63.082,63.082,0,0,1,1.241,16.967l.95.183a12.2,12.2,0,0,0,11.933-1.876q.244-.194.476-.4C1148.159,621.479,1148.452,614.115,1147.691,609.808Z"/></g><g transform="translate(-9747.738 8459.377)"><path class="d" d="M1121.01,738.021a4.127,4.127,0,0,0-3.612,2.707,12.134,12.134,0,0,0-.636,4.72c0,1.4.06,2.961,1.057,3.943a5.324,5.324,0,0,0,2.427,1.128,28.517,28.517,0,0,0,4.981,1.035c1.917.165,3.86-.058,5.762.232,1.212.184,2.382.574,3.576.854a20.378,20.378,0,0,0,10.281-.264,3.851,3.851,0,0,0,2-1.1,2.9,2.9,0,0,0-.283-3.536,8.49,8.49,0,0,0-3.18-2.093l-10.513-4.827c-3.437-1.578-6.995-3.186-10.776-3.273-1.209-.028-2.8.52-2.692,1.724Z"/></g><g transform="translate(-9747.738 8459.377)"><rect class="e" width="8.776" height="15.543" rx="4.215" transform="translate(1120.439 728.065) rotate(4.649)"/></g><g transform="translate(-9747.738 8459.377)"><path class="d" d="M1108.216,757.133c.664,1.214,1.354,2.413,2,3.62a29.436,29.436,0,0,1,1.8,3.777c.708,1.943,2.041,5.725.366,7.489-2.522,2.656-6.636.381-8.686-1.494a81.856,81.856,0,0,1-8.48-9.033,11.074,11.074,0,0,1-2.554-4.6c-1.05-5.333,2.074-12.9,8.623-11.125,2.391.647,3.41,2.324,3.977,4.5A30.483,30.483,0,0,0,1108.216,757.133Z"/></g><g transform="translate(-9747.738 8459.377)"><rect class="e" width="8.776" height="15.543" rx="4.215" transform="translate(1095.439 739.029)"/></g><g transform="translate(-9747.738 8459.377)"><path class="c" d="M1118.187,606.569l-22.157,7.681-8.852,10.11,2.647,63.723,3.081,55.63a5.3,5.3,0,0,0,5.3,5.3h3.644a5.3,5.3,0,0,0,5.281-4.855l5.579-66.423-.211-25.166,6.658-3.921,7.315,44.9-7.688,39.143a5.158,5.158,0,0,0,5.531,5.391l2.567-.189a5.158,5.158,0,0,0,4.725-4.4l14.587-38.739a25.56,25.56,0,0,0,1.178-12.056l-10.482-66.23Z"/></g><g transform="translate(-9747.738 8459.377)"><path class="f" d="M1136.9,562.871l5.376,54.019a10.894,10.894,0,0,1-6.465,11.057l-14.357,6.3a33.8,33.8,0,0,1-21.2,4.836,33.42,33.42,0,0,1-7.626-1.714l-5.444-1.934,2.017-68.638a11.671,11.671,0,0,1,3.178-7.6,10.97,10.97,0,0,1,2.542-2.073l4.863-3.067,1.354-.857c3.676-2.569,10.8-5.222,17.215-6a28.211,28.211,0,0,1,3.648-.248,13.192,13.192,0,0,1,6.522,1.381A16.836,16.836,0,0,1,1136.9,562.871Z"/><path class="c" d="M1100.261,639.081a33.42,33.42,0,0,1-7.626-1.714l-5.444-1.934,2.017-68.638a11.671,11.671,0,0,1,3.178-7.6,24.813,24.813,0,0,1,3.2.525,3.089,3.089,0,0,1,.885.359,8.292,8.292,0,0,1,3.923,2.072c2.4,2.515,1.825,6.6.636,9.893-1.16,3.315-2.763,6.77-1.851,10.141.663,2.4,2.514,4.366,3.012,6.825,1.022,5.2-4.477,18.182-3.952,23.46.3,3.012,2.487,5.443,3.869,8.124C1105.042,626.425,1103.853,633.554,1100.261,639.081Z"/></g><g transform="translate(-9747.738 8459.377)"><path class="b" d="M1124.433,555.237c0,4.568-5,8.154-11.375,8.154s-11.376-3.586-11.376-8.154c0-2.711,1.749-5.069,4.5-6.542a12.742,12.742,0,0,1,2.485-1.012c.452-.128.924-.246,1.405-.334a16.21,16.21,0,0,1,2.987-.275,15.9,15.9,0,0,1,3.752.442,13.351,13.351,0,0,1,3.134,1.179c2.574,1.385,4.263,3.546,4.47,6.041C1124.423,554.9,1124.433,555.07,1124.433,555.237Z"/><path class="b" d="M1119.944,538.282V552.8h-.079a4.484,4.484,0,0,1-2.24,2.8,8.957,8.957,0,0,1-4.567,1.139c-3.508,0-6.327-1.68-6.8-3.939h-.079V538.282a6.246,6.246,0,0,1,2.014-4.558,7.069,7.069,0,0,1,3.949-1.837c.363-.02.747-.049,1.139-.049a7.731,7.731,0,0,1,2.348.442,6.752,6.752,0,0,1,2.426,1.581A6.2,6.2,0,0,1,1119.944,538.282Z"/><path class="b" d="M1121.326,549.577a3.393,3.393,0,0,1-1.911,6.081l-.051,0a14.871,14.871,0,0,1-1.739-.059,9.8,9.8,0,0,1-4.184-1.248c-2.329-1.4-3.8-3.9-4.775-6.67a29.918,29.918,0,0,1-1.051-3.851,35.434,35.434,0,0,1-.638-4.754,5.456,5.456,0,0,1,.884-.58c.039,2.328.619,6.336,2.21,8.851a4.672,4.672,0,0,0,2.574,2.161c2.112.59,3.3-.452,4.165-1.994.933-1.67,1.484-3.92,2.377-5.315a4.612,4.612,0,0,1,.757-.913V548.7A10.676,10.676,0,0,1,1121.326,549.577Z"/></g><g transform="translate(-9747.738 8459.377)"><path class="b" d="M1132.25,536.715c-.133,3.716-.77,7.384-2.948,10.111-2.4,3.041-6.268,4.248-9.941,4.344a11.019,11.019,0,0,1-5.917-1.3c-3.387-2.027-4.971-6.4-5.828-10.522a34.689,34.689,0,0,1-.638-4.754,17.686,17.686,0,0,1,.528-5.382,15.482,15.482,0,0,1,6.774-8.832,24.4,24.4,0,0,1,10.293-3.258,8.256,8.256,0,0,1,5.169.627,4.4,4.4,0,0,1,2.09,2.9,3.378,3.378,0,0,1,.044,1.328c.11,3.378.219,6.733.33,10.111C1132.25,533.6,1132.294,535.146,1132.25,536.715Z"/><path class="g" d="M1107.923,533.964c-.022,0-.043.024-.065.048a1.511,1.511,0,0,1-.022-.314A.39.39,0,0,0,1107.923,533.964Z"/><path class="g" d="M1107.923,533.964c.089-.049.155-.1.243-.145.219-.121.527-.217.682,0,.109.145-.066.314-.2.338l.528.555A1.088,1.088,0,0,1,1107.923,533.964Z"/><path class="g" d="M1107.92,545.394c-.081-.11-.165-.235-.246-.349-.012.084-.006.169-.019.252Z"/><path class="g" d="M1135.952,519.4a2.189,2.189,0,0,0-2.435-.4,11.2,11.2,0,0,0,2.317-5.6c.27-5.441-4.453-6.359-8.314-5.227-1.363.4-2.671.972-4,1.486a8.356,8.356,0,0,0-1.893-.818c-3.751-1.02-7.7.214-11.265,1.848a21.458,21.458,0,0,0-4.43,2.573c-5,3.95-6.846,11.854-4.574,18.073.988,4.393,1.984,14.368,5.954,12.989,2.12-.737,1.232-8.183,1.3-8.453.818-3.029,3.093-4.705,3.487-8.342l2.051-1.225a33.31,33.31,0,0,0,19.435-2.55,5.322,5.322,0,0,0,2.248-1.612A2.392,2.392,0,0,0,1135.952,519.4Z"/><path class="b" d="M1109.844,535.036c.738.035,1.226,1.024,1,1.8a1.95,1.95,0,0,1-1.713,1.316,4.049,4.049,0,0,1-2.135-.555,6.036,6.036,0,0,1-3.048-3c-.554-1.407-.194-3.32,1.056-4.007a2.873,2.873,0,0,1,3.517,1.151,10.281,10.281,0,0,1,1.462,4.006Z"/></g><g transform="translate(-9747.738 8459.377)"><path class="b" d="M1093.128,663.162a6.975,6.975,0,0,1-6.663-4.931l-9.575-31.242a35.493,35.493,0,0,1-.418-19.339l9.928-38.213a6.971,6.971,0,0,1,13.495,3.505l-9.928,38.214a21.553,21.553,0,0,0,.254,11.747l9.575,31.244a6.977,6.977,0,0,1-6.668,9.015Z"/></g><g transform="translate(-9747.738 8459.377)"><path class="f" d="M1080.832,635.968a24.555,24.555,0,0,0,9.187-1.211,6.443,6.443,0,0,0,4.049-8.029l-1.316-4.292a19.677,19.677,0,0,1-.231-10.715l10.155-39.089a10.174,10.174,0,0,0-.744-7.329,9.754,9.754,0,0,0-18.057,2.12l-10.235,39.394a39.152,39.152,0,0,0,.461,21.335l.991,3.233A6.467,6.467,0,0,0,1080.832,635.968Z"/></g><g transform="translate(-9747.738 8459.377)"><path class="c" d="M1104.061,642.76,1089.9,664.122l10.954,16.035,4.388-18.523Z"/></g></g></svg>