<svg xmlns="http://www.w3.org/2000/svg" xmlns:xlink="http://www.w3.org/1999/xlink" width="537.675" height="429.228" viewBox="0 0 537.675 429.228"><defs><style>.a{fill:#647ddd;opacity:0.21;}.b{fill:#ff8358;}.c{fill:#3772ce;}.d{fill:#1f3598;}.e{fill:#e2e8f2;}.f{fill:#a0d2ff;}.g{opacity:0.56;mix-blend-mode:multiply;isolation:isolate;}.h{opacity:0.51;}.i{fill:#ff65a7;}.j{fill:#fff;}.k{fill:#e91e63;}.l{fill:#00bcd4;}.m{fill:#4caf50;}.n{fill:#ff9800;}.o{fill:rgba(15,0,0,0.1);}.p{fill:#c4e4f9;}.q{fill:#0f62fe;}.r{filter:url(#a);}</style><filter id="a" x="231.713" y="0" width="106.541" height="101.622" filterUnits="userSpaceOnUse"><feOffset input="SourceAlpha"/><feGaussianBlur stdDeviation="3" result="b"/><feFlood flood-opacity="0.161"/><feComposite operator="in" in2="b"/><feComposite in="SourceGraphic"/></filter></defs><g transform="translate(-406.325 -5533.172)"><ellipse class="a" cx="39.402" cy="22.75" rx="39.402" ry="22.75" transform="translate(721.294 5814.14)"/><g transform="translate(-1232.738 4403.377)"><path class="b" d="M1963.856,1333.6l6.56-31.576.023-.084a21.386,21.386,0,0,0-.487-10.558,100.479,100.479,0,0,1,12.058-7.338l.362,1,.219.6a35.126,35.126,0,0,1,1.878,8.144,72.211,72.211,0,0,0-.111,8.441c-.109.843-.239,1.681-.414,2.513l-6.573,31.66a6.914,6.914,0,0,1-6.116,5.465,6.737,6.737,0,0,1-2.051-.116A6.9,6.9,0,0,1,1963.856,1333.6Z"/><path class="c" d="M1968.387,1286.341l7.353-46.683a8.128,8.128,0,1,1,16.007,2.829l-7.569,43.807,1.436-.276a62.464,62.464,0,0,0-1.228,16.789l-.94.181a12.074,12.074,0,0,1-11.809-1.856c-.16-.128-.318-.26-.471-.394C1967.923,1297.89,1967.634,1290.6,1968.387,1286.341Z"/></g><g transform="translate(-1232.738 4403.377)"><path class="d" d="M1994.789,1413.216a4.085,4.085,0,0,1,3.575,2.679,12.017,12.017,0,0,1,.629,4.67c0,1.385-.059,2.931-1.046,3.9a5.257,5.257,0,0,1-2.4,1.116,28.192,28.192,0,0,1-4.929,1.025c-1.9.163-3.819-.057-5.7.229-1.2.183-2.358.568-3.539.846a20.148,20.148,0,0,1-10.173-.262,3.814,3.814,0,0,1-1.978-1.089,2.872,2.872,0,0,1,.28-3.5,8.4,8.4,0,0,1,3.147-2.071l10.4-4.777c3.4-1.562,6.922-3.152,10.664-3.239,1.2-.027,2.772.515,2.664,1.706Z"/></g><g transform="translate(-1232.738 4403.377)"><path class="e" d="M4.171,0h.343a4.17,4.17,0,0,1,4.17,4.17v7.041a4.17,4.17,0,0,1-4.17,4.17H4.173A4.173,4.173,0,0,1,0,11.208V4.171A4.171,4.171,0,0,1,4.171,0Z" transform="matrix(-0.997, 0.081, -0.081, -0.997, 1996.599, 1418.696)"/></g><g transform="translate(-1232.738 4403.377)"><path class="d" d="M2007.45,1432.128c-.657,1.2-1.339,2.389-1.978,3.583a29.035,29.035,0,0,0-1.779,3.738c-.7,1.923-2.019,5.665-.362,7.41,2.495,2.629,6.566.378,8.594-1.478a80.975,80.975,0,0,0,8.392-8.939,10.943,10.943,0,0,0,2.527-4.557c1.04-5.277-2.051-12.76-8.532-11.008-2.366.64-3.375,2.3-3.936,4.452A30.139,30.139,0,0,1,2007.45,1432.128Z"/></g><g transform="translate(-1232.738 4403.377)"><rect class="e" width="8.684" height="15.381" rx="4.171" transform="translate(2020.094 1429.595) rotate(180)"/></g><g transform="translate(-1232.738 4403.377)"><path class="d" d="M1997.583,1283.135l21.926,7.6,8.759,10.005-2.619,63.058-3.048,55.05a5.244,5.244,0,0,1-5.244,5.244h-3.607a5.244,5.244,0,0,1-5.225-4.805L2003,1353.559l.209-24.9-6.589-3.88-7.238,44.434,7.607,38.734a5.1,5.1,0,0,1-5.473,5.335l-2.54-.188a5.1,5.1,0,0,1-4.676-4.353L1969.87,1370.4a25.283,25.283,0,0,1-1.167-11.931l10.373-65.538Z"/></g><g transform="translate(-1232.738 4403.377)"><path class="f" d="M1979.064,1239.893l-5.321,53.457a10.783,10.783,0,0,0,6.4,10.941l14.208,6.232a33.441,33.441,0,0,0,20.973,4.785,33.057,33.057,0,0,0,7.547-1.695l5.386-1.914-2-67.923a11.542,11.542,0,0,0-3.144-7.519,10.858,10.858,0,0,0-2.516-2.051l-4.812-3.035-1.34-.848c-3.637-2.543-10.692-5.168-17.035-5.934a27.951,27.951,0,0,0-3.61-.246,13.045,13.045,0,0,0-6.453,1.367A16.662,16.662,0,0,0,1979.064,1239.893Z"/><path class="c" d="M2015.322,1315.308a33.057,33.057,0,0,0,7.547-1.695l5.386-1.914-2-67.923a11.542,11.542,0,0,0-3.144-7.519,24.68,24.68,0,0,0-3.172.519,3.1,3.1,0,0,0-.875.356,8.208,8.208,0,0,0-3.883,2.05c-2.379,2.489-1.805,6.536-.629,9.79,1.148,3.281,2.734,6.7,1.832,10.035-.656,2.379-2.488,4.32-2.981,6.754-1.011,5.14,4.431,17.992,3.911,23.215-.3,2.98-2.461,5.387-3.828,8.039C2010.591,1302.784,2011.767,1309.839,2015.322,1315.308Z"/></g><g transform="translate(-1232.738 4403.377)"><ellipse class="b" cx="11.255" cy="8.075" rx="11.255" ry="8.075" transform="translate(1991.401 1224.261)"/><path class="b" d="M1995.848,1229.256h0v-13.692a6.2,6.2,0,0,1,1.859-4.381,6.829,6.829,0,0,1,2.406-1.563,7.74,7.74,0,0,1,2.324-.435c.383,0,.766.025,1.122.051a6.937,6.937,0,0,1,3.91,1.819,6.159,6.159,0,0,1,2,4.509v14.362h-.078c-.471,2.237-3.254,3.906-6.731,3.906s-6.26-1.669-6.73-3.906h-.078Z"/></g><g transform="translate(-1232.738 4403.377)"><path class="b" d="M1983.667,1214.01c.131,3.678.762,7.308,2.917,10.006,2.372,3.01,6.2,4.2,9.838,4.3a10.91,10.91,0,0,0,5.854-1.289c3.352-2.006,4.919-6.329,5.768-10.413a34.286,34.286,0,0,0,.631-4.7,17.484,17.484,0,0,0-.522-5.326,15.319,15.319,0,0,0-6.7-8.74,24.14,24.14,0,0,0-10.186-3.224,8.168,8.168,0,0,0-5.115.621,4.351,4.351,0,0,0-2.067,2.865,3.347,3.347,0,0,0-.044,1.314c-.108,3.343-.217,6.663-.326,10.006C1983.667,1210.93,1983.624,1212.458,1983.667,1214.01Z"/><path class="c" d="M2007.739,1211.288c.022,0,.044.024.066.048a1.551,1.551,0,0,0,.021-.311A.377.377,0,0,1,2007.739,1211.288Z"/><path class="c" d="M2007.739,1211.288c-.087-.048-.152-.1-.239-.143-.218-.12-.523-.215-.675,0-.109.143.065.31.2.334l-.522.549A1.076,1.076,0,0,0,2007.739,1211.288Z"/><path class="c" d="M1983.893,1214.107c-1.068,2.99.835,7.585,2.691,9.909,2.372,3.01,6.2,4.2,9.838,4.3a10.91,10.91,0,0,0,5.854-1.289c3.352-2.006,4.919-6.329,5.768-10.413a34.286,34.286,0,0,0,.631-4.7,5.687,5.687,0,0,0-.87-.573c-.063,3.263-1.187,9.894-4.74,10.895-4.346,1.225-4.768-4.572-6.47-7.229a7.538,7.538,0,0,0-3.864-2.68,9.656,9.656,0,0,0-5.887-.8A4.011,4.011,0,0,0,1983.893,1214.107Z"/><path class="c" d="M2007.743,1222.6c.08-.109.163-.232.244-.345.011.082,0,.167.018.249Z"/><path class="c" d="M1980,1196.871a2.168,2.168,0,0,1,2.41-.4,11.067,11.067,0,0,1-2.293-5.541c-.268-5.384,4.406-6.293,8.226-5.172,1.35.4,2.644.961,3.956,1.47a8.294,8.294,0,0,1,1.873-.809c3.712-1.01,7.62.211,11.148,1.828a21.219,21.219,0,0,1,4.383,2.546c4.949,3.909,6.775,11.731,4.526,17.885-.977,4.347-1.963,14.218-5.891,12.853-2.1-.729-1.219-8.1-1.291-8.365-.81-3-3.061-4.656-3.45-8.254l-2.03-1.212a32.976,32.976,0,0,1-19.233-2.524,5.262,5.262,0,0,1-2.224-1.6A2.368,2.368,0,0,1,1980,1196.871Z"/><path class="b" d="M2005.839,1212.349c-.731.035-1.213,1.014-.987,1.777a1.931,1.931,0,0,0,1.7,1.3,4.009,4.009,0,0,0,2.112-.548,5.972,5.972,0,0,0,3.016-2.973c.549-1.393.192-3.286-1.044-3.965a2.842,2.842,0,0,0-3.48,1.139,10.13,10.13,0,0,0-1.447,3.964Z"/></g><g transform="translate(-1232.738 4403.377)"><path class="b" d="M2022.38,1339.139a6.9,6.9,0,0,0,6.594-4.88l9.475-30.917a35.129,35.129,0,0,0,.414-19.137l-9.825-37.814a6.9,6.9,0,1,0-13.353,3.468l9.824,37.816a21.327,21.327,0,0,1-.252,11.624l-9.475,30.918a6.9,6.9,0,0,0,6.6,8.922Z"/></g><g transform="translate(-1232.738 4403.377)"><path class="f" d="M2034.549,1312.228a24.321,24.321,0,0,1-9.092-1.2,6.375,6.375,0,0,1-4.006-7.946l1.3-4.247a19.484,19.484,0,0,0,.229-10.6l-10.05-38.681a10.069,10.069,0,0,1,.737-7.253,9.652,9.652,0,0,1,17.868,2.1l10.128,38.983a38.741,38.741,0,0,1-.456,21.112l-.98,3.2A6.4,6.4,0,0,1,2034.549,1312.228Z"/></g><g transform="translate(-1232.738 4403.377)"><path class="d" d="M2011.561,1318.949l14.014,21.139-10.84,15.868-4.342-18.33Z"/></g><ellipse class="a" cx="33.072" cy="19.095" rx="33.072" ry="19.095" transform="translate(625.194 5880.566)"/><g transform="translate(-1232.738 4403.377)"><path class="c" d="M1877.32,1263.291c.021,0,.041.021.062.042a1.2,1.2,0,0,0,.021-.273A.319.319,0,0,1,1877.32,1263.291Z"/></g><g transform="translate(-1232.738 4403.377)"><path class="b" d="M1872.709,1269.715l-2.311,16.274c-.32,2.252,2.328,4.078,5.915,4.078s6.753-1.826,7.073-4.078h.059l2.311-16.274Z"/></g><g transform="translate(-1232.738 4403.377)"><path class="b" d="M1869.673,1268.3c-2.917-5.26-3.488-11.349,1.954-16.017,4.367-3.745,17.125-8.838,22.116-4.452,5.354,4.7,4.674,22.063.809,27.721-3.413,4.995-9.887,5.525-14.787,2.888A27.165,27.165,0,0,1,1869.673,1268.3Z"/></g><g transform="translate(-1232.738 4403.377)"><path class="c" d="M1861.982,1252.145a9.1,9.1,0,0,1,2.642-6c1.112-.825,2.244-1.612,3.4-2.329,3.844-1.836,8.934-2.409,13.5-2.776,3.146.65,6.251,1.72,9.6,1.462a22.538,22.538,0,0,0,5.471-1.129,6.775,6.775,0,0,1,2.237,6.161c-.836,5.814-6.591,5.352-10.366,8.3a3.249,3.249,0,0,1-.4,1.529,23.677,23.677,0,0,1-5.279,13.734,29.459,29.459,0,0,1-2.881,3.672C1867.2,1288.717,1861.465,1259.34,1861.982,1252.145Z"/></g><g transform="translate(-1232.738 4403.377)"><path class="b" d="M1881.588,1267.21c.68,2.488,2.7,4.088,4.508,3.573s2.727-2.948,2.047-5.436-2.7-4.088-4.508-3.573S1880.908,1264.722,1881.588,1267.21Z"/></g><g transform="translate(-1232.738 4403.377)"><rect class="c" width="3.947" height="15.128" rx="1.921" transform="translate(1886.693 1252.408)"/></g><g transform="translate(-1232.738 4403.377)"><path class="e" d="M1867.066,1289.079a52.168,52.168,0,0,1,.027-5.276,5.469,5.469,0,0,1,2.607-4.06c3.619-2.416,8.413-1.548,11.845.775,4.641,3.142,3.787,5.928,3.833,10.773.064,6.637.39,17.157.585,23.791h0l-2.054.73a12.6,12.6,0,0,1-2.879.647,10.112,10.112,0,0,1-5.92-1.134l-2.166-5.489-.388,4.071-4.8-2.343a2.243,2.243,0,0,1-1.114-2C1866.785,1304.03,1866.925,1294.617,1867.066,1289.079Z"/></g><g transform="translate(-1232.738 4403.377)"><path class="c" d="M1880.1,1478.522c-7.372-2.02-23.532.26-22.7,5.388a13.327,13.327,0,0,0-.4,2.941c-.365,10.281,14.389,4.166,19.464,1.345C1885.954,1482.921,1884.857,1479.826,1880.1,1478.522Z"/></g><g transform="translate(-1232.738 4403.377)"><path class="c" d="M1854.542,1329.973a39.737,39.737,0,0,0-.83,15.287,38.91,38.91,0,0,0,1.7,7.392l9.328,32.583c1.187,3.525-.387,7.435-3.552,8.683a5.959,5.959,0,0,1-1.486.368,6.258,6.258,0,0,1-6.392-4.512l-9.325-32.556a55.5,55.5,0,0,1-1.207-31.247l7.653-29.8c.944-3.574,4.325-5.61,7.556-4.481,3.253,1.1,5.132,4.911,4.214,8.51Z"/></g><g transform="translate(-1232.738 4403.377)"><path class="b" d="M1855.409,1352.652a38.789,38.789,0,0,1-1.671-7.225,14.38,14.38,0,0,1-3.119,1.384,13.5,13.5,0,0,1-9.052-.191,55.178,55.178,0,0,0,2.415,10.6l9.325,32.556a6.258,6.258,0,0,0,6.392,4.512,5.959,5.959,0,0,0,1.486-.368c3.165-1.248,4.739-5.158,3.552-8.683Z"/></g><g transform="translate(-1232.738 4403.377)"><path class="c" d="M1889.841,1493.095a4.081,4.081,0,0,0-3.574,2.679,11.994,11.994,0,0,0-.63,4.67c0,1.385.059,2.93,1.046,3.9a5.276,5.276,0,0,0,2.4,1.116c7.487,2.028,16.288.48,23.52-1.823a3.923,3.923,0,0,0,2.907-3.421c.006-2.335-2.606-3.682-4.844-4.347a79.7,79.7,0,0,0-19.757-3.246c-1.2-.028-2.771.514-2.663,1.7Z"/></g><g transform="translate(-1232.738 4403.377)"><path class="e" d="M4.171,0h.341A4.172,4.172,0,0,1,8.684,4.172v7.037a4.172,4.172,0,0,1-4.172,4.172H4.171A4.171,4.171,0,0,1,0,11.21V4.171A4.171,4.171,0,0,1,4.171,0Z" transform="matrix(-1, -0.012, 0.012, -1, 1867.107, 1486.447)"/></g><g transform="translate(-1232.738 4403.377)"><rect class="e" width="8.684" height="15.381" rx="4.171" transform="translate(1897.29 1498.197) rotate(180)"/></g><g transform="translate(-1232.738 4403.377)"><path class="f" d="M1900.76,1376.088l-8.746-26.042-41.9,6.506v19.778s7.057,40.9,7.294,42.535l-1.3,54.262c.346,2.367,3.306,5.193,5.692,5.369l2.541.187c3.055.225,6.635-2.274,6.489-5.335l4.728-46.835L1873,1392.751l7.379,6.244.2-.071,8.234,34.085c2.269,12-3.018,51.684-3.018,51.684.228,2.717,3.516,4.805,6.241,4.805h3.607c2.9,0,6.26-2.348,6.26-5.244l3.988-47.479a94.428,94.428,0,0,0-.129-14.113Z"/></g><g transform="translate(-1232.738 4403.377)"><path class="c" d="M1849.093,1371.766a6.917,6.917,0,0,0,3.434,6.137l13.96,6.817.752-7.914,4.267,10.83.366.173a29.094,29.094,0,0,0,11.867,3.221h.142c.254,0,.528.01.792.01a30.614,30.614,0,0,0,3.252-.173,34.421,34.421,0,0,0,7.793-1.747l5.384-1.92.691-.244-.02-.742c-.488-16.662-1.362-49.622-1.534-67.422-.011-1.839.02-3.546.05-5.2.041-2.225.082-4.3-.02-6.279v-.01c-.335-6.543-2.184-11.938-10.526-17.587-8.067-5.466-21.336-9.276-32.187-2.032a15.487,15.487,0,0,0-7.274,11.339,48.675,48.675,0,0,0-.163,8.3c.061,1.829.132,3.719.082,5.649-.183,7.265-.366,18.522-.549,29.414S1849.286,1364.512,1849.093,1371.766Z"/></g><g class="g" transform="translate(-1232.738 4403.377)"><g class="h"><path class="d" d="M1888.281,1391.03c.156.264-1.651.284-1.356.01.685-.64,1.8-.051,2.776-.173a25.784,25.784,0,0,0,6.652-1.747l4.6-1.92.59-.244-.017-.742c-.416-16.662-1.162-49.622-1.31-67.422-.008-1.839.018-3.546.044-5.2.034-2.225.069-4.3-.018-6.279v-.01a6.021,6.021,0,0,0-1.8-1.808,5.136,5.136,0,0,0-2.836-.864c-3.114,0-5.672,2.845-5.837,6.482l-1.811,62.047C1888.193,1373.158,1887.023,1389.018,1888.281,1391.03Z"/></g></g><g transform="translate(-1232.738 4403.377)"><path class="f" d="M1896.19,1482.933h-3.606c-1.658,0-3.187-1.242-4.412-2.7a1.616,1.616,0,0,0-2.864,1.025v4.022a7.277,7.277,0,0,0,7.276,7.276h3.607a7.276,7.276,0,0,0,7.25-6.667V1480.9a.84.84,0,0,0-1.554-.438C1901.025,1481.781,1899.578,1482.965,1896.19,1482.933Z"/></g><g transform="translate(-1232.738 4403.377)"><path class="f" d="M1865.217,1472.9h-3.251c-1.495,0-4.435-.659-4.994-2.505-.4-1.333-1.566-.457-1.566.951v3.732a6.657,6.657,0,0,0,6.56,6.751h3.252a6.637,6.637,0,0,0,6.536-6.186v-4.626a.754.754,0,0,0-1.4-.407C1869.576,1471.832,1868.272,1472.931,1865.217,1472.9Z"/></g><g transform="translate(-1232.738 4403.377)"><path class="b" d="M1931.074,1276.207l-10.646,44.262Z"/><path class="b" d="M1920.434,1327.582a7.114,7.114,0,0,0,6.908-5.45l10.647-44.261a7.112,7.112,0,0,0-13.829-3.327l-10.647,44.262a7.119,7.119,0,0,0,6.921,8.776Z"/></g><g transform="translate(-1232.738 4403.377)"><path class="c" d="M1921.112,1331.5a8.654,8.654,0,0,1-7.477-1.5l-32.09-24.6a8.563,8.563,0,0,1-1.547-12.062,8.686,8.686,0,0,1,12.131-1.575l32.089,24.6a8.563,8.563,0,0,1,1.548,12.062A8.653,8.653,0,0,1,1921.112,1331.5Z"/></g><g transform="translate(-1232.738 4403.377)"><path class="b" d="M1939.494,1272.454c-.96,5.009-4.956,8.454-8.925,7.694s-6.408-5.439-5.448-10.449,4.956-8.455,8.925-7.694S1940.454,1267.444,1939.494,1272.454Z"/></g><g transform="translate(-1232.738 4403.377)"><path class="b" d="M1927.536,1270.451h0a2.438,2.438,0,0,1-1.936-2.854l2.757-14.387a2.439,2.439,0,0,1,2.854-1.937h0a2.441,2.441,0,0,1,1.937,2.855l-2.757,14.387A2.439,2.439,0,0,1,1927.536,1270.451Z"/></g><g transform="translate(-1232.738 4403.377)"><path class="f" d="M1894.112,1215.172l-.044-15.753c-.02-7.577,5.314-16.81,11.9-20.618l42.318-24.424c3.314-1.919,6.32-2.1,8.491-.834q-3.292-1.913-6.588-3.832c-2.17-1.261-5.177-1.079-8.5.835l-42.308,24.429c-6.59,3.8-11.924,13.033-11.9,20.614l.045,15.753c.013,3.762,1.34,6.41,3.48,7.657l6.594,3.832C1895.454,1221.584,1894.122,1218.936,1894.112,1215.172Z"/></g><g transform="translate(-1232.738 4403.377)"><path class="e" d="M1947.271,1153.361c6.59-3.812,11.955-.752,11.977,6.827l.045,15.75c.02,7.581-5.308,16.807-11.907,20.614a18.863,18.863,0,0,0,4.3,7.5,14.7,14.7,0,0,1-15.524-1.021l-31.09,17.948c-6.589,3.807-11.955.753-11.98-6.826l-.044-15.753c-.02-7.577,5.314-16.81,11.9-20.618Z"/></g><g transform="translate(-1232.738 4403.377)"><path class="i" d="M1940.558,1173.869a10.008,10.008,0,0,0-4.528,7.843c0,2.888,2.027,4.058,4.528,2.614a10.008,10.008,0,0,0,4.528-7.843C1945.086,1173.6,1943.059,1172.425,1940.558,1173.869Z"/><path class="f" d="M1927.507,1181.4a10.008,10.008,0,0,0-4.528,7.843c0,2.888,2.027,4.058,4.528,2.614a10.008,10.008,0,0,0,4.528-7.843C1932.035,1181.131,1930.008,1179.96,1927.507,1181.4Z"/><path class="f" d="M1914.455,1188.939a10.011,10.011,0,0,0-4.528,7.843c0,2.887,2.028,4.058,4.528,2.614a10.009,10.009,0,0,0,4.529-7.843C1918.984,1188.666,1916.956,1187.495,1914.455,1188.939Z"/></g><g transform="translate(478 -8476.347)"><g class="r" transform="matrix(1, 0, 0, 1, -71.68, 14009.52)"><path class="j" d="M9.838,0H78.7a9.838,9.838,0,0,1,9.838,9.838V73.784A9.838,9.838,0,0,1,78.7,83.622H9.838A9.838,9.838,0,0,1,0,73.784V9.838A9.838,9.838,0,0,1,9.838,0Z" transform="translate(240.71 9)"/></g><g transform="translate(184.291 14031.327)"><path class="k" d="M12.407,12.651a6.086,6.086,0,0,0-6.085,6.085V33.957a6.085,6.085,0,1,0,12.17,0V18.736a6.089,6.089,0,0,0-6.085-6.085Z" transform="translate(8.933 17.887)"/><path class="k" d="M.019,18.739a6.09,6.09,0,1,0,12.18,0v-6.09H6.109a6.091,6.091,0,0,0-6.09,6.09Z" transform="translate(0.022 17.884)"/><path class="l" d="M12.417,0H12.41a6.09,6.09,0,0,0,0,12.18h6.085v-6.1A6.08,6.08,0,0,0,12.417,0Z" transform="translate(8.93 0.001)"/><path class="l" d="M6.092,18.5h15.25a6.09,6.09,0,1,0,0-12.18H6.092a6.09,6.09,0,1,0,0,12.18Z" transform="translate(-0.002 8.943)"/><path class="m" d="M25.017,6.323A6.077,6.077,0,0,0,18.939,12.4v6.1h6.085a6.09,6.09,0,1,0,0-12.18Z" transform="translate(26.769 8.941)"/><path class="m" d="M12.641,6.086V21.353a6.085,6.085,0,0,0,12.17,0V6.086a6.085,6.085,0,0,0-12.17,0Z" transform="translate(17.866 0.004)"/><g transform="translate(30.499 30.533)"><path class="n" d="M24.81,25.04a6.086,6.086,0,0,0-6.085-6.085H12.64v6.09a6.085,6.085,0,0,0,12.17,0Z" transform="translate(-12.635 -3.734)"/><path class="n" d="M33.977,12.649H18.728a6.09,6.09,0,0,0,0,12.18h15.25a6.09,6.09,0,1,0,0-12.18Z" transform="translate(-12.638 -12.649)"/></g></g></g><g transform="translate(406.325 5841.484)"><path class="o" d="M276,660H813.675s-11.269,20.927-37.026,17.708a149.484,149.484,0,0,1-20.927-1.61c-9.659-1.61-24.147,3.22-27.367,8.049,0,0-24.147,14.488-64.392,0,0,0-37.026-16.1-62.782-1.61,0,0-19.318,20.928-69.222-4.829,0,0-12.879-8.049-35.416,8.049,0,0-22.537,19.318-66-8.049,0,0-24.147-6.439-51.514,6.439C379.028,684.147,324.294,692.2,276,660Z" transform="translate(-276 -571.461)"/><path class="p" d="M582.407,634.075s27.206,15.026,15.19,36.5C597.6,670.576,578.133,666.564,582.407,634.075Z" transform="translate(-89.525 -587.27)"/><path class="q" d="M614.007,623s14.488,46.684-22.537,57.953C591.47,680.953,573.762,655.2,614.007,623Z" transform="translate(-85.991 -594.023)"/><path class="q" d="M334.352,621.92s-41.564,22.958-23.207,55.765C311.145,677.685,340.883,671.557,334.352,621.92Z" transform="translate(-257.422 -594.682)"/><path class="p" d="M292.061,605s-22.135,71.324,34.43,88.539C326.492,693.539,353.546,654.189,292.061,605Z" transform="translate(-268.808 -605)"/></g></g></svg>