<svg xmlns="http://www.w3.org/2000/svg" width="537.675" height="420.4" viewBox="0 0 537.675 420.4"><defs><style>.a{fill:#525252;}.b{fill:none;stroke:#fff;stroke-linejoin:round;stroke-width:2.5px;}.c{opacity:0.18;}.d{fill:#1f3598;}.e{fill:#8dc0ef;}.f{fill:#ced6e9;}.g{fill:#a0d2ff;}.h{fill:#3772ce;}.i{fill:#bfc7d8;}.j{fill:#e2e8f2;}.k{fill:#eff6fc;}.l{fill:#ff8358;}.m{opacity:0.71;}.m,.t{mix-blend-mode:multiply;isolation:isolate;}.n{fill:#fbc1b1;}.o{fill:#fff;}.p{opacity:0.34;}.q{fill:#fff9ff;}.r,.u{fill:#647ddd;}.s{fill:#26366d;}.u{opacity:0.21;}.v{fill:#4568c7;}.w{fill:#a0d2fe;}.x{opacity:0.51;}.y{fill:#ff65a7;}.z{fill:#2b65ba;}.aa{fill:rgba(15,0,0,0.1);}.ab{fill:#c4e4f9;}.ac{fill:#0f62fe;}</style></defs><g transform="translate(-407.325 -3076)"><g transform="translate(8364 -9705)"><circle class="a" cx="130" cy="130" r="130" transform="translate(-7680 12781)"/><g transform="translate(-7614.529 12863.9)"><line class="b" x2="4.324" transform="translate(12.921 10.917)"/><line class="b" x2="4.324" transform="translate(21.15 10.917)"/><line class="b" x2="4.324" transform="translate(31.855 10.917)"/><path class="b" d="M715.919,370.127v76.154h115.6L814.54,429.149a20.447,20.447,0,0,1-22.19-4.34A20.9,20.9,0,0,1,787.834,403a.511.511,0,0,1,.352-.314.5.5,0,0,1,.46.133c4.716,4.759,8.737,8.82,13.449,13.579a.5.5,0,0,0,.42.145,14.762,14.762,0,0,0,12.453-12.574.5.5,0,0,0-.144-.427l-13.449-13.583a.5.5,0,0,1,.18-.819,20.409,20.409,0,0,1,21.606,4.561,20.946,20.946,0,0,1,4.3,22.407l15.673,15.825V349.793H715.919Z" transform="translate(-715.919 -349.793)"/><line class="b" x2="126.012" transform="translate(0.6 20.334)"/><path class="b" d="M228.414,450.3l-13.093-13.111,13.093-13.111" transform="translate(-204.264 -379.174)"/><path class="b" d="M310.379,450.3l13.1-13.111-13.1-13.111" transform="translate(-260.967 -379.174)"/><line class="b" x1="10.013" y2="37.49" transform="translate(31.774 39.143)"/></g></g><g transform="translate(11440 -5746)"><g transform="translate(-11002.699 9091.5)"><g class="c" transform="translate(0 0)"><ellipse class="d" cx="26.049" cy="15.04" rx="26.049" ry="15.04"/></g></g><g transform="translate(-10887.908 9129.083)"><g class="c" transform="translate(0 0)"><ellipse class="d" cx="26.049" cy="15.04" rx="26.049" ry="15.04"/></g></g><g transform="translate(-10865.549 8913.927)"><g transform="translate(0 0)"><g transform="translate(1.559 58.494)"><g transform="translate(78.838 7.38)"><path class="e" d="M1372.972,1548.637a.686.686,0,0,1-.656-.485l-9.635-31.384a.686.686,0,1,1,1.312-.4l9.635,31.385a.687.687,0,0,1-.656.887Z" transform="translate(-1362.651 -1515.88)"/></g><g transform="translate(50.546 21.439)"><path class="e" d="M1324.7,1577.769a.686.686,0,0,1-.685-.667l-1.074-40.781a.685.685,0,0,1,.668-.7.671.671,0,0,1,.7.667l1.074,40.781a.685.685,0,0,1-.667.7Z" transform="translate(-1322.938 -1535.615)"/></g><path class="e" d="M1252.674,1539.516a.706.706,0,0,1-.113-.009.685.685,0,0,1-.565-.789l5.4-32.623a.686.686,0,0,1,1.353.224l-5.4,32.623A.686.686,0,0,1,1252.674,1539.516Z" transform="translate(-1251.987 -1505.521)"/></g><g transform="translate(1.27 35.127)"><path class="f" d="M1251.581,1496.251l44.59,25.866a5.7,5.7,0,0,0,5.847-.079l34.789-21.454-46.817-27.864Z" transform="translate(-1251.581 -1472.721)"/></g><path class="g" d="M1305.284,1424.571l31.411,17.519a8.179,8.179,0,0,1,4.678,8.067l-5.079,36.246a9.451,9.451,0,0,1-5.438,7.332l-30.259,14.893c-2.052,1.01-4.57-.347-4.48-2.415l.008-.177a11.848,11.848,0,0,1,5.443-9.246L1319.078,1485a2.2,2.2,0,0,0-.176-3.753l-31.408-18.174c-.7-.384-2.246.332-2.922.764l-31.339,18.226a1.852,1.852,0,0,1-2.85-1.363l-.561-5.406c-.25-2.416,1.591-4.076,3.66-5.349l27.271-16.06,10.957-25.41C1293.984,1423.847,1300.347,1422.018,1305.284,1424.571Z" transform="translate(-1249.799 -1423.413)"/></g></g><g transform="translate(-10816.688 8888.362)"><g transform="translate(0 0)"><path class="h" d="M1342.119,1399.16c-.955-4.071-2.746-7.6-5.987-9.705-3.854-2.5-9.7-2.837-13.556.593a7.071,7.071,0,0,0-.734.736c-2.818,3.392-3.236,7.395-3.457,11.447.862,2.408,2.582,4.167,3.892,6.3s.689,2.683.306,5.092a17.754,17.754,0,0,0,2.48,12.091,2.966,2.966,0,0,0,1.072,1.135,3.226,3.226,0,0,0,1.781.166q4.831-.471,9.648-1.074c1.526-.191,3.2-.469,4.188-1.646a6.178,6.178,0,0,0,1.014-3.871C1342.933,1414.764,1343.761,1406.164,1342.119,1399.16Z" transform="translate(-1318.385 -1387.527)"/></g></g><g transform="translate(-10841.51 8947.117)"><g transform="translate(0 0)"><path class="h" d="M1313.76,1509.69l15.909-10.467a11.031,11.031,0,0,0,3.574-7.872c.278-9.529-.3-14.531-8.693-19.347l-13.611-1.952a6.087,6.087,0,0,0-5.935,2.789h0c-1.073,1.7-4.473,4.917-4.918,6.918a6.583,6.583,0,0,1-3.681,4.65l-12.863,5.763Z" transform="translate(-1283.543 -1470.001)"/></g></g><g transform="translate(-10827.398 8913.903)"><g transform="translate(0 0)"><g transform="translate(0 0)"><path class="i" d="M4.156,0h0A4.157,4.157,0,0,1,8.313,4.157V24.494A4.156,4.156,0,0,1,4.157,28.65h0A4.157,4.157,0,0,1,0,24.494V4.156A4.156,4.156,0,0,1,4.156,0Z" transform="translate(7.717 29.687) rotate(-158.168)"/></g></g></g><g transform="translate(-10822.229 8913.263)"><g transform="translate(0 0)"><path class="f" d="M1342.653,1434.822l-1.644,6.159-3.926,18.714a4.436,4.436,0,0,1-2.268,2.857c-2.976,1.478-10.162,2.206-18.707-1.415a4.476,4.476,0,0,1-2.6-3.308l-2.671-13.865-.056-.278a9.783,9.783,0,0,1,.9-6.3l3.122-5.993v-3.205c0-3.8,3.364-6.534,6.728-5.473l1.165.4,1.866.645,8.205,2.865,2.4.832,4.668,1.623A4.748,4.748,0,0,1,1342.653,1434.822Z" transform="translate(-1310.606 -1422.48)"/></g></g><g transform="translate(-10822.222 8913.263)"><g transform="translate(0 0)"><path class="j" d="M1339.839,1429.078l-4.667-1.623-2.4-.832-8.205-2.865-1.866-.645-1.166-.4c-3.364-1.061-6.728,1.672-6.728,5.473v3.205l-3.122,5.993a9.671,9.671,0,0,0-1.062,3.951,3.912,3.912,0,0,0,1.714,3.415h0c2.463,1.207,4.967,2.344,7.492,3.406,4.085,1.734,8.7,3.266,12.728,1.387,2.421-1.13,4.238-3.343,5.979-5.5q.414-.506.824-1.014a12.3,12.3,0,0,0,2.326-4.569l.971-3.636A4.748,4.748,0,0,0,1339.839,1429.078Z" transform="translate(-1310.618 -1422.48)"/></g></g><g transform="translate(-10814.517 8907.789)"><g transform="translate(0 6.494)"><path class="k" d="M1337.462,1430.431l-5.286,5.927a1.421,1.421,0,0,1-2.216-.118l-3.073-4.269-4.417.788a.881.881,0,0,1-1.036-.867v-1.369a6.428,6.428,0,0,1,5.082-6.287,14.714,14.714,0,0,1,3.084-.322,12.924,12.924,0,0,1,7.409,2.149A2.955,2.955,0,0,1,1337.462,1430.431Z" transform="translate(-1321.434 -1423.913)"/></g><g transform="translate(3.274 6.572)"><path class="d" d="M1335.215,1427.254a2.628,2.628,0,0,1-.839,1.865,5.835,5.835,0,0,1-7.441.065,2.511,2.511,0,0,1,0-3.861c.054-.048.113-.1.174-.15l.011-.012a5.216,5.216,0,0,1,2.548-1.067c.156-.024.312-.042.474-.054s.318-.018.48-.018a5.327,5.327,0,0,1,3.753,1.373A2.612,2.612,0,0,1,1335.215,1427.254Z" transform="translate(-1326.03 -1424.023)"/></g><g transform="translate(4.177 0)"><path class="l" d="M1334.737,1414.8v11.668a5.341,5.341,0,0,1-3.753,1.373,5.431,5.431,0,0,1-3.6-1.235.83.83,0,0,1-.084-.072V1414.8Z" transform="translate(-1327.297 -1414.798)"/></g><g class="m" transform="translate(4.177 1.619)"><path class="l" d="M1334.354,1417.07l-.642.953-3.244,4.647-.456.647-2.632,3.939a.862.862,0,0,1-.084-.072v-6.08l.006-.03a43.641,43.641,0,0,1,3.585-3.807l2.9-.162Z" transform="translate(-1327.297 -1417.07)"/></g></g><g transform="translate(-10795.216 8972.456)"><g transform="translate(0 0)"><path class="l" d="M1356.636,1510h0a2.267,2.267,0,0,0-.733-3.635,7.428,7.428,0,0,0-4.249-.73,3.776,3.776,0,0,0-2.58,1.267,3.409,3.409,0,0,0-.519,1.844,8.447,8.447,0,0,0,.524,3.894,5.044,5.044,0,0,0,4.622,3.135,3.684,3.684,0,0,0,2.587-1C1358.112,1512.984,1355.3,1512.083,1356.636,1510Z" transform="translate(-1348.528 -1505.57)"/></g></g><g transform="translate(-10823.771 8931.827)"><g transform="translate(0 0)"><path class="f" d="M1308.444,1448.538l.095.2a.3.3,0,0,1-.076.006C1308.463,1448.677,1308.45,1448.608,1308.444,1448.538Z" transform="translate(-1308.444 -1448.538)"/></g></g><g transform="translate(-10817.002 8892.628)"><g transform="translate(0 0)"><path class="l" d="M1333.1,1406.8c-1.015-5.191-4.328-10.617-9.92-11.538a.592.592,0,0,1-.412-.909.745.745,0,0,1,.088-.736c-.053-.006-.105-.016-.159-.021a4.993,4.993,0,0,0-3.192.4,2.777,2.777,0,0,0-1.29,1.828,2.192,2.192,0,0,0-.027.838c-.068,2.133-.135,4.251-.2,6.384-.027.96-.054,1.935-.027,2.925a10.847,10.847,0,0,0,1.82,6.383,7.843,7.843,0,0,0,6.138,2.742c1.25.031,2.54-.872,3.654-1.542,2.091-1.28,3.069-3.318,3.6-5.923.034-.179.058-.36.09-.54A.565.565,0,0,1,1333.1,1406.8Z" transform="translate(-1317.944 -1393.514)"/></g></g><g transform="translate(-10798.264 8919.262)"><g transform="translate(0 0)"><path class="j" d="M1352.665,1471.285c-.093,0-.187,0-.282-.009a4.116,4.116,0,0,1-3.828-4.384c1-14.772-.536-25.4-1.812-28.091a4.117,4.117,0,0,1,1.621-7.9,5.734,5.734,0,0,1,4.193,1.909c5.936,6.351,4.4,31.76,4.21,34.637A4.116,4.116,0,0,1,1352.665,1471.285Z" transform="translate(-1344.249 -1430.901)"/></g></g><g transform="translate(-10945.77 8965.663)"><g transform="translate(0 0)"><path class="j" d="M1137.193,1496.987a1.853,1.853,0,0,0,1.436,1.613c.793.2,1.436-.209,1.436-.9a1.852,1.852,0,0,0-1.436-1.613C1137.836,1495.887,1137.193,1496.292,1137.193,1496.987Z" transform="translate(-1137.193 -1496.034)"/></g></g><g transform="translate(-10964.753 8978.608)"><g transform="translate(0 0)"><path class="j" d="M1344.782,1704.395l92.531-52.552-242.83-137.637-83.936,49.656Z" transform="translate(-1110.547 -1514.206)"/></g></g><g transform="translate(-10759.513 8965.401)"><g transform="translate(0 0)"><g transform="translate(1.558 58.494)"><g transform="translate(78.837 7.38)"><path class="e" d="M1521.816,1620.892a.688.688,0,0,1-.656-.485l-9.635-31.385a.686.686,0,0,1,1.312-.4l9.635,31.385a.686.686,0,0,1-.454.857A.7.7,0,0,1,1521.816,1620.892Z" transform="translate(-1511.495 -1588.135)"/></g><g transform="translate(50.547 21.439)"><path class="e" d="M1473.543,1650.024a.687.687,0,0,1-.685-.668l-1.074-40.781a.686.686,0,1,1,1.371-.036l1.074,40.781a.685.685,0,0,1-.667.7Z" transform="translate(-1471.783 -1607.869)"/></g><path class="e" d="M1401.517,1611.771a.671.671,0,0,1-.112-.01.686.686,0,0,1-.566-.788l5.4-32.623a.686.686,0,0,1,1.354.224l-5.4,32.623A.687.687,0,0,1,1401.517,1611.771Z" transform="translate(-1400.83 -1577.775)"/></g><g transform="translate(1.27 35.127)"><path class="f" d="M1400.425,1568.5l44.59,25.866a5.7,5.7,0,0,0,5.847-.079l34.789-21.454-46.817-27.864Z" transform="translate(-1400.425 -1544.975)"/></g><path class="g" d="M1454.128,1496.825l31.411,17.52a8.176,8.176,0,0,1,4.678,8.066l-5.078,36.246a9.452,9.452,0,0,1-5.438,7.333l-30.26,14.892c-2.052,1.01-4.569-.346-4.48-2.414l.008-.177a11.85,11.85,0,0,1,5.442-9.246l17.511-11.792a2.2,2.2,0,0,0-.176-3.753l-31.407-18.174c-.7-.383-2.246.333-2.922.764l-31.339,18.225a1.852,1.852,0,0,1-2.851-1.363l-.561-5.406c-.25-2.416,1.591-4.076,3.66-5.349l27.271-16.06,10.957-25.409C1442.828,1496.1,1449.19,1494.273,1454.128,1496.825Z" transform="translate(-1398.643 -1495.668)"/></g></g><g transform="translate(-10743.291 8961.361)"><g transform="translate(0 0)"><path class="l" d="M1456.618,1495.193l-5.488,29.652a11.847,11.847,0,0,1-4.822,9.526l-16.628,13.326a5.2,5.2,0,0,1-6.14-8.388l16.622-13.326a1.419,1.419,0,0,0,.572-1.137l5.488-29.652a5.2,5.2,0,0,1,10.4,0Z" transform="translate(-1421.412 -1489.995)"/></g></g><g transform="translate(-10723.296 8959.511)"><g transform="translate(0 0)"><path class="f" d="M1457.572,1518.244a4.3,4.3,0,0,0,2.011-1.3,3.131,3.131,0,0,0,.787-2.1l4.8-20.2c0-4-2.6-7.248-5.808-7.248s-5.807,3.243-5.807,7.248l-4.029,16.936a2.829,2.829,0,0,0,1.413,2.993Z" transform="translate(-1449.48 -1487.399)"/></g></g><g transform="translate(-10751.283 9011.306)"><g transform="translate(0 0)"><path class="l" d="M1410.695,1567.9h0a1.655,1.655,0,0,0,2.334-.038l4.8-4.958a1.654,1.654,0,0,0-.038-2.333h0a1.654,1.654,0,0,0-2.333.039l-4.8,4.958A1.655,1.655,0,0,0,1410.695,1567.9Z" transform="translate(-1410.194 -1560.104)"/></g></g><g transform="translate(-10756.637 9068.418)"><g transform="translate(0 0)"><path class="d" d="M1420.262,1640.59a2.758,2.758,0,0,1,2.414,1.809,8.107,8.107,0,0,1,.425,3.153,3.588,3.588,0,0,1-.707,2.635,3.547,3.547,0,0,1-1.622.754,18.992,18.992,0,0,1-3.328.692c-1.28.11-2.579-.039-3.849.155-.81.123-1.591.383-2.389.571a13.613,13.613,0,0,1-6.869-.177,2.574,2.574,0,0,1-1.335-.735,1.94,1.94,0,0,1,.189-2.363,5.669,5.669,0,0,1,2.125-1.4l7.024-3.226c2.3-1.054,4.674-2.128,7.2-2.187.808-.019,1.872.347,1.8,1.151Z" transform="translate(-1402.679 -1640.272)"/></g></g><g transform="translate(-10744.297 9062.303)"><g transform="translate(0 0)"><path class="f" d="M1423.43,1642.067l.23-.019a2.817,2.817,0,0,0,2.579-3.035l-.385-4.737a2.816,2.816,0,0,0-3.035-2.579l-.23.019a2.816,2.816,0,0,0-2.579,3.036l.385,4.737A2.816,2.816,0,0,0,1423.43,1642.067Z" transform="translate(-1420.001 -1631.688)"/></g></g><g transform="translate(-10741.907 9070.425)"><g transform="translate(0 0)"><path class="d" d="M1426.415,1651.808c-.409.91-.833,1.809-1.231,2.714a24.418,24.418,0,0,0-1.106,2.831c-.436,1.456-1.256,4.29-.225,5.612,1.552,1.99,4.083.286,5.344-1.12a58.16,58.16,0,0,0,5.219-6.77,8.944,8.944,0,0,0,1.572-3.452c.646-4-1.276-9.664-5.306-8.337-1.472.484-2.1,1.742-2.448,3.373A25.731,25.731,0,0,1,1426.415,1651.808Z" transform="translate(-1423.355 -1643.089)"/></g></g><g transform="translate(-10736.318 9066.513)"><g transform="translate(0 0)"><rect class="f" width="5.863" height="10.385" rx="2.932" transform="translate(5.863 10.385) rotate(-180)"/></g></g><g transform="translate(-10751.811 9002.975)"><g transform="translate(0 0)"><path class="h" d="M1452.96,1551.012l-9.3-2.6-2.438,4.9L1412.9,1567.2a5.537,5.537,0,0,0-3.375,6.026l.452,2.746.019.007,5.132,35.168a3.447,3.447,0,0,0,3.157,2.939l1.715.126a3.445,3.445,0,0,0,3.7-3.6l-1.453-30.317.216.075,25.023-13.12.113.432-.7.584.771-.3.037.144c-5.439,3.846-12.343,9.494-18.348,14.26a6.338,6.338,0,0,0-2.212,3.449,8.65,8.65,0,0,0-.367,2.1l-3.528,28.294a3.541,3.541,0,0,0,3.528,3.244h2.435a3.541,3.541,0,0,0,3.541-3.541l5.679-22.548L1473,1574.039a9.224,9.224,0,0,0,4.37-7.229l.449-12.216Z" transform="translate(-1409.454 -1548.408)"/></g></g><g transform="translate(-10719.607 9005.536)"><g transform="translate(0 0)"><path class="f" d="M1455.212,1552q-.2.483-.391.946C1454.5,1553.713,1454.664,1552.259,1455.212,1552Z" transform="translate(-1454.657 -1552.005)"/></g></g><g transform="translate(-10719.053 8956.455)"><g transform="translate(0 0)"><path class="f" d="M1494.53,1519.9c-.034,8.931-1.05,19.035-3.821,21.581-2.14,1.968-6.05,2.119-10.194,1.385q-.391-.062-.782-.144a42.091,42.091,0,0,1-12.546-4.727c-.652-.39-8.163-3.848-11.339-5.769a.412.412,0,0,0-.412-.041c1.8-4.309,3.89-9.8,3.663-14.372-.192-3.923-2.257-7.978-2.82-11.949-1.022-7.23-1.077-17.624,6.181-21.835a8.846,8.846,0,0,1,4.363-.926,13.45,13.45,0,0,1,2.421.165c11.182,2.037,17.1,5.639,20.47,11.167,2.263,3.7,3.388,8.267,4.184,13.8.048.336.1.707.138,1.1.027.2.048.4.068.6A97.1,97.1,0,0,1,1494.53,1519.9Z" transform="translate(-1455.436 -1483.108)"/></g></g><g transform="translate(-10717.731 8970.843)"><g transform="translate(0 0)"><path class="f" d="M1457.291,1506.635c.036.086.074.175.11.261v-3.452c-.009-.047-.017-.093-.025-.14Z" transform="translate(-1457.291 -1503.305)"/></g></g><g transform="translate(-10713.104 8956.79)"><g transform="translate(0 0)"><path class="f" d="M1482.124,1491.036l-6.048,6.781a1.627,1.627,0,0,1-2.535-.135l-3.517-4.885-5.054.9a1.007,1.007,0,0,1-1.184-.992v-1.567a7.354,7.354,0,0,1,5.813-7.193,16.885,16.885,0,0,1,3.529-.368,14.783,14.783,0,0,1,8.477,2.459A3.381,3.381,0,0,1,1482.124,1491.036Z" transform="translate(-1463.786 -1483.579)"/></g></g><g transform="translate(-10693.974 8967.786)"><g transform="translate(0 0)"><path class="f" d="M1504.654,1524.479c-.034,8.931-1.049,19.035-3.821,21.581-2.14,1.968-6.05,2.119-10.194,1.385a11.418,11.418,0,0,1,.542-1.228c3.711-6.023,4.191-7.752,3.443-14.892-.295-2.827-.583-5.729.165-8.466.721-2.6,2.367-5.117,1.866-7.765a15.908,15.908,0,0,0-1.359-3.382,12.952,12.952,0,0,1-.837-7.532,7.03,7.03,0,0,1,1.791-3.773,5.1,5.1,0,0,1,3.587-1.393c2.263,3.7,3.388,8.267,4.184,13.8.048.336.1.707.137,1.1.027.192.048.4.068.6C1504.483,1517.118,1504.641,1520.651,1504.654,1524.479Z" transform="translate(-1490.64 -1499.015)"/></g></g><g transform="translate(-10709.36 8956.879)"><g transform="translate(0 0)"><path class="d" d="M1479.552,1487.4a3,3,0,0,1-.96,2.133,6.677,6.677,0,0,1-8.513.076,2.873,2.873,0,0,1,0-4.418c.062-.055.13-.117.2-.172.006-.007.014-.014.02-.014a5.918,5.918,0,0,1,2.909-1.221c.178-.027.357-.048.542-.062s.363-.021.548-.021a6.1,6.1,0,0,1,4.294,1.571A2.991,2.991,0,0,1,1479.552,1487.4Z" transform="translate(-1469.043 -1483.704)"/></g></g><g transform="translate(-10720.013 8930.563)"><g transform="translate(11.344 18.453)"><g transform="translate(0.343 0.343)"><path class="l" d="M1479.006,1473.15V1486.5a6.1,6.1,0,0,1-4.294,1.571,6.219,6.219,0,0,1-4.123-1.413.93.93,0,0,1-.1-.083V1473.15Z" transform="translate(-1470.493 -1473.15)"/></g><path class="n" d="M1474.573,1488.275a6.572,6.572,0,0,1-4.352-1.5c0,.009-.041-.032-.067-.056l-.106-.1-.038-.181v-13.768h9.2V1486.5l-.1.1A6.5,6.5,0,0,1,1474.573,1488.275Zm-3.876-1.993a5.964,5.964,0,0,0,3.876,1.306,5.883,5.883,0,0,0,3.951-1.374v-12.861H1470.7Z" transform="translate(-1470.012 -1472.668)"/></g><g class="m" transform="translate(11.686 20.649)"><path class="l" d="M1478.567,1475.75l-.734,1.091-3.712,5.316-.521.741-3.011,4.507a.932.932,0,0,1-.1-.083v-6.956l.006-.034a50.141,50.141,0,0,1,4.1-4.356l3.32-.185Z" transform="translate(-1470.493 -1475.75)"/></g><g transform="translate(2.716 5.886)"><path class="l" d="M1477.51,1466.52c-.034.5-.615.9-1.228,1.3-.205.137-.41.273-.6.427-.017,0-.034,0-.051.034a1.966,1.966,0,0,0-.392.341,1,1,0,0,0-.29.494,9.874,9.874,0,0,1-.6,1.859,10.075,10.075,0,0,1-3.856,4.538,10.423,10.423,0,0,1-1.143.6,7.864,7.864,0,0,1-2.474.682,6.31,6.31,0,0,1-.989.034A8.266,8.266,0,0,1,1458.2,1470a15.723,15.723,0,0,1-.29-2.541c-.017-.99,0-1.962.034-2.918.068-1.518.12-3.036.17-4.537.017-.614.051-1.211.068-1.825a1.968,1.968,0,0,1,.017-.836,2.785,2.785,0,0,1,1.45-1.825,6.237,6.237,0,0,1,3.582-.41,18.426,18.426,0,0,1,7.114,2.065,9.944,9.944,0,0,1,4.675,5.561C1475.361,1463.824,1477.562,1465.377,1477.51,1466.52Z" transform="translate(-1457.901 -1455.027)"/></g><g transform="translate(0)"><path class="d" d="M1478.89,1455.951a9.507,9.507,0,0,0-2.231-5.667,10,10,0,0,0-4.718-2.932,10.456,10.456,0,0,0-3.743-.572c-1.786.123-3.428.979-5.152,1.461-1.772.5-3.647.6-5.375,1.231s-3.377,2-3.566,3.83c-.194,1.886,1.271,3.625,3.012,4.377a13.553,13.553,0,0,0,5.6.709c1.288-.019,3.974-.563,5.137.039,1.774.92,1.113,3.6,1.956,5.031a1.374,1.374,0,0,0,1.231.7c1.161-.081,1.576-1.72,2.67-2.116a1.675,1.675,0,0,1,1.995.953,2.341,2.341,0,0,1-.369,2.293c-.523.684-1.547.759-2.015,1.305-.388.452-.242,1.227-.087,1.95a1.938,1.938,0,0,0,1.155,1.465C1478.979,1471.589,1479.052,1458.117,1478.89,1455.951Z" transform="translate(-1454.089 -1446.765)"/></g></g><g transform="translate(-10963.579 8985.814)"><g transform="translate(0 0)"><path class="e" d="M1116.7,1524.443a6.86,6.86,0,0,1-3.077.219l-1.433,49.075a1.715,1.715,0,0,0,1.664,1.764h.051a1.715,1.715,0,0,0,1.713-1.665l1.445-49.515C1116.946,1524.36,1116.829,1524.406,1116.7,1524.443Z" transform="translate(-1112.194 -1524.321)"/></g></g><g transform="translate(-10739.046 9120.56)"><g transform="translate(0 0)"><path class="g" d="M1431.783,1765.474a1.715,1.715,0,0,1-1.71-1.62l-2.7-48.582a1.715,1.715,0,1,1,3.425-.19l2.7,48.582a1.716,1.716,0,0,1-1.617,1.807C1431.847,1765.473,1431.815,1765.474,1431.783,1765.474Z" transform="translate(-1427.371 -1713.463)"/></g></g><g transform="translate(-10968.833 8935.491)"><g transform="translate(0 0)"><path class="g" d="M1425.3,1578.547l-216.268-124.866-95.794,50.15-7.015,4.051a2.809,2.809,0,0,0-1.4,2.431v1.9a2.829,2.829,0,0,0,1.415,2.45L1333.188,1645.7a4.507,4.507,0,0,0,4.507,0l100.072-57.778a3.778,3.778,0,0,0,1.887-3.27v-2.979Z" transform="translate(-1104.82 -1453.681)"/></g></g><g transform="translate(-10968.594 8928.622)"><g transform="translate(0 0)"><path class="k" d="M1335.538,1636.328l-230.265-132.947a.238.238,0,0,1,0-.412l100.514-58.034a6.685,6.685,0,0,1,6.684,0l227.279,131.223Z" transform="translate(-1105.154 -1444.04)"/></g></g><g transform="translate(-10844.176 9028.912)"><g transform="translate(0 0)"><path class="d" d="M1279.8,1584.988c.016,0,.031.015.046.031a.866.866,0,0,0,.016-.2A.232.232,0,0,1,1279.8,1584.988Z" transform="translate(-1279.801 -1584.819)"/></g></g><g transform="translate(-10852.348 9032.274)"><g transform="translate(0 0)"><path class="l" d="M1269.909,1589.538l-1.561,10.987c-.216,1.521,1.572,2.753,3.994,2.753s4.559-1.232,4.775-2.753h.04l1.561-10.987Z" transform="translate(-1268.33 -1589.538)"/></g></g><g transform="translate(-10855.53 9013.587)"><g transform="translate(19.42 12.814)"><path class="h" d="M1294.27,1587.928a3.321,3.321,0,1,1,3.147-3.317A3.24,3.24,0,0,1,1294.27,1587.928Zm0-6.119a2.808,2.808,0,1,0,2.633,2.8A2.725,2.725,0,0,0,1294.27,1581.809Z" transform="translate(-1291.122 -1581.294)"/></g><g transform="translate(3.31 7.03)"><path class="l" d="M1272.981,1586.138c-.961-1.432-1.895,1.926-2.135.409-.249-1.572-2.331-.913-2.337-2.518-.005-1.141,1.047-2.358,1.518-3.346a7.148,7.148,0,0,1,2.33-2.909,13.773,13.773,0,0,1,4.348-1.871,33.609,33.609,0,0,1,5.2-1.034l.485-1.7h5.453V1589.1a3.1,3.1,0,0,1-.106.661,6.64,6.64,0,0,1-8.931,4.572Z" transform="translate(-1268.509 -1573.174)"/></g><g transform="translate(0 0)"><path class="d" d="M1289.793,1569.918a3.855,3.855,0,0,1-1.177,1.661c-2.408,2.215-4.653,2.327-6.7,4.209-1.412,1.292-2.788,4.726-2.7,7.385a1.525,1.525,0,0,0-.072.277,1,1,0,0,0,.091.2,3.772,3.772,0,0,0,.815,2.141,5.068,5.068,0,0,0,3.385,1.551,4.466,4.466,0,0,0,3.313-.96c-.1.092.1,3.25-.123,3.828a4.69,4.69,0,0,1-2.578,2.745c-2.557,1.084-5.45-.228-7.518-1.8-1.253-.952-2.726-3.743-4.245-3.988l-3.1-.5a3.36,3.36,0,0,1-3.62-2.862c-1.629-5.833-3.362-11.312,1.327-16.647,4.345-4.911,16.758-5.114,21.827-.738A3.408,3.408,0,0,1,1289.793,1569.918Z" transform="translate(-1263.862 -1563.306)"/></g><g transform="translate(7.36 14.674)"><path class="d" d="M1281.5,1594.071l-6.885-2.262-.422-7.9h7.306Z" transform="translate(-1274.194 -1583.904)"/></g><g transform="translate(12.088 15.803)"><path class="l" d="M1281,1589.563c.5,1.833,1.987,3.01,3.32,2.632s2.007-2.171,1.507-4-1.987-3.01-3.32-2.631S1280.5,1587.731,1281,1589.563Z" transform="translate(-1280.83 -1585.489)"/></g><g transform="translate(17.64 14.048)"><g transform="translate(0 0)"><rect class="h" width="7.719" height="0.515" transform="translate(0 3.166) rotate(-24.214)"/></g></g><g transform="translate(16.012 8.23)"><rect class="d" width="2.906" height="11.138" rx="1.453"/></g></g><g transform="translate(-10844.189 9103.066)"><g transform="translate(0 24.766)"><path class="h" d="M1295.835,1724.178c-2.107-1.656-6.931,1.229-9.245,1.745-1.5.333-6.948.643-6.526,3.234a8.966,8.966,0,0,0-.271,1.986,7.708,7.708,0,0,0,.24,2.529,6.749,6.749,0,0,0,3.2,1.921,4.12,4.12,0,0,0,.432-.051,9.581,9.581,0,0,0,2.864-1.345c2.854-1.749,7.13-3.285,9.276-5.929C1296.762,1727.088,1297.03,1725.116,1295.835,1724.178Z" transform="translate(-1279.783 -1723.671)"/></g><g transform="translate(0.971 21.51)"><g transform="translate(0 0)"><path class="f" d="M2.931,0H7.454a2.931,2.931,0,0,1,2.931,2.931v0a2.93,2.93,0,0,1-2.93,2.93H2.932A2.932,2.932,0,0,1,0,2.931v0A2.931,2.931,0,0,1,2.931,0Z" transform="translate(0 10.384) rotate(-89.292)"/></g></g><g transform="translate(0.094 0)"><path class="h" d="M1280.046,1688.907l-.131,25.03a3.446,3.446,0,0,0,3.157,2.939l1.715.126a3.446,3.446,0,0,0,3.7-3.6l3.07-24.493Z" transform="translate(-1279.915 -1688.907)"/></g></g><g transform="translate(-10868.618 9080.042)"><g transform="translate(0 0)"><path class="h" d="M1285.2,1671.315l-28.647,17.87-6.935-4.177a8.535,8.535,0,0,1-4.129-7.313v-9.961l1.475,1.091,3.169-1.359,25.189-10.8.487-.042c.316-.028.625-.041.933-.041a11.3,11.3,0,0,1,10.954,8.52c0,.013.007.027.007.041A5.682,5.682,0,0,1,1285.2,1671.315Z" transform="translate(-1245.49 -1656.587)"/></g></g><g transform="translate(-10868.618 9087.409)"><g transform="translate(0 0)"><path class="d" d="M1302.68,1675.456a11.311,11.311,0,0,0-10.955-8.527c-.309,0-.618.013-.933.041l-.487.041-2.6,1.112-14.827,6.363a20.721,20.721,0,0,1-20.485-2.376l-2.258-1.668-4.644-3.43v13.658a8.535,8.535,0,0,0,4.129,7.313l6.935,4.177,8.082,4.864a10.572,10.572,0,0,0,11.051-.083l24.5-15.284A5.672,5.672,0,0,0,1302.68,1675.456Z" transform="translate(-1245.49 -1666.929)"/></g></g><g transform="translate(-10839.663 9020.152)"><g transform="translate(0 0)"><path class="e" d="M1338.487,1588.312l-26.985-15.458a2.391,2.391,0,0,0-1.658-.284c-.765.176-1.482.417-1.48,1.086l-.041,25.082,2.374,1.4c-.776.378-24.464,11.908-24.5,11.936l-.057.967a1.166,1.166,0,0,0,.582,1.012c4.031,2.335,27.652,15.99,27.652,15.99a2.511,2.511,0,0,0,2.512,0l22.449-12.976a.758.758,0,0,0,.379-.656l.039-25.929A2.512,2.512,0,0,0,1338.487,1588.312Z" transform="translate(-1286.136 -1572.522)"/><g transform="translate(22.099 0.345)"><path class="h" d="M1347.876,1616.468l-30.656-17.491-.063-25.028a.939.939,0,0,1,1.406-.818l28.27,16.195a1.982,1.982,0,0,1,1,1.716Z" transform="translate(-1317.157 -1573.007)"/><g transform="translate(2.104 3.034)"><path class="d" d="M1320.11,1598.848v-21.583l26.381,15.142.054,21.615Z" transform="translate(-1320.11 -1577.266)"/></g></g><g transform="translate(0.023 26.135)"><path class="o" d="M1338.946,1626.878l-30.64-17.67-21.668,12.523a.94.94,0,0,0,0,1.627l28.208,16.3a1.982,1.982,0,0,0,1.985,0Z" transform="translate(-1286.168 -1609.208)"/></g><g transform="translate(13.231 29.778)"><g transform="translate(27.673 10.574)"><path class="e" d="M1343.554,1630.352l2.079,1.194,2.1-1.188-2.079-1.194Z" transform="translate(-1343.554 -1629.164)"/></g><g transform="translate(24.604 8.812)"><path class="e" d="M1339.246,1627.878l2.08,1.194,2.1-1.188-2.08-1.194Z" transform="translate(-1339.246 -1626.69)"/></g><g transform="translate(21.535 7.049)"><path class="e" d="M1334.938,1625.4l2.079,1.194,2.1-1.188-2.08-1.194Z" transform="translate(-1334.938 -1624.216)"/></g><g transform="translate(18.466 5.287)"><path class="e" d="M1330.63,1622.93l2.079,1.194,2.1-1.188-2.079-1.194Z" transform="translate(-1330.63 -1621.742)"/></g><g transform="translate(15.397 3.524)"><path class="e" d="M1326.322,1620.456l2.079,1.194,2.1-1.188-2.079-1.194Z" transform="translate(-1326.322 -1619.268)"/></g><g transform="translate(12.328 1.762)"><path class="e" d="M1322.014,1617.983l2.079,1.194,2.1-1.189-2.08-1.194Z" transform="translate(-1322.014 -1616.794)"/></g><g transform="translate(9.259)"><path class="e" d="M1317.706,1615.509l3.486,2,2.1-1.188-3.486-2Z" transform="translate(-1317.706 -1614.321)"/></g><g transform="translate(24.723 12.242)"><path class="e" d="M1339.413,1632.693l2.079,1.194,2.1-1.188-2.079-1.194Z" transform="translate(-1339.413 -1631.505)"/></g><g transform="translate(21.653 10.479)"><path class="e" d="M1335.1,1630.219l2.079,1.194,2.1-1.188-2.08-1.194Z" transform="translate(-1335.104 -1629.031)"/></g><g transform="translate(18.584 8.717)"><path class="e" d="M1330.8,1627.745l2.079,1.194,2.1-1.188-2.079-1.194Z" transform="translate(-1330.796 -1626.557)"/></g><g transform="translate(15.515 6.954)"><path class="e" d="M1326.488,1625.271l2.08,1.194,2.1-1.188-2.079-1.194C1327.75,1624.559,1327.329,1624.8,1326.488,1625.271Z" transform="translate(-1326.488 -1624.083)"/></g><g transform="translate(12.446 5.192)"><path class="e" d="M1322.18,1622.8l2.079,1.193,2.1-1.188-2.08-1.194Z" transform="translate(-1322.18 -1621.609)"/></g><g transform="translate(9.377 3.43)"><path class="e" d="M1317.872,1620.324l2.079,1.194,2.1-1.189-2.079-1.193Z" transform="translate(-1317.872 -1619.136)"/></g><g transform="translate(6.309 1.668)"><path class="e" d="M1313.565,1617.85l2.079,1.194,2.1-1.188-2.079-1.194Z" transform="translate(-1313.565 -1616.662)"/></g><g transform="translate(21.772 13.91)"><path class="e" d="M1335.271,1635.034l2.079,1.194,2.1-1.188-2.08-1.194Z" transform="translate(-1335.271 -1633.846)"/></g><g transform="translate(18.703 12.147)"><path class="e" d="M1330.963,1632.56l2.08,1.194,2.1-1.188-2.08-1.194Z" transform="translate(-1330.963 -1631.372)"/></g><g transform="translate(15.634 10.385)"><path class="e" d="M1326.655,1630.087l2.079,1.193,2.1-1.188-2.08-1.194Z" transform="translate(-1326.655 -1628.898)"/></g><g transform="translate(12.565 8.622)"><path class="e" d="M1322.347,1627.612l2.079,1.195,2.1-1.188-2.08-1.195Z" transform="translate(-1322.347 -1626.424)"/></g><g transform="translate(9.496 6.86)"><path class="e" d="M1318.039,1625.139l2.079,1.194,2.1-1.188-2.079-1.194Z" transform="translate(-1318.039 -1623.951)"/></g><g transform="translate(5.102 4.336)"><path class="e" d="M1311.87,1621.6l3.4,1.956,2.1-1.188-3.4-1.956Z" transform="translate(-1311.87 -1620.408)"/></g><g transform="translate(3.358 3.335)"><path class="e" d="M1309.423,1620.191l2.079,1.194,2.1-1.188-2.079-1.194Z" transform="translate(-1309.423 -1619.003)"/></g><g transform="translate(6.138 8.759)"><path class="e" d="M1313.325,1627.8,1315.4,1629l2.1-1.188-2.079-1.194Z" transform="translate(-1313.325 -1626.616)"/></g><g transform="translate(3.069 6.996)"><path class="e" d="M1309.017,1625.33l2.079,1.194,2.1-1.188-2.079-1.194Z" transform="translate(-1309.017 -1624.142)"/></g><g transform="translate(0 5.234)"><path class="e" d="M1304.709,1622.856l2.079,1.194,2.1-1.188-2.079-1.194Z" transform="translate(-1304.709 -1621.668)"/></g><g transform="translate(9.207 10.521)"><path class="e" d="M1331.234,1635.692l-11.5-6.6-2.1,1.188q5.815,3.341,11.632,6.68Z" transform="translate(-1317.633 -1629.089)"/></g></g><g transform="translate(11.474 41.062)"><path class="e" d="M1318.255,1635.959l-9.91-5.721a.571.571,0,0,0-.588.009l-5.415,3.335a.211.211,0,0,0,.005.363l9.906,5.723a.572.572,0,0,0,.588-.008l5.419-3.338A.211.211,0,0,0,1318.255,1635.959Z" transform="translate(-1302.242 -1630.161)"/></g></g></g><g transform="translate(-10864.487 9040.362)"><g transform="translate(0 0)"><path class="l" d="M1291.085,1620.372c-1.861,1.386-11.369,8.4-15.7,10.354a18.17,18.17,0,0,1-7.536,1.626,15.881,15.881,0,0,1-5.461-.969,11.638,11.638,0,0,1-6.884-6.179,10.206,10.206,0,0,1-.645-2.049l-3.5-17.283c-.423-2.082,1.279-4.248,3.8-4.836s4.909.625,5.332,2.712l3.5,17.283c0,.012,0,.022.009.034a4.25,4.25,0,0,0,2.833,3.075,6.574,6.574,0,0,0,4.921-.25c2.392-1.082,9.438-6.007,13.679-9.165a5.14,5.14,0,0,1,6.489.106C1293.479,1616.387,1293.106,1618.874,1291.085,1620.372Z" transform="translate(-1251.29 -1600.889)"/></g></g><g transform="translate(-10868.64 9039.457)"><g transform="translate(0 0)"><path class="f" d="M1280.913,1654.188a5.3,5.3,0,0,1-3.519,5.152c-1.29.459-3.437,1.193-5.131,1.592a11.279,11.279,0,0,1-1.337.24,22.622,22.622,0,0,1-14.166-3.231l-9.329-5.433a3.989,3.989,0,0,1-1.969-3.533l.981-38.723a11.261,11.261,0,0,1,5.591-9.714,8.849,8.849,0,0,1,4.363-.919,19,19,0,0,1,2.435.165,28.654,28.654,0,0,1,11.5,4.006c2.415,1.53,5.413,2.524,7.347,4.431a6.471,6.471,0,0,1,2,4.686C1279.719,1614.272,1280.913,1654.188,1280.913,1654.188Z" transform="translate(-1245.459 -1599.619)"/></g><g class="p" transform="translate(24.72 11.821)"><path class="f" d="M1283.447,1618.311a.579.579,0,0,1-.253.276,21.2,21.2,0,0,0-.328,3.969c-.014,2.484.1,5.042-.781,7.368a33.055,33.055,0,0,0-1.763,4.17c-.809,3.512,1.639,6.873,2.346,10.4.782,3.924-.611,7.909-.981,11.888a36.417,36.417,0,0,0,.556,9.323c1.695-.4,3.841-1.132,5.131-1.592a5.3,5.3,0,0,0,3.519-5.152l-1.225-40.953C1287.85,1615.994,1284.86,1615.146,1283.447,1618.311Z" transform="translate(-1280.158 -1616.212)"/></g></g><g transform="translate(-10839.866 9050.352)"><g transform="translate(0 0)"><path class="l" d="M1320.159,1638.371c-1.365,1.708-8.344,10.343-11.668,12.77a10.164,10.164,0,0,1-5.98,2.052,9.849,9.849,0,0,1-4.578-1.133,13.733,13.733,0,0,1-6.335-7.476,18.226,18.226,0,0,1-.761-2.494L1286,1621.037c-.584-2.536.563-5.194,2.554-5.933s4.087.718,4.671,3.261l4.833,21.053c.006.013.006.027.011.041a5.483,5.483,0,0,0,2.667,3.726,3.718,3.718,0,0,0,4-.348c1.833-1.341,7.037-7.412,10.146-11.3a3.224,3.224,0,0,1,5.321.071A5.741,5.741,0,0,1,1320.159,1638.371Z" transform="translate(-1285.851 -1614.912)"/></g></g><g transform="translate(-10842.223 9050.064)"><g transform="translate(0 0)"><path class="f" d="M1300.359,1638.844l-5.99-20.088a5.88,5.88,0,0,0-2.89-3.52,6.127,6.127,0,0,0-4.592-.488,5.977,5.977,0,0,0-3.6,2.823,5.738,5.738,0,0,0-.5,4.482l6.006,20.155a15.953,15.953,0,0,0,1.031,2.6l.253.5a.7.7,0,0,0,.838.339l.539-.177c.311-.1.628-.219.916-.337a23.851,23.851,0,0,0,7.669-4.881l.337-.322a.663.663,0,0,0,.137-.78Z" transform="translate(-1282.543 -1614.509)"/></g></g><g transform="translate(-10823.891 9095.936)"><g transform="translate(0 40.717)"><path class="h" d="M1325.669,1736.6c-2.283-1.794-7.509,1.332-10.017,1.89-1.621.361-7.529.7-7.071,3.506a9.705,9.705,0,0,0-.294,2.152,8.367,8.367,0,0,0,.26,2.74,7.312,7.312,0,0,0,3.468,2.081,4.489,4.489,0,0,0,.467-.055,10.4,10.4,0,0,0,3.1-1.457c3.093-1.9,7.726-3.56,10.052-6.425C1326.674,1739.755,1326.964,1737.619,1325.669,1736.6Z" transform="translate(-1308.276 -1736.052)"/></g><g transform="translate(1.054 37.19)"><g transform="translate(0 0)"><rect class="f" width="6.353" height="11.253" rx="3.177" transform="translate(6.353 11.328) rotate(-179.314)"/></g></g><g transform="translate(0.102 0)"><path class="d" d="M1309.114,1679.913l-.695,39.988a3.733,3.733,0,0,0,3.42,3.185l1.859.137a3.734,3.734,0,0,0,4-3.9l3.076-40.422Z" transform="translate(-1308.419 -1678.898)"/></g></g><g transform="translate(-10754.484 9012.383)"><g transform="translate(2.549 1.054)"><path class="e" d="M1461.191,1579.315l-1.024.742-28.159-16.963-22.729,15.773,24.745,13.8a5.97,5.97,0,0,0,5.6.117l21.169-11.351a1.386,1.386,0,0,0,.4-2.119Z" transform="translate(-1409.279 -1563.094)"/></g><g transform="translate(0 0)"><path class="q" d="M1433.214,1592.733l-27.513-15.345,22.729-15.773,31.732,17.274Z" transform="translate(-1405.701 -1561.615)"/></g><g transform="translate(17.827 4.503)"><path class="e" d="M1436.862,1567.936l18.146,9.264-7.583,2.942-16.7-8.3Z" transform="translate(-1430.725 -1567.936)"/></g></g><g transform="translate(-10714.935 8969.178)"><g transform="translate(0 0)"><path class="l" d="M1494.366,1506.166v31.024a11.848,11.848,0,0,1-4.822,9.525l-20.058,11.954a5.2,5.2,0,1,1-6.14-8.388l20.052-11.954a1.423,1.423,0,0,0,.572-1.137v-31.024a5.2,5.2,0,0,1,10.4,0Z" transform="translate(-1461.217 -1500.968)"/></g></g><g transform="translate(-10692.323 8967.868)"><g transform="translate(0 0)"><path class="f" d="M1498.251,1535.54a5.992,5.992,0,0,0,5.533-2.062,3.134,3.134,0,0,0,.787-2.1v-25c0-4-2.6-7.248-5.808-7.248s-5.807,3.243-5.807,7.248v25.9a1.831,1.831,0,0,0,1.117,1.686A18.6,18.6,0,0,0,1498.251,1535.54Z" transform="translate(-1492.956 -1499.13)"/></g></g><g transform="translate(-10719.496 9020.495)"><g transform="translate(0 0)"><path class="l" d="M1455.315,1580.8h0a1.655,1.655,0,0,0,2.333-.038l4.8-4.958a1.656,1.656,0,0,0-.039-2.334h0a1.656,1.656,0,0,0-2.333.039l-4.8,4.958A1.654,1.654,0,0,0,1455.315,1580.8Z" transform="translate(-1454.814 -1573.003)"/></g></g><g transform="translate(-10743.291 8996.855)"><g transform="translate(0 0)"><path class="l" d="M1446.679,1548.411c.331-4.117-.184-9.289-4.871-8.514a3.313,3.313,0,0,1-1.262-.032,1.422,1.422,0,0,1-.385.446l-16.622,13.326a5.2,5.2,0,0,0,6.14,8.389l16.628-13.326C1446.436,1548.607,1446.557,1548.509,1446.679,1548.411Z" transform="translate(-1421.412 -1539.819)"/></g></g><g transform="translate(-10845.213 8936.29)"><g transform="translate(0 0)"><path class="f" d="M1302.765,1456.483h0a3.677,3.677,0,0,1-1.087,5.086L1284.022,1473a3.678,3.678,0,0,1-5.086-1.088h0a3.677,3.677,0,0,1,1.088-5.086l17.655-11.436A3.677,3.677,0,0,1,1302.765,1456.483Z" transform="translate(-1278.345 -1454.804)"/></g></g><g transform="translate(-10817.21 8952.355)"><g transform="translate(0 0)"><path class="j" d="M1347.187,1479.995h0a4.045,4.045,0,0,1-2.388,5.2l-21.7,8.037a4.045,4.045,0,0,1-5.2-2.388h0a4.045,4.045,0,0,1,2.388-5.2l21.7-8.036A4.045,4.045,0,0,1,1347.187,1479.995Z" transform="translate(-1317.652 -1477.354)"/></g></g><g transform="translate(-10821.155 8961.376)"><g transform="translate(0 0)"><path class="l" d="M1315.547,1501.256c-.047,0-.094,0-.141,0a3.43,3.43,0,0,1-3.289-3.565l.053-1.31a3.426,3.426,0,0,1,.191-1,9.042,9.042,0,0,1,4.194-4.94,3.43,3.43,0,1,1,3.294,6.017,2.188,2.188,0,0,0-.851.836l-.027.672A3.43,3.43,0,0,1,1315.547,1501.256Z" transform="translate(-1312.114 -1490.017)"/></g></g><g transform="translate(-10850.936 8947.038)"><g transform="translate(0 4.18)"><path class="l" d="M1270.814,1483.551h0a1.655,1.655,0,0,0,2.333-.039l4.8-4.958a1.656,1.656,0,0,0-.039-2.333h0a1.655,1.655,0,0,0-2.334.039l-4.8,4.958A1.654,1.654,0,0,0,1270.814,1483.551Z" transform="translate(-1270.313 -1475.759)"/></g><g transform="translate(3.705 0)"><path class="l" d="M1278.946,1481.13c-.047,0-.093,0-.141,0a3.43,3.43,0,0,1-3.289-3.566l.053-1.309a3.463,3.463,0,0,1,.192-1,9.044,9.044,0,0,1,4.194-4.94,3.43,3.43,0,1,1,3.295,6.018,2.183,2.183,0,0,0-.851.836l-.027.672A3.43,3.43,0,0,1,1278.946,1481.13Z" transform="translate(-1275.514 -1469.891)"/></g></g><g transform="translate(-10757.847 9001.547)"><g transform="translate(0 0)"><g transform="translate(1.738)"><path class="e" d="M1405.607,1546.625l12.6,6.927c.636.345.294.157,13.416,7.153a1.93,1.93,0,0,1,.979,1.4l3.346,24.484a1.4,1.4,0,0,1-2.169,1.4l-26.014-14.079a1.931,1.931,0,0,1-.979-1.4l-3.346-24.483A1.4,1.4,0,0,1,1405.607,1546.625Z" transform="translate(-1403.422 -1546.405)"/></g><g transform="translate(0 0.502)"><path class="d" d="M1403.166,1547.328l12.6,6.927,13.416,7.153a1.93,1.93,0,0,1,.979,1.4l3.346,24.485a1.4,1.4,0,0,1-2.168,1.4l-26.014-14.079a1.934,1.934,0,0,1-.979-1.4L1401,1548.732A1.4,1.4,0,0,1,1403.166,1547.328Z" transform="translate(-1400.982 -1547.109)"/></g></g><g transform="translate(13.065 20.032)"><path class="k" d="M1422.314,1577.321c0,.955-.67,1.342-1.5.864a3.306,3.306,0,0,1-1.5-2.592c0-.955.67-1.342,1.5-.864A3.308,3.308,0,0,1,1422.314,1577.321Z" transform="translate(-1419.321 -1574.524)"/></g></g><g transform="translate(-10958.354 8923.228)"><g transform="translate(0 0.892)"><g transform="translate(2.184 144.557)"><g class="c"><path class="r" d="M1129.491,1659.481c7.863,4.54,20.612,4.54,28.476,0s7.863-11.9,0-16.441-20.613-4.54-28.476,0S1121.627,1654.941,1129.491,1659.481Z" transform="translate(-1123.593 -1639.635)"/></g></g><g transform="translate(0 28.658)"><path class="d" d="M1129.139,1498.753a20.311,20.311,0,0,0-.744,8.636,19.79,19.79,0,0,0,.959,4.181l5.469,15.565a3.845,3.845,0,0,1-2.361,4.9,4.143,4.143,0,0,1-.94.2,3.841,3.841,0,0,1-3.957-2.565l-5.468-15.549a28.244,28.244,0,0,1-.3-17.659l5.25-16.821a3.851,3.851,0,0,1,7.347,2.307Z" transform="translate(-1120.528 -1476.948)"/></g><g transform="translate(0.085 58.761)"><path class="l" d="M1132.5,1544.184a4.151,4.151,0,0,1-.94.2,3.841,3.841,0,0,1-3.957-2.565l-5.468-15.549a28.173,28.173,0,0,1-1.485-7.071,26.748,26.748,0,0,0,7.782.338,19.761,19.761,0,0,0,.96,4.181l5.469,15.565A3.845,3.845,0,0,1,1132.5,1544.184Z" transform="translate(-1120.647 -1519.203)"/></g><g transform="translate(3.444 69.209)"><path class="l" d="M1128.473,1582.238l-3.111-37.423.8-8.957,19.086,2.792,11.046-4.782-1.185,47.345s-3.985,34.685-4.033,35.037a23.128,23.128,0,0,0-.417,4.806,9.234,9.234,0,0,1-6.5-2.178,4.876,4.876,0,0,1,.312-1.74c.007.052.018.078.024-.046l-.633-33.017-2.219-32.41-.855,15.11-1.04,15.387-6.326,37.165c-2.029-.019-3.391-.067-5.417-.167-.081-.041-.162-.081-.243-.124a3.9,3.9,0,0,1,.189-.517Z" transform="translate(-1125.362 -1533.869)"/></g><g transform="translate(26.956 156.04)"><path class="h" d="M1159.755,1660.024c2.621,1.854,2.367,3.59,6.3,2.621a7.3,7.3,0,0,0,3.4-1.631,2.7,2.7,0,0,0,.645-3.256,4.358,4.358,0,0,0-2.848-1.582,17.545,17.545,0,0,0-5.644-.326,4.821,4.821,0,0,0-2.535.832C1157.679,1657.808,1158.58,1659.192,1159.755,1660.024Z" transform="translate(-1158.366 -1655.755)"/></g><g transform="translate(5.751 149.913)"><g transform="translate(0 0)"><rect class="s" width="6.646" height="7.72" rx="1.541" transform="translate(6.646 7.72) rotate(180)"/></g></g><g transform="translate(22.788 153.001)"><path class="l" d="M1156.8,1651.488a6.881,6.881,0,0,1,1.771,1.271,25.411,25.411,0,0,1,5.371,5.487,4.625,4.625,0,0,1-3.2,2.535,21.783,21.783,0,0,1-2.493-.882,13.593,13.593,0,0,1-5.505-4.564c-.166-.24-.326-.564-.162-.805l2.2-2.125c2.2-2.129,5.452.91,7.67,2.067.839.437,1.79,1.046,1.822,1.991.03.884-.785,1.557-1.584,1.936a7.606,7.606,0,0,1-2.5.692Z" transform="translate(-1152.515 -1651.488)"/></g><g transform="translate(21.26 156.381)"><rect class="h" width="3.055" height="7.325" rx="1.431"/></g><g transform="translate(20.429 153.199)"><path class="h" d="M1150.361,1651.97a3.488,3.488,0,0,1,3.185.462c1.54.931,2.682,2.45,4.027,3.62,1.854,1.612,3.721,2.514,5.99,1.477.746.454,1.27.976,1.247,1.579-.034.877-1.607,2-2.3,2.479-2.179,1.5-5.682-.907-7.454-1.808-1.4-.71-2.877-.578-4.206-1.171C1149.059,1657.811,1148.491,1653.653,1150.361,1651.97Z" transform="translate(-1149.205 -1651.766)"/></g><g transform="translate(7.586 152.351)"><rect class="h" width="2.976" height="7.136" rx="1.488"/></g><g transform="translate(5.527 148.284)"><path class="h" d="M1131.464,1652.1h1.2a3.177,3.177,0,0,0,3.178-3.177V1647.9a3.034,3.034,0,0,0-3.034-3.034h-1.485a3.035,3.035,0,0,0-3.035,3.034v1.025A3.178,3.178,0,0,0,1131.464,1652.1Z" transform="translate(-1128.286 -1644.867)"/></g><g transform="translate(2.855 61.393)"><path class="h" d="M1152.6,1522.9l2.227,3.488a16.708,16.708,0,0,1,2.623,9.186l-.6,47.44s-19.211,10.608-30.187-1.427l-1.141-33.954s-3.939-19.129,3.925-23.586Z" transform="translate(-1124.535 -1522.898)"/></g><g transform="translate(5.603 26.851)"><path class="f" d="M1131.926,1505.962a29.035,29.035,0,0,1-.072,3.948,1.834,1.834,0,0,0,.834,1.712,24.116,24.116,0,0,0,3.523,1.833,19.194,19.194,0,0,0,11.346,1.481l.446-.108c2.164-.554,6.874-1.834,7.3-4.515a1.355,1.355,0,0,0,.036-.331c-.007-.251-.021-.51-.036-.769v-12.037c1.172-3.488,3.322-5.976,2.25-10.4a15.754,15.754,0,0,0-2.51-5.637,15.2,15.2,0,0,0-8.5-5.486c-1.158-.331-2.3-.6-3.336-.82a20.575,20.575,0,0,0-6.7-.252,9.609,9.609,0,0,0-6,2.667,5.532,5.532,0,0,0-.5.633c-2.79,4.185-1.309,10.038-.295,14.582A75.364,75.364,0,0,1,1131.926,1505.962Z" transform="translate(-1128.393 -1474.411)"/></g><g transform="translate(24.578 16.392)"><path class="d" d="M1155.085,1459.9c-.014,0-.029.016-.043.032a1,1,0,0,1-.014-.2A.245.245,0,0,0,1155.085,1459.9Z" transform="translate(-1155.028 -1459.73)"/></g><g transform="translate(14.157 16.512)"><path class="l" d="M1140.4,1470.966h8.574l1.057-6.31.793-4.758h-8.574Z" transform="translate(-1140.4 -1459.898)"/></g><g class="t" transform="translate(18.203 21.833)"><path class="l" d="M1146.08,1467.367l4.256,6.466h.271l1.057-6.31Z" transform="translate(-1146.08 -1467.367)"/></g><g transform="translate(23.417 14.442)"><path class="l" d="M1153.981,1457.091a.719.719,0,0,1-.547.045c-.018-.046-.009-.1-.036-.143Z" transform="translate(-1153.398 -1456.993)"/></g><g transform="translate(26.14 23.099)"><path class="l" d="M1157.707,1469.857c.1.007.2.027.3.04l-.786-.752C1157.388,1469.378,1157.547,1469.618,1157.707,1469.857Z" transform="translate(-1157.221 -1469.145)"/></g><g transform="translate(13.482 26.852)"><path class="l" d="M1139.828,1477.18c1.316,1.927,5.708,1.235,9.9-1.529-1.163-.338-2.306-.611-3.343-.824a20.727,20.727,0,0,0-6.7-.253A2.9,2.9,0,0,0,1139.828,1477.18Z" transform="translate(-1139.453 -1474.413)"/></g><g transform="translate(24.961 14.332)"><path class="d" d="M1155.623,1457.011c-.014,0-.028.016-.043.031a.979.979,0,0,1-.014-.2A.251.251,0,0,0,1155.623,1457.011Z" transform="translate(-1155.566 -1456.839)"/></g><g transform="translate(27.463 10.964)"><path class="h" d="M1161.509,1458.35a4.554,4.554,0,0,1-2.1-2.074,2.776,2.776,0,0,1,2.041-4.086,4.559,4.559,0,0,1,2.922.437c1.976.988,2.942,3.075,2.154,4.653a3.124,3.124,0,0,1-2.9,1.584A4.747,4.747,0,0,1,1161.509,1458.35Zm2.619-5.24a4.013,4.013,0,0,0-2.572-.391,2.239,2.239,0,0,0-1.662,3.326,4.007,4.007,0,0,0,1.856,1.823c1.71.855,3.635.483,4.29-.829S1165.838,1453.964,1164.128,1453.109Z" transform="translate(-1159.077 -1452.11)"/></g><g transform="translate(13.883 2.11)"><path class="l" d="M1157.232,1453.115c-.09,2.531-.524,5.027-2.007,6.884a8.735,8.735,0,0,1-6.768,2.958,7.508,7.508,0,0,1-4.029-.888c-2.305-1.38-3.384-4.354-3.968-7.163a23.655,23.655,0,0,1-.434-3.237,12.055,12.055,0,0,1,.359-3.664,10.548,10.548,0,0,1,4.612-6.013,16.618,16.618,0,0,1,7.008-2.218,5.619,5.619,0,0,1,3.519.427,3,3,0,0,1,1.423,1.972,2.293,2.293,0,0,1,.03.9c.075,2.3.15,4.584.224,6.885C1157.232,1451,1157.262,1452.046,1157.232,1453.115Z" transform="translate(-1140.015 -1439.683)"/></g><g transform="translate(9.972)"><path class="h" d="M1134.53,1447.942a15.883,15.883,0,0,0,.982,5.6,14.183,14.183,0,0,0,4.236,6.3c1.6,1.242,4.861,2.411,6.495.646,1.6-1.732.705-4.828,2.292-6.573a6.5,6.5,0,0,1,1.678-1.17,12.238,12.238,0,0,0,3.589-2.831c2.435-3.021,2.052-9.119-1.341-11.383a12.166,12.166,0,0,0-9.427-1.427,10.894,10.894,0,0,0-2.89,1.26c-.05.036-.1.064-.163.107C1136.844,1440.484,1134.572,1446.087,1134.53,1447.942Z" transform="translate(-1134.526 -1436.72)"/></g><g transform="translate(23.8 12.383)"><path class="l" d="M1154.519,1454.2a.722.722,0,0,1-.547.045c-.019-.047-.008-.1-.036-.143Z" transform="translate(-1153.936 -1454.103)"/></g><g transform="translate(24.83 12.837)"><path class="h" d="M1155.571,1459.8l3.957-1.48,5.406-3.115-.27-.467-5.366,3.1-3.917,1.461Z" transform="translate(-1155.382 -1454.74)"/></g><g transform="translate(21.944 11.396)"><path class="l" d="M1151.334,1454.517a4.1,4.1,0,0,0,.826,2.367,4.405,4.405,0,0,0,1.053,1.208,1.883,1.883,0,0,0,1.518.367c1.629-.4,1.476-2.792.971-3.967a2.868,2.868,0,0,0-2.177-1.76A1.916,1.916,0,0,0,1151.334,1454.517Z" transform="translate(-1151.33 -1452.718)"/></g><g transform="translate(24.768 33.574)"><path class="f" d="M1155.3,1486.005v31.644l.446-.108c2.164-.553,6.874-1.834,7.3-4.515a1.343,1.343,0,0,0,.036-.331c-.007-.251-.021-.51-.036-.769V1499.89c1.172-3.488,3.322-5.976,2.25-10.4a15.751,15.751,0,0,0-2.51-5.637h-5.328A2.163,2.163,0,0,0,1155.3,1486.005Z" transform="translate(-1155.295 -1483.848)"/></g><g transform="translate(8.696 57.785)"><path class="d" d="M1132.744,1522.37a28.752,28.752,0,0,0,.073-3.9l-.029-.635.559.3c5.593,3.021,10.876,5.874,19.792,2.09.318-.135.643-.259.97-.383a10.3,10.3,0,0,0,2.236-1.057l.566-.394v3.286c.014.263.028.525.034.767a1.581,1.581,0,0,1-.039.407c-.469,2.977-5.443,4.264-7.566,4.814a14.615,14.615,0,0,1-3.658.448,22.1,22.1,0,0,1-8.361-1.845,24.561,24.561,0,0,1-3.58-1.859A2.207,2.207,0,0,1,1132.744,1522.37Z" transform="translate(-1132.735 -1517.834)"/></g><g transform="translate(20.683 19.183)"><path class="f" d="M1173.04,1479.08a20.317,20.317,0,0,0,8.514-1.623c1.323-.547,3.91-2.946,5.082-3.765l12.492-9.352a3.846,3.846,0,0,1,5.354.946,4.173,4.173,0,0,1,.451.85,3.842,3.842,0,0,1-1.4,4.5L1189.74,1481.7a28.247,28.247,0,0,1-16.916,5.077l-21.568-2.9c-2.117-.076-1.684-1.767-1.609-3.884.056-2.125,5.03-6.592,7.155-6.536Z" transform="translate(-1149.561 -1463.647)"/></g><g transform="translate(67.35 12.488)"><g transform="translate(0 5.283)"><path class="l" d="M1222.91,1469.742c-2.253,1.993-5.36,2.163-6.94.378s-1.033-4.848,1.219-6.841,5.36-2.163,6.94-.379S1225.162,1467.748,1222.91,1469.742Z" transform="translate(-1215.067 -1461.666)"/></g><g transform="translate(2.618)"><path class="l" d="M1219.1,1462.368h0a1.44,1.44,0,0,1,.124-2.031l6.469-5.725a1.438,1.438,0,0,1,2.03.124h0a1.438,1.438,0,0,1-.124,2.03l-6.469,5.725A1.439,1.439,0,0,1,1219.1,1462.368Z" transform="translate(-1218.742 -1454.25)"/></g></g></g><g transform="translate(0.471 0)"><path class="d" d="M1148.678,1450.2c2.844.747,5.636-2.256,5.555-5.2s-2.2-5.461-4.615-7.133a14.077,14.077,0,0,0-15.245-.311c-4.177,2.673-5.362,7.113-5.924,12.041s-.788,9.94-1.5,14.847c-1.126,7.721-5.2,14.861-5.711,22.646-.237,3.6.4,7.452,2.765,10.179a13.244,13.244,0,0,0,8.5,4.042c4.4.538,9.13-.471,12.454-3.407,5.9-5.212,5.729-14.422,4.069-22.118s-4.324-15.758-1.829-23.224a3.637,3.637,0,0,1,2.03-2.559Z" transform="translate(-1121.188 -1435.469)"/></g></g><g transform="translate(-10925.616 8877.111)"><g transform="translate(0 0)"><path class="f" d="M1207.793,1416.475l.029-10.636c.014-5.116-3.587-11.35-8.035-13.921l-28.572-16.491c-2.238-1.3-4.267-1.416-5.733-.562q2.223-1.291,4.448-2.588c1.465-.851,3.5-.728,5.739.564l28.566,16.493c4.449,2.568,8.05,8.8,8.037,13.918l-.03,10.636c-.009,2.54-.905,4.327-2.35,5.169l-4.453,2.588C1206.887,1420.8,1207.786,1419.016,1207.793,1416.475Z" transform="translate(-1165.483 -1371.734)"/></g></g><g transform="translate(-10927.313 8879.012)"><g transform="translate(0 0)"><path class="j" d="M1171.216,1375.508c-4.449-2.573-8.072-.508-8.087,4.61l-.03,10.633c-.014,5.118,3.584,11.348,8.039,13.918a12.741,12.741,0,0,1-2.906,5.067,9.931,9.931,0,0,0,10.482-.69l20.991,12.117c4.448,2.57,8.072.509,8.089-4.608l.029-10.636c.014-5.116-3.588-11.35-8.035-13.921Z" transform="translate(-1163.099 -1374.401)"/></g></g><g transform="translate(-10894.849 9061.255)"><g transform="translate(14.88 46.519)"><g transform="translate(0 20.381)"><g transform="translate(1.048 17.962)"><path class="d" d="M1231.029,1753.784a5.259,5.259,0,0,1,2.38-4.121c1.314-.759,2.379-.144,2.379,1.374a5.259,5.259,0,0,1-2.379,4.121C1232.094,1755.916,1231.029,1755.3,1231.029,1753.784Z" transform="translate(-1231.029 -1749.338)"/><path class="d" d="M1231.029,1753.784a5.259,5.259,0,0,1,2.38-4.121c1.314-.759,2.379-.144,2.379,1.374a5.259,5.259,0,0,1-2.379,4.121C1232.094,1755.916,1231.029,1755.3,1231.029,1753.784Z" transform="translate(-1231.029 -1749.338)"/><g transform="translate(0.557 0.203)"><path class="d" d="M1235.38,1749.623l2.051,1.069-3.219,5.867-2.4-1.249.608-3.3Z" transform="translate(-1231.811 -1749.623)"/></g><g transform="translate(2.023 1.049)"><path class="f" d="M1233.868,1755.256a5.259,5.259,0,0,1,2.38-4.121c1.314-.759,2.379-.144,2.379,1.374a5.261,5.261,0,0,1-2.379,4.121C1234.933,1757.389,1233.868,1756.774,1233.868,1755.256Z" transform="translate(-1233.868 -1750.811)"/><path class="f" d="M1233.868,1755.256a5.259,5.259,0,0,1,2.38-4.121c1.314-.759,2.379-.144,2.379,1.374a5.261,5.261,0,0,1-2.379,4.121C1234.933,1757.389,1233.868,1756.774,1233.868,1755.256Z" transform="translate(-1233.868 -1750.811)"/></g></g><g transform="translate(29.66 1.97)"><path class="d" d="M1271.193,1731.336a5.261,5.261,0,0,1,2.379-4.121c1.314-.759,2.38-.144,2.38,1.374a5.259,5.259,0,0,1-2.38,4.121C1272.259,1733.468,1271.194,1732.853,1271.193,1731.336Z" transform="translate(-1271.193 -1726.89)"/><path class="d" d="M1271.193,1731.336a5.261,5.261,0,0,1,2.379-4.121c1.314-.759,2.38-.144,2.38,1.374a5.259,5.259,0,0,1-2.38,4.121C1272.259,1733.468,1271.194,1732.853,1271.193,1731.336Z" transform="translate(-1271.193 -1726.89)"/><g transform="translate(0.557 0.203)"><path class="d" d="M1275.545,1727.175l2.051,1.069-3.219,5.867-2.4-1.249.608-3.3Z" transform="translate(-1271.975 -1727.175)"/></g><g transform="translate(2.023 1.049)"><path class="f" d="M1274.032,1732.808a5.258,5.258,0,0,1,2.379-4.121c1.314-.759,2.379-.143,2.379,1.374a5.258,5.258,0,0,1-2.379,4.121C1275.1,1734.94,1274.032,1734.325,1274.032,1732.808Z" transform="translate(-1274.032 -1728.362)"/><path class="f" d="M1274.032,1732.808a5.258,5.258,0,0,1,2.379-4.121c1.314-.759,2.379-.143,2.379,1.374a5.258,5.258,0,0,1-2.379,4.121C1275.1,1734.94,1274.032,1734.325,1274.032,1732.808Z" transform="translate(-1274.032 -1728.362)"/></g></g><g transform="translate(28.319 18.669)"><path class="d" d="M1269.31,1754.775a5.259,5.259,0,0,1,2.379-4.12c1.314-.759,2.379-.144,2.379,1.373a5.258,5.258,0,0,1-2.379,4.121C1270.375,1756.908,1269.31,1756.292,1269.31,1754.775Z" transform="translate(-1269.31 -1750.33)"/><path class="d" d="M1269.31,1754.775a5.259,5.259,0,0,1,2.379-4.12c1.314-.759,2.379-.144,2.379,1.373a5.258,5.258,0,0,1-2.379,4.121C1270.375,1756.908,1269.31,1756.292,1269.31,1754.775Z" transform="translate(-1269.31 -1750.33)"/><g transform="translate(0.556 0.203)"><path class="d" d="M1273.661,1750.614l2.051,1.069-3.219,5.867-2.4-1.249.608-3.3Z" transform="translate(-1270.091 -1750.614)"/></g><g transform="translate(2.022 1.049)"><path class="f" d="M1272.148,1756.248a5.26,5.26,0,0,1,2.38-4.121c1.314-.759,2.379-.144,2.379,1.374a5.258,5.258,0,0,1-2.379,4.121C1273.214,1758.38,1272.148,1757.766,1272.148,1756.248Z" transform="translate(-1272.148 -1751.802)"/><path class="f" d="M1272.148,1756.248a5.26,5.26,0,0,1,2.38-4.121c1.314-.759,2.379-.144,2.379,1.374a5.258,5.258,0,0,1-2.379,4.121C1273.214,1758.38,1272.148,1757.766,1272.148,1756.248Z" transform="translate(-1272.148 -1751.802)"/></g></g><g transform="translate(0.54 2.564)"><path class="d" d="M1230.317,1732.169a5.26,5.26,0,0,1,2.38-4.121c1.314-.759,2.379-.144,2.379,1.374a5.258,5.258,0,0,1-2.379,4.121C1231.383,1734.3,1230.317,1733.686,1230.317,1732.169Z" transform="translate(-1230.317 -1727.723)"/><path class="d" d="M1230.317,1732.169a5.26,5.26,0,0,1,2.38-4.121c1.314-.759,2.379-.144,2.379,1.374a5.258,5.258,0,0,1-2.379,4.121C1231.383,1734.3,1230.317,1733.686,1230.317,1732.169Z" transform="translate(-1230.317 -1727.723)"/><g transform="translate(0.557 0.203)"><path class="d" d="M1234.669,1728.008l2.051,1.069-3.219,5.867-2.4-1.249.608-3.3Z" transform="translate(-1231.099 -1728.008)"/></g><g transform="translate(2.023 1.049)"><path class="f" d="M1233.156,1733.641a5.258,5.258,0,0,1,2.38-4.121c1.314-.759,2.379-.143,2.379,1.374a5.259,5.259,0,0,1-2.379,4.121C1234.221,1735.774,1233.156,1735.158,1233.156,1733.641Z" transform="translate(-1233.156 -1729.195)"/><path class="f" d="M1233.156,1733.641a5.258,5.258,0,0,1,2.38-4.121c1.314-.759,2.379-.143,2.379,1.374a5.259,5.259,0,0,1-2.379,4.121C1234.221,1735.774,1233.156,1735.158,1233.156,1733.641Z" transform="translate(-1233.156 -1729.195)"/></g></g><path class="k" d="M1264.482,1740.659l-10.529-6.079,10.529-6.079c1.727-1,1.727-2.631,0-3.628h0a6.971,6.971,0,0,0-6.285,0l-10.529,6.079-10.53-6.079a6.968,6.968,0,0,0-6.284,0c-1.729,1-1.729,2.63,0,3.628l10.529,6.079-10.529,6.079c-1.729,1-1.729,2.631,0,3.629h0a6.966,6.966,0,0,0,6.284,0l10.53-6.079,10.529,6.079a6.969,6.969,0,0,0,6.285,0C1266.21,1743.29,1266.21,1741.657,1264.482,1740.659Z" transform="translate(-1229.559 -1724.124)"/><path class="k" d="M1264.482,1740.659l-10.529-6.079,10.529-6.079c1.727-1,1.727-2.631,0-3.628h0a6.971,6.971,0,0,0-6.285,0l-10.529,6.079-10.53-6.079a6.968,6.968,0,0,0-6.284,0c-1.729,1-1.729,2.63,0,3.628l10.529,6.079-10.529,6.079c-1.729,1-1.729,2.631,0,3.629h0a6.966,6.966,0,0,0,6.284,0l10.53-6.079,10.529,6.079a6.969,6.969,0,0,0,6.285,0C1266.21,1743.29,1266.21,1741.657,1264.482,1740.659Z" transform="translate(-1229.559 -1724.124)"/></g><g transform="translate(12.807)"><g transform="translate(0 25.43)"><path class="e" d="M1247.536,1736.438c0,1.967,2.374,3.562,5.3,3.562s5.3-1.594,5.3-3.562-2.374-5.226-5.3-5.226S1247.536,1734.471,1247.536,1736.438Z" transform="translate(-1247.536 -1731.212)"/></g><g transform="translate(1.413 25.43)"><path class="k" d="M1249.519,1733.825c0,1.443,1.741,2.613,3.89,2.613s3.89-1.17,3.89-2.613-1.742-2.613-3.89-2.613S1249.519,1732.381,1249.519,1733.825Z" transform="translate(-1249.519 -1731.212)"/></g><g transform="translate(2.923)"><path class="e" d="M1254.018,1695.516a2.4,2.4,0,0,0-2.379,2.412v23.219a2.38,2.38,0,1,0,4.759,0v-23.219A2.4,2.4,0,0,0,1254.018,1695.516Z" transform="translate(-1251.639 -1695.516)"/></g></g></g><g transform="translate(0 0)"><path class="g" d="M1208.688,1634.266l3.433,36.791a16.225,16.225,0,0,0,7.918,12.471l29.733,17.518a7.1,7.1,0,0,0,7.021.108l25.956-14.239a11.838,11.838,0,0,0,6.109-9.477h0a5.028,5.028,0,0,0-7.508-4.748l-16.792,9.6a4.293,4.293,0,0,1-6.208-2.384l-10.288-31.227a3.7,3.7,0,0,0-1.874-2.158l-32.178-15.917A3.7,3.7,0,0,0,1208.688,1634.266Z" transform="translate(-1208.671 -1630.217)"/></g></g><g transform="translate(-11010.729 9024.101)"><g transform="translate(14.882 46.517)"><g transform="translate(0 20.381)"><g transform="translate(1.048 17.962)"><path class="d" d="M1068.37,1701.626a5.26,5.26,0,0,1,2.379-4.121c1.314-.759,2.38-.144,2.38,1.373a5.259,5.259,0,0,1-2.38,4.122C1069.436,1703.759,1068.37,1703.144,1068.37,1701.626Z" transform="translate(-1068.37 -1697.181)"/><path class="d" d="M1068.37,1701.626a5.26,5.26,0,0,1,2.379-4.121c1.314-.759,2.38-.144,2.38,1.373a5.259,5.259,0,0,1-2.38,4.122C1069.436,1703.759,1068.37,1703.144,1068.37,1701.626Z" transform="translate(-1068.37 -1697.181)"/><g transform="translate(0.557 0.203)"><path class="d" d="M1072.722,1697.465l2.05,1.069-3.219,5.867-2.4-1.249.609-3.3Z" transform="translate(-1069.152 -1697.465)"/></g><g transform="translate(2.023 1.049)"><path class="f" d="M1071.209,1703.1a5.258,5.258,0,0,1,2.38-4.121c1.314-.759,2.379-.143,2.379,1.374a5.259,5.259,0,0,1-2.379,4.121C1072.274,1705.231,1071.209,1704.617,1071.209,1703.1Z" transform="translate(-1071.209 -1698.653)"/><path class="f" d="M1071.209,1703.1a5.258,5.258,0,0,1,2.38-4.121c1.314-.759,2.379-.143,2.379,1.374a5.259,5.259,0,0,1-2.379,4.121C1072.274,1705.231,1071.209,1704.617,1071.209,1703.1Z" transform="translate(-1071.209 -1698.653)"/></g></g><g transform="translate(29.662 1.97)"><path class="d" d="M1108.535,1679.178a5.258,5.258,0,0,1,2.379-4.121c1.313-.759,2.379-.143,2.379,1.374a5.261,5.261,0,0,1-2.379,4.121C1109.6,1681.311,1108.535,1680.7,1108.535,1679.178Z" transform="translate(-1108.535 -1674.732)"/><path class="d" d="M1108.535,1679.178a5.258,5.258,0,0,1,2.379-4.121c1.313-.759,2.379-.143,2.379,1.374a5.261,5.261,0,0,1-2.379,4.121C1109.6,1681.311,1108.535,1680.7,1108.535,1679.178Z" transform="translate(-1108.535 -1674.732)"/><g transform="translate(0.557 0.203)"><path class="d" d="M1112.886,1675.017l2.05,1.069-3.219,5.867-2.4-1.249.608-3.3Z" transform="translate(-1109.316 -1675.017)"/></g><g transform="translate(2.022 1.049)"><path class="f" d="M1111.373,1680.651a5.26,5.26,0,0,1,2.38-4.121c1.314-.759,2.379-.144,2.379,1.374a5.258,5.258,0,0,1-2.379,4.121C1112.439,1682.783,1111.373,1682.168,1111.373,1680.651Z" transform="translate(-1111.373 -1676.205)"/><path class="f" d="M1111.373,1680.651a5.26,5.26,0,0,1,2.38-4.121c1.314-.759,2.379-.144,2.379,1.374a5.258,5.258,0,0,1-2.379,4.121C1112.439,1682.783,1111.373,1682.168,1111.373,1680.651Z" transform="translate(-1111.373 -1676.205)"/></g></g><g transform="translate(28.319 18.669)"><path class="d" d="M1106.65,1702.619a5.258,5.258,0,0,1,2.379-4.121c1.315-.759,2.38-.144,2.38,1.373a5.258,5.258,0,0,1-2.38,4.121C1107.716,1704.751,1106.65,1704.136,1106.65,1702.619Z" transform="translate(-1106.65 -1698.173)"/><path class="d" d="M1106.65,1702.619a5.258,5.258,0,0,1,2.379-4.121c1.315-.759,2.38-.144,2.38,1.373a5.258,5.258,0,0,1-2.38,4.121C1107.716,1704.751,1106.65,1704.136,1106.65,1702.619Z" transform="translate(-1106.65 -1698.173)"/><g transform="translate(0.557 0.203)"><path class="d" d="M1111,1698.457l2.051,1.069-3.219,5.867-2.4-1.249.609-3.3Z" transform="translate(-1107.432 -1698.457)"/></g><g transform="translate(2.023 1.049)"><path class="f" d="M1109.489,1704.091a5.26,5.26,0,0,1,2.379-4.122c1.314-.759,2.38-.143,2.38,1.375a5.26,5.26,0,0,1-2.38,4.121C1110.554,1706.224,1109.489,1705.608,1109.489,1704.091Z" transform="translate(-1109.489 -1699.645)"/><path class="f" d="M1109.489,1704.091a5.26,5.26,0,0,1,2.379-4.122c1.314-.759,2.38-.143,2.38,1.375a5.26,5.26,0,0,1-2.38,4.121C1110.554,1706.224,1109.489,1705.608,1109.489,1704.091Z" transform="translate(-1109.489 -1699.645)"/></g></g><g transform="translate(0.541 2.564)"><path class="d" d="M1067.658,1680.011a5.26,5.26,0,0,1,2.38-4.121c1.314-.758,2.379-.144,2.379,1.374a5.26,5.26,0,0,1-2.379,4.121C1068.724,1682.144,1067.659,1681.529,1067.658,1680.011Z" transform="translate(-1067.658 -1675.565)"/><path class="d" d="M1067.658,1680.011a5.26,5.26,0,0,1,2.38-4.121c1.314-.758,2.379-.144,2.379,1.374a5.26,5.26,0,0,1-2.379,4.121C1068.724,1682.144,1067.659,1681.529,1067.658,1680.011Z" transform="translate(-1067.658 -1675.565)"/><g transform="translate(0.557 0.203)"><path class="d" d="M1072.01,1675.85l2.051,1.069-3.219,5.867-2.4-1.249.608-3.3Z" transform="translate(-1068.44 -1675.85)"/></g><g transform="translate(2.023 1.049)"><path class="f" d="M1070.5,1681.484a5.258,5.258,0,0,1,2.379-4.121c1.314-.759,2.38-.144,2.38,1.374a5.258,5.258,0,0,1-2.38,4.121C1071.563,1683.616,1070.5,1683,1070.5,1681.484Z" transform="translate(-1070.497 -1677.038)"/><path class="f" d="M1070.5,1681.484a5.258,5.258,0,0,1,2.379-4.121c1.314-.759,2.38-.144,2.38,1.374a5.258,5.258,0,0,1-2.38,4.121C1071.563,1683.616,1070.5,1683,1070.5,1681.484Z" transform="translate(-1070.497 -1677.038)"/></g></g><path class="k" d="M1101.822,1688.5l-10.529-6.079,10.529-6.079c1.728-1,1.728-2.631,0-3.629h0a6.975,6.975,0,0,0-6.285,0l-10.529,6.079-10.529-6.079a6.975,6.975,0,0,0-6.285,0c-1.728,1-1.728,2.631,0,3.629l10.529,6.079-10.529,6.079c-1.728,1-1.728,2.631,0,3.629h0a6.975,6.975,0,0,0,6.285,0l10.529-6.08,10.529,6.08a6.975,6.975,0,0,0,6.285,0C1103.551,1691.133,1103.551,1689.5,1101.822,1688.5Z" transform="translate(-1066.899 -1671.967)"/><path class="k" d="M1101.822,1688.5l-10.529-6.079,10.529-6.079c1.728-1,1.728-2.631,0-3.629h0a6.975,6.975,0,0,0-6.285,0l-10.529,6.079-10.529-6.079a6.975,6.975,0,0,0-6.285,0c-1.728,1-1.728,2.631,0,3.629l10.529,6.079-10.529,6.079c-1.728,1-1.728,2.631,0,3.629h0a6.975,6.975,0,0,0,6.285,0l10.529-6.08,10.529,6.08a6.975,6.975,0,0,0,6.285,0C1103.551,1691.133,1103.551,1689.5,1101.822,1688.5Z" transform="translate(-1066.899 -1671.967)"/></g><g transform="translate(12.807)"><g transform="translate(0 25.43)"><path class="e" d="M1084.876,1684.28c0,1.967,2.375,3.561,5.3,3.561s5.3-1.594,5.3-3.561-2.374-5.226-5.3-5.226S1084.876,1682.313,1084.876,1684.28Z" transform="translate(-1084.876 -1679.054)"/></g><g transform="translate(1.413 25.43)"><path class="k" d="M1086.859,1681.667c0,1.443,1.742,2.613,3.89,2.613s3.891-1.17,3.891-2.613-1.742-2.613-3.891-2.613S1086.859,1680.224,1086.859,1681.667Z" transform="translate(-1086.859 -1679.054)"/></g><g transform="translate(2.923)"><path class="e" d="M1091.358,1643.358a2.4,2.4,0,0,0-2.379,2.412v23.219a2.38,2.38,0,1,0,4.759,0V1645.77A2.4,2.4,0,0,0,1091.358,1643.358Z" transform="translate(-1088.979 -1643.358)"/></g></g></g><g transform="translate(3.255 27.167)"><path class="h" d="M1122.789,1635.913l-34.366-19.717-37.845,11.566,39.1,23.12,33.114-8.254Z" transform="translate(-1050.578 -1616.197)"/></g><g transform="translate(0 0)"><path class="g" d="M1126.209,1624.879c0,.131,0,.267-.014.4a11.824,11.824,0,0,1-6.105,9.474l-5.542,3.038-6.64,3.642-13.164,7.224-.61.336a7.126,7.126,0,0,1-7.025-.11L1053.358,1629a7.115,7.115,0,0,1-3.464-5.461l-3.739-40.061-.13-1.372a3.7,3.7,0,0,1,5.323-3.656l32.179,15.915a3.671,3.671,0,0,1,1.873,2.161l10.289,31.225a4.289,4.289,0,0,0,6.208,2.381l16.793-9.6A5.024,5.024,0,0,1,1126.209,1624.879Z" transform="translate(-1046.009 -1578.062)"/></g></g><g transform="translate(-10722.713 8888.787)"><g transform="translate(6.176 6.344)"><g transform="translate(0 0)"><ellipse class="l" cx="8.309" cy="8.309" rx="8.309" ry="8.309" transform="translate(0 6.36) rotate(-22.5)"/></g><g transform="translate(7.204 19.801)"><path class="l" d="M1476.385,1428.475a3.652,3.652,0,1,1-3.652-3.652A3.653,3.653,0,0,1,1476.385,1428.475Z" transform="translate(-1469.081 -1424.823)"/></g><g transform="translate(6.192 17.733)"><path class="l" d="M1476.989,1421.92c-2.311,1.568-2.331,2.654-1.642,3.67H1469.3c.689-1.017.669-2.1-1.642-3.67Z" transform="translate(-1467.66 -1421.92)"/></g></g><g transform="translate(0 0)"><g transform="translate(15.576)"><rect class="l" width="2.734" height="6.029" rx="1.367"/></g><g transform="translate(27.857 15.576)"><path class="l" d="M1489.4,1411.354h0a1.367,1.367,0,0,0,1.366,1.367h3.295a1.367,1.367,0,0,0,1.367-1.367h0a1.367,1.367,0,0,0-1.367-1.367h-3.295A1.367,1.367,0,0,0,1489.4,1411.354Z" transform="translate(-1489.402 -1409.987)"/></g><g transform="translate(0 15.576)"><path class="l" d="M1451.666,1412.721h3.295a1.368,1.368,0,0,0,1.367-1.367h0a1.367,1.367,0,0,0-1.367-1.367h-3.295a1.367,1.367,0,0,0-1.367,1.367h0A1.367,1.367,0,0,0,1451.666,1412.721Z" transform="translate(-1450.299 -1409.987)"/></g><g transform="translate(23.693 3.996)"><g transform="translate(0 0)"><rect class="l" width="6.029" height="2.734" rx="1.367" transform="translate(0 4.263) rotate(-44.999)"/></g></g><g transform="translate(3.996 3.996)"><g transform="translate(0 0)"><rect class="l" width="2.734" height="6.029" rx="1.367" transform="translate(0 1.934) rotate(-44.999)"/></g></g></g></g></g><g transform="translate(10604 -6273)"><ellipse class="u" cx="21.51" cy="12.419" rx="21.51" ry="12.419" transform="translate(-9839.692 9712.802)"/><g transform="translate(-9820.477 9499.284)"><g transform="translate(0 0)"><path class="g" d="M1891.793,1192.006l-.029-10.246c-.013-4.928,3.456-10.933,7.741-13.41l27.524-15.886c2.155-1.248,4.111-1.365,5.522-.542l-4.285-2.492c-1.411-.82-3.367-.7-5.528.543l-27.518,15.889a17.066,17.066,0,0,0-7.742,13.407l.029,10.246c.009,2.447.872,4.169,2.263,4.98l4.289,2.492C1892.666,1196.177,1891.8,1194.455,1891.793,1192.006Z" transform="translate(-1887.478 -1148.907)"/></g></g><g transform="translate(-9816.851 9501.114)"><g transform="translate(0 0)"><path class="j" d="M1928.317,1152.788c4.286-2.479,7.776-.489,7.79,4.44l.029,10.244a17.055,17.055,0,0,1-7.744,13.407,12.267,12.267,0,0,0,2.8,4.88,9.564,9.564,0,0,1-10.1-.664l-20.221,11.674c-4.285,2.476-7.776.49-7.792-4.44l-.029-10.246c-.013-4.928,3.456-10.933,7.74-13.41Z" transform="translate(-1893.052 -1151.721)"/></g></g><g transform="translate(-9827.083 9573.53)"><g transform="translate(0 0)"><path class="h" d="M1877.32,1263.21c.014,0,.027.014.04.027a.777.777,0,0,0,.014-.177A.208.208,0,0,1,1877.32,1263.21Z" transform="translate(-1877.32 -1263.06)"/></g></g><g transform="translate(-9831.603 9577.858)"><g transform="translate(0 0)"><path class="l" d="M1871.892,1269.715l-1.5,10.585c-.208,1.465,1.514,2.652,3.847,2.652s4.392-1.188,4.6-2.652h.038l1.5-10.585Z" transform="translate(-1870.372 -1269.715)"/></g></g><g transform="translate(-9833.475 9562.521)"><g transform="translate(0 0)"><path class="l" d="M1868.911,1260.548c-1.9-3.421-2.269-7.381,1.271-10.418,2.84-2.436,11.138-5.748,14.385-2.9,3.482,3.06,3.04,14.35.526,18.03-2.22,3.249-6.431,3.594-9.618,1.878A17.668,17.668,0,0,1,1868.911,1260.548Z" transform="translate(-1867.494 -1246.134)"/></g></g><g transform="translate(-9837.08 9559.207)"><g transform="translate(0 0)"><path class="h" d="M1861.971,1248.262a5.918,5.918,0,0,1,1.718-3.9c.723-.537,1.46-1.048,2.209-1.515,2.5-1.194,5.811-1.567,8.782-1.806,2.046.423,4.066,1.119,6.243.951a14.656,14.656,0,0,0,3.558-.734,4.407,4.407,0,0,1,1.455,4.007c-.544,3.782-4.287,3.481-6.742,5.4a2.113,2.113,0,0,1-.263.994,15.4,15.4,0,0,1-3.433,8.933,19.152,19.152,0,0,1-1.874,2.388C1865.363,1272.049,1861.635,1252.942,1861.971,1248.262Z" transform="translate(-1861.95 -1241.039)"/></g></g><g transform="translate(-9824.453 9572.631)"><g transform="translate(0 0)"><path class="l" d="M1881.51,1265.276c.442,1.618,1.755,2.659,2.932,2.324s1.774-1.917,1.331-3.536-1.755-2.659-2.932-2.324S1881.067,1263.658,1881.51,1265.276Z" transform="translate(-1881.364 -1261.678)"/></g></g><g transform="translate(-9820.986 9566.602)"><g transform="translate(0 0)"><rect class="h" width="2.567" height="9.839" rx="1.283"/></g></g><g transform="translate(-9834.026 9583.443)"><g transform="translate(0 0)"><path class="j" d="M1866.919,1285.311a33.929,33.929,0,0,1,.017-3.432,3.558,3.558,0,0,1,1.7-2.641c2.354-1.571,5.472-1.007,7.7.5,3.019,2.044,2.463,3.856,2.493,7.007.042,4.317.254,11.159.381,15.474h0l-1.336.475a8.192,8.192,0,0,1-1.873.421,6.578,6.578,0,0,1-3.851-.738l-1.409-3.57-.252,2.648-3.12-1.524a1.458,1.458,0,0,1-.725-1.3C1866.736,1295.035,1866.827,1288.913,1866.919,1285.311Z" transform="translate(-1866.644 -1278.301)"/></g></g><g transform="translate(-9840.305 9713.192)"><g transform="translate(0 0)"><path class="d" d="M1872.021,1478.266c-4.795-1.314-15.305.169-14.763,3.5a8.668,8.668,0,0,0-.261,1.913c-.238,6.687,9.359,2.71,12.659.875C1875.829,1481.127,1875.115,1479.114,1872.021,1478.266Z" transform="translate(-1856.992 -1477.79)"/></g></g><g transform="translate(-9850.646 9591.947)"><g transform="translate(0 0)"><path class="h" d="M1849.84,1316.48a25.844,25.844,0,0,0-.54,9.943,25.3,25.3,0,0,0,1.1,4.808l6.067,21.192a4.5,4.5,0,0,1-2.31,5.647,3.873,3.873,0,0,1-.967.239,4.07,4.07,0,0,1-4.157-2.935l-6.065-21.175a36.1,36.1,0,0,1-.785-20.323l4.978-19.383a3.843,3.843,0,0,1,4.914-2.915,4.622,4.622,0,0,1,2.741,5.535Z" transform="translate(-1841.093 -1291.376)"/></g></g><g transform="translate(-9850.337 9627.103)"><g transform="translate(0 0)"><path class="l" d="M1850.57,1350.126a25.229,25.229,0,0,1-1.087-4.7,9.346,9.346,0,0,1-2.029.9,8.783,8.783,0,0,1-5.888-.124,35.894,35.894,0,0,0,1.571,6.893l6.065,21.175a4.07,4.07,0,0,0,4.157,2.935,3.873,3.873,0,0,0,.967-.239,4.5,4.5,0,0,0,2.31-5.648Z" transform="translate(-1841.567 -1345.427)"/></g></g><g transform="translate(-9821.674 9722.841)"><g transform="translate(0 0)"><path class="d" d="M1888.371,1492.93a2.654,2.654,0,0,0-2.325,1.742,7.8,7.8,0,0,0-.41,3.037,2.582,2.582,0,0,0,2.243,3.264c4.87,1.319,10.594.312,15.3-1.186a2.551,2.551,0,0,0,1.891-2.225c0-1.519-1.695-2.395-3.151-2.827a51.833,51.833,0,0,0-12.85-2.111c-.778-.018-1.8.334-1.732,1.109Z" transform="translate(-1885.637 -1492.624)"/></g></g><g transform="translate(-9839.373 9708.752)"><g transform="translate(0 0)"><path class="j" d="M2.824,0h0A2.824,2.824,0,0,1,5.648,2.824V7.18A2.824,2.824,0,0,1,2.824,10h0A2.824,2.824,0,0,1,0,7.18V2.824A2.824,2.824,0,0,1,2.824,0Z" transform="matrix(-1, -0.012, 0.012, -1, 5.648, 10.071)"/></g></g><g transform="translate(-9819.743 9716.462)"><g transform="translate(0 0)"><rect class="j" width="5.648" height="10.004" rx="2.824" transform="translate(5.648 10.004) rotate(180)"/></g></g><g transform="translate(-9844.778 9630.106)"><g transform="translate(0 0)"><path class="v" d="M1883.054,1366.984l-5.688-16.938-27.252,4.232v12.864s4.59,26.6,4.744,27.665l-.846,35.292a4.8,4.8,0,0,0,3.7,3.492l1.653.122c1.987.146,4.315-1.479,4.22-3.47l3.075-30.462-1.66-21.959,4.8,4.061.129-.046,5.355,22.169c1.476,7.806-1.963,33.616-1.963,33.616.148,1.767,2.287,3.125,4.059,3.125h2.346c1.884,0,4.072-1.527,4.072-3.411l2.594-30.881a61.409,61.409,0,0,0-.084-9.179Z" transform="translate(-1850.113 -1350.046)"/></g></g><g transform="translate(-9845.443 9586.95)"><g transform="translate(0 0)"><path class="w" d="M1849.092,1340.976a4.5,4.5,0,0,0,2.233,3.991l9.08,4.434.489-5.147,2.775,7.044.238.113a18.921,18.921,0,0,0,7.719,2.095h.092c.165,0,.344.007.515.007a19.9,19.9,0,0,0,2.115-.113,22.386,22.386,0,0,0,5.069-1.136l3.5-1.249.449-.159-.013-.483c-.317-10.837-.886-32.275-1-43.852-.007-1.2.013-2.306.032-3.383.027-1.447.053-2.8-.013-4.084v-.006c-.218-4.256-1.421-7.765-6.846-11.439-5.247-3.555-13.877-6.033-20.935-1.322a10.073,10.073,0,0,0-4.731,7.375,31.664,31.664,0,0,0-.106,5.4c.04,1.19.086,2.419.053,3.674-.119,4.725-.238,12.047-.357,19.131S1849.218,1336.258,1849.092,1340.976Z" transform="translate(-1849.091 -1283.693)"/></g></g><g class="t" transform="translate(-9820.857 9600.567)"><g class="x" transform="translate(0 0)"><path class="v" d="M1887.8,1360.825c.1.172-1.074.185-.882.006.445-.416,1.168-.033,1.805-.113a16.769,16.769,0,0,0,4.326-1.136l2.989-1.249.384-.159-.011-.483c-.271-10.837-.756-32.275-.852-43.852-.005-1.2.012-2.306.029-3.384.022-1.447.045-2.8-.012-4.084v-.006a3.915,3.915,0,0,0-1.167-1.176,3.34,3.34,0,0,0-1.844-.562,4.12,4.12,0,0,0-3.8,4.216l-1.178,40.356C1887.738,1349.2,1886.977,1359.516,1887.8,1360.825Z" transform="translate(-1886.893 -1304.629)"/></g></g><g transform="translate(-9821.888 9714.398)"><g transform="translate(0 0)"><path class="v" d="M1892.386,1481.783h-2.345a4.116,4.116,0,0,1-2.87-1.755,1.051,1.051,0,0,0-1.863.667v2.616a4.733,4.733,0,0,0,4.732,4.732h2.346a4.732,4.732,0,0,0,4.715-4.336v-3.243a.546.546,0,0,0-1.011-.285C1895.531,1481.034,1894.589,1481.8,1892.386,1481.783Z" transform="translate(-1885.308 -1479.645)"/></g></g><g transform="translate(-9841.336 9707.955)"><g transform="translate(0 0)"><path class="v" d="M1861.787,1471.8h-2.115c-.972,0-2.885-.429-3.248-1.629-.262-.867-1.019-.3-1.019.619v2.427a4.33,4.33,0,0,0,4.267,4.391h2.115a4.317,4.317,0,0,0,4.251-4.023v-3.009a.49.49,0,0,0-.911-.265C1864.622,1471.1,1863.774,1471.814,1861.787,1471.8Z" transform="translate(-1855.406 -1469.737)"/></g></g><g transform="translate(-9803.672 9577.455)"><g transform="translate(4.627 4.626)"><path class="l" d="M1927.352,1276.207,1920.428,1305Z" transform="translate(-1920.428 -1276.207)"/></g><g transform="translate(0 0)"><path class="l" d="M1917.945,1307.135a4.627,4.627,0,0,0,4.493-3.545l6.925-28.788a4.626,4.626,0,1,0-8.994-2.164l-6.925,28.788a4.63,4.63,0,0,0,4.5,5.708Z" transform="translate(-1913.314 -1269.094)"/></g></g><g transform="translate(-9826.518 9591.037)"><g transform="translate(0 0)"><path class="h" d="M1906.107,1316.981a5.628,5.628,0,0,1-4.863-.974l-20.872-16a5.569,5.569,0,0,1-1.006-7.845,5.649,5.649,0,0,1,7.89-1.024l20.871,16a5.569,5.569,0,0,1,1.007,7.845A5.628,5.628,0,0,1,1906.107,1316.981Z" transform="translate(-1878.189 -1289.976)"/></g></g><g transform="translate(-9796.129 9572.775)"><g transform="translate(0 0)"><path class="l" d="M1934.4,1268.764c-.624,3.258-3.223,5.5-5.8,5s-4.168-3.538-3.543-6.8,3.224-5.5,5.8-5S1935.021,1265.506,1934.4,1268.764Z" transform="translate(-1924.912 -1261.9)"/></g></g><g transform="translate(-9795.71 9565.835)"><g transform="translate(0 0)"><path class="l" d="M1926.844,1263.731h0a1.586,1.586,0,0,1-1.259-1.856l1.793-9.358a1.586,1.586,0,0,1,1.856-1.26h0a1.587,1.587,0,0,1,1.26,1.857l-1.793,9.357A1.586,1.586,0,0,1,1926.844,1263.731Z" transform="translate(-1925.556 -1251.229)"/></g></g><g transform="translate(-9805.875 9515.117)"><g transform="translate(16.978 0)"><path class="y" d="M1938.975,1173.653a6.509,6.509,0,0,0-2.945,5.1c0,1.878,1.318,2.639,2.945,1.7a6.509,6.509,0,0,0,2.945-5.1C1941.92,1173.475,1940.6,1172.714,1938.975,1173.653Z" transform="translate(-1936.03 -1173.251)"/></g><g transform="translate(8.489 4.901)"><path class="g" d="M1925.924,1181.188a6.509,6.509,0,0,0-2.945,5.1c0,1.878,1.318,2.639,2.945,1.7a6.509,6.509,0,0,0,2.945-5.1C1928.869,1181.01,1927.551,1180.249,1925.924,1181.188Z" transform="translate(-1922.979 -1180.786)"/></g><g transform="translate(0 9.802)"><path class="g" d="M1912.872,1188.723a6.511,6.511,0,0,0-2.945,5.1c0,1.878,1.319,2.639,2.945,1.7a6.51,6.51,0,0,0,2.946-5.1C1915.818,1188.545,1914.5,1187.784,1912.872,1188.723Z" transform="translate(-1909.927 -1188.321)"/></g></g><g transform="translate(-9770.691 9690.872)"><g class="c" transform="translate(0 0)"><ellipse class="r" cx="24.252" cy="14.002" rx="24.252" ry="14.002"/></g></g><g transform="translate(-9750.146 9560.006)"><g transform="translate(0 0)"><path class="h" d="M1639.826,1537.513a5.219,5.219,0,0,1-4.9-7l12.62-30.813a5.216,5.216,0,0,1,9.8,3.564l-12.62,30.813A5.218,5.218,0,0,1,1639.826,1537.513Z" transform="translate(-1634.61 -1496.267)"/></g></g><g transform="translate(-9768.741 9689.041)"><g transform="translate(0 0)"><path class="d" d="M1625.116,1695a3,3,0,0,1,2.621,1.965,8.8,8.8,0,0,1,.462,3.425,2.912,2.912,0,0,1-2.528,3.68,20.713,20.713,0,0,1-3.615.751c-1.391.12-2.8-.042-4.181.168-.879.134-1.728.417-2.594.621a14.782,14.782,0,0,1-7.46-.192,2.8,2.8,0,0,1-1.45-.8,2.107,2.107,0,0,1,.206-2.566,6.154,6.154,0,0,1,2.307-1.518l7.629-3.5c2.494-1.146,5.076-2.312,7.82-2.375.877-.02,2.032.377,1.953,1.251Z" transform="translate(-1606.02 -1694.658)"/></g></g><g transform="translate(-9755.577 9682.162)"><g transform="translate(0 0)"><rect class="f" width="6.368" height="11.279" rx="3.184" transform="translate(7.26 11.242) rotate(175.355)"/></g></g><g transform="translate(-9743.224 9694.813)"><g transform="translate(0 0)"><path class="d" d="M1648.861,1711.974c-.482.881-.982,1.752-1.451,2.627a21.45,21.45,0,0,0-1.3,2.741c-.514,1.41-1.481,4.154-.265,5.434,1.83,1.927,4.815.277,6.3-1.084a59.282,59.282,0,0,0,6.154-6.554,8.035,8.035,0,0,0,1.853-3.343c.762-3.87-1.5-9.357-6.256-8.072a3.991,3.991,0,0,0-2.886,3.265A22.091,22.091,0,0,1,1648.861,1711.974Z" transform="translate(-1645.253 -1703.532)"/></g></g><g transform="translate(-9736.712 9690.118)"><g transform="translate(0 0)"><rect class="f" width="6.368" height="11.279" rx="3.184" transform="translate(6.368 11.279) rotate(180)"/></g></g><g transform="translate(-9762.657 9593.999)"><g transform="translate(0 0)"><path class="d" d="M1628.945,1548.53l16.079,5.574,6.217,12.288-1.715,41.289v38.878a3.845,3.845,0,0,1-3.845,3.845h-2.645a3.845,3.845,0,0,1-3.832-3.523l-4.048-46.709-1.337-18.261-3.342-1.355-1.532,21.888,1.8,36.119a3.744,3.744,0,0,1-4.014,3.912l-1.863-.137a3.744,3.744,0,0,1-3.429-3.192l-6.068-40.1v-43.332Z" transform="translate(-1615.374 -1548.53)"/></g></g><g transform="translate(-9740.088 9688.842)"><g transform="translate(0 0)"><path class="d" d="M1655.392,1696.451h2.645a3.8,3.8,0,0,0,3.235-1.234c.716-.853,1.355-1.106,1.355.006v2.949c0,2.947-1.644,5.335-4.59,5.335h-2.645a5.335,5.335,0,0,1-5.316-4.889v-3.656a.616.616,0,0,1,1.14-.321C1651.847,1695.606,1652.907,1696.474,1655.392,1696.451Z" transform="translate(-1650.075 -1694.351)"/></g></g><g transform="translate(-9757.685 9682.798)"><g transform="translate(0 0)"><path class="d" d="M1627.516,1687.276h2.236c1.028,0,3.051-.462,3.435-1.755.278-.935,1.077-.321,1.077.667v2.617a4.626,4.626,0,0,1-4.512,4.733h-2.237a4.6,4.6,0,0,1-4.5-4.337v-3.244a.517.517,0,0,1,.963-.285C1624.518,1686.527,1625.415,1687.3,1627.516,1687.276Z" transform="translate(-1623.02 -1685.058)"/></g></g><g transform="translate(-9762.667 9550.74)"><g transform="translate(0 0)"><path class="h" d="M1651.432,1546.934l-3.949.7a24.427,24.427,0,0,1-20.916-2.265l-11.208-6.172v-44.915a13.564,13.564,0,0,1,.611-4.5,12.028,12.028,0,0,1,3.281-5.121.087.087,0,0,1,.014-.022,12.227,12.227,0,0,1,2.167-1.612,9.575,9.575,0,0,1,4.737-1,20.476,20.476,0,0,1,2.642.177,31.155,31.155,0,0,1,12.493,4.354l.987.625,3.523,2.223a7.81,7.81,0,0,1,1.847,1.506,7.677,7.677,0,0,1,.5.582c.078.1.149.2.22.3.128.178.256.362.369.554s.206.355.3.54c.071.135.135.27.192.405a3.647,3.647,0,0,1,.149.355,1.127,1.127,0,0,1,.057.149.451.451,0,0,1,.043.127,3.81,3.81,0,0,1,.121.362c.042.142.085.284.113.427a8.8,8.8,0,0,1,.213,1.236c.014.156.021.312.029.476l.54,19.1Z" transform="translate(-1615.36 -1482.02)"/></g></g><g transform="translate(-9762.667 9553.354)"><g transform="translate(0 0)"><path class="z" d="M1651.432,1548.339l-3.949.7a24.686,24.686,0,0,1-5.533,1.243c-2.606-4.012-3.473-4.922-1.349-9.155,1.008-1.946,2.592-3.707,2.813-5.9a6.8,6.8,0,0,0-.235-2.23,12.429,12.429,0,0,1-14.133,2.436c-4.191-2-9.112-4.332-13.687-6.5v-33.963a12.111,12.111,0,0,1,.611-3.792c1.847-2.89,3.139-4.893,3.281-5.121a.087.087,0,0,1,.014-.022l1.406,15.412,11.989,6.264,9.63-19.133,4.751,3.8c.206-.029.412-.05.618-.071.178.185.348.383.5.582.078.1.149.2.22.3.128.178.256.362.369.554s.206.355.3.54c.071.135.135.27.192.405a3.034,3.034,0,0,1,.149.355,1.133,1.133,0,0,1,.057.149.451.451,0,0,1,.043.128,3.808,3.808,0,0,1,.121.362c.042.143.085.284.113.427a8.792,8.792,0,0,1,.213,1.236c.014.156.021.312.029.475l.54,23.359Z" transform="translate(-1615.36 -1486.038)"/></g></g><g transform="translate(-9751.619 9539.771)"><g transform="translate(0 11.001)"><path class="f" d="M1638.6,1491.041c3.506,0,6.252-1.971,6.252-4.487s-2.747-4.486-6.252-4.486-6.252,1.971-6.252,4.486S1635.093,1491.041,1638.6,1491.041Z" transform="translate(-1632.346 -1482.069)"/></g><g transform="translate(1.26 0)"><path class="l" d="M1634.283,1479.874h0v-10.038a4.542,4.542,0,0,1,1.363-3.212,5,5,0,0,1,1.765-1.146,5.659,5.659,0,0,1,1.7-.319c.281,0,.561.018.822.037a5.09,5.09,0,0,1,2.868,1.334,4.515,4.515,0,0,1,1.463,3.307v10.038h0v.49h-.057c-.345,1.64-2.386,2.864-4.936,2.864s-4.591-1.224-4.935-2.864h-.057Z" transform="translate(-1634.283 -1465.155)"/></g></g><g transform="translate(-9775.271 9553.356)"><g transform="translate(0 0)"><path class="h" d="M1635.514,1488.58l-10.7,8.593-2.115.2-10.2-11.335c-5.088,7.914-12.152,16.266-15.481,24.976a9.969,9.969,0,0,0-.97,4.974c.61,3.953,8.378,6,11.445,7.456q7.4,3.5,14.784,7.015a12.441,12.441,0,0,0,16.11-5.006l6.219-10.742a17.326,17.326,0,0,0-4.18-22.217Z" transform="translate(-1595.981 -1486.043)"/></g></g><g transform="translate(-9761.01 9526.031)"><g transform="translate(0 0)"><g transform="translate(2.95 4.425)"><path class="l" d="M1622.454,1463.333a10.7,10.7,0,0,0,1.868,6.405,8.133,8.133,0,0,0,6.3,2.753,6.993,6.993,0,0,0,3.75-.826c2.147-1.284,3.151-4.051,3.694-6.665a22.024,22.024,0,0,0,.4-3.011,11.22,11.22,0,0,0-.334-3.409,9.812,9.812,0,0,0-4.294-5.6,15.474,15.474,0,0,0-6.525-2.064,5.231,5.231,0,0,0-3.276.4,2.786,2.786,0,0,0-1.324,1.835,2.143,2.143,0,0,0-.028.84c-.069,2.141-.139,4.265-.209,6.406C1622.454,1461.361,1622.426,1462.34,1622.454,1463.333Z" transform="translate(-1622.442 -1450.835)"/></g><g transform="translate(2.912 16.408)"><path class="d" d="M1622.843,1471.135c-.821,2.334-.273,6.285-.351,8.045a2.281,2.281,0,0,0,.22,1.352,2.234,2.234,0,0,0,1.471.77,14.6,14.6,0,0,0,5.426.406c4.549-.72,7.6-4.812,8.439-9.065a22.008,22.008,0,0,0,.4-3.011,3.58,3.58,0,0,0-.557-.367c-.04,2.089-.76,6.334-3.036,6.975-2.784.784-3.054-2.927-4.144-4.628a4.823,4.823,0,0,0-2.475-1.715,6.188,6.188,0,0,0-3.772-.511A2.47,2.47,0,0,0,1622.843,1471.135Z" transform="translate(-1622.384 -1469.259)"/></g><g transform="translate(18.381 15.013)"><path class="d" d="M1646.167,1467.281c.014,0,.027.015.042.03a.969.969,0,0,0,.014-.2A.246.246,0,0,1,1646.167,1467.281Z" transform="translate(-1646.167 -1467.113)"/></g><g transform="translate(17.585 15.007)"><path class="d" d="M1645.739,1467.279c-.056-.031-.1-.062-.154-.092-.139-.076-.334-.137-.432,0-.07.092.042.2.125.215l-.335.351A.69.69,0,0,0,1645.739,1467.279Z" transform="translate(-1644.944 -1467.105)"/></g><path class="d" d="M1640.942,1448.893c-3.147-5.849-12.509-5.044-18.066-4.454-4.254.455-7.236,4.3-2.7,6.506a4.353,4.353,0,0,0,1.671.324c-.023-.021-.048-.038-.07-.061.25.034.843.072.844.074-.029,0-.552,0-.774-.013,2.828,2.661,7.562,2.16,11.434,2.79a18.308,18.308,0,0,1,.437,4.156,3.787,3.787,0,0,0,.176,1.556,2.136,2.136,0,0,0,1.894.743l0,0c.04.278.082.557.136.836.7,3.577,4.061,3.964,4.182.394C1640.25,1457.52,1643.029,1452.777,1640.942,1448.893Z" transform="translate(-1617.907 -1444.031)"/></g><g transform="translate(16.925 13.562)"><path class="l" d="M1647.032,1464.921a1.842,1.842,0,0,0-1.93,1.195,5.453,5.453,0,0,1-.537,1.112,1.1,1.1,0,0,1-.576.379,1.179,1.179,0,0,0,.863,1.458,2.42,2.42,0,0,0,1.941-.574,2.97,2.97,0,0,0,1.247-1.8A1.565,1.565,0,0,0,1647.032,1464.921Z" transform="translate(-1643.93 -1464.883)"/></g></g><g transform="translate(-9768.505 9572.07)"><g transform="translate(20.392 6.455)"><path class="l" d="M1637.772,1529.236l1.37-4.032a.684.684,0,0,1,.666-.464l3.438.088a.25.25,0,0,1,.122.036l5.253,3.183a.247.247,0,0,1,.075.352l-5.259,7.558a.247.247,0,0,1-.4,0l-2.825-3.91a.288.288,0,0,0-.032-.036l-2.221-2.057A.684.684,0,0,1,1637.772,1529.236Z" transform="translate(-1637.736 -1524.741)"/></g><g transform="translate(0 0)"><path class="l" d="M1606.384,1520.428l4.293-5.613h2.454l3.551,5.613Z" transform="translate(-1606.384 -1514.815)"/></g></g></g><g transform="translate(407.325 3375.484)"><path class="aa" d="M276,660H813.675s-11.269,20.927-37.026,17.708a149.484,149.484,0,0,1-20.927-1.61c-9.659-1.61-24.147,3.22-27.367,8.049,0,0-24.147,14.488-64.392,0,0,0-37.026-16.1-62.782-1.61,0,0-19.318,20.928-69.222-4.829,0,0-12.879-8.049-35.416,8.049,0,0-22.537,19.318-66-8.049,0,0-24.147-6.439-51.514,6.439C379.028,684.147,324.294,692.2,276,660Z" transform="translate(-276 -571.461)"/><path class="ab" d="M582.407,634.075s27.206,15.026,15.19,36.5C597.6,670.576,578.133,666.564,582.407,634.075Z" transform="translate(-89.525 -587.27)"/><path class="ac" d="M614.007,623s14.488,46.684-22.537,57.953C591.47,680.953,573.762,655.2,614.007,623Z" transform="translate(-85.991 -594.023)"/><path class="ac" d="M334.352,621.92s-41.564,22.958-23.207,55.765C311.145,677.685,340.883,671.557,334.352,621.92Z" transform="translate(-257.422 -594.682)"/><path class="ab" d="M292.061,605s-22.135,71.324,34.43,88.539C326.492,693.539,353.546,654.189,292.061,605Z" transform="translate(-268.808 -605)"/></g></g></svg>