<svg xmlns="http://www.w3.org/2000/svg" width="537.675" height="390.4" viewBox="0 0 537.675 390.4"><defs><style>.a{fill:#647ddd;opacity:0.17;}.b{fill:#bddcff;}.c{fill:#8dc0ef;}.d{fill:#e2e8f2;}.e{fill:#1f3598;}.f{fill:#4568c7;}.g{fill:#d5e8fa;}.h{fill:#eff6fc;}.i{fill:#75a3ec;}.j{fill:#f2f4f9;}.k{fill:#f2f4fa;}.l{fill:#3772ce;}.m{fill:#ff8358;}.n{fill:#fd8358;}.o{fill:#ced6e9;}.p{fill:#a0d2fe;}.q{opacity:0.34;}.r{fill:#c1d7ea;}.s{fill:#fff;}.t{fill:#484255;}.u{fill:#577de8;}.v{fill:#fbc1b1;}.w{fill:rgba(15,0,0,0.1);}.x{fill:#c4e4f9;}.y{fill:#0f62fe;}</style></defs><g transform="translate(-407 -1543)"><path class="a" d="M2080.984,1008.589c-13.529,0-24.535,7.262-24.535,16.189s11.006,16.189,24.535,16.189,24.534-7.262,24.534-16.189S2094.512,1008.589,2080.984,1008.589Z" transform="translate(-1226.08 793.503)"/><path class="b" d="M2099.474,998.561l-5.689,28.517h-37.691l-5.689-28.517Z" transform="translate(-1216.396 784.151)"/><path class="b" d="M2094.427,1029.108c0,4.821-7.3,10.184-17.914,10.482-.306.007-.619.014-.932.014-11.108,0-18.845-5.533-18.845-10.5s7.738-10.5,18.845-10.5a30.1,30.1,0,0,1,7.844,1C2090.167,1021.42,2094.427,1025.424,2094.427,1029.108Z" transform="translate(-1217.037 782.121)"/><path class="c" d="M2102.345,998.561l-5.689,28.516c0,4.822-7.3,10.184-17.914,10.483a18.46,18.46,0,0,0,3.314-4.409,26.4,26.4,0,0,0,2.3-6.074,50.256,50.256,0,0,0,1.3-9.5c.092-1.628.149-3.257.192-4.871q.2-7.073.412-14.144Z" transform="translate(-1219.267 784.151)"/><ellipse class="d" cx="24.534" cy="16.189" rx="24.534" ry="16.189" transform="translate(834.01 1766.521)"/><ellipse class="e" cx="18.845" cy="10.5" rx="18.845" ry="10.5" transform="translate(839.699 1772.21)"/><circle class="c" cx="16.922" cy="16.922" r="16.922" transform="translate(839.131 1716.265) rotate(-80.783)"/><circle class="c" cx="11.998" cy="11.998" r="11.998" transform="translate(842.868 1720.658) rotate(-22.5)"/><ellipse class="c" cx="13.061" cy="13.061" rx="13.061" ry="13.061" transform="translate(841.48 1764.505) rotate(-67.5)"/><path class="c" d="M2081.875,999.979a4.7,4.7,0,1,1-4.7-4.7A4.7,4.7,0,0,1,2081.875,999.979Z" transform="translate(-1218.631 784.483)"/><path class="c" d="M2089.526,920.662c-3.754,4.793-3.636,6.153-2.1,10.189h-22.436c1.531-4.036,1.65-5.4-2.1-10.189Z" transform="translate(-1217.66 792.044)"/><path class="c" d="M2087.944,922.824c-12.378,11.539-10.892,24.328-1.986,33.881h-19.106c8.906-9.553,10.39-22.342-1.986-33.881Z" transform="translate(-1217.861 791.824)"/><path class="c" d="M2087.5,923.322c-12.824,11.039-10.544,62.741-7.479,66.3H2072.9c3.067-3.561,5.346-55.262-7.479-66.3Z" transform="translate(-1217.917 791.774)"/><path class="c" d="M2085.314,946.01c-4.178,4.327-4.27,8.007.44,12.555h-18.143c4.711-4.547,4.618-8.228.44-12.555Z" transform="translate(-1218.139 789.476)"/><path class="c" d="M2084.738,946.76c-9.008,7.925-7.5,41.672-4.4,45.2h-7.055c3.1-3.528,4.611-37.275-4.4-45.2Z" transform="translate(-1218.268 789.399)"/><path class="c" d="M2084.516,982.2c-8.471,6.152-6.086,10.65-3.873,13.7h-7.6c2.213-3.047,4.6-7.546-3.872-13.7Z" transform="translate(-1218.297 785.81)"/><g transform="translate(-4 0.552)"><path class="c" d="M2039.236,945.553a4.937,4.937,0,0,1-4.469,0,1.362,1.362,0,0,1,0-2.58,4.938,4.938,0,0,1,4.469,0A1.362,1.362,0,0,1,2039.236,945.553Z" transform="translate(-1332.645 922.02)"/><path class="f" d="M1873.809,956.279a7.31,7.31,0,0,1,3.307-5.727c1.827-1.055,3.307-.2,3.308,1.909a7.309,7.309,0,0,1-3.308,5.728C1875.29,959.243,1873.809,958.388,1873.809,956.279Z" transform="translate(-1316.431 921.243)"/><path class="f" d="M1873.809,956.279a7.31,7.31,0,0,1,3.307-5.727c1.827-1.055,3.307-.2,3.308,1.909a7.309,7.309,0,0,1-3.308,5.728C1875.29,959.243,1873.809,958.388,1873.809,956.279Z" transform="translate(-1316.431 921.243)"/><path class="f" d="M1879.632,950.414l2.85,1.485-4.474,8.155-3.337-1.736.846-4.593Z" transform="translate(-1316.519 921.212)"/><path class="c" d="M1876.937,957.9a7.311,7.311,0,0,1,3.307-5.728c1.826-1.054,3.307-.2,3.307,1.91a7.312,7.312,0,0,1-3.307,5.728C1878.418,960.866,1876.937,960.012,1876.937,957.9Z" transform="translate(-1316.748 921.079)"/><path class="d" d="M1876.937,957.9a7.311,7.311,0,0,1,3.307-5.728c1.826-1.054,3.307-.2,3.307,1.91a7.312,7.312,0,0,1-3.307,5.728C1878.418,960.866,1876.937,960.012,1876.937,957.9Z" transform="translate(-1316.748 921.079)"/><path class="f" d="M1915.986,957.371a7.308,7.308,0,0,1,3.307-5.727c1.826-1.055,3.307-.2,3.307,1.909a7.31,7.31,0,0,1-3.307,5.728C1917.466,960.336,1915.986,959.48,1915.986,957.371Z" transform="translate(-1320.704 921.133)"/><path class="f" d="M1915.986,957.371a7.308,7.308,0,0,1,3.307-5.727c1.826-1.055,3.307-.2,3.307,1.909a7.31,7.31,0,0,1-3.307,5.728C1917.466,960.336,1915.986,959.48,1915.986,957.371Z" transform="translate(-1320.704 921.133)"/><path class="f" d="M1921.808,951.506l2.85,1.485-4.474,8.154-3.337-1.736.846-4.592Z" transform="translate(-1320.792 921.102)"/><path class="c" d="M1919.113,958.994a7.31,7.31,0,0,1,3.307-5.728c1.827-1.054,3.307-.2,3.307,1.91a7.309,7.309,0,0,1-3.307,5.728C1920.594,961.958,1919.113,961.1,1919.113,958.994Z" transform="translate(-1321.021 920.968)"/><path class="d" d="M1919.113,958.994a7.31,7.31,0,0,1,3.307-5.728c1.827-1.054,3.307-.2,3.307,1.91a7.309,7.309,0,0,1-3.307,5.728C1920.594,961.958,1919.113,961.1,1919.113,958.994Z" transform="translate(-1321.021 920.968)"/><path class="e" d="M1921.89,746.8l-.492.049Z" transform="translate(-1236.739 795.647)"/><path class="e" d="M2112.116,803.4c-4.929-5.71-10.479,2.393-13.1,5.753-1.781,2.283-7.976,8.343-7.3,11.524.239,1.115.373,1.063,1.474,1.359a6.9,6.9,0,0,0,3.381-.126c5.816-1.4,10.425-4.687,13.062-9.718.107,1.4.134,2.8.117,4.2a.4.4,0,0,0,.624.328q.814-.531,1.6-1.106c1.95-1.441,1.09-3.482,1.617-5.8A7.28,7.28,0,0,0,2112.116,803.4Z" transform="translate(-1338.504 936.307)"/><path class="a" d="M1919.287,928.557c-12.544-7.241-32.88-7.241-45.422,0s-12.543,18.983,0,26.225,32.878,7.242,45.422,0S1931.829,935.8,1919.287,928.557Z" transform="translate(-1315.484 923.976)"/><path class="a" d="M2120.953,863.224l-167.023-94.99-103.3,62.019a1.858,1.858,0,0,0,.043,3.211L2013.042,925a10.859,10.859,0,0,0,11-.105l96.95-58.18A2.025,2.025,0,0,0,2120.953,863.224Z" transform="translate(-1313.992 939.669)"/><path class="c" d="M2040.161,878.447v58.732a.652.652,0,0,1-.048.229.518.518,0,0,1-.457.277h-5.312a.52.52,0,0,1-.457-.277.652.652,0,0,1-.048-.229V878.447a.509.509,0,0,1,.505-.506h5.312A.509.509,0,0,1,2040.161,878.447Z" transform="translate(-1332.645 928.554)"/><path class="c" d="M2040.161,888.506a.452.452,0,0,1-.056.219,1.035,1.035,0,0,1,.056.333,1.553,1.553,0,0,1-.925,1.287,4.926,4.926,0,0,1-4.471,0,1.555,1.555,0,0,1-.925-1.287,1,1,0,0,1,.058-.333.44.44,0,0,1-.058-.219V878.447a.509.509,0,0,1,.505-.506h5.312a.509.509,0,0,1,.5.506Z" transform="translate(-1332.645 928.554)"/><path class="c" d="M1852.051,841.723a4.936,4.936,0,0,1-4.468,0,1.362,1.362,0,0,1,0-2.58,4.936,4.936,0,0,1,4.468,0A1.362,1.362,0,0,1,1852.051,841.723Z" transform="translate(-1313.681 932.539)"/><path class="c" d="M1852.976,774.617V833.35a.654.654,0,0,1-.048.228.516.516,0,0,1-.457.277h-5.312a.519.519,0,0,1-.458-.277.665.665,0,0,1-.047-.228V774.617a.509.509,0,0,1,.5-.506h5.312A.508.508,0,0,1,1852.976,774.617Z" transform="translate(-1313.681 939.073)"/><path class="c" d="M1852.976,784.676a.451.451,0,0,1-.056.219,1.037,1.037,0,0,1,.056.333,1.553,1.553,0,0,1-.925,1.287,4.928,4.928,0,0,1-4.472,0,1.555,1.555,0,0,1-.925-1.287,1.016,1.016,0,0,1,.057-.333.443.443,0,0,1-.057-.219V774.617a.509.509,0,0,1,.5-.506h5.312a.508.508,0,0,1,.5.506Z" transform="translate(-1313.681 939.073)"/><path class="c" d="M2152.931,879.076a4.937,4.937,0,0,1-4.469,0,1.362,1.362,0,0,1,0-2.58,4.944,4.944,0,0,1,4.469,0A1.361,1.361,0,0,1,2152.931,879.076Z" transform="translate(-1344.163 928.754)"/><path class="c" d="M2153.857,811.97V870.7a.655.655,0,0,1-.049.229.517.517,0,0,1-.458.276h-5.311a.518.518,0,0,1-.457-.276.658.658,0,0,1-.047-.229V811.97a.508.508,0,0,1,.5-.505h5.311A.51.51,0,0,1,2153.857,811.97Z" transform="translate(-1344.163 935.289)"/><path class="c" d="M2153.857,826.941a.445.445,0,0,1-.058.219,1.031,1.031,0,0,1,.058.333,1.555,1.555,0,0,1-.925,1.287,4.929,4.929,0,0,1-4.472,0,1.553,1.553,0,0,1-.925-1.287,1.023,1.023,0,0,1,.057-.333.442.442,0,0,1-.057-.219V816.882a.508.508,0,0,1,.5-.505h5.311a.509.509,0,0,1,.506.505Z" transform="translate(-1344.163 934.791)"/><path class="g" d="M1843.692,761.735l-.011,12.6,18.757,6.925-.957-6.864Z" transform="translate(-1313.379 940.327)"/><path class="g" d="M2159.648,813.66V802.411l-20.79,13.366,1.39,3.7Z" transform="translate(-1343.285 936.206)"/><path class="g" d="M1846.17,763.007l97.4-56.936a22.064,22.064,0,0,1,22.079-.111l160.779,91.829a5.813,5.813,0,0,1,.023,10.082l-98.978,57.161a22.064,22.064,0,0,1-22.072,0l-159.2-91.972A5.812,5.812,0,0,1,1846.17,763.007Z" transform="translate(-1313.34 946.271)"/><path class="h" d="M1846.559,751.232l97.4-56.935a22.067,22.067,0,0,1,22.079-.111l160.779,91.83a5.812,5.812,0,0,1,.024,10.081l-98.978,57.162a22.064,22.064,0,0,1-22.072,0l-159.2-91.972A5.813,5.813,0,0,1,1846.559,751.232Z" transform="translate(-1313.379 947.465)"/><path class="c" d="M1970.509,818.874l-49.442-28.546c-2.244-1.3-2.244-3.4,0-4.691l19.436-11.222a8.979,8.979,0,0,1,8.126,0l49.442,28.546c2.244,1.3,2.244,3.4,0,4.691l-19.437,11.222A8.976,8.976,0,0,1,1970.509,818.874Z" transform="translate(-1321.049 939.141)"/><path class="c" d="M1919.384,785.658v4.689l55.188,30.737,25.182-14.539v-3.562Z" transform="translate(-1321.049 937.903)"/><path class="b" d="M1970.509,814.911l-49.442-28.547c-2.244-1.295-2.244-3.4,0-4.691l19.436-11.222a8.984,8.984,0,0,1,8.126,0L1998.07,799c2.244,1.295,2.244,3.4,0,4.691l-19.437,11.222A8.982,8.982,0,0,1,1970.509,814.911Z" transform="translate(-1321.049 939.542)"/><path class="b" d="M1982.633,808.862l-47.9-27.658,4.209-2.43,47.9,27.658Z" transform="translate(-1322.604 938.601)"/><path class="b" d="M1974.6,813.5l-47.9-27.658,4.209-2.43,47.9,27.658Z" transform="translate(-1321.79 938.131)"/><path class="d" d="M1935.79,781.266l46.951,27.108,3.256-1.88-46.951-27.108Z" transform="translate(-1322.711 938.539)"/><path class="d" d="M1927.757,785.9l46.951,27.108,3.256-1.881-46.951-27.107Z" transform="translate(-1321.897 938.069)"/><path class="d" d="M1943.607,776l46.951,27.108,3.256-1.881-46.951-27.107Z" transform="translate(-1323.503 939.072)"/><path class="i" d="M2040.995,820.01c0,3.144-4.8,5.692-10.716,5.692s-10.716-2.549-10.716-5.692,4.8-5.691,10.716-5.691S2040.995,816.868,2040.995,820.01Z" transform="translate(-1331.198 934.999)"/><ellipse class="b" cx="10.716" cy="5.691" rx="10.716" ry="5.691" transform="translate(688.365 1746.497)"/><path class="e" d="M2037.531,907.092l1.095-.636c.166-.1.165-.253,0-.35l-1.1-.634a.669.669,0,0,0-.606,0l-1.094.636a.185.185,0,0,0,0,.35l1.1.634a.665.665,0,0,0,.605,0Z" transform="translate(-1332.833 925.772)"/><path class="j" d="M2024.533,759.989c0,11.921-4.581,15.274-4.581,15.274s-1,.634-2.5,1.571a.378.378,0,0,0-.079.066l-.317.185q-1.069.673-2.336,1.466l-.08-.04-.845.5-6.469,3.828a5.7,5.7,0,0,1-5.24.04l-14.416-8.33c-1.453-.832-1.453-2.192,0-3.037l6.481-3.749,3.776-2.178h.013c.938-.541,1.835-1.056,2.614-1.518,5.293-3.049.263-17.188.013-17.887v-.013h.013Z" transform="translate(-1327.857 941.904)"/><path class="h" d="M2025.387,759.989c0,11.921-4.581,15.274-4.581,15.274s-1,.634-2.5,1.571a.353.353,0,0,0-.079.066l-.317.185q-1.069.673-2.335,1.466l-.08-.04-.845.5-19.643-11.248,3.775-2.178h.013c.937-.541,1.835-1.056,2.615-1.518,5.293-3.049.263-17.188.012-17.887l.014-.013Z" transform="translate(-1328.711 941.904)"/><path class="k" d="M2015.744,759.022c0,1.832-1.286,2.574-2.872,1.658a6.349,6.349,0,0,1-2.872-4.974c0-1.831,1.286-2.574,2.872-1.658A6.347,6.347,0,0,1,2015.744,759.022Z" transform="translate(-1330.229 941.146)"/><path class="l" d="M1928.539,777.38c-.02,0-.039.022-.059.043a1.315,1.315,0,0,1-.02-.279A.341.341,0,0,0,1928.539,777.38Z" transform="translate(-1321.968 938.766)"/><path class="m" d="M1927.491,774.309a.987.987,0,0,1-.748.061c-.027-.064-.013-.135-.05-.2Z" transform="translate(-1321.789 939.066)"/><path class="m" d="M1931.508,782.773c.136.009.273.037.41.055l-1.076-1.03C1931.07,782.117,1931.289,782.445,1931.508,782.773Z" transform="translate(-1322.21 938.294)"/><path class="l" d="M1928.166,771.655c-.02,0-.037.024-.054.048a1.361,1.361,0,0,1-.047-.275A.343.343,0,0,0,1928.166,771.655Z" transform="translate(-1321.927 939.345)"/><path class="m" d="M1926.813,768.7a.982.982,0,0,1-.74.137c-.031-.061-.025-.133-.068-.19Z" transform="translate(-1321.719 939.626)"/><path class="e" d="M1921.9,746.8l-.5.05Z" transform="translate(-1321.252 941.84)"/><path class="n" d="M9.59,9.76c-2.677,2.488-6.446,2.786-8.417.665S-.226,4.567,2.451,2.08,8.9-.706,10.868,1.415,12.266,7.272,9.59,9.76Z" transform="matrix(0.985, -0.174, 0.174, 0.985, 636.521, 1749.359)"/><path class="n" d="M.467,10.082h0a1.749,1.749,0,0,1,.091-2.47L8.247.467a1.747,1.747,0,0,1,2.469.091h0a1.747,1.747,0,0,1-.091,2.47L2.938,10.172A1.749,1.749,0,0,1,.467,10.082Z" transform="matrix(0.985, -0.174, 0.174, 0.985, 638.399, 1742.383)"/><path class="f" d="M1918.062,931.545a7.313,7.313,0,0,1,3.307-5.728c1.826-1.054,3.307-.2,3.307,1.91a7.307,7.307,0,0,1-3.307,5.728C1919.543,934.509,1918.062,933.655,1918.062,931.545Z" transform="translate(-1320.915 923.749)"/><path class="f" d="M1918.062,931.545a7.313,7.313,0,0,1,3.307-5.728c1.826-1.054,3.307-.2,3.307,1.91a7.307,7.307,0,0,1-3.307,5.728C1919.543,934.509,1918.062,933.655,1918.062,931.545Z" transform="translate(-1320.915 923.749)"/><path class="f" d="M1923.885,925.68l2.85,1.485-4.474,8.155-3.337-1.736.846-4.593Z" transform="translate(-1321.001 923.718)"/><path class="c" d="M1921.19,933.168a7.309,7.309,0,0,1,3.307-5.728c1.826-1.055,3.307-.2,3.307,1.91a7.313,7.313,0,0,1-3.307,5.728C1922.671,936.132,1921.19,935.278,1921.19,933.168Z" transform="translate(-1321.231 923.585)"/><path class="d" d="M1921.19,933.168a7.309,7.309,0,0,1,3.307-5.728c1.826-1.055,3.307-.2,3.307,1.91a7.313,7.313,0,0,1-3.307,5.728C1922.671,936.132,1921.19,935.278,1921.19,933.168Z" transform="translate(-1321.231 923.585)"/><path class="f" d="M1873.025,932.463a7.312,7.312,0,0,1,3.307-5.728c1.826-1.054,3.307-.2,3.307,1.91a7.308,7.308,0,0,1-3.307,5.728C1874.506,935.427,1873.025,934.573,1873.025,932.463Z" transform="translate(-1316.351 923.656)"/><path class="f" d="M1873.025,932.463a7.312,7.312,0,0,1,3.307-5.728c1.826-1.054,3.307-.2,3.307,1.91a7.308,7.308,0,0,1-3.307,5.728C1874.506,935.427,1873.025,934.573,1873.025,932.463Z" transform="translate(-1316.351 923.656)"/><path class="f" d="M1878.848,926.6l2.85,1.485-4.474,8.155-3.337-1.736.846-4.593Z" transform="translate(-1316.439 923.624)"/><path class="c" d="M1876.153,934.086a7.308,7.308,0,0,1,3.307-5.728c1.826-1.054,3.307-.2,3.307,1.91A7.31,7.31,0,0,1,1879.46,936C1877.633,937.05,1876.153,936.2,1876.153,934.086Z" transform="translate(-1316.669 923.492)"/><path class="d" d="M1876.153,934.086a7.308,7.308,0,0,1,3.307-5.728c1.826-1.054,3.307-.2,3.307,1.91A7.31,7.31,0,0,1,1879.46,936C1877.633,937.05,1876.153,936.2,1876.153,934.086Z" transform="translate(-1316.669 923.492)"/><path class="h" d="M1920.729,945.3l-14.634-8.45,14.634-8.449c2.4-1.387,2.4-3.656,0-5.043h0a9.691,9.691,0,0,0-8.735,0l-14.634,8.449-14.634-8.449a9.691,9.691,0,0,0-8.735,0c-2.4,1.388-2.4,3.657,0,5.043l14.635,8.449-14.635,8.45c-2.4,1.387-2.4,3.657,0,5.043h0a9.691,9.691,0,0,0,8.735,0l14.634-8.449,14.634,8.449a9.691,9.691,0,0,0,8.735,0C1923.131,948.958,1923.131,946.688,1920.729,945.3Z" transform="translate(-1316.268 924.059)"/><path class="h" d="M1920.729,945.3l-14.634-8.45,14.634-8.449c2.4-1.387,2.4-3.656,0-5.043h0a9.691,9.691,0,0,0-8.735,0l-14.634,8.449-14.634-8.449a9.691,9.691,0,0,0-8.735,0c-2.4,1.388-2.4,3.657,0,5.043l14.635,8.449-14.635,8.45c-2.4,1.387-2.4,3.657,0,5.043h0a9.691,9.691,0,0,0,8.735,0l14.634-8.449,14.634,8.449a9.691,9.691,0,0,0,8.735,0C1923.131,948.958,1923.131,946.688,1920.729,945.3Z" transform="translate(-1316.268 924.059)"/><path class="c" d="M1892,937.393c0,2.734,3.3,4.95,7.37,4.95s7.37-2.216,7.37-4.95-3.3-7.264-7.37-7.264S1892,934.659,1892,937.393Z" transform="translate(-1318.274 923.267)"/><path class="h" d="M1894.18,933.76c0,2.006,2.421,3.632,5.408,3.632s5.406-1.626,5.406-3.632-2.42-3.631-5.406-3.631S1894.18,931.756,1894.18,933.76Z" transform="translate(-1318.495 923.267)"/><path class="c" d="M1899.824,890.8a3.33,3.33,0,0,0-3.307,3.353v32.272a3.307,3.307,0,1,0,6.614,0V894.152A3.33,3.33,0,0,0,1899.824,890.8Z" transform="translate(-1318.732 927.251)"/><g transform="translate(561.144 1715.417)"><g transform="translate(32.522 84.603)"><g transform="translate(0 32.94)"><path class="l" d="M1301.134,1724.346c-2.8-2.2-9.219,1.634-12.3,2.32-1.989.442-9.241.855-8.679,4.3a11.943,11.943,0,0,0-.361,2.642,10.249,10.249,0,0,0,.319,3.364,8.977,8.977,0,0,0,4.256,2.555,5.462,5.462,0,0,0,.574-.068,12.737,12.737,0,0,0,3.809-1.789c3.8-2.326,9.483-4.369,12.338-7.886C1302.366,1728.215,1302.722,1725.594,1301.134,1724.346Z" transform="translate(-1279.783 -1723.671)"/></g><g transform="translate(1.291 28.609)"><g transform="translate(0 0)"><path class="o" d="M3.9,0H9.914a3.9,3.9,0,0,1,3.9,3.9v0a3.9,3.9,0,0,1-3.9,3.9H3.9A3.9,3.9,0,0,1,0,3.9v0A3.9,3.9,0,0,1,3.9,0Z" transform="translate(0 13.811) rotate(-89.292)"/></g></g><g transform="translate(0.125 0)"><path class="l" d="M1280.089,1688.907l-.174,33.29a4.583,4.583,0,0,0,4.2,3.91l2.282.168a4.583,4.583,0,0,0,4.915-4.791l4.084-32.577Z" transform="translate(-1279.915 -1688.907)"/></g></g><g transform="translate(0.029 63.778)"><g transform="translate(0 0)"><path class="f" d="M1321.556,1678.27a15.044,15.044,0,0,0-14.571-11.341c-.411,0-.822.018-1.241.055l-.647.054-3.458,1.478-19.721,8.463a27.559,27.559,0,0,1-27.246-3.16l-3-2.219-6.177-4.562V1685.2a11.351,11.351,0,0,0,5.492,9.726l9.224,5.556,10.749,6.469a14.062,14.062,0,0,0,14.7-.11l32.59-20.328A7.543,7.543,0,0,0,1321.556,1678.27Z" transform="translate(-1245.49 -1666.929)"/></g></g><g transform="translate(5.525 1.204)"><g transform="translate(0)"><path class="m" d="M1304.22,1626.8c-2.476,1.844-15.121,11.167-20.886,13.77a24.172,24.172,0,0,1-10.024,2.163,21.126,21.126,0,0,1-7.263-1.289,15.48,15.48,0,0,1-9.156-8.218,13.59,13.59,0,0,1-.858-2.725l-4.657-22.987c-.563-2.769,1.7-5.65,5.048-6.432s6.529.831,7.091,3.607l4.657,22.987c.006.015,0,.029.011.045a5.652,5.652,0,0,0,3.768,4.09,8.743,8.743,0,0,0,6.545-.333c3.182-1.438,12.553-7.99,18.193-12.189,2.688-2,6.55-1.935,8.631.141S1306.907,1624.81,1304.22,1626.8Z" transform="translate(-1251.29 -1600.889)"/></g></g><g transform="translate(0 0)"><g transform="translate(0 0)"><path class="p" d="M1292.614,1672.2a7.045,7.045,0,0,1-4.681,6.852c-1.716.611-4.571,1.587-6.825,2.117a15.033,15.033,0,0,1-1.779.319,30.093,30.093,0,0,1-18.842-4.3l-12.408-7.227a5.306,5.306,0,0,1-2.619-4.7l1.3-51.5a14.977,14.977,0,0,1,7.436-12.919,11.766,11.766,0,0,1,5.8-1.222,25.341,25.341,0,0,1,3.239.219c5.694.684,12.035,3.047,15.3,5.329,3.212,2.034,7.2,3.357,9.772,5.894a8.606,8.606,0,0,1,2.655,6.232C1291.026,1619.108,1292.614,1672.2,1292.614,1672.2Z" transform="translate(-1245.459 -1599.619)"/></g><g class="q" transform="translate(32.878 15.722)"><path class="p" d="M1284.532,1619a.771.771,0,0,1-.337.368,28.2,28.2,0,0,0-.437,5.279c-.018,3.3.128,6.706-1.039,9.8-.712,1.879-1.9,3.585-2.345,5.547-1.076,4.671,2.18,9.142,3.12,13.832,1.04,5.219-.812,10.519-1.3,15.811a48.436,48.436,0,0,0,.739,12.4c2.254-.53,5.109-1.506,6.825-2.117a7.045,7.045,0,0,0,4.681-6.852s-1.469-49.092-1.63-54.47C1290.388,1615.922,1286.412,1614.794,1284.532,1619Z" transform="translate(-1280.159 -1616.212)"/></g></g><g transform="translate(38.272 14.491)"><g transform="translate(0 0)"><path class="m" d="M1331.482,1646.114c-1.815,2.271-11.1,13.757-15.52,16.984a13.519,13.519,0,0,1-7.953,2.729,13.1,13.1,0,0,1-6.089-1.507,18.265,18.265,0,0,1-8.425-9.943,24.26,24.26,0,0,1-1.013-3.317l-6.428-28c-.777-3.373.748-6.908,3.4-7.891s5.436.955,6.213,4.337l6.428,28c.008.018.008.036.015.054a7.294,7.294,0,0,0,3.548,4.955,4.946,4.946,0,0,0,5.318-.463c2.438-1.783,9.36-9.858,13.495-15.031a4.288,4.288,0,0,1,7.077.094A7.636,7.636,0,0,1,1331.482,1646.114Z" transform="translate(-1285.851 -1614.912)"/></g></g><g transform="translate(59.52 75.119)"><g transform="translate(0 54.155)"><path class="f" d="M1331.41,1736.783c-3.037-2.387-9.988,1.771-13.323,2.514-2.156.48-10.013.927-9.405,4.663a12.9,12.9,0,0,0-.391,2.862,11.124,11.124,0,0,0,.346,3.645,9.728,9.728,0,0,0,4.613,2.768,5.882,5.882,0,0,0,.621-.074,13.824,13.824,0,0,0,4.127-1.938c4.113-2.521,10.276-4.735,13.37-8.546C1332.747,1740.977,1333.132,1738.136,1331.41,1736.783Z" transform="translate(-1308.276 -1736.052)"/></g><g transform="translate(1.402 49.465)"><g transform="translate(0 0)"><rect class="f" width="8.45" height="14.966" rx="4.225" transform="translate(8.449 15.066) rotate(-179.314)"/></g></g><g transform="translate(0.136)"><path class="f" d="M1309.343,1680.247l-.924,53.187a4.964,4.964,0,0,0,4.549,4.235l2.472.182a4.967,4.967,0,0,0,5.326-5.191l4.091-53.763Z" transform="translate(-1308.419 -1678.898)"/></g></g><g transform="translate(35.137 14.109)"><g transform="translate(0)"><path class="f" d="M1306.239,1646.876l-7.967-26.719a7.823,7.823,0,0,0-3.844-4.682,8.151,8.151,0,0,0-6.107-.649,7.949,7.949,0,0,0-4.785,3.755,7.63,7.63,0,0,0-.67,5.962l7.989,26.807a21.192,21.192,0,0,0,1.371,3.456l.336.661a.925.925,0,0,0,1.114.451l.716-.236c.413-.137.835-.292,1.218-.448a31.716,31.716,0,0,0,10.2-6.492l.448-.428a.882.882,0,0,0,.182-1.037Z" transform="translate(-1282.543 -1614.509)"/></g></g></g><path class="r" d="M1960.644,883.921c0,.181,0,.372-.019.563a16.451,16.451,0,0,1-8.485,13.177l-36.079,19.784a9.581,9.581,0,0,1-1.707.734,9.848,9.848,0,0,1-8.056-.877l-41.323-24.351a22.554,22.554,0,0,1-11-17.334l-4.328-46.318-.448-4.815a5.143,5.143,0,0,1,7.4-5.091l44.727,22.129a5.144,5.144,0,0,1,2.6,2.994l14.3,43.4a5.972,5.972,0,0,0,8.629,3.318l23.339-13.348A6.984,6.984,0,0,1,1960.644,883.921Z" transform="translate(-1322.463 920.327)"/><path class="f" d="M1913.114,916.057a2.867,2.867,0,0,1-3.093,3.85,9.828,9.828,0,0,1-3.632-1.268l-41.323-24.351a22.553,22.553,0,0,1-11-17.334l-3.985-42.646a2.059,2.059,0,0,1,2.963-2.037l36.091,17.844a5.164,5.164,0,0,1,2.6,3l14.292,43.4C1906.519,898.031,1909.541,906.682,1913.114,916.057Z" transform="translate(-1322.554 918.99)"/><g transform="matrix(-0.996, 0.087, -0.087, -0.996, 603.073, 1709.152)"><g transform="translate(0 0)"><path class="m" d="M23.963,13.7c-.126-3.521-.73-7-2.793-9.58C18.9,1.239,15.23.1,11.75,0A10.441,10.441,0,0,0,6.143,1.239C2.934,3.16,1.433,7.3.621,11.209a32.851,32.851,0,0,0-.6,4.5,16.754,16.754,0,0,0,.5,5.1,14.669,14.669,0,0,0,6.419,8.368,23.118,23.118,0,0,0,9.753,3.087,7.823,7.823,0,0,0,4.9-.594,4.171,4.171,0,0,0,1.98-2.744,3.2,3.2,0,0,0,.042-1.258c.1-3.2.208-6.38.313-9.58C23.963,16.651,24,15.188,23.963,13.7Z"/></g></g><g transform="translate(581.757 1699.59) rotate(9)"><g transform="translate(0)"><path class="m" d="M13.041,6.106V19.863h-.075a4.249,4.249,0,0,1-2.122,2.653A8.488,8.488,0,0,1,6.516,23.6C3.192,23.6.521,22,.075,19.863H0V6.106A5.918,5.918,0,0,1,1.908,1.787,6.7,6.7,0,0,1,5.65.046C5.994.027,6.358,0,6.729,0A7.325,7.325,0,0,1,8.954.419a6.4,6.4,0,0,1,2.3,1.5A5.877,5.877,0,0,1,13.041,6.106Z"/></g></g><g transform="translate(570.094 1671.889)"><g transform="translate(0.303 0)"><path class="l" d="M696.632,994.33c0,9.752-6.8,17.65-15.21,17.65a13.714,13.714,0,0,1-8.934-3.372,18.621,18.621,0,0,1-6.264-14.277,20.338,20.338,0,0,1,.331-3.66,19.676,19.676,0,0,1,1.836-5.441,16.562,16.562,0,0,1,5.774-6.418,13.623,13.623,0,0,1,7.257-2.131c.319,0,.65.012.969.037a13.541,13.541,0,0,1,5.831,1.805C693.209,981.418,696.632,987.41,696.632,994.33Z" transform="translate(-666.224 -976.68)"/></g><g transform="translate(4.443 5.368)"><path class="m" d="M702.258,998.856c0,9.112-7.086,16.5-15.838,16.5a15.31,15.31,0,0,1-9.31-3.152,16.711,16.711,0,0,1-6.515-13.347c0-9.124,7.086-16.511,15.826-16.511.331,0,.674.012,1,.036C695.708,982.916,702.258,990.077,702.258,998.856Z" transform="translate(-670.594 -982.345)"/></g><g transform="translate(2.571 3.427)"><path class="l" d="M675.455,994.364a5.868,5.868,0,0,1,1.327-2.843l1.137-1.212c.038-.041.081-.069.119-.108.325-3.878,2.727-8.1,5.809-9.9l-5.486,1.94-1.568,2.557v-2.958a17.339,17.339,0,0,0-8.176,11.683h5.823v.845Z" transform="translate(-668.618 -980.297)"/></g><g transform="translate(0 0.64)"><path class="l" d="M704.366,980.909c.165-2.759-1-4.5-4.743-3-8.2,3.29-17.037-1.779-25.132,2.064-9.735,4.62-10.617,18.095-5.525,27.482,2.035,3.752,5.484,8.728,9.537,8.352,7.671-.713,11.55-7.358,15.93-18,1.353-3.288,2.857-3.541,5.029-5.61C701.459,990.293,704.142,984.661,704.366,980.909Z" transform="translate(-665.905 -977.355)"/></g><g transform="translate(21.249 17.896)"><path class="m" d="M697.776,1000.6a4.732,4.732,0,1,1-4.722-5.032A4.885,4.885,0,0,1,697.776,1000.6Z" transform="translate(-688.33 -995.567)"/></g></g><g transform="translate(465.927 1578.893)"><path class="o" d="M1749.834,472.108l-.064-22.784c-.03-10.959,7.684-24.312,17.213-29.82l61.2-35.326c4.794-2.775,9.141-3.034,12.281-1.206q-4.761-2.764-9.527-5.542c-3.14-1.824-7.489-1.56-12.295,1.209l-61.191,35.332c-9.53,5.5-17.246,18.849-17.216,29.814l.064,22.784c.019,5.44,1.938,9.27,5.034,11.074l9.537,5.544C1751.774,481.383,1749.847,477.552,1749.834,472.108Z" transform="translate(-1740.238 -376.268)"/><path class="d" d="M1824.044,381.36c9.531-5.512,17.292-1.088,17.323,9.874l.064,22.779c.03,10.965-7.677,24.309-17.222,29.816,1.454,4.283,3.485,8.212,6.226,10.853-.5.284-11.422,6.443-22.453-1.478l-44.966,25.958c-9.528,5.506-17.291,1.089-17.327-9.871l-.063-22.784c-.03-10.96,7.684-24.314,17.211-29.822Z" transform="translate(-1737.564 -374.919)"/></g><g transform="translate(659.135 1572.008)"><path class="c" d="M2000.351,749.255s5.333,14.564,0,17.644l-2.579,1.488-.008,0-10.11,5.839c-1.423.822-1.422,2.167,0,2.988l14.2,8.2a5.611,5.611,0,0,0,5.149-.043l7.211-4.264.072.034c.829-.515,1.6-1,2.3-1.437l.317-.187c.03-.019.049-.041.077-.06,1.462-.918,2.453-1.546,2.453-1.546s4.51-3.3,4.51-15.04Z" transform="translate(-1972.547 -644.936)"/><path class="j" d="M2023.951,759.777c0,11.738-4.51,15.04-4.51,15.04s-.988.624-2.457,1.547a.381.381,0,0,0-.078.065l-.312.182q-1.052.662-2.3,1.443l-.079-.04-.832.495-6.37,3.77a5.609,5.609,0,0,1-5.16.039l-14.194-8.2c-1.43-.819-1.43-2.158,0-2.99l6.381-3.692,3.718-2.145h.013c.923-.533,1.807-1.04,2.574-1.495,5.212-3,.259-16.924.012-17.613v-.013h.013Z" transform="translate(-1972.547 -644.581)"/><path class="h" d="M2024.92,759.777c0,11.738-4.51,15.04-4.51,15.04s-.989.624-2.458,1.547a.359.359,0,0,0-.078.065l-.312.182q-1.052.662-2.3,1.443l-.079-.04-.832.495-19.342-11.075,3.717-2.145h.013c.923-.533,1.807-1.04,2.574-1.495,5.212-3,.259-16.924.012-17.613l.013-.013Z" transform="translate(-1973.518 -644.581)"/><path class="s" d="M2056.482,704.671l-75.213-43.423c-1.869-1.079-3.3-.631-4.929.686l-3.475,1.949,3.738,2.642v58.76a10.313,10.313,0,0,0,4.666,8.083l73.651,42.521v3.342a.6.6,0,0,0,.943.495l3.532-2.435c1.067-.37,1.754-1.488,1.754-3.194V712.764A10.328,10.328,0,0,0,2056.482,704.671Z" transform="translate(-1970.968 -634.736)"/><path class="t" d="M2055.884,716.09v61.331c0,2.983-2.093,4.18-4.666,2.695L1976,736.692a10.31,10.31,0,0,1-4.667-8.083V667.279c0-2.983,2.092-4.191,4.667-2.705L2051.217,708A10.331,10.331,0,0,1,2055.884,716.09Z" transform="translate(-1970.792 -635.116)"/><path class="u" d="M1977.728,731.742V672.688l73.234,42.28v59.055Z" transform="translate(-1971.528 -636.123)"/><path class="c" d="M2053.232,788.048a4.779,4.779,0,0,1-2.358-.713l-75.213-43.423a10.769,10.769,0,0,1-4.938-8.554v-12.8L2056.357,772v12.169a3.791,3.791,0,0,1-1.638,3.494A2.941,2.941,0,0,1,2053.232,788.048Zm-81.421-63.6v10.912a9.729,9.729,0,0,0,4.394,7.612l75.213,43.423a2.318,2.318,0,0,0,3.85-2.223v-11.54Z" transform="translate(-1970.722 -641.863)"/><path class="k" d="M2015.656,758.94c0,1.8-1.266,2.534-2.828,1.633a6.252,6.252,0,0,1-2.828-4.9c0-1.8,1.266-2.534,2.828-1.633A6.249,6.249,0,0,1,2015.656,758.94Z" transform="translate(-1975.243 -645.443)"/><path class="m" d="M1442.816,1493.3l-3.486,18.834a7.525,7.525,0,0,1-3.062,6.05c-10.989,9.529-3.541-5.765-3.541-6.05l3.485-18.834a3.3,3.3,0,0,1,6.6,0Z" transform="translate(-1406.86 -1412.251)"/><path class="o" d="M1454.62,1506.991a2.726,2.726,0,0,0,1.277-.825,1.988,1.988,0,0,0,.5-1.335l3.05-12.828c0-2.544-1.651-4.6-3.689-4.6s-3.689,2.06-3.689,4.6l-2.559,10.757a1.8,1.8,0,0,0,.9,1.9Z" transform="translate(-1423.186 -1410.829)"/><path class="o" d="M1480.267,1506.48c-.022,5.673-.667,12.091-2.427,13.708-1.359,1.25-3.843,1.346-6.475.88q-.248-.039-.5-.091a26.731,26.731,0,0,1-7.969-3c-.414-.248-5.185-2.444-7.2-3.664a.261.261,0,0,0-.262-.026c1.142-2.736,2.471-6.226,2.327-9.129-.122-2.492-1.433-5.067-1.791-7.59-.649-4.593-.684-11.194,3.926-13.869a5.619,5.619,0,0,1,2.771-.588,8.548,8.548,0,0,1,1.538.1c7.1,1.294,10.863,3.582,13,7.093a22.853,22.853,0,0,1,2.657,8.767c.031.214.061.449.088.7.017.126.03.252.043.383A61.669,61.669,0,0,1,1480.267,1506.48Z" transform="translate(-1426.447 -1408.48)"/><path class="o" d="M1475.434,1488.316l-3.842,4.307a1.033,1.033,0,0,1-1.61-.086l-2.234-3.1-3.21.573a.64.64,0,0,1-.752-.63v-1a4.671,4.671,0,0,1,3.692-4.569,10.714,10.714,0,0,1,2.242-.234,9.39,9.39,0,0,1,5.384,1.562A2.147,2.147,0,0,1,1475.434,1488.316Z" transform="translate(-1431.018 -1408.738)"/><path class="o" d="M1499.542,1515.189c-.022,5.673-.667,12.091-2.427,13.708-1.359,1.25-3.843,1.346-6.475.88a7.337,7.337,0,0,1,.344-.78c2.357-3.825,2.662-4.923,2.187-9.459a14.669,14.669,0,0,1,.1-5.377c.458-1.651,1.5-3.25,1.185-4.932a10.109,10.109,0,0,0-.863-2.148,8.226,8.226,0,0,1-.532-4.784,4.465,4.465,0,0,1,1.138-2.4,3.236,3.236,0,0,1,2.279-.885,22.851,22.851,0,0,1,2.658,8.767c.031.213.061.449.087.7.017.122.031.252.044.383C1499.433,1510.514,1499.533,1512.758,1499.542,1515.189Z" transform="translate(-1445.72 -1417.189)"/><path class="e" d="M1475.718,1486.053a1.908,1.908,0,0,1-.61,1.355,4.241,4.241,0,0,1-5.408.048,1.825,1.825,0,0,1,0-2.806c.04-.035.083-.074.127-.109,0,0,.009-.009.013-.009a3.763,3.763,0,0,1,1.848-.776c.113-.017.227-.031.344-.039s.231-.013.348-.013a3.872,3.872,0,0,1,2.728,1A1.9,1.9,0,0,1,1475.718,1486.053Z" transform="translate(-1433.896 -1408.806)"/><path class="m" d="M1475.9,1473.15v8.479a3.876,3.876,0,0,1-2.727,1,3.95,3.95,0,0,1-2.619-.9.547.547,0,0,1-.061-.052v-8.527Z" transform="translate(-1434.69 -1403.028)"/><path class="v" d="M1472.909,1482.581a4.175,4.175,0,0,1-2.764-.953c0,.005-.026-.021-.042-.036l-.067-.064-.024-.115v-8.745h5.843v8.787l-.064.064A4.126,4.126,0,0,1,1472.909,1482.581Zm-2.462-1.266a3.789,3.789,0,0,0,2.462.83,3.738,3.738,0,0,0,2.51-.872V1473.1h-4.972Z" transform="translate(-1434.427 -1402.764)"/><path class="m" d="M1475.621,1475.75l-.466.693-2.357,3.377-.331.47-1.913,2.863a.588.588,0,0,1-.061-.052v-4.418l0-.022a31.876,31.876,0,0,1,2.606-2.767l2.109-.117Z" transform="translate(-1434.69 -1404.451)"/><path class="m" d="M1470.356,1462.327c-.022.314-.391.575-.78.823-.13.087-.26.173-.38.271-.011,0-.022,0-.032.022a1.228,1.228,0,0,0-.249.217.635.635,0,0,0-.184.314,6.291,6.291,0,0,1-.379,1.181,6.4,6.4,0,0,1-2.449,2.882,6.558,6.558,0,0,1-.726.379,4.986,4.986,0,0,1-1.571.433,3.994,3.994,0,0,1-.629.022,5.251,5.251,0,0,1-4.887-4.335,10.03,10.03,0,0,1-.184-1.614c-.011-.629,0-1.246.022-1.853.043-.964.076-1.929.108-2.882.011-.39.033-.769.044-1.159a1.257,1.257,0,0,1,.01-.531,1.77,1.77,0,0,1,.921-1.159,3.962,3.962,0,0,1,2.275-.26,11.7,11.7,0,0,1,4.519,1.311,6.315,6.315,0,0,1,2.969,3.532C1468.991,1460.615,1470.389,1461.6,1470.356,1462.327Z" transform="translate(-1427.797 -1393.106)"/><path class="e" d="M1469.842,1452.6a6.039,6.039,0,0,0-1.417-3.6,6.352,6.352,0,0,0-3-1.862,6.651,6.651,0,0,0-2.377-.363,16.855,16.855,0,0,0-3.272.928c-1.125.315-2.317.38-3.414.782a3.212,3.212,0,0,0-2.265,2.433,2.937,2.937,0,0,0,1.913,2.78,8.608,8.608,0,0,0,3.556.451c.818-.012,2.524-.357,3.263.025,1.127.585.707,2.287,1.243,3.2a.872.872,0,0,0,.782.444c.738-.051,1-1.092,1.7-1.344a1.064,1.064,0,0,1,1.267.605,1.487,1.487,0,0,1-.234,1.456c-.332.435-.982.483-1.28.829-.246.287-.154.78-.055,1.239a1.232,1.232,0,0,0,.734.931C1469.9,1462.533,1469.945,1453.975,1469.842,1452.6Z" transform="translate(-1425.71 -1388.582)"/><path class="m" d="M1481.738,1504.27v19.705a7.526,7.526,0,0,1-3.063,6.05c-13.326,8.022-18.114,3.342-3.9-5.328a.9.9,0,0,0,.363-.722V1504.27a3.3,3.3,0,1,1,6.6,0Z" transform="translate(-1429.078 -1418.259)"/><path class="o" d="M1496.319,1522.257a3.807,3.807,0,0,0,3.515-1.31,1.992,1.992,0,0,0,.5-1.335v-15.878c0-2.543-1.651-4.6-3.689-4.6s-3.689,2.06-3.689,4.6v16.453a1.163,1.163,0,0,0,.709,1.071A11.817,11.817,0,0,0,1496.319,1522.257Z" transform="translate(-1446.988 -1417.252)"/><path class="c" d="M2055.883,772.436v11.855c0,2.983-2.093,4.18-4.666,2.695L1976,743.563a10.309,10.309,0,0,1-4.667-8.083V723.625Z" transform="translate(-1970.792 -641.986)"/><path class="o" d="M1831.727,472.112l.065-22.784c.03-10.959-7.757-24.313-17.375-29.821l-61.781-35.328c-4.84-2.775-9.227-3.034-12.4-1.206q4.806-2.764,9.617-5.542c3.169-1.824,7.559-1.56,12.411,1.209l61.769,35.334c9.62,5.5,17.408,18.85,17.378,29.815l-.065,22.784c-.02,5.441-1.957,9.27-5.081,11.074l-9.628,5.544C1829.768,481.386,1831.713,477.555,1831.727,472.112Z" transform="translate(-1686.376 -376.268)"/><path class="d" d="M1763.4,381.386c-9.74-5.573-17.67-1.1-17.7,9.984l-.066,23.032c-.031,11.086,7.844,24.579,17.6,30.146-1.486,4.33-3.561,8.3-6.362,10.973.508.287,11.672,6.514,22.943-1.494l45.948,26.246c9.737,5.567,17.668,1.1,17.705-9.981l.064-23.036c.03-11.082-7.852-24.584-17.587-30.152Z" transform="translate(-1694.461 -375.974)"/></g></g><g transform="translate(407 1812.484)"><path class="w" d="M276,660H813.675s-11.269,20.927-37.026,17.708a149.484,149.484,0,0,1-20.927-1.61c-9.659-1.61-24.147,3.22-27.367,8.049,0,0-24.147,14.488-64.392,0,0,0-37.026-16.1-62.782-1.61,0,0-19.318,20.928-69.222-4.829,0,0-12.879-8.049-35.416,8.049,0,0-22.537,19.318-66-8.049,0,0-24.147-6.439-51.514,6.439C379.028,684.147,324.294,692.2,276,660Z" transform="translate(-276 -571.461)"/><path class="x" d="M582.407,634.075s27.206,15.026,15.19,36.5C597.6,670.576,578.133,666.564,582.407,634.075Z" transform="translate(-89.525 -587.27)"/><path class="y" d="M614.007,623s14.488,46.684-22.537,57.953C591.47,680.953,573.762,655.2,614.007,623Z" transform="translate(-85.991 -594.023)"/><path class="y" d="M334.352,621.92s-41.564,22.958-23.207,55.765C311.145,677.685,340.883,671.557,334.352,621.92Z" transform="translate(-257.422 -594.682)"/><path class="x" d="M292.061,605s-22.135,71.324,34.43,88.539C326.492,693.539,353.546,654.189,292.061,605Z" transform="translate(-268.808 -605)"/></g></g></svg>