<svg xmlns="http://www.w3.org/2000/svg" width="537.675" height="271.511" viewBox="0 0 537.675 271.511"><defs><style>.a{fill:#e2e5f3;}.b{fill:#f5f5fa;}.c{fill:#3d2768;}.d{fill:#5dc5c7;}.e{fill:#2d1d50;}.f{fill:#bdc0df;}.g{fill:rgba(15,0,0,0.1);}.h{fill:#c4e4f9;}.i{fill:#0f62fe;}.j{fill:#d9def0;}.k{fill:#bdc1e1;}.l{fill:#fff;}.m{fill:#e4e6f3;}.n{fill:#c76a72;}.o{fill:#d2d2d2;}.p{fill:#fec7cb;}.q{fill:#636363;}.r{fill:#842128;}.s{opacity:0.43;mix-blend-mode:multiply;isolation:isolate;}.t{fill:#3772ce;}.u{fill:#b3bade;}.v{fill:#3c2768;}.w{fill:#f69874;}.x{fill:#5678bb;}.y{fill:#ee3f5c;}.z{fill:#ffc7cb;}.aa{fill:#75a3ec;}.ab{fill:#1f3598;}.ac{fill:#ff8358;}</style></defs><g transform="translate(-405 -3882.889)"><g transform="translate(809.903 3883)"><ellipse class="a" cx="27.552" cy="17.506" rx="27.552" ry="17.506" transform="translate(14.307 185.91)"/><path class="a" d="M3794.734,802.441l.061,1.049A8.57,8.57,0,0,1,3794.734,802.441Z" transform="translate(-3791.158 -668.346)"/><path class="a" d="M3842.717,802.441a9.133,9.133,0,0,1-.1,1.354Z" transform="translate(-3789.238 -668.346)"/><path class="a" d="M3844.638,803.036l-.1,1.354c-1.1,7.9-11.814,14.089-24.858,14.089-13.211,0-24.023-6.352-24.889-14.394l-.061-1.049c0-8.53,11.172-15.443,24.949-15.443S3844.638,794.507,3844.638,803.036Z" transform="translate(-3791.158 -668.941)"/><path class="b" d="M3844.536,803.751l-4.1,57.716c0,6.077-9.5,11-21.211,11-9.946,0-18.285-3.548-20.579-8.328a6.03,6.03,0,0,1-.632-2.669l-3.215-58.017c.868,8.039,11.672,14.395,24.887,14.395C3832.726,817.845,3843.433,811.65,3844.536,803.751Z" transform="translate(-3791.156 -668.305)"/><path class="c" d="M3841.636,802.282l-.092,1.2c-.653,4.674-5.1,8.67-11.435,10.807a31.808,31.808,0,0,1-7.017,1.482c-.635.068-1.281.11-1.941.14-.524.024-1.061.036-1.6.036-.878,0-1.744-.03-2.593-.1a31.261,31.261,0,0,1-3.38-.415,28.978,28.978,0,0,1-4.778-1.22c-6.345-2.19-10.757-6.267-11.27-11l-.055-.933c0-3.307,1.9-6.346,5.064-8.708a23.573,23.573,0,0,1,7.084-3.5c.713-.226,1.446-.421,2.2-.6a34.425,34.425,0,0,1,7.724-.86c.624,0,1.245.018,1.856.055.854.036,1.69.109,2.508.213a28.192,28.192,0,0,1,11.2,3.7C3839.14,795.063,3841.636,798.493,3841.636,802.282Z" transform="translate(-3791.048 -668.9)"/><path class="d" d="M3824.6,753.044c-.037-3.24-2.855-9.555-1.22-16.926,4.167-18.781-7.072-61.473-8.732-62.578-1.056-.7-5.113,13.185-8.579,30.532a4.766,4.766,0,0,1,1.5.4,4.975,4.975,0,0,1,0,9.085,4.888,4.888,0,0,1-2.032.434,4.779,4.779,0,0,1-.787-.061,3.5,3.5,0,0,1-.506-.11c-1.275,7.4-2.35,15.035-2.978,22.161-.738,8.389-.866,16.078.019,21.843,1.721,11.276,5.071,25.1,8.213,36.866,1.03,3.85,2.043,7.48,2.966,10.72,2.495,8.768,4.368,14.748,4.368,14.748v.3c.738.061,1.489.091,2.245.091.115.006.232.006.348.006.537,0,1.074-.013,1.6-.036.659-.03,1.306-.073,1.941-.14.1-2.929.464-14.2.824-26.883C3824.234,777.841,3824.68,760.018,3824.6,753.044Zm-9.952-22.667a3.213,3.213,0,0,1,1.727.5,3.131,3.131,0,0,1,.72.61v.006a3.234,3.234,0,0,1-.537,4.76v.006c-.006.006-.011.006-.018.012a3.219,3.219,0,0,1-1.892.61,3.252,3.252,0,1,1,0-6.5Zm-2.221,39.818v.006a3.251,3.251,0,1,1,.537-4.771v.006a3.234,3.234,0,0,1-.537,4.759Zm7.5,14.156a4.828,4.828,0,0,1-1.927.434h-.1a4.849,4.849,0,0,1-.787-.061,4.978,4.978,0,0,1,.293-9.866,2.565,2.565,0,0,1,.3-.018c.067-.006.128-.006.2-.006a4.9,4.9,0,0,1,2.031.433,4.97,4.97,0,0,1,0,9.085Z" transform="translate(-3790.92 -673.515)"/><path class="d" d="M3843.683,740.7a4.874,4.874,0,0,1,1.959.4,94.756,94.756,0,0,0,1.556-13.179c-.068-13.82-5.748-37.244-7.565-39.019-.092-.091-.172-.128-.239-.11l-.006.006c-1.428.47-13.869,29.007-16.792,46.7-.183,1.117-.33,2.19-.434,3.21-.011.109-.024.219-.03.329-.019.178-.036.355-.055.543-.134,1.52-.262,3.393-.377,5.559-.019.409-.044.824-.061,1.25q-.045.724-.074,1.483c-.023.464-.042.933-.066,1.416-.042,1.031-.085,2.111-.128,3.227q-.028.76-.055,1.538c-.006.231-.019.469-.025.714a4.278,4.278,0,0,1,.494-.025,4.885,4.885,0,0,1,2.032.434,4.975,4.975,0,0,1,0,9.085,4.885,4.885,0,0,1-2.032.433,4.763,4.763,0,0,1-.787-.06c-.068,2.776-.129,5.656-.184,8.585-.012.586-.025,1.171-.036,1.763-.092,4.68-.171,9.464-.232,14.168-.006.586-.019,1.177-.025,1.763s-.018,1.171-.023,1.758c-.135,10.414-.213,20.189-.258,27.237.66-.03,1.307-.073,1.941-.14.555-.055,1.1-.122,1.635-.207.336-.049.666-.1.994-.165a29.061,29.061,0,0,0,4.387-1.11c.781-3.308,2.7-11.49,5-21.7,3.16-13.955,7.041-31.692,9.731-45.945-.085.006-.164.006-.25.006a4.976,4.976,0,1,1,0-9.952ZM3831.992,780.3a3.221,3.221,0,0,1-2.66-1.392,3.189,3.189,0,0,1-.585-1.854,3.249,3.249,0,1,1,3.246,3.246Zm3.636-57.843v.006a3.25,3.25,0,1,1,.538-4.772v.006a3.236,3.236,0,0,1-.538,4.759Z" transform="translate(-3790.135 -672.903)"/><path class="d" d="M3812.84,803.294q-.119-1.712-.238-3.527a2.921,2.921,0,0,1-.836.116,3.2,3.2,0,0,1-2.653-1.392,3.145,3.145,0,0,1-.586-1.854,3.263,3.263,0,0,1,3.239-3.253,2.3,2.3,0,0,1,.41.03c-.031-.475-.068-.958-.1-1.44-1.068-15.87-2.259-33.577-2.643-39.264-.4-5.973-4.062-13.4-7.791-18.848-3.192-4.649-6.431-7.846-7.755-7.444-1.189.36-1.994,5.766-2.361,12.4a4.74,4.74,0,0,1,.926-.183,4.531,4.531,0,0,1,.5-.024,5.043,5.043,0,0,1,.531.03,1.974,1.974,0,0,1,.256.036,4.762,4.762,0,0,1,1.245.366,4.87,4.87,0,0,1,1.708,1.264,4.922,4.922,0,0,1,1.239,3.283,4.86,4.86,0,0,1-.257,1.561,4.956,4.956,0,0,1-2.69,2.978,4.572,4.572,0,0,1-.873.3,5.164,5.164,0,0,1-1.159.134,4.8,4.8,0,0,1-.788-.061,3.637,3.637,0,0,1-.506-.109,3.682,3.682,0,0,1-.36-.117c.024,6.682.47,12.917,1.372,15.4.733,2.019,2.752,8.42,5.144,16.157a4.678,4.678,0,0,1,1.959-.634,2.317,2.317,0,0,1,.3-.019c.067-.006.129-.006.195-.006a5.164,5.164,0,0,1,1.38.189,4.71,4.71,0,0,1,.653.244,4.974,4.974,0,0,1,1.684,7.864,5.154,5.154,0,0,1-1.684,1.221,4.712,4.712,0,0,1-1.635.415c.713,2.325,1.432,4.667,2.128,6.955,2.808,9.214,5.327,17.549,6.261,20.642a26.439,26.439,0,0,0,2.648.781c.2.049.39.1.592.134.5.117,1.02.219,1.537.3C3813.632,815,3813.273,809.695,3812.84,803.294Zm-8.981-47.251a3.214,3.214,0,0,1,1.727.5,3.153,3.153,0,0,1,.72.611v.006a3.237,3.237,0,0,1-.537,4.758v.006c-.007.006-.012.006-.019.013a3.208,3.208,0,0,1-1.892.61,3.252,3.252,0,0,1,0-6.5Z" transform="translate(-3791.296 -671.395)"/><path class="c" d="M3792.446,738.64a4.756,4.756,0,0,0-.927.183c.367-6.638,1.172-12.044,2.361-12.4,0,0-.256,5.271-.153,12.264a1.963,1.963,0,0,0-.256-.036,5.019,5.019,0,0,0-.531-.03A4.528,4.528,0,0,0,3792.446,738.64Z" transform="translate(-3791.286 -671.394)"/><path class="c" d="M3801.644,778.526a5.161,5.161,0,0,0-1.38-.189c-.066,0-.127,0-.195.006a2.339,2.339,0,0,0-.3.019,4.678,4.678,0,0,0-1.959.634c-2.392-7.737-4.411-14.138-5.144-16.157-.9-2.484-1.348-8.719-1.372-15.4a3.714,3.714,0,0,0,.36.116,3.637,3.637,0,0,0,.506.109,4.81,4.81,0,0,0,.788.061,5.164,5.164,0,0,0,1.159-.134c.482,7.383,1.52,14.931,3.618,19.629A105.993,105.993,0,0,1,3801.644,778.526Z" transform="translate(-3791.296 -670.551)"/><path class="c" d="M3811.339,815.137a26.427,26.427,0,0,1-2.648-.781c-.934-3.093-3.453-11.428-6.26-20.642-.7-2.288-1.416-4.63-2.129-6.955a4.71,4.71,0,0,0,1.635-.415,5.148,5.148,0,0,0,1.684-1.221C3806.524,795.576,3809.465,807.412,3811.339,815.137Z" transform="translate(-3790.935 -669.04)"/><path class="e" d="M3823.25,793.5c-.36,12.685-.726,23.954-.824,26.883-.635.068-1.281.11-1.941.141-.524.024-1.061.036-1.6.036-.115,0-.232,0-.347-.006l-1.079-35.773a4.829,4.829,0,0,0,1.928-.434,4.97,4.97,0,0,0,0-9.085,4.91,4.91,0,0,0-2.032-.433c-.068,0-.129,0-.2.006L3816,736.271c.006-.006.011-.006.018-.013v-.006a3.233,3.233,0,0,0,.536-4.759v-.006a3.1,3.1,0,0,0-.719-.609l-1.727-57.337c1.66,1.1,12.9,43.8,8.732,62.578-1.635,7.37,1.184,13.686,1.22,16.926C3824.141,760.017,3823.695,777.84,3823.25,793.5Z" transform="translate(-3790.38 -673.514)"/><path class="c" d="M3823.816,761.359c-.006,18.079,0,44.413,0,55.3-.537.085-1.08.152-1.635.207-.635.068-1.282.11-1.941.14.045-7.048.123-16.823.258-27.237.006-.587.017-1.166.023-1.758s.019-1.177.025-1.763c.061-4.7.141-9.488.232-14.168.011-.592.024-1.177.036-1.763.055-2.929.116-5.809.184-8.585a4.783,4.783,0,0,0,.787.06A4.885,4.885,0,0,0,3823.816,761.359Z" transform="translate(-3790.135 -669.993)"/><path class="c" d="M3839.347,688.8l-.007.024c-.47,1.355-15.559,44.89-15.565,63.6v2.752a4.883,4.883,0,0,0-2.031-.434,4.32,4.32,0,0,0-.5.025c.006-.244.019-.482.025-.714q.026-.778.055-1.538c.042-1.116.085-2.2.128-3.227.024-.483.043-.952.066-1.416q.029-.76.074-1.483c.018-.427.043-.841.061-1.25.116-2.167.244-4.04.378-5.559.019-.188.037-.365.056-.543.006-.109.018-.219.03-.329.1-1.019.25-2.093.433-3.21C3825.478,717.811,3837.918,689.274,3839.347,688.8Z" transform="translate(-3790.095 -672.902)"/><path class="b" d="M3838.527,745.683a4.975,4.975,0,0,0,4.979,4.973c.085,0,.165,0,.25-.006-2.691,14.254-6.571,31.99-9.731,45.945-2.307,10.207-4.222,18.39-5,21.7a29.054,29.054,0,0,1-4.387,1.11l4.521-40.5a3.248,3.248,0,0,0,5.913-1.855,3.255,3.255,0,0,0-3.252-3.252,3.206,3.206,0,0,0-2.184.854l5.82-52.192v-.006a3.235,3.235,0,0,0,.537-4.76v-.006l3.216-28.861.006-.024.245.1c1.817,1.775,7.5,25.2,7.565,39.019a94.546,94.546,0,0,1-1.556,13.179,4.871,4.871,0,0,0-1.958-.4A4.977,4.977,0,0,0,3838.527,745.683Z" transform="translate(-3789.959 -672.902)"/><path class="b" d="M3812.74,803.294q-.119-1.712-.238-3.527a2.919,2.919,0,0,1-.836.116,3.2,3.2,0,0,1-2.653-1.392,3.145,3.145,0,0,1-.586-1.854,3.263,3.263,0,0,1,3.24-3.253,2.305,2.305,0,0,1,.41.03c-.031-.475-.068-.958-.1-1.44-1.067-15.87-2.258-33.577-2.642-39.264-.4-5.973-4.063-13.4-7.791-18.848-3.192-4.649-6.432-7.846-7.756-7.444l2.8,13.894a4.922,4.922,0,0,1,1.24,3.283,4.86,4.86,0,0,1-.257,1.561l14.619,72.469c.5.117,1.02.219,1.537.3C3813.533,815,3813.173,809.695,3812.74,803.294Zm-7.072-41.375v.006c-.006.006-.011.006-.018.013a3.21,3.21,0,0,1-1.892.61,3.252,3.252,0,0,1,0-6.5,3.214,3.214,0,0,1,1.727.5,3.142,3.142,0,0,1,.72.611v.006a3.236,3.236,0,0,1-.537,4.758Z" transform="translate(-3791.196 -671.395)"/><path class="f" d="M3844.389,803.739l-4.1,57.716c0,6.077-9.5,11-21.211,11-9.946,0-18.285-3.548-20.579-8.328l-.01-.032c27.878-25.5,21.05-46.259,21.05-46.259C3832.578,817.833,3843.285,811.639,3844.389,803.739Z" transform="translate(-3791.008 -668.294)"/></g><g transform="translate(405 4033.484)"><path class="g" d="M276,660H813.675s-11.269,20.927-37.026,17.708a149.484,149.484,0,0,1-20.927-1.61c-9.659-1.61-24.147,3.22-27.367,8.049,0,0-24.147,14.488-64.392,0,0,0-37.026-16.1-62.782-1.61,0,0-19.318,20.928-69.222-4.829,0,0-12.879-8.049-35.416,8.049,0,0-22.537,19.318-66-8.049,0,0-24.147-6.439-51.514,6.439C379.028,684.147,324.294,692.2,276,660Z" transform="translate(-276 -571.461)"/><path class="h" d="M582.407,634.075s27.206,15.026,15.19,36.5C597.6,670.576,578.133,666.564,582.407,634.075Z" transform="translate(-89.525 -587.27)"/><path class="i" d="M614.007,623s14.488,46.684-22.537,57.953C591.47,680.953,573.762,655.2,614.007,623Z" transform="translate(-85.991 -594.023)"/><path class="i" d="M334.352,621.92s-41.564,22.958-23.207,55.765C311.145,677.685,340.883,671.557,334.352,621.92Z" transform="translate(-257.422 -594.682)"/><path class="h" d="M292.061,605s-22.135,71.324,34.43,88.539C326.492,693.539,353.546,654.189,292.061,605Z" transform="translate(-268.808 -605)"/></g><g transform="translate(-6480 -7468)"><g transform="translate(7129.748 11429.964)"><g transform="translate(-29 21)"><path class="j" d="M1466.6,957.2l-33.145,18.759-36.585-21.122,32.8-18.956Z" transform="translate(-1396.868 -878.647)"/><path class="k" d="M1430.013,953.187v2.754l-33.145,18.723v-2.719Z" transform="translate(-1360.283 -874.638)"/><path class="k" d="M1436.157,889.411v79.2s-2.359,2.956-8.847,2.956-7.087-2.544-7.087-2.544V890.336l7.087,4.072Z" transform="translate(-1395.191 -889.411)"/></g></g><path class="l" d="M1586.561,843.556l-123.2,69.727-135.983-78.509,121.931-70.459Z" transform="translate(5657.505 10586.574)"/><path class="j" d="M1586.561,843.556l-137.25-79.242-121.931,70.459,144.653-29.048Z" transform="translate(5657.505 10586.574)"/><path class="m" d="M1450.577,828.652V838.89l-123.2,69.594v-10.1Z" transform="translate(5793.488 10601.479)"/><path class="n" d="M1361.209,810.105l-3.719-2.269A23.756,23.756,0,0,0,1361.209,810.105Z" transform="translate(5805.189 10618.447)"/><g transform="translate(7127.188 11439.326)"><g transform="translate(0 0)"><path class="a" d="M3683.9,797.576s.039.409.118,1.106c.8-4.019,5.863-7.1,11.991-7.1s11.2,3.083,11.992,7.116c0-.027.013-.053.013-.08.04-.356.065-.646.093-.817.013-.144.013-.223.013-.223,0-4.547-5.417-8.236-12.111-8.236S3683.9,793.029,3683.9,797.576Z" transform="translate(-3680.252 -789.34)"/><g transform="translate(0 2.24)"><path class="e" d="M3688.632,810.263c0,4.2,4.731,7.618,10.555,7.618s10.555-3.415,10.555-7.618a5.964,5.964,0,0,0-.315-1.872,7.789,7.789,0,0,1-5.088,1.872c-2.727,0-5.889-4.021-7.536-5.971-.962.631-3.278.762-3.752-.49C3691.139,805.185,3688.632,808.169,3688.632,810.263Z" transform="translate(-3688.632 -784.837)"/><path class="a" d="M3684,795.981c.553,4.336,3.057,18.436,11.978,18.436s11.412-14.1,11.953-18.436c-.884,3.953-5.9,6.985-11.965,6.985S3684.885,799.934,3684,795.981Z" transform="translate(-3680.21 -788.733)"/><path class="o" d="M3683.984,798.01c0,.027.012.066.012.093a.081.081,0,0,0,.013.053c.883,3.953,5.9,6.985,11.966,6.985s11.082-3.032,11.965-6.985c.014-.04.014-.093.027-.131-.79-4.033-5.865-7.116-11.992-7.116S3684.786,793.991,3683.984,798.01Z" transform="translate(-3680.216 -790.908)"/></g></g><path class="e" d="M3697.534,804.761a3.712,3.712,0,0,0,1.66,2.319,2.691,2.691,0,0,0,2.49-.566,22.173,22.173,0,0,1-1.594-2.78A11.879,11.879,0,0,0,3697.534,804.761Z" transform="translate(-3693.291 -783.17)"/></g><g transform="translate(7019.88 11387.265)"><g transform="translate(16.712 26.923)"><g transform="translate(0 0)"><path class="p" d="M774.734,1729.746h11.249l1.387-8.279,1.04-6.243H777.162Z" transform="translate(-774.734 -1715.225)"/></g></g><g transform="translate(33.669 17.542)"><g transform="translate(0 0)"><path class="q" d="M799.167,1713.861a6.243,6.243,0,0,1-2.776-.677,5.968,5.968,0,0,1-2.758-2.72,3.8,3.8,0,0,1-.066-3.38c1.034-2.069,3.982-2.7,6.573-1.4s3.858,4.031,2.825,6.1a3.8,3.8,0,0,1-2.743,1.975A5.224,5.224,0,0,1,799.167,1713.861Zm-1.808-8.155a3.394,3.394,0,0,0-3.165,1.692,3.117,3.117,0,0,0,.073,2.766,5.549,5.549,0,0,0,5.815,2.906,3.114,3.114,0,0,0,2.256-1.6c.861-1.722-.264-4.036-2.51-5.159A5.556,5.556,0,0,0,797.36,1705.706Z" transform="translate(-793.203 -1705.008)"/></g></g><g transform="translate(6.65 3.255)"><g transform="translate(0 0)"><path class="r" d="M764.513,1707.841a67.188,67.188,0,0,1,1.409-10.918,19.577,19.577,0,0,1,7.432-7.37c5.219-.216,10.679-.33,15.319,2.047,3.569,1.828,5.807,8.313,6.446,12.056a17.635,17.635,0,0,1,.177,4.808c-1.335,12.886-18.062,17.745-26.709,8.249-1.849-2.026-2.741-4.832-3.768-7.9C764.715,1708.5,764.613,1708.172,764.513,1707.841Z" transform="translate(-764.513 -1689.447)"/></g></g><g transform="translate(15.849 5.919)"><g transform="translate(0 0)"><path class="p" d="M796.384,1709.971c-.117,3.32-.688,6.6-2.632,9.032-2.141,2.716-5.6,3.794-8.881,3.88a9.852,9.852,0,0,1-5.285-1.164c-3.025-1.811-4.439-5.713-5.206-9.4a30.987,30.987,0,0,1-.569-4.247,15.8,15.8,0,0,1,.471-4.807,13.828,13.828,0,0,1,6.052-7.889,21.794,21.794,0,0,1,9.195-2.911,7.374,7.374,0,0,1,4.617.561,3.93,3.93,0,0,1,1.867,2.587,3.017,3.017,0,0,1,.039,1.186c.1,3.018.2,6.014.294,9.032C796.384,1707.19,796.423,1708.57,796.384,1709.971Z" transform="translate(-773.795 -1692.349)"/></g></g><g transform="translate(15.819 0)"><g transform="translate(0 0)"><path class="r" d="M773.768,1689.18c5.721-3.085,11.509-4.486,17.724-2a15.579,15.579,0,0,1,9.493,15.089.2.2,0,0,1-.15.177c-2.948.733-5.6.06-8.454-1.129a29.251,29.251,0,0,1-5.194-2.861l-13.427-9.154Z" transform="translate(-773.762 -1685.902)"/></g></g><g transform="translate(10.718 3.15)"><g transform="translate(0 0)"><path class="r" d="M768.212,1704.056a20.868,20.868,0,0,0,1.289,7.349,18.613,18.613,0,0,0,5.558,8.265c2.1,1.628,6.378,3.162,8.522.846,2.1-2.272.925-6.334,3.007-8.624a8.559,8.559,0,0,1,2.2-1.536,16.082,16.082,0,0,0,4.71-3.714c3.194-3.963,2.693-11.965-1.759-14.934a15.955,15.955,0,0,0-12.369-1.873,14.3,14.3,0,0,0-3.791,1.653c-.065.047-.13.084-.215.14A15.55,15.55,0,0,0,768.212,1704.056Z" transform="translate(-768.207 -1689.333)"/></g></g><g class="s" transform="translate(6.155 4.474)"><g transform="translate(0 0)"><path class="t" d="M769.271,1690.868l2.129,1.1c-1.149-.6-6.163,2.978-7.153,3.688-.159.112-.327.233-.477.354-.037.121-.065.243-.093.364-.056.243-.112.495-.159.746a24.5,24.5,0,0,0,1.195,11.793c.168.009.336.009.495.019a17.059,17.059,0,0,0,2.176-.038,8.187,8.187,0,0,0,.952-.112,9.826,9.826,0,0,0,7.554-6.593,8.553,8.553,0,0,0-2.932-9.691,7.031,7.031,0,0,0-1.149-.682c-.551-.252-1.139-.495-1.727-.728-.187-.112-.374-.224-.56-.318Z" transform="translate(-763.237 -1690.775)"/></g></g><g transform="translate(0 2.564)"><g transform="translate(0 0)"><path class="r" d="M773.4,1693.16c-2.836-5.28-11.4-6.055-15.137-1.369s-1.08,12.863,4.7,14.454a9.357,9.357,0,0,0,10.827-5.4,9.23,9.23,0,0,0-4.364-11.251Z" transform="translate(-756.533 -1688.695)"/></g></g><g transform="translate(30.213 19.995)"><g transform="translate(0 0)"><path class="q" d="M789.684,1714.315l-.246-.657,5.192-1.943,6.988-4.036.351.608-7.04,4.061Z" transform="translate(-789.439 -1707.679)"/></g></g></g><g transform="translate(7074.015 11418.52)"><path class="l" d="M1400.569,813.761c0,9.3,11.592,16.841,25.894,16.841,9.074,0,17.055-3.032,21.673-7.628a12.965,12.965,0,0,0,4.22-9.213c0-9.3-11.592-16.83-25.893-16.83-11.131,0-20.623,4.564-24.286,10.97A11.729,11.729,0,0,0,1400.569,813.761Z" transform="translate(-1397.987 -796.931)"/><path class="u" d="M1408.014,813.263c0,6.331,7.9,11.463,17.623,11.463.365,0,.719-.01,1.072-.021-8.142-.332-14.581-4.725-14.581-10.1,0-5.593,6.964-10.125,15.567-10.125,8.27,0,15.04,4.2,15.534,9.492.021-.235.032-.471.032-.707,0-6.321-7.885-11.453-17.624-11.453S1408.014,806.942,1408.014,813.263Z" transform="translate(-1397.097 -796.432)"/><path class="v" d="M1408.043,814.355v.128h.011c.043,2.9,1.982,5.517,5.046,7.339l.011.01a20.393,20.393,0,0,0,9.513,2.625c7.832-.3,14.281-3.931,16.06-8.752a7.561,7.561,0,0,0,.461-1.983.292.292,0,0,0-.011-.064,6.483,6.483,0,0,0-.547-2.046,10.171,10.171,0,0,0-4-4.425,18.037,18.037,0,0,0-5.9-2.41l-.61-.128a24.05,24.05,0,0,0-4.467-.419c-.664,0-1.329.033-1.972.086C1413.968,804.938,1408.043,809.2,1408.043,814.355Z" transform="translate(-1393.012 -796.185)"/><path class="u" d="M1404.4,816.065c0,9.3,11.592,16.841,25.894,16.841,11.1,0,20.58-4.553,24.255-10.949-4.618,4.6-12.6,7.628-21.673,7.628-14.3,0-25.894-7.542-25.894-16.841a11.73,11.73,0,0,1,1.607-5.86A12.986,12.986,0,0,0,1404.4,816.065Z" transform="translate(-1404.398 -795.914)"/><path class="w" d="M1408.444,813.292a2.219,2.219,0,0,0,1.671,1.456h.011c.815.151,1.575-.074,2.154,1.189.986,2.143,1.2,4.371,2.892,6.15l.011.01a20.391,20.391,0,0,0,9.513,2.625c7.832-.3,14.281-3.931,16.06-8.752l.461-1.983a.293.293,0,0,0-.011-.064c-.054-.236-.236-1.06-.547-2.046-.547-1.79-1.51-4.1-2.839-4.457-.632-.171-.963-.118-1.156.032-.494.365-.247,1.339-2.079,1.114-2.379-.289-1.629-2.839-3.825-3.525l-.611-.128c-2.957-.365-.9,2.656-3.225,2.506-1.028-.064-2.025-1.446-3.214-2.839-1.489-1.757-3.3-3.546-5.892-2.753-4.639,1.425-5.539,2.594-6.964,5S1407.105,810.634,1408.444,813.292Z" transform="translate(-1395.085 -796.45)"/><path class="x" d="M1414.773,812.342c0,.81,1.079,1.467,2.411,1.467s2.411-.657,2.411-1.467-1.079-1.467-2.411-1.467S1414.773,811.532,1414.773,812.342Z" transform="translate(-1380.88 -795.506)"/><path class="y" d="M1426.409,810.711c0,.486.647.881,1.447.881s1.447-.395,1.447-.881-.648-.882-1.447-.882S1426.409,810.224,1426.409,810.711Z" transform="translate(-1403.414 -795.613)"/><path class="l" d="M1422.152,816.683c0,.81,1.079,1.467,2.411,1.467s2.411-.657,2.411-1.467-1.079-1.467-2.411-1.467S1422.152,815.873,1422.152,816.683Z" transform="translate(-1396.392 -795.063)"/></g><path class="z" d="M1472.3,838.481s7.52-10.072,12.388-11.085,8.049,1.687,9.4-.17-7.141-11.75-10.9-8.525-6.39,6.67-11.049,8.7a69.374,69.374,0,0,1-9.538,3.241Z" transform="translate(5592.533 10613.747)"/><path class="k" d="M1455.838,899.762l41.29,23.6,41.292-23.6-41.287-23.842Z" transform="translate(5553.987 10604.124)"/><path class="v" d="M1453.583,890.736s2.7,13.111,8.841,16.393,24.74,16.159,40.014,7.423c11.693-6.685,21.588-12.349,25.583-14.634,1.224-.705,1.9-1.086,1.9-1.086s-7.228-8.322-15.371-13.7h-.008a38.564,38.564,0,0,0-3.695-2.172,65.188,65.188,0,0,0-19.092-6.078Z" transform="translate(5564.371 10603.964)"/><path class="aa" d="M1479.225,880.331s6.069,7.763,12.528,8.728,10.964,4.027,18.711,6.409,12.253-5.948,12.253-5.948.915-5.413-.535-14.505a64,64,0,0,0-5.753-17.277c.9,1.523,5.065,6.515,5.065,6.515a17.086,17.086,0,0,0,8.509-2.836,17.729,17.729,0,0,0,5.575-7.593,29.148,29.148,0,0,0-5.17-7.115c-3.039-2.853-2.431-9.8-4.3-14.976s-10.591-12.349-13.711-14.683-3.6-3.1-3.6-3.1l-11.532-2.735c-24.414,7.027-17.77,29.331-19.261,41.453S1479.225,880.331,1479.225,880.331Z" transform="translate(5538.727 10614.367)"/><path class="l" d="M1464.324,915.292v52.585l-3.858-2.223.188-52.461Z" transform="translate(5624.225 10597.925)"/><path class="k" d="M1545.928,915.292v52.585l3.858-2.223-.188-52.461Z" transform="translate(5467.515 10597.925)"/><path class="k" d="M1505.383,824.572l41.276,23.841v35.764l-41.286-23.837Z" transform="translate(5504.452 10612.663)"/><path class="m" d="M1500.542,824.093l4.161-2.4,41.143,23.918-4.028,2.325Z" transform="translate(5509.291 10613.144)"/><path class="m" d="M1504.57,850.38v35.468l-4.028,2.622V852.706Z" transform="translate(5550.568 10608.372)"/><path class="m" d="M1550.556,867.476v30.882l3.617,1.876V869.565Z" transform="translate(5459.27 10605.528)"/><path class="l" d="M1549.9,871.867v26.907l-3.284,1.874V869.971Z" transform="translate(5466.826 10605.113)"/><path class="m" d="M1505.363,893.545v30.882l3.617,1.876.043-30.656Z" transform="translate(5542.095 10601.193)"/><path class="l" d="M1504.707,893.5v30.915l-3.284,1.874,0-30.649Z" transform="translate(5549.7 10601.201)"/><path class="j" d="M1497.13,904.518v7.209l-41.287,23.641-.005-7.247Z" transform="translate(5595.276 10599.368)"/><path class="l" d="M1546.657,935.369l-41.3-23.618v-7.233l41.29,23.6Z" transform="translate(5504.464 10599.368)"/><path class="l" d="M1509.219,941.1v52.584l-3.858-2.223.188-52.461Z" transform="translate(5541.9 10593.632)"/><path class="k" d="M1500.734,941.1v52.584l3.858-2.223-.188-52.461Z" transform="translate(5550.386 10593.632)"/><path class="l" d="M1554.414,915.292v52.585l-3.858-2.223.188-52.461Z" transform="translate(5459.028 10597.925)"/><path class="k" d="M1455.838,915.292v52.585l3.858-2.223-.188-52.461Z" transform="translate(5632.712 10597.925)"/><path class="v" d="M1417.261,951.535s-2.091,4,.725,6.438,25.1,2.727,25.2,0-18.439-8.115-18.439-8.115l-4.453-1.4Z" transform="translate(5682.004 10592.061)"/><path class="z" d="M1454,899.883s-.672.381-1.9,1.086l.016.007-.186,7.229,7.042,32.478a18.02,18.02,0,0,0,4.351,0c2.836-.268,3.136-1.677,3.136-1.677s-4.96-52.956-10.462-55.184c-5.4-2.188-16.961,2.2-17.373,2.366C1446.776,891.562,1454,899.883,1454,899.883Z" transform="translate(5640.284 10602.912)"/><path class="z" d="M1433.842,869.508s8.1,9.724,16.012,10.761,25.315-18.525,25.315-18.525,5.267.867,8.241-6.256-1.758-9.822-3.379-9.546,2.7,4.181.542,6.021-5.267.591-6.888,1.118-1.353.827-1.621,4.619-11.215,6.742-16.377,7.293-7.764-5.916-7.764-5.916a17.729,17.729,0,0,1-5.575,7.593A17.087,17.087,0,0,1,1433.842,869.508Z" transform="translate(5626.377 10609.112)"/><path class="z" d="M1445.209,853.547c-.05-.21.658-4.212-.608-4.414s-2.329,4.66-2.329,4.66l1.785.558Z" transform="translate(5658.355 10608.581)"/><g transform="translate(7055.003 11420.122)"><g transform="translate(0 0)"><path class="ab" d="M789.7,1715.28c-.018,0-.037.02-.055.04a1.242,1.242,0,0,1-.019-.267A.334.334,0,0,0,789.7,1715.28Z" transform="translate(-789.625 -1715.054)"/></g></g><g transform="translate(7053.479 11417.566)"><g transform="translate(0 0)"><path class="ac" d="M788.732,1712.4a.944.944,0,0,1-.718.058c-.025-.061-.012-.129-.048-.187Z" transform="translate(-787.966 -1712.268)"/></g></g><g transform="translate(7058.922 11427.98)"><g transform="translate(0 0)"><path class="ac" d="M794.531,1724.546c.131.008.262.035.394.052l-1.031-.987C794.113,1723.917,794.322,1724.231,794.531,1724.546Z" transform="translate(-793.894 -1723.611)"/></g></g></g></g></svg>