<svg xmlns="http://www.w3.org/2000/svg" xmlns:xlink="http://www.w3.org/1999/xlink" width="537.675" height="428.399" viewBox="0 0 537.675 428.399"><defs><style>.a{fill:none;}.b{fill:#525252;}.c{fill:#fff;}.d{fill:#3d2768;}.e{fill:rgba(15,0,0,0.1);}.f{fill:#c4e4f9;}.g{fill:#0f62fe;}.h{fill:#647ddd;opacity:0.17;}.i{fill:#bddcff;}.j{fill:#8dc0ef;}.k{fill:#e2e8f2;}.l{fill:#1f3598;}.m{isolation:isolate;}.n{clip-path:url(#a);}.o{fill:#213b4f;}.p{fill:#d5e8fa;}.q{fill:#eff6fc;}.r{fill:#75a3ec;}.s{fill:#ffc7cb;}.t{fill:#ff8358;}.u{fill:#577de8;}.v{fill:#f2f4fa;}.w{fill:#3772ce;}.x{fill:#fec7cb;}.y{fill:#4568c7;}.z{fill:#a0d2ff;}.aa{fill:#636363;}.ab{fill:#842229;}.ac{fill:#f2f4f9;}.ad{fill:#484255;}</style><clipPath id="a"><path class="a" d="M-658.633,952.816l.1-35.2L-627.9,935.3l-.1,35.2Z" transform="translate(658.633 -917.616)"/></clipPath></defs><g transform="translate(-402 -9272)"><g transform="translate(-268 2707)"><circle class="b" cx="130" cy="130" r="130" transform="translate(925 6565)"/></g><g transform="translate(-699 -593)"><g transform="translate(1424 9940.035)"><path class="c" d="M284.175,311.67a1.542,1.542,0,0,1-1.54-1.54v-82.3a1.542,1.542,0,0,1,1.54-1.54H412.391a1.542,1.542,0,0,1,1.54,1.54v60.512a1.54,1.54,0,0,1-3.08,0V229.373H285.715V308.59h66.107a1.54,1.54,0,1,1,0,3.08Z" transform="translate(-282.635 -226.293)"/></g><g transform="translate(1435.744 9957.057)"><path class="c" d="M295.614,245.954a1.54,1.54,0,0,1,0-3.08H317.75a1.54,1.54,0,1,1,0,3.08Z" transform="translate(-294.074 -242.874)"/></g><g transform="translate(1476.697 9957.059)"><path class="c" d="M335.5,245.955a1.54,1.54,0,0,1,0-3.08h3.039a1.54,1.54,0,0,1,0,3.08Z" transform="translate(-333.965 -242.875)"/></g><g transform="translate(1486.916 9957.059)"><path class="c" d="M345.459,245.955a1.54,1.54,0,1,1,0-3.08h3.04a1.54,1.54,0,0,1,0,3.08Z" transform="translate(-343.919 -242.875)"/></g><g transform="translate(1497.135 9957.059)"><path class="c" d="M355.413,245.955a1.54,1.54,0,0,1,0-3.08h3.039a1.54,1.54,0,0,1,0,3.08Z" transform="translate(-353.873 -242.875)"/></g><g transform="translate(1507.354 9957.059)"><path class="c" d="M365.367,245.955a1.54,1.54,0,1,1,0-3.08h3.039a1.54,1.54,0,1,1,0,3.08Z" transform="translate(-363.827 -242.875)"/></g><g transform="translate(1517.572 9957.059)"><path class="c" d="M375.32,245.955a1.54,1.54,0,0,1,0-3.08h3.039a1.54,1.54,0,0,1,0,3.08Z" transform="translate(-373.78 -242.875)"/></g><g transform="translate(1527.791 9957.059)"><path class="c" d="M385.274,245.955a1.54,1.54,0,1,1,0-3.08h3.039a1.54,1.54,0,1,1,0,3.08Z" transform="translate(-383.734 -242.875)"/></g><path class="c" d="M395.228,245.955a1.54,1.54,0,0,1,0-3.08h3.039a1.54,1.54,0,0,1,0,3.08Z" transform="translate(1144.322 9714.184)"/><g transform="translate(1507.354 9971.449)"><path class="c" d="M365.367,259.973a1.54,1.54,0,1,1,0-3.08h3.039a1.54,1.54,0,1,1,0,3.08Z" transform="translate(-363.827 -256.893)"/></g><g transform="translate(1517.572 9971.449)"><path class="c" d="M375.32,259.973a1.54,1.54,0,0,1,0-3.08h3.039a1.54,1.54,0,0,1,0,3.08Z" transform="translate(-373.78 -256.893)"/></g><g transform="translate(1527.791 9971.449)"><path class="c" d="M385.274,259.973a1.54,1.54,0,1,1,0-3.08h3.039a1.54,1.54,0,1,1,0,3.08Z" transform="translate(-383.734 -256.893)"/></g><path class="c" d="M395.228,259.973a1.54,1.54,0,0,1,0-3.08h3.039a1.54,1.54,0,0,1,0,3.08Z" transform="translate(1144.322 9714.557)"/><g transform="translate(1476.697 9980.105)"><path class="c" d="M335.5,268.4a1.54,1.54,0,0,1,0-3.08h3.039a1.54,1.54,0,0,1,0,3.08Z" transform="translate(-333.965 -265.325)"/></g><g transform="translate(1486.916 9980.105)"><path class="c" d="M345.459,268.4a1.54,1.54,0,1,1,0-3.08h3.04a1.54,1.54,0,0,1,0,3.08Z" transform="translate(-343.919 -265.325)"/></g><g transform="translate(1497.135 9980.105)"><path class="c" d="M355.413,268.4a1.54,1.54,0,0,1,0-3.08h3.039a1.54,1.54,0,0,1,0,3.08Z" transform="translate(-353.873 -265.325)"/></g><g transform="translate(1507.354 9980.105)"><path class="c" d="M365.367,268.4a1.54,1.54,0,1,1,0-3.08h3.039a1.54,1.54,0,1,1,0,3.08Z" transform="translate(-363.827 -265.325)"/></g><g transform="translate(1517.572 9980.105)"><path class="c" d="M375.32,268.4a1.54,1.54,0,0,1,0-3.08h3.039a1.54,1.54,0,0,1,0,3.08Z" transform="translate(-373.78 -265.325)"/></g><g transform="translate(1527.791 9980.105)"><path class="c" d="M385.274,268.4a1.54,1.54,0,1,1,0-3.08h3.039a1.54,1.54,0,1,1,0,3.08Z" transform="translate(-383.734 -265.325)"/></g><path class="c" d="M395.228,268.4a1.54,1.54,0,0,1,0-3.08h3.039a1.54,1.54,0,0,1,0,3.08Z" transform="translate(1144.322 9714.78)"/><g transform="translate(1476.697 9988.761)"><path class="c" d="M335.5,276.835a1.54,1.54,0,0,1,0-3.08h3.039a1.54,1.54,0,0,1,0,3.08Z" transform="translate(-333.965 -273.755)"/></g><g transform="translate(1486.916 9988.761)"><path class="c" d="M345.459,276.835a1.54,1.54,0,1,1,0-3.08h3.04a1.54,1.54,0,0,1,0,3.08Z" transform="translate(-343.919 -273.755)"/></g><g transform="translate(1497.135 9988.761)"><path class="c" d="M355.413,276.835a1.54,1.54,0,0,1,0-3.08h3.039a1.54,1.54,0,0,1,0,3.08Z" transform="translate(-353.873 -273.755)"/></g><g transform="translate(1507.354 9988.761)"><path class="c" d="M365.367,276.835a1.54,1.54,0,1,1,0-3.08h3.039a1.54,1.54,0,1,1,0,3.08Z" transform="translate(-363.827 -273.755)"/></g><g transform="translate(1517.572 9988.761)"><path class="c" d="M375.32,276.835a1.54,1.54,0,0,1,0-3.08h3.039a1.54,1.54,0,0,1,0,3.08Z" transform="translate(-373.78 -273.755)"/></g><g transform="translate(1527.791 9988.761)"><path class="c" d="M385.274,276.835a1.54,1.54,0,1,1,0-3.08h3.039a1.54,1.54,0,1,1,0,3.08Z" transform="translate(-383.734 -273.755)"/></g><path class="c" d="M395.228,276.835a1.54,1.54,0,0,1,0-3.08h3.039a1.54,1.54,0,0,1,0,3.08Z" transform="translate(1144.322 9715.006)"/><g transform="translate(1476.697 9997.417)"><path class="c" d="M335.5,285.267a1.54,1.54,0,0,1,0-3.08h3.039a1.54,1.54,0,0,1,0,3.08Z" transform="translate(-333.965 -282.187)"/></g><g transform="translate(1486.916 9997.417)"><path class="c" d="M345.459,285.267a1.54,1.54,0,1,1,0-3.08h3.04a1.54,1.54,0,0,1,0,3.08Z" transform="translate(-343.919 -282.187)"/></g><g transform="translate(1497.135 9997.417)"><path class="c" d="M355.413,285.267a1.54,1.54,0,0,1,0-3.08h3.039a1.54,1.54,0,0,1,0,3.08Z" transform="translate(-353.873 -282.187)"/></g><g transform="translate(1476.697 10006.321)"><path class="c" d="M335.5,293.941a1.54,1.54,0,0,1,0-3.08h3.039a1.54,1.54,0,0,1,0,3.08Z" transform="translate(-333.965 -290.861)"/></g><g transform="translate(1486.916 10006.321)"><path class="c" d="M345.459,293.941a1.54,1.54,0,1,1,0-3.08h3.04a1.54,1.54,0,0,1,0,3.08Z" transform="translate(-343.919 -290.861)"/></g><g transform="translate(1442.956 9965.469)"><path class="c" d="M302.639,254.147a1.54,1.54,0,1,1,0-3.08h14.924a1.54,1.54,0,1,1,0,3.08Z" transform="translate(-301.099 -251.067)"/></g><g transform="translate(1442.956 10006.298)"><path class="c" d="M302.639,293.918a1.54,1.54,0,1,1,0-3.08h14.924a1.54,1.54,0,1,1,0,3.08Z" transform="translate(-301.099 -290.838)"/></g><g transform="translate(1431.58 9934.999)"><path class="c" d="M291.558,232.794a1.542,1.542,0,0,1-1.54-1.54v-8.326a1.54,1.54,0,1,1,3.08,0v8.326A1.542,1.542,0,0,1,291.558,232.794Z" transform="translate(-290.018 -221.388)"/></g><g transform="translate(1442.956 9934.999)"><path class="c" d="M302.639,232.794a1.542,1.542,0,0,1-1.54-1.54v-8.326a1.54,1.54,0,1,1,3.08,0v8.326A1.542,1.542,0,0,1,302.639,232.794Z" transform="translate(-301.099 -221.388)"/></g><g transform="translate(1454.332 9934.999)"><path class="c" d="M313.72,232.794a1.542,1.542,0,0,1-1.54-1.54v-8.326a1.54,1.54,0,1,1,3.08,0v8.326A1.542,1.542,0,0,1,313.72,232.794Z" transform="translate(-312.18 -221.388)"/></g><g transform="translate(1465.707 9934.999)"><path class="c" d="M324.8,232.794a1.542,1.542,0,0,1-1.54-1.54v-8.326a1.54,1.54,0,0,1,3.08,0v8.326A1.541,1.541,0,0,1,324.8,232.794Z" transform="translate(-323.26 -221.388)"/></g><g transform="translate(1477.083 9934.999)"><path class="c" d="M335.881,232.794a1.542,1.542,0,0,1-1.54-1.54v-8.326a1.54,1.54,0,1,1,3.08,0v8.326A1.541,1.541,0,0,1,335.881,232.794Z" transform="translate(-334.341 -221.388)"/></g><g transform="translate(1488.459 9934.999)"><path class="c" d="M346.962,232.794a1.542,1.542,0,0,1-1.54-1.54v-8.326a1.54,1.54,0,1,1,3.08,0v8.326A1.541,1.541,0,0,1,346.962,232.794Z" transform="translate(-345.422 -221.388)"/></g><g transform="translate(1499.836 9934.999)"><path class="c" d="M358.044,232.794a1.541,1.541,0,0,1-1.54-1.54v-8.326a1.54,1.54,0,1,1,3.08,0v8.326A1.542,1.542,0,0,1,358.044,232.794Z" transform="translate(-356.504 -221.388)"/></g><g transform="translate(1511.212 9934.999)"><path class="c" d="M369.125,232.794a1.541,1.541,0,0,1-1.54-1.54v-8.326a1.54,1.54,0,1,1,3.08,0v8.326A1.542,1.542,0,0,1,369.125,232.794Z" transform="translate(-367.585 -221.388)"/></g><g transform="translate(1522.587 9934.999)"><path class="c" d="M380.2,232.794a1.542,1.542,0,0,1-1.54-1.54v-8.326a1.54,1.54,0,1,1,3.08,0v8.326A1.542,1.542,0,0,1,380.2,232.794Z" transform="translate(-378.665 -221.388)"/></g><g transform="translate(1533.963 9934.999)"><path class="c" d="M391.286,232.794a1.542,1.542,0,0,1-1.54-1.54v-8.326a1.54,1.54,0,1,1,3.08,0v8.326A1.542,1.542,0,0,1,391.286,232.794Z" transform="translate(-389.746 -221.388)"/></g><path class="c" d="M402.367,232.794a1.542,1.542,0,0,1-1.54-1.54v-8.326a1.54,1.54,0,1,1,3.08,0v8.326A1.542,1.542,0,0,1,402.367,232.794Z" transform="translate(1144.512 9713.611)"/><g transform="translate(1527.791 10002.248)"><path class="c" d="M396.345,321.128a1.526,1.526,0,0,1-1.088-.452L384.185,309.6a1.551,1.551,0,0,1-.451-1.088V288.433a1.54,1.54,0,1,1,3.08,0v19.445l10.62,10.62a1.54,1.54,0,0,1-1.089,2.629Z" transform="translate(-383.734 -286.893)"/></g><path class="c" d="M617.6,345.326a28.319,28.319,0,1,1,28.318-28.319A28.352,28.352,0,0,1,617.6,345.326Zm0-53.558a25.239,25.239,0,1,0,25.239,25.238A25.267,25.267,0,0,0,617.6,291.768Z" transform="translate(912.74 9705.856)"/></g><path class="d" d="M3048,672.045a3.255,3.255,0,0,0-.632.124c.25-4.52.8-8.2,1.608-8.446,0,0-.174,3.59-.1,8.351a1.151,1.151,0,0,0-.174-.025c-.121-.012-.241-.021-.361-.021A2.867,2.867,0,0,0,3048,672.045Z" transform="translate(-2547.727 8925.574)"/><g transform="translate(402 9579.484)"><path class="e" d="M276,660H813.675s-11.269,20.927-37.026,17.708a149.484,149.484,0,0,1-20.927-1.61c-9.659-1.61-24.147,3.22-27.367,8.049,0,0-24.147,14.488-64.392,0,0,0-37.026-16.1-62.782-1.61,0,0-19.318,20.928-69.222-4.829,0,0-12.879-8.049-35.416,8.049,0,0-22.537,19.318-66-8.049,0,0-24.147-6.439-51.514,6.439C379.028,684.147,324.294,692.2,276,660Z" transform="translate(-276 -571.461)"/><path class="f" d="M582.407,634.075s27.206,15.026,15.19,36.5C597.6,670.576,578.133,666.564,582.407,634.075Z" transform="translate(-89.525 -587.27)"/><path class="g" d="M614.007,623s14.488,46.684-22.537,57.953C591.47,680.953,573.762,655.2,614.007,623Z" transform="translate(-85.991 -594.023)"/><path class="g" d="M334.352,621.92s-41.564,22.958-23.207,55.765C311.145,677.685,340.883,671.557,334.352,621.92Z" transform="translate(-257.422 -594.682)"/><path class="f" d="M292.061,605s-22.135,71.324,34.43,88.539C326.492,693.539,353.546,654.189,292.061,605Z" transform="translate(-268.808 -605)"/></g><path class="h" d="M2082.343,1008.589c-14.278,0-25.894,7.664-25.894,17.085s11.616,17.085,25.894,17.085,25.893-7.664,25.893-17.085S2096.62,1008.589,2082.343,1008.589Z" transform="translate(-1207.594 8554.883)"/><path class="i" d="M2102.192,998.561l-6,30.1H2056.41l-6-30.1Z" transform="translate(-1197.708 8544.457)"/><path class="i" d="M2096.515,1029.69c0,5.088-7.708,10.748-18.906,11.063-.323.007-.653.015-.983.015-11.723,0-19.889-5.84-19.889-11.078s8.166-11.086,19.889-11.086a31.763,31.763,0,0,1,8.278,1.058C2092.019,1021.576,2096.515,1025.8,2096.515,1029.69Z" transform="translate(-1198.034 8543.424)"/><path class="j" d="M2103.653,998.561l-6,30.1c0,5.089-7.708,10.748-18.906,11.063a19.463,19.463,0,0,0,3.5-4.653,27.867,27.867,0,0,0,2.424-6.41,53.025,53.025,0,0,0,1.374-10.027c.1-1.718.157-3.437.2-5.141q.214-7.465.435-14.928Z" transform="translate(-1199.168 8544.457)"/><ellipse class="k" cx="25.893" cy="17.085" rx="25.893" ry="17.085" transform="translate(852.698 9525.93)"/><ellipse class="l" cx="19.889" cy="11.081" rx="19.889" ry="11.081" transform="translate(858.702 9531.934)"/><circle class="j" cx="17.859" cy="17.859" r="17.859" transform="translate(858.103 9472.891) rotate(-80.783)"/><circle class="j" cx="12.663" cy="12.663" r="12.663" transform="translate(862.047 9477.527) rotate(-22.5)"/><ellipse class="j" cx="13.784" cy="13.784" rx="13.784" ry="13.784" transform="translate(860.582 9523.801) rotate(-67.5)"/><path class="j" d="M2082.4,1000.239a4.959,4.959,0,1,1-4.958-4.958A4.959,4.959,0,0,1,2082.4,1000.239Z" transform="translate(-1198.845 8544.625)"/><path class="j" d="M2091,920.662c-3.962,5.058-3.837,6.494-2.221,10.754H2065.1c1.616-4.26,1.741-5.7-2.22-10.754Z" transform="translate(-1198.351 8548.473)"/><path class="j" d="M2089.222,922.824c-13.063,12.178-11.5,25.676-2.1,35.758h-20.164c9.4-10.082,10.966-23.58-2.1-35.758Z" transform="translate(-1198.453 8548.361)"/><path class="j" d="M2088.723,923.322c-13.534,11.651-11.128,66.215-7.893,69.973h-7.517c3.237-3.758,5.642-58.323-7.893-69.973Z" transform="translate(-1198.481 8548.336)"/><path class="j" d="M2086.295,946.01c-4.409,4.567-4.506,8.451.465,13.25h-19.148c4.972-4.8,4.874-8.683.465-13.25Z" transform="translate(-1198.595 8547.166)"/><path class="j" d="M2085.616,946.76c-9.507,8.364-7.917,43.98-4.642,47.7h-7.446c3.275-3.724,4.866-39.339-4.641-47.7Z" transform="translate(-1198.66 8547.127)"/><path class="j" d="M2085.366,982.2c-8.94,6.492-6.423,11.24-4.088,14.456h-8.025c2.336-3.216,4.852-7.964-4.087-14.456Z" transform="translate(-1198.675 8545.301)"/><g transform="translate(1284.633 8524.385)"><g class="m" transform="translate(-658.633 917.616)"><g class="n" transform="translate(0 0)"><g transform="translate(0.002 8.395)"><path class="o" d="M-653.573,1254.39l-4.416-2.55c-.326-.188-.592-.037-.593.338l-.026,9.069a1.3,1.3,0,0,0,.589,1.021l7.858,4.537c.327.189.592.037.593-.338l.014-5.074a1.3,1.3,0,0,0-.589-1.021c-.326-.188-.592-.037-.593.338l-.012,4.395-6.676-3.854.022-7.711,3.825,2.208c.326.188.592.037.593-.337a1.3,1.3,0,0,0-.589-1.021" transform="translate(658.608 -1235.122)"/><path class="o" d="M-624.242,1317.13a.385.385,0,0,0-.476,0l-2.4,2.327-.953-2.162a1.263,1.263,0,0,0-.487-.578.487.487,0,0,0-.334-.074c-.27.056-.34.439-.157.855l1.419,3.22a1.287,1.287,0,0,0,.476.572l.011.007a.385.385,0,0,0,.476,0l2.9-2.809c.2-.189.142-.646-.12-1.021a1.134,1.134,0,0,0-.351-.337" transform="translate(631.359 -1295.14)"/><path class="o" d="M-365.8,1420.531l-4.415-2.549c-.327-.189-.592-.037-.593.338l-.026,9.069a1.3,1.3,0,0,0,.589,1.021l7.893,4.557c.327.189.592.037.593-.338l.014-5.074a1.3,1.3,0,0,0-.589-1.021c-.326-.188-.592-.037-.593.338l-.012,4.395-6.71-3.874.022-7.711,3.824,2.208c.327.189.592.037.593-.337a1.3,1.3,0,0,0-.589-1.021" transform="translate(392.396 -1388.817)"/><path class="o" d="M-336.053,1483.519a.385.385,0,0,0-.478,0l-2.369,2.339-.95-2.156a1.26,1.26,0,0,0-.487-.577.491.491,0,0,0-.335-.075c-.27.056-.34.439-.157.855l1.419,3.22a1.282,1.282,0,0,0,.478.573l.01.005a.384.384,0,0,0,.478,0l2.864-2.829c.194-.191.138-.649-.125-1.023a1.131,1.131,0,0,0-.348-.332" transform="translate(364.728 -1449.081)"/><path class="o" d="M-509.688,1337.462l-4.416-2.549c-.326-.188-.592-.037-.593.338l-.026,9.069a1.3,1.3,0,0,0,.589,1.021l7.893,4.557c.326.188.592.037.593-.338l.014-5.074a1.3,1.3,0,0,0-.589-1.02c-.327-.188-.592-.037-.593.338l-.012,4.395-6.711-3.874.022-7.711,3.824,2.208c.327.189.592.037.593-.338a1.3,1.3,0,0,0-.589-1.021" transform="translate(525.502 -1311.97)"/><path class="o" d="M-480.365,1400.2a.384.384,0,0,0-.478,0l-2.374,2.345-.983-2.191a1.264,1.264,0,0,0-.484-.57.475.475,0,0,0-.338-.072c-.268.06-.334.446-.148.862l1.454,3.241a1.27,1.27,0,0,0,.477.566l.006,0a.384.384,0,0,0,.478,0l2.864-2.829c.194-.192.138-.649-.125-1.023a1.137,1.137,0,0,0-.348-.333" transform="translate(498.261 -1371.982)"/><path class="o" d="M-581.094,1238.886l-3.72-2.148,0,.679c0,.375-.267.526-.593.338a1.3,1.3,0,0,1-.589-1.021l0-.679-1.773-1.024,0,.679c0,.375-.267.526-.593.338a1.3,1.3,0,0,1-.589-1.021l0-.679-5.493-3.172,0,.679c0,.375-.267.526-.593.338a1.3,1.3,0,0,1-.589-1.021v-.68l-1.739-1,0,.679c0,.375-.267.526-.593.338a1.3,1.3,0,0,1-.589-1.021l0-.679-3.72-2.148c-.327-.188-.592-.037-.593.338a1.3,1.3,0,0,0,.589,1.021l21.175,12.225c.326.188.592.037.593-.338a1.3,1.3,0,0,0-.589-1.021" transform="translate(607.038 -1211.829)"/><path class="o" d="M-413.06,1255.842c0,.375-.267.526-.593.338a1.3,1.3,0,0,1-.589-1.021l-.016,5.554,0,.679a1.3,1.3,0,0,0,.589,1.021c.326.188.592.037.593-.338l0-.679.016-5.554m-3.546-2.527c-.326-.188-.592-.037-.593.338l-.015,5.354,0,.679a1.3,1.3,0,0,0,.589,1.021c.326.189.592.037.593-.338l0-.679.015-5.354a1.3,1.3,0,0,0-.589-1.021" transform="translate(435.3 -1236.485)"/><path class="o" d="M-479.9,1150.4l-4.695-2.711a1.3,1.3,0,0,1,.589,1.021c0,.375-.267.527-.593.338l4.695,2.71a7.344,7.344,0,0,1,3.327,5.763,1.3,1.3,0,0,0,.589,1.021c.326.188.592.037.593-.338a9.945,9.945,0,0,0-4.506-7.8" transform="translate(497.637 -1138.852)"/><path class="o" d="M-493.16,1037.146c-1.037-.6-2.046-3.06-2.042-4.461,0-1.344.907-1.877,2.058-1.213a4.521,4.521,0,0,1,2.08,3.6c0,1.431-1.021,2.693-2.1,2.072m.02-7.032c-1.783-1.029-3.238-.182-3.244,1.889-.006,2.1,1.429,5.468,3.22,6.5,1.811,1.046,3.276-.648,3.282-2.748a7.084,7.084,0,0,0-3.258-5.643" transform="translate(508.537 -1029.676)"/><path class="o" d="M-544.118,1182.879c0,.375-.267.526-.593.338a1.3,1.3,0,0,1-.589-1.021l-.016,5.554,0,.679a1.3,1.3,0,0,0,.589,1.021c.326.188.592.037.593-.338l0-.679.016-5.554m2.331.866c-.326-.188-.592-.037-.593.338l-.015,5.354v.679a1.3,1.3,0,0,0,.589,1.021c.326.188.592.037.593-.338l0-.679.015-5.354a1.3,1.3,0,0,0-.589-1.021" transform="translate(553.805 -1170.77)"/><path class="o" d="M-540.547,1140.062c-2.492-1.439-4.527-.279-4.535,2.585a1.3,1.3,0,0,0,.589,1.021c.326.188.592.037.593-.338.006-2.115,1.508-2.971,3.349-1.909.327.189.592.037.593-.338a1.3,1.3,0,0,0-.589-1.021" transform="translate(553.587 -1131.221)"/></g></g></g></g><g transform="translate(-151 4667)"><g transform="translate(642.158 4736.983)"><path class="j" d="M2039.489,945.7a5.166,5.166,0,0,1-4.677,0c-1.292-.746-1.292-1.955,0-2.7a5.169,5.169,0,0,1,4.677,0C2040.781,943.744,2040.781,944.953,2039.489,945.7Z" transform="translate(-1854.56 -706.136)"/><path class="l" d="M2113.074,803.5c-5.161-5.978-10.97,2.506-13.713,6.023-1.866,2.391-8.351,8.735-7.64,12.065.249,1.168.389,1.113,1.543,1.423a7.216,7.216,0,0,0,3.539-.132c6.088-1.467,10.914-4.908,13.675-10.174.112,1.463.14,2.928.122,4.395a.421.421,0,0,0,.653.343c.568-.371,1.127-.757,1.674-1.158,2.042-1.508,1.142-3.646,1.694-6.077A7.621,7.621,0,0,0,2113.074,803.5Z" transform="translate(-1857.982 -697.796)"/><path class="h" d="M1921.86,928.811c-13.133-7.581-34.422-7.581-47.553,0s-13.132,19.874,0,27.455,34.42,7.582,47.553,0S1934.991,936.393,1921.86,928.811Z" transform="translate(-1844.542 -704.994)"/><path class="h" d="M2133.679,867.681l-174.86-99.447-108.145,64.929a1.945,1.945,0,0,0,.045,3.362l169.986,95.835a11.369,11.369,0,0,0,11.513-.11l101.5-60.91A2.121,2.121,0,0,0,2133.679,867.681Z" transform="translate(-1843.671 -695.832)"/><path class="j" d="M2040.458,878.471v61.487a.689.689,0,0,1-.05.24.542.542,0,0,1-.479.29h-5.561a.545.545,0,0,1-.479-.29.681.681,0,0,1-.05-.24V878.471a.533.533,0,0,1,.529-.53h5.561A.533.533,0,0,1,2040.458,878.471Z" transform="translate(-1854.56 -702.321)"/><path class="j" d="M2040.458,889a.477.477,0,0,1-.059.229,1.093,1.093,0,0,1,.059.349,1.627,1.627,0,0,1-.969,1.348,5.157,5.157,0,0,1-4.681,0,1.63,1.63,0,0,1-.968-1.348,1.061,1.061,0,0,1,.06-.349.464.464,0,0,1-.06-.229V878.471a.533.533,0,0,1,.529-.53h5.561a.533.533,0,0,1,.529.53Z" transform="translate(-1854.56 -702.321)"/><path class="j" d="M1852.3,841.869a5.17,5.17,0,0,1-4.678,0c-1.291-.746-1.291-1.955,0-2.7a5.167,5.167,0,0,1,4.678,0C1853.6,839.914,1853.6,841.123,1852.3,841.869Z" transform="translate(-1843.489 -699.995)"/><path class="j" d="M1853.273,774.641v61.489a.674.674,0,0,1-.05.239.54.54,0,0,1-.479.289h-5.56a.545.545,0,0,1-.479-.289.691.691,0,0,1-.049-.239V774.641a.533.533,0,0,1,.528-.53h5.56A.532.532,0,0,1,1853.273,774.641Z" transform="translate(-1843.489 -696.18)"/><path class="j" d="M1853.273,785.172a.47.47,0,0,1-.059.23,1.084,1.084,0,0,1,.059.349,1.626,1.626,0,0,1-.968,1.347,5.157,5.157,0,0,1-4.681,0,1.627,1.627,0,0,1-.968-1.347,1.056,1.056,0,0,1,.06-.349.459.459,0,0,1-.06-.23V774.641a.533.533,0,0,1,.528-.53h5.56a.532.532,0,0,1,.529.53Z" transform="translate(-1843.489 -696.18)"/><path class="j" d="M2153.184,879.222a5.17,5.17,0,0,1-4.678,0c-1.291-.745-1.291-1.955,0-2.7a5.174,5.174,0,0,1,4.678,0C2154.477,877.267,2154.477,878.477,2153.184,879.222Z" transform="translate(-1861.286 -702.204)"/><path class="j" d="M2154.155,811.994v61.489a.694.694,0,0,1-.051.24.541.541,0,0,1-.479.289h-5.561a.54.54,0,0,1-.478-.289.687.687,0,0,1-.05-.24V811.994a.533.533,0,0,1,.528-.529h5.561A.534.534,0,0,1,2154.155,811.994Z" transform="translate(-1861.285 -698.39)"/><path class="j" d="M2154.155,827.437a.477.477,0,0,1-.06.23,1.107,1.107,0,0,1,.06.349,1.629,1.629,0,0,1-.968,1.347,5.161,5.161,0,0,1-4.682,0,1.625,1.625,0,0,1-.968-1.347,1.105,1.105,0,0,1,.059-.349.476.476,0,0,1-.059-.23V816.906a.532.532,0,0,1,.528-.529h5.561a.533.533,0,0,1,.53.529Z" transform="translate(-1861.285 -698.68)"/><path class="p" d="M1843.692,761.735l-.012,13.189,19.636,7.25-1-7.186Z" transform="translate(-1843.313 -695.448)"/><path class="p" d="M2160.624,814.188V802.411L2138.858,816.4l1.455,3.874Z" transform="translate(-1860.772 -697.854)"/><path class="p" d="M1846.3,765.82l101.966-59.608a23.1,23.1,0,0,1,23.115-.116l168.322,96.137a6.086,6.086,0,0,1,.024,10.555L2036.11,872.632a23.1,23.1,0,0,1-23.107,0l-166.672-96.288A6.085,6.085,0,0,1,1846.3,765.82Z" transform="translate(-1843.29 -691.978)"/><path class="q" d="M1846.695,754.045l101.966-59.607a23.1,23.1,0,0,1,23.115-.117L2140.1,790.46a6.085,6.085,0,0,1,.025,10.553L2036.5,860.858a23.1,23.1,0,0,1-23.107,0l-166.671-96.287A6.085,6.085,0,0,1,1846.695,754.045Z" transform="translate(-1843.313 -691.281)"/><path class="j" d="M1972.907,821.006l-51.762-29.885c-2.349-1.357-2.349-3.556,0-4.911l20.348-11.748a9.4,9.4,0,0,1,8.507,0l51.762,29.885c2.349,1.357,2.349,3.556,0,4.911l-20.349,11.748A9.4,9.4,0,0,1,1972.907,821.006Z" transform="translate(-1847.791 -696.141)"/><path class="j" d="M1919.384,785.658v4.909l57.777,32.179,26.364-15.221V803.8Z" transform="translate(-1847.79 -696.863)"/><path class="i" d="M1972.907,817.043l-51.762-29.886c-2.349-1.356-2.349-3.554,0-4.911l20.348-11.749a9.4,9.4,0,0,1,8.507,0l51.762,29.886c2.349,1.356,2.349,3.555,0,4.911l-20.349,11.748A9.4,9.4,0,0,1,1972.907,817.043Z" transform="translate(-1847.791 -695.906)"/><path class="i" d="M1984.881,810.274l-50.152-28.956,4.406-2.544,50.152,28.956Z" transform="translate(-1848.698 -696.456)"/><path class="i" d="M1976.848,814.912,1926.7,785.956l4.407-2.544,50.152,28.956Z" transform="translate(-1848.223 -696.73)"/><path class="k" d="M1935.79,781.354l49.154,28.38,3.409-1.968-49.155-28.38Z" transform="translate(-1848.761 -696.492)"/><path class="k" d="M1927.757,785.992l49.154,28.38,3.408-1.969-49.154-28.379Z" transform="translate(-1848.286 -696.766)"/><path class="k" d="M1943.607,776.087l49.154,28.38,3.409-1.969-49.154-28.379Z" transform="translate(-1849.223 -696.181)"/><path class="r" d="M2042,820.278c0,3.291-5.022,5.959-11.219,5.959s-11.219-2.668-11.219-5.959,5.023-5.959,11.219-5.959S2042,816.987,2042,820.278Z" transform="translate(-1853.716 -698.558)"/><ellipse class="i" cx="11.219" cy="5.958" rx="11.219" ry="5.958" transform="translate(165.848 112.807)"/><path class="l" d="M2037.618,907.172l1.146-.666c.174-.1.173-.265,0-.367l-1.151-.665a.7.7,0,0,0-.635,0l-1.145.666a.194.194,0,0,0,0,.367l1.151.664a.7.7,0,0,0,.634,0Z" transform="translate(-1854.67 -703.945)"/><rect class="l" width="4.467" height="10.709" rx="1.584" transform="translate(114.912 215.987)"/><path class="s" d="M1965.677,858.406l.159,3.428,1.977,48.274c-.008.181-.023.144-.034.067a7.108,7.108,0,0,0-.457,2.545c2.974,2.174,5.526,3.386,9.5,3.186a33.9,33.9,0,0,1,.609-7.027c.07-.515,3.9-48.231,3.9-48.231v-.041C1975.452,860.755,1971.558,858.083,1965.677,858.406Z" transform="translate(-1850.528 -701.164)"/><path class="l" d="M1976.774,925.21c3.833,2.711,3.46,5.249,9.211,3.832a10.665,10.665,0,0,0,4.977-2.383,3.94,3.94,0,0,0,.943-4.761c-.82-1.325-2.537-1.948-4.165-2.314a25.628,25.628,0,0,0-8.252-.477,7.04,7.04,0,0,0-3.707,1.216C1973.737,921.971,1975.055,923.994,1976.774,925.21Z" transform="translate(-1851.065 -704.748)"/><path class="s" d="M1974.535,914.245a10.044,10.044,0,0,1,2.589,1.859c2.886,2.4,5.819,4.864,7.852,8.022-.6,1.777-2.548,3.068-4.68,3.707a31.828,31.828,0,0,1-3.645-1.29,19.861,19.861,0,0,1-8.049-6.673c-.244-.351-.478-.826-.237-1.177l3.209-3.107c3.217-3.113,7.972,1.33,11.215,3.022,1.226.64,2.617,1.529,2.664,2.91.045,1.293-1.147,2.278-2.316,2.831a11.111,11.111,0,0,1-3.654,1.014Z" transform="translate(-1850.681 -704.469)"/><path class="l" d="M1966.291,914.852a5.1,5.1,0,0,1,4.658.676c2.252,1.359,3.921,3.582,5.888,5.292,2.711,2.357,5.441,3.676,8.758,2.159,1.092.663,1.857,1.427,1.822,2.308-.048,1.282-2.347,2.928-3.361,3.626-3.186,2.192-8.307-1.327-10.9-2.644-2.042-1.039-4.2-.846-6.15-1.712C1964.389,923.391,1963.557,917.312,1966.291,914.852Z" transform="translate(-1850.465 -704.487)"/><rect class="l" width="4.467" height="10.709" rx="1.584" transform="translate(88.007 198.976)"/><path class="t" d="M1936.615,852.251l.159-1.563,1.977,42.285c-.008.181-.024.144-.034.067a7.109,7.109,0,0,0-.456,2.545c2.975,2.174,5.526,3.387,9.5,3.186a33.924,33.924,0,0,1,.609-7.027c.07-.515,2.9-40.245,2.9-40.245v-.041C1945.391,851.6,1942.5,851.926,1936.615,852.251Z" transform="translate(-1848.809 -700.709)"/><path class="l" d="M1947.713,907.48c3.832,2.711,3.46,5.249,9.211,3.833a10.669,10.669,0,0,0,4.977-2.384,3.941,3.941,0,0,0,.943-4.762c-.821-1.325-2.537-1.948-4.165-2.313a25.651,25.651,0,0,0-8.252-.478,7.043,7.043,0,0,0-3.707,1.216C1944.676,904.241,1945.993,906.265,1947.713,907.48Z" transform="translate(-1849.346 -703.699)"/><path class="t" d="M1945.473,896.515a10.088,10.088,0,0,1,2.589,1.859c2.886,2.4,5.819,4.864,7.852,8.022-.6,1.777-2.548,3.068-4.68,3.707a31.833,31.833,0,0,1-3.645-1.29,19.858,19.858,0,0,1-8.048-6.673c-.245-.351-.477-.825-.237-1.177l3.209-3.107c3.217-3.112,7.972,1.33,11.214,3.022,1.226.64,2.617,1.529,2.664,2.911.044,1.292-1.148,2.277-2.316,2.83a11.1,11.1,0,0,1-3.654,1.013Z" transform="translate(-1848.963 -703.42)"/><path class="l" d="M1937.229,897.122a5.1,5.1,0,0,1,4.657.675c2.252,1.361,3.921,3.582,5.888,5.293,2.711,2.357,5.441,3.676,8.758,2.16,1.092.662,1.856,1.426,1.822,2.307-.049,1.283-2.347,2.928-3.361,3.625-3.186,2.192-8.308-1.327-10.9-2.644-2.042-1.039-4.205-.846-6.15-1.711C1935.326,905.661,1934.5,899.582,1937.229,897.122Z" transform="translate(-1848.747 -703.438)"/><path class="u" d="M2017.766,695.8v0Z" transform="translate(-1813.414 -668.342)"/><path class="v" d="M2016.014,759.274c0,1.917-1.346,2.695-3.006,1.736A6.644,6.644,0,0,1,2010,755.8c0-1.917,1.345-2.694,3.007-1.736A6.645,6.645,0,0,1,2016.014,759.274Z" transform="translate(-1853.15 -694.97)"/><path class="t" d="M1910.234,811.368a31.319,31.319,0,0,1-.107-3.574c.742-1.556,1.406-2.96,1.4-3.079l23.337-16.2a4.23,4.23,0,0,1,3.058-1.119,4.317,4.317,0,0,1,.609.069,4.213,4.213,0,0,1,2.341,1.3,4.257,4.257,0,0,1-.251,6.008l-22.876,19.669-.055.047A4.6,4.6,0,0,1,1910.234,811.368Z" transform="translate(-1847.242 -696.966)"/><path class="s" d="M1943.534,797.073c-2.8,2.605-6.748,2.917-8.811.7s-1.465-6.133,1.339-8.737,6.748-2.917,8.811-.7S1946.337,794.469,1943.534,797.073Z" transform="translate(-1848.624 -696.934)"/><path class="l" d="M1970.967,854.811l-14.215-8.145c-5.5-2.755-9.832.669-15.732,2.406l.749-.749-2.775-4.332-32.84-2.316c-11.5,6.518-13.725,34.477-13.725,34.477l.011.21h0c-1.36,11.348,16.321,19.877,29.963,21.955a22.4,22.4,0,0,0,13.959-2.452l2.283-1.226,32.931-17.688C1981.5,871.341,1981.148,859.932,1970.967,854.811Z" transform="translate(-1846.192 -700.177)"/><path class="r" d="M1904.351,833.468a42.386,42.386,0,0,1-.105,5.771,2.678,2.678,0,0,0,1.219,2.5,35.351,35.351,0,0,0,5.151,2.682c5.162,2.165,11.08,3.385,16.59,2.165.22-.052.431-.1.651-.157,3.166-.81,10.051-2.68,10.671-6.6a1.894,1.894,0,0,0,.052-.483c-.01-.368-.031-.747-.052-1.126v-17.6c1.714-5.1,4.857-8.736,3.291-15.212a23.028,23.028,0,0,0-3.67-8.242c-2.9-3.995-7.086-6.466-12.426-8.022-1.693-.483-3.365-.883-4.879-1.2a30.072,30.072,0,0,0-9.8-.368c-3.437.443-6.728,1.609-8.778,3.9a7.924,7.924,0,0,0-.736.925c-4.079,6.119-1.913,14.677-.431,21.32C1902.563,820.252,1904.1,826.813,1904.351,833.468Z" transform="translate(-1846.596 -696.962)"/><path class="w" d="M1928.543,777.391c-.02,0-.041.022-.061.045a1.372,1.372,0,0,1-.021-.292A.358.358,0,0,0,1928.543,777.391Z" transform="translate(-1848.327 -696.36)"/><path class="s" d="M1912.585,793.191h5.008a8.6,8.6,0,0,0,8.485-7.181l.312-1.864,1.137-6.82h-12.29Z" transform="translate(-1847.388 -696.37)"/><path class="x" d="M1918.75,779.868l6.1,9.269h.389l1.515-9.045Z" transform="translate(-1847.753 -696.521)"/><path class="t" d="M1927.529,774.315a1.032,1.032,0,0,1-.784.064c-.027-.067-.013-.141-.052-.205Z" transform="translate(-1848.222 -696.184)"/><path class="t" d="M1931.54,782.819c.143.01.286.039.429.057l-1.126-1.078C1931.081,782.132,1931.31,782.475,1931.54,782.819Z" transform="translate(-1848.469 -696.635)"/><path class="w" d="M1928.171,771.666c-.021,0-.039.025-.057.05a1.442,1.442,0,0,1-.049-.288A.358.358,0,0,0,1928.171,771.666Z" transform="translate(-1848.303 -696.021)"/><path class="t" d="M1926.851,768.707a1.028,1.028,0,0,1-.774.143c-.034-.064-.027-.139-.072-.2Z" transform="translate(-1848.182 -695.857)"/><path class="x" d="M1923.321,769.99a5.878,5.878,0,0,0,1.521,3.255,6.3,6.3,0,0,0,1.678,1.571,2.7,2.7,0,0,0,2.217.3c2.265-.8,1.7-4.2.811-5.8a4.115,4.115,0,0,0-3.358-2.194A2.747,2.747,0,0,0,1923.321,769.99Z" transform="translate(-1848.023 -695.767)"/><path class="r" d="M1929.744,806.46c1.575-2.811,2.924-4.845,6.315-4.3a44.01,44.01,0,0,1,6.919,2.038c.218.669.424,1.355.6,2.08,1.567,6.476-1.577,10.113-3.29,15.212v17.6c.021.378.042.757.052,1.125a1.934,1.934,0,0,1-.052.484c-.621,3.921-7.506,5.792-10.671,6.6l-.651.157V807.507A5.105,5.105,0,0,0,1929.744,806.46Z" transform="translate(-1848.357 -697.834)"/><path class="l" d="M1921.921,746.8l-.523.053Z" transform="translate(-1847.909 -694.565)"/><path class="s" d="M1944.277,838.511a30.914,30.914,0,0,1-.107-3.575c.743-1.556,1.406-2.96,1.4-3.078l23.337-16.2a4.252,4.252,0,0,1,5.757,6.259l-22.876,19.669-.056.047A4.6,4.6,0,0,1,1944.277,838.511Z" transform="translate(-1849.255 -698.571)"/><path class="s" d="M1977.578,824.216c-2.8,2.605-6.748,2.917-8.812.7s-1.464-6.133,1.339-8.737,6.749-2.917,8.812-.7S1980.38,821.611,1977.578,824.216Z" transform="translate(-1850.638 -698.539)"/><path class="s" d="M1971.432,817.27h0a1.83,1.83,0,0,1,.095-2.586l8.051-7.48a1.828,1.828,0,0,1,2.584.1h0a1.829,1.829,0,0,1-.095,2.585l-8.049,7.48A1.83,1.83,0,0,1,1971.432,817.27Z" transform="translate(-1850.84 -698.108)"/><path class="j" d="M1946.8,841.738l-.085.032a6.038,6.038,0,0,1-7.78-4.337l-7.544-30.186a6.307,6.307,0,0,1,12.237-3.06l2.976,11.9,2.933,11.722h0C1950.838,833.421,1953.51,839.24,1946.8,841.738Z" transform="translate(-1848.49 -697.677)"/><path class="y" d="M1873.809,956.569a7.654,7.654,0,0,1,3.462-6c1.913-1.1,3.462-.21,3.464,2a7.651,7.651,0,0,1-3.464,6C1875.36,959.672,1873.809,958.777,1873.809,956.569Z" transform="translate(-1845.095 -706.589)"/><path class="y" d="M1873.809,956.569a7.654,7.654,0,0,1,3.462-6c1.913-1.1,3.462-.21,3.464,2a7.651,7.651,0,0,1-3.464,6C1875.36,959.672,1873.809,958.777,1873.809,956.569Z" transform="translate(-1845.095 -706.589)"/><path class="y" d="M1879.865,950.414l2.984,1.555-4.684,8.537-3.494-1.818.886-4.808Z" transform="translate(-1845.146 -706.608)"/><path class="j" d="M1876.937,958.192a7.652,7.652,0,0,1,3.462-6c1.912-1.1,3.462-.209,3.462,2a7.655,7.655,0,0,1-3.462,6C1878.487,961.295,1876.937,960.4,1876.937,958.192Z" transform="translate(-1845.28 -706.685)"/><path class="k" d="M1876.937,958.192a7.652,7.652,0,0,1,3.462-6c1.912-1.1,3.462-.209,3.462,2a7.655,7.655,0,0,1-3.462,6C1878.487,961.295,1876.937,960.4,1876.937,958.192Z" transform="translate(-1845.28 -706.685)"/><path class="y" d="M1918.062,931.835a7.657,7.657,0,0,1,3.462-6c1.912-1.1,3.462-.209,3.462,2a7.651,7.651,0,0,1-3.462,6C1919.613,934.938,1918.062,934.043,1918.062,931.835Z" transform="translate(-1847.712 -705.126)"/><path class="y" d="M1918.062,931.835a7.657,7.657,0,0,1,3.462-6c1.912-1.1,3.462-.209,3.462,2a7.651,7.651,0,0,1-3.462,6C1919.613,934.938,1918.062,934.043,1918.062,931.835Z" transform="translate(-1847.712 -705.126)"/><path class="y" d="M1924.118,925.68l2.984,1.555-4.684,8.537-3.494-1.818.885-4.808Z" transform="translate(-1847.763 -705.145)"/><path class="j" d="M1921.19,933.458a7.651,7.651,0,0,1,3.462-6c1.912-1.1,3.463-.209,3.463,2a7.656,7.656,0,0,1-3.463,6C1922.74,936.561,1921.19,935.666,1921.19,933.458Z" transform="translate(-1847.897 -705.222)"/><path class="k" d="M1921.19,933.458a7.651,7.651,0,0,1,3.462-6c1.912-1.1,3.463-.209,3.463,2a7.656,7.656,0,0,1-3.463,6C1922.74,936.561,1921.19,935.666,1921.19,933.458Z" transform="translate(-1847.897 -705.222)"/><path class="y" d="M1915.986,957.661a7.65,7.65,0,0,1,3.463-6c1.912-1.1,3.462-.21,3.462,2a7.654,7.654,0,0,1-3.462,6C1917.536,960.765,1915.986,959.869,1915.986,957.661Z" transform="translate(-1847.589 -706.654)"/><path class="y" d="M1915.986,957.661a7.65,7.65,0,0,1,3.463-6c1.912-1.1,3.462-.21,3.462,2a7.654,7.654,0,0,1-3.462,6C1917.536,960.765,1915.986,959.869,1915.986,957.661Z" transform="translate(-1847.589 -706.654)"/><path class="y" d="M1922.041,951.506l2.984,1.555-4.684,8.537-3.494-1.817.886-4.808Z" transform="translate(-1847.64 -706.672)"/><path class="j" d="M1919.113,959.284a7.653,7.653,0,0,1,3.463-6c1.913-1.1,3.462-.209,3.462,2a7.653,7.653,0,0,1-3.462,6C1920.664,962.387,1919.113,961.492,1919.113,959.284Z" transform="translate(-1847.774 -706.75)"/><path class="k" d="M1919.113,959.284a7.653,7.653,0,0,1,3.463-6c1.913-1.1,3.462-.209,3.462,2a7.653,7.653,0,0,1-3.462,6C1920.664,962.387,1919.113,961.492,1919.113,959.284Z" transform="translate(-1847.774 -706.75)"/><path class="y" d="M1873.025,932.754a7.655,7.655,0,0,1,3.462-6c1.912-1.1,3.463-.209,3.463,2a7.651,7.651,0,0,1-3.463,6C1874.576,935.856,1873.025,934.962,1873.025,932.754Z" transform="translate(-1845.048 -705.181)"/><path class="y" d="M1873.025,932.754a7.655,7.655,0,0,1,3.462-6c1.912-1.1,3.463-.209,3.463,2a7.651,7.651,0,0,1-3.463,6C1874.576,935.856,1873.025,934.962,1873.025,932.754Z" transform="translate(-1845.048 -705.181)"/><path class="y" d="M1879.08,926.6l2.984,1.555-4.684,8.537-3.494-1.817.885-4.808Z" transform="translate(-1845.099 -705.199)"/><path class="j" d="M1876.153,934.376a7.652,7.652,0,0,1,3.462-6c1.912-1.1,3.462-.209,3.462,2a7.652,7.652,0,0,1-3.462,6C1877.7,937.479,1876.153,936.584,1876.153,934.376Z" transform="translate(-1845.233 -705.277)"/><path class="k" d="M1876.153,934.376a7.652,7.652,0,0,1,3.462-6c1.912-1.1,3.462-.209,3.462,2a7.652,7.652,0,0,1-3.462,6C1877.7,937.479,1876.153,936.584,1876.153,934.376Z" transform="translate(-1845.233 -705.277)"/><path class="q" d="M1923.007,946.379l-15.321-8.846,15.321-8.846c2.515-1.452,2.515-3.827,0-5.28h0a10.147,10.147,0,0,0-9.145,0l-15.321,8.846-15.321-8.846a10.146,10.146,0,0,0-9.145,0c-2.515,1.453-2.515,3.828,0,5.28l15.321,8.846-15.321,8.846c-2.515,1.452-2.515,3.829,0,5.28h0a10.147,10.147,0,0,0,9.145,0l15.321-8.846,15.321,8.846a10.147,10.147,0,0,0,9.145,0C1925.521,950.208,1925.521,947.831,1923.007,946.379Z" transform="translate(-1844.999 -704.946)"/><path class="q" d="M1923.007,946.379l-15.321-8.846,15.321-8.846c2.515-1.452,2.515-3.827,0-5.28h0a10.147,10.147,0,0,0-9.145,0l-15.321,8.846-15.321-8.846a10.146,10.146,0,0,0-9.145,0c-2.515,1.453-2.515,3.828,0,5.28l15.321,8.846-15.321,8.846c-2.515,1.452-2.515,3.829,0,5.28h0a10.147,10.147,0,0,0,9.145,0l15.321-8.846,15.321,8.846a10.147,10.147,0,0,0,9.145,0C1925.521,950.208,1925.521,947.831,1923.007,946.379Z" transform="translate(-1844.999 -704.946)"/><path class="j" d="M1892,937.734c0,2.862,3.454,5.182,7.716,5.182s7.716-2.32,7.716-5.182-3.455-7.605-7.716-7.605S1892,934.872,1892,937.734Z" transform="translate(-1846.17 -705.408)"/><path class="q" d="M1894.18,933.931c0,2.1,2.534,3.8,5.662,3.8s5.66-1.7,5.66-3.8-2.534-3.8-5.66-3.8S1894.18,931.832,1894.18,933.931Z" transform="translate(-1846.299 -705.408)"/><path class="j" d="M1899.98,890.8a3.486,3.486,0,0,0-3.463,3.51V928.1a3.463,3.463,0,1,0,6.925,0V894.309A3.486,3.486,0,0,0,1899.98,890.8Z" transform="translate(-1846.438 -703.082)"/><path class="z" d="M1965.875,886.974c0,.189,0,.389-.02.589a17.223,17.223,0,0,1-8.883,13.795L1919.2,922.07a10,10,0,0,1-1.786.769,10.312,10.312,0,0,1-8.435-.918l-43.262-25.493a23.613,23.613,0,0,1-11.52-18.147l-4.531-48.492-.47-5.041a5.384,5.384,0,0,1,7.746-5.33l46.826,23.168a5.382,5.382,0,0,1,2.724,3.134l14.973,45.438a6.252,6.252,0,0,0,9.035,3.474l24.434-13.974A7.312,7.312,0,0,1,1965.875,886.974Z" transform="translate(-1843.637 -698.826)"/><path class="y" d="M1916.071,920a3,3,0,0,1-3.238,4.031,10.3,10.3,0,0,1-3.8-1.327l-43.262-25.494a23.609,23.609,0,0,1-11.519-18.147l-4.172-44.647a2.155,2.155,0,0,1,3.1-2.133l37.784,18.682a5.407,5.407,0,0,1,2.724,3.145l14.963,45.438C1909.167,901.127,1912.331,910.183,1916.071,920Z" transform="translate(-1843.691 -699.607)"/><g transform="translate(81.069 62.783)"><g transform="translate(0)"><path class="aa" d="M1296.531,1592.693a5.707,5.707,0,1,1,5.408-5.7A5.567,5.567,0,0,1,1296.531,1592.693Zm0-10.514a4.825,4.825,0,1,0,4.524,4.814A4.681,4.681,0,0,0,1296.531,1582.179Z" transform="translate(-1291.122 -1581.294)"/></g></g><path class="s" d="M1935.421,765.588c.239,3.621-.019,7.246-1.865,10.108-2.028,3.189-5.668,4.742-9.225,5.2a10.767,10.767,0,0,1-5.873-.683c-3.488-1.634-5.456-5.719-6.7-9.641a33.924,33.924,0,0,1-1.088-4.554,17.26,17.26,0,0,1-.016-5.276,15.1,15.1,0,0,1,5.707-9.243,23.817,23.817,0,0,1,9.673-4.178,8.059,8.059,0,0,1,5.079.1,4.3,4.3,0,0,1,2.315,2.606,3.291,3.291,0,0,1,.173,1.284l1.316,9.785C1935.115,762.566,1935.31,764.061,1935.421,765.588Z" transform="translate(-1847.262 -694.574)"/><path class="ab" d="M1907,761.049a22.767,22.767,0,0,0,2.21,7.846,20.332,20.332,0,0,0,6.953,8.371c2.458,1.539,7.281,2.735,9.356-.02,2.034-2.7.307-6.987,2.318-9.7a9.318,9.318,0,0,1,2.223-1.912,17.546,17.546,0,0,0,4.709-4.558c3.035-4.659,1.608-13.3-3.558-16.038a17.435,17.435,0,0,0-13.652-.672,15.606,15.606,0,0,0-3.937,2.214c-.066.058-.134.106-.219.176A16.989,16.989,0,0,0,1907,761.049Z" transform="translate(-1847.055 -694.357)"/><g transform="translate(79.234 67.352)"><g transform="translate(0 0)"><rect class="aa" width="13.263" height="0.885" transform="translate(0 5.44) rotate(-24.214)"/></g></g><g transform="translate(49.742 51.599)"><g transform="translate(0)"><g transform="translate(0)"><g transform="translate(0)"><path class="ab" d="M927.568,641.347c-3.3-6.138-13.249-7.038-17.594-1.591s-1.255,14.95,5.463,16.8a10.877,10.877,0,0,0,12.585-6.282,10.728,10.728,0,0,0-5.074-13.078Z" transform="translate(-907.962 -636.157)"/></g></g></g></g></g></g><g transform="translate(-6480 -8451)"><path class="j" d="M1999.9,749.255s5.158,14.086,0,17.064l-2.494,1.439-.007,0-9.778,5.647c-1.376.8-1.375,2.1,0,2.89l13.735,7.933a5.427,5.427,0,0,0,4.98-.042l6.974-4.124.069.032c.8-.5,1.551-.967,2.225-1.39l.306-.181c.029-.018.048-.039.074-.058,1.414-.887,2.373-1.5,2.373-1.5s4.362-3.195,4.362-14.545Z" transform="translate(5138.514 17157.6)"/><path class="ac" d="M2022.723,759.329c0,11.352-4.363,14.545-4.363,14.545s-.955.6-2.376,1.5a.361.361,0,0,0-.076.063l-.3.176q-1.018.641-2.224,1.4l-.076-.038-.8.478-6.16,3.646a5.425,5.425,0,0,1-4.99.038l-13.728-7.932c-1.383-.792-1.383-2.087,0-2.892l6.172-3.57,3.6-2.074h.013c.893-.515,1.748-1.006,2.49-1.446,5.041-2.9.251-16.368.012-17.034v-.013h.013Z" transform="translate(5138.514 17158.045)"/><path class="q" d="M2023.938,759.329c0,11.352-4.362,14.545-4.362,14.545s-.956.6-2.376,1.5a.339.339,0,0,0-.075.063l-.3.176q-1.018.641-2.224,1.4l-.076-.038-.8.478-18.706-10.711,3.6-2.074h.013c.893-.515,1.748-1.006,2.49-1.446,5.041-2.9.251-16.368.012-17.034l.013-.013Z" transform="translate(5137.299 17158.045)"/><path class="c" d="M2053.734,703.224l-72.741-42c-1.807-1.043-3.188-.61-4.767.663l-3.361,1.885,3.615,2.555V723.16a9.975,9.975,0,0,0,4.513,7.817l71.231,41.123v3.232a.581.581,0,0,0,.911.478l3.417-2.355c1.032-.358,1.7-1.439,1.7-3.089V711.051A9.988,9.988,0,0,0,2053.734,703.224Z" transform="translate(5140.492 17170.377)"/><path class="ad" d="M2053.106,714.376v59.315c0,2.885-2.024,4.043-4.513,2.606l-72.742-42a9.97,9.97,0,0,1-4.513-7.817V667.169c0-2.885,2.024-4.053,4.514-2.616l72.74,42A9.991,9.991,0,0,1,2053.106,714.376Z" transform="translate(5140.713 17169.902)"/><path class="u" d="M1977.728,729.8V672.688l70.827,40.891v57.114Z" transform="translate(5139.791 17168.641)"/><path class="j" d="M2053.1,770.832V782.3c0,2.885-2.024,4.043-4.513,2.606l-72.742-42a9.97,9.97,0,0,1-4.513-7.817V723.625Z" transform="translate(5140.713 17161.295)"/><path class="j" d="M2050.521,785.9a4.622,4.622,0,0,1-2.281-.69l-72.741-42a10.415,10.415,0,0,1-4.776-8.273V722.56l82.821,47.815v11.769a3.667,3.667,0,0,1-1.584,3.379A2.846,2.846,0,0,1,2050.521,785.9Zm-78.746-61.512v10.553a9.409,9.409,0,0,0,4.25,7.362l72.742,42a2.242,2.242,0,0,0,3.724-2.15V770.984Z" transform="translate(5140.801 17161.449)"/><path class="v" d="M2015.47,758.766c0,1.744-1.224,2.451-2.735,1.579a6.046,6.046,0,0,1-2.735-4.737c0-1.744,1.225-2.451,2.735-1.579A6.044,6.044,0,0,1,2015.47,758.766Z" transform="translate(5135.138 17156.965)"/><path class="j" d="M2010.2,700.806l-19.156-11.059v13.647l19.156,11.059Z" transform="translate(5137.87 17166.18)"/><path class="j" d="M2037.061,716.313l-19.157-11.06V718.9l19.157,11.06Z" transform="translate(5133.998 17163.945)"/><path class="j" d="M2010.2,721.92l-19.156-11.059v13.646l19.156,11.059Z" transform="translate(5137.871 17163.137)"/><path class="j" d="M2037.061,737.427l-19.157-11.06v13.646l19.157,11.06Z" transform="translate(5133.998 17160.898)"/></g></g></svg>