<svg xmlns="http://www.w3.org/2000/svg" width="280.576" height="295.945" viewBox="0 0 280.576 295.945"><defs><style>.a{fill:#bdc1e1;}.b{fill:#fff;}.c{fill:#b3bade;}.d{fill:#3c2768;}.e{fill:#f69874;}.f{fill:#5678bb;}.g{fill:#ee3f5c;}.h{fill:#ffc7cb;}.i{fill:#d9def0;}.j{fill:#e2e8f2;}.k{fill:#c76a72;}.l{fill:#e4e6f3;}.m{fill:#e2e5f3;}.n{fill:#2d1d50;}.o{fill:#d2d2d2;}</style></defs><g transform="translate(-128.746 -47.799)"><g transform="translate(128.746 47.799)"><path class="a" d="M1423.78,975.109l36.564-21.008.021-2.832L1423.78,972.39Z" transform="translate(-1305.048 -721.007)"/><path class="b" d="M1396.868,957.2l33.145,18.759,36.585-21.122-32.8-18.956Z" transform="translate(-1311.281 -724.572)"/><path class="a" d="M1396.868,953.187v2.754l33.145,18.723v-2.719Z" transform="translate(-1311.281 -720.562)"/><path class="a" d="M1427.406,908.482l120.776-69.394V828.657l-120.776,69.72Z" transform="translate(-1304.208 -749.41)"/><path class="b" d="M1327.379,843.556l123.2,69.726,135.983-78.509-121.931-70.459Z" transform="translate(-1327.379 -764.314)"/><g transform="translate(105.064 46.566)"><path class="b" d="M1477.077,821.8c0,13.738-17.125,24.881-38.254,24.881-13.406,0-25.2-4.48-32.019-11.27-3.957-3.909-6.235-8.594-6.235-13.611,0-13.738,17.125-24.864,38.254-24.864,16.444,0,30.467,6.743,35.88,16.206A17.332,17.332,0,0,1,1477.077,821.8Z" transform="translate(-1400.569 -796.931)"/><path class="c" d="M1460.086,818.73c0,9.353-11.665,16.935-26.035,16.935-.539,0-1.062-.015-1.583-.031,12.028-.49,21.541-6.981,21.541-14.925,0-8.262-10.288-14.958-23-14.958-12.217,0-22.22,6.206-22.949,14.023-.031-.347-.047-.7-.047-1.044,0-9.338,11.649-16.92,26.037-16.92C1448.42,801.81,1460.086,809.391,1460.086,818.73Z" transform="translate(-1395.891 -793.866)"/><path class="d" d="M1453.991,819.188v.189h-.016c-.063,4.291-2.928,8.151-7.454,10.843l-.016.015a30.127,30.127,0,0,1-14.054,3.879c-11.571-.443-21.1-5.808-23.726-12.93a11.177,11.177,0,0,1-.681-2.929.432.432,0,0,1,.016-.094,9.584,9.584,0,0,1,.808-3.022,15.026,15.026,0,0,1,5.9-6.538,26.651,26.651,0,0,1,8.721-3.561c.3-.064.6-.127.9-.189a35.511,35.511,0,0,1,6.6-.619c.982,0,1.964.049,2.913.127C1445.237,805.275,1453.991,811.576,1453.991,819.188Z" transform="translate(-1395.873 -792.345)"/><path class="c" d="M1478.486,820.448c0,13.738-17.125,24.881-38.255,24.881-16.4,0-30.4-6.727-35.833-16.176,6.823,6.79,18.613,11.27,32.019,11.27,21.129,0,38.254-11.143,38.254-24.881a17.331,17.331,0,0,0-2.375-8.658C1476.206,810.778,1478.486,815.447,1478.486,820.448Z" transform="translate(-1398.163 -790.678)"/><path class="e" d="M1456.459,818.856a3.279,3.279,0,0,1-2.469,2.151h-.016c-1.2.223-2.327-.109-3.182,1.757-1.456,3.165-1.773,6.458-4.273,9.086l-.016.015a30.124,30.124,0,0,1-14.054,3.879c-11.571-.443-21.1-5.808-23.726-12.93l-.681-2.929a.433.433,0,0,1,.016-.094c.08-.348.349-1.566.808-3.022.808-2.644,2.231-6.062,4.194-6.585.933-.252,1.423-.174,1.708.047.729.539.365,1.978,3.071,1.646,3.514-.427,2.406-4.195,5.65-5.207.3-.063.6-.127.9-.189,4.369-.539,1.33,3.924,4.764,3.7,1.519-.094,2.991-2.136,4.748-4.194,2.2-2.6,4.875-5.238,8.7-4.068,6.854,2.106,8.183,3.832,10.288,7.393S1458.438,814.93,1456.459,818.856Z" transform="translate(-1395.873 -793.976)"/><path class="f" d="M1421.9,813.042c0,1.2-1.594,2.167-3.561,2.167s-3.561-.971-3.561-2.167,1.594-2.167,3.561-2.167S1421.9,811.845,1421.9,813.042Z" transform="translate(-1391.644 -788.17)"/><path class="g" d="M1430.685,811.132c0,.718-.956,1.3-2.138,1.3s-2.138-.583-2.138-1.3.957-1.3,2.138-1.3S1430.685,810.412,1430.685,811.132Z" transform="translate(-1384.333 -788.827)"/><path class="b" d="M1429.274,817.383c0,1.2-1.594,2.167-3.561,2.167s-3.561-.97-3.561-2.167,1.594-2.167,3.561-2.167S1429.274,816.187,1429.274,817.383Z" transform="translate(-1387.008 -785.443)"/></g><path class="h" d="M1495.012,848.229s-11.11-14.881-18.3-16.377-11.892,2.492-13.892-.251,10.549-17.359,16.1-12.595,9.439,9.853,16.323,12.846a102.5,102.5,0,0,0,14.091,4.789Z" transform="translate(-1296.054 -751.865)"/><path class="a" d="M1577.841,911.143l-61,34.871-61-34.871,61-35.223Z" transform="translate(-1297.621 -738.461)"/><path class="d" d="M1566.355,897.347s-3.987,19.37-13.062,24.218-36.549,23.872-59.115,10.967c-17.275-9.877-31.892-18.244-37.794-21.62-1.808-1.042-2.8-1.6-2.8-1.6s10.678-12.294,22.709-20.232h.012a56.989,56.989,0,0,1,5.459-3.208,96.3,96.3,0,0,1,28.206-8.979Z" transform="translate(-1298.144 -738.237)"/><path class="i" d="M1327.379,843.556l137.25-79.242,121.931,70.459-144.653-29.048Z" transform="translate(-1327.379 -764.314)"/><path class="j" d="M1560.8,913.32s-8.966,11.469-18.508,12.894-16.2,5.949-27.642,9.469-18.1-8.786-18.1-8.786-1.352-8,.791-21.43a94.545,94.545,0,0,1,8.5-25.523c-1.329,2.25-7.482,9.625-7.482,9.625a25.243,25.243,0,0,1-12.57-4.19c-5.686-4.035-8.236-11.218-8.236-11.218a43.061,43.061,0,0,1,7.638-10.511c4.489-4.215,3.592-14.485,6.357-22.124s15.647-18.244,20.256-21.692,5.316-4.573,5.316-4.573l35.7-7.339c14.761,13.037,7.591,46.63,9.793,64.54S1560.8,913.32,1560.8,913.32Z" transform="translate(-1292.591 -754.213)"/><path class="h" d="M1502.957,811.86s2.637,2.545,2.961,8.83h7.059l2.095-11.908-6.057-4.553Z" transform="translate(-1286.706 -755.068)"/><path class="h" d="M1489.144,791.9a66.286,66.286,0,0,0,1.2,19.107c2.195,10.627,3.454,10.757,7.513,9.495s12.839-5.157,14.635-9.495,2-12.718,2-12.718l-9.777-15.344H1501.7Z" transform="translate(-1289.959 -759.999)"/><path class="b" d="M1460.465,916.295V993.98l5.7-3.284-.278-77.5Z" transform="translate(-1296.549 -729.827)"/><path class="a" d="M1551.628,916.295V993.98l-5.7-3.284.278-77.5Z" transform="translate(-1276.752 -729.827)"/><path class="k" d="M1357.49,811.188l5.494-3.351A35.1,35.1,0,0,1,1357.49,811.188Z" transform="translate(-1320.404 -754.232)"/><path class="a" d="M1566.353,824.572l-60.98,35.222V912.63l60.993-35.215Z" transform="translate(-1286.147 -750.356)"/><path class="l" d="M1567.472,825.24l-6.148-3.549-60.783,35.336,5.951,3.435Z" transform="translate(-1287.266 -751.023)"/><path class="l" d="M1500.542,850.38v52.4l5.951,3.873V853.816Z" transform="translate(-1287.266 -744.377)"/><path class="l" d="M1555.9,867.476V913.1l-5.344,2.771V870.562Z" transform="translate(-1275.68 -740.417)"/><path class="b" d="M1546.616,872.773v39.751l4.852,2.769V869.971Z" transform="translate(-1276.592 -739.839)"/><path class="l" d="M1510.771,893.545v45.623l-5.344,2.771-.064-45.289Z" transform="translate(-1286.149 -734.378)"/><path class="b" d="M1501.418,893.5v45.673l4.852,2.768.007-45.279Z" transform="translate(-1287.063 -734.389)"/><path class="i" d="M1455.838,904.518v10.651l61,34.927.008-10.706Z" transform="translate(-1297.621 -731.836)"/><path class="b" d="M1505.361,950.1l61.008-34.893V904.518l-61,34.871Z" transform="translate(-1286.149 -731.836)"/><path class="b" d="M1505.361,942.107v77.686l5.7-3.284-.278-77.5Z" transform="translate(-1286.149 -723.847)"/><path class="a" d="M1506.433,942.107v77.686l-5.7-3.284.278-77.5Z" transform="translate(-1287.221 -723.847)"/><path class="b" d="M1550.556,916.295V993.98l5.7-3.284-.278-77.5Z" transform="translate(-1275.68 -729.827)"/><path class="a" d="M1461.538,916.295V993.98l-5.7-3.284.277-77.5Z" transform="translate(-1297.621 -729.827)"/><path d="M1489.1,793.917s1.5-26.633,22.148-17.954c14.717,6.185,15.467,33.3,23.146,32.463s26.1,10.665,23.474,27.809-13.812,43.124-34.257,35.223-6.833-20.022-11.766-26.336c-5.679-7.269,6.584-23.518.6-28.056s-5.406-11.972-6.279-17.958S1489.1,793.917,1489.1,793.917Z" transform="translate(-1289.916 -762.019)"/><path class="l" d="M1327.379,828.652V838.89l123.2,69.593v-10.1Z" transform="translate(-1327.379 -749.411)"/><path class="a" d="M1420.223,889.411v79.2s2.359,2.956,8.847,2.956,7.087-2.544,7.087-2.544V890.336l-7.087,4.072Z" transform="translate(-1305.871 -735.336)"/><path class="d" d="M1454.817,953s3.089,5.907-1.071,9.511-37.081,4.029-37.232,0,27.242-11.989,27.242-11.989l6.578-2.065Z" transform="translate(-1306.731 -721.657)"/><path class="h" d="M1457.045,907.841s.993.563,2.8,1.6l-.023.011.275,10.68-10.4,47.981a26.621,26.621,0,0,1-6.428,0c-4.19-.4-4.634-2.478-4.634-2.478s7.327-78.234,15.456-81.527c7.984-3.232,25.057,3.256,25.666,3.5C1467.724,895.547,1457.045,907.841,1457.045,907.841Z" transform="translate(-1301.607 -736.772)"/><path class="h" d="M1508.486,880.766s-11.972,14.366-23.656,15.9-37.4-27.367-37.4-27.367-7.782,1.281-12.175-9.242,2.6-14.51,4.992-14.1-3.987,6.177-.8,8.895,7.781.873,10.176,1.652,2,1.222,2.394,6.825,16.568,9.96,24.194,10.774,11.469-8.74,11.469-8.74,2.55,7.183,8.236,11.218A25.243,25.243,0,0,0,1508.486,880.766Z" transform="translate(-1302.717 -745.41)"/><path class="h" d="M1442.5,855.657c.074-.31-.973-6.222.9-6.522s3.441,6.884,3.441,6.884l-2.637.824Z" transform="translate(-1300.764 -744.668)"/></g><g transform="translate(211.755 123.236)"><path class="m" d="M3715.248,800s-.05.529-.153,1.431c-1.039-5.2-7.588-9.192-15.519-9.192s-14.5,3.99-15.521,9.21c0-.035-.017-.068-.017-.1-.051-.461-.085-.836-.12-1.058-.017-.187-.017-.289-.017-.289,0-5.885,7.01-10.66,15.675-10.66S3715.248,794.114,3715.248,800Z" transform="translate(-3683.901 -789.34)"/><path class="n" d="M3715.953,812.164c0,5.44-6.123,9.859-13.661,9.859s-13.661-4.419-13.661-9.859a7.718,7.718,0,0,1,.408-2.422,10.08,10.08,0,0,0,6.585,2.422c3.53,0,7.622-5.2,9.753-7.728,1.245.817,4.243.986,4.856-.634C3712.708,805.592,3715.953,809.453,3715.953,812.164Z" transform="translate(-3679.884 -776.357)"/><path class="m" d="M3714.975,795.981c-.716,5.612-3.957,23.86-15.5,23.86s-14.77-18.248-15.47-23.86c1.144,5.116,7.641,9.04,15.486,9.04S3713.832,801.1,3714.975,795.981Z" transform="translate(-3683.814 -783.702)"/><path class="o" d="M3715.023,800.1c0,.035-.016.085-.016.12a.106.106,0,0,1-.017.068c-1.143,5.116-7.64,9.04-15.486,9.04s-14.342-3.924-15.485-9.04c-.019-.052-.019-.12-.035-.17,1.023-5.22,7.591-9.21,15.521-9.21S3713.985,794.9,3715.023,800.1Z" transform="translate(-3683.831 -788.009)"/><path class="n" d="M3702.9,805.063a4.8,4.8,0,0,1-2.149,3c-.852.359-1.943.12-3.222-.732a28.685,28.685,0,0,0,2.063-3.6A15.364,15.364,0,0,1,3702.9,805.063Z" transform="translate(-3672.327 -777.119)"/></g></g></svg>