<svg xmlns="http://www.w3.org/2000/svg" width="150.153" height="505.956" viewBox="0 0 150.153 505.956"><defs><style>.a{fill:#3772ce;}.b{fill:#1f3598;}.c{fill:#ced6e9;}.d{fill:#2b65ba;}.e{fill:#ff8358;}.f{fill:#743c45;}.g{fill:#fab300;}.h{fill:none;stroke:#743c45;stroke-width:2px;}</style></defs><g transform="translate(-1255.243 52.592)"><path class="a" d="M1648.58,1606.739a13.98,13.98,0,0,1-13.126-18.745l33.8-82.529a13.969,13.969,0,0,1,26.258,9.545l-33.8,82.529A13.977,13.977,0,0,1,1648.58,1606.739Z" transform="translate(-298.388 -1457.862)"/><path class="b" d="M1657.167,1695.581c3.106-.065,5.813,2.4,7.021,5.263s1.231,6.066,1.237,9.172c.005,2.721-.115,5.755-2.056,7.663a10.342,10.342,0,0,1-4.715,2.193,55.491,55.491,0,0,1-9.682,2.012c-3.725.32-7.5-.113-11.2.449-2.355.359-4.629,1.116-6.949,1.662a39.593,39.593,0,0,1-19.981-.514,7.5,7.5,0,0,1-3.885-2.139c-1.568-1.932-1.023-4.946.552-6.874s3.918-3.028,6.179-4.066l20.432-9.383c6.679-3.068,13.595-6.191,20.944-6.36,2.348-.054,5.444,1.01,5.231,3.35Z" transform="translate(-323.289 -1310.647)"/><rect class="c" width="17.056" height="30.209" rx="4.703" transform="translate(1343.318 395.694) rotate(175.355)"/><path class="b" d="M1654.916,1726.142c-1.291,2.359-2.631,4.691-3.887,7.036a57.485,57.485,0,0,0-3.493,7.341c-1.376,3.777-3.967,11.126-.711,14.555,4.9,5.162,12.9.742,16.88-2.9a158.816,158.816,0,0,0,16.482-17.555c2.162-2.685,4.3-5.571,4.963-8.952,2.042-10.365-4.029-25.061-16.757-21.62-4.648,1.258-6.628,4.517-7.731,8.745A59.173,59.173,0,0,1,1654.916,1726.142Z" transform="translate(-290.49 -1304.063)"/><rect class="c" width="17.056" height="30.209" rx="4.703" transform="translate(1386.87 417.103) rotate(180)"/><path class="b" d="M1651.722,1548.53l43.065,14.929,16.652,32.912-4.594,110.587v104.129a10.3,10.3,0,0,1-10.3,10.3h-7.085a10.3,10.3,0,0,1-10.262-9.436l-10.843-125.1-3.582-48.911-8.951-3.63-4.1,58.623,4.829,96.741a10.027,10.027,0,0,1-10.75,10.478l-4.989-.368a10.027,10.027,0,0,1-9.184-8.55l-16.253-107.394v-116.06Z" transform="translate(-312.662 -1419.081)"/><path class="b" d="M1662.735,1699.976h6.3c2.894,0,5.564-.444,7.7-3.306,1.7-2.284,3.226-2.963,3.226.017v7.9c0,7.893-3.914,14.29-10.929,14.29h-6.3c-6.6,0-12.106-5.691-12.659-13.093v-9.792a1.447,1.447,0,0,1,2.713-.861C1654.294,1697.713,1656.82,1700.037,1662.735,1699.976Z" transform="translate(-284.912 -1311.875)"/><path class="b" d="M1633.1,1691h5.015c2.306,0,6.843-1.237,7.7-4.7.623-2.5,2.416-.859,2.416,1.785v7.009c0,7-4.53,12.677-10.12,12.677H1633.1c-5.26,0-9.643-5.048-10.083-11.616v-8.688c0-1.478,1.516-2,2.161-.763C1626.38,1688.992,1628.393,1691.054,1633.1,1691Z" transform="translate(-303.921 -1317.771)"/><path class="a" d="M1711.975,1655.885l-10.576,1.864a65.424,65.424,0,0,1-56.021-6.067l-30.019-16.531v-120.3a36.329,36.329,0,0,1,1.637-12.06,32.218,32.218,0,0,1,8.787-13.715.231.231,0,0,1,.038-.058,32.771,32.771,0,0,1,5.8-4.317c3.233-1.883,7.684-2.683,12.687-2.683a54.749,54.749,0,0,1,7.076.476c12.461,1.5,26.328,6.677,33.461,11.661l2.645,1.674,9.435,5.954a20.913,20.913,0,0,1,4.946,4.033,20.6,20.6,0,0,1,1.35,1.559c.209.266.4.532.591.8.341.477.685.97.988,1.484.286.476.552.951.8,1.446.19.362.361.723.514,1.085a9.947,9.947,0,0,1,.4.951,3.021,3.021,0,0,1,.152.4,1.215,1.215,0,0,1,.115.342,10.149,10.149,0,0,1,.324.97c.113.382.228.761.3,1.143a23.542,23.542,0,0,1,.572,3.31c.039.418.058.836.077,1.273l1.446,51.152Z" transform="translate(-312.672 -1468.434)"/><path class="d" d="M1711.975,1652.9l-10.576,1.864a66.112,66.112,0,0,1-14.82,3.329c-6.98-10.747-9.3-13.182-3.613-24.519,2.7-5.212,6.942-9.93,7.533-15.79.209-2.09-.077-2.89-.629-5.972a33.289,33.289,0,0,1-37.853,6.524c-11.224-5.345-24.406-11.6-36.658-17.4v-90.966a32.44,32.44,0,0,1,1.637-10.158c4.946-7.742,8.407-13.105,8.787-13.715a.235.235,0,0,1,.038-.058l3.766,41.28,32.111,16.777,25.795-51.246,12.726,10.177c.551-.077,1.1-.134,1.655-.19.476.495.932,1.026,1.35,1.559.209.266.4.533.591.8.341.477.685.97.988,1.484.286.476.552.952.8,1.446.19.362.361.723.514,1.085a8.237,8.237,0,0,1,.4.951,3.03,3.03,0,0,1,.152.4,1.215,1.215,0,0,1,.115.341,10.162,10.162,0,0,1,.324.97c.113.381.228.761.3,1.143a23.549,23.549,0,0,1,.572,3.31c.039.418.058.836.077,1.274l1.446,62.565Z" transform="translate(-312.672 -1465.453)"/><path class="c" d="M1649.092,1506.1c9.39,0,16.746-5.278,16.746-12.017s-7.357-12.015-16.746-12.015-16.746,5.278-16.746,12.015S1639.7,1506.1,1649.092,1506.1Z" transform="translate(-305.776 -1468.398)"/><path class="e" d="M1634.283,1504.577v-26.893a12.165,12.165,0,0,1,3.652-8.6,13.394,13.394,0,0,1,4.726-3.069,15.171,15.171,0,0,1,4.564-.855c.753,0,1.5.049,2.2.1a13.634,13.634,0,0,1,7.681,3.573,12.094,12.094,0,0,1,3.919,8.857v26.886l0,0,0,0v1.314h-.151c-.925,4.393-6.391,7.672-13.22,7.672s-12.3-3.278-13.219-7.672h-.153Z" transform="translate(-304.405 -1480.949)"/><path class="a" d="M1712.485,1492.838l-31.538,23.015-6.231.549-30.072-30.359c-14.993,21.2-35.813,43.567-45.623,66.894-1.8,4.277-3.629,8.8-2.86,13.321,1.8,10.587,24.692,16.081,33.729,19.969q21.793,9.373,43.567,18.788c17.255,7.456,37.9,1.618,47.476-13.409l18.326-28.77c12.658-19.873,7.421-45.173-12.319-59.5Z" transform="translate(-340.738 -1465.449)"/><path class="e" d="M1622.473,1484.31c.223,6.306,1.307,12.53,5,17.156,4.07,5.16,10.64,7.208,16.877,7.372a18.73,18.73,0,0,0,10.044-2.212c5.751-3.439,8.44-10.851,9.895-17.853a59.009,59.009,0,0,0,1.084-8.066,30.047,30.047,0,0,0-.9-9.132,26.283,26.283,0,0,0-11.5-14.987c-5.3-3.317-11.39-4.832-17.476-5.527-2.949-.369-6.123-.451-8.775,1.064a7.464,7.464,0,0,0-3.547,4.914,5.74,5.74,0,0,0-.075,2.251c-.186,5.733-.373,11.424-.561,17.157C1622.473,1479.028,1622.4,1481.648,1622.473,1484.31Z" transform="translate(-314.744 -1491.575)"/><path class="b" d="M1646.167,1467.564c.037,0,.073.04.112.08a2.6,2.6,0,0,0,.037-.531A.656.656,0,0,1,1646.167,1467.564Z" transform="translate(-295.073 -1479.496)"/><path class="b" d="M1647.074,1467.57c-.15-.083-.263-.165-.413-.247-.373-.2-.9-.367-1.157,0-.186.247.112.533.336.575l-.9.941A1.849,1.849,0,0,0,1647.074,1467.57Z" transform="translate(-296.07 -1479.502)"/><path class="f" d="M1679.6,1457.052c-8.428-15.666-33.5-13.51-48.387-11.929-11.395,1.218-19.382,11.519-7.242,17.426a11.66,11.66,0,0,0,4.475.869c-.061-.057-.129-.1-.188-.162.669.091,2.258.192,2.261.2-.078-.005-1.479-.011-2.073-.035,7.574,7.128,20.255,5.785,30.625,7.472a49.009,49.009,0,0,1,1.171,11.13,10.149,10.149,0,0,0,.472,4.169c.557,1.3,3.71,2.355,5.073,1.989l.01-.005c.106.744.219,1.491.364,2.24,1.869,9.581,10.877,10.618,11.2,1.056C1677.751,1480.159,1685.193,1467.456,1679.6,1457.052Z" transform="translate(-317.801 -1496.623)"/><path class="e" d="M1652.24,1464.984c-2.132-.543-4.242,1.206-5.17,3.2a14.628,14.628,0,0,1-1.439,2.979,2.955,2.955,0,0,1-1.542,1.013,3.158,3.158,0,0,0,2.31,3.906c1.815.439,3.7-.42,5.2-1.538a7.955,7.955,0,0,0,3.34-4.808C1655.262,1467.762,1654.178,1465.478,1652.24,1464.984Z" transform="translate(-296.439 -1481.15)"/><path d="M0,.917,18.458,0V1.3L0,2.216Z" transform="matrix(0.85, -0.526, 0.526, 0.85, 1334.714, -6.189)"/><path class="g" d="M1170.929,1820.886c.4-1.34,1.26-1.817,2.256-1.24a5.945,5.945,0,0,1,2.253,3.844l.643-.106c-.509-2.31-1.618-4.2-2.9-4.942s-2.39-.125-2.9,1.6Z" transform="translate(144.964 -1835.706)"/><path d="M1170.929,1820.886c.4-1.34,1.26-1.817,2.256-1.24a5.945,5.945,0,0,1,2.253,3.844l.643-.106c-.509-2.31-1.618-4.2-2.9-4.942s-2.39-.125-2.9,1.6Z" transform="translate(144.964 -1835.706)"/><path d="M1182.982,1837.011a6.569,6.569,0,0,1-3.245-.984,15.184,15.184,0,0,1-6.864-11.886c0-2.26.794-3.963,2.238-4.8s3.32-.673,5.275.456a15.2,15.2,0,0,1,6.862,11.888c0,2.259-.795,3.961-2.239,4.8A4.017,4.017,0,0,1,1182.982,1837.011Zm-5.84-16.891a2.708,2.708,0,0,0-1.379.35c-1.026.592-1.591,1.9-1.591,3.671a13.749,13.749,0,0,0,6.214,10.76c1.536.888,2.948,1.05,3.972.458s1.591-1.9,1.591-3.67a13.751,13.751,0,0,0-6.212-10.761A5.313,5.313,0,0,0,1177.142,1820.12Z" transform="translate(147.734 -1835.2)"/><path d="M1172.991,1831.242a6.583,6.583,0,0,1-3.245-.983,15.2,15.2,0,0,1-6.864-11.888c0-2.26.8-3.961,2.24-4.8s3.317-.673,5.273.456a15.2,15.2,0,0,1,6.864,11.888c0,2.259-.8,3.963-2.24,4.8A4,4,0,0,1,1172.991,1831.242Zm-5.838-16.891a2.714,2.714,0,0,0-1.381.35c-1.024.592-1.59,1.9-1.59,3.67a13.755,13.755,0,0,0,6.214,10.762c1.537.887,2.948,1.049,3.974.456s1.591-1.9,1.591-3.67a13.749,13.749,0,0,0-6.214-10.76A5.306,5.306,0,0,0,1167.153,1814.351Z" transform="translate(138.456 -1839.479)"/><path class="e" d="M1637.834,1536.782l3.669-10.8a1.832,1.832,0,0,1,1.782-1.242l9.208.235a.673.673,0,0,1,.326.1l14.07,8.526a.661.661,0,0,1,.2.943L1653,1554.785a.662.662,0,0,1-1.078.01l-7.567-10.473a.788.788,0,0,0-.087-.1l-5.948-5.509A1.832,1.832,0,0,1,1637.834,1536.782Z" transform="translate(-300.921 -1436.734)"/><path class="e" d="M1606.384,1529.849l11.5-15.034h6.572l9.511,15.034Z" transform="translate(-333.019 -1444.099)"/><path class="f" d="M10009.977,6456.561c.389.5.389,22.883,12.366,21.374,1.547.251,14.779,0,26.373-30.931,0,.5-4.262,0-4.262,0S10020.188,6487.662,10009.977,6456.561Z" transform="translate(-8702 -6456.748)"/><path class="h" d="M2961.255,1604.272s5.612-9.392,19.73,2.557" transform="translate(-1652.508 -1599.272)"/></g></svg>