<svg xmlns="http://www.w3.org/2000/svg" width="260" height="260" viewBox="0 0 260 260"><defs><style>.a{fill:#525252;}.b{fill:none;stroke:#fff;stroke-linecap:round;stroke-linejoin:round;stroke-width:2.5px;}</style></defs><g transform="translate(-1643 -503)"><circle class="a" cx="130" cy="130" r="130" transform="translate(1643 503)"/><g transform="translate(1716.094 554.141)"><path class="b" d="M89.095,112.606c-1.45,4.29-1.227,12.462-1.437,13.98" transform="translate(-5.603 24.67)"/><path class="b" d="M80.984,42.246a52.508,52.508,0,0,1,41.79,27.7c2.8,5.145,6.184,13.866,5.64,16.916-.514,2.868-3.048,6.056-1.342,9.211,1.664,3.07,9.015,11.335,15.075,18.088,7.315,8.151-1.11,9.09-3.6,10.049-1.741.673-4.772,3.016-1.187,7.37s-2.949,7.285-2.949,7.285c2.764,1.131,5.814,5.814.537,8.389-3.116,1.52-4.364,3.776-3.127,7.44,1.452,4.3,1.5,6.351,1.006,7.928-2.031,6.432-12.915,6.553-17.34,6.041-11.83-1.371-33.4-4.6-41.159-25.921" transform="translate(-17.479 -38)"/><path class="b" d="M61.908,161.5c8.262-42.431-7.754-52.329-13.568-79.464Q47.39,77.6,46.924,73.4" transform="translate(-41.885 -10.247)"/><path class="b" d="M115.028,66.008l-3.672-8.864a1.624,1.624,0,0,0-2.008-.925l-8.26,2.7a1.642,1.642,0,0,1-1.755-.507,25.925,25.925,0,0,0-2.592-2.6,1.649,1.649,0,0,1-.507-1.755l2.7-8.251A1.625,1.625,0,0,0,98.01,43.8l-8.866-3.672a1.625,1.625,0,0,0-2.072.766l-3.929,7.742a1.647,1.647,0,0,1-1.6.883,25.9,25.9,0,0,0-3.674.008,1.642,1.642,0,0,1-1.6-.881L72.34,40.89a1.625,1.625,0,0,0-2.072-.766L61.4,43.8a1.625,1.625,0,0,0-.923,2.008l2.7,8.26a1.642,1.642,0,0,1-.507,1.755,25.945,25.945,0,0,0-2.605,2.592,1.646,1.646,0,0,1-1.753.507l-8.253-2.7a1.626,1.626,0,0,0-2.008.925l-3.672,8.864a1.628,1.628,0,0,0,.768,2.072l7.742,3.929a1.647,1.647,0,0,1,.883,1.6,25.9,25.9,0,0,0,.008,3.674,1.641,1.641,0,0,1-.883,1.6l-7.75,3.933a1.628,1.628,0,0,0-.768,2.072l3.674,8.865a1.625,1.625,0,0,0,2.008.923l8.26-2.7a1.642,1.642,0,0,1,1.755.507,25.947,25.947,0,0,0,2.592,2.605,1.646,1.646,0,0,1,.507,1.753l-2.7,8.251a1.628,1.628,0,0,0,.923,2.01l8.865,3.672A1.626,1.626,0,0,0,72.34,110l3.929-7.742a1.646,1.646,0,0,1,1.6-.883,25.647,25.647,0,0,0,3.676-.008,1.646,1.646,0,0,1,1.6.883L87.072,110a1.626,1.626,0,0,0,2.072.768L98.01,107.1a1.628,1.628,0,0,0,.923-2.01l-2.7-8.26a1.642,1.642,0,0,1,.507-1.755,26.141,26.141,0,0,0,2.605-2.592,1.646,1.646,0,0,1,1.753-.507l8.251,2.7a1.625,1.625,0,0,0,2.008-.923l3.672-8.865a1.625,1.625,0,0,0-.766-2.072l-7.742-3.929a1.646,1.646,0,0,1-.883-1.6,25.93,25.93,0,0,0-.008-3.676,1.643,1.643,0,0,1,.883-1.6l7.75-3.933A1.625,1.625,0,0,0,115.028,66.008Z" transform="translate(-44.259 -40)"/><ellipse class="b" cx="11.819" cy="11.819" rx="11.819" ry="11.819" transform="translate(20.004 41.843) rotate(-67.5)"/></g></g></svg>