<svg xmlns="http://www.w3.org/2000/svg" width="302.275" height="288.094" viewBox="0 0 302.275 288.094"><defs><style>.a{fill:#8dc0ef;}.b{fill:#1f3598;}.c{fill:#647ddd;opacity:0.17;}.d{fill:#d5e8fa;}.e{fill:#eff6fc;}.f{fill:#bddcff;}.g{fill:#e2e8f2;}.h{fill:#75a3ec;}.i{fill:#ffc7cb;}.j{fill:#ff8358;}.k{fill:#f2f4f9;}.l{fill:#fff;}.m{fill:#484255;}.n{fill:#577de8;}.o{fill:#f2f4fa;}.p{fill:#3772ce;}.q{fill:#4568c7;}.r{fill:#a0d2ff;}</style></defs><path class="a" d="M2039.535,945.725a5.21,5.21,0,0,1-4.716,0c-1.3-.752-1.3-1.971,0-2.723a5.211,5.211,0,0,1,4.716,0C2040.837,943.754,2040.837,944.973,2039.535,945.725Z" transform="translate(-1853.112 -675.167)"/><path class="b" d="M2113.248,803.514c-5.2-6.026-11.06,2.526-13.826,6.071-1.88,2.41-8.417,8.805-7.7,12.162.251,1.177.394,1.122,1.556,1.434a7.278,7.278,0,0,0,3.569-.133c6.137-1.479,11-4.947,13.785-10.257.113,1.475.142,2.952.124,4.43a.424.424,0,0,0,.658.346q.859-.561,1.687-1.168c2.058-1.52,1.15-3.675,1.707-6.126A7.683,7.683,0,0,0,2113.248,803.514Z" transform="translate(-1856.093 -667.899)"/><path class="c" d="M1922.324,928.857c-13.239-7.643-34.7-7.643-47.937,0s-13.238,20.034,0,27.677,34.7,7.643,47.937,0S1935.56,936.5,1922.324,928.857Z" transform="translate(-1844.381 -674.172)"/><path class="c" d="M2135.973,868.485,1959.7,768.234l-109.019,65.454a1.96,1.96,0,0,0,.046,3.389l171.359,96.61a11.461,11.461,0,0,0,11.606-.111l102.319-61.4A2.138,2.138,0,0,0,2135.973,868.485Z" transform="translate(-1843.622 -666.188)"/><path class="a" d="M2040.511,878.475v61.984a.691.691,0,0,1-.05.242.547.547,0,0,1-.483.292h-5.605a.549.549,0,0,1-.483-.292.691.691,0,0,1-.05-.242V878.475a.538.538,0,0,1,.533-.534h5.605A.537.537,0,0,1,2040.511,878.475Z" transform="translate(-1853.111 -671.843)"/><path class="a" d="M2040.511,889.091a.478.478,0,0,1-.06.231,1.1,1.1,0,0,1,.06.352,1.639,1.639,0,0,1-.976,1.358,5.2,5.2,0,0,1-4.719,0,1.641,1.641,0,0,1-.976-1.358,1.059,1.059,0,0,1,.061-.352.464.464,0,0,1-.061-.231V878.475a.538.538,0,0,1,.533-.534h5.605a.537.537,0,0,1,.533.534Z" transform="translate(-1853.111 -671.843)"/><path class="a" d="M1852.35,841.9a5.209,5.209,0,0,1-4.716,0c-1.3-.752-1.3-1.971,0-2.723a5.209,5.209,0,0,1,4.716,0C1853.652,839.924,1853.652,841.143,1852.35,841.9Z" transform="translate(-1843.463 -669.816)"/><path class="a" d="M1853.326,774.645V836.63a.69.69,0,0,1-.05.241.545.545,0,0,1-.482.292h-5.606a.548.548,0,0,1-.483-.292.7.7,0,0,1-.05-.241V774.645a.537.537,0,0,1,.533-.534h5.606A.537.537,0,0,1,1853.326,774.645Z" transform="translate(-1843.463 -666.491)"/><path class="a" d="M1853.326,785.261a.476.476,0,0,1-.06.232,1.1,1.1,0,0,1,.06.352,1.64,1.64,0,0,1-.976,1.358,5.2,5.2,0,0,1-4.719,0,1.641,1.641,0,0,1-.976-1.358,1.07,1.07,0,0,1,.061-.352.466.466,0,0,1-.061-.232V774.645a.537.537,0,0,1,.533-.534h5.606a.537.537,0,0,1,.533.534Z" transform="translate(-1843.463 -666.491)"/><path class="a" d="M2153.23,879.248a5.211,5.211,0,0,1-4.716,0c-1.3-.751-1.3-1.971,0-2.723a5.218,5.218,0,0,1,4.716,0C2154.533,877.277,2154.533,878.5,2153.23,879.248Z" transform="translate(-1858.972 -671.741)"/><path class="a" d="M2154.208,812v61.985a.689.689,0,0,1-.052.242.546.546,0,0,1-.483.291h-5.6a.546.546,0,0,1-.482-.291.693.693,0,0,1-.05-.242V812a.537.537,0,0,1,.533-.533h5.6A.538.538,0,0,1,2154.208,812Z" transform="translate(-1858.972 -668.417)"/><path class="a" d="M2154.208,827.526a.471.471,0,0,1-.061.231,1.092,1.092,0,0,1,.061.352,1.642,1.642,0,0,1-.976,1.358,5.2,5.2,0,0,1-4.72,0,1.639,1.639,0,0,1-.976-1.358,1.084,1.084,0,0,1,.06-.352.468.468,0,0,1-.06-.231V816.91a.536.536,0,0,1,.533-.533h5.6a.537.537,0,0,1,.534.533Z" transform="translate(-1858.972 -668.67)"/><path class="d" d="M1843.692,761.735l-.012,13.3,19.8,7.309-1.01-7.244Z" transform="translate(-1843.31 -665.853)"/><path class="d" d="M2160.8,814.282V802.411l-21.941,14.106,1.467,3.906Z" transform="translate(-1858.525 -667.95)"/><path class="d" d="M1846.329,766.327l102.79-60.089a23.286,23.286,0,0,1,23.3-.117L2142.1,803.036a6.135,6.135,0,0,1,.024,10.64L2037.668,874a23.286,23.286,0,0,1-23.294,0l-168.019-97.066A6.134,6.134,0,0,1,1846.329,766.327Z" transform="translate(-1843.29 -662.829)"/><path class="e" d="M1846.719,754.552l102.79-60.088a23.289,23.289,0,0,1,23.3-.118l169.682,96.915a6.134,6.134,0,0,1,.025,10.639l-104.459,60.328a23.286,23.286,0,0,1-23.294,0l-168.019-97.065A6.135,6.135,0,0,1,1846.719,754.552Z" transform="translate(-1843.31 -662.222)"/><path class="a" d="M1973.34,821.39l-52.18-30.127c-2.368-1.368-2.368-3.584,0-4.951l20.512-11.843a9.475,9.475,0,0,1,8.576,0l52.18,30.127c2.368,1.368,2.368,3.584,0,4.951l-20.513,11.843A9.473,9.473,0,0,1,1973.34,821.39Z" transform="translate(-1847.212 -666.457)"/><path class="a" d="M1919.384,785.658v4.949l58.244,32.439L2004.2,807.7v-3.759Z" transform="translate(-1847.212 -667.086)"/><path class="f" d="M1973.34,817.427,1921.16,787.3c-2.368-1.367-2.368-3.583,0-4.951l20.512-11.843a9.481,9.481,0,0,1,8.576,0l52.18,30.128c2.368,1.367,2.368,3.583,0,4.951l-20.513,11.843A9.479,9.479,0,0,1,1973.34,817.427Z" transform="translate(-1847.212 -666.253)"/><path class="f" d="M1985.286,810.528l-50.558-29.19,4.442-2.565,50.558,29.19Z" transform="translate(-1848.003 -666.732)"/><path class="f" d="M1977.253,815.167l-50.557-29.19,4.442-2.565L1981.7,812.6Z" transform="translate(-1847.589 -666.971)"/><path class="g" d="M1935.79,781.37l49.551,28.609,3.436-1.984-49.551-28.609Z" transform="translate(-1848.058 -666.763)"/><path class="g" d="M1927.757,786.008l49.551,28.609,3.436-1.985-49.551-28.609Z" transform="translate(-1847.644 -667.002)"/><path class="g" d="M1943.607,776.1l49.551,28.61,3.437-1.985-49.551-28.608Z" transform="translate(-1848.461 -666.492)"/><path class="h" d="M2042.182,820.326c0,3.318-5.063,6.008-11.309,6.008s-11.31-2.69-11.31-6.008,5.064-6.007,11.31-6.007S2042.182,817.009,2042.182,820.326Z" transform="translate(-1852.375 -668.564)"/><ellipse class="f" cx="11.309" cy="6.007" rx="11.309" ry="6.007" transform="translate(167.188 142.777)"/><path class="b" d="M2037.633,907.186l1.156-.672c.175-.1.174-.267-.005-.37l-1.16-.67a.706.706,0,0,0-.639,0l-1.154.672a.2.2,0,0,0,0,.37l1.16.67a.7.7,0,0,0,.639,0Z" transform="translate(-1853.207 -673.258)"/><rect class="b" width="4.503" height="10.796" rx="1.584" transform="translate(115.84 246.792)"/><path class="i" d="M1965.677,858.406l.16,3.456,1.993,48.664c-.007.182-.023.145-.034.067a7.175,7.175,0,0,0-.46,2.566c3,2.192,5.571,3.413,9.576,3.211a34.172,34.172,0,0,1,.614-7.084c.071-.519,3.932-48.621,3.932-48.621v-.042C1975.531,860.775,1971.606,858.08,1965.677,858.406Z" transform="translate(-1849.598 -670.835)"/><path class="b" d="M1976.791,925.261c3.863,2.733,3.489,5.291,9.286,3.863a10.744,10.744,0,0,0,5.017-2.4,3.973,3.973,0,0,0,.951-4.8c-.827-1.335-2.558-1.964-4.2-2.332a25.847,25.847,0,0,0-8.319-.481,7.1,7.1,0,0,0-3.737,1.226C1973.729,922,1975.057,924.035,1976.791,925.261Z" transform="translate(-1850.066 -673.958)"/><path class="i" d="M1974.586,914.245a10.133,10.133,0,0,1,2.61,1.874c2.91,2.424,5.866,4.9,7.916,8.087-.6,1.792-2.569,3.093-4.718,3.737a32.065,32.065,0,0,1-3.674-1.3,20.025,20.025,0,0,1-8.114-6.727c-.246-.354-.481-.832-.238-1.187l3.235-3.132c3.243-3.138,8.036,1.34,11.3,3.046,1.236.645,2.639,1.541,2.686,2.934.045,1.3-1.157,2.3-2.335,2.854a11.2,11.2,0,0,1-3.683,1.022Z" transform="translate(-1849.731 -673.714)"/><path class="b" d="M1966.3,914.855a5.14,5.14,0,0,1,4.695.681c2.27,1.37,3.953,3.611,5.936,5.335,2.732,2.376,5.485,3.706,8.828,2.177,1.1.669,1.872,1.439,1.837,2.327-.049,1.293-2.366,2.952-3.389,3.655-3.211,2.21-8.375-1.337-10.987-2.665-2.058-1.047-4.24-.853-6.2-1.725C1964.387,923.463,1963.549,917.334,1966.3,914.855Z" transform="translate(-1849.543 -673.73)"/><rect class="b" width="4.503" height="10.796" rx="1.584" transform="translate(88.718 229.643)"/><path class="j" d="M1936.615,852.263l.16-1.575,1.993,42.626c-.008.182-.024.145-.034.067a7.17,7.17,0,0,0-.46,2.566c3,2.192,5.57,3.414,9.575,3.211a34.149,34.149,0,0,1,.614-7.084c.07-.519,2.926-40.57,2.926-40.57v-.042C1945.462,851.612,1942.544,851.936,1936.615,852.263Z" transform="translate(-1848.1 -670.438)"/><path class="b" d="M1947.729,907.531c3.863,2.733,3.488,5.292,9.285,3.864a10.754,10.754,0,0,0,5.017-2.4,3.972,3.972,0,0,0,.95-4.8c-.827-1.335-2.558-1.964-4.2-2.331a25.855,25.855,0,0,0-8.319-.482,7.1,7.1,0,0,0-3.737,1.226C1944.667,904.265,1946,906.306,1947.729,907.531Z" transform="translate(-1848.568 -673.044)"/><path class="j" d="M1945.524,896.515a10.163,10.163,0,0,1,2.61,1.874c2.91,2.424,5.866,4.9,7.916,8.088-.6,1.791-2.568,3.093-4.718,3.737a32.045,32.045,0,0,1-3.674-1.3,20.021,20.021,0,0,1-8.114-6.727c-.246-.354-.481-.831-.238-1.187l3.235-3.132c3.242-3.138,8.036,1.341,11.3,3.046,1.236.645,2.639,1.541,2.686,2.935.045,1.3-1.157,2.3-2.335,2.853a11.2,11.2,0,0,1-3.683,1.021Z" transform="translate(-1848.234 -672.801)"/><path class="b" d="M1937.243,897.125a5.139,5.139,0,0,1,4.695.681c2.27,1.371,3.953,3.611,5.935,5.335,2.732,2.377,5.485,3.706,8.828,2.178,1.1.668,1.871,1.438,1.837,2.326-.049,1.294-2.366,2.952-3.389,3.654-3.212,2.21-8.375-1.337-10.987-2.665-2.058-1.047-4.24-.853-6.2-1.725C1935.325,905.733,1934.487,899.6,1937.243,897.125Z" transform="translate(-1848.045 -672.816)"/><path class="a" d="M2001.339,749.255s5.716,15.611,0,18.911l-2.764,1.6-.008,0-10.836,6.259c-1.525.881-1.524,2.323,0,3.2l15.221,8.792a6.014,6.014,0,0,0,5.519-.046l7.729-4.571.077.036c.889-.552,1.719-1.072,2.466-1.54l.339-.2c.032-.02.053-.044.083-.064,1.567-.984,2.629-1.657,2.629-1.657s4.834-3.541,4.834-16.12Z" transform="translate(-1850.676 -665.21)"/><path class="k" d="M2026.635,760.754c0,12.581-4.835,16.12-4.835,16.12s-1.059.669-2.634,1.658a.4.4,0,0,0-.084.069l-.334.2q-1.128.71-2.465,1.547l-.084-.043-.892.53-6.827,4.04a6.012,6.012,0,0,1-5.53.042l-15.214-8.791c-1.533-.878-1.533-2.313,0-3.205l6.84-3.957,3.985-2.3h.014c.99-.571,1.937-1.115,2.759-1.6,5.586-3.218.278-18.14.013-18.878v-.014h.014Z" transform="translate(-1850.676 -665.051)"/><path class="e" d="M2027.069,760.754c0,12.581-4.834,16.12-4.834,16.12s-1.059.669-2.634,1.658a.374.374,0,0,0-.083.069l-.335.2q-1.128.71-2.465,1.547l-.084-.043-.892.53L1995.01,768.96l3.984-2.3h.014c.989-.571,1.937-1.115,2.759-1.6,5.586-3.218.278-18.14.013-18.878l.015-.014Z" transform="translate(-1851.11 -665.051)"/><path class="l" d="M2062.488,707.833l-80.616-46.543c-2-1.156-3.533-.676-5.283.735l-3.724,2.089,4.006,2.832v62.981a11.055,11.055,0,0,0,5,8.663l78.942,45.575v3.582a.645.645,0,0,0,1.01.53l3.786-2.61c1.144-.4,1.88-1.6,1.88-3.423V716.508A11.07,11.07,0,0,0,2062.488,707.833Z" transform="translate(-1849.969 -660.643)"/><path class="m" d="M2061.957,719.836v65.736c0,3.2-2.243,4.48-5,2.888l-80.616-46.543a11.05,11.05,0,0,1-5-8.663V667.518c0-3.2,2.243-4.492,5-2.9l80.615,46.542A11.073,11.073,0,0,1,2061.957,719.836Z" transform="translate(-1849.89 -660.813)"/><path class="n" d="M1977.728,735.984v-63.3l78.494,45.317v63.3Z" transform="translate(-1850.22 -661.264)"/><path class="a" d="M2061.957,775.943v12.707c0,3.2-2.243,4.48-5,2.888l-80.616-46.543a11.049,11.049,0,0,1-5-8.663V723.625Z" transform="translate(-1849.89 -663.889)"/><path class="a" d="M2059.159,792.752a5.121,5.121,0,0,1-2.528-.765l-80.616-46.543a11.542,11.542,0,0,1-5.293-9.169V722.56l91.786,52.991v13.043a4.064,4.064,0,0,1-1.755,3.745A3.153,3.153,0,0,1,2059.159,792.752Zm-87.27-68.171v11.7a10.428,10.428,0,0,0,4.71,8.159l80.616,46.542a2.484,2.484,0,0,0,4.127-2.383V776.226Z" transform="translate(-1849.859 -663.834)"/><path class="o" d="M2016.063,759.319c0,1.933-1.357,2.716-3.031,1.75a6.7,6.7,0,0,1-3.031-5.25c0-1.933,1.357-2.716,3.031-1.75A6.7,6.7,0,0,1,2016.063,759.319Z" transform="translate(-1851.883 -665.437)"/><path class="a" d="M2012.276,702l-21.23-12.257v15.125l21.229,12.257Z" transform="translate(-1850.906 -662.143)"/><path class="a" d="M2039.135,717.51l-21.23-12.257v15.125l21.23,12.257Z" transform="translate(-1852.291 -662.942)"/><path class="a" d="M2012.276,723.118l-21.23-12.257v15.124l21.229,12.256Z" transform="translate(-1850.906 -663.231)"/><path class="a" d="M2039.135,738.624,2017.9,726.367v15.124l21.231,12.257Z" transform="translate(-1852.29 -664.03)"/><path class="j" d="M1910.235,811.562a31.484,31.484,0,0,1-.108-3.6c.749-1.569,1.417-2.984,1.409-3.1l23.525-16.33a4.263,4.263,0,0,1,3.082-1.128,4.368,4.368,0,0,1,.614.069,4.247,4.247,0,0,1,2.36,1.311,4.292,4.292,0,0,1-.253,6.057L1917.8,814.663l-.056.047A4.638,4.638,0,0,1,1910.235,811.562Z" transform="translate(-1846.734 -667.176)"/><path class="i" d="M1943.615,797.155c-2.826,2.626-6.8,2.94-8.882.7s-1.477-6.182,1.349-8.807,6.8-2.94,8.882-.7S1946.441,794.53,1943.615,797.155Z" transform="translate(-1847.938 -667.148)"/><path class="b" d="M1971.6,854.917l-14.329-8.211c-5.545-2.777-9.912.674-15.859,2.425l.755-.755-2.8-4.367-33.106-2.335c-11.592,6.571-13.836,34.756-13.836,34.756l.01.211h0c-1.37,11.439,16.453,20.037,30.206,22.132a22.576,22.576,0,0,0,14.072-2.472l2.3-1.236,33.2-17.831C1982.218,871.581,1981.865,860.08,1971.6,854.917Z" transform="translate(-1845.819 -669.974)"/><path class="g" d="M1904.393,833.841a42.735,42.735,0,0,1-.106,5.818,2.7,2.7,0,0,0,1.229,2.522,35.656,35.656,0,0,0,5.193,2.7c5.2,2.182,11.17,3.412,16.724,2.182.222-.052.435-.105.656-.158,3.191-.817,10.131-2.7,10.757-6.655a1.949,1.949,0,0,0,.052-.487c-.01-.371-.031-.753-.052-1.134V820.889c1.727-5.14,4.9-8.806,3.317-15.335a23.214,23.214,0,0,0-3.7-8.308c-2.925-4.027-7.143-6.518-12.526-8.087-1.706-.487-3.392-.891-4.918-1.208a30.31,30.31,0,0,0-9.877-.371c-3.465.446-6.782,1.622-8.849,3.932a8.029,8.029,0,0,0-.742.932c-4.112,6.168-1.928,14.8-.434,21.492C1902.591,820.519,1904.139,827.132,1904.393,833.841Z" transform="translate(-1846.171 -667.173)"/><path class="p" d="M1928.544,777.393c-.021,0-.041.023-.062.045a1.387,1.387,0,0,1-.021-.294A.361.361,0,0,0,1928.544,777.393Z" transform="translate(-1847.679 -666.648)"/><path class="i" d="M1912.585,793.32h5.049a8.674,8.674,0,0,0,8.554-7.24l.314-1.879,1.146-6.875h-12.389Z" transform="translate(-1846.861 -666.657)"/><path class="j" d="M1918.75,779.868l6.15,9.343h.392l1.528-9.118Z" transform="translate(-1847.179 -666.788)"/><path class="j" d="M1927.535,774.316a1.041,1.041,0,0,1-.79.065c-.028-.068-.013-.142-.052-.207Z" transform="translate(-1847.588 -666.495)"/><path class="j" d="M1931.545,782.827c.144.01.288.039.432.058l-1.135-1.087C1931.083,782.135,1931.313,782.481,1931.545,782.827Z" transform="translate(-1847.803 -666.887)"/><path class="j" d="M1911.981,791.418c1.94,2.841,8.413,1.822,14.593-2.253-1.714-.5-3.4-.9-4.926-1.214a30.6,30.6,0,0,0-9.872-.373A4.268,4.268,0,0,0,1911.981,791.418Z" transform="translate(-1846.802 -667.173)"/><path class="p" d="M1928.171,771.668c-.021,0-.039.026-.057.05a1.434,1.434,0,0,1-.05-.29A.362.362,0,0,0,1928.171,771.668Z" transform="translate(-1847.658 -666.353)"/><path class="i" d="M1935.624,765.738c.24,3.651-.02,7.3-1.88,10.189-2.045,3.214-5.714,4.78-9.3,5.239a10.853,10.853,0,0,1-5.92-.689c-3.516-1.647-5.5-5.766-6.749-9.719a34.228,34.228,0,0,1-1.1-4.591,17.4,17.4,0,0,1-.017-5.319,15.224,15.224,0,0,1,5.753-9.318,24.014,24.014,0,0,1,9.751-4.211,8.127,8.127,0,0,1,5.121.1,4.334,4.334,0,0,1,2.333,2.627,3.319,3.319,0,0,1,.174,1.295c.443,3.3.883,6.568,1.327,9.864C1935.315,762.692,1935.511,764.2,1935.624,765.738Z" transform="translate(-1846.751 -665.092)"/><path d="M1907,761.193a22.952,22.952,0,0,0,2.228,7.909,20.5,20.5,0,0,0,7.009,8.438c2.478,1.552,7.34,2.757,9.431-.02,2.051-2.723.309-7.043,2.337-9.783a9.391,9.391,0,0,1,2.24-1.927,17.687,17.687,0,0,0,4.748-4.594c3.06-4.7,1.621-13.408-3.587-16.167a17.575,17.575,0,0,0-13.762-.677,15.727,15.727,0,0,0-3.969,2.232c-.066.059-.135.107-.22.177A17.125,17.125,0,0,0,1907,761.193Z" transform="translate(-1846.571 -664.903)"/><path class="j" d="M1926.858,768.708a1.036,1.036,0,0,1-.781.144c-.033-.064-.027-.14-.072-.2Z" transform="translate(-1847.553 -666.21)"/><path class="j" d="M1923.321,770.013a5.928,5.928,0,0,0,1.533,3.282,6.366,6.366,0,0,0,1.691,1.584,2.725,2.725,0,0,0,2.235.306c2.284-.808,1.715-4.229.818-5.845a4.149,4.149,0,0,0-3.385-2.212A2.77,2.77,0,0,0,1923.321,770.013Z" transform="translate(-1847.414 -666.131)"/><path class="l" d="M1929.751,806.5c1.588-2.834,2.948-4.885,6.366-4.333a44.329,44.329,0,0,1,6.975,2.054c.219.674.428,1.366.607,2.1,1.579,6.528-1.59,10.195-3.317,15.335V839.39c.021.381.042.763.052,1.134a1.96,1.96,0,0,1-.052.487c-.626,3.953-7.567,5.839-10.757,6.655-.222.053-.435.106-.656.158V807.551A5.142,5.142,0,0,0,1929.751,806.5Z" transform="translate(-1847.706 -667.933)"/><path class="b" d="M1921.925,746.8l-.527.053Z" transform="translate(-1847.315 -665.084)"/><path class="i" d="M1944.278,838.7a31.209,31.209,0,0,1-.108-3.6c.749-1.569,1.417-2.984,1.409-3.1l23.525-16.33a4.264,4.264,0,0,1,3.083-1.128,4.358,4.358,0,0,1,.612.069,4.287,4.287,0,0,1,2.108,7.368l-23.061,19.828-.056.047A4.638,4.638,0,0,1,1944.278,838.7Z" transform="translate(-1848.488 -668.575)"/><path class="i" d="M1977.658,824.3c-2.826,2.626-6.8,2.94-8.884.7s-1.476-6.182,1.35-8.807,6.8-2.94,8.883-.7S1980.483,821.673,1977.658,824.3Z" transform="translate(-1849.693 -668.547)"/><path class="i" d="M1971.436,817.356h0a1.846,1.846,0,0,1,.1-2.607l8.115-7.54a1.844,1.844,0,0,1,2.606.1h0a1.844,1.844,0,0,1-.1,2.606l-8.114,7.54A1.846,1.846,0,0,1,1971.436,817.356Z" transform="translate(-1849.869 -668.172)"/><path class="f" d="M1946.931,842.08l-.086.032a6.085,6.085,0,0,1-7.843-4.371l-7.605-30.43a6.358,6.358,0,0,1,12.336-3.084l3,12,2.957,11.817h0C1951,833.7,1953.69,839.562,1946.931,842.08Z" transform="translate(-1847.821 -667.795)"/><path d="M1930.525,762.963c-.068-.575-.122-1.151-.157-1.731-.31-4.935.61-10.173-3.69-13.859-2.991-2.564-7.315-2.709-11.248-2.479-4.3.249-8.742.846-12.394,3.128-6.859,4.284-6.826,15.1-4.783,22.058a55,55,0,0,1,1.837,8.573c-.05,4.456-2.626,6.716-7.705,7.57a11.288,11.288,0,0,0-8.574,6.677,15.8,15.8,0,0,0-1.333,5.706c-.3,6.137-.885,7.841-8.02,10.021a15.958,15.958,0,0,0-9.984,8.924c-5.012,10.957.15,26.793,11.53,35.371s24.666,6.649,29.678-4.309a24.678,24.678,0,0,0,1.212-15.536c-1.994-9.038-1.131-10.543,2.867-13.849a.3.3,0,0,0,.033-.031,11.859,11.859,0,0,0,3.234-4.272,18.226,18.226,0,0,0,.37-12.861c-1.9-6.114-1.616-10.1,1.39-12.331a28.887,28.887,0,0,1,6.723-2.121,12.29,12.29,0,0,0,9.052-7.219C1933.233,774.556,1931.215,768.864,1930.525,762.963Z" transform="translate(-1844.283 -664.981)"/><path class="q" d="M1873.809,956.622a7.715,7.715,0,0,1,3.49-6.045c1.928-1.114,3.49-.212,3.491,2.015a7.714,7.714,0,0,1-3.491,6.045C1875.372,959.75,1873.809,958.848,1873.809,956.622Z" transform="translate(-1844.863 -675.562)"/><path class="q" d="M1873.809,956.622a7.715,7.715,0,0,1,3.49-6.045c1.928-1.114,3.49-.212,3.491,2.015a7.714,7.714,0,0,1-3.491,6.045C1875.372,959.75,1873.809,958.848,1873.809,956.622Z" transform="translate(-1844.863 -675.562)"/><path class="q" d="M1879.907,950.414l3.008,1.568-4.722,8.606-3.522-1.832.893-4.847Z" transform="translate(-1844.907 -675.579)"/><path class="a" d="M1876.937,958.244a7.715,7.715,0,0,1,3.49-6.045c1.927-1.112,3.49-.211,3.49,2.016a7.717,7.717,0,0,1-3.49,6.045C1878.5,961.372,1876.937,960.471,1876.937,958.244Z" transform="translate(-1845.024 -675.646)"/><path class="g" d="M1876.937,958.244a7.715,7.715,0,0,1,3.49-6.045c1.927-1.112,3.49-.211,3.49,2.016a7.717,7.717,0,0,1-3.49,6.045C1878.5,961.372,1876.937,960.471,1876.937,958.244Z" transform="translate(-1845.024 -675.646)"/><path class="q" d="M1918.062,931.888a7.718,7.718,0,0,1,3.49-6.045c1.927-1.113,3.49-.211,3.49,2.016a7.712,7.712,0,0,1-3.49,6.045C1919.625,935.016,1918.062,934.114,1918.062,931.888Z" transform="translate(-1847.144 -674.288)"/><path class="q" d="M1918.062,931.888a7.718,7.718,0,0,1,3.49-6.045c1.927-1.113,3.49-.211,3.49,2.016a7.712,7.712,0,0,1-3.49,6.045C1919.625,935.016,1918.062,934.114,1918.062,931.888Z" transform="translate(-1847.144 -674.288)"/><path class="q" d="M1924.16,925.68l3.008,1.568-4.722,8.606-3.522-1.832.893-4.847Z" transform="translate(-1847.188 -674.304)"/><path class="a" d="M1921.19,933.51a7.713,7.713,0,0,1,3.49-6.045c1.927-1.114,3.49-.211,3.49,2.016a7.718,7.718,0,0,1-3.49,6.045C1922.752,936.639,1921.19,935.737,1921.19,933.51Z" transform="translate(-1847.305 -674.371)"/><path class="g" d="M1921.19,933.51a7.713,7.713,0,0,1,3.49-6.045c1.927-1.114,3.49-.211,3.49,2.016a7.718,7.718,0,0,1-3.49,6.045C1922.752,936.639,1921.19,935.737,1921.19,933.51Z" transform="translate(-1847.305 -674.371)"/><path class="q" d="M1915.986,957.714a7.713,7.713,0,0,1,3.49-6.045c1.927-1.114,3.49-.212,3.49,2.015a7.715,7.715,0,0,1-3.49,6.046C1917.548,960.842,1915.986,959.939,1915.986,957.714Z" transform="translate(-1847.036 -675.619)"/><path class="q" d="M1915.986,957.714a7.713,7.713,0,0,1,3.49-6.045c1.927-1.114,3.49-.212,3.49,2.015a7.715,7.715,0,0,1-3.49,6.046C1917.548,960.842,1915.986,959.939,1915.986,957.714Z" transform="translate(-1847.036 -675.619)"/><path class="q" d="M1922.083,951.506l3.008,1.568-4.721,8.606-3.522-1.832.892-4.847Z" transform="translate(-1847.081 -675.635)"/><path class="a" d="M1919.113,959.337a7.715,7.715,0,0,1,3.49-6.045c1.928-1.113,3.49-.211,3.49,2.015a7.714,7.714,0,0,1-3.49,6.046C1920.676,962.465,1919.113,961.563,1919.113,959.337Z" transform="translate(-1847.198 -675.702)"/><path class="g" d="M1919.113,959.337a7.715,7.715,0,0,1,3.49-6.045c1.928-1.113,3.49-.211,3.49,2.015a7.714,7.714,0,0,1-3.49,6.046C1920.676,962.465,1919.113,961.563,1919.113,959.337Z" transform="translate(-1847.198 -675.702)"/><path class="q" d="M1873.025,932.806a7.717,7.717,0,0,1,3.49-6.046c1.927-1.113,3.49-.211,3.49,2.016a7.712,7.712,0,0,1-3.49,6.045C1874.588,935.934,1873.025,935.032,1873.025,932.806Z" transform="translate(-1844.822 -674.335)"/><path class="q" d="M1873.025,932.806a7.717,7.717,0,0,1,3.49-6.046c1.927-1.113,3.49-.211,3.49,2.016a7.712,7.712,0,0,1-3.49,6.045C1874.588,935.934,1873.025,935.032,1873.025,932.806Z" transform="translate(-1844.822 -674.335)"/><path class="q" d="M1879.122,926.6l3.008,1.568-4.722,8.606-3.522-1.832.893-4.847Z" transform="translate(-1844.866 -674.351)"/><path class="a" d="M1876.153,934.429a7.713,7.713,0,0,1,3.49-6.045c1.927-1.113,3.49-.211,3.49,2.015a7.714,7.714,0,0,1-3.49,6.045C1877.715,937.557,1876.153,936.655,1876.153,934.429Z" transform="translate(-1844.983 -674.419)"/><path class="g" d="M1876.153,934.429a7.713,7.713,0,0,1,3.49-6.045c1.927-1.113,3.49-.211,3.49,2.015a7.714,7.714,0,0,1-3.49,6.045C1877.715,937.557,1876.153,936.655,1876.153,934.429Z" transform="translate(-1844.983 -674.419)"/><path class="e" d="M1923.417,946.574l-15.445-8.917,15.445-8.917c2.535-1.464,2.535-3.858,0-5.323h0a10.228,10.228,0,0,0-9.219,0l-15.445,8.917-15.445-8.917a10.228,10.228,0,0,0-9.219,0c-2.535,1.464-2.535,3.859,0,5.323l15.445,8.917-15.445,8.917c-2.535,1.463-2.535,3.859,0,5.323h0a10.228,10.228,0,0,0,9.219,0l15.445-8.917L1914.2,951.9a10.228,10.228,0,0,0,9.219,0C1925.952,950.433,1925.952,948.037,1923.417,946.574Z" transform="translate(-1844.779 -674.131)"/><path class="e" d="M1923.417,946.574l-15.445-8.917,15.445-8.917c2.535-1.464,2.535-3.858,0-5.323h0a10.228,10.228,0,0,0-9.219,0l-15.445,8.917-15.445-8.917a10.228,10.228,0,0,0-9.219,0c-2.535,1.464-2.535,3.859,0,5.323l15.445,8.917-15.445,8.917c-2.535,1.463-2.535,3.859,0,5.323h0a10.228,10.228,0,0,0,9.219,0l15.445-8.917L1914.2,951.9a10.228,10.228,0,0,0,9.219,0C1925.952,950.433,1925.952,948.037,1923.417,946.574Z" transform="translate(-1844.779 -674.131)"/><path class="a" d="M1892,937.8c0,2.885,3.481,5.224,7.778,5.224s7.778-2.339,7.778-5.224-3.483-7.666-7.778-7.666S1892,934.91,1892,937.8Z" transform="translate(-1845.8 -674.533)"/><path class="e" d="M1894.18,933.962c0,2.117,2.555,3.834,5.707,3.834s5.706-1.717,5.706-3.834-2.554-3.833-5.706-3.833S1894.18,931.846,1894.18,933.962Z" transform="translate(-1845.912 -674.533)"/><path class="a" d="M1900.008,890.8a3.514,3.514,0,0,0-3.491,3.539V928.4a3.491,3.491,0,1,0,6.981,0V894.338A3.514,3.514,0,0,0,1900.008,890.8Z" transform="translate(-1846.033 -672.506)"/><path class="r" d="M1966.818,887.525c0,.191,0,.393-.02.594a17.362,17.362,0,0,1-8.955,13.906L1919.766,922.9a10.113,10.113,0,0,1-1.8.775,10.394,10.394,0,0,1-8.5-.926l-43.611-25.7a23.8,23.8,0,0,1-11.613-18.294l-4.567-48.883-.473-5.082a5.428,5.428,0,0,1,7.809-5.373l47.2,23.355a5.429,5.429,0,0,1,2.747,3.159l15.094,45.8a6.3,6.3,0,0,0,9.107,3.5l24.632-14.087A7.371,7.371,0,0,1,1966.818,887.525Z" transform="translate(-1843.593 -668.797)"/><path class="q" d="M1916.605,920.709a3.026,3.026,0,0,1-3.264,4.063,10.372,10.372,0,0,1-3.833-1.338l-43.611-25.7a23.8,23.8,0,0,1-11.613-18.294l-4.206-45.008a2.173,2.173,0,0,1,3.127-2.15l38.089,18.833a5.45,5.45,0,0,1,2.747,3.17l15.084,45.8C1909.645,901.685,1912.834,910.815,1916.605,920.709Z" transform="translate(-1843.639 -669.478)"/></svg>