<svg xmlns="http://www.w3.org/2000/svg" width="47.069" height="149.811" viewBox="0 0 47.069 149.811"><defs><style>.a{fill:#e2e5f3;}.b{fill:#f5f5fa;}.c{fill:#3d2768;}.d{fill:#5dc5c7;}.e{fill:#2d1d50;}.f{fill:#bdc0df;}</style></defs><ellipse class="a" cx="18.684" cy="11.871" rx="18.684" ry="11.871" transform="translate(9.702 126.069)"/><path class="a" d="M3794.734,802.441l.041.712A5.8,5.8,0,0,1,3794.734,802.441Z" transform="translate(-3792.31 -711.508)"/><path class="a" d="M3842.687,802.441a6.165,6.165,0,0,1-.066.918Z" transform="translate(-3806.42 -711.508)"/><path class="a" d="M3828.575,798.066l-.066.918c-.749,5.354-8.011,9.554-16.857,9.554-8.958,0-16.29-4.307-16.877-9.761l-.041-.712c0-5.784,7.576-10.472,16.918-10.472S3828.575,792.281,3828.575,798.066Z" transform="translate(-3792.31 -707.133)"/><path class="b" d="M3828.526,803.654l-2.783,39.138c0,4.121-6.441,7.457-14.384,7.457-6.745,0-12.4-2.406-13.955-5.648a4.09,4.09,0,0,1-.429-1.81l-2.18-39.342c.589,5.451,7.915,9.762,16.877,9.762C3820.517,813.212,3827.777,809.011,3828.526,803.654Z" transform="translate(-3792.327 -711.806)"/><path class="c" d="M3827.423,797.884l-.062.815c-.443,3.17-3.459,5.88-7.754,7.328a21.562,21.562,0,0,1-4.758,1.005c-.43.046-.869.075-1.317.1-.355.016-.719.025-1.083.025-.6,0-1.183-.02-1.759-.066a21.192,21.192,0,0,1-2.292-.281,19.607,19.607,0,0,1-3.239-.827c-4.3-1.485-7.295-4.25-7.643-7.46l-.037-.633c0-2.243,1.291-4.3,3.435-5.9a15.982,15.982,0,0,1,4.8-2.371c.484-.153.981-.286,1.494-.406a23.347,23.347,0,0,1,5.238-.583c.422,0,.844.012,1.258.037.579.025,1.146.074,1.7.145a19.125,19.125,0,0,1,7.593,2.512C3825.731,792.99,3827.423,795.315,3827.423,797.884Z" transform="translate(-3793.118 -707.435)"/><path class="d" d="M3816.9,727.446c-.025-2.2-1.937-6.48-.827-11.478,2.826-12.736-4.8-41.686-5.921-42.435-.716-.476-3.468,8.941-5.818,20.7a3.221,3.221,0,0,1,1.018.273,3.373,3.373,0,0,1,0,6.161,3.307,3.307,0,0,1-1.377.294,3.247,3.247,0,0,1-.534-.042,2.4,2.4,0,0,1-.344-.075c-.864,5.019-1.592,10.2-2.018,15.028a66.037,66.037,0,0,0,.012,14.812,251.817,251.817,0,0,0,5.569,25c.7,2.611,1.386,5.073,2.011,7.27,1.692,5.946,2.962,10,2.962,10v.207c.5.042,1.011.062,1.523.062.078,0,.157,0,.235,0,.364,0,.729-.008,1.084-.025.448-.02.886-.049,1.316-.1.065-1.986.314-9.628.559-18.23C3816.649,744.261,3816.951,732.175,3816.9,727.446Zm-6.748-15.371a2.178,2.178,0,0,1,1.17.339,2.137,2.137,0,0,1,.488.413v0a2.192,2.192,0,0,1-.365,3.228v0s-.008,0-.011.008a2.183,2.183,0,0,1-1.283.413,2.205,2.205,0,1,1,0-4.41Zm-1.506,27v0a2.2,2.2,0,1,1,.364-3.235v0a2.194,2.194,0,0,1-.364,3.227Zm5.085,9.6a3.275,3.275,0,0,1-1.307.294h-.071a3.278,3.278,0,0,1-.534-.042,3.376,3.376,0,0,1,.2-6.691,1.751,1.751,0,0,1,.2-.012c.046,0,.087,0,.132,0a3.326,3.326,0,0,1,1.378.293,3.37,3.37,0,0,1,0,6.161Z" transform="translate(-3794.058 -673.516)"/><path class="d" d="M3836.137,724a3.3,3.3,0,0,1,1.328.273,64.2,64.2,0,0,0,1.055-8.937c-.046-9.371-3.9-25.256-5.13-26.46-.062-.062-.116-.087-.163-.075l0,0c-.969.319-9.4,19.67-11.387,31.669-.125.758-.223,1.485-.294,2.177-.008.074-.016.149-.02.223-.013.121-.025.241-.037.368-.092,1.03-.179,2.3-.257,3.77-.013.277-.03.559-.042.848q-.031.491-.051,1.006c-.016.315-.028.633-.044.96-.028.7-.058,1.432-.086,2.189q-.02.515-.038,1.043c0,.157-.013.318-.017.484a2.876,2.876,0,0,1,.335-.017,3.316,3.316,0,0,1,1.378.294,3.373,3.373,0,0,1,0,6.161,3.315,3.315,0,0,1-1.378.293,3.227,3.227,0,0,1-.534-.041c-.046,1.883-.087,3.836-.124,5.822-.009.4-.017.794-.024,1.2-.062,3.174-.116,6.418-.158,9.608,0,.4-.013.8-.016,1.2s-.012.794-.017,1.192c-.091,7.062-.144,13.691-.175,18.47.448-.02.887-.049,1.317-.1.376-.037.745-.082,1.109-.14.228-.033.451-.071.674-.112a19.712,19.712,0,0,0,2.976-.753c.53-2.243,1.829-7.792,3.393-14.713,2.143-9.463,4.774-21.491,6.6-31.156-.057,0-.111,0-.168,0a3.374,3.374,0,1,1,0-6.748Zm-7.928,26.849a2.2,2.2,0,0,1,0-4.407,2.2,2.2,0,1,1,0,4.407Zm2.466-39.225v0a2.2,2.2,0,1,1,.365-3.236v0a2.195,2.195,0,0,1-.365,3.227Z" transform="translate(-3799.825 -678.018)"/><path class="d" d="M3805.906,778.539q-.081-1.161-.161-2.392a1.981,1.981,0,0,1-.567.079,2.17,2.17,0,0,1-1.8-.944,2.133,2.133,0,0,1-.4-1.258,2.214,2.214,0,0,1,2.2-2.206,1.566,1.566,0,0,1,.278.021c-.021-.322-.046-.65-.066-.976-.724-10.762-1.532-22.769-1.792-26.626-.273-4.051-2.755-9.09-5.283-12.781-2.164-3.153-4.361-5.321-5.259-5.048-.806.244-1.353,3.91-1.6,8.411a3.223,3.223,0,0,1,.628-.124,3.109,3.109,0,0,1,.335-.016,3.444,3.444,0,0,1,.36.02,1.356,1.356,0,0,1,.174.025,3.212,3.212,0,0,1,.844.248,3.3,3.3,0,0,1,1.158.857,3.373,3.373,0,0,1-1.158,5.3,3.1,3.1,0,0,1-.592.2,3.5,3.5,0,0,1-.786.091,3.261,3.261,0,0,1-.534-.042,2.5,2.5,0,0,1-.343-.074,2.529,2.529,0,0,1-.244-.079c.016,4.531.319,8.759.931,10.444.5,1.369,1.866,5.71,3.488,10.956a3.17,3.17,0,0,1,1.328-.43,1.581,1.581,0,0,1,.2-.013c.045,0,.087,0,.132,0a3.5,3.5,0,0,1,.935.128,3.194,3.194,0,0,1,.443.166,3.374,3.374,0,0,1,1.142,5.333,3.492,3.492,0,0,1-1.142.828,3.2,3.2,0,0,1-1.109.281c.484,1.576.972,3.165,1.444,4.716,1.9,6.248,3.612,11.9,4.245,14a17.974,17.974,0,0,0,1.8.53c.132.033.264.066.4.091.338.079.691.149,1.042.207C3806.443,786.479,3806.2,782.879,3805.906,778.539Zm-6.09-32.042a2.175,2.175,0,0,1,1.171.339,2.115,2.115,0,0,1,.488.414v0a2.194,2.194,0,0,1-.364,3.227v0s-.008,0-.013.009a2.176,2.176,0,0,1-1.283.414,2.206,2.206,0,0,1,0-4.411Z" transform="translate(-3791.296 -689.096)"/><path class="c" d="M3792.147,734.707a3.2,3.2,0,0,0-.628.124c.248-4.5.794-8.168,1.6-8.412,0,0-.173,3.575-.1,8.316a1.319,1.319,0,0,0-.174-.025,3.4,3.4,0,0,0-.36-.021A3.056,3.056,0,0,0,3792.147,734.707Z" transform="translate(-3791.362 -689.105)"/><path class="c" d="M3798.313,768.519a3.5,3.5,0,0,0-.935-.128c-.045,0-.086,0-.132,0a1.559,1.559,0,0,0-.2.013,3.169,3.169,0,0,0-1.328.43c-1.622-5.247-2.991-9.587-3.488-10.956-.613-1.684-.915-5.913-.931-10.444a3,3,0,0,0,.587.153,3.248,3.248,0,0,0,.534.042,3.489,3.489,0,0,0,.786-.091c.327,5.006,1.03,10.125,2.453,13.311A71.842,71.842,0,0,1,3798.313,768.519Z" transform="translate(-3791.296 -695.299)"/><path class="c" d="M3807.786,805.476a17.955,17.955,0,0,1-1.8-.53c-.634-2.1-2.342-7.749-4.246-14-.472-1.552-.959-3.14-1.444-4.716a3.2,3.2,0,0,0,1.109-.281,3.489,3.489,0,0,0,1.141-.828C3804.521,792.212,3806.516,800.238,3807.786,805.476Z" transform="translate(-3793.95 -706.405)"/><path class="e" d="M3820.308,754.889c-.244,8.6-.492,16.244-.559,18.23-.43.046-.868.075-1.316.1-.354.016-.719.025-1.084.025-.079,0-.157,0-.235,0l-.731-24.259a3.273,3.273,0,0,0,1.306-.294,3.37,3.37,0,0,0,0-6.161,3.328,3.328,0,0,0-1.377-.293c-.045,0-.087,0-.133,0l-.786-26.154s.008,0,.012-.008v0a2.192,2.192,0,0,0,.364-3.228v0a2.1,2.1,0,0,0-.488-.413l-1.171-38.881c1.125.749,8.748,29.7,5.921,42.435-1.109,5,.8,9.28.827,11.477C3820.912,732.182,3820.61,744.268,3820.308,754.889Z" transform="translate(-3798.019 -673.523)"/><path class="c" d="M3822.665,761.359c0,12.26,0,30.118,0,37.5-.364.058-.732.1-1.109.14-.43.046-.869.075-1.317.1.031-4.779.084-11.408.175-18.47,0-.4.012-.791.017-1.192s.013-.8.016-1.2c.042-3.19.1-6.434.158-9.608.007-.4.016-.8.024-1.2.037-1.986.078-3.939.124-5.822a3.221,3.221,0,0,0,.534.041A3.315,3.315,0,0,0,3822.665,761.359Z" transform="translate(-3799.825 -699.402)"/><path class="c" d="M3833.521,688.8l0,.016c-.319.919-10.551,30.44-10.556,43.13v1.866a3.313,3.313,0,0,0-1.377-.294,2.906,2.906,0,0,0-.336.017c0-.166.013-.327.017-.484q.018-.528.037-1.043c.029-.757.058-1.49.086-2.189.016-.327.029-.646.045-.96q.02-.515.05-1.006c.012-.289.03-.57.042-.848.078-1.469.166-2.74.256-3.77.013-.128.024-.248.038-.368,0-.074.013-.149.02-.223.07-.691.17-1.419.294-2.177C3824.117,708.475,3832.553,689.123,3833.521,688.8Z" transform="translate(-3800.123 -678.021)"/><path class="b" d="M3834.056,727.375a3.373,3.373,0,0,0,3.376,3.372c.058,0,.112,0,.169,0-1.825,9.666-4.456,21.693-6.6,31.156-1.564,6.922-2.864,12.471-3.394,14.714a19.7,19.7,0,0,1-2.975.753L3827.7,749.9a2.2,2.2,0,0,0,4.009-1.258,2.207,2.207,0,0,0-2.206-2.205,2.174,2.174,0,0,0-1.48.579l3.946-35.393v0a2.194,2.194,0,0,0,.365-3.228v0l2.18-19.571,0-.016.167.07c1.232,1.2,5.084,17.088,5.129,26.46a64.1,64.1,0,0,1-1.055,8.937,3.306,3.306,0,0,0-1.328-.273A3.374,3.374,0,0,0,3834.056,727.375Z" transform="translate(-3801.121 -678.021)"/><path class="b" d="M3806.641,778.539q-.08-1.161-.161-2.392a1.984,1.984,0,0,1-.567.079,2.171,2.171,0,0,1-1.8-.944,2.135,2.135,0,0,1-.4-1.258,2.213,2.213,0,0,1,2.2-2.206,1.564,1.564,0,0,1,.278.021c-.021-.322-.045-.65-.066-.976-.725-10.762-1.531-22.769-1.792-26.626-.272-4.051-2.755-9.09-5.284-12.781-2.164-3.153-4.361-5.321-5.259-5.048l1.9,9.422a3.336,3.336,0,0,1,.84,2.226,3.272,3.272,0,0,1-.175,1.059l9.915,49.143c.339.079.691.149,1.042.207C3807.178,786.479,3806.934,782.879,3806.641,778.539Zm-4.8-28.057v0s-.008,0-.013.009a2.17,2.17,0,0,1-1.282.414,2.206,2.206,0,1,1,0-4.411,2.18,2.18,0,0,1,1.171.339,2.136,2.136,0,0,1,.488.414v0a2.194,2.194,0,0,1-.365,3.227Z" transform="translate(-3792.031 -689.096)"/><path class="f" d="M3829.613,803.739l-2.783,39.139c0,4.121-6.44,7.457-14.384,7.457-6.744,0-12.4-2.406-13.955-5.647l-.007-.022c18.9-17.291,14.275-31.369,14.275-31.369C3821.6,813.3,3828.865,809.1,3829.613,803.739Z" transform="translate(-3793.415 -711.891)"/></svg>