<svg xmlns="http://www.w3.org/2000/svg" width="180.35" height="493.533" viewBox="0 0 180.35 493.533"><defs><style>.a{fill:#1f3598;}.b{fill:#ff8358;}.c{fill:#75a3ec;}.d{fill:#ffc7cb;}.e{fill:#3772ce;}.f{fill:#8dc0ef;}.g{fill:#e2e8f2;}.h{fill:#842229;}.i{fill:#636363;}.j{fill:#fab300;}</style></defs><g transform="translate(0 0)"><path class="a" d="M896.135,887.219c1.49,2.6,3.021,5.172,4.477,7.763a77.426,77.426,0,0,1,4.167,8.162c1.763,4.243,5.119,12.511,2.671,16.85-3.686,6.532-11.491,2.256-15.581-1.553A176.112,176.112,0,0,1,874.6,899.8c-2.319-2.889-4.643-6.013-5.713-9.874-3.282-11.835.122-29.584,12.047-26.955,4.354.959,6.59,4.536,8.172,9.335A81.368,81.368,0,0,0,896.135,887.219Z" transform="translate(-752.273 -429.845)"/><path class="a" d="M940.732,872.712c.506,2.434,1.062,4.857,1.54,7.27a52.673,52.673,0,0,1,1.112,7.434c.2,3.71.508,10.908-3.294,13.063-5.726,3.244-11.605-2.82-14.146-7.117a146.937,146.937,0,0,1-9.846-19.968c-1.188-2.958-2.3-6.084-1.978-9.255.988-9.716,10.32-21.078,20.648-14.6,3.772,2.366,4.645,5.782,4.478,9.819A54.851,54.851,0,0,0,940.732,872.712Z" transform="translate(-876.031 -443.575)"/><path class="b" d="M940.044,803.273l-39.106,86.814c-1.664,5.461.919,11.087,5.772,12.564l6.041,1.842c4.567,1.391,7.5-2.02,9.439-7.025l28.373-59.039Z" transform="translate(-857.061 -483.972)"/><path class="b" d="M911.442,919.88c-1.572-3.712-12.669-26.535-13.34-29.988-18.789-72.187-10.808-41.568-13.549-43.525-3.489-4.2-4.8,16.5-14.52,13.756l8.2,33.52c1.989,7.958,15.511,28.282,19.441,30.83l6.588,4.276c1.89,1.227,4.159,2.5,6.2,1.626,1.729-.739,2.614-2.862,2.572-4.836A15.687,15.687,0,0,0,911.442,919.88Z" transform="translate(-761.446 -449.11)"/><path class="b" d="M935.268,863.929l-.191,12.855a15.641,15.641,0,0,1-.829,5.82c-.756,1.823-2.425,3.409-4.3,3.388-2.216-.025-3.779-2.1-5.016-3.989l-4.3-6.571c-2.568-3.919-5.237-8.191-5.082-13.008.18-5.631,4.131-10.361,7.855-14.546,1.815-2.039,3.987-4.245,6.609-4.169a6.357,6.357,0,0,1,4.431,2.474,12.522,12.522,0,0,1,2.929,8.552c-.151,4.068-2.2,7.923-2.337,11.991Z" transform="translate(-872.736 -447.151)"/><path class="a" d="M555.972,1843.222c-8.319-18.516-26-26.632-46.675-25.429-23.255,1.353-41.99,23.125-42.875,47.426a71.493,71.493,0,0,0,1.452,15.232c1.2,6.647,13.929,72.467,11.332,72.968,1.9,12.04,2.662,23.122-7.041,35.731-8.514,13.6-24.749,43.121-3.183,56.933a6.114,6.114,0,0,0,3.183,1.179,6.8,6.8,0,0,0,3.666-1.479c15.914-10.706,13.1-26.708,25.907-40.583,6.8-7.369,8.312-27.8,11.751-40.029,3.225-10.23,1.966-16.614,3.439-27.132,1.114-7.958-.841-14.161,0-22.163.392-3.716,3.331-11.136,2.733-14.521,3.229,18.295,3.271,69.211,2.74,87.794-.776,27.135-6.173,38.53-2.74,65.57.416,3.271.944,6.674,2.74,9.349,3.529,5.254,18.168,5.856,24.179,5.976a4.342,4.342,0,0,0,2.8-.59c.99-.759,1.257-2.193,1.443-3.489,6.068-42.266,8.858-75.662,10.4-118.315.63-17.467.141-34.949.726-52.417.523-15.625.9-31.6-3.948-46.7A51.073,51.073,0,0,0,555.972,1843.222Zm1.192,6.537c.01-.05.023-.1.034-.151l0,.154Z" transform="translate(-412.547 -1631.35)"/><path class="c" d="M896.917,771.546l-12.31-81.892a12.918,12.918,0,1,0-25.547,3.854l12.591,83.719a12.489,12.489,0,0,0,1.032,3.487l27.462,59.379a33.317,33.317,0,0,0,23.5-10.7Z" transform="translate(-750.818 -597.449)"/><path class="d" d="M884.809,771.242l-6.328-13.688a33.317,33.317,0,0,1-23.5,10.7l6.393,13.839a12.9,12.9,0,0,0,11.729,7.49,12.9,12.9,0,0,0,11.709-18.336Z" transform="translate(-705.653 -525.606)"/><path class="e" d="M896.254,668.7c-.042,0-.082.046-.124.092a2.873,2.873,0,0,1-.042-.6A.743.743,0,0,0,896.254,668.7Z" transform="translate(-794.45 -606.983)"/><path class="b" d="M893.994,679.481c.294.019.587.078.879.117l-2.3-2.207C893.058,678.073,893.526,678.778,893.994,679.481Z" transform="translate(-786.346 -598.607)"/><path class="c" d="M875.632,715.051l4.84,18.163,9.536,55.166c1,3.737,7.518,6.812,10.776,8.426,8.768,4.345,25.849,6.5,51.049-4.178a13.2,13.2,0,0,0,7.658-9.744l9.93-40.876.159-.822A28.776,28.776,0,0,0,966.92,722.6l-9.2-17.664v-9.444c0-11.2-9.909-19.271-19.834-16.135l-8.925,3.1-24.2,8.432-20.838,7.245C877.391,700.408,873.731,707.9,875.632,715.051Z" transform="translate(-828.247 -597.437)"/><path class="f" d="M875.632,715.051l4.84,18.163c2.43,3,4.859,6.021,7.3,9.022,5.122,6.347,10.489,12.885,17.618,16.212,11.861,5.545,25.484,1.015,37.521-4.091q11.169-4.7,22.087-10.037c1.479-.707,2.992-1.452,4.417-2.314l.159-.822A28.776,28.776,0,0,0,966.92,722.6l-9.2-17.664v-9.444c0-11.2-9.909-19.271-19.834-16.135l-8.925,3.1-24.2,8.432-20.838,7.245C877.391,700.408,873.731,707.9,875.632,715.051Z" transform="translate(-828.247 -597.437)"/><path class="d" d="M923.827,706.659a3.008,3.008,0,0,1-1.744.818c-2.883.451-5.7-1.141-8.242-2.734a186.353,186.353,0,0,1-18.66-13.558c-.839-.69-1.679-1.4-2.518-2.109l14.183-4.93,10.008-3.487c.323.669.646,1.336.948,2.023a92.9,92.9,0,0,1,4.54,12.182c.755,2.581,1.4,5.208,1.937,7.855C924.535,704.1,924.73,705.69,923.827,706.659Z" transform="translate(-816.144 -595.631)"/><path class="f" d="M958.146,796.014c3.338.287,6.68.525,10.029.592q3.19.063,6.374-.086c.6-.027,1.013-.038,1.353-.044.31-.069.688-.147,1.236-.25.5-.1,1.985-.518,2.851-.741.415-.25.709-.417.867-.487.09-.082.2-.187.243-.222.094-.216.18-.424.216-.539a18.529,18.529,0,0,0,.795-6.215,23.67,23.67,0,0,1,.268-2.874c-8.155-13.088-24.049-19.424-34.531-23.57a90.669,90.669,0,0,1-8.437-3.634,4.266,4.266,0,0,1,.676-4.865l35.591-42.307a12.913,12.913,0,0,0-19.764-16.625L920.455,736.3a30.117,30.117,0,0,0-1.051,38.1c4.135,5.335,10.667,7.92,18.94,11.193C945.351,788.363,953.549,791.621,958.146,796.014Z" transform="translate(-913.125 -587.539)"/><path class="g" d="M871.686,708.269l-.292.6a.89.89,0,0,0,.235.021C871.629,708.7,871.667,708.483,871.686,708.269Z" transform="translate(-722.701 -570.488)"/><rect class="d" width="25.159" height="34.005" transform="translate(76.497 61.548)"/><path class="d" d="M923.488,706.056a18.9,18.9,0,0,1-5.529-2.367c-.669-.409-1.336-.862-1.981-1.313a49.742,49.742,0,0,1-7.984-7.039c-5.638-6.091-10.071-13.451-14.2-20.811V668.37h25.159v25.5A92.9,92.9,0,0,1,923.488,706.056Z" transform="translate(-817.292 -606.822)"/><path class="d" d="M896.17,675.182l25.041,14.679.119-.338V673.391Z" transform="translate(-819.683 -602.249)"/><path class="h" d="M884.731,658.835c.722-23.688,21.787-18.545,41.929-16.818a20.8,20.8,0,0,1,5.459.961,16.574,16.574,0,0,1,4.14,2.449c11.747,8.848,19.808,22.315,18.22,35.876-2.981,25.463-38.985,35.12-58.332,16.351C885.692,687.512,884.31,672.546,884.731,658.835Z" transform="translate(-831.05 -632.359)"/><path class="d" d="M934.888,684.863c-.264,7.425-1.536,14.754-5.887,20.2-4.79,6.076-12.524,8.487-19.861,8.68a22.044,22.044,0,0,1-11.821-2.6c-6.768-4.05-9.931-12.776-11.644-21.021a69.4,69.4,0,0,1-1.274-9.5,35.281,35.281,0,0,1,1.055-10.753,30.923,30.923,0,0,1,13.533-17.645c6.24-3.905,13.4-5.69,20.564-6.51,3.472-.434-7.858-.531-4.738,1.253,2.065,1.158,7.994,3.376,8.477,5.786.222.869,10.982,1.785,10.851,2.652.218,6.75.438,13.451.657,20.2C934.888,678.644,934.976,681.729,934.888,684.863Z" transform="translate(-810.724 -627.696)"/><path class="h" d="M945.69,646.144c-6.343-11.812-25.5-13.543-33.857-3.063s-2.415,28.769,10.512,32.33c9.53,2.625,20.62-2.881,24.218-12.089s-.881-20.824-9.763-25.165Z" transform="translate(-868.693 -636.157)"/><path class="h" d="M931.037,661.684c-2.471,6.036-5.839,11.81-10.6,16.265s-11.03,7.511-17.553,7.583c-3.057.034-6.364-.722-8.319-3.074a11.345,11.345,0,0,1-2.025-4.473,29.269,29.269,0,0,1,1.2-19.139,22.216,22.216,0,0,1,14.154-12.53c6.611-1.754,13.808.136,19.556,3.846,4.081,2.635,7.885,7.152,6.71,11.865Z" transform="translate(-823.772 -627.508)"/><path class="i" d="M921.013,678.354l.813-1.4L902.6,665.725l-.814,1.4Z" transform="translate(-830.913 -609.231)"/><path class="d" d="M911.078,664.992c2.541-.881,5.054,1.953,6.162,5.186a28.225,28.225,0,0,0,1.712,4.828,3.653,3.653,0,0,0,1.838,1.643c.73,2.514-.739,5.669-2.751,6.33-2.165.709-4.412-.68-6.192-2.493a13.613,13.613,0,0,1-3.98-7.794C907.479,669.494,908.77,665.793,911.078,664.992Z" transform="translate(-841.551 -610.046)"/><path class="j" d="M896.8,667.12c-.468-1.588-1.49-2.151-2.669-1.471s-2.2,2.425-2.667,4.551l-.76-.124c.6-2.734,1.915-4.975,3.428-5.849s2.828-.151,3.43,1.89Z" transform="translate(-785.473 -610.927)"/><path class="i" d="M896.8,667.12c-.468-1.588-1.49-2.151-2.669-1.471s-2.2,2.425-2.667,4.551l-.76-.124c.6-2.734,1.915-4.975,3.428-5.849s2.828-.151,3.43,1.89Z" transform="translate(-785.473 -610.927)"/><path class="i" d="M898.566,686.19a7.845,7.845,0,0,0,3.861-1.169c4.49-2.595,8.143-8.921,8.143-14.1,0-2.688-.95-4.715-2.671-5.709s-3.951-.8-6.28.541c-4.49,2.593-8.143,8.919-8.143,14.1,0,2.688.949,4.714,2.671,5.709A4.765,4.765,0,0,0,898.566,686.19Zm6.91-20a3.2,3.2,0,0,1,1.616.409c1.2.694,1.863,2.224,1.863,4.312a16.237,16.237,0,0,1-7.337,12.7c-1.806,1.047-3.46,1.234-4.666.543s-1.863-2.224-1.863-4.31a16.234,16.234,0,0,1,7.337-12.706A6.232,6.232,0,0,1,905.476,666.195Z" transform="translate(-803.776 -610.274)"/><path class="i" d="M887.784,679.964a7.847,7.847,0,0,0,3.861-1.167c4.49-2.595,8.143-8.921,8.143-14.1,0-2.688-.95-4.716-2.671-5.709s-3.953-.8-6.28.541c-4.49,2.593-8.143,8.919-8.143,14.1,0,2.688.95,4.714,2.671,5.709A4.767,4.767,0,0,0,887.784,679.964Zm6.911-19.993a3.2,3.2,0,0,1,1.616.409c1.2.693,1.863,2.224,1.863,4.312a16.23,16.23,0,0,1-7.337,12.7c-1.807,1.045-3.464,1.234-4.664.543s-1.865-2.224-1.865-4.31a16.239,16.239,0,0,1,7.337-12.706A6.231,6.231,0,0,1,894.695,659.971Z" transform="translate(-772.393 -615.944)"/><path class="h" d="M889.455,661.765q18.635,6.062,37.267,12.119c1.525-7.539-1.546-15.583-6.985-21.019s-12.977-10.6-20.6-11.582c-6-.772-13.663,2.935-15.151,8.795-1.647,6.479,5.554,11.449,11.626,14.242Z" transform="translate(-801.722 -631.581)"/><path class="b" d="M875.685,763.1a.606.606,0,0,0,.021.193,27.2,27.2,0,0,1-3.206-.323Z" transform="translate(-728.834 -520.673)"/><path class="d" d="M926.667,736.9a21.576,21.576,0,0,0-11.611,2.01q-.659.329-1.288.726c-4.845,3.049-5,9.92-.789,13.795a12.872,12.872,0,0,1,4.44,7.6c.74,5.241,4.836,9.337,10.128,9.337h.522a10.868,10.868,0,0,0,4.83-1.133,11.006,11.006,0,0,0,5.785-11.529C937.336,748.751,932.628,742.054,926.667,736.9Z" transform="translate(-863.525 -544.502)"/></g></svg>