<svg xmlns="http://www.w3.org/2000/svg" width="102.76" height="246.438" viewBox="0 0 102.76 246.438"><defs><style>.a{fill:#647ddd;opacity:0.22;}.b{fill:#1f3598;}.c{fill:#ffc7cb;}.d{fill:#bddcff;}.e{fill:#3772ce;}.f{fill:#e2e8f2;}.g{fill:#a0d2ff;}</style></defs><path class="a" d="M608,766.822c13.433-7.756,13.433-20.331,0-28.087s-35.214-7.757-48.648,0-13.433,20.332,0,28.087S594.567,774.578,608,766.822Z" transform="translate(-540.692 -526.201)"/><path d="M564.357,534.97a58.062,58.062,0,0,1,.21-9.219c.7-8.041,4.807-15.542,13.6-16.547,16.106-1.845,19.3,9.351,20.115,22.891-5,5.8-10.956,11.523-14.07,18.592-.667,1.514-8.843,1.6-9.932,1.137-2.641-1.125-5.882-5.581-7.39-7.946A19.288,19.288,0,0,1,564.357,534.97Z" transform="translate(-541.842 -509.004)"/><path class="b" d="M590.181,740.529a4.622,4.622,0,0,0,3.269,5.653c4.283,2.229,8.456,4.6,13.1,6.005a7.4,7.4,0,0,0,3.272.428,2.838,2.838,0,0,0,2.4-2.009c.263-1.249-.616-2.423-1.439-3.4-3.478-4.117-7.1-8.348-11.931-10.73a8.55,8.55,0,0,0-4.591-1.075,4.08,4.08,0,0,0-3.575,2.727Z" transform="translate(-543.828 -526.39)"/><path class="b" d="M562.49,751.554a9.626,9.626,0,0,0,.621,3.282,26.63,26.63,0,0,0,3.6,5.85l2.42,3.265a16.658,16.658,0,0,0,2.75,3.128,5.612,5.612,0,0,0,3.833,1.391,1.557,1.557,0,0,0,1.031-.388,1.626,1.626,0,0,0,.309-.525c.977-2.384.308-5.088-.37-7.572-.955-3.5-2.222-6.793-3.168-10.247-.656-2.4-1.437-5.757-4.382-6.178C564.484,742.93,562.393,747.474,562.49,751.554Z" transform="translate(-541.707 -527.014)"/><path class="c" d="M566.965,681.707l-3.1-51.469,1.063-12.319,25.248,3.84,13.512-.64.461,59.181-6.181,45.822c-.143,1.06,1.775,1.728,1.773,2.765a3.7,3.7,0,0,1-3.443,3.754,9.821,9.821,0,0,1-5.053-1.236,6.556,6.556,0,0,1-2.926-5.459c0-.019,1.856-41.713,1.856-41.713l-3.886-44.575-1.132,20.782L583.781,681.6l-10.719,55.854c-.173,2.308-.951,4.083-3.01,4.083H567.33a4.229,4.229,0,0,1-3.959-4.456Z" transform="translate(-541.774 -517.369)"/><path class="b" d="M568.079,602.636l-7.905,13.02s-1.44,43.227.52,67.211a32.778,32.778,0,0,0,22.587,8.658S604.3,687.8,612.63,680.264c0,0-.355-57.974-14.388-78Z" transform="translate(-541.49 -516.166)"/><path class="d" d="M595.448,550.121h0a5.739,5.739,0,0,0-3.194,7.461l14.893,37.191a5.74,5.74,0,0,0,7.461,3.194h0a5.739,5.739,0,0,0,3.194-7.461l-14.894-37.191A5.738,5.738,0,0,0,595.448,550.121Z" transform="translate(-543.961 -512.13)"/><path class="e" d="M591.243,543.52c-.018,0-.037.02-.056.041a1.3,1.3,0,0,1-.018-.267A.328.328,0,0,0,591.243,543.52Z" transform="translate(-543.91 -511.637)"/><path class="d" d="M566.07,574.206l2.977,25.256a11.22,11.22,0,0,1,.944.716c5.757,4.945,13.841,5.431,21.615,5.249a46.294,46.294,0,0,0,5.314-1.875,5.885,5.885,0,0,0,3.42-4.35l5.406-21.074.073-.365a12.86,12.86,0,0,0-1.186-8.291l-4.1-7.879-1.239-4.226c-.4-4.647-4.275-9.286-7.608-7.185l-1.532.529-2.454.849-10.789,3.767-3.156,1.095-6.138,2.134a6.242,6.242,0,0,0-3.7,7.552Z" transform="translate(-541.799 -512.127)"/><path class="f" d="M563.908,566.126l2.161,8.1c1.086,1.34,2.162,2.681,3.256,4.022,2.29,2.836,4.68,5.746,7.862,7.232,5.29,2.471,11.365.456,16.737-1.824,3.32-1.395,6.613-2.891,9.85-4.478.656-.309,1.331-.647,1.97-1.03l.073-.365a12.857,12.857,0,0,0-1.186-8.29l-4.1-7.88-1.564-5.333c-.075-3.54-2.86-7.472-7.283-6.077l-1.532.529-2.454.848-10.789,3.767-3.156,1.095-6.138,2.134A6.242,6.242,0,0,0,563.908,566.126Z" transform="translate(-541.799 -512.146)"/><path class="c" d="M574.587,556.508a29.638,29.638,0,0,0,5.828,6.63,16.135,16.135,0,0,0,5.554,3.566,6.726,6.726,0,0,0,6.3-.857,6.494,6.494,0,0,0,2.161-4.743,13.464,13.464,0,0,0-1-5.235,29.244,29.244,0,0,0-2.445-5.071l-2.454.849-10.789,3.767Z" transform="translate(-542.636 -512.214)"/><path class="f" d="M613.01,577.215l-.131.27a.444.444,0,0,0,.105.008C612.984,577.407,613,577.311,613.01,577.215Z" transform="translate(-545.577 -514.243)"/><rect class="c" width="11.224" height="20.647" transform="translate(34.975 26.265)"/><path class="c" d="M579.061,541.405l10.182,10.68.053-.151v-7.2Z" transform="translate(-542.98 -511.492)"/><ellipse class="b" cx="8.575" cy="9.453" rx="8.575" ry="9.453" transform="translate(41.968 7.292)"/><path class="e" d="M578.562,533.1c-.018,0-.035.019-.053.04a1.187,1.187,0,0,1-.018-.255A.314.314,0,0,0,578.562,533.1Z" transform="translate(-542.936 -510.838)"/><path class="c" d="M578.078,535.25c1.4-7.168,5.976-14.659,13.7-15.931a.819.819,0,0,0,.57-1.256,1.032,1.032,0,0,0-.121-1.016c.073-.009.146-.021.219-.029a6.9,6.9,0,0,1,4.406.547,3.833,3.833,0,0,1,1.782,2.524,3.015,3.015,0,0,1,.037,1.157c.094,2.945.187,5.869.282,8.814.037,1.326.075,2.672.037,4.039-.113,3.24-.655,6.437-2.512,8.814-2.044,2.65-5.343,3.7-8.475,3.786-1.725.043-3.506-1.2-5.044-2.13-2.887-1.767-4.237-4.58-4.969-8.178-.047-.247-.08-.5-.124-.745A.777.777,0,0,0,578.078,535.25Z" transform="translate(-542.888 -509.61)"/><path d="M583.474,515.9a6.487,6.487,0,0,1,3.069-4.045,5.371,5.371,0,0,1,2.948-.754,5.825,5.825,0,0,1,4.307,1.111c.947.411,1.9.9,2.836,1.407a17.319,17.319,0,0,1,5.845,4.481,9.638,9.638,0,0,1,1.614,7.99,8.72,8.72,0,0,1-2.946,4.755c-.232.871-.819-.93-1.052-.057-.355-2.675-1.9-2.252-4.108-3.8a54.954,54.954,0,0,0-7.171-3.729,12.464,12.464,0,0,1-4.265-3.083,5.61,5.61,0,0,1-.746-1.2A3.032,3.032,0,0,1,583.474,515.9Z" transform="translate(-543.299 -509.157)"/><path class="d" d="M624.825,596.906a7.868,7.868,0,1,1-7.864-7.626A7.748,7.748,0,0,1,624.825,596.906Z" transform="translate(-545.287 -515.169)"/><path class="c" d="M615.682,597.43h0a6.2,6.2,0,0,0,5.4,6.9l20.517,3.185a6.2,6.2,0,0,0,6.9-5.4h0a6.2,6.2,0,0,0-5.4-6.9l-20.517-3.184A6.2,6.2,0,0,0,615.682,597.43Z" transform="translate(-545.789 -515.377)"/><path class="g" d="M628.311,609.544c1.056,2.092,4.547,3.631,8.7,3.631s7.645-1.539,8.7-3.631l.335-2.842V594.235h-.237c-.923-2.2-4.507-3.839-8.8-3.839s-7.876,1.641-8.8,3.839h-.238v1.1Z" transform="translate(-546.737 -515.255)"/><path class="f" d="M646.048,594.74c0,2.735-4.045,4.952-9.035,4.952s-9.036-2.218-9.036-4.952,4.045-4.952,9.036-4.952S646.048,592.006,646.048,594.74Z" transform="translate(-546.737 -515.208)"/><ellipse class="e" cx="6.438" cy="3.528" rx="6.438" ry="3.528" transform="translate(83.838 75.9)"/><path d="M577.733,534.742a19.08,19.08,0,0,0,8.548-16.618,13.379,13.379,0,0,0-8.326,17.064Z" transform="translate(-542.839 -509.704)"/><path class="f" d="M544.006,595.093a54.7,54.7,0,0,0,4.77,5.709A38.232,38.232,0,0,1,553,605.948a22.757,22.757,0,0,1,2.494,4.9,4.287,4.287,0,0,1,.287,1.484,5.937,5.937,0,0,0,8.945,7.807c2.682-2.988,3.513-6.718,2.513-11.151a30.749,30.749,0,0,0-4.195-9.37,47.392,47.392,0,0,0-5.522-6.847,45.247,45.247,0,0,1-3.79-4.472c-1.751-2.5-2.395-5.4-1.5-6.738a12.153,12.153,0,0,1,3.186-2.494l13.636-8.728a5.936,5.936,0,0,0-6.392-10l-13.645,8.728a21.249,21.249,0,0,0-6.659,5.9C538.664,580.478,539.316,588.385,544.006,595.093Z" transform="translate(-539.978 -512.874)"/><path d="M566.025,540.222a43.223,43.223,0,0,1,.853-7.634,10.152,10.152,0,0,1,2.081-4.935,4.323,4.323,0,0,1,4.884-1.292c2.56,1.243,2.4,4.848,2.24,7.688-.932,16.5,15.679,26.222,15.505,42.546-.063,5.932-2.985,11.411-5.831,16.616-.6,1.1-1.547,2.37-2.775,2.123a2.8,2.8,0,0,1-1.473-1.084,29.492,29.492,0,0,1-6.077-14.4c-1.334-8.285.056-15.721-3.322-23.591-1.22-2.843-3.218-5.282-4.61-8.044A17.641,17.641,0,0,1,566.025,540.222Z" transform="translate(-541.979 -510.312)"/><path class="c" d="M579.443,537.3a.786.786,0,0,1-.782.087,1.992,1.992,0,0,0-.052-.278Z" transform="translate(-542.945 -511.162)"/><path class="c" d="M573.469,531.325c1.223-.424,2.434.94,2.966,2.5a13.657,13.657,0,0,0,.824,2.325,1.756,1.756,0,0,0,.885.79,2.636,2.636,0,0,1-1.325,3.047c-1.042.342-2.124-.327-2.982-1.2a6.556,6.556,0,0,1-1.915-3.752C571.736,533.491,572.357,531.709,573.469,531.325Z" transform="translate(-542.429 -510.712)"/><path class="c" d="M557.543,624.717a5.942,5.942,0,0,0,8.381-.455c2.682-2.988,3.513-6.718,2.513-11.151a11.937,11.937,0,0,1-11.745,1.86,4.288,4.288,0,0,1,.287,1.484A5.931,5.931,0,0,0,557.543,624.717Z" transform="translate(-541.175 -517)"/></svg>