<svg xmlns="http://www.w3.org/2000/svg" width="479.693" height="107.876" viewBox="0 0 479.693 107.876"><defs><style>.a{fill:rgba(15,0,0,0.1);}.b{fill:#c4e4f9;}.c{fill:#0f62fe;}</style></defs><path class="a" d="M276,660H755.693s-10.053,18.671-33.033,15.8a133.351,133.351,0,0,1-18.67-1.436c-8.617-1.436-21.543,2.872-24.416,7.181,0,0-21.543,12.926-57.448,0,0,0-33.033-14.362-56.012-1.436,0,0-17.235,18.671-61.757-4.309,0,0-11.49-7.181-31.6,7.181,0,0-20.107,17.234-58.884-7.181,0,0-21.543-5.745-45.959,5.745C367.917,681.543,319.086,688.724,276,660Z" transform="translate(-276 -581.009)"/><path class="b" d="M582.341,634.075s24.272,13.406,13.552,32.565C595.893,666.64,578.528,663.061,582.341,634.075Z" transform="translate(-267.222 -583.199)"/><path class="c" d="M611.158,623s12.926,41.65-20.107,51.7C591.051,674.7,575.253,651.724,611.158,623Z" transform="translate(-264.694 -588.031)"/><path class="c" d="M331.345,621.92s-37.082,20.482-20.7,49.752C310.64,671.672,337.171,666.2,331.345,621.92Z" transform="translate(-262.711 -597.619)"/><path class="b" d="M291.6,605s-19.748,63.633,30.718,78.991C322.319,683.991,346.456,648.885,291.6,605Z" transform="translate(-270.855 -605)"/></svg>