<svg xmlns="http://www.w3.org/2000/svg" width="605.202" height="309.471" viewBox="0 0 605.202 309.471"><defs><style>.a{fill:#bdc1e1;}.b{fill:#fff;}.c{fill:#b3bade;}.d{fill:#3c2768;}.e{fill:#f69874;}.f{fill:#5678bb;}.g{fill:#ee3f5c;}.h{fill:#ffc7cb;}.i{fill:#d9def0;}.j{fill:#e2e8f2;}.k{fill:#c76a72;}.l{fill:#e4e6f3;}.m{fill:#e2e5f3;}.n{fill:#2d1d50;}.o{fill:#d2d2d2;}.p{fill:rgba(15,0,0,0.1);}.q{fill:#c4e4f9;}.r{fill:#0f62fe;}.s{fill:#f5f5fa;}.t{fill:#3d2768;}.u{fill:#5dc5c7;}.v{fill:#bdc0df;}</style></defs><g transform="translate(-1297 -495.888)"><g transform="translate(1401.838 448.089)"><g transform="translate(128.746 47.799)"><path class="a" d="M1423.78,975.109l36.564-21.008.021-2.832L1423.78,972.39Z" transform="translate(-1305.048 -721.007)"/><path class="b" d="M1396.868,957.2l33.145,18.759,36.585-21.122-32.8-18.956Z" transform="translate(-1311.281 -724.572)"/><path class="a" d="M1396.868,953.187v2.754l33.145,18.723v-2.719Z" transform="translate(-1311.281 -720.562)"/><path class="a" d="M1427.406,908.482l120.776-69.394V828.657l-120.776,69.72Z" transform="translate(-1304.208 -749.41)"/><path class="b" d="M1327.379,843.556l123.2,69.726,135.983-78.509-121.931-70.459Z" transform="translate(-1327.379 -764.314)"/><g transform="translate(105.064 46.566)"><path class="b" d="M1477.077,821.8c0,13.738-17.125,24.881-38.254,24.881-13.406,0-25.2-4.48-32.019-11.27-3.957-3.909-6.235-8.594-6.235-13.611,0-13.738,17.125-24.864,38.254-24.864,16.444,0,30.467,6.743,35.88,16.206A17.332,17.332,0,0,1,1477.077,821.8Z" transform="translate(-1400.569 -796.931)"/><path class="c" d="M1460.086,818.73c0,9.353-11.665,16.935-26.035,16.935-.539,0-1.062-.015-1.583-.031,12.028-.49,21.541-6.981,21.541-14.925,0-8.262-10.288-14.958-23-14.958-12.217,0-22.22,6.206-22.949,14.023-.031-.347-.047-.7-.047-1.044,0-9.338,11.649-16.92,26.037-16.92C1448.42,801.81,1460.086,809.391,1460.086,818.73Z" transform="translate(-1395.891 -793.866)"/><path class="d" d="M1453.991,819.188v.189h-.016c-.063,4.291-2.928,8.151-7.454,10.843l-.016.015a30.127,30.127,0,0,1-14.054,3.879c-11.571-.443-21.1-5.808-23.726-12.93a11.177,11.177,0,0,1-.681-2.929.432.432,0,0,1,.016-.094,9.584,9.584,0,0,1,.808-3.022,15.026,15.026,0,0,1,5.9-6.538,26.651,26.651,0,0,1,8.721-3.561c.3-.064.6-.127.9-.189a35.511,35.511,0,0,1,6.6-.619c.982,0,1.964.049,2.913.127C1445.237,805.275,1453.991,811.576,1453.991,819.188Z" transform="translate(-1395.873 -792.345)"/><path class="c" d="M1478.486,820.448c0,13.738-17.125,24.881-38.255,24.881-16.4,0-30.4-6.727-35.833-16.176,6.823,6.79,18.613,11.27,32.019,11.27,21.129,0,38.254-11.143,38.254-24.881a17.331,17.331,0,0,0-2.375-8.658C1476.206,810.778,1478.486,815.447,1478.486,820.448Z" transform="translate(-1398.163 -790.678)"/><path class="e" d="M1456.459,818.856a3.279,3.279,0,0,1-2.469,2.151h-.016c-1.2.223-2.327-.109-3.182,1.757-1.456,3.165-1.773,6.458-4.273,9.086l-.016.015a30.124,30.124,0,0,1-14.054,3.879c-11.571-.443-21.1-5.808-23.726-12.93l-.681-2.929a.433.433,0,0,1,.016-.094c.08-.348.349-1.566.808-3.022.808-2.644,2.231-6.062,4.194-6.585.933-.252,1.423-.174,1.708.047.729.539.365,1.978,3.071,1.646,3.514-.427,2.406-4.195,5.65-5.207.3-.063.6-.127.9-.189,4.369-.539,1.33,3.924,4.764,3.7,1.519-.094,2.991-2.136,4.748-4.194,2.2-2.6,4.875-5.238,8.7-4.068,6.854,2.106,8.183,3.832,10.288,7.393S1458.438,814.93,1456.459,818.856Z" transform="translate(-1395.873 -793.976)"/><path class="f" d="M1421.9,813.042c0,1.2-1.594,2.167-3.561,2.167s-3.561-.971-3.561-2.167,1.594-2.167,3.561-2.167S1421.9,811.845,1421.9,813.042Z" transform="translate(-1391.644 -788.17)"/><path class="g" d="M1430.685,811.132c0,.718-.956,1.3-2.138,1.3s-2.138-.583-2.138-1.3.957-1.3,2.138-1.3S1430.685,810.412,1430.685,811.132Z" transform="translate(-1384.333 -788.827)"/><path class="b" d="M1429.274,817.383c0,1.2-1.594,2.167-3.561,2.167s-3.561-.97-3.561-2.167,1.594-2.167,3.561-2.167S1429.274,816.187,1429.274,817.383Z" transform="translate(-1387.008 -785.443)"/></g><path class="h" d="M1495.012,848.229s-11.11-14.881-18.3-16.377-11.892,2.492-13.892-.251,10.549-17.359,16.1-12.595,9.439,9.853,16.323,12.846a102.5,102.5,0,0,0,14.091,4.789Z" transform="translate(-1296.054 -751.865)"/><path class="a" d="M1577.841,911.143l-61,34.871-61-34.871,61-35.223Z" transform="translate(-1297.621 -738.461)"/><path class="d" d="M1566.355,897.347s-3.987,19.37-13.062,24.218-36.549,23.872-59.115,10.967c-17.275-9.877-31.892-18.244-37.794-21.62-1.808-1.042-2.8-1.6-2.8-1.6s10.678-12.294,22.709-20.232h.012a56.989,56.989,0,0,1,5.459-3.208,96.3,96.3,0,0,1,28.206-8.979Z" transform="translate(-1298.144 -738.237)"/><path class="i" d="M1327.379,843.556l137.25-79.242,121.931,70.459-144.653-29.048Z" transform="translate(-1327.379 -764.314)"/><path class="j" d="M1560.8,913.32s-8.966,11.469-18.508,12.894-16.2,5.949-27.642,9.469-18.1-8.786-18.1-8.786-1.352-8,.791-21.43a94.545,94.545,0,0,1,8.5-25.523c-1.329,2.25-7.482,9.625-7.482,9.625a25.243,25.243,0,0,1-12.57-4.19c-5.686-4.035-8.236-11.218-8.236-11.218a43.061,43.061,0,0,1,7.638-10.511c4.489-4.215,3.592-14.485,6.357-22.124s15.647-18.244,20.256-21.692,5.316-4.573,5.316-4.573l35.7-7.339c14.761,13.037,7.591,46.63,9.793,64.54S1560.8,913.32,1560.8,913.32Z" transform="translate(-1292.591 -754.213)"/><path class="h" d="M1502.957,811.86s2.637,2.545,2.961,8.83h7.059l2.095-11.908-6.057-4.553Z" transform="translate(-1286.706 -755.068)"/><path class="h" d="M1489.144,791.9a66.286,66.286,0,0,0,1.2,19.107c2.195,10.627,3.454,10.757,7.513,9.495s12.839-5.157,14.635-9.495,2-12.718,2-12.718l-9.777-15.344H1501.7Z" transform="translate(-1289.959 -759.999)"/><path class="b" d="M1460.465,916.295V993.98l5.7-3.284-.278-77.5Z" transform="translate(-1296.549 -729.827)"/><path class="a" d="M1551.628,916.295V993.98l-5.7-3.284.278-77.5Z" transform="translate(-1276.752 -729.827)"/><path class="k" d="M1357.49,811.188l5.494-3.351A35.1,35.1,0,0,1,1357.49,811.188Z" transform="translate(-1320.404 -754.232)"/><path class="a" d="M1566.353,824.572l-60.98,35.222V912.63l60.993-35.215Z" transform="translate(-1286.147 -750.356)"/><path class="l" d="M1567.472,825.24l-6.148-3.549-60.783,35.336,5.951,3.435Z" transform="translate(-1287.266 -751.023)"/><path class="l" d="M1500.542,850.38v52.4l5.951,3.873V853.816Z" transform="translate(-1287.266 -744.377)"/><path class="l" d="M1555.9,867.476V913.1l-5.344,2.771V870.562Z" transform="translate(-1275.68 -740.417)"/><path class="b" d="M1546.616,872.773v39.751l4.852,2.769V869.971Z" transform="translate(-1276.592 -739.839)"/><path class="l" d="M1510.771,893.545v45.623l-5.344,2.771-.064-45.289Z" transform="translate(-1286.149 -734.378)"/><path class="b" d="M1501.418,893.5v45.673l4.852,2.768.007-45.279Z" transform="translate(-1287.063 -734.389)"/><path class="i" d="M1455.838,904.518v10.651l61,34.927.008-10.706Z" transform="translate(-1297.621 -731.836)"/><path class="b" d="M1505.361,950.1l61.008-34.893V904.518l-61,34.871Z" transform="translate(-1286.149 -731.836)"/><path class="b" d="M1505.361,942.107v77.686l5.7-3.284-.278-77.5Z" transform="translate(-1286.149 -723.847)"/><path class="a" d="M1506.433,942.107v77.686l-5.7-3.284.278-77.5Z" transform="translate(-1287.221 -723.847)"/><path class="b" d="M1550.556,916.295V993.98l5.7-3.284-.278-77.5Z" transform="translate(-1275.68 -729.827)"/><path class="a" d="M1461.538,916.295V993.98l-5.7-3.284.277-77.5Z" transform="translate(-1297.621 -729.827)"/><path d="M1489.1,793.917s1.5-26.633,22.148-17.954c14.717,6.185,15.467,33.3,23.146,32.463s26.1,10.665,23.474,27.809-13.812,43.124-34.257,35.223-6.833-20.022-11.766-26.336c-5.679-7.269,6.584-23.518.6-28.056s-5.406-11.972-6.279-17.958S1489.1,793.917,1489.1,793.917Z" transform="translate(-1289.916 -762.019)"/><path class="l" d="M1327.379,828.652V838.89l123.2,69.593v-10.1Z" transform="translate(-1327.379 -749.411)"/><path class="a" d="M1420.223,889.411v79.2s2.359,2.956,8.847,2.956,7.087-2.544,7.087-2.544V890.336l-7.087,4.072Z" transform="translate(-1305.871 -735.336)"/><path class="d" d="M1454.817,953s3.089,5.907-1.071,9.511-37.081,4.029-37.232,0,27.242-11.989,27.242-11.989l6.578-2.065Z" transform="translate(-1306.731 -721.657)"/><path class="h" d="M1457.045,907.841s.993.563,2.8,1.6l-.023.011.275,10.68-10.4,47.981a26.621,26.621,0,0,1-6.428,0c-4.19-.4-4.634-2.478-4.634-2.478s7.327-78.234,15.456-81.527c7.984-3.232,25.057,3.256,25.666,3.5C1467.724,895.547,1457.045,907.841,1457.045,907.841Z" transform="translate(-1301.607 -736.772)"/><path class="h" d="M1508.486,880.766s-11.972,14.366-23.656,15.9-37.4-27.367-37.4-27.367-7.782,1.281-12.175-9.242,2.6-14.51,4.992-14.1-3.987,6.177-.8,8.895,7.781.873,10.176,1.652,2,1.222,2.394,6.825,16.568,9.96,24.194,10.774,11.469-8.74,11.469-8.74,2.55,7.183,8.236,11.218A25.243,25.243,0,0,0,1508.486,880.766Z" transform="translate(-1302.717 -745.41)"/><path class="h" d="M1442.5,855.657c.074-.31-.973-6.222.9-6.522s3.441,6.884,3.441,6.884l-2.637.824Z" transform="translate(-1300.764 -744.668)"/></g><g transform="translate(211.755 123.236)"><path class="m" d="M3715.248,800s-.05.529-.153,1.431c-1.039-5.2-7.588-9.192-15.519-9.192s-14.5,3.99-15.521,9.21c0-.035-.017-.068-.017-.1-.051-.461-.085-.836-.12-1.058-.017-.187-.017-.289-.017-.289,0-5.885,7.01-10.66,15.675-10.66S3715.248,794.114,3715.248,800Z" transform="translate(-3683.901 -789.34)"/><path class="n" d="M3715.953,812.164c0,5.44-6.123,9.859-13.661,9.859s-13.661-4.419-13.661-9.859a7.718,7.718,0,0,1,.408-2.422,10.08,10.08,0,0,0,6.585,2.422c3.53,0,7.622-5.2,9.753-7.728,1.245.817,4.243.986,4.856-.634C3712.708,805.592,3715.953,809.453,3715.953,812.164Z" transform="translate(-3679.884 -776.357)"/><path class="m" d="M3714.975,795.981c-.716,5.612-3.957,23.86-15.5,23.86s-14.77-18.248-15.47-23.86c1.144,5.116,7.641,9.04,15.486,9.04S3713.832,801.1,3714.975,795.981Z" transform="translate(-3683.814 -783.702)"/><path class="o" d="M3715.023,800.1c0,.035-.016.085-.016.12a.106.106,0,0,1-.017.068c-1.143,5.116-7.64,9.04-15.486,9.04s-14.342-3.924-15.485-9.04c-.019-.052-.019-.12-.035-.17,1.023-5.22,7.591-9.21,15.521-9.21S3713.985,794.9,3715.023,800.1Z" transform="translate(-3683.831 -788.009)"/><path class="n" d="M3702.9,805.063a4.8,4.8,0,0,1-2.149,3c-.852.359-1.943.12-3.222-.732a28.685,28.685,0,0,0,2.063-3.6A15.364,15.364,0,0,1,3702.9,805.063Z" transform="translate(-3672.327 -777.119)"/></g></g><g transform="translate(1297 669.258)"><path class="p" d="M276,660H881.2s-12.684,23.556-41.676,19.932a168.25,168.25,0,0,1-23.556-1.812c-10.872-1.812-27.18,3.624-30.8,9.06,0,0-27.18,16.308-72.479,0,0,0-41.676-18.12-70.667-1.812,0,0-21.744,23.556-77.915-5.436,0,0-14.5-9.06-39.864,9.06,0,0-25.368,21.744-74.291-9.06,0,0-27.18-7.248-57.983,7.248C391.967,687.18,330.359,696.24,276,660Z" transform="translate(-276 -560.341)"/><path class="q" d="M582.484,634.075s30.623,16.913,17.1,41.085C599.582,675.16,577.674,670.644,582.484,634.075Z" transform="translate(-27.701 -581.392)"/><path class="r" d="M617.325,623s16.308,52.547-25.368,65.231C591.957,688.231,572.025,659.24,617.325,623Z" transform="translate(-22.995 -590.384)"/><path class="r" d="M337.854,621.92s-46.784,25.841-26.122,62.769C311.733,684.689,345.206,677.791,337.854,621.92Z" transform="translate(-251.263 -591.261)"/><path class="q" d="M292.6,605s-24.915,80.282,38.755,99.659C331.352,704.659,361.8,660.367,292.6,605Z" transform="translate(-266.423 -605)"/></g><g transform="translate(1440.902 522)"><ellipse class="m" cx="30.42" cy="19.328" rx="30.42" ry="19.328" transform="translate(15.797 205.264)"/><path class="m" d="M3794.734,802.441l.067,1.159A9.425,9.425,0,0,1,3794.734,802.441Z" transform="translate(-3790.786 -654.385)"/><path class="m" d="M3842.727,802.441a10.066,10.066,0,0,1-.106,1.5Z" transform="translate(-3783.68 -654.385)"/><path class="m" d="M3849.833,804.644l-.107,1.5c-1.219,8.717-13.043,15.556-27.446,15.556-14.586,0-26.523-7.013-27.479-15.892l-.067-1.159c0-9.418,12.335-17.051,27.546-17.051S3849.833,795.226,3849.833,804.644Z" transform="translate(-3790.786 -656.589)"/><path class="s" d="M3849.714,803.782l-4.531,63.725c0,6.71-10.486,12.142-23.419,12.142-10.981,0-20.188-3.917-22.722-9.2a6.658,6.658,0,0,1-.7-2.947l-3.549-64.057c.958,8.876,12.887,15.893,27.478,15.893C3836.674,819.344,3848.5,812.5,3849.714,803.782Z" transform="translate(-3790.777 -654.236)"/><path class="t" d="M3846.233,803.7l-.1,1.326c-.721,5.161-5.632,9.573-12.625,11.932a35.115,35.115,0,0,1-7.747,1.636c-.7.075-1.415.122-2.143.155-.579.026-1.172.04-1.765.04-.969,0-1.926-.033-2.863-.108a34.512,34.512,0,0,1-3.732-.458,31.989,31.989,0,0,1-5.275-1.347c-7.006-2.418-11.877-6.919-12.443-12.146l-.061-1.03c0-3.652,2.1-7.006,5.591-9.614a26.028,26.028,0,0,1,7.822-3.86c.788-.249,1.6-.465,2.432-.66a38.006,38.006,0,0,1,8.528-.95c.688,0,1.375.019,2.049.061.943.04,1.866.121,2.769.235a31.127,31.127,0,0,1,12.363,4.09C3843.477,795.734,3846.233,799.52,3846.233,803.7Z" transform="translate(-3790.378 -656.436)"/><path class="u" d="M3827.092,761.323c-.041-3.577-3.153-10.55-1.347-18.688,4.6-20.736-7.808-67.873-9.641-69.092-1.166-.775-5.646,14.558-9.472,33.711a5.263,5.263,0,0,1,1.657.444,5.492,5.492,0,0,1,0,10.031,5.4,5.4,0,0,1-2.243.479,5.275,5.275,0,0,1-.869-.068,3.849,3.849,0,0,1-.559-.122c-1.408,8.172-2.594,16.6-3.288,24.469-.815,9.263-.956,17.752.021,24.117,1.9,12.449,5.6,27.715,9.068,40.7,1.138,4.251,2.256,8.259,3.274,11.836,2.754,9.681,4.823,16.283,4.823,16.283v.336c.815.068,1.645.1,2.479.1.127.007.256.007.384.007.593,0,1.186-.014,1.765-.04.728-.033,1.442-.08,2.143-.155.108-3.234.512-15.677.91-29.682C3826.688,788.7,3827.179,769.023,3827.092,761.323ZM3816.1,736.3a3.547,3.547,0,0,1,1.906.552,3.454,3.454,0,0,1,.795.673v.007a3.57,3.57,0,0,1-.593,5.255v.007c-.007.007-.013.007-.02.014a3.554,3.554,0,0,1-2.089.673,3.59,3.59,0,1,1,0-7.181Zm-2.452,43.964v.007a3.59,3.59,0,1,1,.593-5.268v.007a3.571,3.571,0,0,1-.593,5.254Zm8.279,15.629a5.331,5.331,0,0,1-2.128.479h-.115a5.348,5.348,0,0,1-.869-.068,5.5,5.5,0,0,1,.324-10.894,2.833,2.833,0,0,1,.33-.019c.074-.007.141-.007.216-.007a5.414,5.414,0,0,1,2.243.478,5.487,5.487,0,0,1,0,10.031Z" transform="translate(-3789.905 -673.515)"/><path class="u" d="M3846.123,746.108a5.382,5.382,0,0,1,2.163.444A104.6,104.6,0,0,0,3850,732c-.075-15.258-6.346-41.121-8.353-43.081-.1-.1-.189-.141-.264-.122l-.006.007c-1.577.519-15.312,32.027-18.54,51.563-.2,1.233-.364,2.418-.479,3.544-.013.12-.026.242-.033.363-.021.2-.04.392-.061.6-.148,1.678-.29,3.746-.417,6.138-.021.451-.048.909-.068,1.38q-.05.8-.082,1.638c-.026.512-.047,1.03-.073,1.563-.047,1.138-.094,2.331-.141,3.563q-.031.839-.061,1.7c-.007.255-.021.518-.027.788a4.724,4.724,0,0,1,.546-.028,5.392,5.392,0,0,1,2.243.479,5.492,5.492,0,0,1,0,10.031,5.393,5.393,0,0,1-2.243.478,5.266,5.266,0,0,1-.869-.067c-.075,3.065-.142,6.245-.2,9.479-.013.646-.027,1.293-.04,1.946-.1,5.168-.189,10.449-.256,15.643-.007.646-.021,1.3-.027,1.946s-.02,1.293-.026,1.941c-.149,11.5-.235,22.291-.285,30.073.729-.033,1.443-.08,2.144-.155.613-.061,1.212-.134,1.805-.228.371-.054.735-.115,1.1-.183a32.08,32.08,0,0,0,4.844-1.225c.863-3.652,2.978-12.686,5.525-23.956,3.489-15.408,7.773-34.991,10.744-50.729-.094.007-.181.007-.275.007a5.494,5.494,0,1,1,0-10.988Zm-12.908,43.715a3.557,3.557,0,0,1-2.937-1.536,3.521,3.521,0,0,1-.646-2.048,3.587,3.587,0,1,1,3.583,3.584Zm4.015-63.865v.007a3.589,3.589,0,1,1,.594-5.269v.007a3.572,3.572,0,0,1-.594,5.255Z" transform="translate(-3787.001 -671.248)"/><path class="u" d="M3815.083,811.3q-.131-1.89-.263-3.894a3.223,3.223,0,0,1-.923.129,3.533,3.533,0,0,1-2.93-1.536,3.473,3.473,0,0,1-.647-2.047,3.6,3.6,0,0,1,3.577-3.591,2.544,2.544,0,0,1,.453.033c-.035-.525-.075-1.058-.108-1.589-1.179-17.522-2.494-37.072-2.918-43.351-.444-6.595-4.485-14.8-8.6-20.81-3.524-5.133-7.1-8.663-8.562-8.219-1.313.4-2.2,6.367-2.606,13.7a5.233,5.233,0,0,1,1.022-.2,5.009,5.009,0,0,1,.547-.026,5.562,5.562,0,0,1,.586.033,2.178,2.178,0,0,1,.282.04,5.255,5.255,0,0,1,1.375.4,5.379,5.379,0,0,1,1.886,1.4,5.435,5.435,0,0,1,1.368,3.624,5.368,5.368,0,0,1-.284,1.724,5.472,5.472,0,0,1-2.971,3.288,5.043,5.043,0,0,1-.964.331,5.7,5.7,0,0,1-1.279.148,5.3,5.3,0,0,1-.87-.068,4.027,4.027,0,0,1-.559-.121,4.069,4.069,0,0,1-.4-.129c.026,7.377.519,14.262,1.515,17,.809,2.229,3.039,9.3,5.679,17.839a5.165,5.165,0,0,1,2.163-.7,2.56,2.56,0,0,1,.33-.021c.074-.007.142-.007.215-.007a5.7,5.7,0,0,1,1.523.209,5.216,5.216,0,0,1,.721.27,5.492,5.492,0,0,1,1.859,8.683,5.69,5.69,0,0,1-1.859,1.348,5.2,5.2,0,0,1-1.805.458c.788,2.567,1.582,5.153,2.35,7.679,3.1,10.173,5.881,19.375,6.913,22.791a29.222,29.222,0,0,0,2.923.862c.216.054.431.108.654.148.552.129,1.125.242,1.7.336C3815.958,824.229,3815.561,818.368,3815.083,811.3Zm-9.917-52.17a3.548,3.548,0,0,1,1.907.552,3.474,3.474,0,0,1,.795.674v.007a3.574,3.574,0,0,1-.593,5.254v.007c-.007.007-.014.007-.021.014a3.542,3.542,0,0,1-2.088.674,3.591,3.591,0,0,1,0-7.182Z" transform="translate(-3791.296 -665.67)"/><path class="t" d="M3792.542,739.912a5.249,5.249,0,0,0-1.024.2c.4-7.329,1.293-13.3,2.607-13.7,0,0-.283,5.82-.169,13.541a2.167,2.167,0,0,0-.282-.04,5.538,5.538,0,0,0-.586-.033A4.991,4.991,0,0,0,3792.542,739.912Z" transform="translate(-3791.262 -665.666)"/><path class="t" d="M3802.721,781.762a5.7,5.7,0,0,0-1.523-.209c-.073,0-.141,0-.215.007a2.571,2.571,0,0,0-.33.021,5.162,5.162,0,0,0-2.163.7c-2.641-8.543-4.87-15.61-5.679-17.839-1-2.742-1.489-9.627-1.515-17a4.085,4.085,0,0,0,.4.129,4.018,4.018,0,0,0,.559.121,5.308,5.308,0,0,0,.87.068,5.7,5.7,0,0,0,1.279-.148c.533,8.151,1.678,16.485,3.995,21.672A117.09,117.09,0,0,1,3802.721,781.762Z" transform="translate(-3791.296 -662.547)"/><path class="t" d="M3812.488,818.262a29.194,29.194,0,0,1-2.924-.862c-1.031-3.415-3.812-12.617-6.912-22.791-.769-2.526-1.563-5.113-2.351-7.679a5.2,5.2,0,0,0,1.805-.458,5.683,5.683,0,0,0,1.859-1.348C3807.172,796.664,3810.419,809.733,3812.488,818.262Z" transform="translate(-3789.96 -656.955)"/><path class="n" d="M3824.2,805.992c-.4,14.006-.8,26.448-.91,29.682-.7.075-1.415.122-2.143.155-.579.026-1.171.04-1.765.04-.127,0-.256,0-.383-.007l-1.192-39.5a5.331,5.331,0,0,0,2.128-.479,5.488,5.488,0,0,0,0-10.031,5.419,5.419,0,0,0-2.243-.478c-.075,0-.142,0-.216.007L3816.2,742.8c.007-.007.013-.007.02-.014v-.007a3.569,3.569,0,0,0,.592-5.255v-.007a3.427,3.427,0,0,0-.794-.673l-1.907-63.306c1.833,1.22,14.242,48.356,9.641,69.092-1.8,8.137,1.307,15.11,1.347,18.688C3825.185,769.02,3824.693,788.7,3824.2,805.992Z" transform="translate(-3787.91 -673.512)"/><path class="t" d="M3824.188,761.359c-.007,19.961,0,49.037,0,61.056-.593.094-1.192.168-1.805.228-.7.075-1.415.122-2.144.155.049-7.781.136-18.574.285-30.073.006-.648.019-1.287.026-1.941s.021-1.3.027-1.946c.067-5.194.155-10.476.256-15.643.012-.654.026-1.3.04-1.947.061-3.234.128-6.414.2-9.479a5.279,5.279,0,0,0,.869.067A5.393,5.393,0,0,0,3824.188,761.359Z" transform="translate(-3787.001 -660.481)"/><path class="t" d="M3841.231,688.8l-.007.026c-.519,1.5-17.178,49.563-17.185,70.225v3.039a5.391,5.391,0,0,0-2.243-.479,4.769,4.769,0,0,0-.547.028c.007-.27.021-.533.028-.788q.029-.859.061-1.7c.047-1.232.094-2.425.141-3.563.026-.533.047-1.051.073-1.563q.032-.839.082-1.637c.02-.471.047-.929.067-1.38.128-2.392.269-4.46.417-6.138.021-.208.041-.4.062-.6.006-.121.02-.242.033-.363.114-1.125.276-2.311.479-3.544C3825.918,720.831,3839.654,689.323,3841.231,688.8Z" transform="translate(-3786.852 -671.247)"/><path class="s" d="M3839.974,751.6a5.493,5.493,0,0,0,5.5,5.49c.094,0,.182,0,.275-.007-2.971,15.737-7.255,35.321-10.744,50.729-2.547,11.27-4.662,20.3-5.525,23.956a32.087,32.087,0,0,1-4.844,1.225l4.992-44.712a3.586,3.586,0,0,0,6.528-2.048,3.594,3.594,0,0,0-3.59-3.591,3.541,3.541,0,0,0-2.412.943l6.426-57.626v-.007a3.572,3.572,0,0,0,.593-5.255V720.7l3.55-31.865.007-.026.271.115c2.007,1.96,8.278,27.823,8.353,43.081a104.392,104.392,0,0,1-1.718,14.551,5.378,5.378,0,0,0-2.162-.444A5.5,5.5,0,0,0,3839.974,751.6Z" transform="translate(-3786.349 -671.247)"/><path class="s" d="M3814.713,811.3q-.131-1.89-.263-3.894a3.221,3.221,0,0,1-.923.129A3.533,3.533,0,0,1,3810.6,806a3.473,3.473,0,0,1-.647-2.047,3.6,3.6,0,0,1,3.577-3.591,2.547,2.547,0,0,1,.453.033c-.035-.525-.075-1.058-.109-1.589-1.178-17.522-2.493-37.072-2.917-43.351-.444-6.595-4.486-14.8-8.6-20.81-3.524-5.133-7.1-8.663-8.563-8.219l3.092,15.34a5.434,5.434,0,0,1,1.369,3.624,5.368,5.368,0,0,1-.284,1.724l16.141,80.013c.552.129,1.125.242,1.7.336C3815.588,824.229,3815.191,818.368,3814.713,811.3Zm-7.808-45.682v.007c-.006.007-.013.007-.02.014a3.544,3.544,0,0,1-2.089.674,3.591,3.591,0,0,1,0-7.182,3.548,3.548,0,0,1,1.907.552,3.464,3.464,0,0,1,.795.674v.007a3.572,3.572,0,0,1-.593,5.254Z" transform="translate(-3790.926 -665.67)"/><path class="v" d="M3849.168,803.739l-4.531,63.725c0,6.71-10.486,12.142-23.419,12.142-10.982,0-20.188-3.917-22.722-9.2l-.011-.036c30.78-28.152,23.241-51.074,23.241-51.074C3836.128,819.3,3847.949,812.461,3849.168,803.739Z" transform="translate(-3790.229 -654.193)"/></g></g></svg>