<svg xmlns="http://www.w3.org/2000/svg" width="514.313" height="361.732" viewBox="0 0 514.313 361.732"><defs><style>.a{fill:rgba(15,0,0,0.1);}.b{fill:#c4e4f9;}.aa,.c{fill:#0f62fe;}.d,.e,.f{fill:none;stroke:#fff;stroke-linecap:round;stroke-linejoin:round;}.d,.e{stroke-width:2.5px;}.e{stroke-dasharray:0.73 3.651;}.f{stroke-width:2px;}.g{fill:#8dc0ef;}.h{fill:#1f3598;}.i{fill:#647ddd;opacity:0.17;}.j{fill:#d5e8fa;}.k{fill:#eff6fc;}.l{fill:#bddcff;}.m{fill:#e2e8f2;}.n{fill:#ffc7cb;}.o{fill:#ff8358;}.p{fill:#f2f4f9;}.q{fill:#f2f4fa;}.r{fill:#3772ce;}.s{fill:#fff;}.t{fill:#4568c7;}.u{fill:#a0d2ff;}.v{fill:#cacaca;}.ab,.v{mix-blend-mode:multiply;isolation:isolate;}.ab,.w{fill:#e5e9f9;}.x{fill:#32b98e;}.y{fill:#f26c73;}.z{opacity:0.7;}.aa{opacity:0.8;}.ab{opacity:0.4;}</style></defs><g transform="translate(-1235.221 -380.2)"><g transform="translate(1262.49 632.403)"><path class="a" d="M276,660H763.044s-10.207,18.957-33.539,16.04a135.411,135.411,0,0,1-18.957-1.458c-8.749-1.458-21.873,2.916-24.79,7.291,0,0-21.873,13.124-58.329,0,0,0-33.539-14.582-56.87-1.458,0,0-17.5,18.957-62.7-4.375,0,0-11.666-7.291-32.081,7.291,0,0-20.415,17.5-59.787-7.291,0,0-21.873-5.833-46.663,5.833C369.326,681.873,319.746,689.164,276,660Z" transform="translate(-276 -579.798)"/><path class="b" d="M582.35,634.075s24.644,13.611,13.76,33.064C596.109,667.139,578.478,663.5,582.35,634.075Z" transform="translate(-135.881 -591.677)"/><path class="c" d="M611.519,623s13.124,42.288-20.415,52.5C591.1,675.5,575.064,652.164,611.519,623Z" transform="translate(-133.225 -596.752)"/><path class="c" d="M331.726,621.92s-37.65,20.8-21.022,50.514C310.7,672.434,337.642,666.883,331.726,621.92Z" transform="translate(-262.041 -597.247)"/><path class="b" d="M291.659,605s-20.05,64.608,31.188,80.2C322.848,685.2,347.354,649.557,291.659,605Z" transform="translate(-270.596 -605)"/></g><g transform="translate(1302.352 453.514)"><path class="c" d="M130,0A130,130,0,1,1,0,130,130,130,0,0,1,130,0Z" transform="translate(-67.131 -73.313)"/><path class="d" d="M126.712,172.762H150a11.46,11.46,0,0,1,11.46,11.46v65.461A11.46,11.46,0,0,1,150,261.143H46.46A11.46,11.46,0,0,1,35,249.683V197.146" transform="translate(-35 -156.869)"/><line class="d" x2="7.218" transform="translate(59.618 96.551)"/><line class="d" x2="126.455" transform="translate(0 89.514)"/><line class="d" y1="14.182" x2="1.313" transform="translate(51.078 104.231)"/><line class="d" x2="1.313" y2="14.182" transform="translate(74.063 104.231)"/><line class="d" x2="49.225" transform="translate(38.615 118.413)"/><line class="d" x1="10.737" y1="10.737" transform="translate(108.393 24.259)"/><line class="d" x1="10.065" y1="10.065" transform="translate(98.173 25.034)"/><line class="e" x1="10.065" y1="10.065" transform="translate(108.239 35.099)"/><path class="f" d="M201.659,315.781,204.1,309.9a1.566,1.566,0,0,0-.738-1.995l-7.45-3.779a1.586,1.586,0,0,1-.849-1.536,24.7,24.7,0,0,0-.008-3.538,1.583,1.583,0,0,1,.849-1.538l7.458-3.784a1.564,1.564,0,0,0,.738-1.993l-3.533-8.531a1.567,1.567,0,0,0-1.933-.888l-7.948,2.6a1.582,1.582,0,0,1-1.688-.488,25.063,25.063,0,0,0-2.5-2.505,1.582,1.582,0,0,1-.485-1.687l2.594-7.941a1.564,1.564,0,0,0-.888-1.932l-8.529-3.533a1.565,1.565,0,0,0-1.995.738l-3.779,7.45a1.585,1.585,0,0,1-1.536.849,24.688,24.688,0,0,0-3.536.008,1.584,1.584,0,0,1-1.54-.849l-3.783-7.458a1.565,1.565,0,0,0-1.995-.738L152.5,270.36a1.564,1.564,0,0,0-.888,1.932l2.6,7.949a1.582,1.582,0,0,1-.488,1.688,24.725,24.725,0,0,0-2.505,2.494,1.586,1.586,0,0,1-1.688.487l-7.94-2.6a1.565,1.565,0,0,0-1.932.888l-3.533,8.531a1.563,1.563,0,0,0,.737,1.993l7.45,3.779a1.582,1.582,0,0,1,.849,1.538,25.149,25.149,0,0,0,.008,3.536,1.578,1.578,0,0,1-.849,1.538l-7.458,3.784a1.567,1.567,0,0,0-.738,1.995l3.534,8.529a1.564,1.564,0,0,0,1.932.888l7.949-2.6a1.583,1.583,0,0,1,1.688.488,24.883,24.883,0,0,0,2.494,2.505,1.585,1.585,0,0,1,.487,1.688l-2.6,7.94a1.564,1.564,0,0,0,.888,1.932l8.529,3.533a1.564,1.564,0,0,0,1.995-.738l3.779-7.448a1.583,1.583,0,0,1,1.536-.85,24.924,24.924,0,0,0,3.536-.006,1.58,1.58,0,0,1,1.54.847l3.783,7.458a1.564,1.564,0,0,0,1.995.738l5.33-2.207" transform="translate(-126.516 -266.707)"/><path class="f" d="M198.019,319.085,176.237,297.3a13.647,13.647,0,0,0-18.382-16.155l7.466,7.466-.473,6.957-6.957.471-7.464-7.466a13.645,13.645,0,0,0,16.153,18.382l21.782,21.783a6.828,6.828,0,1,0,9.656-9.656Z" transform="translate(-118.735 -258.917)"/></g><g transform="translate(38 88)"><g transform="translate(1404.27 430.4)"><path class="g" d="M2034.641,945.123a4.254,4.254,0,0,0,3.852,0,1.174,1.174,0,0,0,0-2.225,4.255,4.255,0,0,0-3.852,0A1.174,1.174,0,0,0,2034.641,945.123Z" transform="translate(-1940.001 -747.842)"/><path class="h" d="M2093.11,803.131c4.25-4.923,9.035,2.063,11.294,4.96,1.536,1.969,6.876,7.193,6.292,9.935-.205.961-.322.917-1.271,1.171a5.947,5.947,0,0,1-2.915-.109,16.609,16.609,0,0,1-11.26-8.379c-.093,1.2-.116,2.411-.1,3.619a.347.347,0,0,1-.538.283q-.7-.458-1.378-.954c-1.681-1.242-.94-3-1.395-5A6.277,6.277,0,0,1,2093.11,803.131Z" transform="translate(-2056.251 -716.085)"/><path class="i" d="M1872.568,927.808c10.815-6.243,28.347-6.243,39.16,0s10.814,16.366,0,22.609-28.345,6.243-39.16,0S1861.755,934.051,1872.568,927.808Z" transform="translate(-1689.31 -743.493)"/><path class="i" d="M1850.609,850.129l144-81.9,89.058,53.47a1.6,1.6,0,0,1-.037,2.768l-139.984,78.921a9.363,9.363,0,0,1-9.481-.091l-83.585-50.16A1.746,1.746,0,0,1,1850.609,850.129Z" transform="translate(-1842.502 -708.611)"/><path class="g" d="M2033.84,878.377v50.635a.565.565,0,0,0,.041.2.448.448,0,0,0,.395.239h4.579a.449.449,0,0,0,.395-.239.563.563,0,0,0,.041-.2V878.377a.439.439,0,0,0-.435-.436h-4.579A.439.439,0,0,0,2033.84,878.377Z" transform="translate(-1939.999 -733.317)"/><path class="g" d="M2033.84,887.049a.386.386,0,0,0,.049.189.884.884,0,0,0-.049.287,1.339,1.339,0,0,0,.8,1.11,4.247,4.247,0,0,0,3.855,0,1.34,1.34,0,0,0,.8-1.11.872.872,0,0,0-.049-.287.381.381,0,0,0,.049-.189v-8.672a.439.439,0,0,0-.435-.436h-4.579a.439.439,0,0,0-.435.436Z" transform="translate(-1939.999 -733.317)"/><path class="g" d="M1847.455,841.294a4.256,4.256,0,0,0,3.852,0,1.174,1.174,0,0,0,0-2.224,4.256,4.256,0,0,0-3.852,0A1.174,1.174,0,0,0,1847.455,841.294Z" transform="translate(-1607.785 -724.46)"/><path class="g" d="M1846.655,774.547v50.636a.56.56,0,0,0,.042.2.445.445,0,0,0,.394.239h4.579a.447.447,0,0,0,.394-.239.573.573,0,0,0,.041-.2V774.547a.439.439,0,0,0-.435-.436h-4.579A.438.438,0,0,0,1846.655,774.547Z" transform="translate(-1607.783 -709.935)"/><path class="g" d="M1846.655,783.219a.386.386,0,0,0,.049.189.887.887,0,0,0-.049.287,1.34,1.34,0,0,0,.8,1.11,4.249,4.249,0,0,0,3.855,0,1.341,1.341,0,0,0,.8-1.11.878.878,0,0,0-.05-.287.383.383,0,0,0,.05-.189v-8.672a.439.439,0,0,0-.435-.436h-4.579a.438.438,0,0,0-.436.436Z" transform="translate(-1607.783 -709.935)"/><path class="g" d="M2148.336,878.646a4.256,4.256,0,0,0,3.852,0,1.174,1.174,0,0,0,0-2.224,4.262,4.262,0,0,0-3.852,0A1.174,1.174,0,0,0,2148.336,878.646Z" transform="translate(-2141.787 -732.872)"/><path class="g" d="M2147.536,811.9v50.636a.567.567,0,0,0,.042.2.448.448,0,0,0,.4.238h4.578a.445.445,0,0,0,.394-.238.557.557,0,0,0,.042-.2V811.9a.439.439,0,0,0-.436-.435h-4.578A.439.439,0,0,0,2147.536,811.9Z" transform="translate(-2141.786 -718.347)"/><path class="g" d="M2147.536,825.485a.387.387,0,0,0,.049.189.9.9,0,0,0-.049.287,1.342,1.342,0,0,0,.8,1.11,4.251,4.251,0,0,0,3.856,0,1.34,1.34,0,0,0,.8-1.11.891.891,0,0,0-.049-.287.385.385,0,0,0,.049-.189v-8.672a.438.438,0,0,0-.436-.436h-4.578a.439.439,0,0,0-.437.436Z" transform="translate(-2141.786 -719.453)"/><path class="j" d="M1859.841,761.734l.01,10.861-16.171,5.971.825-5.918Z" transform="translate(-1613.224 -707.147)"/><path class="j" d="M2138.858,812.109v-9.7l17.924,11.523-1.2,3.191Z" transform="translate(-2138.858 -716.308)"/><path class="j" d="M2087.434,754.743l-83.969-49.087a19.023,19.023,0,0,0-19.035-.1l-138.615,79.17a5.012,5.012,0,0,0-.02,8.691l85.333,49.281a19.021,19.021,0,0,0,19.029,0l137.255-79.293A5.011,5.011,0,0,0,2087.434,754.743Z" transform="translate(-1842.987 -693.933)"/><path class="k" d="M2087.825,742.967l-83.969-49.086a19.026,19.026,0,0,0-19.036-.1l-138.614,79.17a5.011,5.011,0,0,0-.021,8.691l85.333,49.282a19.023,19.023,0,0,0,19.029,0L2087.8,751.634A5.011,5.011,0,0,0,2087.825,742.967Z" transform="translate(-1843.68 -691.281)"/><path class="g" d="M1944.6,812.611,1987.223,788c1.935-1.117,1.935-2.928,0-4.044l-16.757-9.675a7.741,7.741,0,0,0-7.006,0l-42.626,24.611c-1.934,1.117-1.934,2.928,0,4.044l16.758,9.675A7.738,7.738,0,0,0,1944.6,812.611Z" transform="translate(-1800.702 -709.784)"/><path class="g" d="M1988.674,785.658V789.7l-47.58,26.5-21.71-12.535v-3.071Z" transform="translate(-1800.702 -712.535)"/><path class="l" d="M1944.6,808.648l42.626-24.611c1.935-1.116,1.935-2.927,0-4.044l-16.757-9.675a7.745,7.745,0,0,0-7.006,0l-42.626,24.611c-1.934,1.116-1.934,2.927,0,4.044l16.758,9.675A7.743,7.743,0,0,0,1944.6,808.648Z" transform="translate(-1800.702 -708.892)"/><path class="l" d="M1938.357,804.714l41.3-23.845-3.629-2.1-41.3,23.845Z" transform="translate(-1803.575 -710.985)"/><path class="l" d="M1930.325,809.352l41.3-23.845-3.629-2.1-41.3,23.846Z" transform="translate(-1789.318 -712.029)"/><path class="m" d="M1979.075,781.007,1938.6,804.378l-2.807-1.621,40.478-23.371Z" transform="translate(-1803.814 -711.122)"/><path class="m" d="M1971.042,785.645l-40.478,23.371-2.807-1.622,40.478-23.37Z" transform="translate(-1789.557 -712.167)"/><path class="m" d="M1986.892,775.739l-40.478,23.371-2.807-1.622,40.479-23.37Z" transform="translate(-1817.688 -709.936)"/><path class="h" d="M2036.75,906.858l-.944-.549c-.143-.083-.142-.218,0-.3l.947-.547a.577.577,0,0,1,.522,0l.943.549a.16.16,0,0,1,0,.3l-.948.547a.575.575,0,0,1-.522,0Z" transform="translate(-1940.479 -739.501)"/><rect class="h" width="3.679" height="8.819" rx="1.584" transform="translate(148.621 177.866)"/><path class="n" d="M1978.569,858.4l-.131,2.823-1.628,39.754c.007.149.019.119.028.055a5.853,5.853,0,0,1,.376,2.1c-2.449,1.79-4.551,2.789-7.822,2.623a27.9,27.9,0,0,0-.5-5.787c-.057-.424-3.213-39.718-3.213-39.718v-.034C1970.52,860.336,1973.726,858.135,1978.569,858.4Z" transform="translate(-1826.465 -728.912)"/><path class="h" d="M1987.58,924.109c-3.156,2.232-2.85,4.322-7.585,3.156a8.777,8.777,0,0,1-4.1-1.963,3.245,3.245,0,0,1-.776-3.921,5.247,5.247,0,0,1,3.429-1.905,21.122,21.122,0,0,1,6.8-.393,5.8,5.8,0,0,1,3.052,1C1990.081,921.441,1989,923.107,1987.58,924.109Z" transform="translate(-1844.172 -742.557)"/><path class="n" d="M1977.259,914.245a8.288,8.288,0,0,0-2.132,1.531,30.6,30.6,0,0,0-6.466,6.607c.495,1.464,2.1,2.526,3.854,3.052a26.117,26.117,0,0,0,3-1.062,16.357,16.357,0,0,0,6.628-5.5c.2-.289.393-.68.195-.969l-2.643-2.559c-2.649-2.564-6.565,1.095-9.235,2.489-1.01.527-2.156,1.259-2.194,2.4-.037,1.065.945,1.876,1.908,2.331a9.148,9.148,0,0,0,3.009.835Z" transform="translate(-1832.323 -741.493)"/><path class="h" d="M1982,914.8a4.2,4.2,0,0,0-3.835.556c-1.854,1.119-3.229,2.949-4.849,4.358-2.232,1.941-4.48,3.027-7.212,1.778-.9.546-1.529,1.175-1.5,1.9.04,1.056,1.933,2.411,2.768,2.985,2.624,1.805,6.842-1.092,8.976-2.177,1.681-.855,3.463-.7,5.064-1.409C1983.565,921.831,1984.25,916.825,1982,914.8Z" transform="translate(-1830.452 -741.563)"/><rect class="h" width="3.679" height="8.819" rx="1.584" transform="translate(170.777 163.858)"/><path class="o" d="M1948.685,851.975l-.131-1.287-1.628,34.822c.006.149.019.119.028.055a5.868,5.868,0,0,1,.375,2.1c-2.449,1.791-4.55,2.789-7.823,2.624a27.866,27.866,0,0,0-.5-5.787c-.057-.424-2.39-33.142-2.39-33.142v-.034C1941.458,851.443,1943.842,851.708,1948.685,851.975Z" transform="translate(-1774.064 -727.18)"/><path class="h" d="M1958.518,906.379c-3.156,2.232-2.85,4.323-7.585,3.156a8.785,8.785,0,0,1-4.1-1.963,3.245,3.245,0,0,1-.776-3.921,5.241,5.241,0,0,1,3.429-1.9,21.116,21.116,0,0,1,6.8-.394,5.8,5.8,0,0,1,3.053,1C1961.019,903.711,1959.934,905.378,1958.518,906.379Z" transform="translate(-1792.593 -738.564)"/><path class="o" d="M1948.2,896.515a8.292,8.292,0,0,0-2.132,1.531,30.6,30.6,0,0,0-6.467,6.607c.494,1.464,2.1,2.527,3.854,3.053a26.205,26.205,0,0,0,3-1.062,16.354,16.354,0,0,0,6.628-5.5c.2-.289.393-.679.195-.969l-2.643-2.559c-2.649-2.563-6.565,1.1-9.235,2.489-1.009.527-2.155,1.259-2.194,2.4-.036,1.064.945,1.875,1.907,2.33a9.155,9.155,0,0,0,3.009.835Z" transform="translate(-1780.743 -737.5)"/><path class="h" d="M1952.936,897.069a4.2,4.2,0,0,0-3.835.556c-1.854,1.12-3.23,2.95-4.849,4.358-2.232,1.941-4.48,3.027-7.212,1.779-.9.545-1.529,1.175-1.5,1.9.04,1.057,1.933,2.411,2.768,2.985,2.623,1.805,6.841-1.092,8.975-2.177,1.681-.855,3.463-.7,5.065-1.409C1954.5,904.1,1955.187,899.1,1952.936,897.069Z" transform="translate(-1778.873 -737.57)"/><path class="p" d="M1986.586,758.083c0,10.278,3.949,13.168,3.949,13.168s.865.546,2.151,1.354a.326.326,0,0,1,.068.057l.273.159q.922.58,2.014,1.264l.069-.035.729.433,5.577,3.3a4.911,4.911,0,0,0,4.518.034l12.428-7.181c1.252-.718,1.252-1.89,0-2.618l-5.588-3.232-3.255-1.878h-.011c-.808-.467-1.582-.911-2.254-1.309-4.563-2.629-.226-14.819-.01-15.422v-.012h-.011Z" transform="translate(-1883.398 -703.642)"/><path class="k" d="M1995.01,758.083c0,10.278,3.949,13.168,3.949,13.168s.865.546,2.152,1.354a.31.31,0,0,1,.068.057l.274.159q.921.58,2.014,1.264l.069-.035.728.433,16.935-9.7-3.254-1.878h-.012c-.808-.467-1.582-.911-2.254-1.309-4.564-2.629-.227-14.819-.011-15.422l-.012-.012Z" transform="translate(-1891.822 -703.642)"/><path class="q" d="M2010,758.282c0,1.579,1.108,2.219,2.476,1.429a5.473,5.473,0,0,0,2.476-4.288c0-1.579-1.109-2.219-2.476-1.43A5.472,5.472,0,0,0,2010,758.282Z" transform="translate(-1897.19 -705.328)"/><path class="o" d="M1936.268,807.137a25.768,25.768,0,0,0,.089-2.943c-.612-1.282-1.158-2.438-1.151-2.535l-19.218-13.34a3.482,3.482,0,0,0-2.518-.921,3.573,3.573,0,0,0-.5.057,3.467,3.467,0,0,0-1.927,1.071,3.505,3.505,0,0,0,.206,4.948l18.839,16.2.046.039A3.789,3.789,0,0,0,1936.268,807.137Z" transform="translate(-1741.213 -712.926)"/><path class="n" d="M1935.609,795.269c2.308,2.145,5.557,2.4,7.256.573s1.206-5.05-1.1-7.195-5.557-2.4-7.256-.573S1933.3,793.125,1935.609,795.269Z" transform="translate(-1766.838 -712.805)"/><path class="h" d="M1898.828,852.493l11.706-6.708c4.53-2.268,8.1.551,12.955,1.981l-.617-.617,2.285-3.567,27.044-1.908c9.469,5.368,11.3,28.393,11.3,28.393l-.008.173h0c1.119,9.345-13.441,16.368-24.676,18.08a18.442,18.442,0,0,1-11.495-2.019l-1.88-1.01-27.119-14.566C1890.156,866.1,1890.444,856.71,1898.828,852.493Z" transform="translate(-1754.651 -725.15)"/><path class="m" d="M1930.39,825.326a34.93,34.93,0,0,0,.087,4.753,2.2,2.2,0,0,1-1,2.06,29.139,29.139,0,0,1-4.242,2.208c-4.252,1.783-9.125,2.788-13.662,1.783-.181-.042-.355-.086-.536-.129-2.607-.667-8.277-2.207-8.788-5.437a1.6,1.6,0,0,1-.042-.4c.009-.3.025-.615.042-.927V814.746c-1.411-4.2-4-7.194-2.709-12.527a18.965,18.965,0,0,1,3.021-6.787c2.389-3.29,5.835-5.325,10.233-6.606,1.394-.4,2.771-.728,4.017-.987a24.76,24.76,0,0,1,8.069-.3c2.83.364,5.54,1.325,7.229,3.212a6.591,6.591,0,0,1,.606.762c3.359,5.039,1.575,12.086.355,17.557C1931.862,814.443,1930.6,819.846,1930.39,825.326Z" transform="translate(-1731.022 -712.913)"/><path class="r" d="M1928.461,777.347c.017,0,.033.019.05.037a1.137,1.137,0,0,0,.017-.24A.3.3,0,0,1,1928.461,777.347Z" transform="translate(-1747.59 -710.618)"/><path class="n" d="M1924.89,790.391h-4.124a7.086,7.086,0,0,1-6.988-5.914l-.256-1.535-.937-5.617h10.121Z" transform="translate(-1731.651 -710.659)"/><path class="o" d="M1925.343,779.868l-5.025,7.633H1920l-1.248-7.448Z" transform="translate(-1736.879 -711.231)"/><path class="o" d="M1926.693,774.29a.851.851,0,0,0,.645.053c.022-.055.011-.116.043-.169Z" transform="translate(-1745.073 -709.949)"/><path class="o" d="M1931.2,782.638c-.118.008-.236.032-.353.047l.928-.888C1931.573,782.073,1931.385,782.356,1931.2,782.638Z" transform="translate(-1752.675 -711.666)"/><path class="o" d="M1923.35,790.672c-1.585,2.321-6.872,1.488-11.921-1.84,1.4-.407,2.776-.736,4.024-.992a25,25,0,0,1,8.065-.3A3.486,3.486,0,0,1,1923.35,790.672Z" transform="translate(-1729.666 -712.914)"/><path class="r" d="M1928.064,771.624c.017,0,.032.021.047.041a1.172,1.172,0,0,0,.041-.237A.3.3,0,0,1,1928.064,771.624Z" transform="translate(-1746.906 -709.33)"/><path class="n" d="M1910.526,762.3c-.2,2.982.016,5.967,1.535,8.324,1.67,2.626,4.667,3.9,7.6,4.28a8.865,8.865,0,0,0,4.837-.562c2.872-1.346,4.493-4.71,5.513-7.939a27.923,27.923,0,0,0,.9-3.75,14.229,14.229,0,0,0,.014-4.345,12.436,12.436,0,0,0-4.7-7.612,19.615,19.615,0,0,0-7.965-3.44,6.638,6.638,0,0,0-4.183.082,3.54,3.54,0,0,0-1.906,2.146,2.7,2.7,0,0,0-.142,1.057c-.362,2.693-.722,5.366-1.084,8.058C1910.778,759.811,1910.618,761.042,1910.526,762.3Z" transform="translate(-1736.196 -703.819)"/><path d="M1931.12,757.914a18.743,18.743,0,0,1-1.82,6.461,16.748,16.748,0,0,1-5.725,6.893c-2.024,1.268-6,2.252-7.7-.016-1.675-2.224-.253-5.754-1.909-7.992a7.675,7.675,0,0,0-1.83-1.574,14.445,14.445,0,0,1-3.879-3.753c-2.5-3.837-1.324-10.953,2.93-13.207a14.357,14.357,0,0,1,11.242-.553,12.853,12.853,0,0,1,3.243,1.823c.055.048.11.088.18.145A13.99,13.99,0,0,1,1931.12,757.914Z" transform="translate(-1733.554 -702.993)"/><path class="o" d="M1926.005,768.7a.846.846,0,0,0,.637.118c.027-.053.022-.115.059-.164Z" transform="translate(-1743.86 -708.705)"/><path class="o" d="M1929.087,769.485a4.842,4.842,0,0,1-1.252,2.681,5.2,5.2,0,0,1-1.381,1.294,2.226,2.226,0,0,1-1.826.25c-1.866-.66-1.4-3.455-.668-4.775a3.39,3.39,0,0,1,2.766-1.807A2.263,2.263,0,0,1,1929.087,769.485Z" transform="translate(-1744.166 -708.362)"/><path class="s" d="M1940.713,805.686c-1.3-2.315-2.408-3.99-5.2-3.539a36.19,36.19,0,0,0-5.7,1.678c-.179.551-.349,1.116-.5,1.713-1.29,5.333,1.3,8.328,2.709,12.527v14.493c-.017.311-.034.624-.043.927a1.6,1.6,0,0,0,.043.4c.511,3.229,6.181,4.77,8.788,5.437.181.043.355.087.536.129v-32.9A4.2,4.2,0,0,1,1940.713,805.686Z" transform="translate(-1760.805 -716.232)"/><path class="h" d="M1921.4,746.8l.431.043Z" transform="translate(-1735.418 -703.784)"/><path class="n" d="M1970.31,834.28a25.5,25.5,0,0,0,.089-2.944c-.611-1.282-1.158-2.437-1.152-2.535l-19.218-13.34a3.484,3.484,0,0,0-2.518-.921,3.54,3.54,0,0,0-.5.057,3.5,3.5,0,0,0-1.722,6.019l18.839,16.2.045.039A3.789,3.789,0,0,0,1970.31,834.28Z" transform="translate(-1801.632 -719.039)"/><path class="n" d="M1969.651,822.412c2.308,2.145,5.557,2.4,7.257.573s1.206-5.05-1.1-7.195-5.558-2.4-7.257-.573S1967.343,820.267,1969.651,822.412Z" transform="translate(-1827.256 -718.917)"/><path class="n" d="M1980.182,815.407h0a1.507,1.507,0,0,0-.078-2.13l-6.63-6.16a1.506,1.506,0,0,0-2.129.078h0a1.506,1.506,0,0,0,.078,2.129l6.628,6.16A1.508,1.508,0,0,0,1980.182,815.407Z" transform="translate(-1832.561 -717.277)"/><path class="l" d="M1934.8,834.268l.071.026a4.971,4.971,0,0,0,6.406-3.571l6.213-24.858a5.194,5.194,0,0,0-10.078-2.52l-2.45,9.8-2.415,9.653h0C1931.484,827.419,1929.284,832.211,1934.8,834.268Z" transform="translate(-1768.839 -715.633)"/><path d="M1863.687,759.641c.055-.47.1-.941.129-1.414.253-4.031-.5-8.311,3.014-11.321,2.444-2.094,5.976-2.213,9.189-2.025,3.513.2,7.141.691,10.125,2.555,5.6,3.5,5.576,12.338,3.907,18.019a44.933,44.933,0,0,0-1.5,7c.041,3.64,2.145,5.486,6.294,6.184a9.221,9.221,0,0,1,7,5.455,12.9,12.9,0,0,1,1.089,4.661c.245,5.014.723,6.405,6.552,8.186a13.037,13.037,0,0,1,8.156,7.29c4.094,8.95-.122,21.887-9.418,28.895s-20.15,5.431-24.245-3.52a20.157,20.157,0,0,1-.99-12.692c1.629-7.383.923-8.613-2.342-11.313a.265.265,0,0,1-.027-.025,9.686,9.686,0,0,1-2.642-3.49,14.891,14.891,0,0,1-.3-10.506c1.551-4.995,1.32-8.254-1.135-10.073a23.6,23.6,0,0,0-5.492-1.732,10.039,10.039,0,0,1-7.4-5.9C1861.475,769.111,1863.124,764.461,1863.687,759.641Z" transform="translate(-1687.209 -703.338)"/><path class="t" d="M1879.513,955.428a6.3,6.3,0,0,0-2.852-4.938c-1.575-.909-2.851-.173-2.852,1.646a6.3,6.3,0,0,0,2.852,4.939C1878.236,957.983,1879.513,957.246,1879.513,955.428Z" transform="translate(-1656.229 -749.568)"/><path class="t" d="M1879.513,955.428a6.3,6.3,0,0,0-2.852-4.938c-1.575-.909-2.851-.173-2.852,1.646a6.3,6.3,0,0,0,2.852,4.939C1878.236,957.983,1879.513,957.246,1879.513,955.428Z" transform="translate(-1656.229 -749.568)"/><path class="t" d="M1877.128,950.414l-2.457,1.28,3.858,7.031,2.877-1.5-.729-3.96Z" transform="translate(-1658.79 -749.639)"/><path class="g" d="M1882.64,957.05a6.3,6.3,0,0,0-2.851-4.939c-1.574-.909-2.851-.172-2.851,1.647a6.3,6.3,0,0,0,2.851,4.939C1881.363,959.606,1882.64,958.869,1882.64,957.05Z" transform="translate(-1661.781 -749.933)"/><path class="m" d="M1882.64,957.05a6.3,6.3,0,0,0-2.851-4.939c-1.574-.909-2.851-.172-2.851,1.647a6.3,6.3,0,0,0,2.851,4.939C1881.363,959.606,1882.64,958.869,1882.64,957.05Z" transform="translate(-1661.781 -749.933)"/><path class="t" d="M1923.765,930.693a6.306,6.306,0,0,0-2.851-4.939c-1.575-.909-2.851-.172-2.851,1.646a6.3,6.3,0,0,0,2.851,4.939C1922.488,933.249,1923.765,932.512,1923.765,930.693Z" transform="translate(-1734.769 -743.998)"/><path class="t" d="M1923.765,930.693a6.306,6.306,0,0,0-2.851-4.939c-1.575-.909-2.851-.172-2.851,1.646a6.3,6.3,0,0,0,2.851,4.939C1922.488,933.249,1923.765,932.512,1923.765,930.693Z" transform="translate(-1734.769 -743.998)"/><path class="t" d="M1921.381,925.68l-2.457,1.281,3.857,7.03,2.877-1.5-.729-3.96Z" transform="translate(-1737.329 -744.068)"/><path class="g" d="M1926.893,932.316a6.3,6.3,0,0,0-2.851-4.938c-1.574-.91-2.851-.172-2.851,1.646a6.3,6.3,0,0,0,2.851,4.939C1925.616,934.872,1926.893,934.135,1926.893,932.316Z" transform="translate(-1740.321 -744.363)"/><path class="m" d="M1926.893,932.316a6.3,6.3,0,0,0-2.851-4.938c-1.574-.91-2.851-.172-2.851,1.646a6.3,6.3,0,0,0,2.851,4.939C1925.616,934.872,1926.893,934.135,1926.893,932.316Z" transform="translate(-1740.321 -744.363)"/><path class="t" d="M1921.689,956.519a6.3,6.3,0,0,0-2.852-4.938c-1.574-.91-2.851-.173-2.851,1.646a6.3,6.3,0,0,0,2.851,4.939C1920.412,959.076,1921.689,958.338,1921.689,956.519Z" transform="translate(-1731.084 -749.814)"/><path class="t" d="M1921.689,956.519a6.3,6.3,0,0,0-2.852-4.938c-1.574-.91-2.851-.173-2.851,1.646a6.3,6.3,0,0,0,2.851,4.939C1920.412,959.076,1921.689,958.338,1921.689,956.519Z" transform="translate(-1731.084 -749.814)"/><path class="t" d="M1919.3,951.506l-2.457,1.281,3.857,7.03,2.877-1.5-.729-3.959Z" transform="translate(-1733.644 -749.885)"/><path class="g" d="M1924.816,958.142a6.3,6.3,0,0,0-2.851-4.939c-1.576-.909-2.851-.172-2.851,1.646a6.3,6.3,0,0,0,2.851,4.938C1923.539,960.7,1924.816,959.961,1924.816,958.142Z" transform="translate(-1736.634 -750.179)"/><path class="m" d="M1924.816,958.142a6.3,6.3,0,0,0-2.851-4.939c-1.576-.909-2.851-.172-2.851,1.646a6.3,6.3,0,0,0,2.851,4.938C1923.539,960.7,1924.816,959.961,1924.816,958.142Z" transform="translate(-1736.634 -750.179)"/><path class="t" d="M1878.728,931.611a6.3,6.3,0,0,0-2.851-4.938c-1.574-.909-2.851-.172-2.851,1.646a6.3,6.3,0,0,0,2.851,4.938C1877.451,934.167,1878.728,933.43,1878.728,931.611Z" transform="translate(-1654.837 -744.204)"/><path class="t" d="M1878.728,931.611a6.3,6.3,0,0,0-2.851-4.938c-1.574-.909-2.851-.172-2.851,1.646a6.3,6.3,0,0,0,2.851,4.938C1877.451,934.167,1878.728,933.43,1878.728,931.611Z" transform="translate(-1654.837 -744.204)"/><path class="t" d="M1876.344,926.6l-2.457,1.281,3.857,7.03,2.877-1.5-.729-3.959Z" transform="translate(-1657.398 -744.275)"/><path class="g" d="M1881.856,933.234A6.3,6.3,0,0,0,1879,928.3c-1.574-.909-2.851-.172-2.851,1.646A6.3,6.3,0,0,0,1879,934.88C1880.58,935.79,1881.856,935.053,1881.856,933.234Z" transform="translate(-1660.389 -744.57)"/><path class="m" d="M1881.856,933.234A6.3,6.3,0,0,0,1879,928.3c-1.574-.909-2.851-.172-2.851,1.646A6.3,6.3,0,0,0,1879,934.88C1880.58,935.79,1881.856,935.053,1881.856,933.234Z" transform="translate(-1660.389 -744.57)"/><path class="k" d="M1873.741,942.133l12.617-7.285-12.617-7.285c-2.071-1.2-2.071-3.152,0-4.348h0a8.357,8.357,0,0,1,7.532,0l12.617,7.285,12.617-7.285a8.356,8.356,0,0,1,7.531,0c2.071,1.2,2.071,3.153,0,4.348l-12.617,7.285,12.617,7.285c2.071,1.2,2.071,3.153,0,4.348h0a8.355,8.355,0,0,1-7.531,0L1893.89,939.2l-12.617,7.285a8.356,8.356,0,0,1-7.532,0C1871.671,945.285,1871.671,943.328,1873.741,942.133Z" transform="translate(-1691.052 -743.312)"/><path class="k" d="M1873.741,942.133l12.617-7.285-12.617-7.285c-2.071-1.2-2.071-3.152,0-4.348h0a8.357,8.357,0,0,1,7.532,0l12.617,7.285,12.617-7.285a8.356,8.356,0,0,1,7.531,0c2.071,1.2,2.071,3.153,0,4.348l-12.617,7.285,12.617,7.285c2.071,1.2,2.071,3.153,0,4.348h0a8.355,8.355,0,0,1-7.531,0L1893.89,939.2l-12.617,7.285a8.356,8.356,0,0,1-7.532,0C1871.671,945.285,1871.671,943.328,1873.741,942.133Z" transform="translate(-1691.052 -743.312)"/><path class="g" d="M1904.7,936.392c0,2.357-2.844,4.268-6.354,4.268s-6.354-1.911-6.354-4.268,2.845-6.262,6.354-6.262S1904.7,934.035,1904.7,936.392Z" transform="translate(-1695.513 -745.071)"/><path class="k" d="M1903.5,933.26c0,1.729-2.087,3.132-4.662,3.132s-4.661-1.4-4.661-3.132,2.086-3.131,4.661-3.131S1903.5,931.531,1903.5,933.26Z" transform="translate(-1696.004 -745.071)"/><path class="g" d="M1899.368,890.8a2.871,2.871,0,0,1,2.851,2.891v27.823a2.852,2.852,0,1,1-5.7,0V893.69A2.871,2.871,0,0,1,1899.368,890.8Z" transform="translate(-1696.53 -736.213)"/><path class="u" d="M1849.172,874.951a4.716,4.716,0,0,0,.017.485,14.182,14.182,0,0,0,7.315,11.36l31.1,17.056a8.273,8.273,0,0,0,1.472.633,8.492,8.492,0,0,0,6.946-.756l35.626-20.994a19.444,19.444,0,0,0,9.487-14.944l3.731-39.933.387-4.151a4.434,4.434,0,0,0-6.379-4.389L1900.317,838.4a4.436,4.436,0,0,0-2.244,2.581l-12.33,37.418a5.148,5.148,0,0,1-7.44,2.861l-20.122-11.508A6.022,6.022,0,0,0,1849.172,874.951Z" transform="translate(-1702.905 -720.01)"/><path class="t" d="M1850.233,904.476a2.472,2.472,0,0,0,2.667,3.319,8.475,8.475,0,0,0,3.131-1.093l35.626-20.994a19.445,19.445,0,0,0,9.487-14.944L1904.579,834a1.776,1.776,0,0,0-2.555-1.757l-31.115,15.384a4.451,4.451,0,0,0-2.243,2.589l-12.323,37.418C1855.919,888.935,1853.314,896.394,1850.233,904.476Z" transform="translate(-1662.91 -722.983)"/></g><g transform="translate(1400.369 298.694)"><path class="v" d="M2105.377,354.213l179.081-104.058c3.3-2.108,6.144-.67,6.355,3.209l.881,16.231,6.7,123.308a13.354,13.354,0,0,1-5.591,10.842L2113.721,507.8c-3.3,2.108-6.144.671-6.354-3.209l-6.7-123.308-.881-16.231A13.352,13.352,0,0,1,2105.377,354.213Z" transform="translate(-2099.775 -249.183)"/><path class="w" d="M2087.4,399.244l6.7,123.305c.21,3.884,3.056,5.316,6.355,3.213l101.278-58.852,77.8-45.212a13.344,13.344,0,0,0,5.592-10.836l-6.7-123.311-84,49.108Z" transform="translate(-2078.963 -264.145)"/><path class="s" d="M2098.412,369.967l.874,16.145.007.085,107.034-62.585,83.995-49.108-.079-1.432-.8-14.8c-.21-3.877-3.056-5.316-6.354-3.207L2104,359.124A13.353,13.353,0,0,0,2098.412,369.967Z" transform="translate(-2090.854 -251.098)"/><path class="x" d="M2398.133,440.585a5.838,5.838,0,0,1-2.542,4.69c-1.462.892-2.692.239-2.75-1.46a5.839,5.839,0,0,1,2.542-4.689C2396.845,438.234,2398.076,438.887,2398.133,440.585Z" transform="translate(-2378.288 -323.097)"/><path class="y" d="M2382.4,430.983a5.839,5.839,0,0,1-2.541,4.689c-1.462.892-2.692.238-2.75-1.46a5.839,5.839,0,0,1,2.541-4.689C2381.113,428.631,2382.344,429.284,2382.4,430.983Z" transform="translate(-2352.958 -319.353)"/><g class="z" transform="translate(15.692 42.357)"><path class="c" d="M2366.668,421.38a5.841,5.841,0,0,1-2.542,4.689c-1.461.892-2.691.238-2.749-1.46a5.835,5.835,0,0,1,2.541-4.689C2365.381,419.028,2366.611,419.681,2366.668,421.38Z" transform="translate(-2343.32 -357.965)"/><path class="aa" d="M2105.68,359.973l62.181-35.9v-5.457l-62.181,35.9Z" transform="translate(-1988.525 -318.617)"/><path class="aa" d="M2105.68,429.6l47.385-27.358v-5.457l-47.385,27.358Z" transform="translate(-1973.729 -349.097)"/><path class="aa" d="M2105.68,429.6l47.385-27.358v-5.457l-47.385,27.358Z" transform="translate(-2096.508 -285.92)"/><path class="aa" d="M2117.807,452.23l47.385-27.358v-5.457l-47.385,27.358Z" transform="translate(-1993.254 -357.924)"/><path class="aa" d="M2129.933,474.864l47.386-27.358v-5.457l-47.386,27.358Z" transform="translate(-2012.778 -366.75)"/><path class="aa" d="M2142.06,497.5l47.385-27.358v-5.457l-47.385,27.358Z" transform="translate(-2032.302 -375.577)"/><path class="aa" d="M2142.06,529.7l76.084-43.928v-5.457l-76.084,43.927Z" transform="translate(-2061.002 -381.673)"/><path class="aa" d="M2142.06,529.7l76.084-43.928v-5.457l-76.084,43.927Z" transform="translate(-2142.06 -421.01)"/><path class="aa" d="M2142.06,535.021l58.224-33.616v-5.457l-58.224,33.615Z" transform="translate(-2043.14 -387.769)"/><path class="aa" d="M2117.807,536.652l58.224-33.615v-5.457l-58.224,33.615Z" transform="translate(-2004.093 -388.405)"/><path class="aa" d="M2216.792,398.54l17.868-10.317v-5.456l-17.868,10.317Z" transform="translate(-2123.108 -343.633)"/><path class="aa" d="M2124.087,386.233l62.18-35.9v-5.457l-62.18,35.9Z" transform="translate(-2018.161 -328.857)"/><path class="aa" d="M2144.958,413.916l62.18-35.9v-5.457l-62.18,35.9Z" transform="translate(-2051.763 -339.652)"/><path class="aa" d="M2144.958,429.549l62.18-35.9v-5.457l-62.18,35.9Z" transform="translate(-2051.763 -345.748)"/><path class="aa" d="M2144.958,429.549l62.18-35.9v-5.457l-62.18,35.9Z" transform="translate(-2124.477 -317.139)"/><path class="aa" d="M2124.087,409.8,2146,397.149v-4.994l-21.914,12.652Z" transform="translate(-1977.894 -347.293)"/><path class="c" d="M2254.356,493.979a10.067,10.067,0,0,0,.041,1.033,1.029,1.029,0,0,0,.131.471.14.14,0,0,0,.218.02,2.027,2.027,0,0,0,.335-.339l10.479-13.008a1.813,1.813,0,0,0,.28-.772,8.983,8.983,0,0,0,.089-1.445q0-.474-.028-.813a4.673,4.673,0,0,0-.068-.544.7.7,0,0,0-.116-.3.287.287,0,0,0-.17-.111l-10.465-.88a.539.539,0,0,0-.562.424,5.072,5.072,0,0,0-.163,1.543q0,.747.021,1.172a3.462,3.462,0,0,0,.076.649.424.424,0,0,0,.149.278.655.655,0,0,0,.26.069l7.869.375-7.719,9.229a4.747,4.747,0,0,0-.335.448,1.578,1.578,0,0,0-.2.506,4.974,4.974,0,0,0-.1.766Q2254.356,493.215,2254.356,493.979Z" transform="translate(-2171.427 -371.171)"/><path class="c" d="M2290.055,503.383a.583.583,0,0,0,.177.28.419.419,0,0,0,.308.059,1.918,1.918,0,0,0,.491-.147,7.066,7.066,0,0,0,.745-.385,8,8,0,0,0,.915-.6,2.836,2.836,0,0,0,.54-.53,1.039,1.039,0,0,0,.211-.5,1.214,1.214,0,0,0-.054-.506l-8.17-25.868a.565.565,0,0,0-.164-.3.391.391,0,0,0-.3-.072,1.8,1.8,0,0,0-.5.151,7.485,7.485,0,0,0-.744.384,7.987,7.987,0,0,0-.923.605,2.707,2.707,0,0,0-.526.522,1.051,1.051,0,0,0-.205.492,1.459,1.459,0,0,0,.041.514Z" transform="translate(-2212.003 -369.87)"/><path class="c" d="M2310,511.919q0,.474.028.8a3.934,3.934,0,0,0,.075.539.748.748,0,0,0,.123.3.213.213,0,0,0,.17.093l10.479.872a.477.477,0,0,0,.329-.08.7.7,0,0,0,.225-.331,2.3,2.3,0,0,0,.123-.608q.035-.374.034-.921,0-.747-.021-1.172a3.536,3.536,0,0,0-.075-.649.476.476,0,0,0-.149-.287.456.456,0,0,0-.26-.059l-7.87-.375,7.719-9.229a3.99,3.99,0,0,0,.348-.456,1.544,1.544,0,0,0,.2-.506,4.382,4.382,0,0,0,.088-.762q.022-.458.021-1.223,0-.674-.034-1.037a.993.993,0,0,0-.123-.476c-.06-.075-.134-.08-.225-.016a1.837,1.837,0,0,0-.329.335l-10.492,13.035a1.69,1.69,0,0,0-.28.745A8.068,8.068,0,0,0,2310,511.919Z" transform="translate(-2253.511 -381.152)"/><path class="c" d="M2505.579,500.263l-.027-.011-.038-.015C2505.008,500.072,2506.5,501.152,2505.579,500.263Z" transform="translate(-2476.451 -389.435)"/></g><g class="z" transform="translate(38.425 184.175)"><path class="ab" d="M1376.261,428.141c-1.593,8.184,3.884,12.8,9.723,12.887s10.952-5.552,11.421-12.586-3.885-12.8-9.723-12.887S1377.608,421.221,1376.261,428.141Z" transform="translate(-1365.481 -413.552)"/><path class="c" d="M1455.115,539.951l2.171,2.817,4.828-9.826-2.608-1.926Z" transform="translate(-1445.915 -506.019)"/><path class="c" d="M1469.045,579.357l0,0,5.986-11.647h0c.165-.492.728-.781,1.609-.729a6.192,6.192,0,0,1,4.276,2.438,1.425,1.425,0,0,1,.215,1.6h0l-1.4,2.73h0l-5.938,11.58-6.149-3.239Z" transform="translate(-1467.584 -534.815)"/><path class="c" d="M1506.87,641.508c-1.375-.177-1.686.569-.693,1.666a8.158,8.158,0,0,0,4.289,2.306c1.376.177,1.686-.569.693-1.666A8.16,8.16,0,0,0,1506.87,641.508Z" transform="translate(-1505.597 -594.485)"/><path class="c" d="M1384.507,413.771c5.784-3.227,11.965-.315,13.807,6.505s-1.353,14.965-7.136,18.193-11.965.315-13.807-6.505S1378.724,417,1384.507,413.771Zm-6.452,17.483a8.554,8.554,0,0,0,12.62,5.356c4.913-2.742,7.627-9.66,6.062-15.453s-7.262-9.059-12.174-6.317S1376.491,425.461,1378.056,431.254Z" transform="translate(-1367.051 -411.07)"/><path class="c" d="M1405.385,422.327c-.013-.15-.025-.3-.033-.45,0-.027,0-.054,0-.081,0-.071-.005-.143-.008-.215,0-.087-.008-.174-.01-.261,0-.048,0-.1,0-.145,0-.078,0-.156,0-.233,0-.06,0-.12,0-.18s0-.144.007-.216,0-.156.007-.234c0-.038,0-.077,0-.115,0-.1.013-.2.02-.307,0-.066.007-.133.012-.2,0-.019,0-.038,0-.056q.022-.275.052-.55v-.006c0-.017,0-.033.006-.05q.028-.243.062-.485c0-.026.008-.051.012-.076.009-.061.02-.122.029-.183.014-.087.026-.174.041-.26.01-.055.021-.111.031-.166s.025-.134.038-.2c.01-.049.018-.1.028-.148.02-.1.043-.2.065-.293.011-.052.022-.1.034-.156l.012-.056q.06-.256.128-.511l.006-.022c.013-.049.028-.1.041-.146.036-.131.072-.261.111-.391.006-.021.013-.04.02-.061.032-.107.068-.212.1-.318.028-.085.053-.17.082-.255.005-.015.012-.03.017-.045.094-.274.2-.545.3-.812.009-.023.017-.046.026-.069.028-.068.058-.134.086-.2.046-.11.092-.22.141-.328s.087-.192.132-.287.1-.214.152-.32c.017-.035.032-.071.05-.105.041-.083.085-.165.128-.248.029-.057.058-.114.088-.17q.141-.265.29-.524l0,0h0l0,0q.171-.295.353-.581c.005-.008.01-.017.016-.026.088-.139.18-.275.273-.411l.055-.083,0,0q.166-.24.339-.472l.018-.023c.035-.047.072-.093.108-.14.074-.1.147-.193.222-.287l.044-.052c.051-.063.1-.125.156-.187s.114-.139.173-.207c.022-.025.045-.049.067-.074.058-.065.116-.129.175-.193s.1-.112.15-.166c.029-.031.059-.06.088-.09.064-.066.128-.132.193-.2.045-.045.089-.092.134-.137s.073-.067.109-.1c.065-.063.132-.125.2-.186.04-.037.08-.076.12-.113s.09-.076.135-.115c.066-.058.132-.115.2-.171.034-.029.068-.06.1-.088.056-.046.115-.09.171-.135s.125-.1.189-.149l.076-.06c.077-.058.157-.113.235-.17.054-.039.107-.079.162-.117l.041-.03c.143-.1.288-.194.435-.286l0,0,.033-.02q.2-.125.4-.242l.1-.058q.167-.093.335-.18c.042-.022.085-.041.128-.063l.173-.085c.045-.022.09-.045.135-.066.073-.033.145-.063.217-.095l.156-.068.064-.028q.218-.089.436-.167h0q.222-.08.444-.148l.058-.016c.053-.016.107-.031.161-.046.076-.021.153-.045.229-.064.038-.01.076-.017.114-.026.066-.016.133-.031.2-.046.051-.011.1-.025.154-.035s.108-.019.162-.029l.2-.036c.036-.006.071-.014.107-.019.064-.01.127-.015.191-.023.079-.01.158-.021.236-.029l.083-.01c.066-.006.131-.008.2-.012.085-.006.17-.012.255-.016l.075,0c.058,0,.116,0,.173,0,.1,0,.2,0,.306,0h.086c.113,0,.226.01.338.018l.042,0c.086.007.171.014.256.023.054.006.107.014.161.021l.121.016c.148.021.295.045.441.074l.013,0c.04.008.078.018.118.027.122.026.243.053.364.085.059.015.117.033.175.05.077.022.155.042.232.067l.058.021c.118.039.235.082.351.125.057.021.114.041.171.063.172.069.342.142.509.223l2.74,1.312c-.168-.08-.338-.154-.509-.222-.056-.023-.114-.042-.171-.063-.117-.044-.234-.087-.352-.125-.1-.031-.192-.059-.289-.087-.058-.017-.117-.035-.175-.05-.12-.031-.242-.059-.364-.085-.04-.009-.078-.019-.118-.027-.15-.03-.3-.055-.454-.077l-.122-.016c-.138-.018-.276-.033-.416-.044l-.044,0c-.14-.01-.281-.015-.423-.018-.1,0-.2,0-.306,0-.083,0-.165,0-.248,0s-.17.01-.256.016-.186.013-.28.022c-.078.008-.157.018-.235.029-.1.013-.2.026-.3.042l-.2.036c-.105.02-.211.041-.317.064l-.2.046c-.114.028-.228.058-.342.09l-.162.046c-.167.05-.335.1-.5.165h0c-.166.06-.333.126-.5.2l-.155.068c-.117.051-.235.1-.352.161l-.173.085c-.154.077-.309.156-.463.242-.172.1-.34.2-.507.3l-.031.018c-.163.1-.322.209-.481.319-.054.038-.107.077-.161.116-.1.075-.21.152-.313.231-.063.048-.126.1-.188.148-.093.073-.184.148-.275.224-.067.056-.133.113-.2.17q-.129.113-.255.229-.1.092-.2.186-.122.118-.243.239c-.065.065-.129.13-.193.2-.08.084-.16.17-.239.256-.058.064-.118.128-.175.194-.081.092-.16.185-.239.279-.052.063-.106.124-.157.188-.09.111-.179.225-.266.339-.036.047-.073.092-.108.14q-.185.246-.36.5l-.053.08c-.1.145-.2.291-.29.439q-.18.283-.35.576l-.006.01h0c-.1.173-.2.349-.292.527l-.088.17q-.091.175-.178.353c-.052.106-.1.213-.151.32s-.089.191-.132.288-.094.218-.14.327c-.038.09-.076.18-.112.271q-.161.4-.3.812c-.034.1-.066.2-.1.3s-.07.212-.1.318c-.045.149-.088.3-.13.449-.014.05-.029.1-.042.148q-.078.293-.146.588c-.012.052-.023.1-.034.156q-.049.22-.093.441-.02.1-.038.2-.039.212-.073.426c-.01.061-.02.122-.029.183-.028.188-.053.376-.075.564,0,.015,0,.031-.006.046q-.034.306-.057.613c-.005.067-.008.133-.012.2q-.014.21-.023.421c0,.078,0,.157-.007.235q-.006.2-.006.394c0,.078,0,.156,0,.234q0,.2.011.408c0,.071,0,.142.008.214q.014.266.036.532c0,.026,0,.052.006.078q.027.3.066.606c.007.057.016.114.024.172q.03.217.066.432c.011.069.024.139.037.208q.037.2.081.407c.014.066.027.131.042.2.044.193.09.385.141.576s.113.4.174.591c.017.055.037.109.055.163.044.133.089.265.137.395.027.075.056.149.085.223.043.11.086.219.131.327.033.079.067.158.1.235q.066.148.135.294t.127.259c.044.087.089.174.135.259q.081.151.165.3c.044.077.088.152.133.227.071.117.144.232.219.345.047.071.092.143.14.212l.073.1q.125.177.255.346l.051.066q.166.211.339.41l0,0q.174.2.355.384l.074.073q.138.138.279.27l.114.1c.089.08.178.157.269.233l.1.087c.124.1.249.2.377.289l.055.038q.167.119.338.229l.125.078c.1.06.194.118.293.174l.122.069c.136.075.274.147.414.214l-2.74-1.312c-.14-.067-.277-.139-.414-.214l-.122-.069q-.148-.084-.293-.174l-.125-.078q-.171-.11-.338-.229l-.054-.038c-.127-.092-.253-.189-.377-.289l-.1-.087q-.136-.113-.269-.232l-.114-.1c-.095-.088-.187-.178-.279-.27l-.074-.074-.022-.022q-.169-.176-.333-.362l0,0q-.163-.186-.318-.383l-.021-.027-.051-.067q-.13-.169-.255-.345l-.073-.1c-.018-.026-.037-.051-.054-.077-.03-.044-.057-.091-.086-.135-.074-.113-.148-.228-.219-.345-.019-.031-.039-.06-.058-.092s-.05-.091-.075-.135q-.085-.146-.165-.3c-.022-.041-.046-.08-.068-.121s-.045-.092-.067-.137c-.043-.085-.086-.171-.127-.259-.021-.045-.044-.088-.065-.133s-.046-.108-.07-.161c-.035-.078-.069-.156-.1-.235-.017-.04-.036-.079-.052-.12-.027-.068-.052-.138-.079-.207s-.058-.148-.085-.223c-.011-.03-.023-.059-.034-.089-.036-.1-.068-.2-.1-.305-.018-.055-.037-.108-.054-.163,0-.014-.009-.027-.013-.04q-.081-.256-.153-.52l-.008-.031q-.065-.241-.122-.485c-.007-.03-.013-.061-.019-.092-.015-.065-.029-.131-.042-.2s-.034-.154-.05-.231c-.012-.059-.021-.118-.031-.177s-.025-.138-.037-.207c-.008-.046-.017-.091-.024-.136-.016-.1-.028-.2-.042-.3-.008-.057-.017-.114-.024-.171,0-.019-.006-.038-.008-.057q-.034-.268-.057-.537s0-.008,0-.012C1405.389,422.38,1405.387,422.354,1405.385,422.327Z" transform="translate(-1398.041 -405.498)"/><path class="c" d="M1380.081,411.116a9.537,9.537,0,0,1,8.536-.653,10.83,10.83,0,0,1,6,7.469c1.882,6.965-1.4,15.317-7.314,18.618a10.215,10.215,0,0,1-5.287,1.37,8.9,8.9,0,0,1-3.248-.717,10.83,10.83,0,0,1-6-7.469C1370.885,422.768,1374.166,414.416,1380.081,411.116Zm-5.95,18.135a9.53,9.53,0,0,0,5.277,6.571,7.831,7.831,0,0,0,2.858.631,8.99,8.99,0,0,0,4.652-1.205c5.2-2.9,8.091-10.253,6.435-16.382a9.53,9.53,0,0,0-5.277-6.571,8.391,8.391,0,0,0-7.51.574C1375.363,415.773,1372.476,423.122,1374.131,429.251Z" transform="translate(-1362.44 -408.897)"/></g></g></g></g></svg>