<svg xmlns="http://www.w3.org/2000/svg" width="479.22" height="426.544" viewBox="0 0 479.22 426.544"><defs><style>.a{fill:#f5f5f5;}.b{fill:#e9ebf5;}.c{fill:#cecece;}.d{fill:#b1b9dc;}.e{fill:#fff;}.f{fill:#bec1e0;}.g{fill:#3d2768;}.h{fill:#e2e5f3;}.i{fill:#ee3f5c;}.j{fill:#5678bb;}.k,.r{fill:#647ddd;}.k{opacity:0.22;}.l{fill:#1f3598;}.m{fill:#ffc7cb;}.n{fill:#bddcff;}.o{fill:#3772ce;}.p{fill:#e2e8f2;}.q{fill:#8dc0ef;}.r{opacity:0.17;}.s{fill:#d5e8fa;}.t{fill:#cbcbcb;}.u{fill:#f2f4fa;}.v{fill:#ff8358;}.w{fill:#ced6e9;}.x{fill:#eff6fc;}.y{fill:#a0d2ff;}.z{fill:none;stroke:#0f62fe;stroke-width:2px;}.aa{fill:#0f62fe;}</style></defs><g transform="translate(-1390.408 77.344)"><g transform="translate(-38 -46)"><g transform="translate(1674.085 -31.344)"><path class="a" d="M1564.606-604.35v175.981L1760.56-315.255V-491.234Z" transform="translate(-1559.617 610.639)"/><path class="b" d="M1771.449-497.792,1575.5-610.918l-10.894,6.289L1760.56-491.513Z" transform="translate(-1559.617 610.918)"/><path class="c" d="M1572.294-589.667v6.589a1.261,1.261,0,0,0,.63,1.093l5.71,3.3a.471.471,0,0,0,.707-.409l0-6.818a.873.873,0,0,0-.436-.755L1573-590.076A.471.471,0,0,0,1572.294-589.667Z" transform="translate(-1559.944 610.035)"/><path class="c" d="M1595.04-577.621v6.59a1.262,1.262,0,0,0,.63,1.091l5.71,3.3a.472.472,0,0,0,.709-.408l0-6.82a.868.868,0,0,0-.436-.753l-5.907-3.408A.472.472,0,0,0,1595.04-577.621Z" transform="translate(-1560.91 609.523)"/><path class="c" d="M1617.779-564.494v6.589a1.262,1.262,0,0,0,.63,1.093l5.709,3.3a.472.472,0,0,0,.709-.409l0-6.818a.869.869,0,0,0-.436-.754l-5.907-3.408A.472.472,0,0,0,1617.779-564.494Z" transform="translate(-1561.877 608.965)"/><path class="d" d="M1769.258-310.512l7.935-4.574,2.955-177.684-10.889,6.279Z" transform="translate(-1568.315 605.897)"/><path class="e" d="M1801.7-385.134s-2.239,6.8-7.941,8.658c0,0-1.674-1.308-3.854-3.265v-.009c-3.606-3.247-8.624-8.307-9.821-12.256-1.922-6.333-1.777-13.46,3.462-13.641a9.77,9.77,0,0,1,4.394,1.41s0,.009.008.009a16.315,16.315,0,0,1,6.06,6.5C1798.4-389.835,1801.7-385.134,1801.7-385.134Z" transform="translate(-1568.727 602.194)"/><path class="d" d="M1570.281-417l-10.886,6.467,187.052,105.689,8.226-5.535Z" transform="translate(-1559.395 602.676)"/></g><g transform="translate(1697.065 27.68)"><path class="f" d="M3154,643.766V591.7l-11.907-6.792v52.955l11.907,5.9Z" transform="translate(-2987.758 -451.811)"/><path class="g" d="M3174.935,633.145V571.778l-11.906-6.428v61.891l11.906,5.9Z" transform="translate(-3030.74 -452.841)"/><path class="h" d="M3193.077,623.561V549.886l-11.907-5.178v72.95l11.907,5.9Z" transform="translate(-3067.977 -453.929)"/><path class="g" d="M3354.1,523.367l-.067,114.2-100.583-60.28V464.262Z" transform="translate(-3253.448 -464.262)"/><g transform="translate(45.958 62.033)"><rect class="e" width="44.691" height="0.759" transform="translate(38.705 22.999) rotate(-150.006)"/></g><g transform="translate(45.958 75.008)"><rect class="e" width="44.691" height="0.759" transform="translate(38.705 22.999) rotate(-150.006)"/></g><g transform="translate(45.958 86.509)"><rect class="e" width="44.691" height="0.759" transform="translate(38.705 22.999) rotate(-150.006)"/></g><g transform="translate(45.958 99.862)"><rect class="e" width="44.691" height="0.759" transform="translate(38.705 22.999) rotate(-150.006)"/></g><path class="i" d="M3327.641,530.765a9.052,9.052,0,0,0,5.887,1.221c6.971-1.062,11.249-10.931,9.558-22.044a31.5,31.5,0,0,0-1.547-6.083l-11.076,8.01Z" transform="translate(-3308.427 -443.069)"/><path class="i" d="M3350.819,503.974l-5.018-10.262C3347.551,497.344,3349.489,501.283,3350.819,503.974Z" transform="translate(-3341.656 -444.877)"/><path class="i" d="M3353.641,492.756h.013v-.012C3353.648,492.75,3353.648,492.756,3353.641,492.756Z" transform="translate(-3349.822 -444.568)"/><path class="j" d="M3329.972,492.082v.015l.38.781,6.069,12.41c.22.463.431.9.63,1.29l.174.349c.113.228.22.447.319.645l.385.789.434.872,11.076-8.01c-2.868-7.844-8.519-12.972-14.14-12.115A9.143,9.143,0,0,0,3329.972,492.082Z" transform="translate(-3316.327 -440.433)"/><path class="i" d="M3350.819,503.974l-5.018-10.262C3347.551,497.344,3349.489,501.283,3350.819,503.974Z" transform="translate(-3341.656 -444.877)"/><path class="e" d="M3343.813,511.817c1.206,7.927,5.121,14.345,9.8,16.977l2.822-18.9-.432-.873-.387-.789c-.1-.2-.2-.417-.317-.645l-.175-.349c-.2-.395-.409-.827-.63-1.29-1.608-3.254-3.952-8.018-6.069-12.41l-.379-.781h-.015C3344.405,496.7,3342.607,503.951,3343.813,511.817Z" transform="translate(-3334.401 -441.098)"/><path class="i" d="M3345.8,493.712c1.749,3.632,3.688,7.571,5.018,10.262Z" transform="translate(-3341.656 -444.877)"/><path class="h" d="M3049.669,717.561l-.029.486A3.978,3.978,0,0,0,3049.669,717.561Z" transform="translate(-2839.105 -516.501)"/><path class="h" d="M3083.553,717.561a4.184,4.184,0,0,0,.046.628Z" transform="translate(-2896.098 -516.501)"/></g></g><g transform="translate(1599.371 29.443)"><path class="k" d="M589.034,755.872c9.095-5.251,9.095-13.764,0-19.016s-23.84-5.251-32.936,0-9.095,13.765,0,19.016S579.94,761.123,589.034,755.872Z" transform="translate(-543.465 -592.966)"/><path d="M564.323,526.583a39.292,39.292,0,0,1,.143-6.242c.476-5.444,3.255-10.522,9.205-11.2,10.9-1.249,13.07,6.331,13.618,15.5-3.385,3.926-7.418,7.8-9.526,12.587-.451,1.025-5.987,1.083-6.724.769-1.788-.761-3.982-3.778-5-5.38A13.058,13.058,0,0,1,564.323,526.583Z" transform="translate(-549.08 -509.004)"/><path class="l" d="M590.159,738.864a3.129,3.129,0,0,0,2.213,3.827,52.166,52.166,0,0,0,8.87,4.066,5.008,5.008,0,0,0,2.215.29,1.921,1.921,0,0,0,1.625-1.36,2.913,2.913,0,0,0-.974-2.3c-2.355-2.788-4.8-5.652-8.078-7.265a5.786,5.786,0,0,0-3.108-.727,2.762,2.762,0,0,0-2.42,1.846Z" transform="translate(-558.778 -593.887)"/><path class="l" d="M562.489,748.953a6.519,6.519,0,0,0,.421,2.222,18.035,18.035,0,0,0,2.436,3.961l1.638,2.211a11.287,11.287,0,0,0,1.862,2.118,3.8,3.8,0,0,0,2.6.942,1.055,1.055,0,0,0,.7-.263,1.1,1.1,0,0,0,.209-.356c.661-1.614.209-3.445-.251-5.127-.646-2.368-1.5-4.6-2.145-6.938-.445-1.624-.973-3.9-2.966-4.183C563.839,743.114,562.423,746.191,562.489,748.953Z" transform="translate(-548.418 -596.935)"/><path class="m" d="M565.8,661.1l-2.1-34.846.719-8.34,17.093,2.6,9.148-.433.312,40.067-4.185,31.022c-.1.718,1.2,1.17,1.2,1.872a2.5,2.5,0,0,1-2.331,2.541,6.65,6.65,0,0,1-3.421-.837,4.438,4.438,0,0,1-1.981-3.7l1.256-28.241-2.631-30.178-.766,14.07-.932,14.327-7.257,37.815c-.117,1.563-.644,2.764-2.038,2.764h-1.843a2.863,2.863,0,0,1-2.68-3.017Z" transform="translate(-548.75 -549.844)"/><path class="l" d="M565.361,602.514l-5.352,8.815s-.975,29.266.352,45.5a22.191,22.191,0,0,0,15.292,5.862s14.229-2.523,19.87-7.624c0,0-.24-39.25-9.741-52.811Z" transform="translate(-547.36 -543.972)"/><path class="n" d="M594.283,549.987h0a3.886,3.886,0,0,0-2.163,5.051L602.2,580.218a3.886,3.886,0,0,0,5.051,2.163h0a3.885,3.885,0,0,0,2.162-5.051L599.334,552.15A3.885,3.885,0,0,0,594.283,549.987Z" transform="translate(-559.426 -524.267)"/><path class="o" d="M591.219,543.447c-.012,0-.025.014-.038.028a.877.877,0,0,1-.013-.181A.222.222,0,0,0,591.219,543.447Z" transform="translate(-559.173 -521.862)"/><path class="n" d="M565.3,566.279l2.016,17.1a7.56,7.56,0,0,1,.639.484c3.9,3.348,9.371,3.677,14.634,3.554a31.32,31.32,0,0,0,3.6-1.269A3.984,3.984,0,0,0,588.5,583.2l3.66-14.268.049-.247a8.707,8.707,0,0,0-.8-5.613l-2.778-5.335-.839-2.861c-.271-3.146-2.894-6.287-5.151-4.865l-1.038.358-1.661.574-7.3,2.55-2.136.741-4.156,1.445a4.226,4.226,0,0,0-2.507,5.113Z" transform="translate(-548.868 -524.249)"/><path class="p" d="M563.836,560.89l1.463,5.483c.735.907,1.464,1.815,2.2,2.723,1.55,1.92,3.168,3.89,5.323,4.9,3.581,1.673,7.694.309,11.331-1.235,2.248-.944,4.477-1.957,6.669-3.032.444-.209.9-.438,1.334-.7l.049-.247a8.7,8.7,0,0,0-.8-5.613l-2.778-5.335-1.059-3.611c-.051-2.4-1.936-5.059-4.931-4.115l-1.038.358-1.661.575-7.3,2.55-2.136.741-4.156,1.445A4.226,4.226,0,0,0,563.836,560.89Z" transform="translate(-548.868 -524.344)"/><path class="m" d="M574.587,554.664a20.061,20.061,0,0,0,3.946,4.489,10.921,10.921,0,0,0,3.76,2.415,4.554,4.554,0,0,0,4.267-.58,4.4,4.4,0,0,0,1.463-3.211,9.112,9.112,0,0,0-.679-3.544,19.794,19.794,0,0,0-1.655-3.433l-1.661.574-7.3,2.55Z" transform="translate(-552.956 -524.676)"/><path class="p" d="M612.968,577.215l-.089.183a.3.3,0,0,0,.071.006C612.95,577.345,612.962,577.28,612.968,577.215Z" transform="translate(-567.314 -534.581)"/><rect class="m" width="7.599" height="13.979" transform="translate(23.679 17.782)"/><path class="m" d="M579.061,541.405l6.893,7.23.036-.1v-4.871Z" transform="translate(-554.633 -521.154)"/><ellipse class="l" cx="5.805" cy="6.4" rx="5.805" ry="6.4" transform="translate(28.413 4.937)"/><path class="o" d="M578.539,533.033c-.012,0-.024.013-.036.027a.8.8,0,0,1-.012-.172A.212.212,0,0,0,578.539,533.033Z" transform="translate(-554.419 -517.959)"/><path class="m" d="M578.008,529.324c.949-4.853,4.046-9.925,9.273-10.785a.554.554,0,0,0,.386-.85.7.7,0,0,0-.082-.688c.049-.006.1-.014.148-.02a4.67,4.67,0,0,1,2.983.37,2.6,2.6,0,0,1,1.206,1.709,2.044,2.044,0,0,1,.025.783l.191,5.967c.025.9.051,1.809.025,2.734a10.141,10.141,0,0,1-1.7,5.967,7.33,7.33,0,0,1-5.738,2.563c-1.168.029-2.374-.815-3.415-1.442-1.954-1.2-2.869-3.1-3.364-5.536-.032-.167-.054-.336-.084-.5A.527.527,0,0,0,578.008,529.324Z" transform="translate(-554.184 -511.965)"/><path d="M583.391,514.315a4.392,4.392,0,0,1,2.078-2.739,3.636,3.636,0,0,1,2-.511,3.944,3.944,0,0,1,2.916.752c.641.278,1.286.608,1.92.953a11.723,11.723,0,0,1,3.957,3.034,6.525,6.525,0,0,1,1.093,5.409,5.9,5.9,0,0,1-1.994,3.22c-.157.59-.555-.63-.712-.039-.24-1.811-1.284-1.524-2.781-2.57a37.215,37.215,0,0,0-4.855-2.524,8.438,8.438,0,0,1-2.888-2.087,3.8,3.8,0,0,1-.5-.812A2.053,2.053,0,0,1,583.391,514.315Z" transform="translate(-556.191 -509.752)"/><path class="n" d="M619.745,594.443a5.327,5.327,0,1,1-5.324-5.163A5.245,5.245,0,0,1,619.745,594.443Z" transform="translate(-565.896 -539.106)"/><path class="m" d="M615.667,595.669h0a4.2,4.2,0,0,0,3.658,4.671l13.891,2.156a4.2,4.2,0,0,0,4.671-3.659h0a4.2,4.2,0,0,0-3.659-4.672l-13.891-2.156A4.2,4.2,0,0,0,615.667,595.669Z" transform="translate(-568.348 -540.117)"/><path d="M577.568,529.375a12.917,12.917,0,0,0,5.787-11.25,9.058,9.058,0,0,0-5.637,11.553Z" transform="translate(-553.944 -512.424)"/><path class="p" d="M542.705,583.565a37.029,37.029,0,0,0,3.229,3.865,25.89,25.89,0,0,1,2.86,3.484,15.4,15.4,0,0,1,1.688,3.316,2.906,2.906,0,0,1,.195,1.005,4.019,4.019,0,0,0,6.056,5.285,8.029,8.029,0,0,0,1.7-7.55,20.824,20.824,0,0,0-2.84-6.344,32.086,32.086,0,0,0-3.738-4.636,30.62,30.62,0,0,1-2.566-3.028c-1.186-1.7-1.621-3.658-1.018-4.562a8.226,8.226,0,0,1,2.157-1.688l9.232-5.909a4.019,4.019,0,0,0-4.328-6.773L546.1,565.94a14.384,14.384,0,0,0-4.508,3.993C539.088,573.67,539.53,579.023,542.705,583.565Z" transform="translate(-539.978 -527.901)"/><path d="M566.024,535.64a29.271,29.271,0,0,1,.578-5.168,6.873,6.873,0,0,1,1.409-3.341,2.927,2.927,0,0,1,3.306-.874c1.733.841,1.625,3.282,1.516,5.205-.631,11.172,10.615,17.753,10.5,28.8-.042,4.016-2.021,7.725-3.948,11.249-.407.743-1.048,1.6-1.879,1.438a1.9,1.9,0,0,1-1-.734,19.966,19.966,0,0,1-4.114-9.751c-.9-5.609.038-10.644-2.249-15.972-.826-1.924-2.179-3.576-3.121-5.446A11.943,11.943,0,0,1,566.024,535.64Z" transform="translate(-549.744 -515.391)"/><path class="m" d="M579.174,537.237a.532.532,0,0,1-.529.059,1.344,1.344,0,0,0-.035-.188Z" transform="translate(-554.464 -519.542)"/><path class="m" d="M572.959,531.3c.828-.287,1.648.636,2.008,1.69a9.229,9.229,0,0,0,.558,1.574,1.189,1.189,0,0,0,.6.535,1.785,1.785,0,0,1-.9,2.063,2.094,2.094,0,0,1-2.019-.813,4.439,4.439,0,0,1-1.3-2.54C571.786,532.766,572.206,531.56,572.959,531.3Z" transform="translate(-551.944 -517.344)"/><path class="m" d="M556.9,620.969a4.023,4.023,0,0,0,5.674-.308,8.029,8.029,0,0,0,1.7-7.55,8.082,8.082,0,0,1-7.952,1.259,2.908,2.908,0,0,1,.195,1.005A4.015,4.015,0,0,0,556.9,620.969Z" transform="translate(-545.823 -548.042)"/></g><g transform="translate(1401.555 113.456)"><path class="q" d="M2039.2,945.533a4.9,4.9,0,0,1-4.44,0,1.353,1.353,0,0,1,0-2.564,4.9,4.9,0,0,1,4.44,0A1.353,1.353,0,0,1,2039.2,945.533Z" transform="translate(-1863.683 -718.16)"/><path class="l" d="M2111.986,803.392c-4.9-5.674-10.413,2.378-13.017,5.716-1.77,2.269-7.925,8.29-7.252,11.451.237,1.108.37,1.056,1.465,1.35a6.853,6.853,0,0,0,3.36-.125c5.778-1.392,10.359-4.658,12.978-9.657.107,1.388.133,2.779.116,4.171a.4.4,0,0,0,.62.326q.809-.528,1.589-1.1c1.938-1.431,1.083-3.46,1.607-5.768A7.233,7.233,0,0,0,2111.986,803.392Z" transform="translate(-1869.872 -703.068)"/><path class="r" d="M2119.23,862.621l-165.962-94.387-102.642,61.625a1.845,1.845,0,0,0,.043,3.19L2012,924.009a10.791,10.791,0,0,0,10.927-.1l96.334-57.811A2.012,2.012,0,0,0,2119.23,862.621Z" transform="translate(-1843.979 -699.517)"/><path class="q" d="M2040.121,878.444V936.8a.649.649,0,0,1-.047.228.516.516,0,0,1-.455.275h-5.277a.517.517,0,0,1-.455-.275.649.649,0,0,1-.047-.228V878.444a.506.506,0,0,1,.5-.5h5.277A.506.506,0,0,1,2040.121,878.444Z" transform="translate(-1863.683 -711.258)"/><path class="q" d="M2040.121,888.439a.447.447,0,0,1-.056.218,1.023,1.023,0,0,1,.056.331,1.544,1.544,0,0,1-.919,1.279,4.9,4.9,0,0,1-4.443,0,1.544,1.544,0,0,1-.919-1.279,1,1,0,0,1,.057-.331.437.437,0,0,1-.057-.218v-10a.506.506,0,0,1,.5-.5h5.277a.506.506,0,0,1,.5.5Z" transform="translate(-1863.683 -711.258)"/><path class="q" d="M1852.017,841.7a4.9,4.9,0,0,1-4.44,0,1.353,1.353,0,0,1,0-2.564,4.9,4.9,0,0,1,4.44,0A1.353,1.353,0,0,1,1852.017,841.7Z" transform="translate(-1843.651 -707.048)"/><path class="q" d="M1852.936,774.614v58.36a.644.644,0,0,1-.048.227.513.513,0,0,1-.454.275h-5.278a.516.516,0,0,1-.455-.275.654.654,0,0,1-.047-.227v-58.36a.506.506,0,0,1,.5-.5h5.278A.505.505,0,0,1,1852.936,774.614Z" transform="translate(-1843.65 -700.146)"/><path class="q" d="M1852.936,784.609a.445.445,0,0,1-.056.218,1.021,1.021,0,0,1,.056.331,1.544,1.544,0,0,1-.919,1.279,4.9,4.9,0,0,1-4.444,0,1.545,1.545,0,0,1-.919-1.279,1,1,0,0,1,.057-.331.438.438,0,0,1-.057-.218v-10a.506.506,0,0,1,.5-.5h5.278a.505.505,0,0,1,.5.5Z" transform="translate(-1843.65 -700.146)"/><path class="q" d="M2152.9,879.056a4.9,4.9,0,0,1-4.44,0,1.353,1.353,0,0,1,0-2.564,4.911,4.911,0,0,1,4.44,0A1.353,1.353,0,0,1,2152.9,879.056Z" transform="translate(-1875.852 -711.046)"/><path class="q" d="M2153.818,811.967v58.36a.647.647,0,0,1-.049.228.515.515,0,0,1-.455.274h-5.277a.514.514,0,0,1-.454-.274.651.651,0,0,1-.047-.228v-58.36a.505.505,0,0,1,.5-.5h5.277A.506.506,0,0,1,2153.818,811.967Z" transform="translate(-1875.852 -704.143)"/><path class="q" d="M2153.818,826.874a.442.442,0,0,1-.057.218,1.025,1.025,0,0,1,.057.331,1.546,1.546,0,0,1-.919,1.279,4.9,4.9,0,0,1-4.443,0,1.543,1.543,0,0,1-.919-1.279,1.023,1.023,0,0,1,.056-.331.441.441,0,0,1-.056-.218v-10a.5.5,0,0,1,.5-.5h5.277a.506.506,0,0,1,.5.5Z" transform="translate(-1875.852 -704.669)"/><path class="s" d="M1843.692,761.734l-.011,12.517,18.637,6.881-.951-6.82Z" transform="translate(-1843.332 -698.821)"/><path class="s" d="M2159.516,813.588V802.411l-20.658,13.281,1.381,3.677Z" transform="translate(-1874.922 -703.174)"/><path class="s" d="M1846.151,762.626l96.777-56.575a21.924,21.924,0,0,1,21.939-.11l159.757,91.245a5.776,5.776,0,0,1,.023,10.018L2026.3,864a21.923,21.923,0,0,1-21.932,0l-158.191-91.388A5.775,5.775,0,0,1,1846.151,762.626Z" transform="translate(-1843.29 -692.541)"/><path class="t" d="M1846.541,750.852l96.778-56.574a21.927,21.927,0,0,1,21.939-.111l159.757,91.246a5.775,5.775,0,0,1,.024,10.016l-98.35,56.8a21.924,21.924,0,0,1-21.932,0l-158.19-91.387A5.776,5.776,0,0,1,1846.541,750.852Z" transform="translate(-1843.331 -691.281)"/><path class="l" d="M2037.52,907.081l1.088-.632c.165-.1.164-.252,0-.348l-1.092-.631a.665.665,0,0,0-.6,0l-1.087.632a.184.184,0,0,0,0,.348l1.092.63a.661.661,0,0,0,.6,0Z" transform="translate(-1863.882 -714.196)"/><path class="u" d="M2015.708,758.988c0,1.82-1.278,2.558-2.854,1.648a6.308,6.308,0,0,1-2.854-4.943c0-1.82,1.278-2.557,2.854-1.648A6.306,6.306,0,0,1,2015.708,758.988Z" transform="translate(-1861.132 -697.956)"/><path class="o" d="M1928.539,777.378c-.02,0-.039.021-.058.043a1.322,1.322,0,0,1-.02-.277A.339.339,0,0,0,1928.539,777.378Z" transform="translate(-1852.405 -700.47)"/><path class="v" d="M1927.486,774.308a.98.98,0,0,1-.744.061c-.026-.063-.013-.134-.05-.195Z" transform="translate(-1852.216 -700.152)"/><path class="v" d="M1931.5,782.767c.136.009.272.037.407.055l-1.069-1.024C1931.069,782.115,1931.286,782.441,1931.5,782.767Z" transform="translate(-1852.66 -700.968)"/><path class="o" d="M1928.165,771.654c-.02,0-.037.024-.054.047a1.354,1.354,0,0,1-.047-.273A.341.341,0,0,0,1928.165,771.654Z" transform="translate(-1852.362 -699.858)"/><path class="v" d="M1926.808,768.7a.975.975,0,0,1-.735.136c-.031-.061-.025-.132-.068-.188Z" transform="translate(-1852.142 -699.561)"/><path class="l" d="M1921.894,746.8l-.5.05Z" transform="translate(-1851.649 -697.223)"/></g><g transform="translate(1390.408 132.017)"><ellipse class="l" cx="38.863" cy="22.438" rx="38.863" ry="22.438" transform="translate(10.355 172.307)"/><path class="l" d="M1279.8,1585.072c.024,0,.046.022.069.046a1.3,1.3,0,0,0,.023-.3A.346.346,0,0,1,1279.8,1585.072Z" transform="translate(-1204.201 -1561.955)"/><path class="v" d="M1270.685,1589.538l-2.328,16.392c-.322,2.269,2.345,4.108,5.958,4.108s6.8-1.839,7.124-4.108h.059l2.329-16.392Z" transform="translate(-1204.922 -1561.658)"/><path class="o" d="M1295.819,1591.191a4.955,4.955,0,1,1,4.7-4.949A4.834,4.834,0,0,1,1295.819,1591.191Zm0-9.129a4.189,4.189,0,1,0,3.928,4.18A4.064,4.064,0,0,0,1295.819,1582.063Z" transform="translate(-1203.49 -1562.176)"/><path class="v" d="M1275.18,1592.515c-1.434-2.136-2.826,2.873-3.184.611-.372-2.344-3.478-1.363-3.487-3.757-.007-1.7,1.561-3.518,2.265-4.992a10.669,10.669,0,0,1,3.477-4.34,20.554,20.554,0,0,1,6.488-2.791,50.14,50.14,0,0,1,7.763-1.542l.723-2.531h8.136v23.765a4.634,4.634,0,0,1-.157.986,9.907,9.907,0,0,1-13.325,6.821Z" transform="translate(-1204.911 -1562.687)"/><path class="l" d="M1302.548,1573.17a5.753,5.753,0,0,1-1.755,2.478c-3.593,3.305-6.942,3.471-9.993,6.281-2.107,1.928-4.16,7.051-4.025,11.017a2.259,2.259,0,0,0-.107.413,1.472,1.472,0,0,0,.135.3,5.628,5.628,0,0,0,1.216,3.2,7.562,7.562,0,0,0,5.05,2.313,6.662,6.662,0,0,0,4.942-1.432c-.154.137.144,4.849-.183,5.711a7,7,0,0,1-3.846,4.1c-3.815,1.617-8.13-.341-11.216-2.682-1.869-1.42-4.067-5.584-6.333-5.95l-4.619-.743c-1.621-.248-3.43-.607-4.429-1.956a6.472,6.472,0,0,1-.973-2.314c-2.43-8.7-5.016-16.876,1.98-24.836,6.482-7.326,25-7.629,32.564-1.1A5.085,5.085,0,0,1,1302.548,1573.17Z" transform="translate(-1205.203 -1563.306)"/><path class="l" d="M1285.094,1599.072l-10.271-3.374-.629-11.793h10.9Z" transform="translate(-1204.554 -1562.012)"/><path class="v" d="M1281.077,1591.566c.746,2.733,2.964,4.49,4.953,3.926s3-3.239,2.249-5.972-2.964-4.491-4.953-3.925S1280.33,1588.834,1281.077,1591.566Z" transform="translate(-1204.137 -1561.912)"/><rect class="o" width="11.515" height="0.768" transform="translate(84.976 25.682) rotate(-24.214)"/><rect class="l" width="4.335" height="16.617" rx="1.985" transform="translate(82.548 12.279)"/><path class="o" d="M1303.732,1724.427c-3.144-2.471-10.34,1.834-13.794,2.6-2.231.5-10.366.958-9.736,4.825a13.4,13.4,0,0,0-.4,2.963,11.5,11.5,0,0,0,.358,3.773,10.067,10.067,0,0,0,4.774,2.865,6,6,0,0,0,.644-.077,14.279,14.279,0,0,0,4.273-2.007c4.258-2.609,10.637-4.9,13.839-8.846C1305.114,1728.768,1305.513,1725.827,1303.732,1724.427Z" transform="translate(-1204.203 -1553.229)"/><path class="w" d="M3.953,0H11.54a3.953,3.953,0,0,1,3.953,3.953V4.8a3.952,3.952,0,0,1-3.952,3.952H3.955A3.955,3.955,0,0,1,0,4.793v-.84A3.953,3.953,0,0,1,3.953,0Z" transform="translate(77.028 181.076) rotate(-89.292)"/><path class="o" d="M1280.111,1688.907l-.2,37.342a5.141,5.141,0,0,0,4.709,4.385l2.559.188a5.141,5.141,0,0,0,5.513-5.374l4.581-36.541Z" transform="translate(-1204.194 -1555.414)"/><path class="o" d="M1304.736,1678.56,1262,1705.22l-10.347-6.232a12.733,12.733,0,0,1-6.16-10.91v-14.861l2.2,1.628,4.728-2.027L1290,1656.71l.726-.062c.471-.042.932-.062,1.392-.062a16.863,16.863,0,0,1,16.343,12.711c0,.02.01.04.01.061A8.477,8.477,0,0,1,1304.736,1678.56Z" transform="translate(-1206.358 -1557.445)"/><path class="l" d="M1330.812,1679.65a16.875,16.875,0,0,0-16.344-12.721c-.461,0-.922.02-1.392.062l-.726.061-3.879,1.658-22.121,9.494a30.914,30.914,0,0,1-30.562-3.545l-3.369-2.489-6.929-5.118v20.377a12.732,12.732,0,0,0,6.16,10.91L1262,1704.57l12.057,7.256a15.773,15.773,0,0,0,16.487-.123l36.556-22.8A8.462,8.462,0,0,0,1330.812,1679.65Z" transform="translate(-1206.358 -1556.795)"/><path class="q" d="M1364.239,1596.079l-40.259-23.062a3.57,3.57,0,0,0-2.474-.424c-1.141.263-2.211.622-2.208,1.621l-.061,37.42,3.542,2.092c-1.159.564-36.5,17.765-36.556,17.808l-.085,1.443a1.74,1.74,0,0,0,.868,1.51c6.015,3.484,41.254,23.855,41.254,23.855a3.747,3.747,0,0,0,3.747,0l33.492-19.358a1.131,1.131,0,0,0,.565-.979l.058-38.684A3.747,3.747,0,0,0,1364.239,1596.079Z" transform="translate(-1203.803 -1562.727)"/><path class="o" d="M1362.987,1637.848l-45.736-26.095-.094-37.339a1.4,1.4,0,0,1,2.1-1.22l42.175,24.161a2.957,2.957,0,0,1,1.488,2.56Z" transform="translate(-1201.854 -1562.697)"/><path class="l" d="M1320.11,1609.465v-32.2l39.358,22.591.08,32.248Z" transform="translate(-1201.669 -1562.429)"/><path class="e" d="M1364.907,1635.569l-45.712-26.362-32.327,18.684a1.4,1.4,0,0,0,0,2.428l42.084,24.319a2.957,2.957,0,0,0,2.962,0Z" transform="translate(-1203.802 -1560.422)"/><path class="q" d="M1343.554,1630.937c1.242.712,1.862,1.068,3.1,1.781l3.136-1.773-3.1-1.781Z" transform="translate(-1200.196 -1559.168)"/><path class="q" d="M1339.246,1628.463l3.1,1.781,3.136-1.773-3.1-1.781Z" transform="translate(-1200.466 -1559.323)"/><path class="q" d="M1334.938,1625.989l3.1,1.781,3.136-1.773-3.1-1.781Z" transform="translate(-1200.737 -1559.479)"/><path class="q" d="M1330.63,1623.515l3.1,1.781,3.136-1.773-3.1-1.781Z" transform="translate(-1201.008 -1559.635)"/><path class="q" d="M1326.323,1621.041c1.24.713,1.861,1.069,3.1,1.781l3.135-1.773-3.1-1.781Z" transform="translate(-1201.279 -1559.79)"/><path class="q" d="M1322.014,1618.568l3.1,1.781,3.138-1.774-3.1-1.781Z" transform="translate(-1201.549 -1559.945)"/><path class="q" d="M1317.706,1616.094l5.2,2.987,3.136-1.773-5.2-2.987Z" transform="translate(-1201.82 -1560.101)"/><path class="q" d="M1339.413,1633.277l3.1,1.782,3.136-1.773-3.1-1.781Z" transform="translate(-1200.456 -1559.021)"/><path class="q" d="M1335.1,1630.8l3.1,1.781,3.136-1.773-3.1-1.781Z" transform="translate(-1200.727 -1559.176)"/><path class="q" d="M1330.8,1628.33l3.1,1.781,3.137-1.773-3.1-1.781Z" transform="translate(-1200.997 -1559.332)"/><path class="q" d="M1326.488,1625.856l3.1,1.781,3.136-1.773-3.1-1.781C1328.371,1624.793,1327.744,1625.147,1326.488,1625.856Z" transform="translate(-1201.268 -1559.488)"/><path class="q" d="M1322.18,1623.383l3.1,1.78,3.137-1.773-3.1-1.781Z" transform="translate(-1201.539 -1559.643)"/><path class="q" d="M1317.872,1620.909l3.1,1.782,3.137-1.774-3.1-1.781Z" transform="translate(-1201.809 -1559.798)"/><path class="q" d="M1313.565,1618.435l3.1,1.781,3.136-1.773-3.1-1.781Z" transform="translate(-1202.08 -1559.953)"/><path class="q" d="M1335.271,1635.619l3.1,1.781,3.137-1.773c-1.241-.712-1.862-1.068-3.1-1.781Z" transform="translate(-1200.716 -1558.874)"/><path class="q" d="M1330.963,1633.145c1.24.714,1.861,1.069,3.1,1.781l3.137-1.773-3.1-1.781Z" transform="translate(-1200.987 -1559.029)"/><path class="q" d="M1326.655,1630.672l3.1,1.78,3.136-1.773-3.1-1.781Z" transform="translate(-1201.258 -1559.185)"/><path class="q" d="M1322.347,1628.2l3.1,1.782,3.136-1.773-3.1-1.782Z" transform="translate(-1201.528 -1559.341)"/><path class="q" d="M1318.039,1625.724l3.1,1.781,3.136-1.773-3.1-1.781Z" transform="translate(-1201.799 -1559.495)"/><path class="q" d="M1311.87,1622.181l5.079,2.918,3.137-1.773-5.079-2.917Z" transform="translate(-1202.187 -1559.718)"/><path class="q" d="M1309.423,1620.776l3.1,1.781,3.136-1.773-3.1-1.781Z" transform="translate(-1202.34 -1559.806)"/><path class="q" d="M1313.325,1628.389l3.1,1.781,3.136-1.773c-1.24-.713-1.861-1.069-3.1-1.781Z" transform="translate(-1202.095 -1559.328)"/><path class="q" d="M1309.017,1625.915l3.1,1.781,3.136-1.773-3.1-1.781Z" transform="translate(-1202.366 -1559.484)"/><path class="q" d="M1304.709,1623.441c1.24.713,1.861,1.069,3.1,1.781l3.135-1.773c-1.24-.712-1.861-1.068-3.1-1.781Z" transform="translate(-1202.637 -1559.639)"/><path class="q" d="M1337.924,1638.94l-17.155-9.852-3.135,1.773q8.676,4.984,17.354,9.965Z" transform="translate(-1201.824 -1559.173)"/><path class="q" d="M1326.133,1638.812l-14.785-8.536a.853.853,0,0,0-.877.013l-8.078,4.976a.315.315,0,0,0,.007.541l14.78,8.539a.854.854,0,0,0,.877-.012l8.084-4.981A.315.315,0,0,0,1326.133,1638.812Z" transform="translate(-1202.791 -1559.105)"/><path class="v" d="M1310.661,1629.957c-2.777,2.068-16.961,12.525-23.428,15.446a27.119,27.119,0,0,1-11.243,2.427,23.692,23.692,0,0,1-8.147-1.446,17.362,17.362,0,0,1-10.27-9.218,15.237,15.237,0,0,1-.962-3.057l-5.224-25.785c-.631-3.105,1.909-6.337,5.663-7.214s7.324.932,7.954,4.046l5.224,25.784c.007.017.005.033.013.051a6.34,6.34,0,0,0,4.227,4.588,9.8,9.8,0,0,0,7.341-.373c3.569-1.613,14.08-8.962,20.407-13.672,3.016-2.242,7.348-2.17,9.682.159S1313.675,1627.721,1310.661,1629.957Z" transform="translate(-1205.993 -1560.945)"/><path class="w" d="M1298.352,1681.031a7.9,7.9,0,0,1-5.25,7.686c-1.925.685-5.127,1.78-7.656,2.374a16.832,16.832,0,0,1-1.995.358,33.756,33.756,0,0,1-21.135-4.82l-13.918-8.106a5.951,5.951,0,0,1-2.937-5.271l1.464-57.772a16.8,16.8,0,0,1,8.341-14.491,13.2,13.2,0,0,1,6.509-1.371,28.388,28.388,0,0,1,3.633.245c6.387.768,13.5,3.418,17.163,5.978,3.6,2.282,8.075,3.766,10.961,6.611a9.653,9.653,0,0,1,2.978,6.991C1296.571,1621.479,1298.352,1681.031,1298.352,1681.031Z" transform="translate(-1206.359 -1561.024)"/><path class="w" d="M1285.064,1619.343a.864.864,0,0,1-.377.412,31.636,31.636,0,0,0-.49,5.921c-.02,3.705.144,7.522-1.166,10.992-.8,2.108-2.129,4.022-2.631,6.222-1.207,5.24,2.446,10.255,3.5,15.515,1.167,5.854-.911,11.8-1.463,17.736a54.321,54.321,0,0,0,.829,13.908c2.528-.594,5.731-1.689,7.656-2.375a7.9,7.9,0,0,0,5.25-7.686s-1.647-55.067-1.828-61.1C1291.634,1615.887,1287.173,1614.621,1285.064,1619.343Z" transform="translate(-1204.179 -1559.982)"/><path class="v" d="M1337.036,1649.911c-2.037,2.548-12.449,15.431-17.409,19.052a15.163,15.163,0,0,1-8.921,3.061,14.684,14.684,0,0,1-6.83-1.691,20.488,20.488,0,0,1-9.451-11.154,27.181,27.181,0,0,1-1.136-3.721l-7.21-31.408c-.871-3.784.84-7.749,3.81-8.851s6.1,1.071,6.969,4.865l7.21,31.409c.008.02.008.041.017.061a8.183,8.183,0,0,0,3.979,5.559,5.548,5.548,0,0,0,5.965-.52c2.735-2,10.5-11.058,15.137-16.86a4.81,4.81,0,0,1,7.938.105A8.566,8.566,0,0,1,1337.036,1649.911Z" transform="translate(-1203.822 -1560.064)"/><path class="w" d="M1309.123,1650.814l-8.937-29.97a8.773,8.773,0,0,0-4.312-5.251,9.143,9.143,0,0,0-6.85-.728,8.918,8.918,0,0,0-5.367,4.212,8.559,8.559,0,0,0-.751,6.688l8.961,30.069a23.776,23.776,0,0,0,1.538,3.876l.377.742a1.037,1.037,0,0,0,1.25.506l.8-.265c.464-.153.937-.327,1.366-.5a35.573,35.573,0,0,0,11.442-7.281l.5-.48a.988.988,0,0,0,.2-1.163Z" transform="translate(-1204.029 -1560.089)"/><path class="o" d="M1334.226,1736.872c-3.407-2.677-11.2,1.987-14.945,2.82-2.418.539-11.232,1.04-10.55,5.23a14.485,14.485,0,0,0-.439,3.21,12.468,12.468,0,0,0,.388,4.088,10.907,10.907,0,0,0,5.174,3.1,6.467,6.467,0,0,0,.7-.083,15.5,15.5,0,0,0,4.63-2.174c4.614-2.828,11.527-5.311,15-9.585C1335.725,1741.576,1336.157,1738.39,1334.226,1736.872Z" transform="translate(-1202.413 -1552.451)"/><rect class="w" width="9.478" height="16.788" rx="4.284" transform="matrix(-1, -0.012, 0.012, -1, 116.914, 195.239)"/><path class="l" d="M1309.455,1680.412l-1.036,59.659a5.568,5.568,0,0,0,5.1,4.751l2.773.2a5.571,5.571,0,0,0,5.974-5.822l4.589-60.305Z" transform="translate(-1202.404 -1556.043)"/><path class="l" d="M1231.029,1755.971a7.846,7.846,0,0,1,3.55-6.148c1.961-1.132,3.55-.215,3.55,2.049a7.845,7.845,0,0,1-3.55,6.149C1232.618,1759.152,1231.029,1758.235,1231.029,1755.971Z" transform="translate(-1207.266 -1551.617)"/><path class="l" d="M1231.029,1755.971a7.846,7.846,0,0,1,3.55-6.148c1.961-1.132,3.55-.215,3.55,2.049a7.845,7.845,0,0,1-3.55,6.149C1232.618,1759.152,1231.029,1758.235,1231.029,1755.971Z" transform="translate(-1207.266 -1551.617)"/><path class="l" d="M1237.136,1749.623l3.059,1.595-4.8,8.753-3.583-1.864.908-4.929Z" transform="translate(-1207.217 -1551.599)"/><path class="w" d="M1233.868,1757.443a7.845,7.845,0,0,1,3.55-6.147c1.96-1.132,3.55-.215,3.55,2.049a7.847,7.847,0,0,1-3.55,6.149C1235.457,1760.625,1233.868,1759.708,1233.868,1757.443Z" transform="translate(-1207.088 -1551.524)"/><path class="w" d="M1233.868,1757.443a7.845,7.845,0,0,1,3.55-6.147c1.96-1.132,3.55-.215,3.55,2.049a7.847,7.847,0,0,1-3.55,6.149C1235.457,1760.625,1233.868,1759.708,1233.868,1757.443Z" transform="translate(-1207.088 -1551.524)"/><path class="l" d="M1271.193,1733.523a7.848,7.848,0,0,1,3.55-6.149c1.961-1.132,3.55-.215,3.55,2.049a7.845,7.845,0,0,1-3.55,6.148C1272.783,1736.7,1271.194,1735.787,1271.193,1733.523Z" transform="translate(-1204.742 -1553.027)"/><path class="l" d="M1271.193,1733.523a7.848,7.848,0,0,1,3.55-6.149c1.961-1.132,3.55-.215,3.55,2.049a7.845,7.845,0,0,1-3.55,6.148C1272.783,1736.7,1271.194,1735.787,1271.193,1733.523Z" transform="translate(-1204.742 -1553.027)"/><path class="l" d="M1277.3,1727.174l3.059,1.594-4.8,8.753-3.582-1.863.908-4.93Z" transform="translate(-1204.693 -1553.009)"/><path class="w" d="M1274.032,1735a7.845,7.845,0,0,1,3.55-6.149c1.961-1.132,3.55-.214,3.55,2.05a7.845,7.845,0,0,1-3.55,6.149C1275.621,1738.176,1274.032,1737.259,1274.032,1735Z" transform="translate(-1204.564 -1552.935)"/><path class="w" d="M1274.032,1735a7.845,7.845,0,0,1,3.55-6.149c1.961-1.132,3.55-.214,3.55,2.05a7.845,7.845,0,0,1-3.55,6.149C1275.621,1738.176,1274.032,1737.259,1274.032,1735Z" transform="translate(-1204.564 -1552.935)"/><path class="l" d="M1269.31,1756.962a7.847,7.847,0,0,1,3.549-6.147c1.961-1.132,3.55-.215,3.55,2.049a7.845,7.845,0,0,1-3.55,6.149C1270.9,1760.145,1269.31,1759.226,1269.31,1756.962Z" transform="translate(-1204.861 -1551.554)"/><path class="l" d="M1269.31,1756.962a7.847,7.847,0,0,1,3.549-6.147c1.961-1.132,3.55-.215,3.55,2.049a7.845,7.845,0,0,1-3.55,6.149C1270.9,1760.145,1269.31,1759.226,1269.31,1756.962Z" transform="translate(-1204.861 -1551.554)"/><path class="l" d="M1275.417,1750.614l3.059,1.594-4.8,8.753-3.582-1.864.908-4.93Z" transform="translate(-1204.812 -1551.536)"/><path class="w" d="M1272.148,1758.435a7.848,7.848,0,0,1,3.55-6.149c1.961-1.132,3.55-.214,3.55,2.049a7.843,7.843,0,0,1-3.55,6.148C1273.738,1761.616,1272.148,1760.7,1272.148,1758.435Z" transform="translate(-1204.683 -1551.462)"/><path class="w" d="M1272.148,1758.435a7.848,7.848,0,0,1,3.55-6.149c1.961-1.132,3.55-.214,3.55,2.049a7.843,7.843,0,0,1-3.55,6.148C1273.738,1761.616,1272.148,1760.7,1272.148,1758.435Z" transform="translate(-1204.683 -1551.462)"/><path class="l" d="M1230.317,1734.356a7.849,7.849,0,0,1,3.55-6.149c1.961-1.132,3.55-.215,3.55,2.049a7.846,7.846,0,0,1-3.55,6.148C1231.907,1737.537,1230.317,1736.62,1230.317,1734.356Z" transform="translate(-1207.311 -1552.975)"/><path class="l" d="M1230.317,1734.356a7.849,7.849,0,0,1,3.55-6.149c1.961-1.132,3.55-.215,3.55,2.049a7.846,7.846,0,0,1-3.55,6.148C1231.907,1737.537,1230.317,1736.62,1230.317,1734.356Z" transform="translate(-1207.311 -1552.975)"/><path class="l" d="M1236.425,1728.008l3.059,1.595-4.8,8.753-3.582-1.864.908-4.929Z" transform="translate(-1207.262 -1552.957)"/><path class="w" d="M1233.156,1735.828a7.844,7.844,0,0,1,3.55-6.148c1.96-1.132,3.55-.214,3.55,2.05a7.846,7.846,0,0,1-3.55,6.149C1234.745,1739.01,1233.156,1738.092,1233.156,1735.828Z" transform="translate(-1207.133 -1552.882)"/><path class="w" d="M1233.156,1735.828a7.844,7.844,0,0,1,3.55-6.148c1.96-1.132,3.55-.214,3.55,2.05a7.846,7.846,0,0,1-3.55,6.149C1234.745,1739.01,1233.156,1738.092,1233.156,1735.828Z" transform="translate(-1207.133 -1552.882)"/><path class="x" d="M1281.662,1748.792l-15.709-9.069,15.709-9.069c2.577-1.489,2.577-3.925,0-5.413h0a10.4,10.4,0,0,0-9.376,0l-15.709,9.069-15.709-9.069a10.4,10.4,0,0,0-9.375,0c-2.579,1.488-2.579,3.924,0,5.413l15.707,9.069-15.707,9.069c-2.579,1.489-2.579,3.925,0,5.414h0a10.393,10.393,0,0,0,9.375,0l15.709-9.069,15.709,9.069a10.4,10.4,0,0,0,9.376,0C1284.239,1752.717,1284.239,1750.281,1281.662,1748.792Z" transform="translate(-1207.359 -1553.201)"/><path class="x" d="M1281.662,1748.792l-15.709-9.069,15.709-9.069c2.577-1.489,2.577-3.925,0-5.413h0a10.4,10.4,0,0,0-9.376,0l-15.709,9.069-15.709-9.069a10.4,10.4,0,0,0-9.375,0c-2.579,1.488-2.579,3.924,0,5.413l15.707,9.069-15.707,9.069c-2.579,1.489-2.579,3.925,0,5.414h0a10.393,10.393,0,0,0,9.375,0l15.709-9.069,15.709,9.069a10.4,10.4,0,0,0,9.376,0C1284.239,1752.717,1284.239,1750.281,1281.662,1748.792Z" transform="translate(-1207.359 -1553.201)"/><path class="q" d="M1247.536,1739.009c0,2.935,3.541,5.313,7.911,5.313s7.912-2.379,7.912-5.313-3.542-7.8-7.912-7.8S1247.536,1736.074,1247.536,1739.009Z" transform="translate(-1206.229 -1552.756)"/><path class="x" d="M1249.519,1735.11c0,2.153,2.6,3.9,5.8,3.9s5.8-1.745,5.8-3.9-2.6-3.9-5.8-3.9S1249.519,1732.957,1249.519,1735.11Z" transform="translate(-1206.104 -1552.756)"/><path class="q" d="M1255.189,1695.516a3.575,3.575,0,0,0-3.55,3.6v34.64a3.55,3.55,0,1,0,7.1,0v-34.64A3.574,3.574,0,0,0,1255.189,1695.516Z" transform="translate(-1205.971 -1554.999)"/><path class="y" d="M1208.7,1636.257l5.122,54.889a24.207,24.207,0,0,0,11.812,18.606l44.359,26.135a10.6,10.6,0,0,0,10.474.161l38.723-21.243a17.66,17.66,0,0,0,9.115-14.138h0a7.5,7.5,0,0,0-11.2-7.083l-25.052,14.324a6.4,6.4,0,0,1-9.261-3.556l-15.349-46.588a5.523,5.523,0,0,0-2.8-3.22l-48.007-23.746A5.518,5.518,0,0,0,1208.7,1636.257Z" transform="translate(-1208.671 -1559.102)"/></g><g transform="translate(1527.525 0.514)"><line class="z" y2="137.496" transform="translate(0.559 6.711)"/><line class="z" y2="101.327" transform="translate(101.327 7.27) rotate(90)"/><path class="aa" d="M6.711,0l6.711,12.3H0Z" transform="translate(106.36 0) rotate(90)"/></g></g></svg>