<svg xmlns="http://www.w3.org/2000/svg" width="153.373" height="306.2" viewBox="0 0 153.373 306.2"><defs><style>.a,.b{fill:#fff;}.a{opacity:0.131;}.b{opacity:0.7;}.c{fill:#1f3598;}.d{fill:#ffc7cb;}.e{fill:#bddcff;}.f{fill:#3772ce;}.g{fill:#e2e8f2;}.h{fill:#a0d2ff;}</style></defs><ellipse class="a" cx="33.5" cy="34" rx="33.5" ry="34" transform="translate(77 90)"/><circle class="b" cx="67.5" cy="67.5" r="67.5"/><g transform="translate(36.879 32.461)"><path d="M564.372,538.44a65.8,65.8,0,0,1,.238-10.451c.8-9.116,5.45-17.619,15.414-18.759,18.259-2.091,21.885,10.6,22.8,25.95-5.668,6.574-12.421,13.063-15.951,21.077-.756,1.716-10.025,1.814-11.259,1.288-2.994-1.275-6.668-6.327-8.378-9.008A21.863,21.863,0,0,1,564.372,538.44Z" transform="translate(-538.847 -509.004)"/><path class="c" d="M590.191,741.218a5.24,5.24,0,0,0,3.706,6.408c4.855,2.526,9.587,5.216,14.853,6.808a8.388,8.388,0,0,0,3.709.486,3.217,3.217,0,0,0,2.721-2.277c.3-1.416-.7-2.747-1.632-3.853-3.943-4.668-8.045-9.463-13.526-12.164a9.691,9.691,0,0,0-5.2-1.218,4.625,4.625,0,0,0-4.052,3.091Z" transform="translate(-537.643 -498.459)"/><path class="c" d="M562.49,752.63a10.914,10.914,0,0,0,.7,3.721,30.183,30.183,0,0,0,4.079,6.632l2.743,3.7a18.892,18.892,0,0,0,3.118,3.546,6.362,6.362,0,0,0,4.346,1.577,1.765,1.765,0,0,0,1.169-.439,1.843,1.843,0,0,0,.351-.6c1.107-2.7.35-5.768-.42-8.584-1.082-3.964-2.519-7.7-3.592-11.617-.744-2.719-1.63-6.527-4.967-7C564.751,742.853,562.38,748,562.49,752.63Z" transform="translate(-538.93 -498.081)"/><path class="d" d="M567.445,690.232l-3.514-58.348,1.2-13.966,28.622,4.354,15.318-.725.522,67.09-7.007,51.946c-.162,1.2,2.013,1.959,2.01,3.135,0,1.447-.683,3.7-3.9,4.255a11.135,11.135,0,0,1-5.728-1.4c-1.947-1.533-3.435-3.532-3.317-6.188,0-.022,2.1-47.288,2.1-47.288l-4.405-50.532-1.283,23.559-1.56,23.99-12.152,63.319c-.2,2.617-1.078,4.629-3.412,4.629h-3.086a4.794,4.794,0,0,1-4.488-5.052Z" transform="translate(-538.888 -503.931)"/><path class="c" d="M569.2,602.686l-8.962,14.76s-1.633,49,.589,76.194a37.159,37.159,0,0,0,25.606,9.815s23.826-4.225,33.272-12.766c0,0-.4-65.722-16.311-88.43Z" transform="translate(-539.061 -504.66)"/><path class="e" d="M595.93,550.176h0a6.507,6.507,0,0,0-3.621,8.458L609.192,600.8a6.507,6.507,0,0,0,8.459,3.621h0a6.506,6.506,0,0,0,3.621-8.458L604.387,553.8A6.505,6.505,0,0,0,595.93,550.176Z" transform="translate(-537.562 -507.108)"/><path class="f" d="M591.253,543.55c-.021,0-.042.023-.064.046a1.469,1.469,0,0,1-.021-.3A.371.371,0,0,0,591.253,543.55Z" transform="translate(-537.594 -507.406)"/><path class="e" d="M566.389,577.486l3.375,28.631a12.7,12.7,0,0,1,1.07.811c6.526,5.605,15.691,6.157,24.5,5.951a52.456,52.456,0,0,0,6.024-2.125,6.672,6.672,0,0,0,3.876-4.932l6.129-23.89.083-.413a14.581,14.581,0,0,0-1.345-9.4l-4.652-8.933-1.4-4.79c-.453-5.268-4.847-10.526-8.625-8.146l-1.737.6-2.782.962-12.231,4.27-3.577,1.241-6.958,2.42a7.076,7.076,0,0,0-4.2,8.561Z" transform="translate(-538.874 -507.11)"/><path class="g" d="M563.938,568.293l2.45,9.182c1.23,1.519,2.451,3.039,3.691,4.56,2.6,3.215,5.305,6.514,8.912,8.2,6,2.8,12.883.517,18.974-2.068,3.764-1.582,7.5-3.277,11.167-5.077.744-.351,1.509-.734,2.234-1.168l.083-.414a14.576,14.576,0,0,0-1.345-9.4l-4.652-8.934-1.773-6.046c-.085-4.012-3.242-8.471-8.256-6.89l-1.737.6-2.782.962-12.231,4.27-3.577,1.241-6.958,2.42A7.077,7.077,0,0,0,563.938,568.293Z" transform="translate(-538.874 -507.098)"/><path class="d" d="M574.587,557.271a33.6,33.6,0,0,0,6.607,7.517,18.29,18.29,0,0,0,6.3,4.043,7.625,7.625,0,0,0,7.145-.971,7.361,7.361,0,0,0,2.45-5.377,15.261,15.261,0,0,0-1.137-5.935,33.137,33.137,0,0,0-2.771-5.749l-2.782.962-12.232,4.27Z" transform="translate(-538.366 -507.057)"/><path class="g" d="M613.028,577.215l-.148.307a.5.5,0,0,0,.119.01C613,577.433,613.017,577.324,613.028,577.215Z" transform="translate(-536.582 -505.826)"/><rect class="d" width="12.724" height="23.407" transform="translate(39.649 29.775)"/><path class="d" d="M579.061,541.405,590.6,553.513l.06-.171v-8.157Z" transform="translate(-538.158 -507.495)"/><ellipse class="c" cx="9.721" cy="10.716" rx="9.721" ry="10.716" transform="translate(47.577 8.266)"/><path class="f" d="M578.572,533.131c-.02,0-.04.022-.06.045a1.344,1.344,0,0,1-.021-.289A.356.356,0,0,0,578.572,533.131Z" transform="translate(-538.184 -507.891)"/><path class="d" d="M578.107,537.7c1.589-8.126,6.775-16.619,15.527-18.06a.928.928,0,0,0,.646-1.423,1.17,1.17,0,0,0-.137-1.151c.083-.01.166-.024.248-.033a7.819,7.819,0,0,1,5,.62,4.346,4.346,0,0,1,2.02,2.861,3.419,3.419,0,0,1,.042,1.311c.107,3.339.212,6.653.319,9.992.042,1.5.085,3.029.042,4.579-.127,3.672-.743,7.3-2.848,9.992-2.317,3-6.057,4.2-9.608,4.292-1.956.048-3.975-1.365-5.719-2.415-3.273-2-4.8-5.192-5.633-9.271-.053-.279-.091-.563-.14-.845A.882.882,0,0,0,578.107,537.7Z" transform="translate(-538.213 -508.636)"/><path d="M583.509,516.551a7.354,7.354,0,0,1,3.479-4.586,6.09,6.09,0,0,1,3.342-.855,6.6,6.6,0,0,1,4.882,1.259c1.074.465,2.153,1.018,3.215,1.595a19.633,19.633,0,0,1,6.626,5.08,10.927,10.927,0,0,1,1.83,9.058,9.886,9.886,0,0,1-3.34,5.391c-.263.988-.928-1.054-1.192-.065-.4-3.032-2.151-2.552-4.657-4.3s-5.393-2.862-8.13-4.227a14.128,14.128,0,0,1-4.835-3.495,6.361,6.361,0,0,1-.846-1.359A3.438,3.438,0,0,1,583.509,516.551Z" transform="translate(-537.964 -508.911)"/><path class="e" d="M626.927,597.925a8.92,8.92,0,1,1-8.915-8.645A8.783,8.783,0,0,1,626.927,597.925Z" transform="translate(-536.758 -505.265)"/><path class="d" d="M615.688,598.158h0a7.024,7.024,0,0,0,6.126,7.821l23.259,3.611a7.026,7.026,0,0,0,7.822-6.127h0a7.026,7.026,0,0,0-6.127-7.822l-23.259-3.61A7.026,7.026,0,0,0,615.688,598.158Z" transform="translate(-536.454 -505.139)"/><path class="h" d="M628.356,612.1c1.2,2.372,5.154,4.116,9.864,4.116s8.667-1.745,9.863-4.116l.38-3.221V594.748h-.269c-1.047-2.492-5.11-4.352-9.974-4.352s-8.928,1.86-9.974,4.352h-.27V596Z" transform="translate(-535.879 -505.213)"/><path class="g" d="M648.463,595.4c0,3.1-4.586,5.614-10.243,5.614s-10.244-2.514-10.244-5.614,4.586-5.614,10.244-5.614S648.463,592.3,648.463,595.4Z" transform="translate(-535.879 -505.241)"/><ellipse class="f" cx="7.298" cy="4" rx="7.298" ry="4" transform="translate(95.043 86.044)"/><path d="M577.8,536.963a21.63,21.63,0,0,0,9.69-18.839,15.167,15.167,0,0,0-9.439,19.345Z" transform="translate(-538.243 -508.579)"/><path class="g" d="M544.545,599.864a62,62,0,0,0,5.408,6.472,43.333,43.333,0,0,1,4.789,5.833,25.79,25.79,0,0,1,2.827,5.552,4.862,4.862,0,0,1,.326,1.683,6.73,6.73,0,0,0,10.14,8.85c3.04-3.388,3.982-7.616,2.849-12.642a34.859,34.859,0,0,0-4.756-10.623,53.738,53.738,0,0,0-6.26-7.762,51.281,51.281,0,0,1-4.3-5.069c-1.985-2.838-2.715-6.126-1.7-7.639a13.772,13.772,0,0,1,3.612-2.827l15.458-9.894a6.729,6.729,0,0,0-7.247-11.341l-15.469,9.894c-2.266,1.446-5.373,3.432-7.549,6.685C538.488,583.3,539.228,592.259,544.545,599.864Z" transform="translate(-539.978 -506.657)"/><path d="M566.025,542.118a48.98,48.98,0,0,1,.967-8.654,11.507,11.507,0,0,1,2.359-5.6c1.368-1.526,3.693-2.359,5.536-1.464,2.9,1.409,2.721,5.5,2.539,8.716C576.371,553.828,595.2,564.847,595,583.353c-.071,6.725-3.384,12.936-6.61,18.837-.681,1.244-1.754,2.686-3.146,2.407a3.175,3.175,0,0,1-1.67-1.229c-3.85-4.577-5.94-10.424-6.889-16.328-1.512-9.392.064-17.822-3.766-26.744-1.383-3.222-3.648-5.987-5.227-9.119A20,20,0,0,1,566.025,542.118Z" transform="translate(-538.765 -508.211)"/><path class="d" d="M579.554,537.325a.89.89,0,0,1-.886.1,2.271,2.271,0,0,0-.059-.315Z" transform="translate(-538.179 -507.695)"/><path class="d" d="M573.68,531.335c1.387-.48,2.759,1.065,3.363,2.83a15.474,15.474,0,0,0,.935,2.635,1.99,1.99,0,0,0,1,.9,2.989,2.989,0,0,1-1.5,3.455c-1.182.387-2.408-.37-3.38-1.361a7.432,7.432,0,0,1-2.171-4.253C571.715,533.791,572.42,531.771,573.68,531.335Z" transform="translate(-538.491 -507.968)"/><path class="d" d="M557.807,626.269a6.736,6.736,0,0,0,9.5-.516c3.04-3.388,3.982-7.616,2.849-12.642a13.532,13.532,0,0,1-13.315,2.109,4.864,4.864,0,0,1,.326,1.683A6.723,6.723,0,0,0,557.807,626.269Z" transform="translate(-539.252 -504.154)"/></g></svg>