<svg xmlns="http://www.w3.org/2000/svg" width="150.079" height="497.817" viewBox="0 0 150.079 497.817"><defs><style>.a{fill:#ff8358;}.b{fill:#4568c7;}.c{fill:#1f3598;}.d{fill:#e2e8f2;}.e{fill:#a0d2ff;}.f{fill:#3772ce;}</style></defs><g transform="translate(-1.203)"><path class="a" d="M1131.715,701.39l12.432-59.834.043-.158a40.543,40.543,0,0,0-.923-20.007,190.338,190.338,0,0,1,22.846-13.9l.688,1.9.414,1.14a66.662,66.662,0,0,1,3.559,15.43,137.061,137.061,0,0,0-.212,16c-.206,1.6-.452,3.184-.783,4.763l-12.457,59.99a13.1,13.1,0,0,1-11.588,10.354,12.785,12.785,0,0,1-3.887-.219A13.069,13.069,0,0,1,1131.715,701.39Z" transform="translate(-1130.236 -420.452)"/><path class="b" d="M1124.612,657.029l13.932-88.458a15.4,15.4,0,1,1,30.333,5.361l-14.343,83.007,2.721-.523a118.291,118.291,0,0,0-2.327,31.815l-1.781.343a22.881,22.881,0,0,1-22.376-3.518q-.458-.363-.892-.746C1123.734,678.913,1123.185,665.1,1124.612,657.029Z" transform="translate(-1114.546 -465.642)"/><path class="c" d="M1166.108,738.438c3-.064,5.609,2.316,6.773,5.076s1.187,5.852,1.192,8.85c0,2.623-.113,5.552-1.982,7.393a9.982,9.982,0,0,1-4.551,2.115,53.477,53.477,0,0,1-9.34,1.941c-3.594.309-7.238-.109-10.8.435-2.273.345-4.467,1.076-6.705,1.6a38.21,38.21,0,0,1-19.278-.5,7.22,7.22,0,0,1-3.747-2.064c-1.513-1.864-.988-4.77.53-6.63s3.78-2.921,5.963-3.925l19.713-9.051c6.445-2.959,13.116-5.974,20.206-6.137,2.267-.052,5.252.975,5.048,3.233Z" transform="translate(-1106.013 -306.639)"/><rect class="d" width="16.455" height="29.145" rx="4.215" transform="matrix(-0.997, 0.081, -0.081, -0.997, 63.529, 442.178)"/><path class="c" d="M1101.782,767.314c-1.245,2.276-2.539,4.525-3.748,6.788a55.219,55.219,0,0,0-3.371,7.082c-1.328,3.643-3.827,10.735-.687,14.042,4.729,4.98,12.443.715,16.287-2.8a153.5,153.5,0,0,0,15.9-16.938c2.085-2.589,4.146-5.372,4.789-8.635,1.969-10-3.889-24.179-16.169-20.86-4.483,1.213-6.394,4.358-7.457,8.438A57.152,57.152,0,0,1,1101.782,767.314Z" transform="translate(-1017.697 -299.678)"/><rect class="d" width="16.455" height="29.145" rx="4.215" transform="translate(91.588 433.689)"/><path class="b" d="M1142.382,606.569l41.546,14.4,16.6,18.957-4.963,119.487-5.777,104.312a9.935,9.935,0,0,1-9.936,9.936h-6.833a9.936,9.936,0,0,1-9.9-9.1l-10.461-124.55.4-47.189-12.484-7.352-13.716,84.2,14.416,73.4a9.672,9.672,0,0,1-10.371,10.109l-4.813-.354a9.672,9.672,0,0,1-8.86-8.248l-27.352-72.639a47.929,47.929,0,0,1-2.209-22.606l19.655-124.188Z" transform="translate(-1076.992 -421.256)"/><path class="e" d="M1097.372,576.8l-10.08,101.291a20.428,20.428,0,0,0,12.122,20.733l26.921,11.809a63.371,63.371,0,0,0,39.743,9.068,62.662,62.662,0,0,0,14.3-3.214l10.208-3.626-3.782-128.7a21.882,21.882,0,0,0-5.959-14.249,20.559,20.559,0,0,0-4.766-3.887l-9.119-5.751-2.539-1.607c-6.893-4.817-20.26-9.792-32.28-11.243a52.913,52.913,0,0,0-6.841-.465c-4.819,0-9.118.776-12.229,2.59A31.568,31.568,0,0,0,1097.372,576.8Z" transform="translate(-1067.076 -473.424)"/><path class="b" d="M1093.757,708.988a62.662,62.662,0,0,0,14.3-3.214l10.208-3.626-3.782-128.7a21.882,21.882,0,0,0-5.959-14.249,46.514,46.514,0,0,0-6.01.984,5.788,5.788,0,0,0-1.659.673,15.546,15.546,0,0,0-7.356,3.885c-4.51,4.716-3.422,12.383-1.192,18.55,2.175,6.216,5.181,12.694,3.471,19.015-1.244,4.508-4.714,8.187-5.648,12.8-1.916,9.741,8.395,34.093,7.41,43.99-.57,5.648-4.663,10.206-7.255,15.233C1084.792,685.257,1087.022,698.624,1093.757,708.988Z" transform="translate(-994.755 -462.712)"/><path class="a" d="M1101.682,562.38c0,8.565,9.375,15.29,21.329,15.29s21.331-6.724,21.331-15.29c0-5.083-3.279-9.5-8.436-12.267a23.9,23.9,0,0,0-4.66-1.9c-.848-.24-1.732-.461-2.635-.626a30.4,30.4,0,0,0-5.6-.516,29.81,29.81,0,0,0-7.036.829,25.039,25.039,0,0,0-5.877,2.211c-4.826,2.6-7.993,6.649-8.381,11.327C1101.7,561.754,1101.682,562.067,1101.682,562.38Z" transform="translate(-1048.005 -473.32)"/><path class="a" d="M1106.181,543.921v27.225h.148a8.406,8.406,0,0,0,4.2,5.25,16.8,16.8,0,0,0,8.564,2.136c6.578,0,11.864-3.15,12.747-7.386h.148V543.921a11.711,11.711,0,0,0-3.776-8.547,13.255,13.255,0,0,0-7.4-3.444c-.68-.038-1.4-.092-2.135-.092a14.5,14.5,0,0,0-4.4.829,12.661,12.661,0,0,0-4.549,2.965A11.631,11.631,0,0,0,1106.181,543.921Z" transform="translate(-1044.086 -486.653)"/><path class="a" d="M1109.475,559.272a6.362,6.362,0,0,0,3.583,11.4l.1,0a27.882,27.882,0,0,0,3.261-.111,18.378,18.378,0,0,0,7.845-2.34c4.367-2.616,7.129-7.313,8.954-12.507a56.1,56.1,0,0,0,1.971-7.221,66.478,66.478,0,0,0,1.2-8.914,10.225,10.225,0,0,0-1.657-1.087c-.073,4.365-1.161,11.88-4.144,16.6a8.761,8.761,0,0,1-4.827,4.052c-3.96,1.106-6.19-.848-7.81-3.739-1.75-3.131-2.782-7.35-4.457-9.966a8.642,8.642,0,0,0-1.419-1.712v13.889A20,20,0,0,0,1109.475,559.272Z" transform="translate(-1049.972 -480.825)"/><path class="a" d="M1106.995,553.98c.249,6.968,1.444,13.846,5.528,18.959,4.495,5.7,11.753,7.966,18.64,8.145a20.66,20.66,0,0,0,11.095-2.443c6.351-3.8,9.321-11.991,10.928-19.73a65.043,65.043,0,0,0,1.2-8.914,33.162,33.162,0,0,0-.99-10.092,29.03,29.03,0,0,0-12.7-16.561c-5.856-3.666-12.578-5.34-19.3-6.109-3.259-.407-6.765-.5-9.692,1.176a8.254,8.254,0,0,0-3.919,5.43,6.329,6.329,0,0,0-.082,2.49c-.206,6.334-.411,12.625-.619,18.959C1106.995,548.143,1106.912,551.038,1106.995,553.98Z" transform="translate(-1067.975 -499.65)"/><path class="f" d="M1107.836,534.2c.041,0,.081.045.122.09a2.831,2.831,0,0,0,.041-.589A.732.732,0,0,1,1107.836,534.2Z" transform="translate(-1023.2 -485.025)"/><path class="f" d="M1110.274,534.2c-.167-.092-.291-.182-.456-.272-.411-.227-.988-.407-1.279,0-.2.272.124.589.373.634l-.99,1.041A2.041,2.041,0,0,0,1110.274,534.2Z" transform="translate(-1025.639 -485.032)"/><path class="f" d="M1107.655,545.7c.152-.206.309-.441.461-.654.022.157.011.317.036.472Z" transform="translate(-1023.014 -475.095)"/><path d="M1101.117,529.594c1.073-1.333,3.148-1.292,4.566-.752-2.078-3.117-4.142-6.452-4.344-10.5-.506-10.2,8.35-11.924,15.589-9.8,2.556.75,5.009,1.823,7.495,2.786a15.668,15.668,0,0,1,3.549-1.534c7.033-1.913,14.438.4,21.123,3.465a40.237,40.237,0,0,1,8.306,4.825c9.378,7.407,12.837,22.227,8.577,33.888-1.853,8.237-3.72,26.942-11.164,24.356-3.975-1.382-2.31-15.344-2.445-15.85-1.534-5.68-5.8-8.822-6.538-15.642l-3.846-2.3a62.46,62.46,0,0,1-36.443-4.781,9.98,9.98,0,0,1-4.215-3.023C1100.283,533.266,1100,530.987,1101.117,529.594Z" transform="translate(-1069.039 -507.74)"/><path class="a" d="M1105.669,539.156c-1.384.066-2.3,1.92-1.87,3.367a3.657,3.657,0,0,0,3.212,2.468,7.591,7.591,0,0,0,4-1.041,11.319,11.319,0,0,0,5.715-5.633c1.039-2.638.364-6.225-1.98-7.514-2.217-1.219-5.031.045-6.595,2.158s-2.173,4.862-2.741,7.512Z" transform="translate(-1024.636 -487.974)"/><path class="a" d="M1088.442,749.748a13.078,13.078,0,0,0,12.494-9.246l17.954-58.582a66.554,66.554,0,0,0,.784-36.263L1101.057,574a13.072,13.072,0,1,0-25.3,6.572l18.616,71.655a40.413,40.413,0,0,1-.476,22.027l-17.954,58.586a13.082,13.082,0,0,0,12.5,16.9Z" transform="translate(-976.065 -458.318)"/><path class="e" d="M1114.012,702.342a46.04,46.04,0,0,1-17.226-2.271,12.08,12.08,0,0,1-7.592-15.055l2.468-8.048a36.9,36.9,0,0,0,.433-20.092l-19.042-73.3a19.076,19.076,0,0,1,1.4-13.743,18.29,18.29,0,0,1,33.859,3.975l19.191,73.868a73.411,73.411,0,0,1-.864,40.005l-1.858,6.062A12.126,12.126,0,0,1,1114.012,702.342Z" transform="translate(-978.578 -461.903)"/><path class="b" d="M1092.111,642.76l26.555,40.056-20.54,30.068-8.228-34.733Z" transform="translate(-1000.236 -389.585)"/></g></svg>