<svg xmlns="http://www.w3.org/2000/svg" width="144" height="306.6" viewBox="0 0 144 306.6"><defs><style>.a,.b{fill:#fff;}.a{opacity:0.13;}.b{opacity:0.7;}.c{fill:#ff8358;}.d{fill:#4568c7;}.e{fill:#1f3598;}.f{fill:#e2e8f2;}.g{fill:#a0d2ff;}.h{fill:#3772ce;}</style></defs><ellipse class="a" cx="33.5" cy="34" rx="33.5" ry="34" transform="translate(77 90)"/><circle class="b" cx="67.5" cy="67.5" r="67.5"/><g transform="translate(47.855 28.697)"><path class="c" d="M1153.244,659.907l-6.94-33.4-.024-.088a22.635,22.635,0,0,1,.515-11.169,106.253,106.253,0,0,0-12.754-7.762l-.384,1.063-.231.636a37.211,37.211,0,0,0-1.987,8.614,76.582,76.582,0,0,1,.118,8.93c.115.891.252,1.777.437,2.659l6.954,33.489a7.311,7.311,0,0,0,6.469,5.78,7.141,7.141,0,0,0,2.17-.122A7.3,7.3,0,0,0,1153.244,659.907Z" transform="translate(-1069.617 -503.076)"/><path class="d" d="M1148.8,612.331l-7.778-49.381a8.6,8.6,0,1,0-16.933,2.993l8.007,46.338-1.519-.292a66.024,66.024,0,0,1,1.3,17.76l.994.192a12.773,12.773,0,0,0,12.491-1.964q.256-.2.5-.417C1149.291,624.548,1149.6,616.839,1148.8,612.331Z" transform="translate(-1069.968 -505.491)"/><path class="e" d="M1121.208,738.043a4.32,4.32,0,0,0-3.781,2.834,12.686,12.686,0,0,0-.665,4.941c0,1.464.063,3.1,1.106,4.127a5.574,5.574,0,0,0,2.541,1.181,29.86,29.86,0,0,0,5.214,1.083c2.007.173,4.041-.061,6.031.243,1.269.193,2.494.6,3.743.894a21.332,21.332,0,0,0,10.761-.276,4.03,4.03,0,0,0,2.091-1.153,3.038,3.038,0,0,0-.3-3.7,8.89,8.89,0,0,0-3.329-2.191l-11-5.053c-3.6-1.652-7.322-3.335-11.28-3.426-1.266-.029-2.932.544-2.818,1.8Z" transform="translate(-1070.304 -496.995)"/><rect class="f" width="9.186" height="16.27" rx="4.215" transform="translate(50.306 230.627) rotate(4.649)"/><path class="e" d="M1108.952,757.677c.7,1.271,1.418,2.526,2.093,3.789a30.87,30.87,0,0,1,1.882,3.954c.741,2.034,2.136,5.993.383,7.839-2.64,2.78-6.946.4-9.092-1.564a85.717,85.717,0,0,1-8.876-9.455,11.594,11.594,0,0,1-2.673-4.82c-1.1-5.582,2.171-13.5,9.026-11.645,2.5.677,3.57,2.433,4.163,4.71A31.923,31.923,0,0,0,1108.952,757.677Z" transform="translate(-1071.44 -496.623)"/><rect class="f" width="9.186" height="16.27" rx="4.215" transform="translate(24.138 242.104)"/><path class="d" d="M1119.637,606.569l-23.193,8.04-9.266,10.583,2.771,66.7,3.225,58.231a5.546,5.546,0,0,0,5.547,5.547h3.814a5.547,5.547,0,0,0,5.528-5.082l5.84-69.529-.221-26.343,6.969-4.1,7.657,47-8.047,40.973a5.4,5.4,0,0,0,5.79,5.643l2.687-.2a5.4,5.4,0,0,0,4.946-4.6l15.269-40.551a26.758,26.758,0,0,0,1.233-12.62l-10.972-69.327Z" transform="translate(-1071.688 -503.119)"/><path class="g" d="M1139.226,563.615l5.627,56.545a11.4,11.4,0,0,1-6.767,11.574l-15.028,6.593a35.378,35.378,0,0,1-22.186,5.062,34.99,34.99,0,0,1-7.983-1.794l-5.7-2.024,2.111-71.848a12.214,12.214,0,0,1,3.327-7.954,11.468,11.468,0,0,1,2.661-2.17l5.09-3.21,1.417-.9c3.848-2.689,11.31-5.466,18.02-6.276a29.54,29.54,0,0,1,3.819-.26,13.809,13.809,0,0,1,6.827,1.446A17.623,17.623,0,0,1,1139.226,563.615Z" transform="translate(-1071.687 -505.907)"/><path class="d" d="M1100.872,642.817a34.98,34.98,0,0,1-7.982-1.794l-5.7-2.024,2.111-71.847a12.217,12.217,0,0,1,3.327-7.954,25.949,25.949,0,0,1,3.355.55,3.239,3.239,0,0,1,.927.376,8.681,8.681,0,0,1,4.107,2.169c2.517,2.633,1.91,6.913.665,10.356-1.214,3.47-2.892,7.087-1.937,10.615.694,2.517,2.632,4.57,3.153,7.144,1.07,5.438-4.686,19.032-4.137,24.557.318,3.153,2.6,5.7,4.05,8.5C1105.877,629.569,1104.632,637.031,1100.872,642.817Z" transform="translate(-1071.687 -505.334)"/><path class="c" d="M1125.5,555.619c0,4.782-5.234,8.536-11.907,8.536s-11.908-3.754-11.908-8.536c0-2.838,1.831-5.306,4.709-6.848a13.323,13.323,0,0,1,2.6-1.059c.473-.134.967-.257,1.471-.35a16.964,16.964,0,0,1,3.127-.288,16.647,16.647,0,0,1,3.927.463,13.972,13.972,0,0,1,3.281,1.234c2.694,1.45,4.462,3.712,4.679,6.323C1125.486,555.269,1125.5,555.444,1125.5,555.619Z" transform="translate(-1071.009 -505.901)"/><path class="c" d="M1120.587,538.583v15.2h-.083a4.694,4.694,0,0,1-2.345,2.931,9.378,9.378,0,0,1-4.781,1.192c-3.672,0-6.623-1.758-7.116-4.123h-.082v-15.2a6.539,6.539,0,0,1,2.108-4.771,7.4,7.4,0,0,1,4.134-1.923c.38-.021.782-.051,1.192-.051a8.088,8.088,0,0,1,2.458.463,7.065,7.065,0,0,1,2.539,1.655A6.492,6.492,0,0,1,1120.587,538.583Z" transform="translate(-1070.799 -506.614)"/><path class="c" d="M1122,550.095a3.552,3.552,0,0,1-2,6.365l-.054,0a15.567,15.567,0,0,1-1.82-.062,10.261,10.261,0,0,1-4.38-1.306c-2.438-1.46-3.98-4.082-5-6.982a31.345,31.345,0,0,1-1.1-4.031,37.1,37.1,0,0,1-.667-4.976,5.7,5.7,0,0,1,.925-.607c.041,2.437.648,6.632,2.313,9.265a4.892,4.892,0,0,0,2.694,2.262c2.211.617,3.456-.473,4.36-2.087.977-1.748,1.553-4.1,2.488-5.564a4.832,4.832,0,0,1,.792-.956v7.753A11.18,11.18,0,0,1,1122,550.095Z" transform="translate(-1070.762 -506.302)"/><path class="c" d="M1133.433,537.638c-.139,3.89-.806,7.729-3.086,10.584-2.509,3.183-6.561,4.447-10.406,4.547a11.533,11.533,0,0,1-6.193-1.364c-3.546-2.122-5.2-6.694-6.1-11.014a36.258,36.258,0,0,1-.668-4.976,18.515,18.515,0,0,1,.553-5.634,16.2,16.2,0,0,1,7.091-9.245,25.54,25.54,0,0,1,10.774-3.411,8.643,8.643,0,0,1,5.411.656,4.609,4.609,0,0,1,2.188,3.031,3.546,3.546,0,0,1,.046,1.39c.115,3.536.229,7.048.345,10.584C1133.433,534.379,1133.479,536,1133.433,537.638Z" transform="translate(-1070.764 -507.308)"/><path class="h" d="M1107.927,533.977c-.023,0-.045.025-.068.05a1.569,1.569,0,0,1-.023-.329A.409.409,0,0,0,1107.927,533.977Z" transform="translate(-1070.722 -506.527)"/><path class="h" d="M1107.923,533.977c.093-.051.162-.1.255-.152.229-.127.551-.227.714,0,.114.152-.069.329-.208.354l.553.581A1.14,1.14,0,0,1,1107.923,533.977Z" transform="translate(-1070.718 -506.527)"/><path class="h" d="M1107.932,545.41c-.084-.115-.173-.246-.257-.365-.012.088-.006.177-.02.264Z" transform="translate(-1070.73 -505.996)"/><path d="M1137.614,519.94a2.292,2.292,0,0,0-2.549-.42,11.721,11.721,0,0,0,2.425-5.862c.283-5.7-4.661-6.656-8.7-5.471-1.427.419-2.8,1.018-4.184,1.555a8.753,8.753,0,0,0-1.981-.856c-3.927-1.068-8.06.224-11.792,1.934a22.475,22.475,0,0,0-4.637,2.693c-5.235,4.135-7.166,12.408-4.788,18.918,1.034,4.6,2.077,15.04,6.233,13.6,2.219-.771,1.29-8.566,1.365-8.848.856-3.171,3.237-4.925,3.65-8.732l2.147-1.282a34.868,34.868,0,0,0,20.344-2.669,5.577,5.577,0,0,0,2.353-1.687A2.5,2.5,0,0,0,1137.614,519.94Z" transform="translate(-1071.069 -507.74)"/><path class="c" d="M1110.132,535.256c.773.037,1.283,1.072,1.044,1.88a2.042,2.042,0,0,1-1.793,1.378,4.238,4.238,0,0,1-2.235-.581,6.318,6.318,0,0,1-3.19-3.144c-.58-1.473-.2-3.475,1.105-4.194,1.237-.68,2.808.025,3.681,1.2a10.763,10.763,0,0,1,1.531,4.193Z" transform="translate(-1070.916 -506.684)"/><path class="c" d="M1093.961,667.789a7.3,7.3,0,0,1-6.975-5.161l-10.023-32.7a37.154,37.154,0,0,1-.437-20.243l10.392-40a7.3,7.3,0,1,1,14.126,3.669l-10.392,40a22.557,22.557,0,0,0,.266,12.3l10.023,32.7a7.3,7.3,0,0,1-6.98,9.436Z" transform="translate(-1072.242 -505.1)"/><path class="g" d="M1081.227,639.515a25.7,25.7,0,0,0,9.617-1.268,6.743,6.743,0,0,0,4.238-8.4l-1.377-4.493a20.6,20.6,0,0,1-.242-11.216l10.63-40.917a10.65,10.65,0,0,0-.779-7.672,10.21,10.21,0,0,0-18.9,2.219L1073.7,609a40.983,40.983,0,0,0,.483,22.333l1.037,3.384A6.77,6.77,0,0,0,1081.227,639.515Z" transform="translate(-1072.38 -505.291)"/><path class="d" d="M1104.724,642.76,1089.9,665.121l11.466,16.785,4.593-19.389Z" transform="translate(-1071.56 -501.427)"/></g></svg>