<svg xmlns="http://www.w3.org/2000/svg" width="537.675" height="336.38" viewBox="0 0 537.675 336.38"><defs><style>.a{fill:rgba(15,0,0,0.1);}.b{fill:#c4e4f9;}.c{fill:#0f62fe;}.d{fill:#647ddd;opacity:0.17;}.e{fill:#bddcff;}.f{fill:#8dc0ef;}.g{fill:#e2e8f2;}.h{fill:#1f3598;}.i{fill:#4568c7;}.j{fill:#d5e8fa;}.k{fill:#eff6fc;}.l{fill:#75a3ec;}.m{fill:#f2f4f9;}.n{fill:#fff;}.o{fill:#484255;}.p{fill:#577de8;}.q{fill:#f2f4fa;}.r{fill:#3772ce;}.s{fill:#ff8358;}.t{fill:#fd8358;}.u{fill:#ced6e9;}.v{fill:#a0d2fe;}.w{opacity:0.34;}.x{fill:#c1d7ea;}</style></defs><g transform="translate(-422 -950)"><g transform="translate(422 1165.465)"><path class="a" d="M276,660H813.675s-11.269,20.927-37.026,17.708a149.484,149.484,0,0,1-20.927-1.61c-9.659-1.61-24.147,3.22-27.367,8.049,0,0-24.147,14.488-64.392,0,0,0-37.026-16.1-62.782-1.61,0,0-19.318,20.928-69.222-4.829,0,0-12.879-8.049-35.416,8.049,0,0-22.537,19.318-66-8.049,0,0-24.147-6.439-51.514,6.439C379.028,684.147,324.294,692.2,276,660Z" transform="translate(-276 -571.461)"/><path class="b" d="M582.407,634.075s27.206,15.026,15.19,36.5C597.6,670.576,578.133,666.564,582.407,634.075Z" transform="translate(-89.525 -587.27)"/><path class="c" d="M614.007,623s14.488,46.684-22.537,57.953C591.47,680.953,573.762,655.2,614.007,623Z" transform="translate(-85.991 -594.023)"/><path class="c" d="M334.352,621.92s-41.564,22.958-23.207,55.765C311.145,677.685,340.883,671.557,334.352,621.92Z" transform="translate(-257.422 -594.682)"/><path class="b" d="M292.061,605s-22.135,71.324,34.43,88.539C326.492,693.539,353.546,654.189,292.061,605Z" transform="translate(-268.808 -605)"/></g><g transform="translate(15 -38.02)"><path class="d" d="M2082.343,1008.589c-14.278,0-25.894,7.664-25.894,17.085s11.616,17.085,25.894,17.085,25.893-7.664,25.893-17.085S2096.62,1008.589,2082.343,1008.589Z" transform="translate(-1224.594 180.882)"/><path class="e" d="M2102.192,998.561l-6,30.1H2056.41l-6-30.1Z" transform="translate(-1214.708 170.457)"/><path class="e" d="M2096.515,1029.69c0,5.088-7.708,10.748-18.906,11.063-.323.007-.653.015-.983.015-11.723,0-19.889-5.84-19.889-11.078s8.166-11.086,19.889-11.086a31.763,31.763,0,0,1,8.278,1.058C2092.019,1021.576,2096.515,1025.8,2096.515,1029.69Z" transform="translate(-1215.034 169.424)"/><path class="f" d="M2103.653,998.561l-6,30.1c0,5.089-7.708,10.748-18.906,11.063a19.463,19.463,0,0,0,3.5-4.653,27.867,27.867,0,0,0,2.424-6.41,53.025,53.025,0,0,0,1.374-10.027c.1-1.718.157-3.437.2-5.141q.214-7.465.435-14.928Z" transform="translate(-1216.168 170.457)"/><ellipse class="g" cx="25.893" cy="17.085" rx="25.893" ry="17.085" transform="translate(835.698 1151.93)"/><ellipse class="h" cx="19.889" cy="11.081" rx="19.889" ry="11.081" transform="translate(841.702 1157.934)"/><circle class="f" cx="17.859" cy="17.859" r="17.859" transform="translate(841.103 1098.891) rotate(-80.783)"/><circle class="f" cx="12.663" cy="12.663" r="12.663" transform="translate(845.047 1103.527) rotate(-22.5)"/><ellipse class="f" cx="13.784" cy="13.784" rx="13.784" ry="13.784" transform="translate(843.582 1149.802) rotate(-67.5)"/><path class="f" d="M2082.4,1000.239a4.959,4.959,0,1,1-4.958-4.958A4.959,4.959,0,0,1,2082.4,1000.239Z" transform="translate(-1215.845 170.626)"/><path class="f" d="M2091,920.662c-3.962,5.058-3.837,6.494-2.221,10.754H2065.1c1.616-4.26,1.741-5.7-2.22-10.754Z" transform="translate(-1215.351 174.473)"/><path class="f" d="M2089.222,922.824c-13.063,12.178-11.5,25.676-2.1,35.758h-20.164c9.4-10.082,10.966-23.58-2.1-35.758Z" transform="translate(-1215.453 174.361)"/><path class="f" d="M2088.723,923.322c-13.534,11.651-11.128,66.215-7.893,69.973h-7.517c3.237-3.758,5.642-58.323-7.893-69.973Z" transform="translate(-1215.481 174.335)"/><path class="f" d="M2086.295,946.01c-4.409,4.567-4.506,8.451.465,13.25h-19.148c4.972-4.8,4.874-8.683.465-13.25Z" transform="translate(-1215.595 173.166)"/><path class="f" d="M2085.616,946.76c-9.507,8.364-7.917,43.98-4.642,47.7h-7.446c3.275-3.724,4.866-39.339-4.641-47.7Z" transform="translate(-1215.66 173.127)"/><path class="f" d="M2085.366,982.2c-8.94,6.492-6.423,11.24-4.088,14.456h-8.025c2.336-3.216,4.852-7.964-4.087-14.456Z" transform="translate(-1215.675 171.301)"/></g><g transform="translate(15 -38.02)"><path class="i" d="M1873.809,956.622a7.715,7.715,0,0,1,3.49-6.045c1.928-1.114,3.49-.212,3.491,2.015a7.714,7.714,0,0,1-3.491,6.045C1875.372,959.75,1873.809,958.848,1873.809,956.622Z" transform="translate(-1330.063 312.457)"/><path class="i" d="M1873.809,956.622a7.715,7.715,0,0,1,3.49-6.045c1.928-1.114,3.49-.212,3.491,2.015a7.714,7.714,0,0,1-3.491,6.045C1875.372,959.75,1873.809,958.848,1873.809,956.622Z" transform="translate(-1330.063 312.457)"/><path class="i" d="M1879.907,950.414l3.008,1.568-4.722,8.606-3.522-1.832.893-4.847Z" transform="translate(-1330.107 312.441)"/><path class="f" d="M1876.937,958.244a7.715,7.715,0,0,1,3.49-6.045c1.927-1.112,3.49-.211,3.49,2.016a7.717,7.717,0,0,1-3.49,6.045C1878.5,961.372,1876.937,960.471,1876.937,958.244Z" transform="translate(-1330.224 312.373)"/><path class="g" d="M1876.937,958.244a7.715,7.715,0,0,1,3.49-6.045c1.927-1.112,3.49-.211,3.49,2.016a7.717,7.717,0,0,1-3.49,6.045C1878.5,961.372,1876.937,960.471,1876.937,958.244Z" transform="translate(-1330.224 312.373)"/><path class="i" d="M1915.986,957.714a7.713,7.713,0,0,1,3.49-6.045c1.927-1.114,3.49-.212,3.49,2.015a7.715,7.715,0,0,1-3.49,6.046C1917.548,960.842,1915.986,959.939,1915.986,957.714Z" transform="translate(-1332.236 312.4)"/><path class="i" d="M1915.986,957.714a7.713,7.713,0,0,1,3.49-6.045c1.927-1.114,3.49-.212,3.49,2.015a7.715,7.715,0,0,1-3.49,6.046C1917.548,960.842,1915.986,959.939,1915.986,957.714Z" transform="translate(-1332.236 312.4)"/><path class="i" d="M1922.083,951.506l3.008,1.568-4.721,8.606-3.522-1.832.892-4.847Z" transform="translate(-1332.281 312.385)"/><path class="f" d="M1919.113,959.337a7.715,7.715,0,0,1,3.49-6.045c1.928-1.113,3.49-.211,3.49,2.015a7.714,7.714,0,0,1-3.49,6.046C1920.676,962.465,1919.113,961.563,1919.113,959.337Z" transform="translate(-1332.397 312.316)"/><path class="g" d="M1919.113,959.337a7.715,7.715,0,0,1,3.49-6.045c1.928-1.113,3.49-.211,3.49,2.015a7.714,7.714,0,0,1-3.49,6.046C1920.676,962.465,1919.113,961.563,1919.113,959.337Z" transform="translate(-1332.397 312.316)"/><path class="f" d="M2039.535,945.725a5.21,5.21,0,0,1-4.716,0c-1.3-.752-1.3-1.971,0-2.723a5.211,5.211,0,0,1,4.716,0C2040.837,943.754,2040.837,944.973,2039.535,945.725Z" transform="translate(-1338.312 312.852)"/><path class="h" d="M2113.248,803.514c-5.2-6.026-11.06,2.526-13.826,6.071-1.88,2.41-8.417,8.805-7.7,12.162.251,1.177.394,1.122,1.556,1.434a7.278,7.278,0,0,0,3.569-.133c6.137-1.479,11-4.947,13.785-10.257.113,1.475.142,2.952.124,4.43a.424.424,0,0,0,.658.346q.859-.561,1.687-1.168c2.058-1.52,1.15-3.675,1.707-6.126A7.683,7.683,0,0,0,2113.248,803.514Z" transform="translate(-1341.293 320.121)"/><path class="d" d="M1922.324,928.857c-13.239-7.643-34.7-7.643-47.937,0s-13.238,20.034,0,27.677,34.7,7.643,47.937,0S1935.56,936.5,1922.324,928.857Z" transform="translate(-1329.581 313.848)"/><path class="d" d="M2135.973,868.485,1959.7,768.234l-109.019,65.454a1.96,1.96,0,0,0,.046,3.389l171.359,96.61a11.461,11.461,0,0,0,11.606-.111l102.319-61.4A2.138,2.138,0,0,0,2135.973,868.485Z" transform="translate(-1328.822 321.831)"/><path class="f" d="M2040.511,878.475v61.984a.691.691,0,0,1-.05.242.547.547,0,0,1-.483.292h-5.605a.549.549,0,0,1-.483-.292.691.691,0,0,1-.05-.242V878.475a.538.538,0,0,1,.533-.534h5.605A.537.537,0,0,1,2040.511,878.475Z" transform="translate(-1338.312 316.176)"/><path class="f" d="M2040.511,889.091a.478.478,0,0,1-.06.231,1.1,1.1,0,0,1,.06.352,1.639,1.639,0,0,1-.976,1.358,5.2,5.2,0,0,1-4.719,0,1.641,1.641,0,0,1-.976-1.358,1.059,1.059,0,0,1,.061-.352.464.464,0,0,1-.061-.231V878.475a.538.538,0,0,1,.533-.534h5.605a.537.537,0,0,1,.533.534Z" transform="translate(-1338.312 316.176)"/><path class="f" d="M1852.35,841.9a5.209,5.209,0,0,1-4.716,0c-1.3-.752-1.3-1.971,0-2.723a5.209,5.209,0,0,1,4.716,0C1853.652,839.924,1853.652,841.143,1852.35,841.9Z" transform="translate(-1328.664 318.204)"/><path class="f" d="M1853.326,774.645V836.63a.69.69,0,0,1-.05.241.545.545,0,0,1-.482.292h-5.606a.548.548,0,0,1-.483-.292.7.7,0,0,1-.05-.241V774.645a.537.537,0,0,1,.533-.534h5.606A.537.537,0,0,1,1853.326,774.645Z" transform="translate(-1328.664 321.528)"/><path class="f" d="M1853.326,785.261a.476.476,0,0,1-.06.232,1.1,1.1,0,0,1,.06.352,1.64,1.64,0,0,1-.976,1.358,5.2,5.2,0,0,1-4.719,0,1.641,1.641,0,0,1-.976-1.358,1.07,1.07,0,0,1,.061-.352.466.466,0,0,1-.061-.232V774.645a.537.537,0,0,1,.533-.534h5.606a.537.537,0,0,1,.533.534Z" transform="translate(-1328.664 321.528)"/><path class="f" d="M2153.23,879.248a5.211,5.211,0,0,1-4.716,0c-1.3-.751-1.3-1.971,0-2.723a5.218,5.218,0,0,1,4.716,0C2154.533,877.277,2154.533,878.5,2153.23,879.248Z" transform="translate(-1344.172 316.278)"/><path class="f" d="M2154.208,812v61.985a.689.689,0,0,1-.052.242.546.546,0,0,1-.483.291h-5.6a.546.546,0,0,1-.482-.291.693.693,0,0,1-.05-.242V812a.537.537,0,0,1,.533-.533h5.6A.538.538,0,0,1,2154.208,812Z" transform="translate(-1344.172 319.604)"/><path class="f" d="M2154.208,827.526a.471.471,0,0,1-.061.231,1.092,1.092,0,0,1,.061.352,1.642,1.642,0,0,1-.976,1.358,5.2,5.2,0,0,1-4.72,0,1.639,1.639,0,0,1-.976-1.358,1.084,1.084,0,0,1,.06-.352.468.468,0,0,1-.06-.231V816.91a.536.536,0,0,1,.533-.533h5.6a.537.537,0,0,1,.534.533Z" transform="translate(-1344.172 319.35)"/><path class="j" d="M1843.692,761.735l-.012,13.3,19.8,7.309-1.01-7.244Z" transform="translate(-1328.51 322.166)"/><path class="j" d="M2160.8,814.282V802.411l-21.941,14.106,1.467,3.906Z" transform="translate(-1343.726 320.069)"/><path class="j" d="M1846.329,766.327l102.79-60.089a23.286,23.286,0,0,1,23.3-.117L2142.1,803.036a6.135,6.135,0,0,1,.024,10.64L2037.668,874a23.286,23.286,0,0,1-23.294,0l-168.019-97.066A6.134,6.134,0,0,1,1846.329,766.327Z" transform="translate(-1328.49 325.19)"/><path class="k" d="M1846.719,754.552l102.79-60.088a23.289,23.289,0,0,1,23.3-.118l169.682,96.915a6.134,6.134,0,0,1,.025,10.639l-104.459,60.328a23.286,23.286,0,0,1-23.294,0l-168.019-97.065A6.135,6.135,0,0,1,1846.719,754.552Z" transform="translate(-1328.51 325.798)"/><path class="f" d="M1973.34,821.39l-52.18-30.127c-2.368-1.368-2.368-3.584,0-4.951l20.512-11.843a9.475,9.475,0,0,1,8.576,0l52.18,30.127c2.368,1.368,2.368,3.584,0,4.951l-20.513,11.843A9.473,9.473,0,0,1,1973.34,821.39Z" transform="translate(-1332.412 321.563)"/><path class="f" d="M1919.384,785.658v4.949l58.244,32.439L2004.2,807.7v-3.759Z" transform="translate(-1332.412 320.934)"/><path class="e" d="M1973.34,817.427,1921.16,787.3c-2.368-1.367-2.368-3.583,0-4.951l20.512-11.843a9.481,9.481,0,0,1,8.576,0l52.18,30.128c2.368,1.367,2.368,3.583,0,4.951l-20.513,11.843A9.479,9.479,0,0,1,1973.34,817.427Z" transform="translate(-1332.412 321.768)"/><path class="e" d="M1985.286,810.528l-50.558-29.19,4.442-2.565,50.558,29.19Z" transform="translate(-1333.203 321.288)"/><path class="e" d="M1977.253,815.167l-50.557-29.19,4.442-2.565L1981.7,812.6Z" transform="translate(-1332.789 321.049)"/><path class="g" d="M1935.79,781.37l49.551,28.609,3.436-1.984-49.551-28.609Z" transform="translate(-1333.258 321.256)"/><path class="g" d="M1927.757,786.008l49.551,28.609,3.436-1.985-49.551-28.609Z" transform="translate(-1332.844 321.018)"/><path class="g" d="M1943.607,776.1l49.551,28.61,3.437-1.985-49.551-28.608Z" transform="translate(-1333.661 321.527)"/><path class="l" d="M2042.182,820.326c0,3.318-5.063,6.008-11.309,6.008s-11.31-2.69-11.31-6.008,5.064-6.007,11.31-6.007S2042.182,817.009,2042.182,820.326Z" transform="translate(-1337.575 319.455)"/><ellipse class="e" cx="11.309" cy="6.007" rx="11.309" ry="6.007" transform="translate(681.987 1130.797)"/><path class="h" d="M2037.633,907.186l1.156-.672c.175-.1.174-.267-.005-.37l-1.16-.67a.706.706,0,0,0-.639,0l-1.154.672a.2.2,0,0,0,0,.37l1.16.67a.7.7,0,0,0,.639,0Z" transform="translate(-1338.407 314.762)"/><path class="f" d="M2001.339,749.255s5.716,15.611,0,18.911l-2.764,1.6-.008,0-10.836,6.259c-1.525.881-1.524,2.323,0,3.2l15.221,8.792a6.014,6.014,0,0,0,5.519-.046l7.729-4.571.077.036c.889-.552,1.719-1.072,2.466-1.54l.339-.2c.032-.02.053-.044.083-.064,1.567-.984,2.629-1.657,2.629-1.657s4.834-3.541,4.834-16.12Z" transform="translate(-1335.876 322.81)"/><path class="m" d="M2026.635,760.754c0,12.581-4.835,16.12-4.835,16.12s-1.059.669-2.634,1.658a.4.4,0,0,0-.084.069l-.334.2q-1.128.71-2.465,1.547l-.084-.043-.892.53-6.827,4.04a6.012,6.012,0,0,1-5.53.042l-15.214-8.791c-1.533-.878-1.533-2.313,0-3.205l6.84-3.957,3.985-2.3h.014c.99-.571,1.937-1.115,2.759-1.6,5.586-3.218.278-18.14.013-18.878v-.014h.014Z" transform="translate(-1335.876 322.969)"/><path class="k" d="M2027.069,760.754c0,12.581-4.834,16.12-4.834,16.12s-1.059.669-2.634,1.658a.374.374,0,0,0-.083.069l-.335.2q-1.128.71-2.465,1.547l-.084-.043-.892.53L1995.01,768.96l3.984-2.3h.014c.989-.571,1.937-1.115,2.759-1.6,5.586-3.218.278-18.14.013-18.878l.015-.014Z" transform="translate(-1336.311 322.969)"/><path class="n" d="M2062.488,707.833l-80.616-46.543c-2-1.156-3.533-.676-5.283.735l-3.724,2.089,4.006,2.832v62.981a11.055,11.055,0,0,0,5,8.663l78.942,45.575v3.582a.645.645,0,0,0,1.01.53l3.786-2.61c1.144-.4,1.88-1.6,1.88-3.423V716.508A11.07,11.07,0,0,0,2062.488,707.833Z" transform="translate(-1335.169 327.377)"/><path class="o" d="M2061.957,719.836v65.736c0,3.2-2.243,4.48-5,2.888l-80.616-46.543a11.05,11.05,0,0,1-5-8.663V667.518c0-3.2,2.243-4.492,5-2.9l80.615,46.542A11.073,11.073,0,0,1,2061.957,719.836Z" transform="translate(-1335.09 327.207)"/><path class="p" d="M1977.728,735.984v-63.3l78.494,45.317v63.3Z" transform="translate(-1335.42 326.756)"/><path class="f" d="M2061.957,775.943v12.707c0,3.2-2.243,4.48-5,2.888l-80.616-46.543a11.049,11.049,0,0,1-5-8.663V723.625Z" transform="translate(-1335.09 324.131)"/><path class="f" d="M2059.159,792.752a5.121,5.121,0,0,1-2.528-.765l-80.616-46.543a11.542,11.542,0,0,1-5.293-9.169V722.56l91.786,52.991v13.043a4.064,4.064,0,0,1-1.755,3.745A3.153,3.153,0,0,1,2059.159,792.752Zm-87.27-68.171v11.7a10.428,10.428,0,0,0,4.71,8.159l80.616,46.542a2.484,2.484,0,0,0,4.127-2.383V776.226Z" transform="translate(-1335.059 324.186)"/><path class="q" d="M2016.063,759.319c0,1.933-1.357,2.716-3.031,1.75a6.7,6.7,0,0,1-3.031-5.25c0-1.933,1.357-2.716,3.031-1.75A6.7,6.7,0,0,1,2016.063,759.319Z" transform="translate(-1337.083 322.582)"/><path class="f" d="M2012.276,702l-21.23-12.257v15.125l21.229,12.257Z" transform="translate(-1336.106 325.877)"/><path class="f" d="M2039.135,717.51l-21.23-12.257v15.125l21.23,12.257Z" transform="translate(-1337.491 325.077)"/><path class="f" d="M2012.276,723.118l-21.23-12.257v15.124l21.229,12.256Z" transform="translate(-1336.105 324.789)"/><path class="f" d="M2039.135,738.624,2017.9,726.367v15.124l21.231,12.257Z" transform="translate(-1337.49 323.989)"/><path class="r" d="M1928.544,777.393c-.021,0-.041.023-.062.045a1.387,1.387,0,0,1-.021-.294A.361.361,0,0,0,1928.544,777.393Z" transform="translate(-1332.879 321.372)"/><path class="s" d="M1927.535,774.316a1.041,1.041,0,0,1-.79.065c-.028-.068-.013-.142-.052-.207Z" transform="translate(-1332.788 321.525)"/><path class="s" d="M1931.545,782.827c.144.01.288.039.432.058l-1.135-1.087C1931.083,782.135,1931.313,782.481,1931.545,782.827Z" transform="translate(-1333.003 321.132)"/><path class="r" d="M1928.171,771.668c-.021,0-.039.026-.057.05a1.434,1.434,0,0,1-.05-.29A.362.362,0,0,0,1928.171,771.668Z" transform="translate(-1332.858 321.666)"/><path class="s" d="M1926.858,768.708a1.036,1.036,0,0,1-.781.144c-.033-.064-.027-.14-.072-.2Z" transform="translate(-1332.753 321.81)"/><path class="h" d="M1921.925,746.8l-.527.053Z" transform="translate(-1332.516 322.936)"/><path class="t" d="M1977.658,824.3c-2.826,2.626-6.8,2.94-8.884.7s-1.476-6.182,1.35-8.807,6.8-2.94,8.883-.7S1980.483,821.673,1977.658,824.3Z" transform="matrix(0.985, -0.174, 0.174, 0.985, -1451.723, 673.846)"/><path class="t" d="M1971.436,817.356h0a1.846,1.846,0,0,1,.1-2.607l8.115-7.54a1.844,1.844,0,0,1,2.606.1h0a1.844,1.844,0,0,1-.1,2.606l-8.114,7.54A1.846,1.846,0,0,1,1971.436,817.356Z" transform="matrix(0.985, -0.174, 0.174, 0.985, -1451.83, 674.246)"/><path class="i" d="M1918.062,931.888a7.718,7.718,0,0,1,3.49-6.045c1.927-1.113,3.49-.211,3.49,2.016a7.712,7.712,0,0,1-3.49,6.045C1919.625,935.016,1918.062,934.114,1918.062,931.888Z" transform="translate(-1332.344 313.732)"/><path class="i" d="M1918.062,931.888a7.718,7.718,0,0,1,3.49-6.045c1.927-1.113,3.49-.211,3.49,2.016a7.712,7.712,0,0,1-3.49,6.045C1919.625,935.016,1918.062,934.114,1918.062,931.888Z" transform="translate(-1332.344 313.732)"/><path class="i" d="M1924.16,925.68l3.008,1.568-4.722,8.606-3.522-1.832.893-4.847Z" transform="translate(-1332.388 313.716)"/><path class="f" d="M1921.19,933.51a7.713,7.713,0,0,1,3.49-6.045c1.927-1.114,3.49-.211,3.49,2.016a7.718,7.718,0,0,1-3.49,6.045C1922.752,936.639,1921.19,935.737,1921.19,933.51Z" transform="translate(-1332.505 313.648)"/><path class="g" d="M1921.19,933.51a7.713,7.713,0,0,1,3.49-6.045c1.927-1.114,3.49-.211,3.49,2.016a7.718,7.718,0,0,1-3.49,6.045C1922.752,936.639,1921.19,935.737,1921.19,933.51Z" transform="translate(-1332.505 313.648)"/><path class="i" d="M1873.025,932.806a7.717,7.717,0,0,1,3.49-6.046c1.927-1.113,3.49-.211,3.49,2.016a7.712,7.712,0,0,1-3.49,6.045C1874.588,935.934,1873.025,935.032,1873.025,932.806Z" transform="translate(-1330.021 313.685)"/><path class="i" d="M1873.025,932.806a7.717,7.717,0,0,1,3.49-6.046c1.927-1.113,3.49-.211,3.49,2.016a7.712,7.712,0,0,1-3.49,6.045C1874.588,935.934,1873.025,935.032,1873.025,932.806Z" transform="translate(-1330.021 313.685)"/><path class="i" d="M1879.122,926.6l3.008,1.568-4.722,8.606-3.522-1.832.893-4.847Z" transform="translate(-1330.066 313.668)"/><path class="f" d="M1876.153,934.429a7.713,7.713,0,0,1,3.49-6.045c1.927-1.113,3.49-.211,3.49,2.015a7.714,7.714,0,0,1-3.49,6.045C1877.715,937.557,1876.153,936.655,1876.153,934.429Z" transform="translate(-1330.184 313.602)"/><path class="g" d="M1876.153,934.429a7.713,7.713,0,0,1,3.49-6.045c1.927-1.113,3.49-.211,3.49,2.015a7.714,7.714,0,0,1-3.49,6.045C1877.715,937.557,1876.153,936.655,1876.153,934.429Z" transform="translate(-1330.184 313.602)"/><path class="k" d="M1923.417,946.574l-15.445-8.917,15.445-8.917c2.535-1.464,2.535-3.858,0-5.323h0a10.228,10.228,0,0,0-9.219,0l-15.445,8.917-15.445-8.917a10.228,10.228,0,0,0-9.219,0c-2.535,1.464-2.535,3.859,0,5.323l15.445,8.917-15.445,8.917c-2.535,1.463-2.535,3.859,0,5.323h0a10.228,10.228,0,0,0,9.219,0l15.445-8.917L1914.2,951.9a10.228,10.228,0,0,0,9.219,0C1925.952,950.433,1925.952,948.037,1923.417,946.574Z" transform="translate(-1329.979 313.889)"/><path class="k" d="M1923.417,946.574l-15.445-8.917,15.445-8.917c2.535-1.464,2.535-3.858,0-5.323h0a10.228,10.228,0,0,0-9.219,0l-15.445,8.917-15.445-8.917a10.228,10.228,0,0,0-9.219,0c-2.535,1.464-2.535,3.859,0,5.323l15.445,8.917-15.445,8.917c-2.535,1.463-2.535,3.859,0,5.323h0a10.228,10.228,0,0,0,9.219,0l15.445-8.917L1914.2,951.9a10.228,10.228,0,0,0,9.219,0C1925.952,950.433,1925.952,948.037,1923.417,946.574Z" transform="translate(-1329.979 313.889)"/><path class="f" d="M1892,937.8c0,2.885,3.481,5.224,7.778,5.224s7.778-2.339,7.778-5.224-3.483-7.666-7.778-7.666S1892,934.91,1892,937.8Z" transform="translate(-1331.001 313.486)"/><path class="k" d="M1894.18,933.962c0,2.117,2.555,3.834,5.707,3.834s5.706-1.717,5.706-3.834-2.554-3.833-5.706-3.833S1894.18,931.846,1894.18,933.962Z" transform="translate(-1331.112 313.486)"/><path class="f" d="M1900.008,890.8a3.514,3.514,0,0,0-3.491,3.539V928.4a3.491,3.491,0,1,0,6.981,0V894.338A3.514,3.514,0,0,0,1900.008,890.8Z" transform="translate(-1331.233 315.514)"/><g transform="translate(9239 -6810)"><g transform="translate(-9936.738 6308.377)"><path class="r" d="M1302.316,1724.383c-2.958-2.325-9.729,1.725-12.978,2.449-2.1.467-9.753.9-9.16,4.54a12.606,12.606,0,0,0-.381,2.788,10.818,10.818,0,0,0,.337,3.55,9.474,9.474,0,0,0,4.492,2.7,5.732,5.732,0,0,0,.606-.072,13.446,13.446,0,0,0,4.02-1.888c4.006-2.455,10.008-4.611,13.021-8.323C1303.617,1728.467,1303.992,1725.7,1302.316,1724.383Z"/><path class="u" d="M3.953,0h6.671a3.953,3.953,0,0,1,3.953,3.953v.325A3.952,3.952,0,0,1,10.626,8.23H3.955A3.955,3.955,0,0,1,0,4.276V3.953A3.953,3.953,0,0,1,3.953,0Z" transform="translate(1281.145 1733.677) rotate(-89.292)"/><path class="r" d="M1280.1,1688.907l-.184,35.134a4.837,4.837,0,0,0,4.431,4.126l2.408.177a4.837,4.837,0,0,0,5.187-5.056l4.31-34.381Z"/></g><g transform="translate(-9936.738 6308.377)"><path class="i" d="M1325.768,1678.9a15.877,15.877,0,0,0-15.378-11.969c-.434,0-.867.019-1.31.058l-.683.057-3.65,1.56-20.813,8.932a29.086,29.086,0,0,1-28.755-3.335l-3.17-2.342-6.519-4.815v19.172a11.98,11.98,0,0,0,5.8,10.265l9.735,5.864,11.344,6.827a14.841,14.841,0,0,0,15.512-.116l34.4-21.454A7.961,7.961,0,0,0,1325.768,1678.9Z"/></g><g transform="translate(-9936.738 6308.377)"><path class="s" d="M1307.151,1628.238c-2.613,1.946-15.958,11.785-22.043,14.533a25.511,25.511,0,0,1-10.579,2.283,22.3,22.3,0,0,1-7.665-1.36,16.336,16.336,0,0,1-9.663-8.673,14.339,14.339,0,0,1-.905-2.876l-4.915-24.26c-.594-2.922,1.8-5.963,5.328-6.788s6.891.877,7.484,3.807l4.915,24.26c.007.016.005.031.012.047a5.965,5.965,0,0,0,3.977,4.317,9.227,9.227,0,0,0,6.907-.351c3.358-1.518,13.248-8.432,19.2-12.864,2.837-2.11,6.913-2.042,9.109.149S1309.987,1626.135,1307.151,1628.238Z"/></g><g transform="translate(-9936.738 6308.377)"><path class="v" d="M1295.225,1676.218a7.435,7.435,0,0,1-4.94,7.232c-1.811.645-4.824,1.675-7.2,2.234a15.844,15.844,0,0,1-1.877.337,31.759,31.759,0,0,1-19.885-4.535l-13.095-7.627a5.6,5.6,0,0,1-2.764-4.959l1.377-54.356a15.806,15.806,0,0,1,7.848-13.635,12.417,12.417,0,0,1,6.124-1.29,26.726,26.726,0,0,1,3.418.231c6.009.722,12.7,3.216,16.148,5.624,3.39,2.147,7.6,3.543,10.313,6.22a9.083,9.083,0,0,1,2.8,6.577C1293.549,1620.187,1295.225,1676.218,1295.225,1676.218Z"/><g class="w"><path class="v" d="M1284.774,1619.158a.813.813,0,0,1-.355.388,29.76,29.76,0,0,0-.461,5.571c-.019,3.486.135,7.077-1.1,10.342-.751,1.983-2,3.784-2.475,5.854-1.136,4.93,2.3,9.648,3.293,14.6,1.1,5.508-.857,11.1-1.377,16.687a51.119,51.119,0,0,0,.78,13.086c2.379-.559,5.392-1.589,7.2-2.234a7.435,7.435,0,0,0,4.94-7.232s-1.55-51.811-1.72-57.486C1290.955,1615.906,1286.758,1614.715,1284.774,1619.158Z"/></g></g><g transform="translate(-9936.738 6308.377)"><path class="s" d="M1334.009,1647.842c-1.916,2.4-11.713,14.519-16.379,17.925a14.267,14.267,0,0,1-8.394,2.88,13.819,13.819,0,0,1-6.426-1.591,19.276,19.276,0,0,1-8.892-10.494,25.611,25.611,0,0,1-1.069-3.5l-6.784-29.551c-.82-3.56.79-7.291,3.585-8.328s5.737,1.008,6.557,4.577l6.784,29.552c.008.019.008.038.016.057a7.7,7.7,0,0,0,3.744,5.23,5.22,5.22,0,0,0,5.612-.489c2.573-1.882,9.878-10.4,14.242-15.863a4.526,4.526,0,0,1,7.469.1A8.059,8.059,0,0,1,1334.009,1647.842Z"/></g><g transform="translate(-9936.738 6308.377)"><path class="i" d="M1332.691,1736.824c-3.205-2.519-10.541,1.869-14.061,2.653-2.275.507-10.568.978-9.926,4.921a13.614,13.614,0,0,0-.413,3.02,11.74,11.74,0,0,0,.365,3.847,10.266,10.266,0,0,0,4.868,2.921,6.2,6.2,0,0,0,.656-.078,14.591,14.591,0,0,0,4.356-2.045c4.341-2.661,10.845-5,14.11-9.019C1334.1,1741.25,1334.508,1738.252,1332.691,1736.824Z"/><rect class="i" width="8.918" height="15.795" rx="4.284" transform="translate(1318.673 1747.003) rotate(-179.314)"/><path class="i" d="M1309.394,1680.322l-.975,56.132a5.239,5.239,0,0,0,4.8,4.47l2.609.192a5.242,5.242,0,0,0,5.621-5.478l4.318-56.74Z"/></g><g transform="translate(-9936.738 6308.377)"><path class="i" d="M1307.551,1648.668l-8.408-28.2a8.255,8.255,0,0,0-4.057-4.941,8.6,8.6,0,0,0-6.445-.685,8.389,8.389,0,0,0-5.05,3.963,8.052,8.052,0,0,0-.707,6.292l8.431,28.291a22.358,22.358,0,0,0,1.447,3.647l.355.7a.976.976,0,0,0,1.176.476l.756-.249c.436-.144.881-.308,1.285-.473a33.473,33.473,0,0,0,10.765-6.851l.473-.452a.93.93,0,0,0,.192-1.094Z"/></g></g><path class="x" d="M1966.818,887.525c0,.191,0,.393-.02.594a17.362,17.362,0,0,1-8.955,13.906L1919.766,922.9a10.113,10.113,0,0,1-1.8.775,10.394,10.394,0,0,1-8.5-.926l-43.611-25.7a23.8,23.8,0,0,1-11.613-18.294l-4.567-48.883-.473-5.082a5.428,5.428,0,0,1,7.809-5.373l47.2,23.355a5.429,5.429,0,0,1,2.747,3.159l15.094,45.8a6.3,6.3,0,0,0,9.107,3.5l24.632-14.087A7.371,7.371,0,0,1,1966.818,887.525Z" transform="translate(-1337.793 304.223)"/><path class="i" d="M1916.605,920.709a3.026,3.026,0,0,1-3.264,4.063,10.372,10.372,0,0,1-3.833-1.338l-43.611-25.7a23.8,23.8,0,0,1-11.613-18.294l-4.206-45.008a2.173,2.173,0,0,1,3.127-2.15l38.089,18.833a5.45,5.45,0,0,1,2.747,3.17l15.084,45.8C1909.645,901.685,1912.834,910.815,1916.605,920.709Z" transform="translate(-1337.839 303.541)"/><g transform="matrix(-0.996, 0.087, -0.087, -0.996, 591.972, 1091.385)"><g transform="translate(0 0)"><path class="s" d="M25.29,14.46c-.133-3.716-.77-7.384-2.948-10.111C19.945,1.308,16.074.1,12.4.005a11.019,11.019,0,0,0-5.917,1.3C3.1,3.335,1.513,7.7.656,11.83a34.67,34.67,0,0,0-.638,4.754,17.682,17.682,0,0,0,.528,5.382A15.482,15.482,0,0,0,7.32,30.8a24.4,24.4,0,0,0,10.293,3.258,8.256,8.256,0,0,0,5.169-.627,4.4,4.4,0,0,0,2.09-2.9,3.378,3.378,0,0,0,.044-1.328c.11-3.378.219-6.733.33-10.111C25.29,17.573,25.334,16.029,25.29,14.46Z"/></g></g><g transform="translate(-439.889 382.957) rotate(9)"><path class="s" d="M1119.944,538.282V552.8h-.079a4.484,4.484,0,0,1-2.24,2.8,8.957,8.957,0,0,1-4.567,1.139c-3.508,0-6.327-1.68-6.8-3.939h-.079V538.282a6.246,6.246,0,0,1,2.014-4.558,7.069,7.069,0,0,1,3.949-1.837c.363-.02.747-.049,1.139-.049a7.731,7.731,0,0,1,2.348.442,6.752,6.752,0,0,1,2.426,1.581A6.2,6.2,0,0,1,1119.944,538.282Z"/></g><g transform="translate(-108.738 75.377)"><path class="r" d="M698.316,995.307c0,10.292-7.177,18.627-16.052,18.627a14.473,14.473,0,0,1-9.429-3.559,19.653,19.653,0,0,1-6.611-15.068,21.465,21.465,0,0,1,.349-3.863,20.767,20.767,0,0,1,1.938-5.742,17.48,17.48,0,0,1,6.094-6.773,14.377,14.377,0,0,1,7.659-2.249c.337,0,.686.013,1.023.039a14.289,14.289,0,0,1,6.154,1.905C694.7,981.68,698.316,988,698.316,995.307Z"/><path class="s" d="M704.011,999.77c0,9.617-7.478,17.413-16.715,17.413a16.159,16.159,0,0,1-9.826-3.327,17.637,17.637,0,0,1-6.876-14.086c0-9.629,7.478-17.425,16.7-17.425.349,0,.711.013,1.06.038C697.1,982.948,704.011,990.505,704.011,999.77Z"/><path class="r" d="M675.834,995.143a6.194,6.194,0,0,1,1.4-3l1.2-1.279c.04-.043.085-.073.126-.114.343-4.093,2.878-8.547,6.131-10.453l-5.79,2.048-1.655,2.7v-3.122a18.3,18.3,0,0,0-8.629,12.33h6.146v.892Z"/><path class="r" d="M706.5,981.106c.174-2.912-1.055-4.752-5.006-3.168-8.659,3.472-17.981-1.877-26.524,2.178-10.274,4.876-11.205,19.1-5.831,29,2.148,3.96,5.788,9.211,10.065,8.815,8.1-.752,12.19-7.765,16.812-19,1.428-3.47,3.015-3.737,5.308-5.921C703.428,991.009,706.259,985.066,706.5,981.106Z"/><path class="s" d="M698.3,1000.878a4.995,4.995,0,1,1-4.984-5.311A5.155,5.155,0,0,1,698.3,1000.878Z"/></g></g></g></svg>