<svg xmlns="http://www.w3.org/2000/svg" width="537.675" height="372.199" viewBox="0 0 537.675 372.199"><defs><style>.a{fill:#525252;}.b,.c{fill:#fff;}.c{font-size:20px;font-family:HelveticaNeue, Helvetica Neue;}.d{fill:#8dc0ef;}.e{fill:#d5e8fa;}.f{fill:#1f3598;}.g{fill:#647ddd;opacity:0.17;}.h{fill:#eff6fc;}.i{fill:#bddcff;}.j{fill:#e2e8f2;}.k{fill:#75a3ec;}.l{fill:#f2f4f9;}.m{fill:#484255;}.n{fill:#577de8;}.o{fill:#f2f4fa;}.p{fill:#3772ce;}.q{fill:#ff8358;}.r{fill:#fd8358;}.s{fill:#4568c7;}.t{fill:#ced6e9;}.u{fill:#a0d2fe;}.v{opacity:0.34;}.w{fill:#c1d7ea;}.x{fill:rgba(15,0,0,0.1);}.y{fill:#c4e4f9;}.z{fill:#0f62fe;}</style></defs><g transform="translate(-398.325 -4977.2)"><path class="a" d="M130,0A130,130,0,1,1,0,130,130,130,0,0,1,130,0Z" transform="translate(667.545 4977.2)"/><g transform="translate(122.982 4633.342)"><g transform="translate(645.613 435.655)"><path class="b" d="M654.45,453.779l-6.426-6.426,2.124-2.124,4.3,4.3L667,436.979l2.124,2.124Z" transform="translate(-648.023 -436.979)"/></g><g transform="translate(638.343 431.658)"><path class="b" d="M665.055,458.37H638.343V431.658h25.211v3H641.347v20.7h20.7V445.014h3Z" transform="translate(-638.343 -431.658)"/></g><g transform="translate(681.522 437.756)"><rect class="b" width="15.208" height="3.004"/></g><g transform="translate(682.649 448.828)"><rect class="b" width="28.508" height="3.004"/></g><g transform="translate(645.613 467.767)"><path class="b" d="M654.45,496.536l-6.426-6.426,2.124-2.124,4.3,4.3L667,479.737l2.124,2.124Z" transform="translate(-648.023 -479.737)"/></g><g transform="translate(638.343 463.77)"><path class="b" d="M665.055,501.129H638.343V474.416h25.211v3H641.347v20.7h20.7V487.772h3Z" transform="translate(-638.343 -474.416)"/></g><g transform="translate(681.522 469.869)"><rect class="b" width="15.208" height="3.004"/></g><g transform="translate(682.649 480.94)"><rect class="b" width="28.508" height="3.004"/></g><g transform="translate(645.613 499.88)"><path class="b" d="M654.45,539.3l-6.426-6.426,2.124-2.124,4.3,4.3L667,522.5l2.124,2.124Z" transform="translate(-648.023 -522.496)"/></g><g transform="translate(638.343 495.883)"><path class="b" d="M665.055,543.887H638.343V517.175h25.211v3H641.347v20.7h20.7V530.531h3Z" transform="translate(-638.343 -517.175)"/></g><g transform="translate(681.522 501.982)"><rect class="b" width="15.208" height="3.004"/></g><g transform="translate(682.649 513.053)"><rect class="b" width="28.508" height="3.004"/></g></g><text class="c" transform="translate(780.325 5024)"><tspan x="0" y="19">AID</tspan></text><g transform="translate(879.325 -8431)"><g transform="translate(-255 -185)"><path class="d" d="M2153.349,811.929v54a.6.6,0,0,1-.045.211.476.476,0,0,1-.421.254H2148a.475.475,0,0,1-.42-.254.6.6,0,0,1-.044-.211v-54a.468.468,0,0,1,.464-.464h4.883A.469.469,0,0,1,2153.349,811.929Z" transform="translate(-2041.451 12987.181)"/><path class="d" d="M2153.349,826.09a.41.41,0,0,1-.053.2.952.952,0,0,1,.053.307,1.43,1.43,0,0,1-.85,1.183,4.533,4.533,0,0,1-4.112,0,1.428,1.428,0,0,1-.85-1.183.944.944,0,0,1,.052-.307.407.407,0,0,1-.052-.2v-9.249a.467.467,0,0,1,.464-.464h4.883a.468.468,0,0,1,.466.464Z" transform="translate(-2041.451 12986.327)"/><path class="e" d="M2157.974,812.754V802.411l-19.115,12.29,1.278,3.4Z" transform="translate(-2039.944 12988.753)"/></g><g transform="translate(-238 -181)"><path class="d" d="M2038.8,945.3a4.539,4.539,0,0,1-4.108,0,1.252,1.252,0,0,1,0-2.372,4.54,4.54,0,0,1,4.108,0A1.252,1.252,0,0,1,2038.8,945.3Z" transform="translate(-2021.703 12964.431)"/><path class="f" d="M2110.469,803.245c-4.532-5.25-9.635,2.2-12.045,5.289-1.638,2.1-7.333,7.671-6.71,10.6.219,1.025.343.977,1.355,1.249a6.34,6.34,0,0,0,3.109-.116,17.714,17.714,0,0,0,12.01-8.936c.1,1.285.123,2.571.107,3.86a.37.37,0,0,0,.573.3q.749-.488,1.47-1.017c1.793-1.325,1-3.2,1.487-5.337A6.694,6.694,0,0,0,2110.469,803.245Z" transform="translate(-2031.747 12988.925)"/><path class="g" d="M1914.871,928.119c-11.534-6.658-30.231-6.658-41.763,0s-11.533,17.454,0,24.112,30.229,6.658,41.763,0S1926.4,934.778,1914.871,928.119Z" transform="translate(-1992.282 12967.786)"/><path class="g" d="M2099.109,855.574l-153.571-87.34-94.979,57.024a1.708,1.708,0,0,0,.04,2.952l149.29,84.168a9.985,9.985,0,0,0,10.111-.1l89.142-53.494A1.862,1.862,0,0,0,2099.109,855.574Z" transform="translate(-1989.724 12994.689)"/><path class="d" d="M2039.652,878.406v54a.6.6,0,0,1-.044.211.477.477,0,0,1-.421.255H2034.3a.479.479,0,0,1-.421-.255.6.6,0,0,1-.044-.211v-54a.468.468,0,0,1,.465-.465h4.884A.468.468,0,0,1,2039.652,878.406Z" transform="translate(-2021.702 12975.633)"/><path class="d" d="M2039.652,887.655a.416.416,0,0,1-.052.2.952.952,0,0,1,.052.307,1.428,1.428,0,0,1-.85,1.183,4.53,4.53,0,0,1-4.111,0,1.43,1.43,0,0,1-.851-1.183.922.922,0,0,1,.053-.307.4.4,0,0,1-.053-.2v-9.249a.468.468,0,0,1,.465-.465h4.884a.468.468,0,0,1,.464.465Z" transform="translate(-2021.702 12975.633)"/><path class="d" d="M1851.617,841.472a4.539,4.539,0,0,1-4.108,0,1.252,1.252,0,0,1,0-2.372,4.538,4.538,0,0,1,4.108,0A1.252,1.252,0,0,1,1851.617,841.472Z" transform="translate(-1989.191 12982.466)"/><path class="d" d="M1852.467,774.576v54a.6.6,0,0,1-.044.21.475.475,0,0,1-.42.254h-4.884a.478.478,0,0,1-.421-.254.61.61,0,0,1-.043-.21v-54a.468.468,0,0,1,.464-.465H1852A.467.467,0,0,1,1852.467,774.576Z" transform="translate(-1989.19 12993.668)"/><path class="d" d="M1852.467,783.825a.415.415,0,0,1-.052.2.955.955,0,0,1,.052.307,1.428,1.428,0,0,1-.85,1.183,4.531,4.531,0,0,1-4.112,0,1.43,1.43,0,0,1-.85-1.183.933.933,0,0,1,.053-.307.407.407,0,0,1-.053-.2v-9.249a.468.468,0,0,1,.464-.465H1852a.467.467,0,0,1,.464.465Z" transform="translate(-1989.19 12993.668)"/><path class="e" d="M1843.691,761.735l-.011,11.583,17.246,6.368-.88-6.311Z" transform="translate(-1988.673 12995.817)"/><path class="e" d="M1845.938,758.179l89.552-52.351a20.287,20.287,0,0,1,20.3-.1l147.83,84.433a5.345,5.345,0,0,1,.021,9.27l-91.006,52.557a20.287,20.287,0,0,1-20.294,0l-146.38-84.565A5.344,5.344,0,0,1,1845.938,758.179Z" transform="translate(-1988.606 13006.01)"/><path class="h" d="M1846.328,746.4l89.552-52.35a20.289,20.289,0,0,1,20.3-.1l147.829,84.434a5.344,5.344,0,0,1,.022,9.269l-91.006,52.558a20.287,20.287,0,0,1-20.294,0l-146.38-84.564A5.345,5.345,0,0,1,1846.328,746.4Z" transform="translate(-1988.673 13008.056)"/><path class="d" d="M1966.391,815.215l-45.46-26.247c-2.063-1.192-2.063-3.123,0-4.313l17.87-10.318a8.255,8.255,0,0,1,7.472,0l45.46,26.247c2.063,1.192,2.063,3.123,0,4.313l-17.871,10.318A8.253,8.253,0,0,1,1966.391,815.215Z" transform="translate(-2001.822 12993.784)"/><path class="d" d="M1919.384,785.658v4.311l50.743,28.261,23.154-13.368v-3.275Z" transform="translate(-2001.823 12991.663)"/><path class="i" d="M1966.391,811.252,1920.931,785c-2.063-1.191-2.063-3.122,0-4.313l17.87-10.318a8.26,8.26,0,0,1,7.472,0l45.46,26.248c2.063,1.191,2.063,3.122,0,4.313l-17.871,10.318A8.258,8.258,0,0,1,1966.391,811.252Z" transform="translate(-2001.822 12994.474)"/><path class="i" d="M1978.775,806.439l-44.046-25.431,3.87-2.234,44.046,25.431Z" transform="translate(-2004.488 12992.858)"/><path class="i" d="M1970.742,811.077,1926.7,785.646l3.87-2.234,44.046,25.431Z" transform="translate(-2003.092 12992.053)"/><path class="j" d="M1935.79,781.114l43.169,24.925,2.994-1.728-43.17-24.925Z" transform="translate(-2004.672 12992.752)"/><path class="j" d="M1927.757,785.753l43.169,24.925,2.994-1.729-43.169-24.924Z" transform="translate(-2003.277 12991.946)"/><path class="j" d="M1943.607,775.847l43.169,24.925,2.994-1.729-43.17-24.924Z" transform="translate(-2006.03 12993.667)"/><path class="k" d="M2039.269,819.552c0,2.89-4.411,5.234-9.853,5.234s-9.853-2.343-9.853-5.234,4.412-5.233,9.853-5.233S2039.269,816.662,2039.269,819.552Z" transform="translate(-2019.222 12986.684)"/><ellipse class="i" cx="9.853" cy="5.233" rx="9.853" ry="5.233" transform="translate(0.34 13798.409)"/><path class="f" d="M2037.384,906.956l1.007-.585c.153-.088.152-.233,0-.322l-1.01-.583a.615.615,0,0,0-.557,0l-1.006.585a.17.17,0,0,0,0,.322l1.011.583a.613.613,0,0,0,.557,0Z" transform="translate(-2022.025 12970.865)"/><path class="d" d="M1999.44,749.255s4.98,13.6,0,16.476l-2.408,1.39-.007,0-9.441,5.453c-1.329.768-1.328,2.024,0,2.79l13.261,7.66a5.24,5.24,0,0,0,4.808-.04l6.734-3.982.067.031c.774-.481,1.5-.934,2.148-1.342l.3-.175c.028-.017.046-.038.072-.056,1.365-.857,2.291-1.444,2.291-1.444s4.211-3.085,4.211-14.044Z" transform="translate(-2013.495 12997.985)"/><path class="l" d="M2021.477,758.876c0,10.961-4.212,14.044-4.212,14.044s-.922.583-2.294,1.444a.349.349,0,0,0-.073.06l-.291.17q-.983.619-2.148,1.348l-.073-.037-.777.462-5.948,3.52a5.238,5.238,0,0,1-4.818.036l-13.255-7.659c-1.335-.765-1.335-2.015,0-2.792l5.959-3.447,3.472-2h.012c.862-.5,1.687-.971,2.4-1.4,4.867-2.8.242-15.8.012-16.447v-.012h.012Z" transform="translate(-2013.495 12998.522)"/><path class="h" d="M2022.94,758.876c0,10.961-4.212,14.044-4.212,14.044s-.923.583-2.294,1.444a.319.319,0,0,0-.073.06l-.292.17q-.983.619-2.147,1.348l-.074-.037-.777.462-18.061-10.342,3.471-2h.012c.862-.5,1.688-.971,2.4-1.4,4.867-2.8.242-15.8.011-16.447l.013-.012Z" transform="translate(-2014.958 12998.522)"/><path class="b" d="M2050.946,701.756l-70.233-40.549c-1.745-1.007-3.078-.589-4.6.64l-3.245,1.82,3.49,2.467V721a9.631,9.631,0,0,0,4.357,7.547l68.775,39.706v3.121a.562.562,0,0,0,.88.462l3.3-2.274c1-.345,1.638-1.39,1.638-2.982V709.313A9.644,9.644,0,0,0,2050.946,701.756Z" transform="translate(-2011.112 13013.377)"/><path class="m" d="M2050.287,712.637v57.27c0,2.786-1.954,3.9-4.357,2.516l-70.234-40.549a9.626,9.626,0,0,1-4.358-7.548v-57.27c0-2.786,1.954-3.913,4.358-2.526l70.233,40.548A9.647,9.647,0,0,1,2050.287,712.637Z" transform="translate(-2010.846 13012.805)"/><path class="n" d="M1977.728,727.833V672.688l68.385,39.481v55.145Z" transform="translate(-2011.957 13011.285)"/><path class="d" d="M2050.286,769.2v11.07c0,2.786-1.954,3.9-4.357,2.516l-70.234-40.549a9.627,9.627,0,0,1-4.358-7.547v-11.07Z" transform="translate(-2010.846 13002.438)"/><path class="d" d="M2047.769,783.713a4.461,4.461,0,0,1-2.2-.666L1975.334,742.5a10.056,10.056,0,0,1-4.611-7.988V722.56l79.966,46.167V780.09a3.541,3.541,0,0,1-1.529,3.262A2.746,2.746,0,0,1,2047.769,783.713Zm-76.031-59.392V734.51a9.085,9.085,0,0,0,4.1,7.108l70.234,40.548a2.164,2.164,0,0,0,3.6-2.076V769.314Z" transform="translate(-2010.74 13002.622)"/><path class="o" d="M2015.282,758.59c0,1.684-1.182,2.367-2.641,1.524a5.837,5.837,0,0,1-2.641-4.573c0-1.684,1.183-2.366,2.641-1.525A5.836,5.836,0,0,1,2015.282,758.59Z" transform="translate(-2017.562 12997.221)"/><path class="d" d="M2009.542,700.425l-18.5-10.678v13.177l18.5,10.678Z" transform="translate(-2014.27 13008.322)"/><path class="d" d="M2036.4,715.932l-18.5-10.679V718.43l18.5,10.679Z" transform="translate(-2018.936 13005.628)"/><path class="d" d="M2009.542,721.539l-18.5-10.678v13.176l18.5,10.678Z" transform="translate(-2014.269 13004.655)"/><path class="d" d="M2036.4,737.046l-18.5-10.679v13.176l18.5,10.678Z" transform="translate(-2018.935 13001.961)"/><path class="p" d="M1928.533,777.361c-.018,0-.036.02-.054.04a1.207,1.207,0,0,1-.018-.256A.314.314,0,0,0,1928.533,777.361Z" transform="translate(-2003.398 12993.142)"/><path class="q" d="M1927.427,774.3a.907.907,0,0,1-.688.056c-.025-.059-.012-.124-.046-.18Z" transform="translate(-2003.091 12993.658)"/><path class="q" d="M1931.455,782.694c.125.008.251.034.377.05l-.989-.947C1931.052,782.091,1931.253,782.393,1931.455,782.694Z" transform="translate(-2003.813 12992.333)"/><path class="p" d="M1928.158,771.637c-.018,0-.034.022-.05.044a1.248,1.248,0,0,1-.044-.253A.315.315,0,0,0,1928.158,771.637Z" transform="translate(-2003.329 12994.134)"/><path class="q" d="M1926.748,768.7a.9.9,0,0,1-.68.126c-.029-.056-.023-.122-.063-.174Z" transform="translate(-2002.972 12994.616)"/><path class="f" d="M1921.857,746.8l-.459.046Z" transform="translate(-2002.172 12998.411)"/><path class="r" d="M8.817,8.974c-2.462,2.288-5.927,2.562-7.739.612S-.208,4.2,2.254,1.912,8.181-.649,9.993,1.3,11.278,6.687,8.817,8.974Z" transform="matrix(0.985, -0.174, 0.174, 0.985, -47.328, 13801.041)"/><path class="r" d="M.43,9.27h0A1.608,1.608,0,0,1,.513,7L7.583.43A1.606,1.606,0,0,1,9.854.513h0A1.606,1.606,0,0,1,9.77,2.784L2.7,9.353A1.608,1.608,0,0,1,.43,9.27Z" transform="matrix(0.985, -0.174, 0.174, 0.985, -45.601, 13794.626)"/><path class="s" d="M1873.809,955.782a6.721,6.721,0,0,1,3.041-5.266c1.68-.97,3.041-.184,3.042,1.755a6.72,6.72,0,0,1-3.042,5.267C1875.171,958.507,1873.809,957.721,1873.809,955.782Z" transform="translate(-1993.906 12963.101)"/><path class="s" d="M1873.809,955.782a6.721,6.721,0,0,1,3.041-5.266c1.68-.97,3.041-.184,3.042,1.755a6.72,6.72,0,0,1-3.042,5.267C1875.171,958.507,1873.809,957.721,1873.809,955.782Z" transform="translate(-1993.906 12963.101)"/><path class="s" d="M1879.232,950.414l2.621,1.366-4.114,7.5-3.068-1.6.778-4.223Z" transform="translate(-1994.056 12963.046)"/><path class="d" d="M1876.937,957.4a6.721,6.721,0,0,1,3.041-5.267c1.679-.969,3.04-.183,3.04,1.756a6.723,6.723,0,0,1-3.04,5.267C1878.3,960.13,1876.937,959.344,1876.937,957.4Z" transform="translate(-1994.449 12962.818)"/><path class="j" d="M1876.937,957.4a6.721,6.721,0,0,1,3.041-5.267c1.679-.969,3.04-.183,3.04,1.756a6.723,6.723,0,0,1-3.04,5.267C1878.3,960.13,1876.937,959.344,1876.937,957.4Z" transform="translate(-1994.449 12962.818)"/><path class="s" d="M1918.062,931.048a6.724,6.724,0,0,1,3.041-5.267c1.679-.969,3.041-.183,3.041,1.756a6.719,6.719,0,0,1-3.041,5.267C1919.424,933.773,1918.062,932.987,1918.062,931.048Z" transform="translate(-2001.593 12967.397)"/><path class="s" d="M1918.062,931.048a6.724,6.724,0,0,1,3.041-5.267c1.679-.969,3.041-.183,3.041,1.756a6.719,6.719,0,0,1-3.041,5.267C1919.424,933.773,1918.062,932.987,1918.062,931.048Z" transform="translate(-2001.593 12967.397)"/><path class="s" d="M1923.485,925.68l2.62,1.366-4.114,7.5-3.069-1.6.778-4.223Z" transform="translate(-2001.742 12967.342)"/><path class="d" d="M1921.19,932.67a6.72,6.72,0,0,1,3.041-5.267c1.679-.97,3.041-.183,3.041,1.756a6.724,6.724,0,0,1-3.041,5.267C1922.551,935.4,1921.19,934.61,1921.19,932.67Z" transform="translate(-2002.136 12967.115)"/><path class="j" d="M1921.19,932.67a6.72,6.72,0,0,1,3.041-5.267c1.679-.97,3.041-.183,3.041,1.756a6.724,6.724,0,0,1-3.041,5.267C1922.551,935.4,1921.19,934.61,1921.19,932.67Z" transform="translate(-2002.136 12967.115)"/><path class="s" d="M1915.986,956.874a6.72,6.72,0,0,1,3.041-5.266c1.679-.97,3.041-.184,3.041,1.755a6.721,6.721,0,0,1-3.041,5.267C1917.347,959.6,1915.986,958.813,1915.986,956.874Z" transform="translate(-2001.232 12962.91)"/><path class="s" d="M1915.986,956.874a6.72,6.72,0,0,1,3.041-5.266c1.679-.97,3.041-.184,3.041,1.755a6.721,6.721,0,0,1-3.041,5.267C1917.347,959.6,1915.986,958.813,1915.986,956.874Z" transform="translate(-2001.232 12962.91)"/><path class="s" d="M1921.409,951.506l2.62,1.366-4.113,7.5-3.069-1.6.777-4.223Z" transform="translate(-2001.382 12962.856)"/><path class="d" d="M1919.113,958.5a6.722,6.722,0,0,1,3.041-5.267c1.68-.969,3.041-.183,3.041,1.756a6.72,6.72,0,0,1-3.041,5.267C1920.475,961.222,1919.113,960.436,1919.113,958.5Z" transform="translate(-2001.775 12962.628)"/><path class="j" d="M1919.113,958.5a6.722,6.722,0,0,1,3.041-5.267c1.68-.969,3.041-.183,3.041,1.756a6.72,6.72,0,0,1-3.041,5.267C1920.475,961.222,1919.113,960.436,1919.113,958.5Z" transform="translate(-2001.775 12962.628)"/><path class="s" d="M1873.025,931.966a6.723,6.723,0,0,1,3.041-5.267c1.679-.969,3.041-.183,3.041,1.756a6.719,6.719,0,0,1-3.041,5.267C1874.387,934.691,1873.025,933.905,1873.025,931.966Z" transform="translate(-1993.769 12967.237)"/><path class="s" d="M1873.025,931.966a6.723,6.723,0,0,1,3.041-5.267c1.679-.969,3.041-.183,3.041,1.756a6.719,6.719,0,0,1-3.041,5.267C1874.387,934.691,1873.025,933.905,1873.025,931.966Z" transform="translate(-1993.769 12967.237)"/><path class="s" d="M1878.448,926.6l2.621,1.366-4.114,7.5-3.069-1.6.778-4.223Z" transform="translate(-1993.919 12967.182)"/><path class="d" d="M1876.153,933.589a6.72,6.72,0,0,1,3.041-5.267c1.679-.969,3.041-.183,3.041,1.756a6.721,6.721,0,0,1-3.041,5.266C1877.514,936.314,1876.153,935.528,1876.153,933.589Z" transform="translate(-1994.313 12966.956)"/><path class="j" d="M1876.153,933.589a6.72,6.72,0,0,1,3.041-5.267c1.679-.969,3.041-.183,3.041,1.756a6.721,6.721,0,0,1-3.041,5.266C1877.514,936.314,1876.153,935.528,1876.153,933.589Z" transform="translate(-1994.313 12966.956)"/><path class="h" d="M1916.819,943.45l-13.456-7.769,13.456-7.769c2.209-1.275,2.209-3.361,0-4.637h0a8.91,8.91,0,0,0-8.032,0l-13.456,7.769-13.456-7.769a8.91,8.91,0,0,0-8.032,0c-2.208,1.276-2.208,3.362,0,4.637l13.456,7.769-13.456,7.769c-2.208,1.275-2.208,3.362,0,4.637h0a8.91,8.91,0,0,0,8.032,0l13.456-7.769,13.456,7.769a8.91,8.91,0,0,0,8.032,0C1919.028,946.812,1919.028,944.725,1916.819,943.45Z" transform="translate(-1993.625 12967.926)"/><path class="h" d="M1916.819,943.45l-13.456-7.769,13.456-7.769c2.209-1.275,2.209-3.361,0-4.637h0a8.91,8.91,0,0,0-8.032,0l-13.456,7.769-13.456-7.769a8.91,8.91,0,0,0-8.032,0c-2.208,1.276-2.208,3.362,0,4.637l13.456,7.769-13.456,7.769c-2.208,1.275-2.208,3.362,0,4.637h0a8.91,8.91,0,0,0,8.032,0l13.456-7.769,13.456,7.769a8.91,8.91,0,0,0,8.032,0C1919.028,946.812,1919.028,944.725,1916.819,943.45Z" transform="translate(-1993.625 12967.926)"/><path class="d" d="M1892,936.808c0,2.514,3.033,4.551,6.776,4.551s6.777-2.038,6.777-4.551-3.034-6.679-6.777-6.679S1892,934.294,1892,936.808Z" transform="translate(-1997.066 12966.569)"/><path class="h" d="M1894.18,933.468c0,1.844,2.226,3.34,4.972,3.34s4.971-1.5,4.971-3.34-2.225-3.339-4.971-3.339S1894.18,931.625,1894.18,933.468Z" transform="translate(-1997.444 12966.569)"/><path class="d" d="M1899.558,890.8a3.062,3.062,0,0,0-3.041,3.083v29.673a3.041,3.041,0,1,0,6.082,0V893.882A3.062,3.062,0,0,0,1899.558,890.8Z" transform="translate(-1997.85 12973.4)"/><g transform="translate(-116.634 13769.833)"><g transform="translate(29.903 77.789)"><g transform="translate(0 30.287)"><path class="p" d="M1299.414,1724.291c-2.577-2.026-8.476,1.5-11.307,2.134-1.829.407-8.5.786-7.98,3.955a10.985,10.985,0,0,0-.332,2.429,9.42,9.42,0,0,0,.294,3.093,8.254,8.254,0,0,0,3.913,2.349,5.013,5.013,0,0,0,.528-.063,11.714,11.714,0,0,0,3.5-1.645c3.49-2.139,8.719-4.017,11.344-7.251C1300.547,1727.849,1300.874,1725.439,1299.414,1724.291Z" transform="translate(-1279.783 -1723.671)"/></g><g transform="translate(1.187 26.305)"><path class="t" d="M3.585,0H9.115A3.585,3.585,0,0,1,12.7,3.585v0A3.583,3.583,0,0,1,9.117,7.17H3.586A3.586,3.586,0,0,1,0,3.585v0A3.585,3.585,0,0,1,3.585,0Z" transform="translate(0 12.699) rotate(-89.292)"/></g><g transform="translate(0.115 0)"><path class="p" d="M1280.075,1688.907l-.16,30.609a4.214,4.214,0,0,0,3.86,3.595l2.1.154a4.214,4.214,0,0,0,4.519-4.4l3.755-29.953Z" transform="translate(-1279.915 -1688.907)"/></g></g><g transform="translate(0.027 58.641)"><g transform="translate(0 0)"><path class="s" d="M1315.429,1677.357a13.832,13.832,0,0,0-13.4-10.428c-.378,0-.755.017-1.141.051l-.595.05-3.18,1.359-18.133,7.782a25.34,25.34,0,0,1-25.052-2.906l-2.762-2.04-5.68-4.195v16.7a10.437,10.437,0,0,0,5.05,8.943l8.481,5.109,9.883,5.948a12.929,12.929,0,0,0,13.514-.1l29.965-18.691A6.936,6.936,0,0,0,1315.429,1677.357Z" transform="translate(-1245.49 -1666.929)"/></g></g><g transform="translate(5.08 1.107)"><g transform="translate(0 0)"><path class="q" d="M1299.957,1624.716c-2.276,1.7-13.9,10.267-19.2,12.661a22.229,22.229,0,0,1-9.217,1.989,19.43,19.43,0,0,1-6.678-1.185,14.233,14.233,0,0,1-8.418-7.556,12.481,12.481,0,0,1-.788-2.506l-4.282-21.135c-.517-2.546,1.565-5.2,4.642-5.914s6,.764,6.52,3.317l4.282,21.135c.006.014,0,.027.01.041a5.2,5.2,0,0,0,3.465,3.761,8.038,8.038,0,0,0,6.017-.306c2.926-1.323,11.542-7.346,16.728-11.207,2.472-1.838,6.023-1.779,7.936.13S1302.428,1622.884,1299.957,1624.716Z" transform="translate(-1251.29 -1600.889)"/></g></g><g transform="translate(0 0)"><g transform="translate(0 0)"><path class="u" d="M1288.816,1666.353a6.478,6.478,0,0,1-4.3,6.3c-1.578.562-4.2,1.459-6.275,1.946a13.81,13.81,0,0,1-1.635.294,27.669,27.669,0,0,1-17.324-3.951l-11.408-6.645a4.878,4.878,0,0,1-2.408-4.32l1.2-47.356a13.771,13.771,0,0,1,6.837-11.879,10.818,10.818,0,0,1,5.335-1.124,23.274,23.274,0,0,1,2.978.2c5.235.629,11.065,2.8,14.068,4.9,2.953,1.87,6.62,3.087,8.985,5.419a7.913,7.913,0,0,1,2.441,5.73C1287.356,1617.538,1288.816,1666.353,1288.816,1666.353Z" transform="translate(-1245.46 -1599.619)"/></g><g class="v" transform="translate(30.23 14.456)"><path class="u" d="M1284.18,1618.779a.708.708,0,0,1-.309.338,25.925,25.925,0,0,0-.4,4.854c-.017,3.037.118,6.166-.956,9.01-.654,1.728-1.745,3.3-2.156,5.1-.99,4.3,2,8.406,2.869,12.718.957,4.8-.747,9.672-1.2,14.538a44.535,44.535,0,0,0,.68,11.4c2.073-.487,4.7-1.384,6.275-1.946a6.478,6.478,0,0,0,4.3-6.3s-1.35-45.138-1.5-50.083C1289.565,1615.945,1285.908,1614.908,1284.18,1618.779Z" transform="translate(-1280.159 -1616.212)"/></g></g><g transform="translate(35.19 13.324)"><g transform="translate(0)"><path class="q" d="M1327.807,1643.6c-1.669,2.088-10.2,12.649-14.27,15.616a12.43,12.43,0,0,1-7.313,2.509,12.039,12.039,0,0,1-5.6-1.386,16.794,16.794,0,0,1-7.747-9.142,22.312,22.312,0,0,1-.931-3.05l-5.91-25.745c-.714-3.1.688-6.352,3.123-7.255s5,.878,5.713,3.988l5.91,25.746c.007.016.007.033.014.05a6.707,6.707,0,0,0,3.262,4.557,4.548,4.548,0,0,0,4.889-.426c2.242-1.64,8.606-9.064,12.408-13.82a3.943,3.943,0,0,1,6.507.086A7.021,7.021,0,0,1,1327.807,1643.6Z" transform="translate(-1285.851 -1614.912)"/></g></g><g transform="translate(54.727 69.069)"><g transform="translate(0 49.794)"><path class="s" d="M1329.547,1736.725c-2.792-2.195-9.183,1.628-12.25,2.311-1.982.442-9.207.852-8.648,4.287a11.856,11.856,0,0,0-.36,2.631,10.227,10.227,0,0,0,.318,3.352,8.944,8.944,0,0,0,4.241,2.545,5.4,5.4,0,0,0,.571-.068,12.712,12.712,0,0,0,3.8-1.782c3.782-2.318,9.448-4.353,12.293-7.858C1330.776,1740.581,1331.13,1737.969,1329.547,1736.725Z" transform="translate(-1308.276 -1736.052)"/></g><g transform="translate(1.289 45.481)"><rect class="s" width="7.769" height="13.761" rx="3.885" transform="translate(7.769 13.853) rotate(-179.314)"/></g><g transform="translate(0.125 0)"><path class="s" d="M1309.269,1680.139l-.849,48.9a4.564,4.564,0,0,0,4.183,3.894l2.273.167a4.567,4.567,0,0,0,4.9-4.772l3.762-49.433Z" transform="translate(-1308.419 -1678.898)"/></g></g><g transform="translate(32.308 12.972)"><g transform="translate(0 0)"><path class="s" d="M1304.33,1644.269l-7.325-24.567a7.192,7.192,0,0,0-3.534-4.3,7.5,7.5,0,0,0-5.615-.6,7.308,7.308,0,0,0-4.4,3.453,7.015,7.015,0,0,0-.616,5.482l7.345,24.647a19.468,19.468,0,0,0,1.261,3.177l.309.608a.85.85,0,0,0,1.025.415l.659-.217c.38-.125.768-.268,1.12-.412a29.164,29.164,0,0,0,9.379-5.969l.412-.394a.811.811,0,0,0,.167-.953Z" transform="translate(-1282.543 -1614.509)"/></g></g></g><path class="w" d="M1951.666,878.68c0,.166,0,.342-.017.517a15.126,15.126,0,0,1-7.8,12.115l-33.173,18.19a8.809,8.809,0,0,1-1.569.675,9.056,9.056,0,0,1-7.408-.806l-37.995-22.39a20.738,20.738,0,0,1-10.118-15.938l-3.979-42.588-.412-4.427a4.729,4.729,0,0,1,6.8-4.681l41.124,20.347a4.73,4.73,0,0,1,2.393,2.752l13.15,39.906a5.491,5.491,0,0,0,7.934,3.051l21.46-12.273A6.421,6.421,0,0,1,1951.666,878.68Z" transform="translate(-1997.468 12972.829)"/><path class="s" d="M1908.036,909.291a2.636,2.636,0,0,1-2.844,3.54,9.035,9.035,0,0,1-3.339-1.166l-37.995-22.39a20.736,20.736,0,0,1-10.117-15.938l-3.664-39.212a1.893,1.893,0,0,1,2.724-1.873l33.184,16.407a4.748,4.748,0,0,1,2.393,2.761l13.141,39.906C1901.973,892.717,1904.751,900.671,1908.036,909.291Z" transform="translate(-1997.623 12970.535)"/><g transform="matrix(-0.996, 0.087, -0.087, -0.996, -78.082, 13764.072)"><g transform="translate(0 0)"><path class="q" d="M22.033,12.6c-.116-3.237-.671-6.433-2.568-8.809C17.376,1.14,14,.088,10.8,0A9.6,9.6,0,0,0,5.649,1.14C2.7,2.906,1.318,6.711.571,10.307a30.205,30.205,0,0,0-.556,4.142,15.4,15.4,0,0,0,.46,4.689,13.488,13.488,0,0,0,5.9,7.694,21.256,21.256,0,0,0,8.967,2.838,7.193,7.193,0,0,0,4.5-.546A3.835,3.835,0,0,0,21.669,26.6a2.943,2.943,0,0,0,.038-1.157c.1-2.943.191-5.866.288-8.809C22.033,15.31,22.071,13.965,22.033,12.6Z"/></g></g><g transform="translate(-97.681 13755.28) rotate(9)"><g transform="translate(0 0)"><path class="q" d="M11.99,5.614V18.263h-.069A3.906,3.906,0,0,1,9.97,20.7a7.8,7.8,0,0,1-3.979.992c-3.056,0-5.512-1.464-5.922-3.432H0V5.614A5.441,5.441,0,0,1,1.755,1.643,6.158,6.158,0,0,1,5.2.043C5.511.025,5.846,0,6.187,0A6.735,6.735,0,0,1,8.233.385a5.882,5.882,0,0,1,2.114,1.377A5.4,5.4,0,0,1,11.99,5.614Z"/></g></g><g transform="translate(-108.405 13729.81)"><g transform="translate(0.278 0)"><path class="p" d="M694.183,992.908c0,8.967-6.253,16.228-13.985,16.228a12.609,12.609,0,0,1-8.215-3.1,17.122,17.122,0,0,1-5.76-13.127,18.7,18.7,0,0,1,.3-3.366,18.093,18.093,0,0,1,1.688-5,15.229,15.229,0,0,1,5.309-5.9,12.526,12.526,0,0,1,6.673-1.959c.294,0,.6.011.891.034a12.448,12.448,0,0,1,5.361,1.66C691.035,981.036,694.183,986.546,694.183,992.908Z" transform="translate(-666.224 -976.68)"/></g><g transform="translate(4.085 4.935)"><path class="q" d="M699.707,997.526c0,8.378-6.515,15.17-14.562,15.17a14.077,14.077,0,0,1-8.561-2.9,15.365,15.365,0,0,1-5.99-12.272c0-8.389,6.515-15.181,14.551-15.181.3,0,.619.011.923.033A14.913,14.913,0,0,1,699.707,997.526Z" transform="translate(-670.594 -982.345)"/></g><g transform="translate(2.364 3.151)"><path class="p" d="M674.9,993.231a5.4,5.4,0,0,1,1.221-2.614l1.045-1.114c.035-.037.074-.064.11-.1.3-3.566,2.507-7.446,5.341-9.107l-5.044,1.784-1.442,2.351v-2.72a15.942,15.942,0,0,0-7.518,10.742h5.354v.777Z" transform="translate(-668.618 -980.297)"/></g><g transform="translate(0 0.588)"><path class="p" d="M701.268,980.623c.152-2.537-.919-4.14-4.361-2.76-7.544,3.025-15.665-1.635-23.108,1.9-8.951,4.248-9.762,16.638-5.08,25.269,1.871,3.45,5.043,8.025,8.769,7.68,7.053-.655,10.62-6.765,14.647-16.549,1.244-3.023,2.627-3.256,4.624-5.159C698.6,989.25,701.062,984.073,701.268,980.623Z" transform="translate(-665.905 -977.355)"/></g><g transform="translate(19.537 16.455)"><path class="q" d="M697.015,1000.194a4.351,4.351,0,1,1-4.342-4.627A4.491,4.491,0,0,1,697.015,1000.194Z" transform="translate(-688.33 -995.567)"/></g></g></g></g><g transform="translate(398.325 5228.484)"><path class="x" d="M276,660H813.675s-11.269,20.927-37.026,17.708a149.484,149.484,0,0,1-20.927-1.61c-9.659-1.61-24.147,3.22-27.367,8.049,0,0-24.147,14.488-64.392,0,0,0-37.026-16.1-62.782-1.61,0,0-19.318,20.928-69.222-4.829,0,0-12.879-8.049-35.416,8.049,0,0-22.537,19.318-66-8.049,0,0-24.147-6.439-51.514,6.439C379.028,684.147,324.294,692.2,276,660Z" transform="translate(-276 -571.461)"/><path class="y" d="M582.407,634.075s27.206,15.026,15.19,36.5C597.6,670.576,578.133,666.564,582.407,634.075Z" transform="translate(-89.525 -587.27)"/><path class="z" d="M614.007,623s14.488,46.684-22.537,57.953C591.47,680.953,573.762,655.2,614.007,623Z" transform="translate(-85.991 -594.023)"/><path class="z" d="M334.352,621.92s-41.564,22.958-23.207,55.765C311.145,677.685,340.883,671.557,334.352,621.92Z" transform="translate(-257.422 -594.682)"/><path class="y" d="M292.061,605s-22.135,71.324,34.43,88.539C326.492,693.539,353.546,654.189,292.061,605Z" transform="translate(-268.808 -605)"/></g><g transform="translate(576.325 -7227)"><path class="g" d="M2082.343,1008.589c-14.278,0-25.894,7.664-25.894,17.085s11.616,17.085,25.894,17.085,25.893-7.664,25.893-17.085S2096.62,1008.589,2082.343,1008.589Z" transform="translate(-1821.594 11501.882)"/><path class="i" d="M2102.192,998.561l-6,30.1H2056.41l-6-30.1Z" transform="translate(-1811.708 11491.457)"/><path class="i" d="M2096.515,1029.69c0,5.088-7.708,10.748-18.906,11.063-.323.007-.653.015-.983.015-11.723,0-19.889-5.84-19.889-11.078s8.166-11.086,19.889-11.086a31.763,31.763,0,0,1,8.278,1.058C2092.019,1021.576,2096.515,1025.8,2096.515,1029.69Z" transform="translate(-1812.034 11490.424)"/><path class="d" d="M2103.653,998.561l-6,30.1c0,5.089-7.708,10.748-18.906,11.063a19.463,19.463,0,0,0,3.5-4.653,27.867,27.867,0,0,0,2.424-6.41,53.025,53.025,0,0,0,1.374-10.027c.1-1.718.157-3.437.2-5.141q.214-7.465.435-14.928Z" transform="translate(-1813.168 11491.457)"/><ellipse class="j" cx="25.893" cy="17.085" rx="25.893" ry="17.085" transform="translate(238.698 12472.93)"/><ellipse class="f" cx="19.889" cy="11.081" rx="19.889" ry="11.081" transform="translate(244.702 12478.934)"/><circle class="d" cx="17.859" cy="17.859" r="17.859" transform="translate(244.103 12419.891) rotate(-80.783)"/><circle class="d" cx="12.663" cy="12.663" r="12.663" transform="translate(248.047 12424.527) rotate(-22.5)"/><ellipse class="d" cx="13.784" cy="13.784" rx="13.784" ry="13.784" transform="translate(246.582 12470.802) rotate(-67.5)"/><path class="d" d="M2082.4,1000.239a4.959,4.959,0,1,1-4.958-4.958A4.959,4.959,0,0,1,2082.4,1000.239Z" transform="translate(-1812.845 11491.626)"/><path class="d" d="M2091,920.662c-3.962,5.058-3.837,6.494-2.221,10.754H2065.1c1.616-4.26,1.741-5.7-2.22-10.754Z" transform="translate(-1812.351 11495.473)"/><path class="d" d="M2089.222,922.824c-13.063,12.178-11.5,25.676-2.1,35.758h-20.164c9.4-10.082,10.966-23.58-2.1-35.758Z" transform="translate(-1812.453 11495.361)"/><path class="d" d="M2088.723,923.322c-13.534,11.651-11.128,66.215-7.893,69.973h-7.517c3.237-3.758,5.642-58.323-7.893-69.973Z" transform="translate(-1812.481 11495.335)"/><path class="d" d="M2086.295,946.01c-4.409,4.567-4.506,8.451.465,13.25h-19.148c4.972-4.8,4.874-8.683.465-13.25Z" transform="translate(-1812.595 11494.166)"/><path class="d" d="M2085.616,946.76c-9.507,8.364-7.917,43.98-4.642,47.7h-7.446c3.275-3.724,4.866-39.339-4.641-47.7Z" transform="translate(-1812.66 11494.127)"/><path class="d" d="M2085.366,982.2c-8.94,6.492-6.423,11.24-4.088,14.456h-8.025c2.336-3.216,4.852-7.964-4.087-14.456Z" transform="translate(-1812.675 11492.301)"/></g></g></svg>