<svg xmlns="http://www.w3.org/2000/svg" xmlns:xlink="http://www.w3.org/1999/xlink" width="537.675" height="436.199" viewBox="0 0 537.675 436.199"><defs><style>.a{fill:#8dc0ef;}.b{fill:#1162fb;}.c,.d{fill:none;stroke:#fff;stroke-linejoin:round;}.c{stroke-width:2px;}.d{stroke-width:1.5px;}.e{fill:#fff;}.f{fill:#1f3598;}.ac,.g{fill:#647ddd;}.g{opacity:0.17;}.h{fill:#d5e8fa;}.i{fill:#eff6fc;}.j{fill:#bddcff;}.k{fill:#e2e8f2;}.l{fill:#f2f4f9;}.m{fill:#f2f4fa;}.n{fill:#3772ce;}.o{fill:#ff8358;}.p{fill:#cacaca;}.af,.p{mix-blend-mode:multiply;isolation:isolate;}.q{fill:#e5e9f9;}.r{fill:#32b98e;}.s{fill:#f26c73;}.t{clip-path:url(#a);}.u{fill:#ced6e9;}.v{fill:#fbc1b1;}.w{fill:#520c0c;}.x{fill:#fab300;}.y{clip-path:url(#c);}.z{fill:#a0d2ff;}.aa{fill:#020309;}.ab{fill:#4568c7;}.ac{opacity:0.22;}.ad{fill:#ffc7cb;}.ae{fill:#75a3ec;}.ag{fill:#fec7cb;}.ah{fill:#842229;}.ai{fill:#842128;}.aj{fill:#636363;}.ak{fill:rgba(15,0,0,0.1);}.al{fill:#c4e4f9;}.am{fill:#0f62fe;}</style><clipPath id="a"><path class="a" d="M2056.094,727.3l-65.048-37.553v46.342l65.046,37.554Z" transform="translate(-1991.046 -689.747)"/></clipPath><clipPath id="c"><path class="a" d="M2082.955,742.808l-65.049-37.555v46.342l65.049,37.555Z" transform="translate(-2017.905 -705.253)"/></clipPath></defs><g transform="translate(-403 -6389.2)"><g transform="translate(-6.687 -513)"><path class="b" d="M130,0A130,130,0,1,1,0,130,130,130,0,0,1,130,0Z" transform="translate(411.687 6902.2)"/><g transform="translate(469.334 6984.839)"><g transform="translate(0 0)"><g transform="translate(11.446)"><path class="c" d="M2410.229,415.033V347.978a6.417,6.417,0,0,1,6.4-6.431h100.494a6.415,6.415,0,0,1,6.4,6.431v22.363" transform="translate(-2410.229 -341.547)"/></g><g transform="translate(0 78.753)"><path class="c" d="M2473.938,534.191h-91.707v.029c0,7.224,7.348,13.079,16.415,13.079h81.708" transform="translate(-2382.231 -534.191)"/></g></g><g transform="translate(100.087 37.052)"><g transform="translate(0 0)"><g transform="translate(12.351)"><path class="d" d="M2017.83,1656.493s-5.167-14.3,9.082-14.309c0,0,4.745.1,5.958,1.979,4.062.961,5.824,4.307,2.951,12.349l0,0" transform="translate(-2016.917 -1642.184)"/></g><g transform="translate(22.207 25.909)"><path class="d" d="M2058.249,1738.376a7.851,7.851,0,0,1-4.74,2.1" transform="translate(-2053.509 -1738.376)"/></g><g transform="translate(12.492 9.104)"><path class="d" d="M2022.418,1692.789a10.95,10.95,0,0,1-2.227-2.531,5.156,5.156,0,0,1-.841-2.188l-.3-2.129a.651.651,0,0,0-.238-.428,3.778,3.778,0,0,1-1.359-3.174c.051-.714.366-1.042.761-1.15a1.493,1.493,0,0,1,.724,0,.158.158,0,0,0,.141-.038c.692-.611.727-1.354,1.01-2.9.2-1.117,4.5-2.695,7.771-.805a2.976,2.976,0,0,0,4.428-1.23.454.454,0,0,1,.336-.226.441.441,0,0,1,.379.121,6.191,6.191,0,0,1,2.067,4.972.173.173,0,0,0,.064.145.16.16,0,0,0,.155.024,1.355,1.355,0,0,1,.916-.045c.336.121.609.447.657,1.131a3.777,3.777,0,0,1-1.36,3.174.675.675,0,0,0-.238.428l-.3,2.129a5.116,5.116,0,0,1-.841,2.188,11.059,11.059,0,0,1-2.224,2.531" transform="translate(-2017.441 -1675.984)"/></g><g transform="translate(17.47 25.909)"><path class="d" d="M2040.659,1740.476a7.851,7.851,0,0,1-4.738-2.1" transform="translate(-2035.921 -1738.376)"/></g><g transform="translate(0 25.909)"><path class="d" d="M1998.009,1738.376a9.092,9.092,0,0,0,.646,3.214,4.047,4.047,0,0,0,1.592,1.452c.1.053.2.107.3.156l.208.091c.3.132.617.248.945.356l8.3,3.141a6.513,6.513,0,0,1,4.077,4.892l1.394,8.636h-44.414l1.4-8.636a6.51,6.51,0,0,1,4.075-4.892l8.3-3.141a9.994,9.994,0,0,0,.946-.356c.069-.03.136-.059.2-.091.1-.049.206-.1.3-.156a4.04,4.04,0,0,0,1.594-1.452,9.092,9.092,0,0,0,.646-3.214" transform="translate(-1971.061 -1738.376)"/></g><g transform="translate(15.23 30.575)"><path class="d" d="M2041.559,1755.7a6.356,6.356,0,0,1-2.259,2.259,9.11,9.11,0,0,1-4.719,1.26c-3.124,0-5.808-1.448-6.978-3.519" transform="translate(-2027.603 -1755.698)"/></g></g></g><g transform="translate(33.932 9.458)"><path class="e" d="M916.19,2377.912a.811.811,0,0,0-.678,1.475c2.678,1.231,4.153,2.668,4.153,4.047,0,1.717-2.363,3.551-6.322,4.9a58.919,58.919,0,0,1-32.649,0c-3.958-1.353-6.321-3.187-6.321-4.9,0-1.378,1.475-2.815,4.153-4.047a.811.811,0,0,0-.678-1.475c-3.336,1.534-5.1,3.442-5.1,5.521,0,2.517,2.635,4.8,7.419,6.44a60.528,60.528,0,0,0,33.7,0c4.784-1.636,7.419-3.924,7.419-6.44C921.288,2381.354,919.525,2379.446,916.19,2377.912Z" transform="translate(-872.75 -2339.11)"/><path class="e" d="M1389.487,2566.4a28.3,28.3,0,0,0,8.819-1.256c3.383-1.157,4.093-2.647,4.093-3.694a.811.811,0,0,0-1.623,0c0,1.357-4.4,3.327-11.29,3.327s-11.29-1.97-11.29-3.327a.812.812,0,0,0-1.623,0c0,1.047.71,2.537,4.094,3.694A28.307,28.307,0,0,0,1389.487,2566.4Z" transform="translate(-1365.218 -2517.793)"/><path class="e" d="M1319.99,1958.367c-.048-.041-4.859-4.151-6.18-9.26a.812.812,0,1,0-1.571.406c1.448,5.6,6.49,9.913,6.7,10.094a.811.811,0,1,0,1.047-1.24Z" transform="translate(-1302.308 -1919.448)"/><path class="e" d="M1953.852,673.7a4.217,4.217,0,0,1-1.488,2.624.812.812,0,0,0,.951,1.316,5.812,5.812,0,0,0,2.143-3.7,7.575,7.575,0,0,0-1.984-5.73,6.071,6.071,0,0,1-1.648-4.475,4.221,4.221,0,0,1,1.491-2.626.811.811,0,0,0-.954-1.313,5.808,5.808,0,0,0-2.143,3.7,7.573,7.573,0,0,0,1.983,5.73A6.067,6.067,0,0,1,1953.852,673.7Z" transform="translate(-1925.884 -659.643)"/><path class="e" d="M1714.678,1037.027a3,3,0,0,1-1.048,1.859.811.811,0,0,0,.95,1.315,4.613,4.613,0,0,0,1.7-2.932,5.921,5.921,0,0,0-1.543-4.489,4.421,4.421,0,0,1-1.208-3.236,3,3,0,0,1,1.053-1.862.812.812,0,0,0-.955-1.313,4.615,4.615,0,0,0-1.7,2.933,5.923,5.923,0,0,0,1.544,4.489A4.421,4.421,0,0,1,1714.678,1037.027Z" transform="translate(-1692.973 -1017.953)"/><path class="e" d="M1115.874,1462.847c-1.508-1.278-3.939-1.08-5.578-.742q.044-.774.045-1.556c0-3.4-9.557-4.476-13.665-4.782a.811.811,0,1,0-.121,1.618,45.014,45.014,0,0,1,9.1,1.471c2.514.76,3.065,1.48,3.065,1.693,0,.281-.905,1.284-4.927,2.172a73.287,73.287,0,0,1-26.514,0c-4.022-.888-4.927-1.891-4.927-2.172,0-.213.551-.932,3.065-1.693a45.02,45.02,0,0,1,9.1-1.471.811.811,0,1,0-.121-1.618c-4.109.306-13.665,1.385-13.665,4.782a25.613,25.613,0,0,0,3.666,13.386,20.38,20.38,0,0,0,9.437,8.342,21.936,21.936,0,0,0,6.7.849,19.986,19.986,0,0,0,6.7-.849,19.771,19.771,0,0,0,7.828-6.038,14.3,14.3,0,0,0,7.352-3.213c2.644-2.055,4.37-4.506,4.615-6.554A3.839,3.839,0,0,0,1115.874,1462.847Zm-19.262,17.933a19.673,19.673,0,0,1-6.078.723,21.477,21.477,0,0,1-6.077-.722c-6.638-2.78-11.279-9.843-12.006-17.986a16.86,16.86,0,0,0,4.477,1.511,74.839,74.839,0,0,0,27.213,0,16.851,16.851,0,0,0,4.476-1.511C1107.889,1470.936,1103.249,1478,1096.612,1480.779Zm18.811-14.5c-.192,1.6-1.725,3.7-4,5.467a14.811,14.811,0,0,1-5.025,2.631q.14-.218.277-.44a25.171,25.171,0,0,0,3.471-10.133c2.083-.52,3.848-.42,4.678.284A2.32,2.32,0,0,1,1115.423,1466.277Z" transform="translate(-1066.265 -1437.82)"/></g></g></g><g transform="translate(12 -521)"><g transform="translate(647.834 7059.4)"><path class="a" d="M2038.492,945.123a4.254,4.254,0,0,1-3.852,0,1.174,1.174,0,0,1,0-2.225,4.255,4.255,0,0,1,3.852,0A1.174,1.174,0,0,1,2038.492,945.123Z" transform="translate(-1886.203 -747.842)"/><path class="f" d="M2109.3,803.131c-4.25-4.923-9.035,2.063-11.294,4.96-1.536,1.969-6.876,7.193-6.292,9.935.205.961.322.917,1.271,1.171a5.947,5.947,0,0,0,2.915-.109,16.609,16.609,0,0,0,11.26-8.379c.093,1.2.116,2.411.1,3.619a.347.347,0,0,0,.538.283q.7-.458,1.378-.954c1.681-1.242.94-3,1.395-5A6.277,6.277,0,0,0,2109.3,803.131Z" transform="translate(-1899.225 -716.085)"/><path class="g" d="M2083.563,850.129l-144-81.9-89.058,53.47a1.6,1.6,0,0,0,.037,2.768l139.984,78.921a9.363,9.363,0,0,0,9.481-.091l83.585-50.16A1.746,1.746,0,0,0,2083.563,850.129Z" transform="translate(-1844.74 -708.611)"/><path class="a" d="M2039.29,878.377v50.635a.565.565,0,0,1-.041.2.448.448,0,0,1-.395.239h-4.579a.449.449,0,0,1-.395-.239.563.563,0,0,1-.041-.2V878.377a.439.439,0,0,1,.435-.436h4.579A.439.439,0,0,1,2039.29,878.377Z" transform="translate(-1886.202 -733.317)"/><path class="a" d="M2039.29,887.05a.386.386,0,0,1-.049.189.884.884,0,0,1,.049.287,1.339,1.339,0,0,1-.8,1.11,4.247,4.247,0,0,1-3.855,0,1.34,1.34,0,0,1-.8-1.11.872.872,0,0,1,.049-.287.381.381,0,0,1-.049-.189v-8.672a.439.439,0,0,1,.435-.436h4.579a.439.439,0,0,1,.435.436Z" transform="translate(-1886.202 -733.317)"/><path class="a" d="M1851.308,841.294a4.256,4.256,0,0,1-3.852,0,1.174,1.174,0,0,1,0-2.224,4.256,4.256,0,0,1,3.852,0A1.174,1.174,0,0,1,1851.308,841.294Z" transform="translate(-1844.049 -724.46)"/><path class="a" d="M1852.105,774.547v50.636a.56.56,0,0,1-.042.2.445.445,0,0,1-.394.239h-4.579a.447.447,0,0,1-.394-.239.573.573,0,0,1-.041-.2V774.547a.439.439,0,0,1,.435-.436h4.579A.438.438,0,0,1,1852.105,774.547Z" transform="translate(-1844.048 -709.935)"/><path class="a" d="M1852.105,783.22a.386.386,0,0,1-.049.189.887.887,0,0,1,.049.287,1.34,1.34,0,0,1-.8,1.11,4.249,4.249,0,0,1-3.855,0,1.341,1.341,0,0,1-.8-1.11.878.878,0,0,1,.05-.287.383.383,0,0,1-.05-.189v-8.672a.439.439,0,0,1,.435-.436h4.579a.438.438,0,0,1,.436.436Z" transform="translate(-1844.048 -709.935)"/><path class="a" d="M2152.188,878.647a4.256,4.256,0,0,1-3.852,0,1.174,1.174,0,0,1,0-2.224,4.262,4.262,0,0,1,3.852,0A1.174,1.174,0,0,1,2152.188,878.647Z" transform="translate(-1911.807 -732.872)"/><path class="a" d="M2152.986,811.9v50.636a.567.567,0,0,1-.042.2.448.448,0,0,1-.4.238h-4.578a.445.445,0,0,1-.394-.238.557.557,0,0,1-.042-.2V811.9a.439.439,0,0,1,.436-.435h4.578A.439.439,0,0,1,2152.986,811.9Z" transform="translate(-1911.807 -718.347)"/><path class="a" d="M2152.986,825.485a.387.387,0,0,1-.049.189.9.9,0,0,1,.049.287,1.342,1.342,0,0,1-.8,1.11,4.251,4.251,0,0,1-3.856,0,1.34,1.34,0,0,1-.8-1.11.891.891,0,0,1,.049-.287.385.385,0,0,1-.049-.189v-8.672a.438.438,0,0,1,.436-.436h4.578a.439.439,0,0,1,.437.436Z" transform="translate(-1911.807 -719.453)"/><path class="h" d="M1843.69,761.734l-.01,10.861,16.171,5.971-.825-5.918Z" transform="translate(-1843.378 -707.147)"/><path class="h" d="M2156.782,812.109v-9.7l-17.924,11.523,1.2,3.191Z" transform="translate(-1909.853 -716.308)"/><path class="h" d="M1845.773,754.743l83.969-49.087a19.023,19.023,0,0,1,19.035-.1l138.614,79.17a5.012,5.012,0,0,1,.02,8.691L2002.078,842.7a19.021,19.021,0,0,1-19.029,0l-137.255-79.293A5.011,5.011,0,0,1,1845.773,754.743Z" transform="translate(-1843.29 -693.933)"/><path class="i" d="M1846.163,742.968l83.969-49.086a19.026,19.026,0,0,1,19.036-.1l138.614,79.17a5.011,5.011,0,0,1,.021,8.691l-85.333,49.282a19.023,19.023,0,0,1-19.029,0l-137.255-79.293A5.011,5.011,0,0,1,1846.163,742.968Z" transform="translate(-1843.378 -691.281)"/><path class="a" d="M1963.461,812.611,1920.835,788c-1.935-1.117-1.935-2.928,0-4.044l16.757-9.675a7.741,7.741,0,0,1,7.006,0l42.626,24.611c1.934,1.117,1.934,2.928,0,4.044l-16.758,9.675A7.738,7.738,0,0,1,1963.461,812.611Z" transform="translate(-1860.427 -709.784)"/><path class="a" d="M1919.384,785.658V789.7l47.58,26.5,21.71-12.535v-3.071Z" transform="translate(-1860.427 -712.535)"/><path class="j" d="M1963.461,808.648l-42.626-24.611c-1.935-1.116-1.935-2.927,0-4.044l16.757-9.675a7.745,7.745,0,0,1,7.006,0l42.626,24.611c1.934,1.116,1.934,2.927,0,4.044l-16.758,9.675A7.743,7.743,0,0,1,1963.461,808.648Z" transform="translate(-1860.427 -708.892)"/><path class="j" d="M1976.03,804.714l-41.3-23.845,3.629-2.1,41.3,23.845Z" transform="translate(-1863.882 -710.985)"/><path class="j" d="M1968,809.352l-41.3-23.845,3.629-2.1,41.3,23.846Z" transform="translate(-1862.073 -712.029)"/><path class="k" d="M1935.79,781.007l40.479,23.371,2.807-1.621L1938.6,779.386Z" transform="translate(-1864.122 -711.123)"/><path class="k" d="M1927.757,785.645l40.478,23.371,2.807-1.622-40.478-23.37Z" transform="translate(-1862.312 -712.167)"/><path class="k" d="M1943.607,775.739l40.478,23.371,2.807-1.622-40.479-23.37Z" transform="translate(-1865.881 -709.936)"/><path class="f" d="M2037.279,906.858l.944-.549c.143-.083.142-.218,0-.3l-.947-.547a.577.577,0,0,0-.522,0l-.943.549a.16.16,0,0,0,0,.3l.948.547a.575.575,0,0,0,.522,0Z" transform="translate(-1886.621 -739.501)"/><path class="l" d="M2019.3,758.083c0,10.278-3.949,13.168-3.949,13.168s-.865.546-2.151,1.354a.326.326,0,0,0-.068.057l-.273.159q-.922.58-2.014,1.264l-.069-.035-.729.433-5.577,3.3a4.911,4.911,0,0,1-4.518.034l-12.428-7.181c-1.252-.718-1.252-1.89,0-2.618l5.588-3.232,3.255-1.878h.011c.808-.467,1.582-.911,2.254-1.309,4.563-2.629.226-14.819.01-15.422v-.012h.011Z" transform="translate(-1875.56 -703.642)"/><path class="i" d="M2021.2,758.083c0,10.278-3.949,13.168-3.949,13.168s-.865.546-2.152,1.354a.31.31,0,0,0-.068.057l-.274.159q-.921.58-2.014,1.264l-.069-.035-.728.433-16.935-9.7,3.254-1.878h.012c.808-.467,1.582-.911,2.254-1.309,4.564-2.629.227-14.819.011-15.422l.012-.012Z" transform="translate(-1877.458 -703.642)"/><path class="m" d="M2014.953,758.282c0,1.579-1.108,2.219-2.476,1.429a5.473,5.473,0,0,1-2.476-4.288c0-1.579,1.109-2.219,2.476-1.43A5.472,5.472,0,0,1,2014.953,758.282Z" transform="translate(-1880.834 -705.328)"/><path class="n" d="M1928.529,777.347c-.017,0-.033.019-.05.037a1.137,1.137,0,0,1-.017-.24A.3.3,0,0,0,1928.529,777.347Z" transform="translate(-1862.47 -710.618)"/><path class="o" d="M1927.382,774.29a.851.851,0,0,1-.645.053c-.022-.055-.011-.116-.043-.169Z" transform="translate(-1862.073 -709.949)"/><path class="o" d="M1931.416,782.639c.118.008.236.032.353.047l-.928-.888C1931.039,782.073,1931.227,782.356,1931.416,782.639Z" transform="translate(-1863.007 -711.666)"/><path class="n" d="M1928.151,771.624c-.017,0-.032.021-.047.041a1.172,1.172,0,0,1-.041-.237A.3.3,0,0,0,1928.151,771.624Z" transform="translate(-1862.38 -709.33)"/><path class="o" d="M1926.7,768.7a.846.846,0,0,1-.637.118c-.027-.053-.022-.115-.059-.164Z" transform="translate(-1861.917 -708.705)"/><path class="f" d="M1921.829,746.8l-.431.043Z" transform="translate(-1860.88 -703.784)"/></g><g transform="translate(692.487 6927.693)"><path class="p" d="M2292.8,354.213,2113.721,250.154c-3.3-2.108-6.144-.67-6.355,3.209l-.881,16.231-6.7,123.308a13.354,13.354,0,0,0,5.591,10.842L2284.458,507.8c3.3,2.108,6.144.671,6.354-3.209l6.7-123.308.881-16.231A13.352,13.352,0,0,0,2292.8,354.213Z" transform="translate(-2092.226 -249.183)"/><path class="q" d="M2285.141,399.244l-6.7,123.305c-.21,3.884-3.056,5.316-6.355,3.213L2170.805,466.91l-77.8-45.212a13.344,13.344,0,0,1-5.592-10.836l6.7-123.311,84,49.108Z" transform="translate(-2087.402 -264.145)"/><path class="e" d="M2290.31,369.967l-.874,16.145-.007.085-107.034-62.586L2098.4,274.5l.079-1.432.8-14.8c.21-3.877,3.056-5.316,6.354-3.207l179.083,104.058A13.353,13.353,0,0,1,2290.31,369.967Z" transform="translate(-2091.69 -251.098)"/><path class="r" d="M2392.842,440.585a5.838,5.838,0,0,0,2.542,4.69c1.462.892,2.692.239,2.75-1.46a5.839,5.839,0,0,0-2.542-4.689C2394.131,438.234,2392.9,438.887,2392.842,440.585Z" transform="translate(-2206.51 -323.097)"/><path class="s" d="M2377.11,430.983a5.839,5.839,0,0,0,2.541,4.689c1.462.892,2.692.238,2.75-1.46a5.839,5.839,0,0,0-2.541-4.689C2378.4,428.631,2377.167,429.284,2377.11,430.983Z" transform="translate(-2200.375 -319.353)"/><g transform="translate(27.092 47.753)"><path class="a" d="M2056.094,727.3l-65.048-37.553v46.342l65.046,37.554Z" transform="translate(-1991.046 -689.747)"/><g class="t" transform="translate(0 0)"><g transform="translate(28.934 23.987)"><path class="u" d="M1764.543,401.97l.017-6.11a10.184,10.184,0,0,0-4.616-8l-16.414-9.474a3.259,3.259,0,0,0-3.293-.323l2.555-1.486a3.274,3.274,0,0,1,3.3.324l16.41,9.475a10.174,10.174,0,0,1,4.617,8l-.017,6.11a3.248,3.248,0,0,1-1.35,2.97l-2.558,1.487A3.243,3.243,0,0,0,1764.543,401.97Z" transform="translate(-1739.262 -376.268)"/><path class="k" d="M1750.291,379.625c-2.556-1.478-4.637-.292-4.646,2.648l-.018,6.109a10.17,10.17,0,0,0,4.618,8,7.319,7.319,0,0,1-1.669,2.91,5.7,5.7,0,0,0,6.021-.4l12.059,6.961c2.555,1.477,4.637.292,4.647-2.647l.017-6.11a10.185,10.185,0,0,0-4.616-8Z" transform="translate(-1745.628 -377.897)"/></g><g transform="translate(9.292 26.306)"><path class="o" d="M1438.4,1492.135l-2.261,12.212a4.878,4.878,0,0,1-1.985,3.923c-7.125,6.178-2.3-3.738-2.3-3.923l2.26-12.212a2.141,2.141,0,0,1,4.282,0Z" transform="translate(-1430.26 -1477.312)"/><path class="u" d="M1452.813,1500.1a1.769,1.769,0,0,0,.828-.535,1.289,1.289,0,0,0,.324-.866l1.978-8.317a2.451,2.451,0,1,0-4.784,0l-1.659,6.975a1.165,1.165,0,0,0,.582,1.233Z" transform="translate(-1447.604 -1475.477)"/><path class="u" d="M1471.536,1498.262c-.014,3.678-.432,7.839-1.574,8.887-.881.81-2.491.873-4.2.571q-.16-.026-.322-.059a17.342,17.342,0,0,1-5.167-1.947c-.269-.161-3.362-1.585-4.67-2.376a.168.168,0,0,0-.169-.016,15.069,15.069,0,0,0,1.509-5.919c-.079-1.616-.93-3.285-1.161-4.921-.42-2.978-.443-7.258,2.546-8.992a3.641,3.641,0,0,1,1.8-.382,5.555,5.555,0,0,1,1,.068c4.6.839,7.043,2.322,8.43,4.6a14.8,14.8,0,0,1,1.723,5.684c.02.138.039.291.057.452.011.082.02.163.028.249A40.039,40.039,0,0,1,1471.536,1498.262Z" transform="translate(-1451.812 -1472.445)"/><path class="u" d="M1471.339,1486.65l-2.491,2.793a.67.67,0,0,1-1.044-.056l-1.448-2.011-2.082.371a.415.415,0,0,1-.487-.408v-.646a3.029,3.029,0,0,1,2.394-2.962,6.945,6.945,0,0,1,1.454-.151,6.088,6.088,0,0,1,3.491,1.012A1.393,1.393,0,0,1,1471.339,1486.65Z" transform="translate(-1457.712 -1472.778)"/><path class="u" d="M1496.412,1509.5c-.014,3.678-.432,7.839-1.573,8.888-.881.811-2.491.873-4.2.57a4.8,4.8,0,0,1,.224-.506c1.528-2.48,1.726-3.192,1.418-6.133a9.507,9.507,0,0,1,.068-3.486c.3-1.071.975-2.107.768-3.2a6.509,6.509,0,0,0-.559-1.393,5.332,5.332,0,0,1-.344-3.1,2.889,2.889,0,0,1,.737-1.554,2.1,2.1,0,0,1,1.477-.573,14.809,14.809,0,0,1,1.723,5.684c.02.139.04.291.057.452.011.079.02.164.028.248C1496.342,1506.47,1496.406,1507.925,1496.412,1509.5Z" transform="translate(-1476.688 -1483.686)"/><path class="f" d="M1473.371,1485.227a1.236,1.236,0,0,1-.4.878,2.749,2.749,0,0,1-3.506.031,1.183,1.183,0,0,1,0-1.819c.026-.022.053-.048.082-.07,0,0,.005-.006.008-.006a2.439,2.439,0,0,1,1.2-.5c.073-.011.147-.02.223-.026s.15-.008.226-.008a2.513,2.513,0,0,1,1.768.647A1.232,1.232,0,0,1,1473.371,1485.227Z" transform="translate(-1461.427 -1472.867)"/><path class="o" d="M1474,1473.15v5.5a2.516,2.516,0,0,1-1.769.646,2.561,2.561,0,0,1-1.7-.582.282.282,0,0,1-.039-.034v-5.528Z" transform="translate(-1462.452 -1465.409)"/><path class="v" d="M1471.891,1479.095a2.706,2.706,0,0,1-1.792-.618s-.017-.013-.028-.023l-.043-.042-.015-.074v-5.67h3.788v5.7l-.041.041A2.676,2.676,0,0,1,1471.891,1479.095Zm-1.6-.82a2.456,2.456,0,0,0,1.6.538,2.426,2.426,0,0,0,1.627-.566v-5.3h-3.224Z" transform="translate(-1462.112 -1465.068)"/><path class="o" d="M1473.818,1475.75l-.3.449-1.528,2.189-.214.305-1.24,1.856a.372.372,0,0,1-.04-.034v-2.865l0-.014a20.659,20.659,0,0,1,1.69-1.794l1.367-.076Z" transform="translate(-1462.452 -1467.247)"/><path class="o" d="M1465.977,1459.76c-.014.2-.253.372-.506.534a2.971,2.971,0,0,0-.246.176c-.007,0-.014,0-.021.014a.841.841,0,0,0-.162.14.411.411,0,0,0-.119.2,4.077,4.077,0,0,1-.246.766,3.915,3.915,0,0,1-2.058,2.114,3.23,3.23,0,0,1-1.019.282,2.667,2.667,0,0,1-.408.014,3.406,3.406,0,0,1-3.169-2.81,6.512,6.512,0,0,1-.119-1.046c-.007-.408,0-.808.014-1.2.028-.625.05-1.25.07-1.869.007-.253.021-.5.028-.752a.809.809,0,0,1,.007-.344,1.149,1.149,0,0,1,.6-.752,2.566,2.566,0,0,1,1.475-.169,7.6,7.6,0,0,1,2.93.85,4.1,4.1,0,0,1,1.925,2.29C1465.092,1458.65,1466,1459.289,1465.977,1459.76Z" transform="translate(-1453.554 -1452.603)"/><path class="w" d="M1464.3,1450.548a3.915,3.915,0,0,0-.919-2.334,4.114,4.114,0,0,0-1.943-1.207,4.3,4.3,0,0,0-1.541-.236,10.934,10.934,0,0,0-2.122.6c-.729.2-1.5.246-2.213.506a2.084,2.084,0,0,0-1.468,1.578,1.9,1.9,0,0,0,1.24,1.8,5.576,5.576,0,0,0,2.305.292,5.884,5.884,0,0,1,2.116.016c.73.379.459,1.483.806,2.072a.566.566,0,0,0,.507.288c.478-.033.649-.708,1.1-.871a.69.69,0,0,1,.822.392.964.964,0,0,1-.152.944c-.216.282-.637.313-.83.537-.16.187-.1.506-.036.8a.8.8,0,0,0,.476.6C1464.339,1456.988,1464.369,1451.44,1464.3,1450.548Z" transform="translate(-1450.86 -1446.765)"/><path class="o" d="M1476.255,1503.109v12.776a4.88,4.88,0,0,1-1.986,3.923c-8.64,5.2-11.745,2.166-2.531-3.455a.586.586,0,0,0,.235-.468v-12.776a2.141,2.141,0,0,1,4.282,0Z" transform="translate(-1457.284 -1485.066)"/><path class="u" d="M1495.137,1514.125a2.47,2.47,0,0,0,2.279-.849,1.292,1.292,0,0,0,.324-.866v-10.294a2.451,2.451,0,1,0-4.784,0v10.667a.754.754,0,0,0,.46.694A7.693,7.693,0,0,0,1495.137,1514.125Z" transform="translate(-1478.324 -1483.767)"/></g></g><path class="a" d="M2056.094,727.3l-65.048-37.553v46.342l65.046,37.554Z" transform="translate(-1991.046 -630.207)"/><g class="t" transform="translate(0 59.54)"><g transform="translate(0.51 14.794)"><path class="k" d="M777.357,1011.774c-1.6.67-2.547,0-3.162-1.555-.641-1.626-.606-3.608,1.044-4.427a10.5,10.5,0,0,0,3.2-3.239,7.634,7.634,0,0,0,1.116-2.645c.008-.036.017-.073.026-.11l2.12-8.441a3.569,3.569,0,0,1,3.917-2.722,2.969,2.969,0,0,1,2.283,3.785l-2.107,8.39a14.981,14.981,0,0,1-2.188,5.121,17.289,17.289,0,0,1-6.044,5.749C777.494,1011.714,777.425,1011.746,777.357,1011.774Z" transform="translate(-773.808 -971.873)"/><path class="n" d="M796.7,1035.182l-1.233,1.879a8.811,8.811,0,0,0-1.452,4.948l.331,25.55s11.74,5.714,17.817-.769l.263-18.286s1.445-10.3-2.909-12.7Z" transform="translate(-786.474 -1001.075)"/><path class="n" d="M814.5,975.288c.008,0,.015.009.023.017a.522.522,0,0,0,.008-.11A.135.135,0,0,1,814.5,975.288Z" transform="translate(-799.315 -963.477)"/><path class="u" d="M812.132,991.85l-.9,3.359-1.764,10.2c-.184.691-1.391,1.26-1.994,1.558-1.622.8-4.781,1.2-9.442-.773a2.44,2.44,0,0,1-1.416-1.8l-1.837-7.561-.029-.152a5.328,5.328,0,0,1,.492-3.437l1.7-3.268v-1.747a2.92,2.92,0,0,1,3.669-2.985l1.65.573,4.476,1.56,3.854,1.34A2.589,2.589,0,0,1,812.132,991.85Z" transform="translate(-786.877 -969.698)"/><path class="k" d="M812.132,991.85l-.9,3.359c-.449.555-.9,1.114-1.351,1.669a9.985,9.985,0,0,1-3.259,3c-2.194,1.026-4.714.187-6.94-.756q-2.066-.87-4.086-1.857c-.273-.131-.553-.269-.817-.428l-.029-.152a5.328,5.328,0,0,1,.492-3.437l1.7-3.268v-1.747a2.92,2.92,0,0,1,3.669-2.985l1.65.573,4.476,1.56,3.854,1.34A2.589,2.589,0,0,1,812.132,991.85Z" transform="translate(-786.877 -969.698)"/><path class="o" d="M817.149,988.554a34.771,34.771,0,0,1-3.92,2.9,2.312,2.312,0,0,1-1.524.506.553.553,0,0,1-.322-.149.849.849,0,0,1-.085-.728,17.079,17.079,0,0,1,1.374-4.084Z" transform="translate(-797.281 -970.872)"/><path class="o" d="M819.236,975.366v5.889l-4.654.4v-6.287Z" transform="translate(-799.364 -963.584)"/><path class="o" d="M819.236,980.448,814.6,983.96l-.022.336v-4.178Z" transform="translate(-799.364 -966.562)"/><path d="M811.872,949c-2.477-.8-1.317-2.642-2.764-4.216-1.679-1.826-4.628-.827-6.168.6a1.4,1.4,0,0,1-.585.392c-1.55.363-2.28-.854-3.665.7-.925,1.038-1.6,2.75-2.554,3.917-.551.673-1.118,1.64-.595,2.336.38.5,1.208.61,1.418,1.206a2.077,2.077,0,0,1-.191,1.231,2.823,2.823,0,0,0,1.089,3.035c2.422,1.653,3.457-.923,5.2-1.8,2.629-1.316,3.129,2.71,4.966,3.629a2.374,2.374,0,0,0,3.169-1.3,8.986,8.986,0,0,0,.079-2.708c.054-2.137,2.194-1.613,2.673-3.43A3.3,3.3,0,0,0,811.872,949Z" transform="translate(-787.3 -943.798)"/><path d="M819.722,949.146a2.846,2.846,0,0,0,.013-2.295,1.649,1.649,0,0,1,.685-.212,2.708,2.708,0,0,1,.2-.367.867.867,0,0,0-1.3.012,3.543,3.543,0,0,0-1.352,2.9,2.2,2.2,0,0,0,.365.99A3.848,3.848,0,0,0,819.722,949.146Z" transform="translate(-801.474 -945.167)"/><path d="M815.028,952.075a10.052,10.052,0,0,0-2-1.649,5.126,5.126,0,0,0-1.261-.647,8.608,8.608,0,0,0-5.615,1.135c-2.173,1.636-3.664,4.127-3.37,6.635.819,7,10.441,5.347,12.964.5a5.336,5.336,0,0,0,.143-4.719A5.45,5.45,0,0,0,815.028,952.075Z" transform="translate(-791.943 -947.466)"/><path class="o" d="M802.465,962.645a6.25,6.25,0,0,0,1.089,3.737,4.741,4.741,0,0,0,3.674,1.605,4.071,4.071,0,0,0,2.186-.482c1.251-.749,1.837-2.363,2.154-3.888a12.813,12.813,0,0,0,.235-1.757,6.533,6.533,0,0,0-.195-1.989,5.722,5.722,0,0,0-2.5-3.264,9.017,9.017,0,0,0-3.8-1.2,3.051,3.051,0,0,0-1.91.232,1.627,1.627,0,0,0-.772,1.07,1.249,1.249,0,0,0-.016.49l-.122,3.737C802.465,961.495,802.448,962.065,802.465,962.645Z" transform="translate(-791.765 -951.041)"/><path d="M809.816,958.515a8.46,8.46,0,0,0,1.961,3.009,4.939,4.939,0,0,0,3.247,1.4,1.943,1.943,0,0,0,1.539-.569,2.108,2.108,0,0,0,.375-.827,5.416,5.416,0,0,0-.222-3.541,4.11,4.11,0,0,0-2.618-2.317,4.622,4.622,0,0,0-3.617.711,2.237,2.237,0,0,0-1.241,2.195Z" transform="translate(-795.99 -951.164)"/><rect class="f" width="4.119" height="0.293" transform="translate(16.851 13.559) rotate(-30.272)"/><path class="o" d="M823.936,979.352a.3.3,0,0,0,.3.034.779.779,0,0,1,.02-.107Z" transform="translate(-805.227 -966.036)"/><path class="o" d="M826.479,973.738c-.47-.163-.935.361-1.14.959a5.223,5.223,0,0,1-.317.893.677.677,0,0,1-.34.3,1.013,1.013,0,0,0,.509,1.171,1.188,1.188,0,0,0,1.146-.461,2.517,2.517,0,0,0,.736-1.441C827.145,974.57,826.906,973.886,826.479,973.738Z" transform="translate(-805.672 -962.545)"/><g transform="translate(12.934 10.821)"><path class="x" d="M808.6,973.393c.087-.293.275-.4.494-.272a1.307,1.307,0,0,1,.493.842l.141-.023a1.677,1.677,0,0,0-.634-1.082c-.28-.162-.523-.028-.634.35Z" transform="translate(-808.461 -972.791)"/></g><g transform="translate(12.934 10.821)"><path class="f" d="M808.6,973.393c.087-.293.275-.4.494-.272a1.307,1.307,0,0,1,.493.842l.141-.023a1.677,1.677,0,0,0-.634-1.082c-.28-.162-.523-.028-.634.35Z" transform="translate(-808.461 -972.791)"/></g><g transform="translate(13.916 11.077)"><path class="f" d="M813.311,977.469a1.443,1.443,0,0,1-.713-.216,3.331,3.331,0,0,1-1.5-2.607,1.015,1.015,0,0,1,1.651-.953,3.33,3.33,0,0,1,1.505,2.606,1.144,1.144,0,0,1-.493,1.054A.88.88,0,0,1,813.311,977.469Zm-1.279-3.7a.591.591,0,0,0-.3.076.87.87,0,0,0-.346.8A3.008,3.008,0,0,0,812.744,977a.731.731,0,0,0,1.212-.7,3.006,3.006,0,0,0-1.359-2.352A1.154,1.154,0,0,0,812.032,973.771Z" transform="translate(-811.093 -973.477)"/></g><g transform="translate(10.105 8.877)"><path class="f" d="M803.1,971.575a1.448,1.448,0,0,1-.713-.216,3.331,3.331,0,0,1-1.5-2.607,1.016,1.016,0,0,1,1.652-.954,3.333,3.333,0,0,1,1.5,2.607,1.144,1.144,0,0,1-.493,1.054A.881.881,0,0,1,803.1,971.575Zm-1.278-3.7a.6.6,0,0,0-.3.076.871.871,0,0,0-.346.8,3.007,3.007,0,0,0,1.358,2.352.731.731,0,0,0,1.212-.7,3.005,3.005,0,0,0-1.358-2.352A1.157,1.157,0,0,0,801.823,967.876Z" transform="translate(-800.883 -967.583)"/></g><path d="M805.969,954.683a20.476,20.476,0,0,1-4.3,1.973,3.357,3.357,0,0,1-.247-3.044,4.955,4.955,0,0,1,2.065-2.339c1.6-.98,3.886-1.132,5.195.207a1.5,1.5,0,0,1,.467.87c.07.746-.682,1.284-1.35,1.623a27.447,27.447,0,0,1-3.1,1.343Z" transform="translate(-790.956 -948.002)"/><path class="k" d="M837.586,1014.543a2.83,2.83,0,0,1-2.548-1.594l-5.908-12.15a2.831,2.831,0,0,1,5.092-2.476l5.908,12.151a2.831,2.831,0,0,1-2.544,4.069Z" transform="translate(-808.303 -976.974)"/><path class="o" d="M812.13,1040.923a2.426,2.426,0,1,1,0-4.853c9.681,0,11.057-3.632,11.063-3.668a2.427,2.427,0,0,1,4.789.787C827.851,1033.98,826.3,1040.923,812.13,1040.923Z" transform="translate(-796.306 -998.058)"/><path class="o" d="M815.981,1043.564h0a1,1,0,0,1-1.357-.246l-1.36-1.862a.937.937,0,0,1,.207-1.33h0a1,1,0,0,1,1.357.246l1.36,1.862A.938.938,0,0,1,815.981,1043.564Z" transform="translate(-798.42 -1004.069)"/></g><g transform="translate(32.478 25.569)"><path class="u" d="M1764.543,401.97l.017-6.11a10.184,10.184,0,0,0-4.616-8l-16.414-9.474a3.259,3.259,0,0,0-3.293-.323l2.555-1.486a3.274,3.274,0,0,1,3.3.324l16.41,9.475a10.174,10.174,0,0,1,4.617,8l-.017,6.11a3.248,3.248,0,0,1-1.35,2.97l-2.558,1.487A3.243,3.243,0,0,0,1764.543,401.97Z" transform="translate(-1739.262 -376.268)"/><path class="k" d="M1750.291,379.625c-2.556-1.478-4.637-.292-4.646,2.648l-.018,6.109a10.17,10.17,0,0,0,4.618,8,7.319,7.319,0,0,1-1.669,2.91,5.7,5.7,0,0,0,6.021-.4l12.059,6.961c2.555,1.477,4.637.292,4.647-2.647l.017-6.11a10.185,10.185,0,0,0-4.616-8Z" transform="translate(-1745.628 -377.897)"/></g></g><path class="a" d="M2082.955,742.808l-65.049-37.555v46.342l65.049,37.555Z" transform="translate(-1939.855 -660.192)"/><g class="y" transform="translate(78.05 45.061)"><g transform="translate(32.38 27.646)"><path class="u" d="M1764.543,401.97l.017-6.11a10.184,10.184,0,0,0-4.616-8l-16.414-9.474a3.259,3.259,0,0,0-3.293-.323l2.555-1.486a3.274,3.274,0,0,1,3.3.324l16.41,9.475a10.174,10.174,0,0,1,4.617,8l-.017,6.11a3.248,3.248,0,0,1-1.35,2.97l-2.558,1.487A3.243,3.243,0,0,0,1764.543,401.97Z" transform="translate(-1739.262 -376.268)"/><path class="k" d="M1750.291,379.625c-2.556-1.478-4.637-.292-4.646,2.648l-.018,6.109a10.17,10.17,0,0,0,4.618,8,7.319,7.319,0,0,1-1.669,2.91,5.7,5.7,0,0,0,6.021-.4l12.059,6.961c2.555,1.477,4.637.292,4.647-2.647l.017-6.11a10.185,10.185,0,0,0-4.616-8Z" transform="translate(-1745.628 -377.897)"/></g><g transform="translate(2.437 23.973)"><path class="z" d="M1123.076,1863.872a1.982,1.982,0,0,1-1.307-3.473l4.671-4.094a16.666,16.666,0,0,0,4.964-7.692l2.19-7.2a1.982,1.982,0,1,1,3.793,1.153l-2.19,7.205a20.624,20.624,0,0,1-6.143,9.52l-4.671,4.094A1.975,1.975,0,0,1,1123.076,1863.872Z" transform="translate(-1121.093 -1827.706)"/><path class="z" d="M1164.219,1841.72v17.073l4.26,2.615a9.284,9.284,0,0,0,7.95.861l1.5-.533-.556-18.933a3.219,3.219,0,0,0-.876-2.1,3.031,3.031,0,0,0-.7-.572l-1.342-.846-.373-.236a11.825,11.825,0,0,0-4.749-1.654,7.8,7.8,0,0,0-1.006-.068,3.636,3.636,0,0,0-1.8.381A4.644,4.644,0,0,0,1164.219,1841.72Z" transform="translate(-1151.941 -1825.796)"/><path class="z" d="M1197.293,1871.225a9.194,9.194,0,0,0,2.1-.472l1.5-.534-.556-18.933a3.22,3.22,0,0,0-.877-2.1,6.938,6.938,0,0,0-.884.145.877.877,0,0,0-.244.1,2.291,2.291,0,0,0-1.082.572,2.671,2.671,0,0,0-.175,2.729,4.873,4.873,0,0,1,.511,2.8c-.183.663-.694,1.2-.831,1.883-.282,1.433,1.235,5.015,1.09,6.471a6.731,6.731,0,0,1-1.067,2.241A5.2,5.2,0,0,0,1197.293,1871.225Z" transform="translate(-1174.907 -1834.279)"/><path class="k" d="M1178.34,1838.9l-2.5,2.8a.672.672,0,0,1-1.047-.056l-1.452-2.016-2.086.372a.416.416,0,0,1-.489-.41v-.647a3.037,3.037,0,0,1,2.4-2.97,6.993,6.993,0,0,1,1.457-.151,6.1,6.1,0,0,1,3.5,1.015A1.4,1.4,0,0,1,1178.34,1838.9Z" transform="translate(-1156.626 -1824.717)"/><path class="f" d="M1191.022,1822.336c.007,0,.013.007.02.014a.389.389,0,0,0,.007-.087A.1.1,0,0,1,1191.022,1822.336Z" transform="translate(-1171.113 -1815.018)"/><path class="o" d="M1179.259,1838.778c-1.269,0-2.264-.713-2.264-1.624s.994-1.624,2.264-1.624,2.263.714,2.263,1.624S1180.528,1838.778,1179.259,1838.778Z" transform="translate(-1161.08 -1824.508)"/><path class="u" d="M1161.621,1806.8a22.126,22.126,0,0,0,2.313,1.181l.446-2.4a6.145,6.145,0,0,0-1.066-.712c-.289-.089-1.215.65-1.215.65Z" transform="translate(-1150.083 -1802.569)"/><path class="o" d="M1181.866,1825.532h0v-4.072a1.926,1.926,0,0,0-1.189-1.769,2.041,2.041,0,0,0-.648-.13c-.107,0-.213.008-.312.015a1.9,1.9,0,0,0-1.647,1.883v4.072h0v.2h.022a2.1,2.1,0,0,0,3.752,0h.022Z" transform="translate(-1161.849 -1813.085)"/><path class="o" d="M1178.316,1823.9c1.575-.081,2.824-1.087,2.824-2.307v-3.911a3.69,3.69,0,0,0-1.124-.163h-.1a2.124,2.124,0,0,0-.222.015h-.067a1.538,1.538,0,0,0-.51.177.858.858,0,0,0-.207.126l-.089.066a2.717,2.717,0,0,0-.207.207,2.155,2.155,0,0,0-.517,1.419v3.5Z" transform="translate(-1161.865 -1811.628)"/><path class="o" d="M1171.995,1812.89a5.657,5.657,0,0,0,.8-2.4c.106-.658,1-.383,1-1.055,0-.478-.447-.988-.648-1.4a3.005,3.005,0,0,0-1-1.218,5.942,5.942,0,0,0-1.857-.784,14.612,14.612,0,0,0-2.222-.433l-.207-.71h-2.329v6.671c0,.065.035.157.045.277.154,1.771,1.89,2.656,3.365,2.7a3.133,3.133,0,0,0,1.844-.559A5.188,5.188,0,0,0,1171.995,1812.89Z" transform="translate(-1152.878 -1802.588)"/><path class="aa" d="M1161.072,1798.727a17.067,17.067,0,0,1,2.289-1.142,7.069,7.069,0,0,1,2.7-.762,4.33,4.33,0,0,1,3.436,1.279,6.5,6.5,0,0,1,1.278,5,4.463,4.463,0,0,1-.52,1.986c-.194.3-1.186,1.24-1.621.871-.369-.313.081-.893-.091-1.364a.406.406,0,0,0-.1-.175.386.386,0,0,0-.329-.041.508.508,0,0,1-.269,0c-.193-.074-.219-.333-.206-.539.041-.667.135-1.436-.632-1.639-.531-.141-1.129.055-1.644-.168a17.473,17.473,0,0,0-3.067-1.471c-.152-.033-.416-.125-.454.026-.123.488-.046.654-.168.986a1.6,1.6,0,0,1-1.15-.822,1.651,1.651,0,0,1,.029-1.469A1.689,1.689,0,0,1,1161.072,1798.727Z" transform="translate(-1149.189 -1796.815)"/><rect class="n" width="3.259" height="0.212" transform="translate(16.881 8.057) rotate(-31.759)"/><path class="o" d="M1186.81,1823.409a.294.294,0,0,0,.221.018c.008-.019,0-.04.015-.058Z" transform="translate(-1168.1 -1815.809)"/><path class="o" d="M1188.85,1819.425a.8.8,0,0,0-.841.521,2.356,2.356,0,0,1-.233.484.48.48,0,0,1-.251.165.513.513,0,0,0,.376.635,1.05,1.05,0,0,0,.845-.25,1.293,1.293,0,0,0,.543-.782A.682.682,0,0,0,1188.85,1819.425Z" transform="translate(-1168.592 -1812.976)"/><path class="x" d="M1170.391,1818.584c.065-.219.206-.3.369-.2a.973.973,0,0,1,.368.629l.105-.018a1.252,1.252,0,0,0-.473-.808c-.209-.12-.39-.021-.474.261Z" transform="translate(-1156.281 -1812.065)"/><path class="n" d="M1170.391,1818.584c.065-.219.206-.3.369-.2a.973.973,0,0,1,.368.629l.105-.018a1.252,1.252,0,0,0-.473-.808c-.209-.12-.39-.021-.474.261Z" transform="translate(-1156.281 -1812.065)"/><path class="n" d="M1174.526,1821.791a1.072,1.072,0,0,1-.53-.161,2.482,2.482,0,0,1-1.122-1.943.755.755,0,0,1,1.228-.709,2.484,2.484,0,0,1,1.121,1.943.85.85,0,0,1-.366.784A.656.656,0,0,1,1174.526,1821.791Zm-.954-2.76a.442.442,0,0,0-.225.057.652.652,0,0,0-.26.6,2.248,2.248,0,0,0,1.016,1.759.548.548,0,0,0,.909-.525,2.248,2.248,0,0,0-1.015-1.759A.866.866,0,0,0,1173.571,1819.03Z" transform="translate(-1158.131 -1812.553)"/><path class="n" d="M1164.535,1816.023a1.075,1.075,0,0,1-.531-.161,2.484,2.484,0,0,1-1.122-1.943.755.755,0,0,1,1.228-.709,2.483,2.483,0,0,1,1.121,1.943.85.85,0,0,1-.366.784A.648.648,0,0,1,1164.535,1816.023Zm-.954-2.76a.443.443,0,0,0-.226.057.652.652,0,0,0-.26.6,2.247,2.247,0,0,0,1.016,1.759.549.549,0,0,0,.909-.525,2.247,2.247,0,0,0-1.015-1.759A.867.867,0,0,0,1163.58,1813.263Z" transform="translate(-1150.985 -1808.428)"/><path class="z" d="M1202.249,1875.989a1.983,1.983,0,0,1-1.921-2.478l2.039-7.905a10.071,10.071,0,0,0-.427-6.288l-3.3-8.075a1.982,1.982,0,1,1,3.67-1.5l3.3,8.075a14.061,14.061,0,0,1,.6,8.779l-2.039,7.905A1.984,1.984,0,0,1,1202.249,1875.989Z" transform="translate(-1176.455 -1833.792)"/><path class="m" d="M1169.844,1828.064l.083.147c-.02.747-.559,1.044-1.221.662a2.709,2.709,0,0,1-1.22-2.071l.083-.052Z" transform="translate(-1154.277 -1818.227)"/></g></g><path class="a" d="M2082.955,742.808l-65.049-37.555v46.342l65.049,37.555Z" transform="translate(-1939.855 -600.652)"/><g class="y" transform="translate(78.05 104.601)"><g transform="translate(29.722 26.57)"><path class="u" d="M1764.543,401.97l.017-6.11a10.184,10.184,0,0,0-4.616-8l-16.414-9.474a3.259,3.259,0,0,0-3.293-.323l2.555-1.486a3.274,3.274,0,0,1,3.3.324l16.41,9.475a10.174,10.174,0,0,1,4.617,8l-.017,6.11a3.248,3.248,0,0,1-1.35,2.97l-2.558,1.487A3.243,3.243,0,0,0,1764.543,401.97Z" transform="translate(-1739.262 -376.268)"/><path class="k" d="M1750.291,379.625c-2.556-1.478-4.637-.292-4.646,2.648l-.018,6.109a10.17,10.17,0,0,0,4.618,8,7.319,7.319,0,0,1-1.669,2.91,5.7,5.7,0,0,0,6.021-.4l12.059,6.961c2.555,1.477,4.637.292,4.647-2.647l.017-6.11a10.185,10.185,0,0,0-4.616-8Z" transform="translate(-1745.628 -377.897)"/></g><g transform="translate(-0.376 24.086)"><path class="u" d="M863.456,694.44l2.091-13.911a2.194,2.194,0,1,1,4.34.655l-2.139,14.221a2.124,2.124,0,0,1-.175.592l-4.665,10.086a5.659,5.659,0,0,1-3.992-1.817Z" transform="translate(-858.915 -664.867)"/><path class="n" d="M896.088,668.279c.007,0,.014.008.021.016a.483.483,0,0,0,.007-.1A.127.127,0,0,1,896.088,668.279Z" transform="translate(-884.024 -657.796)"/><path class="o" d="M892.719,677.746c-.05,0-.1.013-.149.02l.391-.375C892.877,677.507,892.8,677.627,892.719,677.746Z" transform="translate(-881.647 -664.008)"/><path class="u" d="M891.176,684.855l-.822,3.085-1.62,9.371c-.169.635-1.277,1.157-1.83,1.431-1.489.738-4.391,1.1-8.671-.71a2.242,2.242,0,0,1-1.3-1.655l-1.687-6.943-.027-.14a4.885,4.885,0,0,1,.451-3.156l1.563-3v-1.6a2.681,2.681,0,0,1,3.369-2.741l1.516.526,4.111,1.432,3.54,1.231A2.377,2.377,0,0,1,891.176,684.855Z" transform="translate(-869.868 -664.877)"/><path class="k" d="M891.176,684.855l-.822,3.085c-.413.51-.825,1.023-1.241,1.533a9.175,9.175,0,0,1-2.993,2.754c-2.015.942-4.329.172-6.373-.695q-1.9-.8-3.752-1.7c-.251-.12-.508-.247-.75-.393l-.027-.14a4.885,4.885,0,0,1,.451-3.156l1.563-3v-1.6a2.681,2.681,0,0,1,3.369-2.741l1.516.526,4.111,1.432,3.54,1.231A2.377,2.377,0,0,1,891.176,684.855Z" transform="translate(-869.868 -664.877)"/><path class="o" d="M892.776,685.076a.511.511,0,0,0,.3.139,2.148,2.148,0,0,0,1.4-.464,31.6,31.6,0,0,0,3.17-2.3c.142-.117.285-.238.428-.358l-2.409-.837-1.7-.592c-.055.114-.11.227-.161.344a15.774,15.774,0,0,0-.771,2.069c-.128.438-.238.885-.329,1.334A.778.778,0,0,0,892.776,685.076Z" transform="translate(-881.71 -666.216)"/><path class="u" d="M917.241,707.63c-.567.049-1.135.089-1.7.1q-.542.011-1.083-.015c-.1,0-.172-.006-.23-.007s-.117-.025-.21-.042-.337-.088-.484-.126a1.675,1.675,0,0,0-.147-.083c-.015-.014-.033-.032-.041-.038-.016-.037-.031-.072-.037-.092a3.143,3.143,0,0,1-.135-1.056,4.048,4.048,0,0,0-.046-.488c1.385-2.223,4.085-3.3,5.866-4a15.416,15.416,0,0,0,1.433-.617.724.724,0,0,0-.115-.826l-6.046-7.187a2.193,2.193,0,0,1,3.357-2.824l6.023,7.16a5.116,5.116,0,0,1,.179,6.471,7.136,7.136,0,0,1-3.217,1.9A11.153,11.153,0,0,0,917.241,707.63Z" transform="translate(-895.531 -672.218)"/><path class="k" d="M871.394,708.269l.05.1a.153.153,0,0,1-.04,0C871.4,708.342,871.4,708.305,871.394,708.269Z" transform="translate(-867.344 -684.865)"/><rect class="o" width="4.274" height="5.776" transform="translate(12.089 10.455)"/><path class="o" d="M893.789,674.771a3.208,3.208,0,0,0,.939-.4c.114-.069.227-.146.337-.223a8.446,8.446,0,0,0,1.356-1.2,18.424,18.424,0,0,0,2.413-3.535V668.37H894.56V672.7A15.755,15.755,0,0,0,893.789,674.771Z" transform="translate(-882.471 -657.915)"/><path class="o" d="M900.444,673.7l-4.254,2.493-.02-.057v-2.74Z" transform="translate(-884.079 -661.307)"/><path class="ab" d="M896.547,643.471c-.123-4.024-3.7-3.15-7.122-2.857a3.54,3.54,0,0,0-.927.163,2.817,2.817,0,0,0-.7.416c-2,1.5-3.365,3.79-3.095,6.094.506,4.325,6.622,5.966,9.909,2.777C896.384,648.343,896.619,645.8,896.547,643.471Z" transform="translate(-876.308 -638.974)"/><path class="o" d="M884.372,652.143a5.739,5.739,0,0,0,1,3.432,4.353,4.353,0,0,0,3.374,1.474,3.744,3.744,0,0,0,2.008-.442,5.264,5.264,0,0,0,1.978-3.571,11.788,11.788,0,0,0,.217-1.613,6,6,0,0,0-.179-1.827,5.253,5.253,0,0,0-2.3-3,8.282,8.282,0,0,0-3.493-1.106c-.59-.074,1.335-.09.8.213-.351.2-1.358.574-1.44.983-.038.148-1.865.3-1.843.451-.037,1.147-.074,2.285-.112,3.431C884.372,651.087,884.357,651.611,884.372,652.143Z" transform="translate(-876.106 -642.432)"/><path class="ab" d="M908.322,637.853a3.459,3.459,0,1,1,3.965,4.972,3.556,3.556,0,0,1-4.114-2.054,3.507,3.507,0,0,1,1.658-4.275Z" transform="translate(-892.044 -636.157)"/><path class="ab" d="M892.051,648.378a7.753,7.753,0,0,0,1.8,2.763,4.534,4.534,0,0,0,2.982,1.288,1.782,1.782,0,0,0,1.413-.522,1.929,1.929,0,0,0,.344-.76,4.973,4.973,0,0,0-.2-3.251,3.774,3.774,0,0,0-2.4-2.128,4.244,4.244,0,0,0-3.322.653,2.055,2.055,0,0,0-1.14,2.015Z" transform="translate(-880.914 -642.572)"/><path class="f" d="M901.926,667.87l-.138-.237,3.266-1.908.138.237Z" transform="translate(-887.873 -656.129)"/><path class="o" d="M907.047,670.781a.278.278,0,0,0,.276.031.677.677,0,0,1,.018-.1Z" transform="translate(-891.426 -659.498)"/><path class="o" d="M909.481,664.857c-.432-.15-.859.332-1.047.881a4.8,4.8,0,0,1-.291.82.62.62,0,0,1-.312.279.93.93,0,0,0,.467,1.075,1.092,1.092,0,0,0,1.052-.424,2.314,2.314,0,0,0,.676-1.324C910.092,665.622,909.873,664.993,909.481,664.857Z" transform="translate(-891.934 -655.524)"/><path class="x" d="M890.834,664.415c.079-.27.253-.365.453-.25a1.2,1.2,0,0,1,.453.773l.129-.021a1.541,1.541,0,0,0-.582-.994c-.257-.149-.48-.026-.583.321Z" transform="translate(-880.388 -654.87)"/><path class="f" d="M890.834,664.415c.079-.27.253-.365.453-.25a1.2,1.2,0,0,1,.453.773l.129-.021a1.541,1.541,0,0,0-.582-.994c-.257-.149-.48-.026-.583.321Z" transform="translate(-880.388 -654.87)"/><path class="f" d="M895.515,668.25a1.333,1.333,0,0,1-.656-.2,3.063,3.063,0,0,1-1.383-2.4.935.935,0,0,1,1.521-.878,3.062,3.062,0,0,1,1.383,2.4,1.053,1.053,0,0,1-.454.97A.809.809,0,0,1,895.515,668.25Zm-1.174-3.4a.543.543,0,0,0-.275.069.8.8,0,0,0-.316.732A2.758,2.758,0,0,0,895,667.814a.668.668,0,0,0,1.109-.64,2.758,2.758,0,0,0-1.246-2.158A1.058,1.058,0,0,0,894.341,664.854Z" transform="translate(-882.259 -655.355)"/><path class="f" d="M884.733,662.024a1.332,1.332,0,0,1-.656-.2,3.063,3.063,0,0,1-1.383-2.4.935.935,0,0,1,1.521-.878,3.062,3.062,0,0,1,1.383,2.4,1.053,1.053,0,0,1-.454.97A.809.809,0,0,1,884.733,662.024Zm-1.174-3.4a.544.544,0,0,0-.275.07.8.8,0,0,0-.316.732,2.757,2.757,0,0,0,1.246,2.158.669.669,0,0,0,1.109-.64,2.759,2.759,0,0,0-1.246-2.158A1.059,1.059,0,0,0,883.56,658.628Z" transform="translate(-874.977 -651.15)"/><path class="ab" d="M890.139,644.678l-6.33,2.059a4.051,4.051,0,0,1,1.187-3.57,6.543,6.543,0,0,1,3.5-1.967,2.426,2.426,0,0,1,2.574,1.494c.28,1.1-.943,1.945-1.975,2.419Z" transform="translate(-875.685 -639.551)"/><path class="o" d="M872.5,762.994a.111.111,0,0,1,0,.033,4.607,4.607,0,0,0,.544-.055Z" transform="translate(-868.091 -721.814)"/></g></g></g></g></g><g transform="translate(-6467 -3435)"><path class="ac" d="M612.886,769.643c14.551-8.4,14.551-22.022,0-30.424s-38.143-8.4-52.7,0-14.551,22.023,0,30.424S598.335,778.044,612.886,769.643Z" transform="translate(6535.262 9448.377)"/><g transform="translate(6535.262 9448.377)"><path class="f" d="M590.187,740.958a5.007,5.007,0,0,0,3.541,6.123c4.639,2.414,9.16,4.984,14.192,6.505a8.014,8.014,0,0,0,3.544.464,3.074,3.074,0,0,0,2.6-2.176c.285-1.353-.667-2.625-1.559-3.681-3.767-4.46-7.687-9.042-12.924-11.623a9.26,9.26,0,0,0-4.973-1.164,4.419,4.419,0,0,0-3.872,2.954Z"/></g><g transform="translate(6535.262 9448.377)"><path class="f" d="M562.49,752.224a10.427,10.427,0,0,0,.673,3.555,28.845,28.845,0,0,0,3.9,6.337l2.621,3.537a18.049,18.049,0,0,0,2.979,3.388,6.079,6.079,0,0,0,4.152,1.507,1.687,1.687,0,0,0,1.117-.42,1.763,1.763,0,0,0,.335-.569c1.058-2.582.334-5.511-.4-8.2-1.034-3.788-2.407-7.358-3.432-11.1-.711-2.6-1.557-6.236-4.746-6.692C564.65,742.882,562.385,747.8,562.49,752.224Z"/></g><g transform="translate(6535.262 9448.377)"><path class="ad" d="M567.264,687.014l-3.358-55.751,1.151-13.344,27.348,4.16,14.636-.693.5,64.1-6.7,49.634c-.155,1.148,1.923,1.872,1.921,2.995,0,1.383-.653,3.534-3.729,4.066a10.64,10.64,0,0,1-5.473-1.339c-1.86-1.465-3.282-3.375-3.169-5.913l2.01-45.183L588.2,641.467l-1.226,22.511L585.479,686.9l-11.611,60.5c-.187,2.5-1.03,4.423-3.26,4.423h-2.949A4.581,4.581,0,0,1,563.371,747Z"/></g><g transform="translate(6535.262 9448.377)"><path class="f" d="M568.779,602.667l-8.563,14.1s-1.56,46.823.563,72.8a35.5,35.5,0,0,0,24.466,9.378s22.766-4.037,31.791-12.2c0,0-.384-62.8-15.585-84.494Z"/></g><g transform="translate(6535.262 9448.377)"><path class="ae" d="M595.748,550.155h0a6.217,6.217,0,0,0-3.46,8.082l16.132,40.285a6.217,6.217,0,0,0,8.082,3.46h0a6.217,6.217,0,0,0,3.46-8.082l-16.133-40.285A6.216,6.216,0,0,0,595.748,550.155Z"/></g><g transform="translate(6535.262 9448.377)"><path class="n" d="M591.249,543.539c-.02,0-.04.022-.061.044a1.409,1.409,0,0,1-.02-.289A.354.354,0,0,0,591.249,543.539Z"/></g><g transform="translate(6535.262 9448.377)"><path class="ae" d="M566.268,576.248l3.225,27.357a12.15,12.15,0,0,1,1.022.775c6.236,5.356,14.993,5.883,23.413,5.686a50.14,50.14,0,0,0,5.756-2.031,6.375,6.375,0,0,0,3.7-4.712l5.856-22.827.079-.395a13.929,13.929,0,0,0-1.285-8.981l-4.445-8.535-1.342-4.577c-.433-5.034-4.631-10.058-8.241-7.783l-1.66.573-2.658.919-11.687,4.08-3.418,1.186-6.649,2.312a6.761,6.761,0,0,0-4.011,8.18Z"/></g><g transform="translate(6535.262 9448.377)"><path class="a" d="M563.927,567.475l2.341,8.773c1.176,1.452,2.342,2.9,3.527,4.357,2.48,3.072,5.069,6.224,8.516,7.834,5.73,2.677,12.31.494,18.129-1.976,3.6-1.511,7.163-3.131,10.67-4.851.711-.335,1.442-.7,2.134-1.116l.079-.395a13.925,13.925,0,0,0-1.285-8.98l-4.445-8.536-1.694-5.777c-.081-3.834-3.1-8.094-7.889-6.583l-1.66.573-2.658.919-11.687,4.08-3.418,1.186-6.649,2.312A6.761,6.761,0,0,0,563.927,567.475Z"/></g><g transform="translate(6535.262 9448.377)"><path class="ad" d="M574.587,556.983a32.1,32.1,0,0,0,6.313,7.182,17.479,17.479,0,0,0,6.016,3.863,7.286,7.286,0,0,0,6.827-.928,7.034,7.034,0,0,0,2.341-5.138A14.584,14.584,0,0,0,595,556.291a31.667,31.667,0,0,0-2.648-5.493l-2.658.919-11.687,4.08Z"/></g><g transform="translate(6535.262 9448.377)"><path class="k" d="M613.021,577.215l-.142.293a.485.485,0,0,0,.114.009C612.993,577.423,613.011,577.319,613.021,577.215Z"/></g><g class="af" transform="translate(6535.262 9448.377)"><path class="ad" d="M579.061,541.405l11.029,11.568.058-.163v-7.794Z"/></g><g transform="translate(6535.262 9448.377)"><path class="ae" d="M626.133,597.54a8.523,8.523,0,1,1-8.518-8.26A8.392,8.392,0,0,1,626.133,597.54Z"/></g><g transform="translate(6535.262 9448.377)"><path class="ad" d="M615.686,597.883h0a6.711,6.711,0,0,0,5.853,7.473l22.224,3.45a6.713,6.713,0,0,0,7.474-5.854h0a6.714,6.714,0,0,0-5.854-7.474l-22.224-3.449A6.713,6.713,0,0,0,615.686,597.883Z"/></g><g transform="translate(6535.262 9448.377)"><path class="z" d="M628.339,611.137c1.144,2.266,4.925,3.933,9.425,3.933s8.281-1.667,9.424-3.933l.363-3.078V594.554h-.257c-1-2.381-4.882-4.158-9.53-4.158s-8.531,1.777-9.53,4.158h-.258v1.194Z"/><path class="k" d="M647.551,595.152c0,2.962-4.382,5.364-9.787,5.364s-9.788-2.4-9.788-5.364,4.382-5.364,9.788-5.364S647.551,592.19,647.551,595.152Z"/><ellipse class="n" cx="6.973" cy="3.822" rx="6.973" ry="3.822" transform="translate(630.791 591.218)"/></g><g transform="translate(6535.262 9448.377)"><path class="a" d="M544.341,598.063a59.248,59.248,0,0,0,5.167,6.184,41.415,41.415,0,0,1,4.576,5.574,24.643,24.643,0,0,1,2.7,5.3,4.645,4.645,0,0,1,.311,1.608,6.431,6.431,0,0,0,9.689,8.456c2.905-3.237,3.805-7.277,2.722-12.079a33.306,33.306,0,0,0-4.544-10.15,51.327,51.327,0,0,0-5.981-7.417,48.988,48.988,0,0,1-4.1-4.844c-1.9-2.712-2.594-5.853-1.629-7.3a13.163,13.163,0,0,1,3.451-2.7l14.77-9.454a6.43,6.43,0,0,0-6.924-10.836l-14.78,9.454a23.017,23.017,0,0,0-7.213,6.388C538.554,582.232,539.261,590.8,544.341,598.063Z"/></g><g transform="translate(6535.262 9448.377)"><path class="ad" d="M557.707,625.683a6.436,6.436,0,0,0,9.078-.493c2.905-3.237,3.805-7.277,2.722-12.079a12.931,12.931,0,0,1-12.722,2.015,4.645,4.645,0,0,1,.311,1.608A6.424,6.424,0,0,0,557.707,625.683Z"/></g><g transform="translate(7127.011 9987.842)"><g transform="translate(0)"><g transform="translate(0)"><path class="n" d="M896.18,668.474c-.023,0-.046.025-.069.051a1.593,1.593,0,0,1-.023-.332A.413.413,0,0,0,896.18,668.474Z" transform="translate(-896.088 -668.193)"/></g></g></g><g transform="translate(7129.557 9997.602)"><g transform="translate(0)"><g transform="translate(0)"><path class="o" d="M893.361,678.552c.163.011.326.044.488.065l-1.28-1.226C892.841,677.77,893.1,678.161,893.361,678.552Z" transform="translate(-892.569 -677.391)"/></g></g></g><g transform="translate(7113.049 9988.03)"><g transform="translate(0)"><g transform="translate(0)"><rect class="ag" width="13.972" height="18.885"/></g></g></g><g class="af" transform="translate(7113.043 9993.358)"><g transform="translate(0)"><g transform="translate(0)"><path class="o" d="M896.17,674.386l13.907,8.152.066-.188v-8.958Z" transform="translate(-896.17 -673.392)"/></g></g></g><g transform="translate(7092.374 9953.849)"><g transform="translate(7.967 4.426)"><g transform="translate(0)"><path class="ah" d="M884.7,650.606c.4-13.155,12.1-10.3,23.286-9.34a11.557,11.557,0,0,1,3.032.534,9.2,9.2,0,0,1,2.3,1.36c6.524,4.914,11,12.393,10.119,19.924-1.655,14.141-21.65,19.5-32.4,9.081C885.235,666.532,884.469,658.22,884.7,650.606Z" transform="translate(-884.666 -640.328)"/></g></g><g transform="translate(19.089 9.859)"><g transform="translate(0)"><path class="ag" d="M912.424,667.337c-.147,4.123-.853,8.194-3.269,11.219-2.66,3.374-6.955,4.713-11.03,4.82a12.243,12.243,0,0,1-6.565-1.446c-3.758-2.25-5.516-7.1-6.466-11.674a38.523,38.523,0,0,1-.708-5.275,19.593,19.593,0,0,1,.586-5.972,17.173,17.173,0,0,1,7.516-9.8,27.081,27.081,0,0,1,11.421-3.615c1.928-.241-4.364-.295-2.631.7,1.147.643,4.439,1.875,4.708,3.213.123.483,6.1.991,6.026,1.473.121,3.749.243,7.47.365,11.219C912.424,663.884,912.473,665.6,912.424,667.337Z" transform="translate(-884.366 -645.448)"/></g></g><g transform="translate(0)"><path class="ah" d="M928.915,641.7c-3.523-6.56-14.159-7.521-18.8-1.7s-1.341,15.977,5.838,17.955a11.625,11.625,0,0,0,13.449-6.714,11.465,11.465,0,0,0-5.422-13.976Z" transform="translate(-907.962 -636.157)"/></g><g transform="translate(15.795 10.078)"><g transform="translate(0)"><g transform="translate(0)"><path class="ai" d="M913.45,654.557a25.361,25.361,0,0,1-5.888,9.033,14.825,14.825,0,0,1-9.748,4.211,5.827,5.827,0,0,1-4.62-1.707,6.3,6.3,0,0,1-1.125-2.484,16.256,16.256,0,0,1,.666-10.629,12.339,12.339,0,0,1,7.861-6.959,13.876,13.876,0,0,1,10.86,2.136c2.266,1.463,4.379,3.972,3.726,6.59Z" transform="translate(-891.484 -645.655)"/></g></g></g><g transform="translate(17.552 31.375)"><g transform="translate(0)"><g transform="translate(0)"><path class="aj" d="M912.465,672.739l.452-.775-10.677-6.239-.452.775Z" transform="translate(-901.788 -665.725)"/></g></g></g><g transform="translate(14.982 30.425)"><g transform="translate(7.156 6.243)"><g transform="translate(0)"><g transform="translate(0)"><path class="ag" d="M908.009,670.934a.908.908,0,0,1-.9.1,2.182,2.182,0,0,0-.059-.322Z" transform="translate(-907.047 -670.713)"/></g></g></g><g transform="translate(0)"><g transform="translate(0)"><path class="ag" d="M909.62,664.92c1.411-.489,2.807,1.084,3.422,2.88a15.685,15.685,0,0,0,.951,2.681,2.028,2.028,0,0,0,1.021.913,3.04,3.04,0,0,1-1.528,3.515c-1.2.394-2.45-.378-3.439-1.385a7.562,7.562,0,0,1-2.21-4.328C907.621,667.42,908.338,665.365,909.62,664.92Z" transform="translate(-907.799 -664.83)"/></g></g></g><g transform="translate(28.007 23.553)"><g transform="translate(8.626 5.845)"><g transform="translate(0)"><g transform="translate(0)"><path class="aj" d="M894.091,665.671c-.26-.882-.828-1.195-1.482-.817a3.91,3.91,0,0,0-1.481,2.528l-.422-.069a5.032,5.032,0,0,1,1.9-3.248c.841-.486,1.57-.084,1.9,1.049Z" transform="translate(-890.705 -663.862)"/></g></g></g><g transform="translate(0)"><g transform="translate(8.626 5.845)"><g transform="translate(0)"><g transform="translate(0)"><path class="aj" d="M894.091,665.671c-.26-.882-.828-1.195-1.482-.817a3.91,3.91,0,0,0-1.481,2.528l-.422-.069a5.032,5.032,0,0,1,1.9-3.248c.841-.486,1.57-.084,1.9,1.049Z" transform="translate(-890.705 -663.862)"/></g></g></g><g transform="translate(0 6.606)"><path class="aj" d="M896.3,676.581a4.355,4.355,0,0,0,2.144-.65,10.014,10.014,0,0,0,4.522-7.833,3.057,3.057,0,0,0-4.971-2.87,10.01,10.01,0,0,0-4.522,7.833,3.442,3.442,0,0,0,1.483,3.171A2.644,2.644,0,0,0,896.3,676.581Zm3.838-11.1a1.777,1.777,0,0,1,.9.227,2.605,2.605,0,0,1,1.035,2.395A9.017,9.017,0,0,1,898,675.154a2.186,2.186,0,0,1-3.626-2.092,9.016,9.016,0,0,1,4.074-7.056A3.459,3.459,0,0,1,900.141,665.477Z" transform="translate(-893.476 -664.58)"/></g><g transform="translate(11.441)"><g transform="translate(0)"><g transform="translate(0)"><path class="aj" d="M885.521,670.355a4.358,4.358,0,0,0,2.144-.648,10.014,10.014,0,0,0,4.522-7.833,3.058,3.058,0,0,0-4.971-2.87,10.011,10.011,0,0,0-4.522,7.833,3.445,3.445,0,0,0,1.483,3.171A2.647,2.647,0,0,0,885.521,670.355Zm3.838-11.1a1.777,1.777,0,0,1,.9.227,2.605,2.605,0,0,1,1.034,2.395,9.014,9.014,0,0,1-4.075,7.055,2.186,2.186,0,0,1-3.626-2.092,9.019,9.019,0,0,1,4.075-7.056A3.459,3.459,0,0,1,889.359,659.252Z" transform="translate(-882.694 -658.354)"/></g></g></g></g></g><g transform="translate(23.742 5.332)"><g transform="translate(0)"><g transform="translate(0)"><path class="ah" d="M886.915,652.613l20.7,6.73a13.246,13.246,0,0,0-3.879-11.673c-3.021-3.02-7.207-5.886-11.443-6.432-3.331-.429-7.588,1.63-8.415,4.884-.915,3.6,3.085,6.358,6.457,7.909Z" transform="translate(-883.743 -641.182)"/></g></g></g></g></g><g transform="translate(403 6704.484)"><path class="ak" d="M276,660H813.675s-11.269,20.927-37.026,17.708a149.484,149.484,0,0,1-20.927-1.61c-9.659-1.61-24.147,3.22-27.367,8.049,0,0-24.147,14.488-64.392,0,0,0-37.026-16.1-62.782-1.61,0,0-19.318,20.928-69.222-4.829,0,0-12.879-8.049-35.416,8.049,0,0-22.537,19.318-66-8.049,0,0-24.147-6.439-51.514,6.439C379.028,684.147,324.294,692.2,276,660Z" transform="translate(-276 -571.461)"/><path class="al" d="M582.407,634.075s27.206,15.026,15.19,36.5C597.6,670.576,578.133,666.564,582.407,634.075Z" transform="translate(-89.525 -587.27)"/><path class="am" d="M614.007,623s14.488,46.684-22.537,57.953C591.47,680.953,573.762,655.2,614.007,623Z" transform="translate(-85.991 -594.023)"/><path class="am" d="M334.352,621.92s-41.564,22.958-23.207,55.765C311.145,677.685,340.883,671.557,334.352,621.92Z" transform="translate(-257.422 -594.682)"/><path class="al" d="M292.061,605s-22.135,71.324,34.43,88.539C326.492,693.539,353.546,654.189,292.061,605Z" transform="translate(-268.808 -605)"/></g></g></svg>