<svg xmlns="http://www.w3.org/2000/svg" xmlns:xlink="http://www.w3.org/1999/xlink" width="537.675" height="417.399" viewBox="0 0 537.675 417.399"><defs><style>.a{fill:none;}.b{fill:#1162fb;}.c{fill:#fff;}.d{fill:#3d2768;}.e{fill:rgba(15,0,0,0.1);}.f{fill:#c4e4f9;}.g{fill:#0f62fe;}.h{fill:#647ddd;opacity:0.17;}.i{fill:#bddcff;}.j{fill:#8dc0ef;}.k{fill:#e2e8f2;}.l{fill:#1f3598;}.m{isolation:isolate;}.n{clip-path:url(#a);}.o{fill:#213b4f;}.p{fill:#4568c7;}.q{fill:#d5e8fa;}.r{fill:#eff6fc;}.s{fill:#75a3ec;}.t{fill:#f2f4f9;}.u{fill:#484255;}.v{fill:#577de8;}.w{fill:#f2f4fa;}.x{fill:#3772ce;}.y{fill:#ff8358;}.z{fill:#fd8358;}.aa{fill:#ced6e9;}.ab{fill:#a0d2fe;}.ac{opacity:0.34;}.ad{fill:#c1d7ea;}</style><clipPath id="a"><path class="a" d="M-658.633,952.816l.1-35.2L-627.9,935.3l-.1,35.2Z" transform="translate(658.633 -917.616)"/></clipPath></defs><g transform="translate(-406 -9391)"><g transform="translate(-1353 -523)"><g transform="translate(849 3349)"><circle class="b" cx="130" cy="130" r="130" transform="translate(925 6565)"/></g><g transform="translate(-1430.596 11240.27)"><path class="c" d="M3303.222-964.882a6.524,6.524,0,0,1-6.441-6.434v-44.7a1.183,1.183,0,0,1,1.184-1.18,1.183,1.183,0,0,1,1.184,1.18v44.7a4.18,4.18,0,0,0,4.073,4.073h3.568a4.182,4.182,0,0,0,4.077-4.073v-33.244a1.183,1.183,0,0,1,1.184-1.18,1.183,1.183,0,0,1,1.184,1.18v33.244a6.526,6.526,0,0,1-6.444,6.434Z" transform="translate(-30.788 -184.701)"/><path class="c" d="M3352.291-955.08a6.523,6.523,0,0,1-6.44-6.434,1.183,1.183,0,0,1,1.184-1.18,1.183,1.183,0,0,1,1.184,1.18,4.18,4.18,0,0,0,4.073,4.073h3.569a4.084,4.084,0,0,0,4.077-4.073v-40.756a1.183,1.183,0,0,1,1.184-1.181,1.184,1.184,0,0,1,1.184,1.181v40.756a6.446,6.446,0,0,1-6.444,6.434Z" transform="translate(-65.771 -194.503)"/><path class="c" d="M3402.3-1059.265a7.389,7.389,0,0,1-7.382-7.379v-25.17a1.183,1.183,0,0,1,1.184-1.18,1.183,1.183,0,0,1,1.184,1.18v25.17a5.083,5.083,0,0,0,5.015,5.018,5.082,5.082,0,0,0,5.011-5.018v-25.92a1.183,1.183,0,0,1,1.184-1.18,1.183,1.183,0,0,1,1.184,1.18v25.92A7.387,7.387,0,0,1,3402.3-1059.265Z" transform="translate(-100.754 -130.13)"/><path class="c" d="M3348.791-1132.424a1.183,1.183,0,0,1-1.184-1.18,15.18,15.18,0,0,0-15.342-15.345h-19.909a1.183,1.183,0,0,1-1.184-1.18,1.183,1.183,0,0,1,1.184-1.18h19.909a17.727,17.727,0,0,1,17.709,17.706A1.183,1.183,0,0,1,3348.791-1132.424Z" transform="translate(-41.049 -89.089)"/><path class="c" d="M3319.05-1248c-6.706,0-12.452-8.7-12.452-15.829a12.463,12.463,0,0,1,12.452-12.445,12.463,12.463,0,0,1,12.452,12.445C3331.5-1256.7,3325.755-1248,3319.05-1248Zm0-25.913a10.1,10.1,0,0,0-10.084,10.084c0,5.318,4.518,13.468,10.084,13.468s10.084-8.15,10.084-13.468A10.1,10.1,0,0,0,3319.05-1273.909Z" transform="translate(-37.787)"/><path class="c" d="M3260.978-1059.265a7.389,7.389,0,0,1-7.382-7.379v-25.92a1.183,1.183,0,0,1,1.184-1.18,1.184,1.184,0,0,1,1.184,1.18v25.92a5.083,5.083,0,0,0,5.015,5.018,5.083,5.083,0,0,0,5.015-5.018v-25.17a1.183,1.183,0,0,1,1.184-1.18,1.183,1.183,0,0,1,1.184,1.18v25.17A7.389,7.389,0,0,1,3260.978-1059.265Z" transform="translate(0 -130.13)"/><path class="c" d="M3254.78-1132.424a1.183,1.183,0,0,1-1.184-1.18,17.728,17.728,0,0,1,17.712-17.706,1.183,1.183,0,0,1,1.184,1.18,1.183,1.183,0,0,1-1.184,1.18,15.362,15.362,0,0,0-15.344,15.345A1.184,1.184,0,0,1,3254.78-1132.424Z" transform="translate(0 -89.089)"/><path class="c" d="M3672.875-843.844a6.446,6.446,0,0,1-6.444-6.434v-44.7a1.183,1.183,0,0,1,1.184-1.18,1.183,1.183,0,0,1,1.184,1.18v44.7a4.084,4.084,0,0,0,4.076,4.073h3.381a4.227,4.227,0,0,0,4.261-4.073v-33.244a1.183,1.183,0,0,1,1.184-1.18,1.183,1.183,0,0,1,1.184,1.18v33.244a6.541,6.541,0,0,1-6.628,6.434Z" transform="translate(-294.325 -270.993)"/><path class="c" d="M3721.943-834.508a6.446,6.446,0,0,1-6.444-6.434,1.183,1.183,0,0,1,1.184-1.181,1.183,1.183,0,0,1,1.184,1.181,4.084,4.084,0,0,0,4.077,4.073h3.569a4.18,4.18,0,0,0,4.073-4.073v-40.944a1.184,1.184,0,0,1,1.184-1.18,1.183,1.183,0,0,1,1.184,1.18v40.944a6.524,6.524,0,0,1-6.441,6.434Z" transform="translate(-329.308 -280.329)"/><path class="c" d="M3771.949-938.415a7.3,7.3,0,0,1-7.382-7.379v-24.982a1.184,1.184,0,0,1,1.184-1.18,1.183,1.183,0,0,1,1.184,1.18v24.982a4.963,4.963,0,0,0,5.015,5.018,4.963,4.963,0,0,0,5.015-5.018v-25.732a1.183,1.183,0,0,1,1.184-1.18,1.184,1.184,0,0,1,1.184,1.18v25.732A7.3,7.3,0,0,1,3771.949-938.415Z" transform="translate(-364.29 -216.421)"/><path class="c" d="M3718.443-1011.852a1.184,1.184,0,0,1-1.184-1.181,15.457,15.457,0,0,0-15.344-15.532h-19.909a1.183,1.183,0,0,1-1.183-1.18,1.183,1.183,0,0,1,1.183-1.18h19.909a17.823,17.823,0,0,1,17.712,17.893A1.184,1.184,0,0,1,3718.443-1011.852Z" transform="translate(-304.586 -174.915)"/><path class="c" d="M3688.7-1127.146c-6.706,0-12.452-8.6-12.452-15.641a12.462,12.462,0,0,1,12.452-12.445,12.369,12.369,0,0,1,12.264,12.445C3700.962-1135.7,3695.491-1127.146,3688.7-1127.146Zm0-25.726a10.1,10.1,0,0,0-10.084,10.084c0,5.854,4.748,13.281,10.084,13.281,5.237,0,9.9-7.427,9.9-13.281A10,10,0,0,0,3688.7-1152.871Z" transform="translate(-301.323 -86.292)"/><path class="c" d="M3630.635-938.415a7.137,7.137,0,0,1-7.379-7.379v-25.732a1.183,1.183,0,0,1,1.183-1.18,1.183,1.183,0,0,1,1.184,1.18v25.732a4.851,4.851,0,0,0,5.012,5.018,4.963,4.963,0,0,0,5.015-5.018v-24.982a1.183,1.183,0,0,1,1.184-1.18,1.184,1.184,0,0,1,1.184,1.18v24.982A7.3,7.3,0,0,1,3630.635-938.415Z" transform="translate(-263.544 -216.421)"/><path class="c" d="M3624.439-1011.852a1.183,1.183,0,0,1-1.183-1.181,17.822,17.822,0,0,1,17.708-17.893,1.183,1.183,0,0,1,1.184,1.18,1.183,1.183,0,0,1-1.184,1.18,15.455,15.455,0,0,0-15.342,15.532A1.184,1.184,0,0,1,3624.439-1011.852Z" transform="translate(-263.544 -174.915)"/><path class="c" d="M3520.144-1070a1.2,1.2,0,0,1-.6-.165l-23.285-13.52a1.188,1.188,0,0,1-.426-1.621,1.207,1.207,0,0,1,1.037-.582,1.167,1.167,0,0,1,.589.157l23.282,13.518a1.187,1.187,0,0,1,.426,1.621A1.193,1.193,0,0,1,3520.144-1070Z" transform="translate(-172.587 -135.728)"/><path class="c" d="M3547.227-1034.188a1.182,1.182,0,0,1-1.142-.9,1.176,1.176,0,0,1,.128-.9,1.166,1.166,0,0,1,.719-.538l8.833-2.259a1.191,1.191,0,0,1,.309-.043,1.182,1.182,0,0,1,1.133.9,1.175,1.175,0,0,1-.13.9,1.165,1.165,0,0,1-.719.538l-8.833,2.259A1.121,1.121,0,0,1,3547.227-1034.188Z" transform="translate(-208.499 -169.285)"/><path class="c" d="M3572.384-1058.807a1.18,1.18,0,0,1-1.144-.9l-2.255-9.013a1.182,1.182,0,0,1,.132-.9,1.173,1.173,0,0,1,.725-.538,1.239,1.239,0,0,1,.272-.03,1.188,1.188,0,0,1,1.163.891l2.255,9.013a1.181,1.181,0,0,1-.132.9,1.171,1.171,0,0,1-.725.538A1.221,1.221,0,0,1,3572.384-1058.807Z" transform="translate(-224.827 -146.925)"/><path class="c" d="M3520.144-943.715a1.2,1.2,0,0,1-.6-.165l-23.285-13.52a1.188,1.188,0,0,1-.426-1.621,1.208,1.208,0,0,1,1.037-.582,1.167,1.167,0,0,1,.589.157l23.282,13.518a1.187,1.187,0,0,1,.426,1.621A1.193,1.193,0,0,1,3520.144-943.715Z" transform="translate(-172.587 -225.764)"/><path class="c" d="M3496.854-963.345a1.184,1.184,0,0,1-1.137-.877,1.176,1.176,0,0,1,.115-.9,1.17,1.17,0,0,1,.715-.551l9.052-2.456a1.045,1.045,0,0,1,.291-.042,1.194,1.194,0,0,1,1.125.882,1.173,1.173,0,0,1-.115.9,1.17,1.17,0,0,1-.715.551l-9.018,2.446A1.156,1.156,0,0,1,3496.854-963.345Z" transform="translate(-172.587 -219.657)"/><path class="c" d="M3499.107-948.244a1.18,1.18,0,0,1-1.144-.9l-2.254-9.013a1.179,1.179,0,0,1,.132-.9,1.173,1.173,0,0,1,.725-.538,1.225,1.225,0,0,1,.293-.036,1.179,1.179,0,0,1,1.143.9l2.255,9.013a1.18,1.18,0,0,1-.132.9,1.172,1.172,0,0,1-.725.538A1.223,1.223,0,0,1,3499.107-948.244Z" transform="translate(-172.585 -225.745)"/></g></g><path class="d" d="M3048,672.045a3.255,3.255,0,0,0-.632.124c.25-4.52.8-8.2,1.608-8.446,0,0-.174,3.59-.1,8.351a1.151,1.151,0,0,0-.174-.025c-.121-.012-.241-.021-.361-.021A2.867,2.867,0,0,0,3048,672.045Z" transform="translate(-2547.727 9019.574)"/><g transform="translate(406 9687.484)"><path class="e" d="M276,660H813.675s-11.269,20.927-37.026,17.708a149.484,149.484,0,0,1-20.927-1.61c-9.659-1.61-24.147,3.22-27.367,8.049,0,0-24.147,14.488-64.392,0,0,0-37.026-16.1-62.782-1.61,0,0-19.318,20.928-69.222-4.829,0,0-12.879-8.049-35.416,8.049,0,0-22.537,19.318-66-8.049,0,0-24.147-6.439-51.514,6.439C379.028,684.147,324.294,692.2,276,660Z" transform="translate(-276 -571.461)"/><path class="f" d="M582.407,634.075s27.206,15.026,15.19,36.5C597.6,670.576,578.133,666.564,582.407,634.075Z" transform="translate(-89.525 -587.27)"/><path class="g" d="M614.007,623s14.488,46.684-22.537,57.953C591.47,680.953,573.762,655.2,614.007,623Z" transform="translate(-85.991 -594.023)"/><path class="g" d="M334.352,621.92s-41.564,22.958-23.207,55.765C311.145,677.685,340.883,671.557,334.352,621.92Z" transform="translate(-257.422 -594.682)"/><path class="f" d="M292.061,605s-22.135,71.324,34.43,88.539C326.492,693.539,353.546,654.189,292.061,605Z" transform="translate(-268.808 -605)"/></g><g transform="translate(20)"><path class="h" d="M2082.343,1008.589c-14.278,0-25.894,7.664-25.894,17.085s11.616,17.085,25.894,17.085,25.893-7.664,25.893-17.085S2096.62,1008.589,2082.343,1008.589Z" transform="translate(-1207.594 8648.883)"/><path class="i" d="M2102.192,998.561l-6,30.1H2056.41l-6-30.1Z" transform="translate(-1197.708 8638.457)"/><path class="i" d="M2096.515,1029.69c0,5.088-7.708,10.748-18.906,11.063-.323.007-.653.015-.983.015-11.723,0-19.889-5.84-19.889-11.078s8.166-11.086,19.889-11.086a31.763,31.763,0,0,1,8.278,1.058C2092.019,1021.576,2096.515,1025.8,2096.515,1029.69Z" transform="translate(-1198.034 8637.424)"/><path class="j" d="M2103.653,998.561l-6,30.1c0,5.089-7.708,10.748-18.906,11.063a19.463,19.463,0,0,0,3.5-4.653,27.867,27.867,0,0,0,2.424-6.41,53.025,53.025,0,0,0,1.374-10.027c.1-1.718.157-3.437.2-5.141q.214-7.465.435-14.928Z" transform="translate(-1199.168 8638.457)"/><ellipse class="k" cx="25.893" cy="17.085" rx="25.893" ry="17.085" transform="translate(852.698 9619.93)"/><ellipse class="l" cx="19.889" cy="11.081" rx="19.889" ry="11.081" transform="translate(858.702 9625.934)"/><circle class="j" cx="17.859" cy="17.859" r="17.859" transform="translate(858.103 9566.891) rotate(-80.783)"/><circle class="j" cx="12.663" cy="12.663" r="12.663" transform="translate(862.047 9571.527) rotate(-22.5)"/><ellipse class="j" cx="13.784" cy="13.784" rx="13.784" ry="13.784" transform="translate(860.582 9617.801) rotate(-67.5)"/><path class="j" d="M2082.4,1000.239a4.959,4.959,0,1,1-4.958-4.958A4.959,4.959,0,0,1,2082.4,1000.239Z" transform="translate(-1198.845 8638.625)"/><path class="j" d="M2091,920.662c-3.962,5.058-3.837,6.494-2.221,10.754H2065.1c1.616-4.26,1.741-5.7-2.22-10.754Z" transform="translate(-1198.351 8642.473)"/><path class="j" d="M2089.222,922.824c-13.063,12.178-11.5,25.676-2.1,35.758h-20.164c9.4-10.082,10.966-23.58-2.1-35.758Z" transform="translate(-1198.453 8642.361)"/><path class="j" d="M2088.723,923.322c-13.534,11.651-11.128,66.215-7.893,69.973h-7.517c3.237-3.758,5.642-58.323-7.893-69.973Z" transform="translate(-1198.481 8642.336)"/><path class="j" d="M2086.295,946.01c-4.409,4.567-4.506,8.451.465,13.25h-19.148c4.972-4.8,4.874-8.683.465-13.25Z" transform="translate(-1198.595 8641.166)"/><path class="j" d="M2085.616,946.76c-9.507,8.364-7.917,43.98-4.642,47.7h-7.446c3.275-3.724,4.866-39.339-4.641-47.7Z" transform="translate(-1198.66 8641.127)"/><path class="j" d="M2085.366,982.2c-8.94,6.492-6.423,11.24-4.088,14.456h-8.025c2.336-3.216,4.852-7.964-4.087-14.456Z" transform="translate(-1198.675 8639.301)"/></g><g transform="translate(1284.633 8618.385)"><g class="m" transform="translate(-658.633 917.616)"><g class="n" transform="translate(0 0)"><g transform="translate(0.002 8.395)"><path class="o" d="M-653.573,1254.39l-4.416-2.55c-.326-.188-.592-.037-.593.338l-.026,9.069a1.3,1.3,0,0,0,.589,1.021l7.858,4.537c.327.189.592.037.593-.338l.014-5.074a1.3,1.3,0,0,0-.589-1.021c-.326-.188-.592-.037-.593.338l-.012,4.395-6.676-3.854.022-7.711,3.825,2.208c.326.188.592.037.593-.337a1.3,1.3,0,0,0-.589-1.021" transform="translate(658.608 -1235.122)"/><path class="o" d="M-624.242,1317.13a.385.385,0,0,0-.476,0l-2.4,2.327-.953-2.162a1.263,1.263,0,0,0-.487-.578.487.487,0,0,0-.334-.074c-.27.056-.34.439-.157.855l1.419,3.22a1.287,1.287,0,0,0,.476.572l.011.007a.385.385,0,0,0,.476,0l2.9-2.809c.2-.189.142-.646-.12-1.021a1.134,1.134,0,0,0-.351-.337" transform="translate(631.359 -1295.14)"/><path class="o" d="M-365.8,1420.531l-4.415-2.549c-.327-.189-.592-.037-.593.338l-.026,9.069a1.3,1.3,0,0,0,.589,1.021l7.893,4.557c.327.189.592.037.593-.338l.014-5.074a1.3,1.3,0,0,0-.589-1.021c-.326-.188-.592-.037-.593.338l-.012,4.395-6.71-3.874.022-7.711,3.824,2.208c.327.189.592.037.593-.337a1.3,1.3,0,0,0-.589-1.021" transform="translate(392.396 -1388.817)"/><path class="o" d="M-336.053,1483.519a.385.385,0,0,0-.478,0l-2.369,2.339-.95-2.156a1.26,1.26,0,0,0-.487-.577.491.491,0,0,0-.335-.075c-.27.056-.34.439-.157.855l1.419,3.22a1.282,1.282,0,0,0,.478.573l.01.005a.384.384,0,0,0,.478,0l2.864-2.829c.194-.191.138-.649-.125-1.023a1.131,1.131,0,0,0-.348-.332" transform="translate(364.728 -1449.081)"/><path class="o" d="M-509.688,1337.462l-4.416-2.549c-.326-.188-.592-.037-.593.338l-.026,9.069a1.3,1.3,0,0,0,.589,1.021l7.893,4.557c.326.188.592.037.593-.338l.014-5.074a1.3,1.3,0,0,0-.589-1.02c-.327-.188-.592-.037-.593.338l-.012,4.395-6.711-3.874.022-7.711,3.824,2.208c.327.189.592.037.593-.338a1.3,1.3,0,0,0-.589-1.021" transform="translate(525.502 -1311.97)"/><path class="o" d="M-480.365,1400.2a.384.384,0,0,0-.478,0l-2.374,2.345-.983-2.191a1.264,1.264,0,0,0-.484-.57.475.475,0,0,0-.338-.072c-.268.06-.334.446-.148.862l1.454,3.241a1.27,1.27,0,0,0,.477.566l.006,0a.384.384,0,0,0,.478,0l2.864-2.829c.194-.192.138-.649-.125-1.023a1.137,1.137,0,0,0-.348-.333" transform="translate(498.261 -1371.982)"/><path class="o" d="M-581.094,1238.886l-3.72-2.148,0,.679c0,.375-.267.526-.593.338a1.3,1.3,0,0,1-.589-1.021l0-.679-1.773-1.024,0,.679c0,.375-.267.526-.593.338a1.3,1.3,0,0,1-.589-1.021l0-.679-5.493-3.172,0,.679c0,.375-.267.526-.593.338a1.3,1.3,0,0,1-.589-1.021v-.68l-1.739-1,0,.679c0,.375-.267.526-.593.338a1.3,1.3,0,0,1-.589-1.021l0-.679-3.72-2.148c-.327-.188-.592-.037-.593.338a1.3,1.3,0,0,0,.589,1.021l21.175,12.225c.326.188.592.037.593-.338a1.3,1.3,0,0,0-.589-1.021" transform="translate(607.038 -1211.829)"/><path class="o" d="M-413.06,1255.842c0,.375-.267.526-.593.338a1.3,1.3,0,0,1-.589-1.021l-.016,5.554,0,.679a1.3,1.3,0,0,0,.589,1.021c.326.188.592.037.593-.338l0-.679.016-5.554m-3.546-2.527c-.326-.188-.592-.037-.593.338l-.015,5.354,0,.679a1.3,1.3,0,0,0,.589,1.021c.326.189.592.037.593-.338l0-.679.015-5.354a1.3,1.3,0,0,0-.589-1.021" transform="translate(435.3 -1236.485)"/><path class="o" d="M-479.9,1150.4l-4.695-2.711a1.3,1.3,0,0,1,.589,1.021c0,.375-.267.527-.593.338l4.695,2.71a7.344,7.344,0,0,1,3.327,5.763,1.3,1.3,0,0,0,.589,1.021c.326.188.592.037.593-.338a9.945,9.945,0,0,0-4.506-7.8" transform="translate(497.637 -1138.852)"/><path class="o" d="M-493.16,1037.146c-1.037-.6-2.046-3.06-2.042-4.461,0-1.344.907-1.877,2.058-1.213a4.521,4.521,0,0,1,2.08,3.6c0,1.431-1.021,2.693-2.1,2.072m.02-7.032c-1.783-1.029-3.238-.182-3.244,1.889-.006,2.1,1.429,5.468,3.22,6.5,1.811,1.046,3.276-.648,3.282-2.748a7.084,7.084,0,0,0-3.258-5.643" transform="translate(508.537 -1029.676)"/><path class="o" d="M-544.118,1182.879c0,.375-.267.526-.593.338a1.3,1.3,0,0,1-.589-1.021l-.016,5.554,0,.679a1.3,1.3,0,0,0,.589,1.021c.326.188.592.037.593-.338l0-.679.016-5.554m2.331.866c-.326-.188-.592-.037-.593.338l-.015,5.354v.679a1.3,1.3,0,0,0,.589,1.021c.326.188.592.037.593-.338l0-.679.015-5.354a1.3,1.3,0,0,0-.589-1.021" transform="translate(553.805 -1170.77)"/><path class="o" d="M-540.547,1140.062c-2.492-1.439-4.527-.279-4.535,2.585a1.3,1.3,0,0,0,.589,1.021c.326.188.592.037.593-.338.006-2.115,1.508-2.971,3.349-1.909.327.189.592.037.593-.338a1.3,1.3,0,0,0-.589-1.021" transform="translate(553.587 -1131.221)"/></g></g></g></g><g transform="translate(1092 -2712)"><path class="p" d="M1873.809,955.985a6.961,6.961,0,0,1,3.149-5.454c1.74-1,3.149-.191,3.15,1.818a6.96,6.96,0,0,1-3.15,5.455C1875.219,958.807,1873.809,957.993,1873.809,955.985Z" transform="translate(-2359.224 11514.641)"/><path class="p" d="M1873.809,955.985a6.961,6.961,0,0,1,3.149-5.454c1.74-1,3.149-.191,3.15,1.818a6.96,6.96,0,0,1-3.15,5.455C1875.219,958.807,1873.809,957.993,1873.809,955.985Z" transform="translate(-2359.224 11514.641)"/><path class="p" d="M1879.4,950.414l2.714,1.415-4.261,7.766-3.178-1.653.805-4.373Z" transform="translate(-2359.349 11514.596)"/><path class="j" d="M1876.937,957.607a6.961,6.961,0,0,1,3.15-5.455c1.739-1,3.149-.19,3.149,1.819a6.963,6.963,0,0,1-3.149,5.455C1878.347,960.43,1876.937,959.616,1876.937,957.607Z" transform="translate(-2359.675 11514.406)"/><path class="k" d="M1876.937,957.607a6.961,6.961,0,0,1,3.15-5.455c1.739-1,3.149-.19,3.149,1.819a6.963,6.963,0,0,1-3.149,5.455C1878.347,960.43,1876.937,959.616,1876.937,957.607Z" transform="translate(-2359.675 11514.406)"/><path class="p" d="M1915.986,957.077a6.96,6.96,0,0,1,3.149-5.454c1.739-1,3.149-.191,3.149,1.818a6.961,6.961,0,0,1-3.149,5.455C1917.4,959.9,1915.986,959.085,1915.986,957.077Z" transform="translate(-2365.306 11514.482)"/><path class="p" d="M1915.986,957.077a6.96,6.96,0,0,1,3.149-5.454c1.739-1,3.149-.191,3.149,1.818a6.961,6.961,0,0,1-3.149,5.455C1917.4,959.9,1915.986,959.085,1915.986,957.077Z" transform="translate(-2365.306 11514.482)"/><path class="p" d="M1921.572,951.506l2.714,1.415-4.26,7.765-3.178-1.653.805-4.373Z" transform="translate(-2365.43 11514.438)"/><path class="j" d="M1919.113,958.7a6.962,6.962,0,0,1,3.15-5.455c1.74-1,3.149-.19,3.149,1.818a6.96,6.96,0,0,1-3.149,5.455C1920.523,961.522,1919.113,960.708,1919.113,958.7Z" transform="translate(-2365.756 11514.248)"/><path class="k" d="M1919.113,958.7a6.962,6.962,0,0,1,3.15-5.455c1.74-1,3.149-.19,3.149,1.818a6.96,6.96,0,0,1-3.149,5.455C1920.523,961.522,1919.113,960.708,1919.113,958.7Z" transform="translate(-2365.756 11514.248)"/><g transform="translate(-514.621 12217.02)"><path class="j" d="M2038.979,945.4a4.7,4.7,0,0,1-4.255,0,1.3,1.3,0,0,1,0-2.457,4.7,4.7,0,0,1,4.255,0A1.3,1.3,0,0,1,2038.979,945.4Z" transform="translate(-1867.679 -701.275)"/><path class="h" d="M1916.671,928.3c-11.946-6.9-31.311-6.9-43.255,0s-11.945,18.077,0,24.973,31.309,6.9,43.255,0S1928.615,935.194,1916.671,928.3Z" transform="translate(-1843.256 -698.49)"/><path class="j" d="M2152.674,878.927a4.7,4.7,0,0,1-4.255,0,1.3,1.3,0,0,1,0-2.457,4.708,4.708,0,0,1,4.255,0A1.3,1.3,0,0,1,2152.674,878.927Z" transform="translate(-1884.072 -691.69)"/><path class="j" d="M2153.556,811.946v55.931a.626.626,0,0,1-.046.218.493.493,0,0,1-.436.263h-5.057a.493.493,0,0,1-.435-.263.625.625,0,0,1-.045-.218V811.946a.484.484,0,0,1,.481-.481h5.057A.485.485,0,0,1,2153.556,811.946Z" transform="translate(-1884.072 -682.389)"/><path class="j" d="M2153.556,826.437a.425.425,0,0,1-.055.209.986.986,0,0,1,.055.318,1.481,1.481,0,0,1-.881,1.226,4.694,4.694,0,0,1-4.259,0,1.479,1.479,0,0,1-.881-1.226.978.978,0,0,1,.054-.318.422.422,0,0,1-.054-.209v-9.579a.484.484,0,0,1,.481-.481h5.057a.485.485,0,0,1,.482.481Z" transform="translate(-1884.072 -683.098)"/><path class="q" d="M2158.657,813.123V802.411l-19.8,12.728,1.323,3.524Z" transform="translate(-1882.822 -681.083)"/><path class="p" d="M1918.062,931.25a6.964,6.964,0,0,1,3.149-5.455c1.739-1,3.15-.19,3.15,1.819a6.958,6.958,0,0,1-3.15,5.455C1919.473,934.073,1918.062,933.259,1918.062,931.25Z" transform="translate(-1850.984 -698.812)"/><path class="p" d="M1918.062,931.25a6.964,6.964,0,0,1,3.149-5.455c1.739-1,3.15-.19,3.15,1.819a6.958,6.958,0,0,1-3.15,5.455C1919.473,934.073,1918.062,933.259,1918.062,931.25Z" transform="translate(-1850.984 -698.812)"/><path class="p" d="M1923.648,925.68l2.714,1.414-4.26,7.766-3.178-1.653.805-4.374Z" transform="translate(-1851.108 -698.859)"/><path class="j" d="M1921.19,932.873a6.96,6.96,0,0,1,3.15-5.455c1.739-1,3.149-.19,3.149,1.819a6.964,6.964,0,0,1-3.149,5.455C1922.6,935.7,1921.19,934.882,1921.19,932.873Z" transform="translate(-1851.435 -699.047)"/><path class="k" d="M1921.19,932.873a6.96,6.96,0,0,1,3.15-5.455c1.739-1,3.149-.19,3.149,1.819a6.964,6.964,0,0,1-3.149,5.455C1922.6,935.7,1921.19,934.882,1921.19,932.873Z" transform="translate(-1851.435 -699.047)"/><path class="p" d="M1873.025,932.169a6.964,6.964,0,0,1,3.15-5.455c1.739-1,3.149-.19,3.149,1.819a6.959,6.959,0,0,1-3.149,5.455C1874.436,934.991,1873.025,934.177,1873.025,932.169Z" transform="translate(-1844.49 -698.946)"/><path class="p" d="M1873.025,932.169a6.964,6.964,0,0,1,3.15-5.455c1.739-1,3.149-.19,3.149,1.819a6.959,6.959,0,0,1-3.149,5.455C1874.436,934.991,1873.025,934.177,1873.025,932.169Z" transform="translate(-1844.49 -698.946)"/><path class="p" d="M1878.611,926.6l2.714,1.414-4.261,7.766-3.178-1.653.806-4.374Z" transform="translate(-1844.614 -698.991)"/><path class="j" d="M1876.153,933.792a6.96,6.96,0,0,1,3.149-5.455c1.739-1,3.149-.19,3.149,1.818a6.961,6.961,0,0,1-3.149,5.454C1877.563,936.614,1876.153,935.8,1876.153,933.792Z" transform="translate(-1844.942 -699.179)"/><path class="k" d="M1876.153,933.792a6.96,6.96,0,0,1,3.149-5.455c1.739-1,3.149-.19,3.149,1.818a6.961,6.961,0,0,1-3.149,5.454C1877.563,936.614,1876.153,935.8,1876.153,933.792Z" transform="translate(-1844.942 -699.179)"/><path class="r" d="M1918.413,944.2l-13.936-8.046,13.936-8.046c2.288-1.321,2.288-3.481,0-4.8h0a9.229,9.229,0,0,0-8.318,0l-13.936,8.046-13.936-8.046a9.229,9.229,0,0,0-8.318,0c-2.287,1.321-2.287,3.482,0,4.8l13.936,8.046L1873.9,944.2c-2.287,1.32-2.287,3.482,0,4.8h0a9.229,9.229,0,0,0,8.318,0l13.936-8.046,13.936,8.046a9.229,9.229,0,0,0,8.318,0C1920.7,947.687,1920.7,945.525,1918.413,944.2Z" transform="translate(-1844.37 -698.374)"/><path class="r" d="M1918.413,944.2l-13.936-8.046,13.936-8.046c2.288-1.321,2.288-3.481,0-4.8h0a9.229,9.229,0,0,0-8.318,0l-13.936,8.046-13.936-8.046a9.229,9.229,0,0,0-8.318,0c-2.287,1.321-2.287,3.482,0,4.8l13.936,8.046L1873.9,944.2c-2.287,1.32-2.287,3.482,0,4.8h0a9.229,9.229,0,0,0,8.318,0l13.936-8.046,13.936,8.046a9.229,9.229,0,0,0,8.318,0C1920.7,947.687,1920.7,945.525,1918.413,944.2Z" transform="translate(-1844.37 -698.374)"/><path class="j" d="M1892,937.046c0,2.6,3.141,4.714,7.018,4.714s7.019-2.11,7.019-4.714-3.143-6.917-7.019-6.917S1892,934.443,1892,937.046Z" transform="translate(-1847.227 -699.5)"/><path class="r" d="M1894.18,933.587c0,1.91,2.306,3.459,5.15,3.459s5.148-1.549,5.148-3.459-2.3-3.458-5.148-3.458S1894.18,931.678,1894.18,933.587Z" transform="translate(-1847.54 -699.5)"/><path class="l" d="M2111.14,803.31c-4.694-5.438-9.979,2.279-12.475,5.478-1.7,2.175-7.6,7.945-6.95,10.974.227,1.062.355,1.012,1.4,1.294a6.567,6.567,0,0,0,3.22-.12,18.346,18.346,0,0,0,12.438-9.255c.1,1.331.128,2.663.112,4a.383.383,0,0,0,.594.312q.775-.506,1.522-1.053c1.857-1.372,1.038-3.316,1.54-5.528A6.932,6.932,0,0,0,2111.14,803.31Z" transform="translate(-1876.017 -680.941)"/><path class="h" d="M2108.013,858.692l-159.055-90.458-98.37,59.06a1.769,1.769,0,0,0,.041,3.058l154.621,87.173a10.341,10.341,0,0,0,10.472-.1l92.325-55.4A1.929,1.929,0,0,0,2108.013,858.692Z" transform="translate(-1841.132 -676.155)"/><path class="j" d="M2039.86,878.423v55.93a.623.623,0,0,1-.045.218.494.494,0,0,1-.436.264h-5.058a.5.5,0,0,1-.436-.264.623.623,0,0,1-.045-.218v-55.93a.485.485,0,0,1,.481-.482h5.058A.485.485,0,0,1,2039.86,878.423Z" transform="translate(-1867.678 -691.975)"/><path class="j" d="M2039.86,888a.432.432,0,0,1-.054.209.99.99,0,0,1,.054.318,1.479,1.479,0,0,1-.881,1.226,4.691,4.691,0,0,1-4.258,0,1.481,1.481,0,0,1-.881-1.226.954.954,0,0,1,.055-.318.418.418,0,0,1-.055-.209v-9.579a.485.485,0,0,1,.481-.482h5.058a.485.485,0,0,1,.481.482Z" transform="translate(-1867.678 -691.975)"/><path class="j" d="M1851.794,841.574a4.7,4.7,0,0,1-4.255,0,1.3,1.3,0,0,1,0-2.457,4.7,4.7,0,0,1,4.255,0A1.3,1.3,0,0,1,1851.794,841.574Z" transform="translate(-1840.689 -686.304)"/><path class="j" d="M1852.675,774.593v55.931a.623.623,0,0,1-.045.217.492.492,0,0,1-.435.264h-5.058a.5.5,0,0,1-.436-.264.633.633,0,0,1-.045-.217V774.593a.485.485,0,0,1,.481-.482h5.058A.484.484,0,0,1,1852.675,774.593Z" transform="translate(-1840.689 -677.004)"/><path class="j" d="M1852.675,784.172a.43.43,0,0,1-.054.209.989.989,0,0,1,.054.318,1.479,1.479,0,0,1-.88,1.225,4.692,4.692,0,0,1-4.259,0,1.481,1.481,0,0,1-.88-1.225.965.965,0,0,1,.055-.318.42.42,0,0,1-.055-.209v-9.579a.485.485,0,0,1,.481-.482h5.058a.484.484,0,0,1,.481.482Z" transform="translate(-1840.689 -677.004)"/><path class="q" d="M1843.691,761.735l-.011,12,17.862,6.595-.911-6.536Z" transform="translate(-1840.259 -675.219)"/><path class="q" d="M1846.032,760.147l92.749-54.22a21.012,21.012,0,0,1,21.025-.105l153.108,87.448a5.536,5.536,0,0,1,.022,9.6L2018.682,857.3a21.011,21.011,0,0,1-21.019,0l-151.607-87.584A5.535,5.535,0,0,1,1846.032,760.147Z" transform="translate(-1840.204 -666.758)"/><path class="r" d="M1846.422,748.372l92.749-54.219a21.014,21.014,0,0,1,21.026-.106L2113.3,781.5a5.535,5.535,0,0,1,.023,9.6l-94.256,54.435a21.011,21.011,0,0,1-21.019,0l-151.607-87.584A5.535,5.535,0,0,1,1846.422,748.372Z" transform="translate(-1840.259 -665.061)"/><path class="j" d="M1968.069,816.707l-47.083-27.184c-2.137-1.234-2.137-3.234,0-4.467l18.508-10.687a8.55,8.55,0,0,1,7.738,0l47.083,27.184c2.137,1.234,2.137,3.234,0,4.467l-18.509,10.687A8.548,8.548,0,0,1,1968.069,816.707Z" transform="translate(-1851.175 -676.907)"/><path class="j" d="M1919.384,785.658v4.465l52.555,29.27,23.98-13.845v-3.392Z" transform="translate(-1851.175 -678.668)"/><path class="i" d="M1968.069,812.744l-47.083-27.185c-2.137-1.233-2.137-3.233,0-4.467l18.508-10.687a8.555,8.555,0,0,1,7.738,0l47.083,27.185c2.137,1.233,2.137,3.233,0,4.467l-18.509,10.687A8.553,8.553,0,0,1,1968.069,812.744Z" transform="translate(-1851.175 -676.335)"/><path class="i" d="M1980.348,807.427l-45.619-26.339,4.008-2.314,45.619,26.339Z" transform="translate(-1853.388 -677.675)"/><path class="i" d="M1972.314,812.065,1926.7,785.726l4.008-2.314,45.619,26.339Z" transform="translate(-1852.23 -678.345)"/><path class="k" d="M1935.79,781.176l44.711,25.815,3.1-1.79-44.711-25.815Z" transform="translate(-1853.541 -677.765)"/><path class="k" d="M1927.757,785.815l44.711,25.815,3.1-1.791-44.711-25.814Z" transform="translate(-1852.383 -678.433)"/><path class="k" d="M1943.607,775.909l44.711,25.815,3.1-1.791-44.711-25.814Z" transform="translate(-1854.668 -677.005)"/><path class="s" d="M2039.973,819.739c0,2.994-4.569,5.421-10.2,5.421s-10.2-2.427-10.2-5.421,4.569-5.42,10.2-5.42S2039.973,816.746,2039.973,819.739Z" transform="translate(-1865.619 -682.802)"/><ellipse class="i" cx="10.205" cy="5.42" rx="10.205" ry="5.42" transform="translate(153.943 128.831)"/><path class="l" d="M2037.444,907.011l1.043-.606c.158-.092.157-.241,0-.334l-1.046-.6a.637.637,0,0,0-.577,0l-1.042.606a.177.177,0,0,0,0,.334l1.047.6a.634.634,0,0,0,.577,0Z" transform="translate(-1867.946 -695.933)"/><path class="j" d="M1999.9,749.255s5.158,14.086,0,17.064l-2.494,1.439-.007,0-9.778,5.647c-1.376.8-1.375,2.1,0,2.89l13.735,7.933a5.427,5.427,0,0,0,4.98-.042l6.974-4.124.069.032c.8-.5,1.551-.967,2.225-1.39l.306-.181c.029-.018.048-.039.074-.058,1.414-.887,2.373-1.5,2.373-1.5s4.362-3.195,4.362-14.545Z" transform="translate(-1860.865 -673.42)"/><path class="t" d="M2022.723,759.329c0,11.352-4.363,14.545-4.363,14.545s-.955.6-2.376,1.5a.361.361,0,0,0-.076.063l-.3.176q-1.018.641-2.224,1.4l-.076-.038-.8.478-6.16,3.646a5.425,5.425,0,0,1-4.99.038l-13.728-7.932c-1.383-.792-1.383-2.087,0-2.892l6.172-3.57,3.6-2.074h.013c.893-.515,1.748-1.006,2.49-1.446,5.041-2.9.251-16.368.012-17.034v-.013h.013Z" transform="translate(-1860.865 -672.974)"/><path class="r" d="M2023.938,759.329c0,11.352-4.362,14.545-4.362,14.545s-.956.6-2.376,1.5a.339.339,0,0,0-.075.063l-.3.176q-1.018.641-2.224,1.4l-.076-.038-.8.478-18.706-10.711,3.6-2.074h.013c.893-.515,1.748-1.006,2.49-1.446,5.041-2.9.251-16.368.012-17.034l.013-.013Z" transform="translate(-1862.08 -672.974)"/><path class="c" d="M2053.734,703.224l-72.741-42c-1.807-1.043-3.188-.61-4.767.663l-3.361,1.885,3.615,2.555V723.16a9.975,9.975,0,0,0,4.513,7.817l71.231,41.123v3.232a.581.581,0,0,0,.911.478l3.417-2.355c1.032-.358,1.7-1.439,1.7-3.089V711.051A9.988,9.988,0,0,0,2053.734,703.224Z" transform="translate(-1858.887 -660.643)"/><path class="u" d="M2053.106,714.376v59.315c0,2.885-2.024,4.043-4.513,2.606l-72.742-42a9.97,9.97,0,0,1-4.513-7.817V667.169c0-2.885,2.024-4.053,4.514-2.616l72.74,42A9.991,9.991,0,0,1,2053.106,714.376Z" transform="translate(-1858.666 -661.118)"/><path class="v" d="M1977.728,729.8V672.688l70.827,40.891v57.114Z" transform="translate(-1859.588 -662.38)"/><path class="j" d="M2053.1,770.832V782.3c0,2.885-2.024,4.043-4.513,2.606l-72.742-42a9.97,9.97,0,0,1-4.513-7.817V723.625Z" transform="translate(-1858.666 -669.724)"/><path class="j" d="M2050.521,785.9a4.622,4.622,0,0,1-2.281-.69l-72.741-42a10.415,10.415,0,0,1-4.776-8.273V722.56l82.821,47.815v11.769a3.667,3.667,0,0,1-1.584,3.379A2.846,2.846,0,0,1,2050.521,785.9Zm-78.746-61.512v10.553a9.409,9.409,0,0,0,4.25,7.362l72.742,42a2.242,2.242,0,0,0,3.724-2.15V770.984Z" transform="translate(-1858.578 -669.57)"/><path class="w" d="M2015.47,758.766c0,1.744-1.224,2.451-2.735,1.579a6.046,6.046,0,0,1-2.735-4.737c0-1.744,1.225-2.451,2.735-1.579A6.044,6.044,0,0,1,2015.47,758.766Z" transform="translate(-1864.241 -674.055)"/><path class="j" d="M2010.2,700.806l-19.156-11.059v13.647l19.156,11.059Z" transform="translate(-1861.509 -664.839)"/><path class="j" d="M2037.061,716.313l-19.157-11.06V718.9l19.157,11.06Z" transform="translate(-1865.381 -667.074)"/><path class="j" d="M2010.2,721.92l-19.156-11.059v13.646l19.156,11.059Z" transform="translate(-1861.508 -667.883)"/><path class="j" d="M2037.061,737.427l-19.157-11.06v13.646l19.157,11.06Z" transform="translate(-1865.381 -670.12)"/><path class="x" d="M1928.536,777.368c-.019,0-.037.021-.056.041a1.253,1.253,0,0,1-.019-.265A.325.325,0,0,0,1928.536,777.368Z" transform="translate(-1852.483 -677.442)"/><path class="y" d="M1927.453,774.3a.94.94,0,0,1-.713.058c-.025-.061-.012-.128-.047-.187Z" transform="translate(-1852.228 -677.012)"/><path class="y" d="M1931.476,782.727c.13.009.26.035.39.052l-1.024-.981C1931.06,782.1,1931.267,782.414,1931.476,782.727Z" transform="translate(-1852.828 -678.111)"/><path class="x" d="M1928.161,771.645c-.019,0-.035.023-.052.045a1.285,1.285,0,0,1-.045-.262A.327.327,0,0,0,1928.161,771.645Z" transform="translate(-1852.426 -676.617)"/><path class="y" d="M1926.775,768.7a.935.935,0,0,1-.7.13c-.03-.058-.024-.127-.065-.181Z" transform="translate(-1852.129 -676.217)"/><path class="l" d="M1921.874,746.8l-.476.048Z" transform="translate(-1851.465 -673.066)"/><path class="z" d="M9.132,9.294c-2.55,2.37-6.138,2.653-8.016.633S-.215,4.349,2.334,1.981,8.473-.672,10.35,1.347,11.681,6.925,9.132,9.294Z" transform="matrix(0.985, -0.174, 0.174, 0.985, 104.573, 131.557)"/><path class="z" d="M.445,9.6h0A1.665,1.665,0,0,1,.531,7.249L7.854.445a1.664,1.664,0,0,1,2.352.086h0a1.664,1.664,0,0,1-.087,2.352L2.8,9.687A1.666,1.666,0,0,1,.445,9.6Z" transform="matrix(0.985, -0.174, 0.174, 0.985, 106.361, 124.913)"/><path class="j" d="M1899.667,890.8a3.171,3.171,0,0,0-3.15,3.193v30.732a3.15,3.15,0,1,0,6.3,0V893.992A3.171,3.171,0,0,0,1899.667,890.8Z" transform="translate(-1847.878 -693.829)"/><g transform="translate(32.792 99.234)"><g transform="translate(30.971 80.566)"><g transform="translate(0 31.368)"><path class="x" d="M1300.115,1724.313c-2.669-2.1-8.779,1.557-11.71,2.21-1.894.421-8.8.814-8.265,4.1a11.382,11.382,0,0,0-.344,2.516,9.763,9.763,0,0,0,.3,3.2,8.55,8.55,0,0,0,4.053,2.433,5.2,5.2,0,0,0,.547-.065,12.13,12.13,0,0,0,3.627-1.7c3.615-2.215,9.031-4.161,11.749-7.51C1301.289,1728,1301.627,1725.5,1300.115,1724.313Z" transform="translate(-1279.783 -1723.671)"/></g><g transform="translate(1.23 27.244)"><path class="aa" d="M3.712,0H9.441a3.712,3.712,0,0,1,3.712,3.712v0A3.711,3.711,0,0,1,9.442,7.426H3.714A3.714,3.714,0,0,1,0,3.712v0A3.712,3.712,0,0,1,3.712,0Z" transform="translate(0 13.152) rotate(-89.292)"/></g><g transform="translate(0.12 0)"><path class="x" d="M1280.081,1688.907l-.166,31.7a4.364,4.364,0,0,0,4,3.723l2.173.16a4.365,4.365,0,0,0,4.68-4.562l3.889-31.023Z" transform="translate(-1279.915 -1688.907)"/></g></g><g transform="translate(0.028 60.735)"><g transform="translate(0 0)"><path class="p" d="M1317.927,1677.729a14.326,14.326,0,0,0-13.876-10.8c-.392,0-.782.017-1.182.052l-.616.051-3.294,1.408-18.78,8.06a26.245,26.245,0,0,1-25.946-3.009l-2.86-2.113-5.882-4.345v17.3a10.809,10.809,0,0,0,5.23,9.262l8.784,5.291,10.236,6.16a13.391,13.391,0,0,0,14-.1l31.035-19.358A7.183,7.183,0,0,0,1317.927,1677.729Z" transform="translate(-1245.49 -1666.929)"/></g></g><g transform="translate(5.262 1.146)"><g transform="translate(0 0)"><path class="y" d="M1301.695,1625.567c-2.358,1.756-14.4,10.634-19.89,13.113a23.021,23.021,0,0,1-9.546,2.06,20.119,20.119,0,0,1-6.916-1.227,14.741,14.741,0,0,1-8.719-7.826,12.946,12.946,0,0,1-.817-2.6l-4.435-21.89c-.536-2.637,1.621-5.38,4.808-6.125s6.218.791,6.753,3.435l4.435,21.89c.006.015,0,.028.011.042a5.383,5.383,0,0,0,3.589,3.9,8.326,8.326,0,0,0,6.232-.317c3.03-1.37,11.954-7.608,17.325-11.608,2.56-1.9,6.238-1.843,8.219.135S1304.254,1623.669,1301.695,1625.567Z" transform="translate(-1251.29 -1600.889)"/></g></g><g transform="translate(0 0)"><g transform="translate(0 0)"><path class="ab" d="M1290.364,1668.736a6.709,6.709,0,0,1-4.457,6.526c-1.634.582-4.353,1.511-6.5,2.016a14.265,14.265,0,0,1-1.694.3,28.656,28.656,0,0,1-17.943-4.092l-11.816-6.882a5.052,5.052,0,0,1-2.494-4.475l1.243-49.047a14.262,14.262,0,0,1,7.081-12.3,11.2,11.2,0,0,1,5.526-1.164,24.111,24.111,0,0,1,3.084.208c5.422.651,11.46,2.9,14.571,5.075,3.059,1.937,6.856,3.2,9.306,5.612a8.2,8.2,0,0,1,2.528,5.935C1288.852,1618.178,1290.364,1668.736,1290.364,1668.736Z" transform="translate(-1245.459 -1599.619)"/></g><g class="ac" transform="translate(31.31 14.972)"><path class="ab" d="M1284.323,1618.87a.734.734,0,0,1-.32.35,26.861,26.861,0,0,0-.416,5.027c-.017,3.146.122,6.386-.99,9.332-.678,1.789-1.807,3.414-2.233,5.282-1.025,4.448,2.076,8.706,2.971,13.172.991,4.97-.773,10.017-1.242,15.057a46.125,46.125,0,0,0,.7,11.808c2.147-.5,4.865-1.434,6.5-2.016a6.709,6.709,0,0,0,4.457-6.526s-1.4-46.75-1.552-51.871C1289.9,1615.936,1286.113,1614.861,1284.323,1618.87Z" transform="translate(-1280.158 -1616.212)"/></g></g><g transform="translate(36.447 13.799)"><g transform="translate(0 0)"><path class="y" d="M1329.305,1644.625c-1.729,2.163-10.569,13.1-14.779,16.174a12.874,12.874,0,0,1-7.574,2.6,12.47,12.47,0,0,1-5.8-1.436,17.392,17.392,0,0,1-8.023-9.469,23.112,23.112,0,0,1-.965-3.159l-6.121-26.665c-.74-3.212.713-6.579,3.235-7.514s5.177.909,5.917,4.13l6.121,26.665c.007.017.007.034.015.052a6.946,6.946,0,0,0,3.378,4.719,4.71,4.71,0,0,0,5.064-.441c2.322-1.7,8.913-9.388,12.851-14.313a4.083,4.083,0,0,1,6.739.089A7.271,7.271,0,0,1,1329.305,1644.625Z" transform="translate(-1285.851 -1614.912)"/></g></g><g transform="translate(56.681 71.535)"><g transform="translate(0 51.572)"><path class="p" d="M1330.306,1736.749c-2.892-2.273-9.511,1.687-12.688,2.394-2.053.458-9.536.882-8.956,4.44a12.288,12.288,0,0,0-.373,2.725,10.594,10.594,0,0,0,.329,3.471,9.263,9.263,0,0,0,4.393,2.636,5.584,5.584,0,0,0,.592-.07,13.167,13.167,0,0,0,3.93-1.845c3.917-2.4,9.786-4.509,12.732-8.138C1331.579,1740.742,1331.946,1738.037,1330.306,1736.749Z" transform="translate(-1308.276 -1736.052)"/></g><g transform="translate(1.335 47.105)"><rect class="p" width="8.047" height="14.252" rx="4.023" transform="translate(8.046 14.348) rotate(-179.314)"/></g><g transform="translate(0.129 0)"><path class="p" d="M1309.3,1680.183l-.88,50.649a4.727,4.727,0,0,0,4.332,4.033l2.354.173a4.73,4.73,0,0,0,5.072-4.943l3.9-51.2Z" transform="translate(-1308.419 -1678.898)"/></g></g><g transform="translate(33.461 13.435)"><g transform="translate(0 0)"><path class="p" d="M1305.108,1645.331l-7.587-25.444a7.449,7.449,0,0,0-3.661-4.458,7.763,7.763,0,0,0-5.816-.618,7.57,7.57,0,0,0-4.557,3.576,7.266,7.266,0,0,0-.638,5.677l7.607,25.527a20.167,20.167,0,0,0,1.306,3.291l.32.63a.881.881,0,0,0,1.061.43l.682-.225c.393-.13.8-.278,1.159-.427a30.2,30.2,0,0,0,9.714-6.182l.427-.408a.839.839,0,0,0,.173-.987Z" transform="translate(-1282.543 -1614.509)"/></g></g></g><path class="ad" d="M1955.326,880.817c0,.172,0,.354-.018.536a15.666,15.666,0,0,1-8.08,12.548l-34.357,18.84a9.123,9.123,0,0,1-1.625.7,9.379,9.379,0,0,1-7.672-.835l-39.351-23.189a21.478,21.478,0,0,1-10.479-16.507l-4.121-44.108-.427-4.585a4.9,4.9,0,0,1,7.046-4.848l42.593,21.073a4.9,4.9,0,0,1,2.479,2.851l13.619,41.331a5.687,5.687,0,0,0,8.218,3.16l22.226-12.711A6.651,6.651,0,0,1,1955.326,880.817Z" transform="translate(-1849.172 -696.989)"/><path class="p" d="M1910.106,912.049a2.73,2.73,0,0,1-2.946,3.666,9.36,9.36,0,0,1-3.459-1.208l-39.351-23.189a21.477,21.477,0,0,1-10.478-16.507l-3.795-40.612a1.961,1.961,0,0,1,2.822-1.94l34.369,16.993a4.918,4.918,0,0,1,2.478,2.86l13.611,41.331C1903.826,894.883,1906.7,903.121,1910.106,912.049Z" transform="translate(-1849.301 -698.894)"/><g transform="matrix(-0.996, 0.087, -0.087, -0.996, 72.72, 93.268)"><g transform="translate(0 0)"><path class="y" d="M22.819,13.048c-.12-3.353-.695-6.663-2.66-9.123C18,1.18,14.5.091,11.189,0A9.943,9.943,0,0,0,5.85,1.18C2.794,3.009,1.365,6.951.591,10.675a31.284,31.284,0,0,0-.576,4.29A15.955,15.955,0,0,0,.492,19.82,13.969,13.969,0,0,0,6.6,27.79a22.015,22.015,0,0,0,9.288,2.94,7.45,7.45,0,0,0,4.664-.566,3.972,3.972,0,0,0,1.886-2.613,3.048,3.048,0,0,0,.04-1.2c.1-3.048.2-6.075.3-9.123C22.819,15.857,22.859,14.463,22.819,13.048Z"/></g></g><g transform="translate(52.422 84.162) rotate(9)"><g transform="translate(0 0)"><path class="y" d="M12.419,5.815v13.1h-.071a4.046,4.046,0,0,1-2.021,2.526A8.082,8.082,0,0,1,6.205,22.47C3.04,22.47.5,20.954.071,18.915H0V5.815A5.636,5.636,0,0,1,1.817,1.7,6.378,6.378,0,0,1,5.381.044C5.708.026,6.055,0,6.408,0A6.975,6.975,0,0,1,8.527.4a6.093,6.093,0,0,1,2.189,1.427A5.6,5.6,0,0,1,12.419,5.815Z"/></g></g><g transform="translate(41.315 57.782)"><g transform="translate(0.288 0)"><path class="x" d="M695.181,993.488c0,9.287-6.476,16.807-14.484,16.807a13.059,13.059,0,0,1-8.508-3.211,17.733,17.733,0,0,1-5.965-13.6,19.365,19.365,0,0,1,.315-3.486,18.739,18.739,0,0,1,1.749-5.181,15.772,15.772,0,0,1,5.5-6.111,12.973,12.973,0,0,1,6.911-2.029c.3,0,.619.012.923.035a12.892,12.892,0,0,1,5.553,1.719C691.921,981.192,695.181,986.9,695.181,993.488Z" transform="translate(-666.224 -976.68)"/></g><g transform="translate(4.231 5.112)"><path class="y" d="M700.747,998.068c0,8.678-6.748,15.712-15.082,15.712a14.58,14.58,0,0,1-8.866-3,15.914,15.914,0,0,1-6.2-12.71c0-8.688,6.748-15.723,15.071-15.723.315,0,.642.012.956.034C694.51,982.889,700.747,989.708,700.747,998.068Z" transform="translate(-670.594 -982.345)"/></g><g transform="translate(2.448 3.264)"><path class="x" d="M675.129,993.693a5.589,5.589,0,0,1,1.264-2.707l1.083-1.154c.036-.039.077-.066.114-.1.31-3.693,2.6-7.712,5.532-9.432l-5.224,1.848L676.4,984.58v-2.817a16.511,16.511,0,0,0-7.786,11.126h5.546v.8Z" transform="translate(-668.618 -980.297)"/></g><g transform="translate(0 0.609)"><path class="x" d="M702.531,980.74c.157-2.628-.952-4.288-4.517-2.859-7.813,3.133-16.225-1.694-23.933,1.965-9.27,4.4-10.111,17.232-5.261,26.171,1.938,3.573,5.223,8.311,9.082,7.954,7.305-.679,11-7.007,15.17-17.14,1.289-3.131,2.72-3.372,4.789-5.343C699.763,989.675,702.317,984.313,702.531,980.74Z" transform="translate(-665.905 -977.355)"/></g><g transform="translate(20.235 17.042)"><path class="y" d="M697.325,1000.359a4.507,4.507,0,1,1-4.5-4.792A4.652,4.652,0,0,1,697.325,1000.359Z" transform="translate(-688.33 -995.567)"/></g></g></g></g></g></svg>