<svg xmlns="http://www.w3.org/2000/svg" width="535.614" height="291.822" viewBox="0 0 535.614 291.822"><defs><style>.a{fill:rgba(15,0,0,0.1);}.b{fill:#c4e4f9;}.c{fill:#0f62fe;}.d{fill:#e2e5f3;}.e{fill:#f5f5fa;}.f{fill:#3d2768;}.g{fill:#5dc5c7;}.h{fill:#2d1d50;}.i{fill:#bdc0df;}.j{fill:#d9def0;}.k{fill:#bdc1e1;}.l{fill:#fff;}.m{fill:#e4e6f3;}.n{fill:#b3bade;}.o{fill:#3c2768;}.p{fill:#f69874;}.q{fill:#5678bb;}.r{fill:#ee3f5c;}.s{fill:#d2d2d2;}.t{fill:#b2bade;}.u{fill:#bec1e0;}.v{fill:#fd8358;}.w{fill:#4568c7;}.x{fill:none;stroke:#201d1e;}.y{fill:#3772ce;}.z{fill:#a0d2fe;}.aa{fill:#3d296c;}</style></defs><g transform="translate(-406 -5235.889)"><g transform="translate(8738 -8540)"><path class="a" d="M276,660H811.614s-11.225,20.847-36.884,17.64a148.9,148.9,0,0,1-20.847-1.6c-9.622-1.6-24.054,3.207-27.262,8.018,0,0-24.055,14.433-64.145,0,0,0-36.884-16.036-62.542-1.6,0,0-19.244,20.847-68.956-4.811,0,0-12.829-8.018-35.28,8.018,0,0-22.451,19.243-65.749-8.018,0,0-24.055-6.415-51.316,6.414C378.633,684.054,324.109,692.073,276,660Z" transform="translate(-8608 13375.459)"/><path class="b" d="M582.4,634.075s27.1,14.968,15.132,36.361C597.537,670.436,578.147,666.439,582.4,634.075Z" transform="translate(-8423.412 13359.81)"/><path class="c" d="M613.906,623s14.433,46.505-22.451,57.731C591.455,680.731,573.815,655.073,613.906,623Z" transform="translate(-8419.913 13353.125)"/><path class="c" d="M334.245,621.92s-41.4,22.87-23.118,55.552C311.127,677.471,340.751,671.366,334.245,621.92Z" transform="translate(-8589.611 13352.473)"/><path class="b" d="M292.045,605s-22.05,71.051,34.3,88.2C326.343,693.2,353.294,654,292.045,605Z" transform="translate(-8600.88 13342.259)"/></g><g transform="translate(17.613 -3337)"><path class="d" d="M3842.69,802.441a6.54,6.54,0,0,1-.069.969Z" transform="translate(-2971.87 7927.56)"/><path class="d" d="M3830.428,798.639l-.069.969c-.79,5.647-8.449,10.077-17.78,10.077-9.449,0-17.182-4.543-17.8-10.3l-.043-.751c0-6.1,7.991-11.046,17.845-11.046S3830.428,792.538,3830.428,798.639Z" transform="translate(-2959.607 7931.362)"/><path class="e" d="M3830.372,803.665l-2.935,41.281c0,4.347-6.793,7.866-15.171,7.866-7.114,0-13.078-2.537-14.719-5.957a4.32,4.32,0,0,1-.452-1.909l-2.3-41.5c.621,5.75,8.348,10.3,17.8,10.3C3821.925,813.746,3829.583,809.315,3830.372,803.665Z" transform="translate(-2959.623 7927.301)"/><path class="f" d="M3829.063,798.391l-.065.859c-.467,3.343-3.648,6.2-8.179,7.729a22.739,22.739,0,0,1-5.019,1.06c-.454.048-.917.079-1.388.1-.375.017-.759.026-1.144.026-.628,0-1.248-.021-1.854-.07a22.391,22.391,0,0,1-2.418-.3,20.714,20.714,0,0,1-3.417-.873c-4.539-1.567-7.694-4.482-8.061-7.869l-.04-.667c0-2.366,1.361-4.539,3.622-6.228a16.865,16.865,0,0,1,5.067-2.5c.51-.161,1.034-.3,1.576-.428a24.624,24.624,0,0,1,5.524-.615c.446,0,.891.013,1.327.039.611.026,1.209.078,1.793.152a20.17,20.17,0,0,1,8.009,2.649C3827.277,793.229,3829.063,795.681,3829.063,798.391Z" transform="translate(-2960.31 7931.099)"/><path class="g" d="M3817.786,730.4c-.026-2.317-2.042-6.834-.873-12.106,2.981-13.433-5.058-43.968-6.245-44.758-.755-.5-3.657,9.431-6.136,21.838a3.411,3.411,0,0,1,1.073.288,3.558,3.558,0,0,1,0,6.5,3.494,3.494,0,0,1-1.453.31,3.428,3.428,0,0,1-.563-.044,2.493,2.493,0,0,1-.362-.079c-.912,5.294-1.68,10.753-2.129,15.851a69.6,69.6,0,0,0,.013,15.623,265.472,265.472,0,0,0,5.874,26.368c.737,2.754,1.462,5.35,2.121,7.668,1.784,6.271,3.124,10.548,3.124,10.548v.218c.528.044,1.065.065,1.606.065.083,0,.166,0,.249,0,.384,0,.769-.009,1.143-.026.472-.022.935-.052,1.388-.1.07-2.095.332-10.155.589-19.228C3817.524,748.134,3817.842,735.386,3817.786,730.4Zm-7.118-16.212a2.3,2.3,0,0,1,1.235.358,2.236,2.236,0,0,1,.515.436v0a2.313,2.313,0,0,1-.384,3.4v0s-.008,0-.013.009a2.3,2.3,0,0,1-1.353.436,2.326,2.326,0,1,1,0-4.652Zm-1.588,28.48v0a2.325,2.325,0,1,1,.384-3.412v0a2.314,2.314,0,0,1-.384,3.4Zm5.363,10.125a3.453,3.453,0,0,1-1.379.31h-.074a3.461,3.461,0,0,1-.563-.044,3.561,3.561,0,0,1,.209-7.057,1.83,1.83,0,0,1,.214-.013c.048,0,.091,0,.14,0a3.507,3.507,0,0,1,1.453.31,3.555,3.555,0,0,1,0,6.5Z" transform="translate(-2961.127 7960.574)"/><path class="g" d="M3837.007,725.923a3.484,3.484,0,0,1,1.4.288,67.684,67.684,0,0,0,1.113-9.426c-.048-9.885-4.111-26.638-5.411-27.908-.066-.066-.123-.092-.17-.079l0,0c-1.021.336-9.919,20.747-12.01,33.4-.131.8-.236,1.567-.31,2.3-.008.078-.017.157-.021.235-.013.127-.026.254-.039.388-.1,1.087-.188,2.427-.27,3.976-.013.292-.031.589-.044.894q-.033.518-.053,1.061c-.017.332-.031.667-.048,1.012-.031.737-.061,1.51-.092,2.308q-.02.543-.039,1.1c0,.165-.013.335-.018.51a3.076,3.076,0,0,1,.354-.018,3.493,3.493,0,0,1,1.453.31,3.558,3.558,0,0,1,0,6.5,3.5,3.5,0,0,1-1.453.309,3.424,3.424,0,0,1-.563-.043c-.048,1.986-.092,4.046-.131,6.14-.009.419-.018.838-.026,1.261-.066,3.348-.123,6.769-.166,10.134,0,.419-.013.842-.018,1.261s-.013.838-.017,1.257c-.1,7.449-.153,14.44-.184,19.481.472-.021.935-.052,1.388-.1.4-.039.786-.087,1.169-.148.24-.035.476-.074.711-.118a20.771,20.771,0,0,0,3.138-.794c.559-2.366,1.929-8.218,3.579-15.519,2.26-9.981,5.035-22.667,6.96-32.862-.061,0-.118,0-.179,0a3.559,3.559,0,1,1,0-7.118Zm-8.362,28.319a2.3,2.3,0,0,1-1.9-1,2.281,2.281,0,0,1-.419-1.326,2.324,2.324,0,1,1,2.322,2.322Zm2.6-41.372v0a2.325,2.325,0,1,1,.385-3.413v0a2.314,2.314,0,0,1-.385,3.4Z" transform="translate(-2966.138 7956.662)"/><path class="g" d="M3806.706,781.394q-.085-1.224-.17-2.523a2.088,2.088,0,0,1-.6.083,2.289,2.289,0,0,1-1.9-1,2.25,2.25,0,0,1-.42-1.326,2.334,2.334,0,0,1,2.317-2.326,1.658,1.658,0,0,1,.293.022c-.022-.34-.049-.685-.07-1.03-.764-11.351-1.615-24.015-1.89-28.083-.288-4.272-2.906-9.588-5.573-13.481-2.282-3.325-4.6-5.612-5.547-5.324-.851.257-1.427,4.124-1.689,8.872a3.4,3.4,0,0,1,.663-.131,3.265,3.265,0,0,1,.354-.017,3.606,3.606,0,0,1,.379.022,1.41,1.41,0,0,1,.183.026,3.4,3.4,0,0,1,.891.262,3.546,3.546,0,0,1,1.924,4.368,3.543,3.543,0,0,1-1.924,2.13,3.271,3.271,0,0,1-.624.214,3.693,3.693,0,0,1-.829.1,3.432,3.432,0,0,1-.563-.044,2.588,2.588,0,0,1-.362-.078,2.659,2.659,0,0,1-.258-.083c.017,4.779.336,9.239.982,11.015.524,1.444,1.968,6.022,3.679,11.556a3.344,3.344,0,0,1,1.4-.454,1.661,1.661,0,0,1,.214-.013c.048,0,.092,0,.139,0a3.7,3.7,0,0,1,.987.135,3.374,3.374,0,0,1,.467.175,3.558,3.558,0,0,1,1.2,5.625,3.684,3.684,0,0,1-1.2.873,3.37,3.37,0,0,1-1.169.3c.51,1.663,1.025,3.338,1.523,4.975,2.008,6.59,3.81,12.552,4.478,14.764a18.927,18.927,0,0,0,1.894.559c.14.035.279.07.423.1.358.083.729.157,1.1.218C3807.272,789.769,3807.015,785.972,3806.706,781.394Zm-6.424-33.8a2.3,2.3,0,0,1,1.235.358,2.248,2.248,0,0,1,.515.437v0a2.314,2.314,0,0,1-.384,3.4v0s-.009,0-.013.009a2.3,2.3,0,0,1-1.353.437,2.326,2.326,0,1,1,0-4.652Z" transform="translate(-2958.727 7947.036)"/><path class="f" d="M3808.2,806.591a18.908,18.908,0,0,1-1.894-.559c-.668-2.212-2.47-8.174-4.478-14.764-.5-1.637-1.012-3.312-1.522-4.975a3.371,3.371,0,0,0,1.169-.3,3.683,3.683,0,0,0,1.2-.873C3804.752,792.6,3806.856,801.065,3808.2,806.591Z" transform="translate(-2961.033 7931.994)"/><path class="h" d="M3820.647,759.343c-.257,9.073-.519,17.133-.589,19.228-.454.048-.917.079-1.388.1-.375.017-.759.026-1.144.026-.083,0-.166,0-.249,0l-.772-25.587a3.45,3.45,0,0,0,1.378-.31,3.555,3.555,0,0,0,0-6.5,3.506,3.506,0,0,0-1.453-.31c-.048,0-.091,0-.14,0l-.829-27.586s.008,0,.013-.009v0a2.313,2.313,0,0,0,.384-3.4v0a2.236,2.236,0,0,0-.515-.436l-1.235-41.01c1.187.79,9.226,31.325,6.245,44.758-1.169,5.271.847,9.789.873,12.106C3821.285,735.392,3820.966,748.14,3820.647,759.343Z" transform="translate(-2964.569 7960.568)"/><path class="f" d="M3822.8,761.359c0,12.931,0,31.766,0,39.552-.384.061-.772.109-1.169.148-.454.048-.917.079-1.388.1.031-5.041.088-12.032.184-19.481,0-.42.012-.834.017-1.257s.013-.842.018-1.261c.043-3.365.1-6.786.166-10.134.008-.423.017-.842.026-1.261.04-2.095.083-4.155.131-6.14a3.424,3.424,0,0,0,.563.043A3.493,3.493,0,0,0,3822.8,761.359Z" transform="translate(-2966.138 7938.08)"/><path class="f" d="M3834.193,688.8l0,.017c-.336.969-11.128,32.107-11.133,45.492v1.968a3.494,3.494,0,0,0-1.453-.31,3.077,3.077,0,0,0-.354.018c0-.175.014-.345.018-.51q.019-.557.039-1.1c.031-.8.061-1.571.092-2.308.017-.345.03-.681.047-1.013q.021-.543.053-1.061c.013-.3.03-.6.044-.894.082-1.55.174-2.889.27-3.976.013-.135.026-.261.039-.388,0-.078.014-.157.021-.235.075-.729.18-1.5.311-2.3C3824.274,709.551,3833.172,689.14,3834.193,688.8Z" transform="translate(-2966.397 7956.659)"/><path class="e" d="M3834.572,729.486a3.558,3.558,0,0,0,3.561,3.557c.061,0,.118,0,.179,0-1.925,10.195-4.7,22.881-6.96,32.862-1.65,7.3-3.02,13.153-3.579,15.519a20.786,20.786,0,0,1-3.138.794l3.234-28.965a2.323,2.323,0,0,0,4.229-1.326,2.328,2.328,0,0,0-2.326-2.326,2.3,2.3,0,0,0-1.562.611l4.163-37.33v0a2.314,2.314,0,0,0,.385-3.4v0l2.3-20.642,0-.017.175.074c1.3,1.27,5.363,18.024,5.411,27.908a67.685,67.685,0,0,1-1.113,9.426,3.484,3.484,0,0,0-1.4-.288A3.559,3.559,0,0,0,3834.572,729.486Z" transform="translate(-2967.264 7956.659)"/><path class="e" d="M3807.344,781.394q-.085-1.224-.17-2.523a2.088,2.088,0,0,1-.6.083,2.289,2.289,0,0,1-1.9-1,2.25,2.25,0,0,1-.42-1.326,2.334,2.334,0,0,1,2.317-2.326,1.658,1.658,0,0,1,.293.022c-.022-.34-.049-.685-.07-1.03-.764-11.351-1.615-24.015-1.89-28.083-.288-4.272-2.906-9.588-5.573-13.481-2.282-3.325-4.6-5.612-5.547-5.324l2,9.937a3.522,3.522,0,0,1,.886,2.348,3.466,3.466,0,0,1-.184,1.117l10.457,51.833c.358.083.729.157,1.1.218C3807.911,789.769,3807.654,785.972,3807.344,781.394Zm-5.058-29.593v0s-.009,0-.013.009a2.3,2.3,0,0,1-1.353.437,2.326,2.326,0,1,1,0-4.652,2.3,2.3,0,0,1,1.235.358,2.248,2.248,0,0,1,.515.437v0a2.314,2.314,0,0,1-.384,3.4Z" transform="translate(-2959.365 7947.036)"/><path class="i" d="M3831.317,803.739l-2.935,41.281c0,4.347-6.793,7.866-15.171,7.866-7.114,0-13.079-2.537-14.72-5.957l-.007-.023c19.939-18.237,15.057-33.086,15.057-33.086C3822.87,813.82,3830.528,809.389,3831.317,803.739Z" transform="translate(-2960.567 7927.228)"/></g><g transform="translate(537.197 5235.889)"><g transform="translate(158.164 79.076)"><path class="j" d="M1466.6,957.2l-33.145,18.759-36.585-21.122,32.8-18.956Z" transform="translate(-1396.868 -878.647)"/><path class="k" d="M1430.013,953.187v2.754l-33.145,18.723v-2.719Z" transform="translate(-1360.283 -874.637)"/><path class="k" d="M1436.157,889.411v79.2s-2.359,2.956-8.847,2.956-7.087-2.544-7.087-2.544V890.336l7.087,4.072Z" transform="translate(-1395.191 -889.411)"/></g><path class="k" d="M1548.182,908.482l-120.776-69.394V828.657l120.776,69.72Z" transform="translate(-1398.899 -749.409)"/><path class="l" d="M1586.561,843.556l-123.2,69.727-135.983-78.509,121.931-70.459Z" transform="translate(-1314.079 -764.314)"/><path class="j" d="M1586.561,843.556l-137.25-79.242-121.931,70.459,144.653-29.048Z" transform="translate(-1314.079 -764.314)"/><path class="m" d="M1450.577,828.652V838.89l-123.2,69.594v-10.1Z" transform="translate(-1178.096 -749.41)"/><g transform="translate(85.451 34.566)"><path class="l" d="M1400.569,813.946c0,9.4,11.719,17.026,26.177,17.026,9.174,0,17.242-3.065,21.911-7.712a13.106,13.106,0,0,0,4.267-9.314c0-9.4-11.719-17.015-26.177-17.015-11.253,0-20.849,4.614-24.553,11.09A11.859,11.859,0,0,0,1400.569,813.946Z" transform="translate(-1397.958 -796.931)"/><path class="n" d="M1408.014,813.388c0,6.4,7.982,11.588,17.816,11.588.369,0,.727-.01,1.083-.021-8.231-.335-14.741-4.777-14.741-10.213,0-5.654,7.04-10.236,15.738-10.236,8.36,0,15.205,4.246,15.7,9.6.021-.237.032-.476.032-.714,0-6.39-7.971-11.578-17.817-11.578S1408.014,807,1408.014,813.388Z" transform="translate(-1396.977 -796.373)"/><path class="o" d="M1408.043,814.466v.129h.011c.043,2.936,2,5.578,5.1,7.42l.011.01a20.616,20.616,0,0,0,9.617,2.654c7.918-.3,14.437-3.974,16.236-8.848a7.654,7.654,0,0,0,.466-2,.3.3,0,0,0-.011-.065,6.561,6.561,0,0,0-.553-2.068,10.283,10.283,0,0,0-4.039-4.474,18.237,18.237,0,0,0-5.968-2.437l-.617-.129a24.305,24.305,0,0,0-4.516-.423c-.672,0-1.344.033-1.993.087C1414.033,804.945,1408.043,809.257,1408.043,814.466Z" transform="translate(-1392.848 -796.097)"/><path class="n" d="M1404.4,816.166c0,9.4,11.719,17.026,26.178,17.026,11.219,0,20.805-4.6,24.52-11.069-4.669,4.646-12.737,7.712-21.911,7.712-14.458,0-26.177-7.625-26.177-17.026a11.86,11.86,0,0,1,1.625-5.925A13.129,13.129,0,0,0,1404.4,816.166Z" transform="translate(-1404.398 -795.794)"/><path class="p" d="M1408.449,813.419a2.244,2.244,0,0,0,1.689,1.472h.011c.823.153,1.592-.074,2.177,1.2,1,2.166,1.214,4.419,2.924,6.218l.011.01a20.616,20.616,0,0,0,9.617,2.654c7.918-.3,14.437-3.974,16.236-8.848l.466-2a.3.3,0,0,0-.011-.065c-.055-.239-.239-1.072-.553-2.068-.553-1.809-1.526-4.148-2.87-4.506-.639-.173-.974-.119-1.169.032-.5.369-.25,1.354-2.1,1.126-2.4-.292-1.647-2.87-3.866-3.563l-.617-.129c-2.99-.369-.91,2.685-3.26,2.534-1.04-.065-2.047-1.462-3.249-2.87-1.505-1.776-3.336-3.584-5.957-2.783-4.69,1.441-5.6,2.622-7.04,5.059S1407.095,810.733,1408.449,813.419Z" transform="translate(-1394.942 -796.394)"/><path class="q" d="M1414.773,812.358c0,.819,1.091,1.483,2.437,1.483s2.437-.664,2.437-1.483-1.091-1.483-2.437-1.483S1414.773,811.539,1414.773,812.358Z" transform="translate(-1380.508 -795.338)"/><path class="r" d="M1426.409,810.72c0,.491.654.89,1.463.89s1.463-.4,1.463-.89-.655-.891-1.463-.891S1426.409,810.228,1426.409,810.72Z" transform="translate(-1403.161 -795.457)"/><path class="l" d="M1422.152,816.7c0,.819,1.091,1.483,2.437,1.483s2.437-.664,2.437-1.483-1.091-1.483-2.437-1.483S1422.152,815.88,1422.152,816.7Z" transform="translate(-1396.11 -794.842)"/></g><g transform="translate(152.604 84.438)"><g transform="translate(0 0)"><path class="d" d="M3683.9,797.576s.039.409.118,1.106c.8-4.019,5.863-7.1,11.991-7.1s11.2,3.083,11.992,7.116c0-.027.013-.053.013-.08.04-.356.065-.646.093-.817.013-.144.013-.223.013-.223,0-4.547-5.417-8.236-12.111-8.236S3683.9,793.029,3683.9,797.576Z" transform="translate(-3680.252 -789.34)"/><g transform="translate(0 2.24)"><path class="h" d="M3688.632,810.263c0,4.2,4.731,7.618,10.555,7.618s10.555-3.415,10.555-7.618a5.964,5.964,0,0,0-.315-1.872,7.789,7.789,0,0,1-5.088,1.872c-2.727,0-5.889-4.021-7.536-5.971-.962.631-3.278.762-3.752-.49C3691.139,805.185,3688.632,808.169,3688.632,810.263Z" transform="translate(-3688.632 -784.837)"/><path class="d" d="M3684,795.981c.553,4.336,3.057,18.436,11.978,18.436s11.412-14.1,11.953-18.436c-.884,3.953-5.9,6.985-11.965,6.985S3684.885,799.934,3684,795.981Z" transform="translate(-3680.21 -788.733)"/><path class="s" d="M3683.984,798.01c0,.027.012.066.012.093a.081.081,0,0,0,.013.053c.883,3.953,5.9,6.985,11.966,6.985s11.082-3.032,11.965-6.985c.014-.04.014-.093.027-.131-.79-4.033-5.865-7.116-11.992-7.116S3684.786,793.991,3683.984,798.01Z" transform="translate(-3680.216 -790.908)"/></g></g><path class="h" d="M3697.534,804.761a3.712,3.712,0,0,0,1.66,2.319,2.691,2.691,0,0,0,2.49-.566,22.173,22.173,0,0,1-1.594-2.78A11.879,11.879,0,0,0,3697.534,804.761Z" transform="translate(-3693.291 -783.17)"/></g><path class="e" d="M3749.852,769.061l.009,71.2,6.848,3.953v-71.2Z" transform="translate(-3711.769 -740.314)"/><path class="t" d="M3743,844.217l6.856-3.946V776.979L3743,773.014Z" transform="translate(-3698.057 -740.314)"/><path class="d" d="M3794.792,802.441l-.058,1.009A8.253,8.253,0,0,0,3794.792,802.441Z" transform="translate(-3794.734 -740.314)"/><path class="u" d="M3670.723,882.7l.009.009v-.019Z" transform="translate(-3546.663 -740.314)"/><path class="u" d="M3671.406,882.881c-.111.074-.24.166-.406.277C3671.166,883.047,3671.305,882.955,3671.406,882.881Z" transform="translate(-3547.614 -740.314)"/><path class="u" d="M3709.057,817.908l8.3,4.8,3.542,2.038,16.483,9.519,6.844,3.948,5.2,3.007,17.166,9.906,6.17,3.561,3.957,2.287,1.153.664h.009l.545.323,3.947,2.278,2.648,1.532c-.019-.415-.037-.83-.065-1.246-.12-2.01-.258-3.947-.4-5.737-.231-2.951-.471-5.5-.655-7.3l-.554-.313-4.722-2.722v-.009l-5.867-3.385-6.17-3.56h-.01v-.01l-5.054-2.914h-.009v-.009l-10.442-6.024-6.853-3.957-6.844-3.947-15.856-9.15-1.642-.95h-.009c0-.01-.009-.01-.018-.019l-2.5-1.439-8.191-4.732Z" transform="translate(-3699.289 -740.314)"/><path class="d" d="M3683.975,795.261c-.019.12-.037.323-.065.572A2.914,2.914,0,0,0,3683.975,795.261Z" transform="translate(-3573.093 -740.314)"/><path class="d" d="M3700.762,795.1a3.635,3.635,0,0,0,.092.839C3700.789,795.418,3700.762,795.1,3700.762,795.1Z" transform="translate(-3606.824 -740.314)"/><path class="d" d="M3683.9,795.105s.027.286.083.774c.562-2.813,4.1-4.971,8.393-4.971s7.841,2.158,8.394,4.981c0-.019.009-.037.009-.056.028-.249.046-.452.065-.572.009-.1.009-.156.009-.156,0-3.183-3.791-5.765-8.477-5.765S3683.9,791.922,3683.9,795.105Z" transform="translate(-3589.963 -740.314)"/><path class="v" d="M3629.622,813.084s.148.72.369,1.771c.037.166.074.351.111.535.553,2.611,1.439,6.623,1.844,7.638.619,1.54,5.6,2.13,5.6,2.13a21.322,21.322,0,0,1,5.147-2.37c5.295-1.909,12.323-3.893,13.476-6.641a1.982,1.982,0,0,0,.065-1.421,14.225,14.225,0,0,0-4.723-6.115c-2.416-1.946-5.091-3.2-6.493-2.952a22.435,22.435,0,0,0-4.124,1.642C3636.208,809.5,3629.622,813.084,3629.622,813.084Z" transform="translate(-3491.164 -740.314)"/><path class="f" d="M3656.244,933.607s-2.761,12.486,6.892,10.578,12.557-7.735,15.068-8.037,11.559-5.347,10.755-8.046-16.154-1.2-16.154-1.2Z" transform="translate(-3550.096 -740.314)"/><path class="w" d="M3686.437,884.683c-3.45,2.315-9.657,6.355-16.972,10.589l1.974,38.334s7.757.747,11.65-.812a27.913,27.913,0,0,0,7.526-4.944s-4.907-30.909-4.252-41.018C3686.409,886.177,3686.437,885.458,3686.437,884.683Z" transform="translate(-3565.288 -740.314)"/><path class="f" d="M3628.085,945.254s-2.251,11.913,7.4,10,12.557-7.735,15.068-8.036,13.762-6.745,12.959-9.443-18.187-2.809-18.187-2.809Z" transform="translate(-3496.62 -740.314)"/><path class="x" d="M3764.394,883.263l3.827,2.2v.006h-.006Z" transform="translate(-3737.823 -740.314)"/><path class="x" d="M3733.7,906.781l-6.214-3.586v-.006Z" transform="translate(-3666.388 -740.314)"/><path class="x" d="M3727.5,835.708v63.967l-.006-35.512-.006-28.461Z" transform="translate(-3660.186 -740.314)"/><path class="x" d="M3727.5,835.708v63.967l-.006-35.512-.006-28.461Z" transform="translate(-3660.186 -740.314)"/><path class="x" d="M3727.5,835.708v63.967l-.006-35.512-.006-28.461Z" transform="translate(-3660.186 -740.314)"/><path class="d" d="M3776.725,896.161l-6.238-3.58.024-14.218,6.142,3.55.036,7.088Z" transform="translate(-3752.421 -740.314)"/><path class="x" d="M3727.489,899.675l-.006-35.513.006-.006Z" transform="translate(-3660.18 -740.314)"/><path class="t" d="M3666.96,894.337l9.3,5.368.018.019,30.66,17.682,2.592,1.494,3.616,2.094,3.062-1.762,3.053-1.771h.009v-.009l6.143-3.542,6.273-3.616,18.549-10.7,12.11-6.991.046-.028,4.465-2.564V890l3.671-2.113,3.145-1.817-4.713-2.73c-.323.222-.72.489-1.19.812-.148.092-.3.2-.471.313-.1.065-.2.139-.313.213-3.45,2.315-9.657,6.355-16.972,10.589-2.14,1.235-4.372,2.49-6.659,3.717-.572.3-1.153.608-1.725.913-1.734.913-3.5,1.808-5.258,2.666-.461.23-.922.451-1.393.673-1.964.931-3.929,1.817-5.875,2.629-.323.138-.646.267-.959.4-.526.222-1.052.425-1.578.628-.3.119-.609.239-.913.35-.157.065-.323.129-.489.184-.258.1-.516.194-.775.286a1.826,1.826,0,0,1-.221.074c-.4.148-.793.286-1.181.415-.249.083-.489.166-.728.249-.609.2-1.218.388-1.817.563-.36.111-.711.212-1.061.3a.147.147,0,0,1-.083.028c-.821.231-1.633.443-2.426.618-.4.092-.793.175-1.181.249s-.775.157-1.153.212a4.686,4.686,0,0,1-.507.083c-.295.046-.59.093-.885.129-.443.056-.867.1-1.292.129q-.983.084-1.909.083a17.434,17.434,0,0,1-3.007-.248c-9.2-1.652-13.052-7.426-14.611-12.812-.073-.249-.138-.508-.2-.757s-.13-.507-.176-.756c-.037-.166-.064-.332-.1-.5-.1-.489-.175-.969-.24-1.43v-.009l-15.367-8.864v-.009h-.009v.009l-.019,7.13-.525.3v.009l-.148.083-5.4,3.155Z" transform="translate(-3645.838 -740.314)"/><path class="t" d="M3671.406,882.881c-.111.074-.24.166-.406.277C3671.166,883.047,3671.305,882.955,3671.406,882.881Z" transform="translate(-3547.614 -740.314)"/><path class="t" d="M3671.673,894.337v.009c.065.461.138.941.24,1.43.037.166.064.332.1.5.046.249.111.5.176.756s.129.508.2.757c1.559,5.386,5.415,11.16,14.611,12.812a17.434,17.434,0,0,0,3.007.248q.927,0,1.909-.083c.425-.027.849-.073,1.292-.129.3-.036.59-.083.885-.129a4.686,4.686,0,0,0,.507-.083c.378-.055.766-.129,1.153-.212s.784-.157,1.181-.249c.793-.175,1.6-.387,2.426-.618a.147.147,0,0,0,.083-.028c.35-.092.7-.193,1.061-.3.6-.175,1.208-.36,1.817-.563.239-.083.479-.166.728-.249.388-.129.784-.267,1.181-.415a1.826,1.826,0,0,0,.221-.074c.259-.092.517-.184.775-.286.166-.055.332-.119.489-.184.3-.111.609-.231.913-.35.526-.2,1.052-.406,1.578-.628.313-.129.636-.258.959-.4,1.946-.812,3.911-1.7,5.875-2.629.471-.222.932-.443,1.393-.673,1.762-.858,3.524-1.753,5.258-2.666.572-.3,1.153-.609,1.725-.913,2.287-1.227,4.519-2.482,6.659-3.717,7.315-4.234,13.522-8.274,16.972-10.589.111-.074.212-.148.313-.213.167-.11.323-.221.471-.313.47-.323.867-.59,1.19-.812l-4.123-2.38-19.712-11.373-4.362-2.518-9.187-5.3c-.019-.415-.037-.83-.065-1.246l-2.527-1.466-3.505-2.02-.489.277-.554.322h-.009l-5.11,2.952v42.651l-6.17,3.542L3687,903.192l-.009-.01Z" transform="translate(-3625.905 -740.314)"/><path class="l" d="M3727.48,924.488v63.973l-6.277,3.624.019-63.983,6.094-3.518Z" transform="translate(-3653.891 -740.314)"/><path class="t" d="M3733.627,928.1l-.019,63.983-6.147-3.566V924.488Z" transform="translate(-3666.296 -740.314)"/><path class="l" d="M3764.473,903.254l6.161,3.557v56.86l-6.282,3.624.019-63.983Z" transform="translate(-3740.195 -740.314)"/><path class="t" d="M3776.763,967.295l-6.147-3.567V899.7l6.163,3.615Z" transform="translate(-3752.604 -740.314)"/><path class="l" d="M3715.22,917.408v14.256l-6.278,3.624,0-14.256Z" transform="translate(-3629.37 -740.314)"/><path class="t" d="M3721.367,921.032l0,14.256-5.983-3.47-.164-.1v-7.138l.164-.1Z" transform="translate(-3641.79 -740.314)"/><path class="e" d="M3770.56,885.469l-.018,7.136-6.075,3.556-.036-7.16-.036-7.088,2.339,1.35,3.821,2.206Z" transform="translate(-3740.162 -740.314)"/><path class="x" d="M3768.221,885.463v.006h-.006l-3.821-2.206Z" transform="translate(-3737.823 -740.314)"/><path class="v" d="M3753.16,766.711a72.754,72.754,0,0,1,2.144,12.963,28.215,28.215,0,0,1-2.144,14.231,23.419,23.419,0,0,1-16.291-4.65,31.305,31.305,0,0,1-9.629-13.655l4.238-13.821,7.632-4.785,10.251.981Z" transform="translate(-3687.885 -740.314)"/><path class="w" d="M3646.086,887.889l.784,6.642v.018l3.459,29.286.313,2.684,1.052,8.919,1.162,9.814h.009c.083-.018.609-.12,1.4-.3.24-.056.517-.12.8-.194.442-.11.931-.23,1.448-.378a30.95,30.95,0,0,0,5.986-2.2,18.523,18.523,0,0,0,7.591-7.2l.01-.009s-7.084-25.237-6.438-35.337a50.665,50.665,0,0,0,.027-5.211l-12.507-7.222-.923-.535-1.033-.591Z" transform="translate(-3521.399 -740.314)"/><path class="w" d="M3671.687,891.358c.009.239.019.479.037.728.018.388.046.784.092,1.2.028.332.065.674.111,1.015a.057.057,0,0,1,.009.037v.009c.065.461.138.941.24,1.43.037.166.064.332.1.5.046.249.111.5.176.756s.129.508.2.757c1.559,5.386,5.415,11.16,14.611,12.812a17.434,17.434,0,0,0,3.007.248q.927,0,1.909-.083c.425-.027.849-.073,1.292-.129.3-.036.59-.083.885-.129a4.686,4.686,0,0,0,.507-.083c.378-.055.766-.129,1.153-.212s.784-.157,1.181-.249c.793-.175,1.6-.387,2.426-.618a.147.147,0,0,0,.083-.028c.35-.092.7-.193,1.061-.3.6-.175,1.208-.36,1.817-.563.239-.083.479-.166.728-.249.388-.129.784-.267,1.181-.415a1.826,1.826,0,0,0,.221-.074c.259-.092.517-.184.775-.286.166-.055.332-.119.489-.184.3-.111.609-.231.913-.35.526-.2,1.052-.406,1.578-.628.313-.129.636-.258.959-.4,1.946-.812,3.911-1.7,5.875-2.629.471-.222.932-.443,1.393-.673,1.762-.858,3.524-1.753,5.258-2.666.572-.3,1.153-.609,1.725-.913,2.287-1.227,4.519-2.482,6.659-3.717,7.315-4.234,13.522-8.274,16.972-10.589.111-.074.212-.148.313-.213.167-.11.323-.221.471-.313.47-.323.867-.59,1.19-.812l-4.123-2.38-19.712-11.373c-.534.148-1.079.314-1.623.471-.489.147-.978.286-1.466.433s-.987.3-1.486.443c-1.1.332-2.2.673-3.32,1.006-.738.23-1.485.461-2.232.691-.683.212-1.375.434-2.057.655q-2.132.664-4.261,1.347c-1.329.424-2.648.848-3.967,1.282-.12.037-.249.083-.369.12-.553.175-1.1.36-1.651.535-.064.018-.129.046-.2.074-.959.313-1.918.627-2.868.94-.1.037-.2.065-.3.1-1.577.526-3.127,1.051-4.639,1.549-.517.176-1.024.351-1.531.517v.009c-.176.056-.342.111-.508.166-.249.093-.507.176-.765.268-.628.212-1.255.415-1.863.627-.231.083-.471.166-.711.249-.258.083-.507.166-.756.258-.415.139-.83.286-1.236.425-.544.193-1.089.378-1.614.553-2.749.95-5.212,1.817-7.287,2.555-.166.055-.332.111-.5.175-1.135.4-2.14.757-3,1.061-.2.074-.4.138-.581.2-.9.332-1.614.581-2.085.756-.083.028-.156.056-.23.083-.194.065-.323.111-.4.139-.046.018-.074.027-.074.027A23.968,23.968,0,0,0,3671.687,891.358Z" transform="translate(-3626.167 -740.314)"/><path class="l" d="M3700.221,882.161a19.1,19.1,0,0,0,5.184,10.746v.009a18.5,18.5,0,0,0,10.045,4.889,21.322,21.322,0,0,0,6.594-.018c-.073-.249-.138-.508-.2-.757s-.13-.507-.176-.756c-.037-.166-.064-.332-.1-.5-.1-.489-.175-.969-.24-1.43v-.009a.057.057,0,0,0-.009-.037c-.046-.35-.083-.692-.111-1.015-.046-.415-.074-.811-.092-1.2-.018-.249-.028-.489-.037-.728a23.968,23.968,0,0,1,.184-4.05s.028-.009.074-.027c.074-.028.2-.074.4-.139.064-.027.147-.055.23-.083.471-.175,1.181-.424,2.085-.756.184-.065.378-.129.581-.2.858-.3,1.863-.664,3-1.061.166-.064.332-.12.5-.175,2.075-.738,4.538-1.605,7.287-2.555.525-.185,1.07-.369,1.614-.553.406-.139.821-.286,1.236-.425.249-.092.5-.175.756-.258.24-.083.48-.166.711-.249.608-.212,1.235-.415,1.863-.627.258-.092.516-.175.765-.268.166-.055.332-.11.508-.166v-.009c.507-.166,1.014-.341,1.531-.517,1.512-.5,3.062-1.023,4.639-1.549.1-.037.2-.065.3-.1.95-.313,1.909-.627,2.868-.94.074-.028.139-.056.2-.074.554-.175,1.1-.36,1.651-.535.12-.037.249-.083.369-.12,1.319-.434,2.638-.858,3.967-1.282q2.13-.678,4.261-1.347c.682-.221,1.374-.443,2.057-.655a23.8,23.8,0,0,1-2.076-3.717c2.039-.507,4.806-1.153,7.841-1.845l-9.187-5.3c-.019-.415-.037-.83-.065-1.246-.12-2.01-.258-3.947-.4-5.737-.628.166-1.264.342-1.9.517-1.374.369-2.776.765-4.206,1.171-.572.166-1.153.332-1.734.5-1.3.388-2.619.775-3.957,1.181-2.029.609-4.095,1.236-6.17,1.882-18.771,5.857-38.049,12.756-42.043,14.2-.5.184-.756.277-.756.277A27.249,27.249,0,0,0,3700.221,882.161Z" transform="translate(-3675.557 -740.314)"/><path class="v" d="M3737.068,789.7l-2.821,9.615,14.815,5.156s3.407-13.232,5.693-13.739Z" transform="translate(-3694.21 -740.314)"/><path class="y" d="M3720.789,775.5c-.129,9.168,4.751,13.282,10.063,15.8.01,0,.01.009.019.009.433.212.867.406,1.31.59,5.783,2.473,11.437-.673,11.5-2.01s-1.762-.563-5.129-1.356-.535-7.342,1.79-8.292,2.324,4.326,3.8,5.8.95-1.475,3.6-5.063c2.62-3.57,2.629-14.122,2.629-14.27,6.863,2.6,8.652-4.27,8.735-4.63a7.056,7.056,0,0,1-3.5,2.232c-.765.231-1.531-.443-2.435-1.54-1.854-2.278-4.243-6.392-8.32-7.9a16.184,16.184,0,0,0-3.975-.885,21.024,21.024,0,0,0-6.531.323,15.859,15.859,0,0,0-2.619.774c-3.717,1.495-3.155,6.06-6.392,6.761S3720.928,765.585,3720.789,775.5Z" transform="translate(-3685.099 -740.314)"/><path class="d" d="M3659.673,887.889l.784,6.642v.018l3.459,29.286.313,2.684,1.052,8.919,1.162,9.814h.009c.083-.018.609-.12,1.4-.3.24-.056.517-.12.8-.194.442-.11.931-.23,1.448-.378a2.944,2.944,0,0,1-.406-1.061,77.112,77.112,0,0,1-1.07-9.611c-.157-2.177-.313-4.6-.47-7.176-.793-13.042-1.642-29.987-3.385-39.33l-.923-.535-1.033-.591Z" transform="translate(-3534.986 -740.314)"/><path class="d" d="M3671.406,882.881c-.111.074-.24.166-.406.277C3671.166,883.047,3671.305,882.955,3671.406,882.881Z" transform="translate(-3547.614 -740.314)"/><path class="d" d="M3671.687,891.358c.009.239.019.479.037.728.018.388.046.784.092,1.2.028.332.065.674.111,1.015a.057.057,0,0,1,.009.037v.009c.065.461.138.941.24,1.43.037.166.064.332.1.5.046.249.111.5.176.756s.129.508.2.757c1.559,5.386,5.415,11.16,14.611,12.812a17.434,17.434,0,0,0,3.007.248q.927,0,1.909-.083c.425-.027.849-.073,1.292-.129.3-.036.59-.083.885-.129a4.686,4.686,0,0,0,.507-.083c.378-.055.766-.129,1.153-.212s.784-.157,1.181-.249c.793-.175,1.6-.387,2.426-.618a.147.147,0,0,0,.083-.028c.35-.092.7-.193,1.061-.3.6-.175,1.208-.36,1.817-.563.239-.083.479-.166.728-.249.388-.129.784-.267,1.181-.415a1.826,1.826,0,0,0,.221-.074c.259-.092.517-.184.775-.286.166-.055.332-.119.489-.184.3-.111.609-.231.913-.35.526-.2,1.052-.406,1.578-.628.313-.129.636-.258.959-.4,1.946-.812,3.911-1.7,5.875-2.629.471-.222.932-.443,1.393-.673,1.762-.858,3.524-1.753,5.258-2.666.572-.3,1.153-.609,1.725-.913,2.287-1.227,4.519-2.482,6.659-3.717,7.315-4.234,13.522-8.274,16.972-10.589.111-.074.212-.148.313-.213.167-.11.323-.221.471-.313.47-.323.867-.59,1.19-.812l-4.123-2.38c-5.894,2.352-13.033,7.5-18.337,11.6-8.191,6.337-26.666,10.561-27.174,10.681h-.009l-6.17-5.129-5.756-4.787h-.009l-5.156-4.289-10.469-1.688h-.01l-.009-.009-.194-.028A23.968,23.968,0,0,0,3671.687,891.358Z" transform="translate(-3626.167 -740.314)"/><path class="z" d="M3650.95,872.569a7.737,7.737,0,0,0,1.106,1.66c3.146,3.763,11.124,8.753,20.514,13.052a.707.707,0,0,0,.12.055l.009.009h.01a126.743,126.743,0,0,0,15.625,5.977h.009c1.946.6,3.874,1.126,5.756,1.577,1.042.25,2.075.471,3.08.665a28.906,28.906,0,0,0,3.09.433,26.776,26.776,0,0,0,5.1-.046,28.658,28.658,0,0,0,13.476-5.147h.009a33.291,33.291,0,0,0,7.822-7.545,48.559,48.559,0,0,1-5.147-4.243,39.851,39.851,0,0,1-5.58-6.383,23.8,23.8,0,0,1-2.076-3.717,14.2,14.2,0,0,1-1.235-5c-.028-.72-.065-1.439-.111-2.149-.019-.415-.037-.83-.065-1.246-.12-2.01-.258-3.947-.4-5.737-.231-2.951-.471-5.5-.655-7.3-.185-1.78-.3-2.832-.3-2.832l.028.028c.332.3,3.413,2.786,14.739,2.6,12.056-.2,47.411-19.287,47.411-19.287a26.237,26.237,0,0,0-.111-2.841,21.005,21.005,0,0,0-1.549-6.558h-.009c-.12-.276-.25-.544-.4-.811a8.283,8.283,0,0,0-1.651-2.1,13.652,13.652,0,0,0-4.317-2.6,15.054,15.054,0,0,0-2.241-.7l-.886.286c-5.054,1.651-30.272,9.888-37.485,12.111-7.8,2.4-20.45-11.548-21.178-12.36l-.028-.027c-.009,0-.009-.01-.009-.01-4.409-5.792-12.379-10.423-20.09-13.7-1.6-.683-3.2-1.31-4.75-1.863-2.444-.9-4.778-1.633-6.853-2.214-.286-.083-.572-.157-.849-.23-.83-.222-1.651-.406-2.444-.554a30.053,30.053,0,0,0-3.56-.452,28.879,28.879,0,0,0-11.964,1.605.075.075,0,0,0-.037.018c-.35.13-.535.213-.535.213l-.138.166-.009.009c-1.033,1.383-1.845,4.639-2.445,9.076-.285,2.1-.525,4.464-.719,7.029-.018.286-.046.581-.064.876-.277,3.809-.462,8.015-.563,12.378C3647.916,844.989,3649.134,868.667,3650.95,872.569Z" transform="translate(-3626.793 -740.314)"/><path class="t" d="M3776.726,899.675v7.106l-6.214-3.592-30.7-17.72v-.006l-3.827-2.2-2.339-1.35-6.142-3.55-.024-71.086.006.006a60.241,60.241,0,0,0,6.166,7.293,65.393,65.393,0,0,0,13.284,10.59c12.1,7.185,29.245,10.439,29.775,10.536l.006,28.461Z" transform="translate(-3709.417 -740.314)"/><path class="d" d="M3721.312,807.277l.009.009a60.565,60.565,0,0,0,6.161,7.287c1.19,1.227,2.546,2.527,4.059,3.855a62.868,62.868,0,0,0,9.233,6.734c12.1,7.185,29.239,10.441,29.774,10.542h.01l6.17-3.532a.028.028,0,0,1-.018-.009c-.526-.093-17.673-3.358-29.775-10.543a67.72,67.72,0,0,1-19.443-17.867.027.027,0,0,1-.01-.018Z" transform="translate(-3703.248 -740.314)"/><path class="e" d="M3721.312,835.7v71.079l6.171-3.542v-71.07Z" transform="translate(-3654.002 -740.314)"/><path class="l" d="M3665.879,896.176l-.017,63.984,6.278-3.624V892.561Z" transform="translate(-3543.21 -740.314)"/><path class="i" d="M3678.285,896.179l-.014,63.983-6.147-3.566V899.707l6.137-3.542Z" transform="translate(-3555.616 -740.314)"/><path class="i" d="M3665.917,892.584v7.084l6.208,3.588,6.161,3.551,30.725,17.737v-.055l6.171,3.616,6.088-3.523.166-.092,5.986-3.459,6.272-3.625,18.909-10.912,11.751-6.789,4.9-2.822,1.245-.719,2.823-1.633,3.4-1.965-.009-5.9-1.033-.59-3.146,1.817L3768.865,890v.009l-4.464,2.573-.046.028-12.111,6.982v.009l-18.549,10.7-6.272,3.607v.009l-6.143,3.542v.009l-6.125,3.523v-.009l-3.118-1.8-.5-.286-2.592-1.494-30.66-17.682-.018-.018-9.3-5.368-.452-.258-.433-.249-.821-.47Z" transform="translate(-3647.849 -740.314)"/><path class="e" d="M3727.483,903.237l-.054,14.231-6.118,3.526V906.781Z" transform="translate(-3654.002 -740.314)"/><path class="d" d="M3733.7,906.781v14.212l-6.214-3.586V903.189Z" transform="translate(-3666.388 -740.314)"/><path class="y" d="M3726.719,775.5c-.129,9.168,4.751,13.282,10.063,15.8-9.675-4.686-6.733-25.605-3.191-26.149s2.3-5.609,8.661-8.154c4.935-1.983,12.775,3.053,16.852,5.774-1.854-2.278-4.243-6.392-8.32-7.9a16.184,16.184,0,0,0-3.975-.885,21.024,21.024,0,0,0-6.531.323,15.859,15.859,0,0,0-2.619.774c-3.717,1.495-3.155,6.06-6.392,6.761S3726.858,765.585,3726.719,775.5Z" transform="translate(-3691.029 -740.314)"/><path class="d" d="M3695.508,868.916a23.8,23.8,0,0,0,2.076,3.717c.747-.23,1.494-.461,2.232-.691,1.116-.333,2.223-.674,3.32-1.006.5-.147,1-.295,1.486-.443s.977-.286,1.466-.433c.544-.157,1.089-.323,1.623-.471l-4.362-2.518C3700.314,867.763,3697.547,868.409,3695.508,868.916Z" transform="translate(-3608.427 -740.314)"/><path class="aa" d="M3715.224,803.735a.027.027,0,0,0,.01.018,67.72,67.72,0,0,0,19.443,17.867c12.1,7.185,29.249,10.45,29.775,10.543a.028.028,0,0,0,.018.009V896a26.771,26.771,0,0,0,5.1-.047l.987-66.31s-3.348-2.075-16.262-4.482S3715.224,803.735,3715.224,803.735Z" transform="translate(-3690.99 -740.314)"/><path class="f" d="M3695.95,871.305a7.13,7.13,0,0,1,3.1,1.983,39.234,39.234,0,0,1,4.953,6.4c2.767,4.215,0,11.114,0,11.114h.009a33.291,33.291,0,0,0,7.822-7.545,48.559,48.559,0,0,1-5.147-4.243,39.851,39.851,0,0,1-5.58-6.383,23.8,23.8,0,0,1-2.076-3.717,14.2,14.2,0,0,1-1.235-5c-.028-.72-.065-1.439-.111-2.149-.019-.415-.037-.83-.065-1.246-.12-2.01-.258-3.947-.4-5.737-.231-2.951-.471-5.5-.655-7.3-.185-1.78-.3-2.832-.3-2.832s-.1.96-.249,2.519c-.2,1.992-.47,4.953-.692,8.126-.083,1.236-.166,2.5-.23,3.754-.028.4-.046.793-.056,1.18C3694.769,865.918,3694.852,871.038,3695.95,871.305Z" transform="translate(-3611.949 -740.314)"/><path class="i" d="M3749.024,809.081l27.7,85.265-27.678-15.983Z" transform="translate(-3730.955 -740.314)"/></g></g></svg>