<svg xmlns="http://www.w3.org/2000/svg" width="455.24" height="395.453" viewBox="0 0 455.24 395.453"><defs><style>.a{fill:#b49dba;}.a,.ax,.az{opacity:0.5;}.a,.ao,.ar,.av,.ax,.az,.g,.h,.i{mix-blend-mode:multiply;isolation:isolate;}.b{fill:#b5b3bc;}.c{fill:#eae8ef;}.d{fill:#f3fcff;}.e{fill:#f0eff4;}.f{fill:#878787;}.h,.k{fill:#a7cee8;}.i,.j{fill:#8db6cc;}.l{fill:#6294af;}.m{fill:#9d9d9c;}.n{fill:#4d525b;}.o{fill:#7a8693;}.p{fill:#919da8;}.q{fill:#58595b;}.r{fill:#9e9e9e;}.s{fill:#74777a;}.t{opacity:0.66;}.u{fill:#bcbec0;}.v{fill:#6f737a;}.w{fill:#414042;}.x{fill:#4f4e4f;}.y{fill:#727271;}.z{fill:#919191;}.aa{fill:#b2b2b2;}.ab{fill:#9f9fa0;}.ac{fill:#e6e7e8;}.ad{fill:#969696;}.ae{fill:#a5a5a5;}.af{fill:#72706d;}.ag{fill:#7c7c7b;}.ah{fill:#605e5b;}.ai{fill:#799baa;opacity:0.7;}.aj{fill:#62656b;}.ak{fill:#4568c7;}.al{fill:#444547;}.am{fill:#b4bac1;}.an{fill:#ef4136;}.ao{fill:#ce3b38;}.ap{fill:#fed724;}.aq{fill:#f2d120;}.ar{fill:#7a4e0e;}.as{fill:#fbb040;}.at{fill:#fffd38;}.au{fill:#de8d00;}.av{fill:#4d4f51;}.aw{fill:#dbdbdb;}.ay{fill:#ffea55;}.az{fill:#67416d;}.ba{fill:#6c8a93;}.bb{fill:#546f75;}.bc{fill:#a7b1b5;}.bd{fill:#c4cacc;}.be{fill:#dde5e8;}.bf{fill:#db9700;}.bg{fill:#c1d7ea;}.bh{fill:#1162fb;}.bi{fill:#8dc1ef;}</style></defs><g transform="translate(-461 -928)"><g transform="translate(478.937 928)"><path class="a" d="M6943.612,2779.735l42.132,2.652,41.925,24.206,6.354,12.734,54.184,31.282,18.7-4.415,41.925,24.206,49.846,24.494,39.776,22.964,34,1.172,59.525-34.834-46.893-27.562,55.1-32.051-136.278-77.5-44.654,2.7-131.581-32.606Z" transform="translate(-6902.879 -2629.892)"/><g transform="translate(0 0)"><g transform="translate(281.827 10.276)"><path class="b" d="M9188.4,2303.714l-28.88,16.674V2389h0v63.772l28.88-16.674v-68.608h0Z" transform="translate(-9117.599 -2279.514)"/><path class="c" d="M8873.193,2337.561v-68.609l-41.926-24.205v63.772h0v68.607l41.926,24.206v-63.772Z" transform="translate(-8831.268 -2228.078)"/><path class="d" d="M8860.146,2114.235l-28.878,16.673,41.926,24.206,28.877-16.674Z" transform="translate(-8831.268 -2114.235)"/><g transform="translate(5.626 2.42)"><path class="e" d="M8898.21,2133.183l-22.9,13.219,38.074,22,22.895-13.22Z" transform="translate(-8875.314 -2133.183)"/><path class="c" d="M9054.578,2133.183v2.16l35.69,21.217,2.383-1.377Z" transform="translate(-9031.683 -2133.183)"/><path class="b" d="M8898.21,2135.343l-20.866,12.231-2.029-1.172,22.9-13.219Z" transform="translate(-8875.314 -2133.183)"/></g><path class="f" d="M9220.943,2498.584l.709-.41V2370.784l-.709.41Zm-8.817,5.091.707-.409V2375.877l-.707.409Zm16.2-136.744V2494.32l.708-.409V2366.522Z" transform="translate(-9163.482 -2334.3)"/><path class="f" d="M8874.012,2435.829l.71.41v-127.4l-.71-.409Zm8.114,4.682.71.41v-127.4l-.71-.408Zm9.029,5.216.709.409v-127.4l-.709-.409ZM8902.02,2324.6v127.4l.709.409v-127.4Z" transform="translate(-8868.552 -2283.625)"/></g><g transform="translate(0 28.394)"><path class="b" d="M6971.67,2455.26h0l-28.058,16.2v66.656l54.184-31.281v-66.656Z" transform="translate(-6902.879 -2416.665)"/><path class="d" d="M6719.6,2279.611l-40.732-23.518-54.185,31.282,40.733,23.518Z" transform="translate(-6624.685 -2256.093)"/><path class="c" d="M6665.418,2524.486l-40.733-23.517v66.656l40.732,23.517Z" transform="translate(-6624.685 -2469.693)"/><path class="e" d="M6724.627,2282.307l34.243,19.759-3.833,2.216,0,0-43.8,25.308L6677,2309.832Z" transform="translate(-6670.318 -2278.959)"/><g transform="translate(6.682 3.348)"><path class="b" d="M6724.627,2282.307v2.486l-44.819,26.66-2.808-1.62Z" transform="translate(-6677 -2282.307)"/><path class="c" d="M7049.9,2284.792l31.8,18.686,2.442-1.413-34.243-19.759Z" transform="translate(-7002.273 -2282.307)"/></g><g class="g" transform="translate(0.001 39.379)"><path class="f" d="M6665.428,2596.237l54.184-31.275v-.55l-54.184,31.28-40.733-23.512v.541Z" transform="translate(-6624.694 -2564.412)"/><g transform="translate(0 14.015)"><path class="f" d="M6665.428,2705.972l54.184-31.275v-.55l-54.184,31.279-40.733-23.511v.541Z" transform="translate(-6624.694 -2674.146)"/></g><g transform="translate(0 29.129)"><path class="f" d="M6665.428,2824.3l54.184-31.276v-.551l-54.184,31.281-40.733-23.512v.541Z" transform="translate(-6624.694 -2792.478)"/></g></g></g><g transform="translate(118.268)"><path class="b" d="M7915.789,2263.074v76.311l32.123-18.546v-76.311Z" transform="translate(-7869.155 -2217.611)"/><path class="d" d="M7582.794,2033.781l-32.122,18.546,46.633,26.923,32.122-18.546Z" transform="translate(-7550.672 -2033.781)"/><path class="c" d="M7597.3,2205.862l-46.633-26.924v76.311l46.633,26.924Z" transform="translate(-7550.672 -2160.398)"/><g transform="translate(5.855 3.37)"><path class="e" d="M7621.688,2060.164l-25.178,14.536,41.87,24.194,25.175-14.536Z" transform="translate(-7596.511 -2060.164)"/><path class="c" d="M7793.64,2060.164v2.376l39.248,23.33,2.619-1.512Z" transform="translate(-7768.462 -2060.164)"/><path class="b" d="M7621.688,2062.54l-22.945,13.448-2.232-1.289,25.178-14.536Z" transform="translate(-7596.511 -2060.164)"/></g><path class="h" d="M7596.511,2286.024l9.286,5.36v-27.01l-9.286-5.36Z" transform="translate(-7590.656 -2230.247)"/><path class="h" d="M7696.991,2344.1l9.285,5.361v-27l-9.285-5.362Z" transform="translate(-7678.303 -2280.918)"/><path class="h" d="M7806.661,2407.1l9.286,5.361v-27.045l-9.286-5.362Z" transform="translate(-7773.966 -2335.83)"/><path class="i" d="M8060.026,2322.466V2349.6l9.286-5.36V2317.1Z" transform="translate(-7994.971 -2280.918)"/><path class="i" d="M7950.361,2412.6l9.285-5.361v-27.183l-9.285,5.362Z" transform="translate(-7899.313 -2335.83)"/><path class="h" d="M7696.991,2640.756l9.285,5.361v-26.51l-9.285-5.361Z" transform="translate(-7678.303 -2540.108)"/><path class="i" d="M8060.026,2647.053l9.286-5.361v-26.373l-9.286,5.361Z" transform="translate(-7994.971 -2541.044)"/><path class="i" d="M7950.361,2710.323l9.285-5.36v-26.327l-9.285,5.361Z" transform="translate(-7899.313 -2596.275)"/><path class="h" d="M7806.661,2704.027l9.284,5.36v-26.463l-9.286-5.361Z" transform="translate(-7773.966 -2595.338)"/><path class="h" d="M7596.511,2582.739l9.286,5.361v-26.5l-9.286-5.36Z" transform="translate(-7590.656 -2489.511)"/></g><g transform="translate(82.866 3.445)"><path class="b" d="M7630.622,2250.245l-28.88,16.674v68.608h0V2399.3l28.88-16.674v-68.608h0Z" transform="translate(-7559.817 -2226.043)"/><path class="c" d="M7315.412,2284.1v-68.608l-41.925-24.2v63.771h0v68.608l41.925,24.206V2284.1Z" transform="translate(-7273.486 -2174.615)"/><path class="d" d="M7302.365,2060.756l-28.879,16.674,41.925,24.205,28.879-16.673Z" transform="translate(-7273.486 -2060.756)"/><g transform="translate(4.918 2.83)"><path class="e" d="M7334.887,2082.91l-22.894,13.22,38.073,22,22.895-13.218Z" transform="translate(-7311.993 -2082.91)"/><path class="c" d="M7491.242,2082.91v2.161l35.692,21.217,2.382-1.375Z" transform="translate(-7468.348 -2082.91)"/><path class="b" d="M7334.887,2085.071l-20.865,12.231-2.028-1.172,22.894-13.22Z" transform="translate(-7311.993 -2082.91)"/></g><g class="g" transform="translate(6.418 31.489)"><path class="j" d="M7730.892,2369.431l6.675-3.837v43.95l-6.675,3.836Z" transform="translate(-7678.89 -2358.148)"/><path class="j" d="M7669.962,2442.772l-8.108,4.661v-43.95l8.108-4.661Z" transform="translate(-7618.669 -2387.133)"/><path class="k" d="M7323.74,2307.3l7.406,4.273v43.961l-7.406-4.273Z" transform="translate(-7323.74 -2307.299)"/><path class="k" d="M7387.281,2343.958l8.319,4.8v43.961l-8.319-4.8Z" transform="translate(-7379.166 -2339.276)"/><path class="k" d="M7457.962,2384.747l10.156,5.858v43.96l-10.156-5.859Z" transform="translate(-7440.819 -2374.855)"/><path class="k" d="M7323.74,2711.311V2657.9l7.406,4.273v53.414Z" transform="translate(-7323.74 -2613.117)"/><path class="k" d="M7387.281,2747.969v-53.414l8.319,4.8v53.415Z" transform="translate(-7379.166 -2645.094)"/><path class="k" d="M7457.962,2788.754V2735.34l10.156,5.859v53.413Z" transform="translate(-7440.819 -2680.67)"/><path class="j" d="M7661.854,2807.466V2754l8.108-4.66V2802.8Z" transform="translate(-7618.669 -2692.879)"/><path class="j" d="M7730.892,2773.412v-53.469l6.675-3.836v53.469Z" transform="translate(-7678.89 -2663.894)"/><path class="k" d="M7543.027,2837.831l6.771,3.907v-53.414l-6.771-3.907Z" transform="translate(-7515.02 -2723.479)"/><path class="k" d="M7543.027,2477.781l6.771,3.907v-43.962l-6.771-3.906Z" transform="translate(-7515.02 -2417.661)"/><path class="j" d="M7610.223,2845.867l5.885-3.383v-53.469l-5.885,3.383Z" transform="translate(-7573.633 -2727.49)"/><path class="j" d="M7610.223,2441.888v43.949l5.885-3.383v-43.949Z" transform="translate(-7573.633 -2421.748)"/></g></g><g transform="translate(187.965 50.456)"><path class="b" d="M8470.31,2663.669v78.155l32.9-18.994v-78.156Z" transform="translate(-8422.55 -2617.106)"/><path class="d" d="M8129.272,2428.827l-32.9,19,47.759,27.574,32.9-18.995Z" transform="translate(-8096.373 -2428.827)"/><path class="c" d="M8144.132,2605.068l-47.759-27.575v78.156l47.759,27.574Z" transform="translate(-8096.373 -2558.505)"/><g class="g" transform="translate(1.531 29.19)"><path class="k" d="M8153.06,2683.179l-44.7-25.806V2672.9l44.7,25.8Z" transform="translate(-8108.362 -2657.373)"/><path class="k" d="M8153.06,2836.447l-44.7-25.806v15.532l44.7,25.8Z" transform="translate(-8108.362 -2791.066)"/><path class="k" d="M8153.06,2988.617l-44.7-25.8v15.531l44.7,25.805Z" transform="translate(-8108.362 -2923.802)"/></g><g class="g" transform="translate(49.526 38.663)"><path class="k" d="M8484.143,2748.583v15.531l29.517-17.042v-15.531Z" transform="translate(-8484.143 -2731.541)"/><path class="k" d="M8484.143,2912.571l29.517-17.042V2880l-29.517,17.042Z" transform="translate(-8484.143 -2861.037)"/><path class="k" d="M8484.143,3069.553l29.517-17.042v-15.531l-29.517,17.041Z" transform="translate(-8484.143 -2997.97)"/></g><g transform="translate(6.493 3.806)"><path class="e" d="M8173,2458.625l-25.785,14.887,42.881,24.779,25.785-14.888Z" transform="translate(-8147.21 -2458.625)"/><path class="c" d="M8349.1,2458.625v2.433l40.2,23.9,2.685-1.551Z" transform="translate(-8323.313 -2458.625)"/><path class="b" d="M8173,2461.058l-23.5,13.775-2.284-1.321L8173,2458.625Z" transform="translate(-8147.21 -2458.625)"/></g></g><g transform="translate(131.143 99.269)"><g transform="translate(0.002)"><path class="c" d="M7677.617,3010.182v0l28.06,16.2v66.656l-54.184-31.282V2995.1Z" transform="translate(-7651.493 -2971.588)"/><path class="d" d="M7651.493,2834.532l40.732-23.517,54.184,31.281-40.732,23.517Z" transform="translate(-7651.493 -2811.015)"/><path class="b" d="M8075.726,3079.4l40.732-23.517v66.656l-40.732,23.517Z" transform="translate(-8021.542 -3024.612)"/></g><path class="e" d="M7735.563,2837.22l-34.245,19.76,3.833,2.215,0,0,43.8,25.308,34.244-19.76Z" transform="translate(-7694.952 -2833.873)"/><g transform="translate(6.366 3.347)"><path class="c" d="M7969.44,2837.22v2.486l44.819,26.659,2.806-1.62Z" transform="translate(-7935.195 -2837.22)"/><path class="b" d="M7735.563,2839.706l-31.8,18.685-2.443-1.411,34.245-19.76Z" transform="translate(-7701.317 -2837.22)"/></g><g transform="translate(0 39.378)"><path class="f" d="M7705.659,3151.155l40.731-23.517v-.54l-40.732,23.511-54.185-31.279v.55Z" transform="translate(-7651.474 -3119.33)"/><path class="f" d="M7651.474,3229.064v.55l54.185,31.276,40.731-23.518v-.54l-40.732,23.512Z" transform="translate(-7651.474 -3215.049)"/><path class="f" d="M7651.474,3347.4v.55l54.185,31.275,40.731-23.518v-.54l-40.732,23.513Z" transform="translate(-7651.474 -3318.271)"/></g></g><g transform="translate(248.238 108.767)"><path class="b" d="M8879.712,3080.961v65.09l27.4-15.82v-65.091Z" transform="translate(-8839.936 -3042.182)"/><path class="d" d="M8595.682,2885.378l-27.4,15.818,39.777,22.965,27.4-15.819Z" transform="translate(-8568.283 -2885.378)"/><path class="c" d="M8608.061,3032.16l-39.777-22.966v65.091l39.777,22.965Z" transform="translate(-8568.283 -2993.38)"/><g class="g" transform="translate(1.275 24.31)"><path class="k" d="M8615.491,3097.209l-37.226-21.492v12.935l37.226,21.492Z" transform="translate(-8578.266 -3075.717)"/><path class="k" d="M8615.491,3224.868l-37.226-21.49v12.934l37.226,21.492Z" transform="translate(-8578.266 -3187.073)"/><path class="k" d="M8615.491,3351.588l-37.226-21.493v12.935l37.226,21.493Z" transform="translate(-8578.266 -3297.605)"/></g><g class="g" transform="translate(41.248 32.199)"><path class="k" d="M8891.233,3151.677v12.935l24.583-14.193v-12.935Z" transform="translate(-8891.233 -3137.484)"/><path class="k" d="M8891.233,3288.259l24.583-14.193v-12.935l-24.583,14.194Z" transform="translate(-8891.233 -3245.339)"/><path class="k" d="M8891.233,3418.991l24.583-14.193v-12.935l-24.583,14.194Z" transform="translate(-8891.233 -3359.373)"/></g><g transform="translate(5.408 3.169)"><path class="e" d="M8632.1,2910.193l-21.475,12.4,35.713,20.636,21.476-12.4Z" transform="translate(-8610.622 -2910.193)"/><path class="c" d="M8778.76,2910.193v2.026l33.477,19.9,2.236-1.29Z" transform="translate(-8757.285 -2910.193)"/><path class="l" d="M8632.1,2912.219l-19.571,11.473-1.9-1.1,21.475-12.4Z" transform="translate(-8610.622 -2910.193)"/></g></g><g transform="translate(204.025 67.253)"><path class="b" d="M8579.247,2749.831l-28.88,16.675v68.606h0v63.772l28.88-16.675V2813.6h0Z" transform="translate(-8508.442 -2725.629)"/><path class="c" d="M8264.04,2783.681v-68.607l-41.925-24.206v63.772h0v68.607l41.925,24.206v-63.772Z" transform="translate(-8222.115 -2674.197)"/><path class="d" d="M8250.994,2560.342l-28.879,16.675,41.925,24.2,28.88-16.674Z" transform="translate(-8222.115 -2560.342)"/><g transform="translate(5.626 2.42)"><path class="e" d="M8289.062,2579.29l-22.895,13.219,38.074,22,22.895-13.218Z" transform="translate(-8266.167 -2579.29)"/><path class="c" d="M8445.425,2579.29v2.162l35.69,21.218,2.383-1.377Z" transform="translate(-8422.53 -2579.29)"/><path class="b" d="M8289.062,2581.452l-20.865,12.23-2.029-1.173,22.895-13.219Z" transform="translate(-8266.167 -2579.29)"/></g><path class="f" d="M8611.785,2944.7l.709-.409V2816.9l-.709.409Zm-8.817,5.091.709-.409v-127.39l-.709.41Zm16.2-136.744v127.388l.708-.41V2812.639Z" transform="translate(-8554.325 -2780.415)"/><path class="f" d="M8264.86,2881.951l.709.409v-127.4l-.709-.409Zm8.115,4.682.709.41v-127.4l-.709-.409Zm9.026,5.215.71.409v-127.4l-.71-.408Zm10.865-121.129v127.4l.708.41v-127.4Z" transform="translate(-8259.4 -2729.745)"/></g><g transform="translate(305.173 118.329)"><path class="b" d="M9361.032,3159.405h0l-28.06,16.2v66.656l54.185-31.281v-66.657Z" transform="translate(-9292.24 -3120.811)"/><path class="d" d="M9108.97,2983.763l-40.731-23.516-54.184,31.281,40.732,23.516Z" transform="translate(-9014.055 -2960.246)"/><path class="c" d="M9054.787,3228.639l-40.732-23.517v66.656l40.731,23.516Z" transform="translate(-9014.055 -3173.847)"/><path class="e" d="M9114,2986.461l34.244,19.759-3.836,2.215,0,0-43.8,25.308-34.244-19.759Z" transform="translate(-9059.689 -2983.113)"/><g transform="translate(6.682 3.348)"><path class="b" d="M9114,2986.461v2.485l-44.821,26.659-2.806-1.618Z" transform="translate(-9066.371 -2986.461)"/><path class="c" d="M9439.268,2988.946l31.8,18.686,2.442-1.412-34.243-19.759Z" transform="translate(-9391.642 -2986.461)"/></g><g class="g" transform="translate(0.001 39.379)"><path class="m" d="M9054.8,3300.392l54.183-31.276v-.55l-54.184,31.28-40.733-23.512v.541Z" transform="translate(-9014.063 -3268.565)"/><g transform="translate(0 14.015)"><path class="m" d="M9054.8,3410.126l54.183-31.277v-.549l-54.184,31.28-40.733-23.513v.542Z" transform="translate(-9014.063 -3378.3)"/></g><g transform="translate(0 29.129)"><path class="m" d="M9054.8,3528.462l54.183-31.276v-.55l-54.184,31.28-40.733-23.512v.54Z" transform="translate(-9014.063 -3496.636)"/></g></g></g><g transform="translate(295.796 184.097)"><path class="b" d="M9252.075,3670.764v65.09l27.4-15.818v-65.092Z" transform="translate(-9212.299 -3631.985)"/><path class="d" d="M8968.042,3475.177l-27.4,15.819,39.775,22.965,27.4-15.818Z" transform="translate(-8940.643 -3475.177)"/><path class="c" d="M8980.418,3621.962,8940.643,3599v65.092l39.775,22.963Z" transform="translate(-8940.643 -3583.183)"/><g transform="translate(4.994 2.875)"><path class="e" d="M9001.221,3497.686l-21.474,12.4,35.712,20.637,21.475-12.4Z" transform="translate(-8979.747 -3497.686)"/><path class="c" d="M9147.88,3497.686v2.026l33.479,19.9,2.233-1.292Z" transform="translate(-9126.406 -3497.686)"/><path class="b" d="M9001.221,3499.712l-19.571,11.472-1.9-1.1,21.474-12.4Z" transform="translate(-8979.747 -3497.686)"/></g><g transform="translate(4.994 24.538)"><path class="k" d="M8979.747,3722.281l7.92,4.573V3671.87l-7.92-4.572Z" transform="translate(-8979.747 -3667.298)"/><path class="k" d="M9065.457,3771.832l7.919,4.572V3721.42l-7.919-4.573Z" transform="translate(-9054.51 -3710.519)"/><path class="k" d="M9158.992,3770.546v54.985l7.92,4.572v-54.983Z" transform="translate(-9136.1 -3757.359)"/></g><g class="g" transform="translate(43.542 30.866)"><path class="k" d="M9383.021,3771.832l-7.919,4.572V3721.42l7.92-4.573Z" transform="translate(-9363.154 -3716.847)"/><path class="k" d="M9289.481,3770.546v54.985l-7.921,4.572v-54.983Z" transform="translate(-9281.561 -3763.688)"/></g></g></g></g><g transform="translate(461 1115.85)"><g transform="translate(155.467 54.737)"><path class="n" d="M7720.07,3941.442a18.5,18.5,0,0,1-7.545,3.888,13.02,13.02,0,0,1,0-5.378,45.342,45.342,0,0,1,7.545-3.77A6.132,6.132,0,0,1,7720.07,3941.442Z" transform="translate(-7710.87 -3935.792)"/><path class="o" d="M7703.144,3968.4l-.641-.392c-1.167-.58-1.524-4.494,0-5.378l.641.392A15.149,15.149,0,0,0,7703.144,3968.4Z" transform="translate(-7701.489 -3958.862)"/><path class="p" d="M7717.61,3933.518a56.648,56.648,0,0,0-7.544,3.77l-.642-.392a42.834,42.834,0,0,1,7.544-3.768Z" transform="translate(-7708.411 -3933.128)"/></g><path class="q" d="M6890.416,3521.119v9.029l1.8,4.051,11.227,9.724s-.2-16.784,14.637-6.829c0,0,10.426,6.25,11.83,23.268l70.776,40.864s-.4-17.132,14.638-7.988c0,0,12.029,7.641,11.628,24.772,0,0,9.625,5.557,10.827,3.241v-5.421l1.028-.592v-5.326l-1.072-.771s-2.786-8-5.167-11.042l-30.076-25.233a258.94,258.94,0,0,0-27.268-34.728,353.021,353.021,0,0,0-44.913-27.552,229.943,229.943,0,0,0-23.258.4l-13.233-6.419v14.586Zm40.75,1.228c.329-5.364,7.979-3.58,11.145-1.681,7.432,3.973,13.991,8.212,21.2,12.563a60.579,60.579,0,0,1,13.624,11.438c11.1,11.811,14.983,20.667,14.983,20.667v5.473l-60.956-39.124Z" transform="translate(-6838.54 -3504.565)"/><path class="r" d="M6536.224,3588.352l47.467-27.313h-6.439l-49,27.494-29.87,24.852Z" transform="translate(-6496.572 -3553.825)"/><path class="s" d="M6487.658,3549.076v-14.585l51.877-29.926,7.384,4.093,5.417,2.575,12.593.545-49.19,27.6-29.685,24.75-1.8-4.051v-9.028Z" transform="translate(-6484.25 -3504.564)"/><g class="t" transform="translate(92.638 16.089)"><path class="u" d="M7433.146,3713.877c11.095,11.808,14.982,20.666,14.982,20.666v5.472l-33.365-21.413-1.583-20.038c2.083,1.279,4.184,2.572,6.344,3.874A60.579,60.579,0,0,1,7433.146,3713.877Z" transform="translate(-7387.174 -3689.875)"/><path class="u" d="M7220.706,3630.531c4.137,2.211,7.4,4.139,11.263,6.49l-.549,19.236-21.837-14.268-.022-9.777C7212.889,3631.644,7218.628,3630.54,7220.706,3630.531Z" transform="translate(-7209.561 -3630.531)"/></g><path class="v" d="M6540.823,3777.106l-42.432,24.755,11.229,9.723.584.077,25.883,16.361,70.778,40.864,1.338-.433,24.928,17.218,10.853,3.229,45.236-26.117Z" transform="translate(-6496.585 -3742.297)"/><g transform="translate(111.171 114.461)"><path class="w" d="M7357.516,4405.657h0c.011-.008.021-.016.031-.025l.006,0a40.511,40.511,0,0,1,7.836-4.469h0c2.048-.794,4.684-.462,7.562,1.2,6.515,3.761,11.8,12.909,11.8,20.433,0,3.26-.992,5.679-2.646,7.068h0c-.007.006-.015.01-.021.016q-.13.11-.267.208a41.846,41.846,0,0,1-7.473,4.3h0c-2.088.957-4.848.679-7.872-1.068-6.516-3.761-11.8-12.909-11.8-20.433C7354.673,4409.5,7355.744,4407.017,7357.516,4405.657Z" transform="translate(-7354.673 -4400.748)"/><path class="x" d="M7366.47,4431.434c-6.516-3.762-11.8-.712-11.8,6.811s5.281,16.671,11.8,20.433,11.8.714,11.8-6.811S7372.985,4435.2,7366.47,4431.434Z" transform="translate(-7354.673 -4426.109)"/><path class="y" d="M7395.655,4474.063c-4.155-2.4-7.523-.453-7.523,4.345a16.629,16.629,0,0,0,7.523,13.03c4.155,2.4,7.523.454,7.523-4.343A16.633,16.633,0,0,0,7395.655,4474.063Z" transform="translate(-7383.858 -4463.804)"/><path class="u" d="M7392,4473.063a8.122,8.122,0,0,0-.266,2.147,16.629,16.629,0,0,0,7.521,13.031,6.583,6.583,0,0,0,3.652,1.019c-.873,3.176-3.79,4.2-7.256,2.2a16.628,16.628,0,0,1-7.523-13.03C7388.132,4475.157,7389.693,4473.214,7392,4473.063Z" transform="translate(-7383.858 -4463.827)"/><path class="x" d="M7390.9,4482.446c-.011.164-.02.33-.02.5a11.69,11.69,0,0,0,2.253,6.407c.2.543-.143,1.219-1.08,1.6a13.935,13.935,0,0,0,1.1,1.375c-.034-.612.422-1.9,1.089-1.6a9.342,9.342,0,0,0,2.1,1.7,4.12,4.12,0,0,0,3.469.57,3.536,3.536,0,0,1,1.725,2.594,3.211,3.211,0,0,0,1.291-1.128,2.589,2.589,0,0,1-1.7-2.531,4.789,4.789,0,0,0,.682-2.661,9.684,9.684,0,0,0-.534-3.036,1.227,1.227,0,0,1,1.655-.311,9.107,9.107,0,0,0-.683-1.584,1.163,1.163,0,0,1-1.631.306,12.118,12.118,0,0,0-3.564-4.381,2.417,2.417,0,0,1,0-2.2,9.4,9.4,0,0,0-1.689-.948,1.971,1.971,0,0,1,0,2.217c-1.772-.652-3.249-.147-3.982,1.26q-1.225-.091-1.908-1.8a4.41,4.41,0,0,0-.553,1.793C7389.972,4480.609,7390.531,4481.384,7390.9,4482.446Zm3.667,2.942c0-1.05.737-1.477,1.647-.952a3.645,3.645,0,0,1,1.649,2.857c0,1.051-.737,1.477-1.649.951A3.642,3.642,0,0,1,7394.569,4485.389Z" transform="translate(-7384.554 -4467.358)"/></g><g transform="translate(13.663 58.621)"><path class="w" d="M6594.068,3968.454h0a.271.271,0,0,0,.032-.023l0,0a40.658,40.658,0,0,1,7.835-4.469h0c2.047-.794,4.684-.463,7.563,1.2,6.515,3.763,11.8,12.911,11.8,20.434,0,3.26-.992,5.679-2.647,7.068h0l-.02.017c-.086.071-.176.14-.266.208a42,42,0,0,1-7.474,4.3v0c-2.088.956-4.847.678-7.873-1.067-6.515-3.762-11.8-12.91-11.8-20.434C6591.226,3972.293,6592.3,3969.813,6594.068,3968.454Z" transform="translate(-6591.226 -3963.545)"/><path class="x" d="M6603.021,3994.232c-6.515-3.763-11.8-.713-11.8,6.81s5.281,16.671,11.8,20.434,11.8.712,11.8-6.811S6609.539,3997.994,6603.021,3994.232Z" transform="translate(-6591.226 -3988.906)"/><path class="y" d="M6632.207,4036.855c-4.153-2.4-7.521-.454-7.521,4.344a16.632,16.632,0,0,0,7.521,13.031c4.158,2.4,7.526.455,7.526-4.344A16.625,16.625,0,0,0,6632.207,4036.855Z" transform="translate(-6620.412 -4026.596)"/><path class="u" d="M6628.556,4035.864a8.119,8.119,0,0,0-.267,2.146,16.634,16.634,0,0,0,7.524,13.033,6.568,6.568,0,0,0,3.651,1.016c-.873,3.177-3.792,4.2-7.258,2.2a16.629,16.629,0,0,1-7.521-13.03C6624.685,4037.957,6626.248,4036.013,6628.556,4035.864Z" transform="translate(-6620.412 -4026.627)"/><path class="w" d="M6627.454,4045.246c-.011.163-.021.328-.021.5a11.706,11.706,0,0,0,2.254,6.406,1.415,1.415,0,0,1-1.08,1.6,14.351,14.351,0,0,0,1.105,1.375c.026-.869.3-1.487,1.09-1.606a9.336,9.336,0,0,0,2.1,1.7,4.117,4.117,0,0,0,3.47.57,3.505,3.505,0,0,1,1.721,2.582,3.175,3.175,0,0,0,1.279-1.12,2.572,2.572,0,0,1-1.685-2.526,4.793,4.793,0,0,0,.683-2.663,9.679,9.679,0,0,0-.535-3.036,1.229,1.229,0,0,1,1.656-.31c-.191-.522-.426-1.05-.684-1.584a1.164,1.164,0,0,1-1.631.306,12.136,12.136,0,0,0-3.565-4.383,2.415,2.415,0,0,1,0-2.2,11.218,11.218,0,0,0-1.69-.947,1.967,1.967,0,0,1,0,2.217c-1.772-.653-3.248-.148-3.982,1.26q-1.222-.091-1.906-1.8a6.048,6.048,0,0,0-.553,1.794C6626.524,4043.408,6627.083,4044.183,6627.454,4045.246Zm3.667,2.943c0-1.052.738-1.479,1.648-.953a3.644,3.644,0,0,1,1.649,2.856c0,1.051-.738,1.478-1.649.952A3.646,3.646,0,0,1,6631.121,4048.188Z" transform="translate(-6621.107 -4030.157)"/></g><g transform="translate(33.57 31.067)"><g transform="translate(20.975)"><path class="z" d="M6933.788,3774.073l4.784,19-17.358,10.021,4.123,4.974,16.9-9.755,18.113,10.457-21.409,12.178-17.953-10.366a8.141,8.141,0,0,1-3.664-5.241c-1.666-7.86-8.249-16.307-5.215-18.408Z" transform="translate(-6911.318 -3770.718)"/><path class="aa" d="M6942.834,3771.879c-.343-2.24-2.2-2.417-3.664-1.476l-21.682,12.864c1.059-.562,2.431-1.038,3.662,1.475A51.831,51.831,0,0,0,6942.834,3771.879Z" transform="translate(-6916.701 -3767.048)"/><path class="ab" d="M7148.979,4016.31v3.761c.236,2.7-16.842,13.476-21.409,12.179v-3.763Z" transform="translate(-7099.95 -3982.017)"/><g transform="translate(11.338 4.41)"><g transform="translate(0 2.519)"><path class="ac" d="M7000.557,3808.1a.468.468,0,0,0,.467-.468v-5.111a.469.469,0,0,0-.937,0v5.111A.468.468,0,0,0,7000.557,3808.1Z" transform="translate(-7000.087 -3802.055)"/></g><g transform="translate(4.244)"><path class="ac" d="M7033.787,3788.379a.469.469,0,0,0,.469-.468V3782.8a.469.469,0,0,0-.937,0v5.111A.469.469,0,0,0,7033.787,3788.379Z" transform="translate(-7033.318 -3782.332)"/></g></g><g transform="translate(7.938)"><path class="ad" d="M6975.716,3758.216l-1.934-1.965s-1.048-1.262.674-3.891a10.115,10.115,0,0,1,3.961-3.532c1.058-.533,2.966-1.66,4.179-.549l2.01,2.06Z" transform="translate(-6973.467 -3747.807)"/><path class="ae" d="M6994.416,3764.467c2.229-1.289,4.053-.825,4.053,1.029s-1.823,4.425-4.053,5.711l-1.5.867c-2.228,1.288-4.054.824-4.054-1.03s1.824-4.425,4.054-5.711Z" transform="translate(-6986.895 -3761.703)"/></g></g><g transform="translate(0 4.831)"><path class="z" d="M6769.559,3871.394l4.783,19-17.355,10.021,4.12,4.973,16.9-9.756,18.111,10.459-21.408,12.176-17.954-10.365a8.139,8.139,0,0,1-3.662-5.241c-1.666-7.861-8.249-16.307-5.216-18.408Z" transform="translate(-6747.089 -3860.44)"/><path class="z" d="M6803.609,3798.061a.034.034,0,0,0,0,.012l20.972-12.441a77.519,77.519,0,0,0,4.783,19,48.713,48.713,0,0,1-21,12.191c.007.079.013.159.021.239a48.835,48.835,0,0,1-21.251,12.267,82.8,82.8,0,0,0-5.216-18.409Z" transform="translate(-6777.476 -3785.632)"/><path class="af" d="M6778.6,3869.2c-.344-2.239-2.2-2.417-3.663-1.476l-21.682,12.864c1.058-.562,2.431-1.037,3.661,1.476A51.822,51.822,0,0,0,6778.6,3869.2Z" transform="translate(-6752.472 -3856.768)"/><path class="ab" d="M6984.753,4113.637v3.763c.235,2.7-16.841,13.476-21.408,12.176v-3.762Z" transform="translate(-6935.725 -4071.744)"/><path class="ag" d="M6843.744,3946.7c7.229-3.6,15.378-6.91,21.249-12.268,4.772.475,15.337,5.608,18.112,10.458,2.158,2.839-16.153,12.567-20.848,12.669,1.12,3.256-18.088,13.211-21.532,12.384-.854-2.407-11.4-10.2-17.959-10.812C6830.862,3956.351,6842.8,3947.066,6843.744,3946.7Z" transform="translate(-6813.101 -3915.427)"/><g transform="translate(11.338 12.009)"><g transform="translate(0 2.517)"><path class="u" d="M6836.331,3905.413a.47.47,0,0,0,.47-.469v-5.113a.468.468,0,0,0-.937,0v5.113A.468.468,0,0,0,6836.331,3905.413Z" transform="translate(-6835.864 -3899.364)"/></g><g transform="translate(4.243)"><path class="u" d="M6869.554,3885.7a.468.468,0,0,0,.469-.469v-5.11a.468.468,0,0,0-.937,0v5.11A.468.468,0,0,0,6869.554,3885.7Z" transform="translate(-6869.086 -3879.658)"/></g></g><g transform="translate(7.937 7.599)"><path class="ah" d="M6811.481,3855.541l-1.934-1.965s-1.046-1.263.676-3.892a10.1,10.1,0,0,1,3.96-3.533c1.059-.534,2.967-1.658,4.178-.547l2.012,2.061Z" transform="translate(-6809.233 -3845.131)"/><path class="ae" d="M6830.19,3861.791c2.229-1.288,4.054-.825,4.054,1.03s-1.824,4.424-4.054,5.712l-1.5.866c-2.23,1.286-4.054.822-4.054-1.032s1.823-4.423,4.054-5.71Z" transform="translate(-6822.669 -3859.027)"/></g></g></g><path class="ai" d="M6801.194,3869.295c.658-.113,1.412-.248,2.215-.388a79.659,79.659,0,0,1,8.982-1.3.314.314,0,0,1,.157.04c4.117,2.2,7.368,4.118,11.277,6.5a.324.324,0,0,1,.157.288l-.549,19.236a.325.325,0,0,1-.328.319.322.322,0,0,1-.178-.054l-21.836-14.268a.326.326,0,0,1-.148-.273l-.024-9.777A.328.328,0,0,1,6801.194,3869.295Z" transform="translate(-6760.475 -3821.239)"/><g transform="translate(91.687 47.45)"><path class="ah" d="M7224.593,3902.35l4.781,19.005-17.356,10.02,4.121,4.975,16.9-9.756,18.114,10.458-21.409,12.178-17.954-10.367a8.137,8.137,0,0,1-3.663-5.239c-1.666-7.861-8.249-16.308-5.215-18.41Z" transform="translate(-7202.121 -3898.995)"/><path class="z" d="M7258.652,3913.9l-21.682,12.864a82.994,82.994,0,0,1,5.216,18.411,48.822,48.822,0,0,0,21.249-12.27A77.531,77.531,0,0,1,7258.652,3913.9Z" transform="translate(-7232.52 -3909.072)"/><path class="af" d="M7233.638,3900.154c-.343-2.24-2.2-2.417-3.661-1.476l-21.684,12.864c1.06-.561,2.431-1.037,3.663,1.476A51.839,51.839,0,0,0,7233.638,3900.154Z" transform="translate(-7207.505 -3895.323)"/><path class="ab" d="M7439.784,4144.587v3.762c.235,2.7-16.841,13.478-21.41,12.178v-3.764Z" transform="translate(-7390.754 -4110.293)"/><path class="ag" d="M7299.055,4062.7a58.608,58.608,0,0,1-21.249,12.27c6.559.608,17.105,8.4,17.959,10.81,3.533.849,23.658-9.651,21.4-12.622C7314.393,4068.312,7303.829,4063.178,7299.055,4062.7Z" transform="translate(-7268.139 -4038.867)"/><g transform="translate(11.337 4.41)"><g transform="translate(0 2.518)"><path class="u" d="M7291.357,3936.368a.468.468,0,0,0,.468-.468v-5.11a.468.468,0,1,0-.937,0v5.11A.468.468,0,0,0,7291.357,3936.368Z" transform="translate(-7290.888 -3930.32)"/></g><g transform="translate(4.246)"><path class="u" d="M7324.6,3916.655a.467.467,0,0,0,.468-.467v-5.111a.468.468,0,1,0-.936,0v5.111A.466.466,0,0,0,7324.6,3916.655Z" transform="translate(-7324.131 -3910.609)"/></g></g><g transform="translate(7.937)"><path class="ah" d="M7266.514,3886.49l-1.932-1.966s-1.051-1.261.675-3.89a10.072,10.072,0,0,1,3.961-3.533c1.059-.534,2.967-1.66,4.178-.549l2.011,2.061Z" transform="translate(-7264.265 -3876.08)"/><path class="ae" d="M7285.226,3892.749c2.23-1.286,4.055-.824,4.055,1.031s-1.824,4.423-4.055,5.712l-1.5.865c-2.23,1.287-4.054.824-4.054-1.031s1.823-4.424,4.054-5.712Z" transform="translate(-7277.705 -3889.984)"/></g></g><g transform="translate(67.872 64.121)"><path class="z" d="M7038.126,4032.866l4.783,19-17.357,10.021,4.123,4.975,16.9-9.756,18.113,10.458-21.409,12.176-17.955-10.365a8.14,8.14,0,0,1-3.663-5.239c-1.666-7.861-8.249-16.309-5.216-18.409Z" transform="translate(-7015.656 -4029.511)"/><path class="z" d="M7072.188,4044.431l-21.682,12.863a82.817,82.817,0,0,1,5.216,18.41,48.815,48.815,0,0,0,21.25-12.27A77.5,77.5,0,0,1,7072.188,4044.431Z" transform="translate(-7046.056 -4039.6)"/><path class="af" d="M7047.171,4030.675c-.342-2.24-2.2-2.418-3.662-1.477l-21.683,12.864c1.059-.562,2.432-1.037,3.663,1.476A51.827,51.827,0,0,0,7047.171,4030.675Z" transform="translate(-7021.038 -4025.844)"/><path class="ab" d="M7253.329,4275.1v3.763c.234,2.7-16.842,13.477-21.409,12.177v-3.762Z" transform="translate(-7204.298 -4240.805)"/><path class="ag" d="M7112.592,4193.222a58.6,58.6,0,0,1-21.25,12.269c6.558.609,17.106,8.4,17.959,10.813,3.534.848,23.66-9.653,21.4-12.625C7127.929,4198.829,7117.365,4193.7,7112.592,4193.222Z" transform="translate(-7081.675 -4169.387)"/><g transform="translate(11.339 4.409)"><g transform="translate(0 2.517)"><path class="u" d="M7104.907,4066.883a.468.468,0,0,0,.468-.468V4061.3a.468.468,0,1,0-.937,0v5.111A.468.468,0,0,0,7104.907,4066.883Z" transform="translate(-7104.438 -4060.836)"/></g><g transform="translate(4.244)"><path class="u" d="M7138.138,4047.175a.468.468,0,0,0,.468-.468V4041.6a.468.468,0,1,0-.936,0v5.111A.467.467,0,0,0,7138.138,4047.175Z" transform="translate(-7137.671 -4041.128)"/></g></g><g transform="translate(7.938)"><path class="ah" d="M7080.058,4017.014l-1.933-1.966s-1.048-1.262.675-3.89a10.092,10.092,0,0,1,3.961-3.535c1.057-.533,2.965-1.656,4.177-.547l2.012,2.061Z" transform="translate(-7077.809 -4006.604)"/><path class="ae" d="M7098.755,4023.265c2.229-1.287,4.053-.824,4.053,1.03s-1.823,4.425-4.053,5.712l-1.5.865c-2.229,1.288-4.056.824-4.056-1.03s1.826-4.424,4.056-5.711Z" transform="translate(-7091.234 -4020.501)"/></g></g><path class="aj" d="M7280.576,4021.784c4.753-5.555,14.156-10.64,19.041-11.19,1.393.4,1.662.866,3.061,1.491,8.885-5.282,17.8-10.329,31.771-18.543a24.159,24.159,0,0,1,5.846,5.863l-48.19,28.239Z" transform="translate(-7178.868 -3931.089)"/><path class="ai" d="M7002.1,3930.372a.328.328,0,0,1,.342,0l.692.425c1.835,1.125,3.729,2.29,5.655,3.451a59.689,59.689,0,0,1,13.155,10.926c.178.19.354.38.531.566,11.008,11.715,15.006,20.669,15.046,20.759a.355.355,0,0,1,.028.131v5.474a.326.326,0,0,1-.172.286.331.331,0,0,1-.157.041.336.336,0,0,1-.177-.051l-33.365-21.416a.324.324,0,0,1-.15-.25l-1.585-20.037A.33.33,0,0,1,7002.1,3930.372Z" transform="translate(-6935.821 -3875.945)"/><path class="ak" d="M6510.928,3534.491a193.558,193.558,0,0,1,24.97-16.306,214.892,214.892,0,0,1,26.907-13.621l13.233,6.419-51.876,29.925Z" transform="translate(-6507.521 -3504.565)"/><path class="ak" d="M6484.249,3755.428v9.028l1.8,4.051,11.227,9.724s-.2-16.786,14.637-6.829c0,0,10.427,6.25,11.831,23.267l70.777,40.864s-.4-17.132,14.638-7.987c0,0,12.029,7.639,11.629,24.771,3.053,1.625,8.077,3.272,10.826,3.241v-5.421l1.026-.592v-5.326l-1.069-.772a16.843,16.843,0,0,0-5.169-11.041c-4.766-6.785-16.782-15.813-30.076-25.234a259.212,259.212,0,0,0-27.269-34.729,314.631,314.631,0,0,0-44.912-27.551,229.167,229.167,0,0,0-23.259.4l-13.234-6.417,0,14.585Zm66.757,8.237c2.084,1.278,4.186,2.57,6.344,3.873a60.554,60.554,0,0,1,13.622,11.44c11.1,11.809,14.985,20.665,14.985,20.665v5.473L6552.59,3783.7Zm-26.006-7.01c3.328-.567,9.067-1.669,11.146-1.681,4.137,2.213,7.4,4.14,11.263,6.492l-.55,19.235-21.9-14.309Z" transform="translate(-6484.249 -3708.949)"/><path class="ak" d="M7413.671,4039.327c10.021,8.486,20.939,16.744,30.731,25.115l-25.124,17.056-27.224,13.2c-7.814-9.389-19.051-16.838-30.258-25.443Z" transform="translate(-7249.715 -3971.027)"/><path class="al" d="M7655.565,4247.128l-51.874,29.924a19.236,19.236,0,0,0-4.986-10.832l27.224-13.2,25.124-17.056C7653.872,4238.858,7654.841,4243.263,7655.565,4247.128Z" transform="translate(-7456.366 -4142.552)"/><path class="am" d="M7698,4329.388v5.325l-1.028.592-50.848,29.333v-5.326Z" transform="translate(-7497.727 -4224.041)"/><path class="an" d="M6513.727,3760.7v11.688l-2.8-2.362v-10.679Z" transform="translate(-6507.52 -3726.806)"/><path class="ao" d="M6513.727,3837.849v.955l-2.8-2.362v-.955Z" transform="translate(-6507.52 -3793.221)"/><path class="ap" d="M6614.545,3580.7l23.258-.4,51.875-29.925a177.009,177.009,0,0,0-23.257.4Zm23.01-1.818-18.789.423c15.685-9.032,31.453-18.392,48.843-27.737h17.413C6668.843,3560.3,6652.932,3569.31,6637.555,3578.882Z" transform="translate(-6597.903 -3544.355)"/><path class="q" d="M7647.133,4146.182a1.5,1.5,0,0,1,1.345,0,.411.411,0,0,1,0,.777,1.48,1.48,0,0,1-1.345,0A.41.41,0,0,1,7647.133,4146.182Z" transform="translate(-7498.365 -4064.095)"/><path class="q" d="M7559.126,4195.828a1.486,1.486,0,0,1,1.345,0,.411.411,0,0,1,0,.777,1.492,1.492,0,0,1-1.345,0A.41.41,0,0,1,7559.126,4195.828Z" transform="translate(-7421.598 -4107.398)"/><path class="aq" d="M7382.224,4429.708l3.214-1.4c-.787-6.222-2.2-20.65-16.667-26.71-3.139-1.314-10.178-1.127-11.9,5.046,0,0,2.083-6.1,9.112-3.688a22.878,22.878,0,0,1,9.069,6.473,31.335,31.335,0,0,1,7.175,20.281Z" transform="translate(-7245.416 -4286.454)"/><path class="x" d="M6791.568,4157.941l71.131,41.168a18.613,18.613,0,0,0-.105,1.967l-70.775-40.859Z" transform="translate(-6752.317 -4074.491)"/><path class="ac" d="M7944.192,4252.484l2.715-5.462c1.162-.882,4.275-2.9,4.76-3.248,2.543,3.085,2.967,6.4,3.475,9.221l-11.15,6.436C7942.489,4260.394,7941.129,4258.354,7944.192,4252.484Z" transform="translate(-7756.123 -4149.361)"/><path class="ac" d="M7613.5,4463.808l-6.859-.524c-1.347.562-3.285,1.569-3.83,1.817a19.2,19.2,0,0,1,4.321,9.282l12.968-7.308C7621.7,4466.191,7620.112,4464.1,7613.5,4463.808Z" transform="translate(-7459.946 -4340.836)"/><g transform="translate(66.035 76.543)"><path class="ac" d="M7008.017,4107.311l-5.744-3.315c-.548-.317-1-.059-1,.575v.733a2.212,2.212,0,0,0,1,1.727l5.744,3.314c.549.319,1,.058,1-.573v-.732A2.212,2.212,0,0,0,7008.017,4107.311Z" transform="translate(-7001.275 -4103.86)"/><path class="ar" d="M7009.193,4110.814l4.389,2.532a1.694,1.694,0,0,1,.762,1.32v.561c0,.484-.343.681-.762.438l-.015-.007a.6.6,0,0,0,.039-.221V4115a1.317,1.317,0,0,0-.594-1.027L7009.6,4112c-.326-.187-.592-.034-.592.342v.436a.989.989,0,0,0,.033.245,1.712,1.712,0,0,1-.607-1.212v-.56C7008.432,4110.77,7008.774,4110.571,7009.193,4110.814Z" transform="translate(-7007.518 -4109.835)"/></g><path class="as" d="M7463.44,4384.937l-3.033-1.75c-.29-.168-.525-.031-.525.3v.386a1.165,1.165,0,0,0,.525.912l3.033,1.751c.29.167.528.032.528-.3v-.387A1.169,1.169,0,0,0,7463.44,4384.937Z" transform="translate(-7335.273 -4270.906)"/><g transform="translate(36.576 57.499)"><path class="ac" d="M6777.365,3958.207l-5.743-3.318c-.548-.317-1-.058-1,.575v.733a2.218,2.218,0,0,0,1,1.728l5.743,3.314c.55.318,1,.058,1-.575v-.731A2.206,2.206,0,0,0,6777.365,3958.207Z" transform="translate(-6770.625 -3954.754)"/><path class="ar" d="M6778.546,3961.709l4.388,2.534a1.694,1.694,0,0,1,.762,1.32v.56c0,.483-.344.681-.762.44l-.015-.008a.6.6,0,0,0,.04-.222v-.436a1.312,1.312,0,0,0-.593-1.026l-3.416-1.973c-.325-.187-.592-.033-.592.343v.436a1.067,1.067,0,0,0,.032.245,1.721,1.721,0,0,1-.6-1.211v-.561C6777.785,3961.665,6778.126,3961.468,6778.546,3961.709Z" transform="translate(-6776.871 -3960.731)"/></g><path class="at" d="M6905.94,3514.317l11.169,6.727c.646-.313,1.432-.792,2.173-1.178Z" transform="translate(-6852.082 -3513.071)"/><path class="at" d="M6529.817,3730.826l11.167,6.725c.646-.312,1.433-.79,2.174-1.176Z" transform="translate(-6523.998 -3701.927)"/><path class="aq" d="M6487.658,3853.072l-3.409,1.968,15.122,7.657Z" transform="translate(-6484.25 -3808.56)"/><path class="au" d="M7671.2,4373.44c-2.145,6.844-44.171,30.025-51.874,29.765-1.963-.335-5.05-3.426,0-6.412l51.874-30.086C7672.275,4368.593,7672.1,4370.9,7671.2,4373.44Z" transform="translate(-7471.959 -4256.593)"/><g transform="translate(147.326 114.157)"><path class="x" d="M7647.069,4580.5l-8.579,4.77c-1.246.822-.976,3.542,1.268,3.188,0,0,7.938-2.2,13.22-5.543Z" transform="translate(-7637.751 -4557.238)"/><path class="x" d="M7947.2,4403.673l8.191-5.124c1.309-.72,3.591.79,2.231,2.606a68.965,68.965,0,0,1-11.223,8.744Z" transform="translate(-7906.977 -4398.366)"/><path class="x" d="M7753.508,4443.517l-1.065,8.08a121.06,121.06,0,0,1-18.371,10.613l-7.333-3.124C7735.764,4454.084,7744.688,4448.939,7753.508,4443.517Z" transform="translate(-7715.373 -4437.75)"/></g><path class="av" d="M7677.568,4411.624l-.193,1.5a69.077,69.077,0,0,0,11.224-8.743,1.576,1.576,0,0,0-.187-2.318,1.79,1.79,0,0,1-.408,1.288A71.709,71.709,0,0,1,7677.568,4411.624Zm-39.584,19.874a1.577,1.577,0,0,0,1.976,1.31s7.94-2.2,13.221-5.543l-1.366-.558a61.356,61.356,0,0,1-12.447,5.07A1.742,1.742,0,0,1,7637.984,4431.5Zm11.335-8.576,7.334,3.124a121.121,121.121,0,0,0,18.371-10.613l1.065-8.079-.795.486-.865,6.563a121.018,121.018,0,0,1-18.37,10.613l-5.948-2.534Z" transform="translate(-7490.628 -4287.43)"/><path class="at" d="M7788.571,4082.541l23.548,22.683-1.2,2.525Z" transform="translate(-7621.981 -4008.721)"/><path class="at" d="M7414.9,4292.172l32.2,21.4-4.382-.406Z" transform="translate(-7296.039 -4191.578)"/><path class="ai" d="M6711.717,3561.038H6694.3c-17.392,9.345-33.469,18.715-49.155,27.745l19.1-.429C6679.625,3578.78,6695.537,3569.769,6711.717,3561.038Z" transform="translate(-6624.599 -3553.825)"/><path class="ak" d="M6796.648,3581.625s45.287-26.128,45.292-26.125l6.583-3.8a341.236,341.236,0,0,1,44.913,27.552c-14.741,10.361-41.953,25.774-51.875,29.923C6828.818,3600.23,6815.623,3591.006,6796.648,3581.625Z" transform="translate(-6756.748 -3545.681)"/><path class="aw" d="M7573.362,4464.2c-1.386.453-2.8-.292-4.264-1.95-.207,4.65.168,6.719,2.748,9.3,1.18,1.294,3.282,1.807,5.837,1.934A17.082,17.082,0,0,0,7573.362,4464.2Z" transform="translate(-7430.499 -4339.931)"/><path class="aa" d="M7635.609,4491.932l13.6-7.6a.751.751,0,0,1-.355,1.012c-.255.166-.538.322-.826.474l-12.3,6.926Z" transform="translate(-7488.556 -4359.192)"/><path class="aa" d="M7956.654,4310.079l.137.752c-.1.057-11.222,6.48-11.222,6.48a.855.855,0,0,1-1.325-.292Z" transform="translate(-7757.771 -4207.198)"/><path class="aq" d="M6660.137,3847.975l-111.531-71.257C6560.335,3785.555,6614.4,3823.269,6660.137,3847.975Z" transform="translate(-6540.386 -3741.958)"/><g class="ax" transform="translate(34.783 44.799)"><path class="x" d="M6785.913,3908.675l-21.029-12.082-.012-.118c-.6-5.921-2.5-14.321-8.109-20.715l-.057-.063-.121-11.614,1.326-.982.017-5.064.2-.029c.863-.122,14.082-2.685,16.6-2.685h.1l.054.036c.811.485,26.169,15.5,30.269,19.681.69.727,16.952,17.984,22.461,31.365l.5,1.661,1.875,2.458v23.738Zm41.779-.4-.519-1.72c-5.466-13.282-21.674-30.479-22.351-31.194-3.855-3.615-14.77-10.186-17.765-11.962l.912,18.9-1.674,1.251-.034,24.783,43.261,25.116v-22.778Zm-41.112-45.156c-2.209-1.368-10.785-6.659-11.887-7.338-2.485.009-8.081,1.094-12.172,1.885-1.792.348-3.234.628-4.132.767l-.018,4.95-1.32.948.115,11.184c5.614,6.435,7.535,14.83,8.154,20.79l20.48,11.766.035-24.8,1.658-1.278Z" transform="translate(-6756.585 -3855.323)"/></g><path class="ay" d="M7675.856,4260.149l-2.746,5.75-15.667,11.36-18.729,8.489-6.358-.539,22.962-11.452Z" transform="translate(-7485.719 -4163.646)"/><path class="q" d="M7291.029,4210.61c-1.171-.675-2.12-.126-2.12,1.226a4.689,4.689,0,0,0,2.12,3.673c1.174.677,2.122.129,2.122-1.224A4.686,4.686,0,0,0,7291.029,4210.61Z" transform="translate(-7186.137 -4120.181)"/><g transform="translate(95.1 89.645)"><path class="n" d="M7247.417,4214.787a18.508,18.508,0,0,1-7.546,3.886,13.045,13.045,0,0,1,0-5.378,45.3,45.3,0,0,1,7.546-3.768A6.134,6.134,0,0,1,7247.417,4214.787Z" transform="translate(-7238.217 -4209.134)"/><path class="o" d="M7230.491,4241.737l-.641-.391c-1.166-.582-1.523-4.5,0-5.378l.641.392A15.2,15.2,0,0,0,7230.491,4241.737Z" transform="translate(-7228.837 -4232.198)"/><path class="p" d="M7244.957,4206.842a56.164,56.164,0,0,0-7.547,3.768l-.641-.391a42.866,42.866,0,0,1,7.547-3.77Z" transform="translate(-7235.756 -4206.449)"/></g><path class="ar" d="M6701.158,3808.79c-1.477-.852-2.678-.158-2.678,1.546a5.925,5.925,0,0,0,2.678,4.637c1.477.853,2.677.158,2.677-1.546A5.928,5.928,0,0,0,6701.158,3808.79Zm0,5.592a4.792,4.792,0,0,1-2.166-3.75c0-1.379.972-1.94,2.166-1.25a4.793,4.793,0,0,1,2.165,3.75C6703.323,3814.51,6702.352,3815.072,6701.158,3814.382Z" transform="translate(-6671.119 -3769.617)"/><path class="at" d="M7549.252,4353.271l51.874-29.924,1.072.771a445.005,445.005,0,0,1-51.876,29.924c-4.808,1.707-10.452.8-12.915-.875a21.222,21.222,0,0,0-1.112-3.457C7542.215,4355.141,7546.869,4353.906,7549.252,4353.271Z" transform="translate(-7401.927 -4218.771)"/><path class="ak" d="M7553.764,4359.313a12.225,12.225,0,0,1-13.523-2.994,34.179,34.179,0,0,1,1.671,11.092c.233.829,4.657,3.939,10.826,3.241-2.12-1.889-2.2-4,0-5.42l52.9-30.518a9.973,9.973,0,0,0,0-5.326C7589.345,4339.916,7571.937,4349.825,7553.764,4359.313Z" transform="translate(-7405.369 -4224.041)"/><path class="as" d="M7569.069,4462.247c.26.293,1.048.972,1.3,1.2-.269,3.446.754,7.074,1.743,8.385-.1-.094-.206-.19-.3-.292C7569.238,4468.966,7568.861,4466.9,7569.069,4462.247Z" transform="translate(-7430.473 -4339.931)"/><path class="ai" d="M7216.5,3780.6c6.139,7.113,19.8,22.447,25.678,33.076q-23.333,13.662-48.192,28.241c-5.694-8.672-17.828-24.5-25.894-32.937A508.856,508.856,0,0,0,7216.5,3780.6Z" transform="translate(-7080.751 -3745.346)"/><path class="ap" d="M7148.3,3797.345a299.991,299.991,0,0,1,27.269,34.729l51.875-29.924a249.288,249.288,0,0,0-27.268-34.728Q7175.592,3783.187,7148.3,3797.345Zm2.53.124a417.687,417.687,0,0,0,48.408-28.379c6.136,7.113,19.8,22.446,25.676,33.076l-48.191,28.239C7171.024,3821.733,7158.891,3805.906,7150.826,3797.469Z" transform="translate(-7063.483 -3733.849)"/><g transform="translate(23.568 49.918)"><path class="w" d="M6732.517,3939.74l-1.329-.767v-1.535l1.329.768Z" transform="translate(-6723.216 -3932.069)"/><path class="w" d="M6711.715,3927.738l-1.329-.768v-1.532l1.329.766Z" transform="translate(-6705.071 -3921.602)"/><path class="w" d="M6722.114,3920.2v1.533l-1.329-.766v-1.534Z" transform="translate(-6714.142 -3916.359)"/><path class="w" d="M6680.5,3896.168v1.533l-1.329-.767V3895.4Z" transform="translate(-6677.844 -3895.4)"/><path class="w" d="M6701.316,3908.18v1.535l-1.328-.768v-1.535Z" transform="translate(-6696.001 -3905.878)"/><path class="w" d="M6690.911,3915.722l-1.329-.767v-1.535l1.329.767Z" transform="translate(-6686.924 -3911.118)"/><path class="w" d="M6670.1,3902.18v1.535l-1.328-.767v-1.534Z" transform="translate(-6668.774 -3900.646)"/></g><g transform="translate(109.343 104.576)"><path class="w" d="M7404.093,4367.7l-1.33-.768V4365.4l1.33.766Z" transform="translate(-7394.792 -4360.029)"/><path class="w" d="M7383.295,4355.681l-1.327-.766v-1.536l1.328.768Z" transform="translate(-7376.652 -4349.543)"/><path class="w" d="M7393.694,4348.147l0,1.536-1.327-.768v-1.534Z" transform="translate(-7385.723 -4344.311)"/><path class="w" d="M7352.088,4324.115v1.534l-1.328-.767v-1.535Z" transform="translate(-7349.432 -4323.347)"/><path class="w" d="M7372.887,4336.13v1.534l-1.33-.766v-1.535Z" transform="translate(-7367.573 -4333.828)"/><path class="w" d="M7362.487,4343.672l-1.328-.768v-1.534l1.328.768Z" transform="translate(-7358.503 -4339.068)"/><path class="w" d="M7341.687,4330.125v1.535l-1.328-.768v-1.534Z" transform="translate(-7340.358 -4328.59)"/></g><path class="az" d="M7012.607,3716.479l-5.142,2.964-41.525-23.974,5.133-2.969Z" transform="translate(-6904.417 -3668.497)"/><g transform="translate(66.655 6.082)"><path class="ba" d="M7016.219,3646.907l41.534,23.979-10.087,5.823-41.534-23.979Z" transform="translate(-7006.132 -3634.809)"/><path class="bb" d="M7007.89,3555.979l6.572-3.795,1.757,12.1-10.087,5.823Z" transform="translate(-7006.132 -3552.184)"/><path class="bc" d="M7049.443,3605.887,7007.89,3581.9l-1.758,14.131L7047.666,3620Z" transform="translate(-7006.132 -3578.101)"/><path class="bd" d="M7333.084,3743.683l6.572-3.8,1.758,12.1-10.087,5.823Z" transform="translate(-7289.793 -3715.914)"/><path class="be" d="M7068,3576.157l-6.573,3.8-41.533-23.974,6.572-3.795Z" transform="translate(-7018.134 -3552.184)"/></g><g transform="translate(36.568 45.265)"><path class="x" d="M6770.579,3861.624c.9-.138,2.34-.417,4.133-.765,4.091-.793,9.687-1.877,12.171-1.886,1.1.678,9.679,5.971,11.889,7.337l.914,18.874-3.018-1.928.462-16.191c-3.86-2.351-6.9-4.142-11.038-6.354-2.076.012-7.814,1.114-11.145,1.682l.019,7-4.4-2.818Z" transform="translate(-6770.564 -3858.973)"/><path class="x" d="M7012.917,3930.574c.6.632,13.368,14.181,20.083,26.5l-1.9-1.1c-1.551-2.955-5.818-10.237-14.277-19.239a60.541,60.541,0,0,0-13.623-11.441c-2.161-1.3-4.261-2.594-6.2-3.572l1.108,17.091-2.042-1.3-.914-18.9C6998.148,3920.387,7009.063,3926.959,7012.917,3930.574Z" transform="translate(-6966.468 -3910.993)"/></g><g class="g" transform="translate(69.513 17.739)"><path class="bf" d="M7087.758,3687.017l-1.236-.753.188-1.508,1.236.755Z" transform="translate(-7079.112 -3679.481)"/><path class="bf" d="M7068.426,3675.221l-1.235-.754.186-1.507,1.236.755Z" transform="translate(-7062.25 -3669.192)"/><path class="bf" d="M7079.746,3667.814l-.188,1.507-1.234-.752.188-1.508Z" transform="translate(-7071.96 -3664.046)"/><path class="bf" d="M7041.061,3644.211l-.187,1.507-1.236-.753.187-1.507Z" transform="translate(-7038.216 -3643.457)"/><path class="bf" d="M7060.4,3656.012l-.187,1.508-1.236-.753.187-1.507Z" transform="translate(-7055.082 -3653.752)"/><path class="bf" d="M7049.087,3663.418l-1.233-.755.187-1.508,1.233.754Z" transform="translate(-7045.383 -3658.895)"/><path class="bf" d="M7029.93,3650.111l-.187,1.507-1.234-.754.187-1.507Z" transform="translate(-7028.508 -3648.603)"/><g transform="translate(26.821 15.932)"><path class="bf" d="M7297.774,3811.759l-1.235-.754.187-1.508,1.236.754Z" transform="translate(-7289.127 -3804.222)"/><path class="bf" d="M7278.438,3799.967l-1.233-.754.186-1.506,1.235.753Z" transform="translate(-7272.263 -3793.938)"/><path class="bf" d="M7289.748,3792.553l-.187,1.506-1.236-.753.188-1.508Z" transform="translate(-7281.962 -3788.784)"/><path class="bf" d="M7251.074,3768.951l-.187,1.508-1.235-.755.187-1.507Z" transform="translate(-7248.229 -3768.198)"/><path class="bf" d="M7270.416,3780.749l-.187,1.507-1.234-.755.188-1.508Z" transform="translate(-7265.1 -3778.487)"/><path class="bf" d="M7259.093,3788.166l-1.235-.753.188-1.507,1.235.753Z" transform="translate(-7255.386 -3783.643)"/><path class="bf" d="M7239.93,3774.851l-.187,1.508-1.236-.753.188-1.508Z" transform="translate(-7238.506 -3773.344)"/></g></g><path class="aq" d="M6609.093,3962.395a32.786,32.786,0,0,0-2.03-3.882,37.112,37.112,0,0,0-2.5-3.619,29.348,29.348,0,0,0-2.974-3.276,24.155,24.155,0,0,0-3.514-2.742,15.957,15.957,0,0,0-4.1-1.852,10.477,10.477,0,0,0-4.525-.277,9.58,9.58,0,0,0-1.11.256c-.092.027-.182.054-.271.084l-.136.044-.046.017-.033.012-.064.027c-.17.068-.345.14-.517.217a7.043,7.043,0,0,0-1.915,1.222,6.512,6.512,0,0,0-1.358,1.787,8.267,8.267,0,0,0-.731,2.075,7.668,7.668,0,0,1,2.442-3.44,6.683,6.683,0,0,1,1.836-.963c.167-.058.334-.112.506-.164.144-.048.329-.092.493-.13a8.848,8.848,0,0,1,1.027-.168,10.257,10.257,0,0,1,4.1.443,15.636,15.636,0,0,1,3.791,1.788,24.151,24.151,0,0,1,3.387,2.572q.8.7,1.553,1.473t1.466,1.572q1.424,1.619,2.723,3.36C6607.465,3959.986,6608.294,3961.177,6609.093,3962.395Z" transform="translate(-6570.619 -3890.153)"/></g><path class="k" d="M8103.744,4316.59l-10.223-5.915c.66-1.777-.2-3.705-2.59-5.086a15.007,15.007,0,0,0-13.577,0c-3.75,2.165-3.748,5.675,0,7.839a15.228,15.228,0,0,0,11.783.808l11.964,6.922a14.717,14.717,0,0,1-.195,25.588l-96.461,53.871a28.2,28.2,0,0,1-13.725,3.574h-.154a28.172,28.172,0,0,1-13.8-3.7l-111.116-66.329-2.706,4.533,111.158,66.352a33.489,33.489,0,0,0,16.434,4.422h.183a33.481,33.481,0,0,0,16.3-4.243l96.461-53.871a19.995,19.995,0,0,0,.265-34.765Z" transform="translate(-7225.857 -3086.016)"/><g transform="translate(837.374 1151.273)"><path class="bg" d="M9455.291,3855.929c-3.238-1.856-5.52-3.149-7.9-4.446a95.315,95.315,0,0,1-14.609-24.018c-4.909-14.6.909-32.813,17.081-43.3,8.427-4.784,16.611-.795,19.508,1.562C9431.312,3798.185,9435.332,3824.441,9455.291,3855.929Z" transform="translate(-9431.096 -3781.919)"/><path class="bh" d="M9506.648,3805.477a11.414,11.414,0,0,0-1.777-2.756,9.32,9.32,0,0,0-5.208-3.005c-3.077-.625-6.784.116-10.777,2.421a36.55,36.55,0,0,0-10.777,10.023,47.238,47.238,0,0,0-5.206,9.018,43.778,43.778,0,0,0-1.777,4.81,33.261,33.261,0,0,0-1.516,9.536c0,.763.038,1.5.1,2.2.07,4,6.268,15.72,9,19.836a103.463,103.463,0,0,0,10.173,13.7c3.354-7.674,6.816-16.2,10.173-25.452,2.965-8.167,7.674-23.3,7.7-23.38,0,0,.145-.6.227-.91.105-.4.482-2.026.564-2.444.073-.377.156-.758.219-1.133.076-.487.127-.962.182-1.443.037-.306.086-.613.111-.916.067-.785.1-1.561.1-2.325A18.5,18.5,0,0,0,9506.648,3805.477Zm-17.763,31.534c-6.087,3.515-11.023.665-11.023-6.366s4.937-15.578,11.023-19.092,11.023-.666,11.024,6.363S9494.975,3833.5,9488.886,3837.011Z" transform="translate(-9464.69 -3797.258)"/><path class="bi" d="M9556.969,3881.926a10.168,10.168,0,0,1,1.054,4.824c0,7.032-4.937,15.582-11.023,19.1a10.356,10.356,0,0,1-4.515,1.489c1.766,3.292,5.565,4.08,9.969,1.538,6.088-3.513,11.023-12.064,11.023-19.1C9563.477,3884.608,9560.8,3881.7,9556.969,3881.926Z" transform="translate(-9528.258 -3869.143)"/></g></g></svg>