<svg xmlns="http://www.w3.org/2000/svg" xmlns:xlink="http://www.w3.org/1999/xlink" width="537.675" height="428.4" viewBox="0 0 537.675 428.4"><defs><style>.a{fill:none;}.b{fill:#1f3598;}.c{fill:#525252;}.d{fill:#fff;}.e{fill:#647ddd;opacity:0.17;}.f{fill:#bddcff;}.g{fill:#8dc0ef;}.h{fill:#e2e8f2;}.i{fill:#d5e8fa;}.j{fill:#eff6fc;}.k{fill:#75a3ec;}.l{fill:#f2f4f9;}.m{fill:#484255;}.n{fill:#577de8;}.o{fill:#f2f4fa;}.p{fill:#3772ce;}.q{fill:#ff8358;}.r{fill:#fd8358;}.s{fill:#4568c7;}.t{fill:#ced6e9;}.u{fill:#a0d2fe;}.v{opacity:0.34;}.w{fill:#c1d7ea;}.x{isolation:isolate;}.y{clip-path:url(#a);}.z{fill:#213b4f;}.aa{fill:rgba(15,0,0,0.1);}.ab{fill:#c4e4f9;}.ac{fill:#0f62fe;}</style><clipPath id="a"><path class="a" d="M-658.633,952.816l.1-35.2L-627.9,935.3l-.1,35.2Z" transform="translate(658.633 -917.616)"/></clipPath></defs><g transform="translate(-406.325 -1494)"><path class="b" d="M1921.89,746.8l-.492.049Z" transform="translate(-1210.739 755.647)"/><g transform="translate(-1093 -8420)"><g transform="translate(849 3349)"><circle class="c" cx="130" cy="130" r="130" transform="translate(925 6565)"/></g><g transform="translate(-1430.596 11240.27)"><path class="d" d="M3303.222-964.882a6.524,6.524,0,0,1-6.441-6.434v-44.7a1.183,1.183,0,0,1,1.184-1.18,1.183,1.183,0,0,1,1.184,1.18v44.7a4.18,4.18,0,0,0,4.073,4.073h3.568a4.182,4.182,0,0,0,4.077-4.073v-33.244a1.183,1.183,0,0,1,1.184-1.18,1.183,1.183,0,0,1,1.184,1.18v33.244a6.526,6.526,0,0,1-6.444,6.434Z" transform="translate(-30.788 -184.701)"/><path class="d" d="M3352.291-955.08a6.523,6.523,0,0,1-6.44-6.434,1.183,1.183,0,0,1,1.184-1.18,1.183,1.183,0,0,1,1.184,1.18,4.18,4.18,0,0,0,4.073,4.073h3.569a4.084,4.084,0,0,0,4.077-4.073v-40.756a1.183,1.183,0,0,1,1.184-1.181,1.184,1.184,0,0,1,1.184,1.181v40.756a6.446,6.446,0,0,1-6.444,6.434Z" transform="translate(-65.771 -194.503)"/><path class="d" d="M3402.3-1059.265a7.389,7.389,0,0,1-7.382-7.379v-25.17a1.183,1.183,0,0,1,1.184-1.18,1.183,1.183,0,0,1,1.184,1.18v25.17a5.083,5.083,0,0,0,5.015,5.018,5.082,5.082,0,0,0,5.011-5.018v-25.92a1.183,1.183,0,0,1,1.184-1.18,1.183,1.183,0,0,1,1.184,1.18v25.92A7.387,7.387,0,0,1,3402.3-1059.265Z" transform="translate(-100.754 -130.13)"/><path class="d" d="M3348.791-1132.424a1.183,1.183,0,0,1-1.184-1.18,15.18,15.18,0,0,0-15.342-15.345h-19.909a1.183,1.183,0,0,1-1.184-1.18,1.183,1.183,0,0,1,1.184-1.18h19.909a17.727,17.727,0,0,1,17.709,17.706A1.183,1.183,0,0,1,3348.791-1132.424Z" transform="translate(-41.049 -89.089)"/><path class="d" d="M3319.05-1248c-6.706,0-12.452-8.7-12.452-15.829a12.463,12.463,0,0,1,12.452-12.445,12.463,12.463,0,0,1,12.452,12.445C3331.5-1256.7,3325.755-1248,3319.05-1248Zm0-25.913a10.1,10.1,0,0,0-10.084,10.084c0,5.318,4.518,13.468,10.084,13.468s10.084-8.15,10.084-13.468A10.1,10.1,0,0,0,3319.05-1273.909Z" transform="translate(-37.787)"/><path class="d" d="M3260.978-1059.265a7.389,7.389,0,0,1-7.382-7.379v-25.92a1.183,1.183,0,0,1,1.184-1.18,1.184,1.184,0,0,1,1.184,1.18v25.92a5.083,5.083,0,0,0,5.015,5.018,5.083,5.083,0,0,0,5.015-5.018v-25.17a1.183,1.183,0,0,1,1.184-1.18,1.183,1.183,0,0,1,1.184,1.18v25.17A7.389,7.389,0,0,1,3260.978-1059.265Z" transform="translate(0 -130.13)"/><path class="d" d="M3254.78-1132.424a1.183,1.183,0,0,1-1.184-1.18,17.728,17.728,0,0,1,17.712-17.706,1.183,1.183,0,0,1,1.184,1.18,1.183,1.183,0,0,1-1.184,1.18,15.362,15.362,0,0,0-15.344,15.345A1.184,1.184,0,0,1,3254.78-1132.424Z" transform="translate(0 -89.089)"/><path class="d" d="M3672.875-843.844a6.446,6.446,0,0,1-6.444-6.434v-44.7a1.183,1.183,0,0,1,1.184-1.18,1.183,1.183,0,0,1,1.184,1.18v44.7a4.084,4.084,0,0,0,4.076,4.073h3.381a4.227,4.227,0,0,0,4.261-4.073v-33.244a1.183,1.183,0,0,1,1.184-1.18,1.183,1.183,0,0,1,1.184,1.18v33.244a6.541,6.541,0,0,1-6.628,6.434Z" transform="translate(-294.325 -270.993)"/><path class="d" d="M3721.943-834.508a6.446,6.446,0,0,1-6.444-6.434,1.183,1.183,0,0,1,1.184-1.181,1.183,1.183,0,0,1,1.184,1.181,4.084,4.084,0,0,0,4.077,4.073h3.569a4.18,4.18,0,0,0,4.073-4.073v-40.944a1.184,1.184,0,0,1,1.184-1.18,1.183,1.183,0,0,1,1.184,1.18v40.944a6.524,6.524,0,0,1-6.441,6.434Z" transform="translate(-329.308 -280.329)"/><path class="d" d="M3771.949-938.415a7.3,7.3,0,0,1-7.382-7.379v-24.982a1.184,1.184,0,0,1,1.184-1.18,1.183,1.183,0,0,1,1.184,1.18v24.982a4.963,4.963,0,0,0,5.015,5.018,4.963,4.963,0,0,0,5.015-5.018v-25.732a1.183,1.183,0,0,1,1.184-1.18,1.184,1.184,0,0,1,1.184,1.18v25.732A7.3,7.3,0,0,1,3771.949-938.415Z" transform="translate(-364.29 -216.421)"/><path class="d" d="M3718.443-1011.852a1.184,1.184,0,0,1-1.184-1.181,15.457,15.457,0,0,0-15.344-15.532h-19.909a1.183,1.183,0,0,1-1.183-1.18,1.183,1.183,0,0,1,1.183-1.18h19.909a17.823,17.823,0,0,1,17.712,17.893A1.184,1.184,0,0,1,3718.443-1011.852Z" transform="translate(-304.586 -174.915)"/><path class="d" d="M3688.7-1127.146c-6.706,0-12.452-8.6-12.452-15.641a12.462,12.462,0,0,1,12.452-12.445,12.369,12.369,0,0,1,12.264,12.445C3700.962-1135.7,3695.491-1127.146,3688.7-1127.146Zm0-25.726a10.1,10.1,0,0,0-10.084,10.084c0,5.854,4.748,13.281,10.084,13.281,5.237,0,9.9-7.427,9.9-13.281A10,10,0,0,0,3688.7-1152.871Z" transform="translate(-301.323 -86.292)"/><path class="d" d="M3630.635-938.415a7.137,7.137,0,0,1-7.379-7.379v-25.732a1.183,1.183,0,0,1,1.183-1.18,1.183,1.183,0,0,1,1.184,1.18v25.732a4.851,4.851,0,0,0,5.012,5.018,4.963,4.963,0,0,0,5.015-5.018v-24.982a1.183,1.183,0,0,1,1.184-1.18,1.184,1.184,0,0,1,1.184,1.18v24.982A7.3,7.3,0,0,1,3630.635-938.415Z" transform="translate(-263.544 -216.421)"/><path class="d" d="M3624.439-1011.852a1.183,1.183,0,0,1-1.183-1.181,17.822,17.822,0,0,1,17.708-17.893,1.183,1.183,0,0,1,1.184,1.18,1.183,1.183,0,0,1-1.184,1.18,15.455,15.455,0,0,0-15.342,15.532A1.184,1.184,0,0,1,3624.439-1011.852Z" transform="translate(-263.544 -174.915)"/><path class="d" d="M3520.144-1070a1.2,1.2,0,0,1-.6-.165l-23.285-13.52a1.188,1.188,0,0,1-.426-1.621,1.207,1.207,0,0,1,1.037-.582,1.167,1.167,0,0,1,.589.157l23.282,13.518a1.187,1.187,0,0,1,.426,1.621A1.193,1.193,0,0,1,3520.144-1070Z" transform="translate(-172.587 -135.728)"/><path class="d" d="M3547.227-1034.188a1.182,1.182,0,0,1-1.142-.9,1.176,1.176,0,0,1,.128-.9,1.166,1.166,0,0,1,.719-.538l8.833-2.259a1.191,1.191,0,0,1,.309-.043,1.182,1.182,0,0,1,1.133.9,1.175,1.175,0,0,1-.13.9,1.165,1.165,0,0,1-.719.538l-8.833,2.259A1.121,1.121,0,0,1,3547.227-1034.188Z" transform="translate(-208.499 -169.285)"/><path class="d" d="M3572.384-1058.807a1.18,1.18,0,0,1-1.144-.9l-2.255-9.013a1.182,1.182,0,0,1,.132-.9,1.173,1.173,0,0,1,.725-.538,1.239,1.239,0,0,1,.272-.03,1.188,1.188,0,0,1,1.163.891l2.255,9.013a1.181,1.181,0,0,1-.132.9,1.171,1.171,0,0,1-.725.538A1.221,1.221,0,0,1,3572.384-1058.807Z" transform="translate(-224.827 -146.925)"/><path class="d" d="M3520.144-943.715a1.2,1.2,0,0,1-.6-.165l-23.285-13.52a1.188,1.188,0,0,1-.426-1.621,1.208,1.208,0,0,1,1.037-.582,1.167,1.167,0,0,1,.589.157l23.282,13.518a1.187,1.187,0,0,1,.426,1.621A1.193,1.193,0,0,1,3520.144-943.715Z" transform="translate(-172.587 -225.764)"/><path class="d" d="M3496.854-963.345a1.184,1.184,0,0,1-1.137-.877,1.176,1.176,0,0,1,.115-.9,1.17,1.17,0,0,1,.715-.551l9.052-2.456a1.045,1.045,0,0,1,.291-.042,1.194,1.194,0,0,1,1.125.882,1.173,1.173,0,0,1-.115.9,1.17,1.17,0,0,1-.715.551l-9.018,2.446A1.156,1.156,0,0,1,3496.854-963.345Z" transform="translate(-172.587 -219.657)"/><path class="d" d="M3499.107-948.244a1.18,1.18,0,0,1-1.144-.9l-2.254-9.013a1.179,1.179,0,0,1,.132-.9,1.173,1.173,0,0,1,.725-.538,1.225,1.225,0,0,1,.293-.036,1.179,1.179,0,0,1,1.143.9l2.255,9.013a1.18,1.18,0,0,1-.132.9,1.172,1.172,0,0,1-.725.538A1.223,1.223,0,0,1,3499.107-948.244Z" transform="translate(-172.585 -225.745)"/></g></g><g transform="translate(26)"><path class="e" d="M2082.343,1008.589c-14.278,0-25.894,7.664-25.894,17.085s11.616,17.085,25.894,17.085,25.893-7.664,25.893-17.085S2096.62,1008.589,2082.343,1008.589Z" transform="translate(-1227.594 766.882)"/><path class="f" d="M2102.192,998.561l-6,30.1H2056.41l-6-30.1Z" transform="translate(-1217.708 756.457)"/><path class="f" d="M2096.515,1029.69c0,5.088-7.708,10.748-18.906,11.063-.323.007-.653.015-.983.015-11.723,0-19.889-5.84-19.889-11.078s8.166-11.086,19.889-11.086a31.763,31.763,0,0,1,8.278,1.058C2092.019,1021.576,2096.515,1025.8,2096.515,1029.69Z" transform="translate(-1218.034 755.424)"/><path class="g" d="M2103.653,998.561l-6,30.1c0,5.089-7.708,10.748-18.906,11.063a19.463,19.463,0,0,0,3.5-4.653,27.867,27.867,0,0,0,2.424-6.41,53.025,53.025,0,0,0,1.374-10.027c.1-1.718.157-3.437.2-5.141q.214-7.465.435-14.928Z" transform="translate(-1219.168 756.457)"/><ellipse class="h" cx="25.893" cy="17.085" rx="25.893" ry="17.085" transform="translate(832.698 1737.93)"/><ellipse class="b" cx="19.889" cy="11.081" rx="19.889" ry="11.081" transform="translate(838.702 1743.934)"/><circle class="g" cx="17.859" cy="17.859" r="17.859" transform="translate(838.103 1684.891) rotate(-80.783)"/><circle class="g" cx="12.663" cy="12.663" r="12.663" transform="translate(842.047 1689.527) rotate(-22.5)"/><ellipse class="g" cx="13.784" cy="13.784" rx="13.784" ry="13.784" transform="translate(840.582 1735.802) rotate(-67.5)"/><path class="g" d="M2082.4,1000.239a4.959,4.959,0,1,1-4.958-4.958A4.959,4.959,0,0,1,2082.4,1000.239Z" transform="translate(-1218.845 756.626)"/><path class="g" d="M2091,920.662c-3.962,5.058-3.837,6.494-2.221,10.754H2065.1c1.616-4.26,1.741-5.7-2.22-10.754Z" transform="translate(-1218.351 760.473)"/><path class="g" d="M2089.222,922.824c-13.063,12.178-11.5,25.676-2.1,35.758h-20.164c9.4-10.082,10.966-23.58-2.1-35.758Z" transform="translate(-1218.453 760.361)"/><path class="g" d="M2088.723,923.322c-13.534,11.651-11.128,66.215-7.893,69.973h-7.517c3.237-3.758,5.642-58.323-7.893-69.973Z" transform="translate(-1218.481 760.335)"/><path class="g" d="M2086.295,946.01c-4.409,4.567-4.506,8.451.465,13.25h-19.148c4.972-4.8,4.874-8.683.465-13.25Z" transform="translate(-1218.595 759.166)"/><path class="g" d="M2085.616,946.76c-9.507,8.364-7.917,43.98-4.642,47.7h-7.446c3.275-3.724,4.866-39.339-4.641-47.7Z" transform="translate(-1218.66 759.127)"/><path class="g" d="M2085.366,982.2c-8.94,6.492-6.423,11.24-4.088,14.456h-8.025c2.336-3.216,4.852-7.964-4.087-14.456Z" transform="translate(-1218.675 757.301)"/></g><g transform="translate(26)"><g transform="translate(10040 -11783)"><path class="b" d="M2109.767,803.177c-4.363-5.054-9.276,2.118-11.6,5.092-1.577,2.021-7.06,7.385-6.46,10.2.211.987.33.941,1.3,1.2a6.1,6.1,0,0,0,2.993-.111,17.052,17.052,0,0,0,11.561-8.6c.1,1.237.119,2.475.1,3.716a.356.356,0,0,0,.552.29q.721-.47,1.415-.979c1.726-1.275.965-3.082,1.432-5.138A6.443,6.443,0,0,0,2109.767,803.177Z" transform="translate(-11449.845 12726.582)"/><path class="g" d="M2152.312,878.718a4.37,4.37,0,0,1-3.955,0,1.206,1.206,0,0,1,0-2.284,4.376,4.376,0,0,1,3.955,0A1.205,1.205,0,0,1,2152.312,878.718Z" transform="translate(-11461.272 12711.335)"/><path class="g" d="M2153.132,811.912V863.9a.577.577,0,0,1-.043.2.458.458,0,0,1-.405.244h-4.7a.457.457,0,0,1-.4-.244.581.581,0,0,1-.042-.2V811.912a.45.45,0,0,1,.447-.447h4.7A.451.451,0,0,1,2153.132,811.912Z" transform="translate(-11461.272 12724.528)"/><path class="g" d="M2153.132,825.728a.394.394,0,0,1-.051.194.914.914,0,0,1,.051.3,1.377,1.377,0,0,1-.819,1.139,4.363,4.363,0,0,1-3.958,0,1.375,1.375,0,0,1-.818-1.139.913.913,0,0,1,.05-.3.394.394,0,0,1-.05-.194v-8.9a.45.45,0,0,1,.447-.447h4.7a.451.451,0,0,1,.448.447Z" transform="translate(-11461.272 12723.522)"/><path class="i" d="M2157.26,812.367v-9.957l-18.4,11.831,1.23,3.276Z" transform="translate(-11459.498 12726.38)"/><g transform="translate(-9558.621 13416.02)"><path class="g" d="M2038.616,945.2a4.369,4.369,0,0,1-3.955,0,1.206,1.206,0,0,1,0-2.284,4.371,4.371,0,0,1,3.955,0A1.205,1.205,0,0,1,2038.616,945.2Z" transform="translate(-1879.396 -718.281)"/><path class="e" d="M1912.989,927.933c-11.1-6.41-29.1-6.41-40.2,0s-11.1,16.8,0,23.212,29.1,6.41,40.2,0S1924.09,934.343,1912.989,927.933Z" transform="translate(-1844.75 -714.331)"/><path class="e" d="M2089.8,852.313l-147.838-84.079-91.433,54.9a1.644,1.644,0,0,0,.038,2.842L1994.283,907a9.612,9.612,0,0,0,9.734-.093l85.814-51.5A1.793,1.793,0,0,0,2089.8,852.313Z" transform="translate(-1841.738 -682.649)"/><path class="g" d="M2039.435,878.389v51.986a.579.579,0,0,1-.042.2.459.459,0,0,1-.4.245h-4.7a.461.461,0,0,1-.4-.245.579.579,0,0,1-.042-.2V878.389a.451.451,0,0,1,.447-.448h4.7A.45.45,0,0,1,2039.435,878.389Z" transform="translate(-1879.396 -705.089)"/><path class="g" d="M2039.435,887.293a.4.4,0,0,1-.05.194.918.918,0,0,1,.05.3,1.375,1.375,0,0,1-.819,1.139,4.361,4.361,0,0,1-3.958,0,1.377,1.377,0,0,1-.819-1.139.891.891,0,0,1,.051-.3.39.39,0,0,1-.051-.194v-8.9a.451.451,0,0,1,.447-.448h4.7a.45.45,0,0,1,.447.448Z" transform="translate(-1879.396 -705.089)"/><path class="g" d="M1851.431,841.365a4.37,4.37,0,0,1-3.955,0,1.206,1.206,0,0,1,0-2.284,4.369,4.369,0,0,1,3.955,0A1.206,1.206,0,0,1,1851.431,841.365Z" transform="translate(-1841.11 -697.043)"/><path class="g" d="M1852.25,774.559v51.987a.579.579,0,0,1-.042.2.457.457,0,0,1-.4.245h-4.7a.46.46,0,0,1-.405-.245.59.59,0,0,1-.042-.2V774.559a.45.45,0,0,1,.447-.448h4.7A.45.45,0,0,1,1852.25,774.559Z" transform="translate(-1841.11 -683.851)"/><path class="g" d="M1852.25,783.462a.4.4,0,0,1-.05.194.917.917,0,0,1,.05.3,1.375,1.375,0,0,1-.818,1.139,4.362,4.362,0,0,1-3.958,0,1.377,1.377,0,0,1-.818-1.139.9.9,0,0,1,.051-.3.392.392,0,0,1-.051-.194v-8.9a.45.45,0,0,1,.447-.448h4.7a.45.45,0,0,1,.447.448Z" transform="translate(-1841.11 -683.851)"/><path class="i" d="M1843.69,761.735l-.01,11.15,16.6,6.13-.847-6.076Z" transform="translate(-1840.5 -681.32)"/><path class="i" d="M1845.839,756.121l86.208-50.4a19.53,19.53,0,0,1,19.543-.1L2093.9,786.908a5.145,5.145,0,0,1,.021,8.923l-87.608,50.6a19.53,19.53,0,0,1-19.537,0l-140.916-81.408A5.144,5.144,0,0,1,1845.839,756.121Z" transform="translate(-1840.421 -669.318)"/><path class="j" d="M1846.229,744.346l86.208-50.4a19.532,19.532,0,0,1,19.543-.1l142.311,81.282a5.145,5.145,0,0,1,.021,8.923l-87.609,50.6a19.529,19.529,0,0,1-19.536,0l-140.916-81.407A5.145,5.145,0,0,1,1846.229,744.346Z" transform="translate(-1840.5 -666.909)"/><path class="g" d="M1964.636,813.656l-43.763-25.267c-1.986-1.147-1.986-3.006,0-4.152l17.2-9.933a7.947,7.947,0,0,1,7.193,0l43.763,25.267c1.986,1.147,1.986,3.006,0,4.152l-17.2,9.933A7.945,7.945,0,0,1,1964.636,813.656Z" transform="translate(-1855.985 -683.715)"/><path class="g" d="M1919.384,785.658v4.15l48.849,27.206,22.289-12.869v-3.153Z" transform="translate(-1855.985 -686.213)"/><path class="f" d="M1964.636,809.693l-43.763-25.268c-1.986-1.146-1.986-3.005,0-4.152l17.2-9.933a7.952,7.952,0,0,1,7.193,0l43.763,25.268c1.986,1.146,1.986,3.005,0,4.152l-17.2,9.933A7.95,7.95,0,0,1,1964.636,809.693Z" transform="translate(-1855.985 -682.904)"/><path class="f" d="M1977.131,805.406l-42.4-24.481,3.726-2.151,42.4,24.481Z" transform="translate(-1859.124 -684.805)"/><path class="f" d="M1969.1,810.044l-42.4-24.481,3.726-2.151,42.4,24.481Z" transform="translate(-1857.481 -685.754)"/><path class="h" d="M1935.79,781.05l41.558,23.994,2.882-1.664-41.558-23.995Z" transform="translate(-1859.341 -684.931)"/><path class="h" d="M1927.757,785.688l41.558,23.994,2.882-1.665-41.558-23.994Z" transform="translate(-1857.698 -685.879)"/><path class="h" d="M1943.607,775.783l41.558,23.995,2.882-1.665-41.558-23.994Z" transform="translate(-1860.94 -683.854)"/><path class="k" d="M2038.533,819.357c0,2.782-4.246,5.038-9.485,5.038s-9.485-2.256-9.485-5.038,4.247-5.038,9.485-5.038S2038.533,816.575,2038.533,819.357Z" transform="translate(-1876.475 -692.076)"/><ellipse class="f" cx="9.485" cy="5.038" rx="9.485" ry="5.038" transform="translate(143.087 119.746)"/><path class="b" d="M2037.321,906.9l.969-.563c.147-.085.146-.224,0-.31l-.973-.562a.592.592,0,0,0-.536,0l-.968.563a.164.164,0,0,0,0,.31l.973.562a.589.589,0,0,0,.536,0Z" transform="translate(-1879.776 -710.704)"/><path class="g" d="M1998.96,749.255s4.794,13.092,0,15.861l-2.318,1.338-.007,0-9.088,5.249a1.42,1.42,0,0,0,0,2.686l12.766,7.374a5.044,5.044,0,0,0,4.629-.039l6.482-3.833.064.03c.745-.463,1.442-.9,2.068-1.292l.285-.169c.027-.017.045-.036.069-.054,1.314-.825,2.205-1.39,2.205-1.39s4.054-2.969,4.054-13.52Z" transform="translate(-1869.731 -678.767)"/><path class="l" d="M2020.175,758.4c0,10.552-4.055,13.52-4.055,13.52s-.888.561-2.209,1.39a.335.335,0,0,0-.07.058l-.281.164q-.946.6-2.068,1.3l-.071-.036-.748.445-5.726,3.389a5.042,5.042,0,0,1-4.638.035l-12.76-7.373c-1.286-.737-1.286-1.94,0-2.688l5.737-3.319,3.342-1.928h.012c.83-.479,1.624-.935,2.314-1.344,4.685-2.7.233-15.214.011-15.833v-.012h.012Z" transform="translate(-1869.73 -678.136)"/><path class="j" d="M2021.9,758.4c0,10.552-4.054,13.52-4.054,13.52s-.888.561-2.209,1.39a.314.314,0,0,0-.07.058l-.281.164q-.946.6-2.067,1.3l-.071-.036-.748.445-17.387-9.956,3.342-1.928h.012c.83-.479,1.624-.935,2.314-1.344,4.685-2.7.233-15.214.011-15.833l.012-.012Z" transform="translate(-1871.454 -678.136)"/><path class="d" d="M2048.031,700.221l-67.612-39.035c-1.68-.97-2.963-.567-4.431.617l-3.124,1.752,3.36,2.375v52.822a9.271,9.271,0,0,0,4.195,7.266l66.208,38.224v3a.541.541,0,0,0,.847.445l3.175-2.189c.959-.333,1.577-1.338,1.577-2.871V707.5A9.284,9.284,0,0,0,2048.031,700.221Z" transform="translate(-1866.924 -660.643)"/><path class="m" d="M2047.339,710.819v55.132c0,2.682-1.881,3.758-4.195,2.422l-67.612-39.035a9.267,9.267,0,0,1-4.2-7.266V666.941c0-2.682,1.881-3.767,4.2-2.432l67.611,39.034A9.286,9.286,0,0,1,2047.339,710.819Z" transform="translate(-1866.611 -661.317)"/><path class="n" d="M1977.728,725.774V672.688l65.832,38.007v53.086Z" transform="translate(-1867.919 -663.107)"/><path class="g" d="M2047.339,767.5V778.16c0,2.682-1.881,3.758-4.195,2.422l-67.612-39.035a9.267,9.267,0,0,1-4.2-7.266V723.625Z" transform="translate(-1866.611 -673.525)"/><path class="g" d="M2044.893,781.43a4.3,4.3,0,0,1-2.12-.641l-67.612-39.035a9.68,9.68,0,0,1-4.439-7.69v-11.5L2047.7,767v10.939a3.408,3.408,0,0,1-1.472,3.141A2.644,2.644,0,0,1,2044.893,781.43ZM1971.7,724.255v9.809a8.746,8.746,0,0,0,3.95,6.843l67.612,39.034a2.083,2.083,0,0,0,3.461-2V767.569Z" transform="translate(-1866.486 -673.307)"/><path class="o" d="M2015.085,758.406c0,1.621-1.138,2.278-2.542,1.468a5.62,5.62,0,0,1-2.542-4.4c0-1.621,1.139-2.278,2.542-1.468A5.618,5.618,0,0,1,2015.085,758.406Z" transform="translate(-1874.52 -679.668)"/><path class="p" d="M1928.53,777.352c-.018,0-.034.019-.052.038a1.158,1.158,0,0,1-.018-.247A.3.3,0,0,0,1928.53,777.352Z" transform="translate(-1857.841 -684.472)"/><path class="q" d="M1927.4,774.293a.873.873,0,0,1-.662.054c-.024-.057-.011-.119-.044-.174Z" transform="translate(-1857.479 -683.864)"/><path class="q" d="M1931.432,782.661c.121.008.242.033.363.049l-.952-.912C1931.044,782.08,1931.237,782.371,1931.432,782.661Z" transform="translate(-1858.329 -685.424)"/><path class="p" d="M1928.154,771.629c-.018,0-.033.022-.048.042a1.2,1.2,0,0,1-.042-.243A.3.3,0,0,0,1928.154,771.629Z" transform="translate(-1857.76 -683.303)"/><path class="q" d="M1926.72,768.7a.869.869,0,0,1-.655.121c-.028-.054-.022-.118-.06-.168Z" transform="translate(-1857.339 -682.735)"/><path class="b" d="M1921.84,746.8l-.442.044Z" transform="translate(-1856.397 -678.266)"/><path class="r" d="M8.488,8.639c-2.37,2.2-5.705,2.466-7.451.589S-.2,4.043,2.17,1.841,7.875-.625,9.62,1.252,10.857,6.437,8.488,8.639Z" transform="matrix(0.985, -0.174, 0.174, 0.985, 97.199, 122.279)"/><path class="r" d="M.414,8.924h0a1.548,1.548,0,0,1,.08-2.187L7.3.414a1.546,1.546,0,0,1,2.186.08h0a1.546,1.546,0,0,1-.08,2.186L2.6,9A1.548,1.548,0,0,1,.414,8.924Z" transform="matrix(0.985, -0.174, 0.174, 0.985, 98.861, 116.104)"/><path class="s" d="M1873.809,955.57a6.471,6.471,0,0,1,2.927-5.07c1.617-.934,2.927-.177,2.928,1.69a6.469,6.469,0,0,1-2.928,5.07C1875.12,958.193,1873.809,957.436,1873.809,955.57Z" transform="translate(-1846.663 -719.848)"/><path class="s" d="M1873.809,955.57a6.471,6.471,0,0,1,2.927-5.07c1.617-.934,2.927-.177,2.928,1.69a6.469,6.469,0,0,1-2.928,5.07C1875.12,958.193,1873.809,957.436,1873.809,955.57Z" transform="translate(-1846.663 -719.848)"/><path class="s" d="M1879.062,950.414l2.523,1.315-3.96,7.218-2.954-1.537.749-4.065Z" transform="translate(-1846.839 -719.912)"/><path class="g" d="M1876.937,957.192a6.47,6.47,0,0,1,2.927-5.07c1.616-.933,2.927-.177,2.927,1.69a6.472,6.472,0,0,1-2.927,5.07C1878.248,959.816,1876.937,959.059,1876.937,957.192Z" transform="translate(-1847.302 -720.18)"/><path class="h" d="M1876.937,957.192a6.47,6.47,0,0,1,2.927-5.07c1.616-.933,2.927-.177,2.927,1.69a6.472,6.472,0,0,1-2.927,5.07C1878.248,959.816,1876.937,959.059,1876.937,957.192Z" transform="translate(-1847.302 -720.18)"/><path class="s" d="M1918.062,930.835a6.473,6.473,0,0,1,2.927-5.07c1.617-.933,2.927-.177,2.927,1.69a6.468,6.468,0,0,1-2.927,5.07C1919.373,933.459,1918.062,932.7,1918.062,930.835Z" transform="translate(-1855.714 -714.789)"/><path class="s" d="M1918.062,930.835a6.473,6.473,0,0,1,2.927-5.07c1.617-.933,2.927-.177,2.927,1.69a6.468,6.468,0,0,1-2.927,5.07C1919.373,933.459,1918.062,932.7,1918.062,930.835Z" transform="translate(-1855.714 -714.789)"/><path class="s" d="M1923.315,925.68l2.522,1.315-3.96,7.218-2.954-1.537.749-4.065Z" transform="translate(-1855.89 -714.853)"/><path class="g" d="M1921.19,932.458a6.469,6.469,0,0,1,2.927-5.07c1.616-.934,2.927-.177,2.927,1.69a6.474,6.474,0,0,1-2.927,5.07C1922.5,935.082,1921.19,934.325,1921.19,932.458Z" transform="translate(-1856.354 -715.121)"/><path class="h" d="M1921.19,932.458a6.469,6.469,0,0,1,2.927-5.07c1.616-.934,2.927-.177,2.927,1.69a6.474,6.474,0,0,1-2.927,5.07C1922.5,935.082,1921.19,934.325,1921.19,932.458Z" transform="translate(-1856.354 -715.121)"/><path class="s" d="M1915.986,956.661a6.469,6.469,0,0,1,2.927-5.07c1.616-.934,2.927-.177,2.927,1.69a6.47,6.47,0,0,1-2.927,5.07C1917.3,959.286,1915.986,958.528,1915.986,956.661Z" transform="translate(-1855.289 -720.072)"/><path class="s" d="M1915.986,956.661a6.469,6.469,0,0,1,2.927-5.07c1.616-.934,2.927-.177,2.927,1.69a6.47,6.47,0,0,1-2.927,5.07C1917.3,959.286,1915.986,958.528,1915.986,956.661Z" transform="translate(-1855.289 -720.072)"/><path class="s" d="M1921.239,951.506l2.523,1.315-3.96,7.218-2.954-1.537.748-4.065Z" transform="translate(-1855.466 -720.136)"/><path class="g" d="M1919.113,958.285a6.471,6.471,0,0,1,2.927-5.07c1.617-.933,2.927-.177,2.927,1.69a6.47,6.47,0,0,1-2.927,5.07C1920.424,960.908,1919.113,960.151,1919.113,958.285Z" transform="translate(-1855.929 -720.404)"/><path class="h" d="M1919.113,958.285a6.471,6.471,0,0,1,2.927-5.07c1.617-.933,2.927-.177,2.927,1.69a6.47,6.47,0,0,1-2.927,5.07C1920.424,960.908,1919.113,960.151,1919.113,958.285Z" transform="translate(-1855.929 -720.404)"/><path class="s" d="M1873.025,931.754a6.472,6.472,0,0,1,2.927-5.07c1.616-.933,2.927-.177,2.927,1.69a6.468,6.468,0,0,1-2.927,5.07C1874.336,934.377,1873.025,933.62,1873.025,931.754Z" transform="translate(-1846.502 -714.977)"/><path class="s" d="M1873.025,931.754a6.472,6.472,0,0,1,2.927-5.07c1.616-.933,2.927-.177,2.927,1.69a6.468,6.468,0,0,1-2.927,5.07C1874.336,934.377,1873.025,933.62,1873.025,931.754Z" transform="translate(-1846.502 -714.977)"/><path class="s" d="M1878.278,926.6l2.523,1.315-3.96,7.218-2.954-1.537.749-4.065Z" transform="translate(-1846.678 -715.042)"/><path class="g" d="M1876.153,933.377a6.469,6.469,0,0,1,2.927-5.07c1.616-.933,2.927-.177,2.927,1.69a6.47,6.47,0,0,1-2.927,5.07C1877.463,936,1876.153,935.243,1876.153,933.377Z" transform="translate(-1847.142 -715.308)"/><path class="h" d="M1876.153,933.377a6.469,6.469,0,0,1,2.927-5.07c1.616-.933,2.927-.177,2.927,1.69a6.47,6.47,0,0,1-2.927,5.07C1877.463,936,1876.153,935.243,1876.153,933.377Z" transform="translate(-1847.142 -715.308)"/><path class="j" d="M1915.153,942.661l-12.953-7.479,12.953-7.479c2.126-1.227,2.126-3.236,0-4.464h0a8.578,8.578,0,0,0-7.732,0l-12.953,7.479-12.953-7.479a8.578,8.578,0,0,0-7.732,0c-2.126,1.228-2.126,3.237,0,4.464l12.954,7.479-12.954,7.479c-2.126,1.227-2.126,3.237,0,4.464h0a8.578,8.578,0,0,0,7.732,0l12.953-7.479,12.953,7.479a8.578,8.578,0,0,0,7.732,0C1917.28,945.9,1917.28,943.889,1915.153,942.661Z" transform="translate(-1846.332 -714.166)"/><path class="j" d="M1915.153,942.661l-12.953-7.479,12.953-7.479c2.126-1.227,2.126-3.236,0-4.464h0a8.578,8.578,0,0,0-7.732,0l-12.953,7.479-12.953-7.479a8.578,8.578,0,0,0-7.732,0c-2.126,1.228-2.126,3.237,0,4.464l12.954,7.479-12.954,7.479c-2.126,1.227-2.126,3.237,0,4.464h0a8.578,8.578,0,0,0,7.732,0l12.953-7.479,12.953,7.479a8.578,8.578,0,0,0,7.732,0C1917.28,945.9,1917.28,943.889,1915.153,942.661Z" transform="translate(-1846.332 -714.166)"/><path class="g" d="M1892,936.559c0,2.42,2.92,4.381,6.523,4.381s6.524-1.962,6.524-4.381-2.921-6.43-6.524-6.43S1892,934.139,1892,936.559Z" transform="translate(-1850.384 -715.763)"/><path class="j" d="M1894.18,933.343c0,1.776,2.143,3.215,4.786,3.215s4.785-1.44,4.785-3.215-2.142-3.214-4.785-3.214S1894.18,931.569,1894.18,933.343Z" transform="translate(-1850.829 -715.763)"/><path class="g" d="M1899.444,890.8a2.948,2.948,0,0,0-2.928,2.968v28.565a2.928,2.928,0,1,0,5.855,0V893.767A2.948,2.948,0,0,0,1899.444,890.8Z" transform="translate(-1851.308 -707.719)"/><g transform="translate(30.479 92.236)"><g transform="translate(28.787 74.885)"><g transform="translate(0 29.156)"><path class="p" d="M1298.681,1724.268c-2.481-1.95-8.16,1.447-10.885,2.054-1.76.392-8.18.756-7.682,3.807a10.57,10.57,0,0,0-.32,2.338,9.069,9.069,0,0,0,.283,2.977,7.945,7.945,0,0,0,3.767,2.261,4.815,4.815,0,0,0,.508-.06,11.28,11.28,0,0,0,3.371-1.583c3.36-2.059,8.394-3.867,10.921-6.98C1299.772,1727.693,1300.087,1725.373,1298.681,1724.268Z" transform="translate(-1279.783 -1723.671)"/></g><g transform="translate(1.143 25.323)"><path class="t" d="M3.451,0H8.775a3.451,3.451,0,0,1,3.451,3.451v0A3.449,3.449,0,0,1,8.776,6.9H3.452A3.452,3.452,0,0,1,0,3.451v0A3.451,3.451,0,0,1,3.451,0Z" transform="translate(0 12.225) rotate(-89.292)"/></g><g transform="translate(0.111 0)"><path class="p" d="M1280.069,1688.907l-.154,29.467a4.056,4.056,0,0,0,3.716,3.46l2.02.148a4.057,4.057,0,0,0,4.35-4.24l3.615-28.835Z" transform="translate(-1279.915 -1688.907)"/></g></g><g transform="translate(0.026 56.452)"><g transform="translate(0)"><path class="s" d="M1312.818,1676.967a13.316,13.316,0,0,0-12.9-10.038c-.364,0-.727.016-1.1.049l-.573.048-3.061,1.308-17.456,7.491a24.394,24.394,0,0,1-24.116-2.8l-2.659-1.964-5.468-4.038V1683.1a10.047,10.047,0,0,0,4.861,8.609l8.165,4.918,9.514,5.726a12.447,12.447,0,0,0,13.01-.1l28.847-17.993A6.677,6.677,0,0,0,1312.818,1676.967Z" transform="translate(-1245.49 -1666.929)"/></g></g><g transform="translate(4.891 1.065)"><g transform="translate(0)"><path class="q" d="M1298.14,1623.826c-2.192,1.632-13.384,9.884-18.487,12.189a21.4,21.4,0,0,1-8.873,1.915,18.7,18.7,0,0,1-6.429-1.141,13.7,13.7,0,0,1-8.1-7.274,12.026,12.026,0,0,1-.759-2.412l-4.122-20.347c-.5-2.451,1.506-5,4.469-5.693s5.779.735,6.277,3.193l4.122,20.347c.006.013,0,.026.01.039a5,5,0,0,0,3.336,3.621,7.738,7.738,0,0,0,5.793-.294c2.816-1.273,11.111-7.072,16.1-10.789,2.379-1.77,5.8-1.713,7.64.125S1300.519,1622.063,1298.14,1623.826Z" transform="translate(-1251.29 -1600.889)"/></g></g><g transform="translate(0 0)"><g transform="translate(0)"><path class="u" d="M1287.2,1663.862a6.236,6.236,0,0,1-4.143,6.065c-1.519.541-4.046,1.4-6.041,1.874a13.29,13.29,0,0,1-1.574.283,26.636,26.636,0,0,1-16.677-3.8l-10.983-6.4a4.7,4.7,0,0,1-2.318-4.159l1.155-45.588a13.257,13.257,0,0,1,6.582-11.435,10.414,10.414,0,0,1,5.136-1.082,22.407,22.407,0,0,1,2.867.194c5.04.606,10.652,2.7,13.543,4.717,2.843,1.8,6.372,2.971,8.649,5.217a7.618,7.618,0,0,1,2.35,5.516C1285.792,1616.869,1287.2,1663.862,1287.2,1663.862Z" transform="translate(-1245.459 -1599.619)"/></g><g class="v" transform="translate(29.102 13.916)"><path class="u" d="M1284.03,1618.683a.682.682,0,0,1-.3.325,24.968,24.968,0,0,0-.387,4.672c-.016,2.924.113,5.935-.92,8.674-.63,1.663-1.68,3.174-2.076,4.91-.953,4.135,1.93,8.092,2.762,12.243.921,4.619-.719,9.311-1.155,14a42.873,42.873,0,0,0,.654,10.975c2-.469,4.522-1.333,6.041-1.874a6.236,6.236,0,0,0,4.143-6.065s-1.3-43.453-1.443-48.213C1289.213,1615.955,1285.693,1614.956,1284.03,1618.683Z" transform="translate(-1280.159 -1616.212)"/></g></g><g transform="translate(33.876 12.826)"><g transform="translate(0 0)"><path class="q" d="M1326.241,1642.53c-1.607,2.01-9.823,12.177-13.737,15.033a11.965,11.965,0,0,1-7.04,2.416,11.592,11.592,0,0,1-5.389-1.334,16.167,16.167,0,0,1-7.458-8.8,21.476,21.476,0,0,1-.9-2.936l-5.69-24.784c-.688-2.986.663-6.115,3.007-6.985s4.812.845,5.5,3.839l5.69,24.785c.007.016.007.032.013.048a6.456,6.456,0,0,0,3.14,4.386,4.378,4.378,0,0,0,4.707-.41c2.158-1.578,8.285-8.726,11.945-13.3a3.8,3.8,0,0,1,6.264.083A6.759,6.759,0,0,1,1326.241,1642.53Z" transform="translate(-1285.851 -1614.912)"/></g></g><g transform="translate(52.684 66.49)"><g transform="translate(0 47.935)"><path class="s" d="M1328.753,1736.7c-2.688-2.113-8.841,1.568-11.793,2.225-1.908.425-8.863.82-8.325,4.127a11.423,11.423,0,0,0-.346,2.533,9.849,9.849,0,0,0,.306,3.227,8.611,8.611,0,0,0,4.083,2.45,5.218,5.218,0,0,0,.55-.065,12.241,12.241,0,0,0,3.653-1.715c3.641-2.232,9.1-4.191,11.834-7.564C1329.936,1740.412,1330.276,1737.9,1328.753,1736.7Z" transform="translate(-1308.276 -1736.052)"/></g><g transform="translate(1.241 43.783)"><rect class="s" width="7.479" height="13.247" rx="3.74" transform="translate(7.479 13.336) rotate(-179.314)"/></g><g transform="translate(0.12)"><path class="s" d="M1309.237,1680.092l-.818,47.077a4.394,4.394,0,0,0,4.027,3.749l2.188.161a4.4,4.4,0,0,0,4.714-4.594l3.621-47.587Z" transform="translate(-1308.419 -1678.898)"/></g></g><g transform="translate(31.102 12.488)"><g transform="translate(0 0)"><path class="s" d="M1303.517,1643.158l-7.052-23.649a6.922,6.922,0,0,0-3.4-4.144,7.215,7.215,0,0,0-5.405-.575,7.036,7.036,0,0,0-4.235,3.324,6.753,6.753,0,0,0-.593,5.277l7.071,23.727a18.748,18.748,0,0,0,1.214,3.059l.3.585a.819.819,0,0,0,.986.4l.634-.209c.366-.121.739-.258,1.078-.4a28.074,28.074,0,0,0,9.029-5.746l.4-.379a.78.78,0,0,0,.161-.917Z" transform="translate(-1282.543 -1614.509)"/></g></g></g><path class="w" d="M1947.84,876.447c0,.16,0,.329-.017.5a14.561,14.561,0,0,1-7.51,11.663l-31.934,17.511a8.479,8.479,0,0,1-1.511.65,8.718,8.718,0,0,1-7.131-.776l-36.576-21.554a19.964,19.964,0,0,1-9.74-15.343l-3.831-41-.4-4.262a4.552,4.552,0,0,1,6.549-4.506l39.589,19.587a4.553,4.553,0,0,1,2.3,2.65l12.659,38.416a5.285,5.285,0,0,0,7.638,2.937l20.659-11.815A6.182,6.182,0,0,1,1947.84,876.447Z" transform="translate(-1849.172 -705.582)"/><path class="s" d="M1905.872,906.408a2.538,2.538,0,0,1-2.738,3.408,8.7,8.7,0,0,1-3.215-1.122l-36.576-21.554A19.962,19.962,0,0,1,1853.6,871.8l-3.527-37.748a1.823,1.823,0,0,1,2.623-1.8l31.945,15.795a4.571,4.571,0,0,1,2.3,2.658l12.651,38.416C1900.035,890.453,1902.709,898.11,1905.872,906.408Z" transform="translate(-1849.355 -708.284)"/><g transform="matrix(-0.996, 0.087, -0.087, -0.996, 67.592, 86.691)"><g transform="translate(0 0)"><path class="q" d="M21.21,12.128c-.112-3.117-.646-6.193-2.473-8.48C16.727,1.1,13.481.085,10.4,0A9.241,9.241,0,0,0,5.438,1.1C2.6,2.8,1.269,6.461.55,9.922a29.078,29.078,0,0,0-.535,3.987,14.83,14.83,0,0,0,.443,4.514A12.984,12.984,0,0,0,6.139,25.83a20.463,20.463,0,0,0,8.633,2.732,6.924,6.924,0,0,0,4.335-.526,3.692,3.692,0,0,0,1.753-2.429,2.833,2.833,0,0,0,.037-1.114c.092-2.833.184-5.647.277-8.48C21.21,14.738,21.247,13.443,21.21,12.128Z"/></g></g><g transform="translate(48.725 78.227) rotate(9)"><g transform="translate(0 0)"><path class="q" d="M11.543,5.4V17.581h-.066A3.761,3.761,0,0,1,9.6,19.93a7.512,7.512,0,0,1-3.83.955c-2.942,0-5.306-1.409-5.7-3.3H0V5.4A5.238,5.238,0,0,1,1.689,1.582,5.929,5.929,0,0,1,5,.041C5.305.024,5.628,0,5.956,0A6.485,6.485,0,0,1,7.926.371,5.663,5.663,0,0,1,9.96,1.7,5.2,5.2,0,0,1,11.543,5.4Z"/></g></g><g transform="translate(38.401 53.708)"><g transform="translate(0.268 0)"><path class="p" d="M693.139,992.3c0,8.632-6.019,15.622-13.463,15.622a12.138,12.138,0,0,1-7.908-2.985,16.483,16.483,0,0,1-5.545-12.637,18,18,0,0,1,.293-3.24,17.417,17.417,0,0,1,1.625-4.816,14.66,14.66,0,0,1,5.111-5.68,12.058,12.058,0,0,1,6.424-1.886c.283,0,.575.011.858.033a11.984,11.984,0,0,1,5.161,1.6C690.109,980.873,693.139,986.177,693.139,992.3Z" transform="translate(-666.224 -976.68)"/></g><g transform="translate(3.933 4.751)"><path class="q" d="M698.621,996.959c0,8.066-6.272,14.6-14.019,14.6a13.552,13.552,0,0,1-8.241-2.79,14.792,14.792,0,0,1-5.767-11.814c0-8.076,6.272-14.614,14.008-14.614.293,0,.6.011.889.032A14.356,14.356,0,0,1,698.621,996.959Z" transform="translate(-670.594 -982.345)"/></g><g transform="translate(2.276 3.034)"><path class="p" d="M674.67,992.748a5.2,5.2,0,0,1,1.175-2.516l1.006-1.073c.034-.036.071-.061.106-.1.288-3.433,2.414-7.168,5.142-8.767l-4.856,1.718-1.388,2.264V981.66A15.347,15.347,0,0,0,668.618,992h5.155v.748Z" transform="translate(-668.618 -980.297)"/></g><g transform="translate(0 0.566)"><path class="p" d="M699.948,980.5c.146-2.442-.885-3.985-4.2-2.657-7.262,2.912-15.08-1.574-22.245,1.827-8.617,4.089-9.4,16.016-4.89,24.325,1.8,3.321,4.854,7.725,8.441,7.393,6.79-.631,10.224-6.512,14.1-15.932,1.2-2.91,2.529-3.134,4.452-4.966C697.375,988.806,699.749,983.822,699.948,980.5Z" transform="translate(-665.905 -977.355)"/></g><g transform="translate(18.808 15.84)"><path class="q" d="M696.691,1000.021a4.189,4.189,0,1,1-4.18-4.454A4.324,4.324,0,0,1,696.691,1000.021Z" transform="translate(-688.33 -995.567)"/></g></g></g></g><g transform="translate(1264.633 736.385)"><g class="x" transform="translate(-658.633 917.616)"><g class="y" transform="translate(0 0)"><g transform="translate(0.002 8.395)"><path class="z" d="M-653.573,1254.39l-4.416-2.55c-.326-.188-.592-.037-.593.338l-.026,9.069a1.3,1.3,0,0,0,.589,1.021l7.858,4.537c.327.189.592.037.593-.338l.014-5.074a1.3,1.3,0,0,0-.589-1.021c-.326-.188-.592-.037-.593.338l-.012,4.395-6.676-3.854.022-7.711,3.825,2.208c.326.188.592.037.593-.337a1.3,1.3,0,0,0-.589-1.021" transform="translate(658.608 -1235.122)"/><path class="z" d="M-624.242,1317.13a.385.385,0,0,0-.476,0l-2.4,2.327-.953-2.162a1.263,1.263,0,0,0-.487-.578.487.487,0,0,0-.334-.074c-.27.056-.34.439-.157.855l1.419,3.22a1.287,1.287,0,0,0,.476.572l.011.007a.385.385,0,0,0,.476,0l2.9-2.809c.2-.189.142-.646-.12-1.021a1.134,1.134,0,0,0-.351-.337" transform="translate(631.359 -1295.14)"/><path class="z" d="M-365.8,1420.531l-4.415-2.549c-.327-.189-.592-.037-.593.338l-.026,9.069a1.3,1.3,0,0,0,.589,1.021l7.893,4.557c.327.189.592.037.593-.338l.014-5.074a1.3,1.3,0,0,0-.589-1.021c-.326-.188-.592-.037-.593.338l-.012,4.395-6.71-3.874.022-7.711,3.824,2.208c.327.189.592.037.593-.337a1.3,1.3,0,0,0-.589-1.021" transform="translate(392.396 -1388.817)"/><path class="z" d="M-336.053,1483.519a.385.385,0,0,0-.478,0l-2.369,2.339-.95-2.156a1.26,1.26,0,0,0-.487-.577.491.491,0,0,0-.335-.075c-.27.056-.34.439-.157.855l1.419,3.22a1.282,1.282,0,0,0,.478.573l.01.005a.384.384,0,0,0,.478,0l2.864-2.829c.194-.191.138-.649-.125-1.023a1.131,1.131,0,0,0-.348-.332" transform="translate(364.728 -1449.081)"/><path class="z" d="M-509.688,1337.462l-4.416-2.549c-.326-.188-.592-.037-.593.338l-.026,9.069a1.3,1.3,0,0,0,.589,1.021l7.893,4.557c.326.188.592.037.593-.338l.014-5.074a1.3,1.3,0,0,0-.589-1.02c-.327-.188-.592-.037-.593.338l-.012,4.395-6.711-3.874.022-7.711,3.824,2.208c.327.189.592.037.593-.338a1.3,1.3,0,0,0-.589-1.021" transform="translate(525.502 -1311.97)"/><path class="z" d="M-480.365,1400.2a.384.384,0,0,0-.478,0l-2.374,2.345-.983-2.191a1.264,1.264,0,0,0-.484-.57.475.475,0,0,0-.338-.072c-.268.06-.334.446-.148.862l1.454,3.241a1.27,1.27,0,0,0,.477.566l.006,0a.384.384,0,0,0,.478,0l2.864-2.829c.194-.192.138-.649-.125-1.023a1.137,1.137,0,0,0-.348-.333" transform="translate(498.261 -1371.982)"/><path class="z" d="M-581.094,1238.886l-3.72-2.148,0,.679c0,.375-.267.526-.593.338a1.3,1.3,0,0,1-.589-1.021l0-.679-1.773-1.024,0,.679c0,.375-.267.526-.593.338a1.3,1.3,0,0,1-.589-1.021l0-.679-5.493-3.172,0,.679c0,.375-.267.526-.593.338a1.3,1.3,0,0,1-.589-1.021v-.68l-1.739-1,0,.679c0,.375-.267.526-.593.338a1.3,1.3,0,0,1-.589-1.021l0-.679-3.72-2.148c-.327-.188-.592-.037-.593.338a1.3,1.3,0,0,0,.589,1.021l21.175,12.225c.326.188.592.037.593-.338a1.3,1.3,0,0,0-.589-1.021" transform="translate(607.038 -1211.829)"/><path class="z" d="M-413.06,1255.842c0,.375-.267.526-.593.338a1.3,1.3,0,0,1-.589-1.021l-.016,5.554,0,.679a1.3,1.3,0,0,0,.589,1.021c.326.188.592.037.593-.338l0-.679.016-5.554m-3.546-2.527c-.326-.188-.592-.037-.593.338l-.015,5.354,0,.679a1.3,1.3,0,0,0,.589,1.021c.326.189.592.037.593-.338l0-.679.015-5.354a1.3,1.3,0,0,0-.589-1.021" transform="translate(435.3 -1236.485)"/><path class="z" d="M-479.9,1150.4l-4.695-2.711a1.3,1.3,0,0,1,.589,1.021c0,.375-.267.527-.593.338l4.695,2.71a7.344,7.344,0,0,1,3.327,5.763,1.3,1.3,0,0,0,.589,1.021c.326.188.592.037.593-.338a9.945,9.945,0,0,0-4.506-7.8" transform="translate(497.637 -1138.852)"/><path class="z" d="M-493.16,1037.146c-1.037-.6-2.046-3.06-2.042-4.461,0-1.344.907-1.877,2.058-1.213a4.521,4.521,0,0,1,2.08,3.6c0,1.431-1.021,2.693-2.1,2.072m.02-7.032c-1.783-1.029-3.238-.182-3.244,1.889-.006,2.1,1.429,5.468,3.22,6.5,1.811,1.046,3.276-.648,3.282-2.748a7.084,7.084,0,0,0-3.258-5.643" transform="translate(508.537 -1029.676)"/><path class="z" d="M-544.118,1182.879c0,.375-.267.526-.593.338a1.3,1.3,0,0,1-.589-1.021l-.016,5.554,0,.679a1.3,1.3,0,0,0,.589,1.021c.326.188.592.037.593-.338l0-.679.016-5.554m2.331.866c-.326-.188-.592-.037-.593.338l-.015,5.354v.679a1.3,1.3,0,0,0,.589,1.021c.326.188.592.037.593-.338l0-.679.015-5.354a1.3,1.3,0,0,0-.589-1.021" transform="translate(553.805 -1170.77)"/><path class="z" d="M-540.547,1140.062c-2.492-1.439-4.527-.279-4.535,2.585a1.3,1.3,0,0,0,.589,1.021c.326.188.592.037.593-.338.006-2.115,1.508-2.971,3.349-1.909.327.189.592.037.593-.338a1.3,1.3,0,0,0-.589-1.021" transform="translate(553.587 -1131.221)"/></g></g></g></g></g><g transform="translate(406.325 1801.484)"><path class="aa" d="M276,660H813.675s-11.269,20.927-37.026,17.708a149.484,149.484,0,0,1-20.927-1.61c-9.659-1.61-24.147,3.22-27.367,8.049,0,0-24.147,14.488-64.392,0,0,0-37.026-16.1-62.782-1.61,0,0-19.318,20.928-69.222-4.829,0,0-12.879-8.049-35.416,8.049,0,0-22.537,19.318-66-8.049,0,0-24.147-6.439-51.514,6.439C379.028,684.147,324.294,692.2,276,660Z" transform="translate(-276 -571.461)"/><path class="ab" d="M582.407,634.075s27.206,15.026,15.19,36.5C597.6,670.576,578.133,666.564,582.407,634.075Z" transform="translate(-89.525 -587.27)"/><path class="ac" d="M614.007,623s14.488,46.684-22.537,57.953C591.47,680.953,573.762,655.2,614.007,623Z" transform="translate(-85.991 -594.023)"/><path class="ac" d="M334.352,621.92s-41.564,22.958-23.207,55.765C311.145,677.685,340.883,671.557,334.352,621.92Z" transform="translate(-257.422 -594.682)"/><path class="ab" d="M292.061,605s-22.135,71.324,34.43,88.539C326.492,693.539,353.546,654.189,292.061,605Z" transform="translate(-268.808 -605)"/></g></g></svg>