<svg xmlns="http://www.w3.org/2000/svg" width="349.533" height="311.013" viewBox="0 0 349.533 311.013"><defs><style>.a{fill:#8dc0ef;}.b{fill:#1f3598;}.c{fill:#647ddd;opacity:0.17;}.d{fill:#d5e8fa;}.e{fill:#eff6fc;}.f{fill:#bddcff;}.g{fill:#e2e8f2;}.h{fill:#75a3ec;}.i{fill:#ffc7cb;}.j{fill:#ff8358;}.k{fill:#f2f4f9;}.l{fill:#fff;}.m{fill:#484255;}.n{fill:#577de8;}.o{fill:#f2f4fa;}.p{fill:#3772ce;}.q{fill:#4568c7;}.r{fill:#a0d2ff;}.s{fill:#ced6e9;}.t{fill:#fbc1b1;}</style></defs><path class="a" d="M2039.447,945.675a5.13,5.13,0,0,1-4.644,0c-1.282-.741-1.282-1.941,0-2.681a5.132,5.132,0,0,1,4.644,0C2040.73,943.734,2040.73,944.934,2039.447,945.675Z" transform="translate(-1803.987 -651.929)"/><path class="b" d="M2112.917,803.482c-5.123-5.934-10.89,2.487-13.614,5.978-1.851,2.373-8.288,8.67-7.584,11.975.248,1.159.388,1.1,1.532,1.412a7.167,7.167,0,0,0,3.514-.131c6.043-1.456,10.833-4.871,13.573-10.1.111,1.452.139,2.906.122,4.362a.418.418,0,0,0,.648.341q.846-.552,1.661-1.15c2.026-1.5,1.133-3.619,1.681-6.032A7.564,7.564,0,0,0,2112.917,803.482Z" transform="translate(-1807.81 -642.608)"/><path class="c" d="M1921.435,928.769c-13.036-7.525-34.168-7.525-47.2,0s-13.035,19.727,0,27.252,34.166,7.525,47.2,0S1934.469,936.295,1921.435,928.769Z" transform="translate(-1792.79 -650.653)"/><path class="c" d="M2131.579,866.946l-173.567-98.712-107.346,64.449a1.93,1.93,0,0,0,.045,3.337l168.729,95.127a11.285,11.285,0,0,0,11.428-.109l100.749-60.46A2.1,2.1,0,0,0,2131.579,866.946Z" transform="translate(-1791.817 -640.414)"/><path class="a" d="M2040.409,878.467V939.5a.676.676,0,0,1-.05.238.539.539,0,0,1-.475.287h-5.52a.542.542,0,0,1-.476-.287.686.686,0,0,1-.049-.238V878.467a.529.529,0,0,1,.525-.526h5.52A.528.528,0,0,1,2040.409,878.467Z" transform="translate(-1803.987 -647.666)"/><path class="a" d="M2040.409,888.92a.469.469,0,0,1-.059.228,1.076,1.076,0,0,1,.059.347,1.614,1.614,0,0,1-.961,1.337,5.119,5.119,0,0,1-4.646,0,1.616,1.616,0,0,1-.961-1.337,1.045,1.045,0,0,1,.06-.347.457.457,0,0,1-.06-.228V878.467a.529.529,0,0,1,.525-.526h5.52a.528.528,0,0,1,.525.526Z" transform="translate(-1803.987 -647.666)"/><path class="a" d="M1852.262,841.845a5.13,5.13,0,0,1-4.643,0c-1.282-.741-1.282-1.941,0-2.681a5.129,5.129,0,0,1,4.643,0C1853.545,839.9,1853.545,841.1,1852.262,841.845Z" transform="translate(-1791.614 -645.066)"/><path class="a" d="M1853.224,774.637v61.034a.675.675,0,0,1-.05.237.536.536,0,0,1-.475.288h-5.52a.54.54,0,0,1-.475-.288.691.691,0,0,1-.049-.237V774.637a.529.529,0,0,1,.524-.526h5.52A.528.528,0,0,1,1853.224,774.637Z" transform="translate(-1791.614 -640.802)"/><path class="a" d="M1853.224,785.09a.466.466,0,0,1-.059.228,1.072,1.072,0,0,1,.059.346,1.614,1.614,0,0,1-.961,1.337,5.121,5.121,0,0,1-4.647,0,1.616,1.616,0,0,1-.961-1.337,1.053,1.053,0,0,1,.06-.346.459.459,0,0,1-.06-.228V774.637a.529.529,0,0,1,.524-.526h5.52a.528.528,0,0,1,.525.526Z" transform="translate(-1791.614 -640.802)"/><path class="a" d="M2153.142,879.2a5.13,5.13,0,0,1-4.644,0c-1.282-.739-1.282-1.941,0-2.681a5.137,5.137,0,0,1,4.644,0C2154.426,877.257,2154.426,878.458,2153.142,879.2Z" transform="translate(-1811.503 -647.535)"/><path class="a" d="M2154.105,811.99v61.034a.679.679,0,0,1-.051.238.537.537,0,0,1-.475.287h-5.519a.537.537,0,0,1-.475-.287.677.677,0,0,1-.05-.238V811.99a.528.528,0,0,1,.524-.525h5.519A.53.53,0,0,1,2154.105,811.99Z" transform="translate(-1811.503 -643.272)"/><path class="a" d="M2154.105,827.355a.465.465,0,0,1-.06.228,1.079,1.079,0,0,1,.06.347,1.616,1.616,0,0,1-.961,1.337,5.122,5.122,0,0,1-4.647,0,1.614,1.614,0,0,1-.961-1.337,1.064,1.064,0,0,1,.059-.347.459.459,0,0,1-.059-.228V816.9a.528.528,0,0,1,.524-.525h5.519a.529.529,0,0,1,.526.525Z" transform="translate(-1811.503 -643.596)"/><path class="d" d="M1843.692,761.735l-.012,13.091,19.492,7.2-.995-7.133Z" transform="translate(-1791.417 -639.984)"/><path class="d" d="M2160.463,814.1V802.41l-21.6,13.89,1.444,3.846Z" transform="translate(-1810.93 -642.673)"/><path class="d" d="M1846.282,765.356l101.212-59.167a22.929,22.929,0,0,1,22.944-.115L2137.516,801.5a6.041,6.041,0,0,1,.024,10.476l-102.855,59.4a22.928,22.928,0,0,1-22.937,0L1846.308,775.8A6.04,6.04,0,0,1,1846.282,765.356Z" transform="translate(-1791.391 -636.105)"/><path class="e" d="M1846.672,753.581l101.212-59.166a22.932,22.932,0,0,1,22.944-.116l167.078,95.427a6.04,6.04,0,0,1,.025,10.475l-102.856,59.4a22.929,22.929,0,0,1-22.936,0L1846.7,764.027A6.04,6.04,0,0,1,1846.672,753.581Z" transform="translate(-1791.417 -635.327)"/><path class="a" d="M1972.511,820.654l-51.379-29.664c-2.332-1.347-2.332-3.529,0-4.875l20.2-11.662a9.33,9.33,0,0,1,8.444,0l51.38,29.664c2.332,1.347,2.332,3.529,0,4.875l-20.2,11.662A9.328,9.328,0,0,1,1972.511,820.654Z" transform="translate(-1796.421 -640.758)"/><path class="a" d="M1919.384,785.658v4.873l57.35,31.941,26.169-15.109v-3.7Z" transform="translate(-1796.421 -641.566)"/><path class="f" d="M1972.511,816.691l-51.379-29.665c-2.332-1.346-2.332-3.528,0-4.875l20.2-11.662a9.335,9.335,0,0,1,8.444,0l51.38,29.665c2.332,1.346,2.332,3.528,0,4.875l-20.2,11.661A9.334,9.334,0,0,1,1972.511,816.691Z" transform="translate(-1796.421 -640.496)"/><path class="f" d="M1984.51,810.041,1934.729,781.3l4.374-2.525,49.781,28.742Z" transform="translate(-1797.436 -641.111)"/><path class="f" d="M1976.477,814.679,1926.7,785.937l4.374-2.525,49.781,28.742Z" transform="translate(-1796.905 -641.417)"/><path class="g" d="M1935.79,781.339l48.791,28.17,3.384-1.953-48.791-28.17Z" transform="translate(-1797.506 -641.151)"/><path class="g" d="M1927.757,785.978l48.791,28.17,3.384-1.955-48.79-28.169Z" transform="translate(-1796.975 -641.458)"/><path class="g" d="M1943.607,776.072l48.79,28.17,3.384-1.955-48.791-28.169Z" transform="translate(-1798.023 -640.803)"/><path class="h" d="M2041.835,820.233c0,3.267-4.986,5.915-11.136,5.915s-11.136-2.649-11.136-5.915,4.986-5.914,11.136-5.914S2041.835,816.968,2041.835,820.233Z" transform="translate(-1803.043 -643.46)"/><ellipse class="f" cx="11.136" cy="5.914" rx="11.136" ry="5.914" transform="translate(216.52 167.927)"/><path class="b" d="M2037.6,907.159l1.138-.661c.173-.1.171-.263,0-.364l-1.142-.659a.7.7,0,0,0-.63,0l-1.136.661a.193.193,0,0,0,0,.364l1.142.659a.691.691,0,0,0,.629,0Z" transform="translate(-1804.11 -649.481)"/><rect class="b" width="4.434" height="10.63" rx="1.584" transform="translate(165.96 270.344)"/><path class="i" d="M1965.677,858.406l.158,3.4,1.962,47.917c-.007.179-.023.143-.034.066a7.063,7.063,0,0,0-.453,2.526c2.952,2.158,5.485,3.361,9.428,3.162a33.622,33.622,0,0,1,.6-6.975c.069-.511,3.872-47.874,3.872-47.874v-.041C1975.38,860.738,1971.515,858.085,1965.677,858.406Z" transform="translate(-1799.481 -646.373)"/><path class="b" d="M1976.759,925.164c3.8,2.691,3.435,5.21,9.143,3.8a10.579,10.579,0,0,0,4.94-2.366,3.912,3.912,0,0,0,.936-4.727c-.814-1.315-2.519-1.934-4.134-2.3a25.457,25.457,0,0,0-8.191-.473,6.989,6.989,0,0,0-3.679,1.208C1973.745,921.949,1975.052,923.957,1976.759,925.164Z" transform="translate(-1800.081 -650.378)"/><path class="i" d="M1974.488,914.245a9.977,9.977,0,0,1,2.57,1.845c2.865,2.387,5.776,4.828,7.794,7.963-.6,1.764-2.529,3.045-4.645,3.68a31.54,31.54,0,0,1-3.618-1.281,19.719,19.719,0,0,1-7.989-6.624c-.242-.348-.474-.819-.234-1.168l3.185-3.084c3.193-3.09,7.913,1.32,11.131,3,1.217.635,2.6,1.518,2.645,2.889.044,1.283-1.14,2.261-2.3,2.81a11.031,11.031,0,0,1-3.626,1.006Z" transform="translate(-1799.652 -650.066)"/><path class="b" d="M1966.278,914.85a5.061,5.061,0,0,1,4.623.671c2.235,1.349,3.892,3.555,5.844,5.253,2.691,2.339,5.4,3.649,8.693,2.143,1.084.658,1.843,1.417,1.809,2.291-.048,1.273-2.33,2.906-3.337,3.6-3.162,2.176-8.246-1.317-10.818-2.624-2.026-1.031-4.175-.84-6.1-1.7C1964.39,923.326,1963.565,917.291,1966.278,914.85Z" transform="translate(-1799.41 -650.086)"/><rect class="b" width="4.434" height="10.63" rx="1.584" transform="translate(139.255 253.459)"/><path class="j" d="M1936.615,852.239l.158-1.551,1.962,41.972c-.008.179-.023.143-.034.066a7.062,7.062,0,0,0-.453,2.526c2.952,2.158,5.485,3.362,9.428,3.162a33.625,33.625,0,0,1,.6-6.975c.069-.511,2.881-39.947,2.881-39.947v-.041C1945.327,851.6,1942.453,851.917,1936.615,852.239Z" transform="translate(-1797.56 -645.864)"/><path class="b" d="M1947.7,907.434c3.8,2.691,3.435,5.21,9.143,3.8a10.591,10.591,0,0,0,4.94-2.366,3.911,3.911,0,0,0,.936-4.727c-.814-1.315-2.519-1.934-4.133-2.3a25.461,25.461,0,0,0-8.191-.474,6.99,6.99,0,0,0-3.68,1.208C1944.682,904.219,1945.99,906.228,1947.7,907.434Z" transform="translate(-1798.16 -649.206)"/><path class="j" d="M1945.427,896.515a10.01,10.01,0,0,1,2.57,1.845c2.865,2.387,5.776,4.828,7.794,7.963-.6,1.764-2.529,3.045-4.645,3.679a31.535,31.535,0,0,1-3.618-1.28,19.712,19.712,0,0,1-7.989-6.624c-.242-.349-.474-.818-.234-1.168l3.185-3.084c3.193-3.089,7.913,1.32,11.131,3,1.217.635,2.6,1.518,2.645,2.89.044,1.282-1.139,2.26-2.3,2.809a11.023,11.023,0,0,1-3.626,1.006Z" transform="translate(-1797.732 -648.894)"/><path class="b" d="M1937.216,897.12a5.06,5.06,0,0,1,4.623.671c2.235,1.35,3.893,3.555,5.844,5.253,2.69,2.34,5.4,3.649,8.693,2.144,1.084.657,1.842,1.416,1.809,2.29-.048,1.274-2.33,2.906-3.336,3.6-3.162,2.176-8.247-1.317-10.818-2.624-2.026-1.031-4.174-.84-6.1-1.7C1935.328,905.6,1934.5,899.562,1937.216,897.12Z" transform="translate(-1797.489 -648.914)"/><path class="a" d="M2001.113,749.255s5.629,15.371,0,18.621l-2.721,1.571-.008,0-10.67,6.163c-1.5.868-1.5,2.287,0,3.154l14.988,8.657a5.922,5.922,0,0,0,5.434-.046l7.61-4.5.076.036c.875-.543,1.692-1.055,2.428-1.517l.334-.2c.032-.02.052-.043.081-.064,1.543-.968,2.589-1.632,2.589-1.632s4.76-3.486,4.76-15.873Z" transform="translate(-1800.863 -639.159)"/><path class="k" d="M2026.02,760.53c0,12.388-4.76,15.873-4.76,15.873s-1.043.658-2.593,1.632a.4.4,0,0,0-.082.068l-.329.192q-1.111.7-2.427,1.523l-.083-.042-.878.522-6.722,3.978a5.92,5.92,0,0,1-5.445.041l-14.98-8.656c-1.51-.865-1.51-2.278,0-3.156l6.735-3.9,3.923-2.264h.014c.974-.562,1.907-1.1,2.717-1.577,5.5-3.169.273-17.862.013-18.588v-.014h.014Z" transform="translate(-1800.864 -638.955)"/><path class="e" d="M2026.577,760.53c0,12.388-4.76,15.873-4.76,15.873s-1.043.658-2.594,1.632a.376.376,0,0,0-.082.068l-.33.192q-1.111.7-2.427,1.523l-.083-.042-.878.522L1995.01,768.61l3.923-2.264h.014c.974-.562,1.907-1.1,2.717-1.577,5.5-3.169.274-17.862.013-18.588l.014-.014Z" transform="translate(-1801.421 -638.955)"/><path class="l" d="M2061.113,707.109l-79.378-45.828c-1.972-1.138-3.479-.666-5.2.724l-3.667,2.057,3.944,2.788v62.015a10.884,10.884,0,0,0,4.925,8.53l77.73,44.876V785.8a.635.635,0,0,0,.995.522l3.728-2.57c1.126-.39,1.852-1.571,1.852-3.37V715.65A10.9,10.9,0,0,0,2061.113,707.109Z" transform="translate(-1799.956 -633.302)"/><path class="m" d="M2060.566,718.978v64.727c0,3.148-2.208,4.412-4.925,2.844l-79.378-45.828a10.88,10.88,0,0,1-4.925-8.53V667.464c0-3.148,2.208-4.423,4.925-2.855l79.377,45.827A10.9,10.9,0,0,1,2060.566,718.978Z" transform="translate(-1799.855 -633.52)"/><path class="n" d="M1977.728,735.013V672.688l77.289,44.622v62.325Z" transform="translate(-1800.278 -634.098)"/><path class="a" d="M2057.8,791.675a5.043,5.043,0,0,1-2.489-.753l-79.378-45.828a11.366,11.366,0,0,1-5.212-9.028V722.56l90.378,52.178v12.843a4,4,0,0,1-1.728,3.687A3.1,3.1,0,0,1,2057.8,791.675Zm-85.931-67.125v11.516a10.268,10.268,0,0,0,4.638,8.033l79.378,45.827a2.446,2.446,0,0,0,4.063-2.346V775.4Z" transform="translate(-1799.815 -637.395)"/><path class="o" d="M2015.969,759.232c0,1.9-1.336,2.675-2.984,1.723a6.6,6.6,0,0,1-2.984-5.169c0-1.9,1.337-2.675,2.985-1.723A6.6,6.6,0,0,1,2015.969,759.232Z" transform="translate(-1802.411 -639.45)"/><path class="j" d="M1910.233,811.19a31.029,31.029,0,0,1-.107-3.548c.737-1.545,1.4-2.938,1.388-3.056l23.164-16.079a4.2,4.2,0,0,1,3.035-1.11,4.307,4.307,0,0,1,.6.068,4.181,4.181,0,0,1,2.324,1.291,4.226,4.226,0,0,1-.249,5.964l-22.707,19.524-.055.047A4.567,4.567,0,0,1,1910.233,811.19Z" transform="translate(-1795.808 -641.681)"/><path class="i" d="M1943.46,797c-2.782,2.586-6.7,2.9-8.746.691s-1.454-6.087,1.329-8.672,6.7-2.9,8.746-.691S1946.242,794.412,1943.46,797Z" transform="translate(-1797.353 -641.645)"/><path class="b" d="M1970.385,854.714l-14.109-8.085c-5.46-2.734-9.76.664-15.616,2.388l.743-.743-2.754-4.3-32.6-2.3c-11.414,6.47-13.624,34.223-13.624,34.223l.01.208h0c-1.349,11.264,16.2,19.73,29.743,21.793a22.228,22.228,0,0,0,13.855-2.434l2.266-1.217,32.687-17.557C1980.839,871.122,1980.491,859.8,1970.385,854.714Z" transform="translate(-1794.635 -645.269)"/><path class="g" d="M1904.313,833.127a42.054,42.054,0,0,1-.1,5.728,2.658,2.658,0,0,0,1.21,2.483,35.075,35.075,0,0,0,5.113,2.662c5.124,2.149,11,3.36,16.467,2.149.219-.051.428-.1.646-.156,3.142-.8,9.976-2.661,10.592-6.553a1.906,1.906,0,0,0,.051-.48c-.01-.365-.031-.742-.051-1.117V820.374c1.7-5.061,4.82-8.671,3.266-15.1a22.862,22.862,0,0,0-3.642-8.181c-2.88-3.965-7.033-6.418-12.334-7.963-1.68-.48-3.339-.877-4.842-1.19a29.841,29.841,0,0,0-9.726-.365c-3.411.439-6.678,1.6-8.713,3.872a7.893,7.893,0,0,0-.73.918c-4.048,6.073-1.9,14.568-.428,21.162C1902.539,820.009,1904.063,826.521,1904.313,833.127Z" transform="translate(-1795.086 -641.677)"/><path class="p" d="M1928.542,777.389c-.021,0-.04.022-.061.045a1.361,1.361,0,0,1-.021-.29A.355.355,0,0,0,1928.542,777.389Z" transform="translate(-1797.021 -641.003)"/><path class="i" d="M1912.585,793.074h4.971a8.541,8.541,0,0,0,8.423-7.128l.309-1.85,1.129-6.77h-12.2Z" transform="translate(-1795.972 -641.015)"/><path class="j" d="M1918.75,779.868l6.056,9.2h.386l1.5-8.978Z" transform="translate(-1796.379 -641.183)"/><path class="j" d="M1927.523,774.314a1.026,1.026,0,0,1-.778.064c-.027-.066-.013-.14-.052-.2Z" transform="translate(-1796.904 -640.807)"/><path class="j" d="M1931.534,782.811c.142.009.284.038.426.057l-1.118-1.07C1931.079,782.13,1931.306,782.47,1931.534,782.811Z" transform="translate(-1797.179 -641.311)"/><path class="j" d="M1911.973,791.356c1.91,2.8,8.284,1.794,14.369-2.218-1.687-.491-3.346-.887-4.851-1.2a30.127,30.127,0,0,0-9.721-.367A4.2,4.2,0,0,0,1911.973,791.356Z" transform="translate(-1795.895 -641.677)"/><path class="p" d="M1928.17,771.664c-.021,0-.038.025-.056.049a1.406,1.406,0,0,1-.049-.286A.357.357,0,0,0,1928.17,771.664Z" transform="translate(-1796.994 -640.625)"/><path class="i" d="M1935.237,765.45c.236,3.595-.02,7.192-1.851,10.033-2.013,3.165-5.626,4.707-9.157,5.159a10.685,10.685,0,0,1-5.829-.678c-3.462-1.622-5.416-5.677-6.646-9.57a33.7,33.7,0,0,1-1.08-4.52,17.126,17.126,0,0,1-.017-5.237,14.989,14.989,0,0,1,5.665-9.174,23.645,23.645,0,0,1,9.6-4.147,8,8,0,0,1,5.042.1,4.266,4.266,0,0,1,2.3,2.587,3.268,3.268,0,0,1,.172,1.275c.436,3.245.87,6.467,1.306,9.713C1934.933,762.45,1935.126,763.934,1935.237,765.45Z" transform="translate(-1795.831 -639.007)"/><path class="b" d="M1907,760.918a22.6,22.6,0,0,0,2.194,7.788,20.188,20.188,0,0,0,6.9,8.309c2.44,1.528,7.227,2.715,9.287-.019,2.019-2.681.3-6.935,2.3-9.633a9.253,9.253,0,0,1,2.206-1.9,17.413,17.413,0,0,0,4.675-4.524c3.013-4.625,1.6-13.2-3.532-15.919a17.305,17.305,0,0,0-13.551-.667,15.486,15.486,0,0,0-3.909,2.2c-.066.058-.132.105-.217.174A16.863,16.863,0,0,0,1907,760.918Z" transform="translate(-1795.599 -638.765)"/><path class="j" d="M1926.845,768.707a1.02,1.02,0,0,1-.768.142c-.033-.064-.026-.138-.071-.2Z" transform="translate(-1796.858 -640.442)"/><path class="j" d="M1923.321,769.969a5.837,5.837,0,0,0,1.509,3.231,6.26,6.26,0,0,0,1.665,1.56,2.683,2.683,0,0,0,2.2.3c2.249-.8,1.689-4.164.805-5.756a4.085,4.085,0,0,0-3.333-2.178A2.727,2.727,0,0,0,1923.321,769.969Z" transform="translate(-1796.681 -640.341)"/><path class="l" d="M1929.739,806.428c1.563-2.791,2.9-4.81,6.268-4.266a43.65,43.65,0,0,1,6.868,2.023c.216.664.421,1.345.6,2.065,1.555,6.428-1.565,10.038-3.266,15.1v17.469c.021.375.041.752.052,1.117a1.929,1.929,0,0,1-.052.48c-.616,3.893-7.451,5.749-10.592,6.553-.219.052-.428.1-.646.156V807.467A5.063,5.063,0,0,0,1929.739,806.428Z" transform="translate(-1797.055 -642.651)"/><path class="b" d="M1921.917,746.8l-.519.052Z" transform="translate(-1796.554 -638.997)"/><path class="i" d="M1944.276,838.334a30.808,30.808,0,0,1-.107-3.548c.737-1.545,1.4-2.938,1.388-3.056l23.164-16.079a4.2,4.2,0,0,1,3.035-1.11,4.277,4.277,0,0,1,.6.068,4.221,4.221,0,0,1,2.075,7.254l-22.707,19.524-.055.047A4.567,4.567,0,0,1,1944.276,838.334Z" transform="translate(-1798.058 -643.475)"/><path class="i" d="M1977.5,824.14c-2.782,2.586-6.7,2.895-8.747.691s-1.453-6.087,1.329-8.672,6.7-2.9,8.747-.691S1980.285,821.555,1977.5,824.14Z" transform="translate(-1799.604 -643.439)"/><path class="i" d="M1971.429,817.192h0a1.817,1.817,0,0,1,.094-2.567l7.991-7.425a1.815,1.815,0,0,1,2.566.094h0a1.815,1.815,0,0,1-.095,2.566L1974,817.286A1.818,1.818,0,0,1,1971.429,817.192Z" transform="translate(-1799.829 -642.958)"/><path class="f" d="M1946.69,841.425l-.085.032a5.992,5.992,0,0,1-7.722-4.3l-7.489-29.963a6.26,6.26,0,0,1,12.147-3.037l2.953,11.813L1949.4,827.6h0C1950.693,833.17,1953.345,838.946,1946.69,841.425Z" transform="translate(-1797.203 -642.475)"/><path d="M1929.482,762.684c-.067-.566-.12-1.134-.155-1.7-.306-4.859.6-10.017-3.633-13.646-2.945-2.524-7.2-2.667-11.075-2.441-4.234.246-8.608.833-12.2,3.08-6.754,4.218-6.721,14.871-4.71,21.72a54.136,54.136,0,0,1,1.809,8.441c-.049,4.387-2.586,6.613-7.587,7.454a11.114,11.114,0,0,0-8.442,6.575,15.556,15.556,0,0,0-1.312,5.618c-.3,6.043-.871,7.721-7.9,9.867a15.714,15.714,0,0,0-9.831,8.787c-4.935,10.788.148,26.382,11.353,34.828s24.288,6.547,29.223-4.243a24.3,24.3,0,0,0,1.193-15.3c-1.964-8.9-1.113-10.381,2.823-13.636a.3.3,0,0,0,.033-.031,11.674,11.674,0,0,0,3.185-4.206,17.945,17.945,0,0,0,.364-12.664c-1.87-6.021-1.591-9.949,1.369-12.141a28.445,28.445,0,0,1,6.62-2.088,12.1,12.1,0,0,0,8.913-7.108C1932.148,774.1,1930.161,768.495,1929.482,762.684Z" transform="translate(-1792.665 -638.866)"/><path class="q" d="M1873.809,956.521a7.6,7.6,0,0,1,3.437-5.952c1.9-1.1,3.437-.208,3.438,1.984a7.6,7.6,0,0,1-3.438,5.953C1875.348,959.6,1873.809,958.713,1873.809,956.521Z" transform="translate(-1793.408 -652.436)"/><path class="q" d="M1873.809,956.521a7.6,7.6,0,0,1,3.437-5.952c1.9-1.1,3.437-.208,3.438,1.984a7.6,7.6,0,0,1-3.438,5.953C1875.348,959.6,1873.809,958.713,1873.809,956.521Z" transform="translate(-1793.408 -652.436)"/><path class="q" d="M1879.826,950.414l2.962,1.544-4.65,8.474-3.468-1.8.879-4.773Z" transform="translate(-1793.465 -652.457)"/><path class="a" d="M1876.937,958.144a7.6,7.6,0,0,1,3.437-5.953c1.9-1.1,3.436-.207,3.436,1.985a7.6,7.6,0,0,1-3.436,5.953C1878.476,961.224,1876.937,960.336,1876.937,958.144Z" transform="translate(-1793.615 -652.543)"/><path class="g" d="M1876.937,958.144a7.6,7.6,0,0,1,3.437-5.953c1.9-1.1,3.436-.207,3.436,1.985a7.6,7.6,0,0,1-3.436,5.953C1878.476,961.224,1876.937,960.336,1876.937,958.144Z" transform="translate(-1793.615 -652.543)"/><path class="q" d="M1918.062,931.788a7.6,7.6,0,0,1,3.437-5.953c1.9-1.1,3.437-.207,3.437,1.984a7.594,7.594,0,0,1-3.437,5.953C1919.6,934.867,1918.062,933.979,1918.062,931.788Z" transform="translate(-1796.334 -650.801)"/><path class="q" d="M1918.062,931.788a7.6,7.6,0,0,1,3.437-5.953c1.9-1.1,3.437-.207,3.437,1.984a7.594,7.594,0,0,1-3.437,5.953C1919.6,934.867,1918.062,933.979,1918.062,931.788Z" transform="translate(-1796.334 -650.801)"/><path class="q" d="M1924.079,925.68l2.962,1.544-4.65,8.474-3.468-1.8.879-4.773Z" transform="translate(-1796.39 -650.821)"/><path class="a" d="M1921.19,933.41a7.594,7.594,0,0,1,3.437-5.953c1.9-1.1,3.437-.207,3.437,1.984a7.6,7.6,0,0,1-3.437,5.953C1922.728,936.49,1921.19,935.6,1921.19,933.41Z" transform="translate(-1796.541 -650.908)"/><path class="g" d="M1921.19,933.41a7.594,7.594,0,0,1,3.437-5.953c1.9-1.1,3.437-.207,3.437,1.984a7.6,7.6,0,0,1-3.437,5.953C1922.728,936.49,1921.19,935.6,1921.19,933.41Z" transform="translate(-1796.541 -650.908)"/><path class="q" d="M1915.986,957.614a7.594,7.594,0,0,1,3.437-5.952c1.9-1.1,3.437-.208,3.437,1.984a7.6,7.6,0,0,1-3.437,5.953C1917.524,960.694,1915.986,959.805,1915.986,957.614Z" transform="translate(-1796.196 -652.508)"/><path class="q" d="M1915.986,957.614a7.594,7.594,0,0,1,3.437-5.952c1.9-1.1,3.437-.208,3.437,1.984a7.6,7.6,0,0,1-3.437,5.953C1917.524,960.694,1915.986,959.805,1915.986,957.614Z" transform="translate(-1796.196 -652.508)"/><path class="q" d="M1922,951.506l2.961,1.544-4.649,8.474-3.468-1.8.879-4.772Z" transform="translate(-1796.253 -652.529)"/><path class="a" d="M1919.113,959.237a7.6,7.6,0,0,1,3.437-5.953c1.9-1.1,3.437-.207,3.437,1.985a7.6,7.6,0,0,1-3.437,5.953C1920.652,962.317,1919.113,961.428,1919.113,959.237Z" transform="translate(-1796.403 -652.615)"/><path class="g" d="M1919.113,959.237a7.6,7.6,0,0,1,3.437-5.953c1.9-1.1,3.437-.207,3.437,1.985a7.6,7.6,0,0,1-3.437,5.953C1920.652,962.317,1919.113,961.428,1919.113,959.237Z" transform="translate(-1796.403 -652.615)"/><path class="q" d="M1873.025,932.705a7.6,7.6,0,0,1,3.437-5.953c1.9-1.1,3.437-.207,3.437,1.985a7.594,7.594,0,0,1-3.437,5.953C1874.564,935.785,1873.025,934.9,1873.025,932.705Z" transform="translate(-1793.356 -650.861)"/><path class="q" d="M1873.025,932.705a7.6,7.6,0,0,1,3.437-5.953c1.9-1.1,3.437-.207,3.437,1.985a7.594,7.594,0,0,1-3.437,5.953C1874.564,935.785,1873.025,934.9,1873.025,932.705Z" transform="translate(-1793.356 -650.861)"/><path class="q" d="M1879.042,926.6l2.962,1.543-4.65,8.474-3.468-1.8.879-4.773Z" transform="translate(-1793.413 -650.882)"/><path class="a" d="M1876.153,934.328a7.594,7.594,0,0,1,3.437-5.953c1.9-1.1,3.436-.207,3.436,1.984a7.6,7.6,0,0,1-3.436,5.952C1877.691,937.408,1876.153,936.52,1876.153,934.328Z" transform="translate(-1793.563 -650.969)"/><path class="g" d="M1876.153,934.328a7.594,7.594,0,0,1,3.437-5.953c1.9-1.1,3.436-.207,3.436,1.984a7.6,7.6,0,0,1-3.436,5.952C1877.691,937.408,1876.153,936.52,1876.153,934.328Z" transform="translate(-1793.563 -650.969)"/><path class="e" d="M1922.631,946.2l-15.208-8.781,15.208-8.781c2.5-1.441,2.5-3.8,0-5.241h0a10.071,10.071,0,0,0-9.078,0l-15.208,8.78-15.208-8.78a10.071,10.071,0,0,0-9.078,0c-2.5,1.442-2.5,3.8,0,5.241l15.208,8.781L1874.06,946.2c-2.5,1.441-2.5,3.8,0,5.241h0a10.072,10.072,0,0,0,9.078,0l15.208-8.78,15.208,8.78a10.072,10.072,0,0,0,9.078,0C1925.127,950,1925.127,947.642,1922.631,946.2Z" transform="translate(-1793.301 -650.599)"/><path class="e" d="M1922.631,946.2l-15.208-8.781,15.208-8.781c2.5-1.441,2.5-3.8,0-5.241h0a10.071,10.071,0,0,0-9.078,0l-15.208,8.78-15.208-8.78a10.071,10.071,0,0,0-9.078,0c-2.5,1.442-2.5,3.8,0,5.241l15.208,8.781L1874.06,946.2c-2.5,1.441-2.5,3.8,0,5.241h0a10.072,10.072,0,0,0,9.078,0l15.208-8.78,15.208,8.78a10.072,10.072,0,0,0,9.078,0C1925.127,950,1925.127,947.642,1922.631,946.2Z" transform="translate(-1793.301 -650.599)"/><path class="a" d="M1892,937.678c0,2.841,3.428,5.144,7.659,5.144s7.659-2.3,7.659-5.144-3.429-7.548-7.659-7.548S1892,934.837,1892,937.678Z" transform="translate(-1794.611 -651.116)"/><path class="e" d="M1894.18,933.9c0,2.084,2.516,3.775,5.619,3.775s5.618-1.69,5.618-3.775-2.515-3.774-5.618-3.774S1894.18,931.819,1894.18,933.9Z" transform="translate(-1794.755 -651.116)"/><path class="a" d="M1899.954,890.8a3.46,3.46,0,0,0-3.437,3.484V927.82a3.437,3.437,0,1,0,6.874,0V894.283A3.461,3.461,0,0,0,1899.954,890.8Z" transform="translate(-1794.91 -648.516)"/><path class="r" d="M1965.011,886.471c0,.188,0,.387-.02.585a17.1,17.1,0,0,1-8.818,13.693l-37.492,20.559a9.954,9.954,0,0,1-1.774.763,10.236,10.236,0,0,1-8.372-.911l-42.941-25.3a23.437,23.437,0,0,1-11.435-18.013l-4.5-48.133-.466-5a5.344,5.344,0,0,1,7.689-5.29l46.479,23a5.347,5.347,0,0,1,2.7,3.111l14.862,45.1a6.205,6.205,0,0,0,8.967,3.448l24.254-13.871A7.257,7.257,0,0,1,1965.011,886.471Z" transform="translate(-1791.78 -643.76)"/><path class="q" d="M1915.584,919.348a2.979,2.979,0,0,1-3.214,4,10.21,10.21,0,0,1-3.774-1.318l-42.942-25.3a23.436,23.436,0,0,1-11.434-18.013l-4.141-44.317a2.14,2.14,0,0,1,3.079-2.117l37.5,18.544a5.367,5.367,0,0,1,2.7,3.121l14.853,45.1C1908.731,900.616,1911.871,909.606,1915.584,919.348Z" transform="translate(-1791.839 -644.633)"/><g transform="translate(195.603 61.405)"><path class="j" d="M1443.511,1493.479l-3.679,19.877a7.941,7.941,0,0,1-3.232,6.385c-11.6,10.056-3.737-6.084-3.737-6.385l3.679-19.877a3.484,3.484,0,0,1,6.969,0Z" transform="translate(-1430.26 -1469.35)"/><path class="s" d="M1454.9,1508.076a2.878,2.878,0,0,0,1.348-.871,2.1,2.1,0,0,0,.528-1.409l3.219-13.539c0-2.684-1.742-4.859-3.894-4.859s-3.893,2.174-3.893,4.859l-2.7,11.353a1.9,1.9,0,0,0,.947,2.007Z" transform="translate(-1446.425 -1467.994)"/><path class="s" d="M1481.642,1507.774c-.023,5.987-.7,12.76-2.561,14.467-1.435,1.319-4.056,1.421-6.833.929q-.262-.042-.524-.1a28.206,28.206,0,0,1-8.41-3.169c-.437-.262-5.472-2.58-7.6-3.867a.276.276,0,0,0-.276-.027c1.2-2.888,2.608-6.571,2.455-9.634-.129-2.63-1.513-5.348-1.89-8.01-.685-4.847-.722-11.814,4.143-14.637a5.93,5.93,0,0,1,2.924-.621,9.014,9.014,0,0,1,1.623.11c7.5,1.366,11.464,3.78,13.722,7.486,1.517,2.479,2.271,5.542,2.8,9.252.033.226.065.474.092.736.018.133.032.266.046.4A65.124,65.124,0,0,1,1481.642,1507.774Z" transform="translate(-1449.537 -1465.752)"/><path class="s" d="M1476.079,1488.578l-4.054,4.546a1.091,1.091,0,0,1-1.7-.091l-2.357-3.275-3.388.6a.675.675,0,0,1-.794-.665v-1.051a4.93,4.93,0,0,1,3.9-4.822,11.3,11.3,0,0,1,2.366-.246,9.91,9.91,0,0,1,5.682,1.648A2.266,2.266,0,0,1,1476.079,1488.578Z" transform="translate(-1453.9 -1465.998)"/><path class="s" d="M1500.034,1516.085c-.023,5.987-.7,12.76-2.561,14.467-1.434,1.32-4.056,1.421-6.833.929a7.725,7.725,0,0,1,.363-.823c2.488-4.037,2.81-5.2,2.308-9.983a15.482,15.482,0,0,1,.11-5.675c.483-1.743,1.587-3.43,1.251-5.205a10.664,10.664,0,0,0-.911-2.267,8.683,8.683,0,0,1-.561-5.049,4.712,4.712,0,0,1,1.2-2.529,3.416,3.416,0,0,1,2.405-.934c1.517,2.479,2.271,5.542,2.8,9.252.032.225.064.474.092.736.018.128.032.266.046.4C1499.92,1511.151,1500.025,1513.519,1500.034,1516.085Z" transform="translate(-1467.929 -1474.063)"/><path class="b" d="M1476.088,1486.183a2.014,2.014,0,0,1-.644,1.43,4.476,4.476,0,0,1-5.707.051,1.926,1.926,0,0,1,0-2.962c.042-.037.088-.078.134-.115,0,0,.009-.009.013-.009a3.972,3.972,0,0,1,1.95-.819c.12-.018.239-.032.363-.042s.244-.014.368-.014a4.086,4.086,0,0,1,2.879,1.053A2.005,2.005,0,0,1,1476.088,1486.183Z" transform="translate(-1456.646 -1466.063)"/><path class="j" d="M1476.2,1473.15v8.948a4.091,4.091,0,0,1-2.878,1.053,4.169,4.169,0,0,1-2.764-.947.584.584,0,0,1-.064-.055v-9Z" transform="translate(-1457.404 -1460.55)"/><path class="t" d="M1473.07,1483.13a4.406,4.406,0,0,1-2.917-1.006c0,.006-.028-.022-.045-.038l-.071-.068-.025-.121v-9.229h6.166v9.274l-.067.067A4.355,4.355,0,0,1,1473.07,1483.13Zm-2.6-1.336a4,4,0,0,0,2.6.876,3.944,3.944,0,0,0,2.648-.921v-8.621h-5.247Z" transform="translate(-1457.152 -1460.297)"/><path class="j" d="M1475.905,1475.75l-.492.731-2.488,3.564-.349.5-2.019,3.022a.612.612,0,0,1-.064-.055v-4.663l0-.023a33.663,33.663,0,0,1,2.75-2.92l2.225-.124Z" transform="translate(-1457.404 -1461.908)"/><path class="j" d="M1471.046,1462.731c-.023.332-.412.606-.823.869-.137.092-.275.183-.4.286-.012,0-.023,0-.034.023a1.3,1.3,0,0,0-.263.229.669.669,0,0,0-.194.331,6.641,6.641,0,0,1-.4,1.246,6.752,6.752,0,0,1-2.585,3.042,6.918,6.918,0,0,1-.766.4,5.263,5.263,0,0,1-1.658.457,4.214,4.214,0,0,1-.663.023,5.542,5.542,0,0,1-5.158-4.575,10.574,10.574,0,0,1-.194-1.7c-.012-.664,0-1.315.023-1.956.046-1.018.08-2.036.114-3.042.012-.412.034-.812.046-1.224a1.328,1.328,0,0,1,.011-.561,1.868,1.868,0,0,1,.972-1.224,4.181,4.181,0,0,1,2.4-.275,12.347,12.347,0,0,1,4.769,1.384,6.665,6.665,0,0,1,3.134,3.728C1469.605,1460.924,1471.08,1461.965,1471.046,1462.731Z" transform="translate(-1450.825 -1451.081)"/><path class="b" d="M1470.714,1452.923a6.372,6.372,0,0,0-1.5-3.8,6.7,6.7,0,0,0-3.162-1.965,7.016,7.016,0,0,0-2.509-.384,17.785,17.785,0,0,0-3.454.98c-1.188.332-2.445.4-3.6.825a3.39,3.39,0,0,0-2.39,2.567,3.1,3.1,0,0,0,2.019,2.934,9.083,9.083,0,0,0,3.753.476c.863-.012,2.664-.377,3.444.026,1.189.617.746,2.414,1.311,3.372a.921.921,0,0,0,.825.469c.778-.054,1.056-1.153,1.79-1.418a1.123,1.123,0,0,1,1.337.639,1.569,1.569,0,0,1-.248,1.537c-.35.459-1.037.509-1.351.875-.26.3-.162.823-.058,1.308a1.3,1.3,0,0,0,.774.982C1470.774,1463.406,1470.823,1454.375,1470.714,1452.923Z" transform="translate(-1448.833 -1446.765)"/><path class="j" d="M1482.6,1504.453v20.8a7.943,7.943,0,0,1-3.232,6.385c-14.064,8.466-19.117,3.527-4.12-5.623a.954.954,0,0,0,.383-.762v-20.8a3.485,3.485,0,1,1,6.969,0Z" transform="translate(-1451.721 -1475.083)"/><path class="s" d="M1496.506,1523.538a4.017,4.017,0,0,0,3.709-1.383,2.1,2.1,0,0,0,.528-1.409v-16.757c0-2.684-1.742-4.859-3.894-4.859s-3.893,2.174-3.893,4.859v17.364a1.227,1.227,0,0,0,.749,1.13A12.467,12.467,0,0,0,1496.506,1523.538Z" transform="translate(-1469.139 -1474.123)"/></g><path class="a" d="M2060.565,775.14v12.511c0,3.148-2.208,4.412-4.925,2.844l-79.378-45.828a10.88,10.88,0,0,1-4.925-8.53V723.625Z" transform="translate(-1799.855 -637.465)"/><g transform="translate(0 36.267)"><path class="s" d="M1750.365,477.416l-.068-24.045c-.032-11.566,8.11-25.659,18.166-31.471l64.593-37.283c5.06-2.929,9.647-3.2,12.961-1.272q-5.025-2.918-10.055-5.849c-3.314-1.924-7.9-1.647-12.976,1.276l-64.58,37.289c-10.058,5.8-18.2,19.893-18.169,31.465l.068,24.045c.02,5.742,2.046,9.783,5.312,11.687l10.066,5.851C1752.413,487.2,1750.38,483.161,1750.365,477.416Z" transform="translate(-1740.238 -376.268)"/><path class="g" d="M1828.387,381.491c10.059-5.818,18.25-1.148,18.283,10.421l.068,24.041c.032,11.572-8.1,25.656-18.176,31.467,1.535,4.52,3.678,8.667,6.57,11.453-.524.3-12.055,6.8-23.7-1.56l-47.456,27.4c-10.056,5.811-18.248,1.149-18.286-10.418l-.066-24.045c-.031-11.567,8.11-25.66,18.165-31.473Z" transform="translate(-1737.119 -374.694)"/></g><g transform="translate(224.908 0)"><path class="s" d="M1836.793,477.419l.068-24.046c.032-11.566-8.186-25.66-18.338-31.473l-65.2-37.284c-5.107-2.929-9.738-3.2-13.083-1.272q5.072-2.917,10.149-5.849c3.345-1.925,7.978-1.647,13.1,1.276l65.19,37.29c10.153,5.805,18.373,19.894,18.341,31.466l-.068,24.046c-.021,5.742-2.066,9.784-5.363,11.688l-10.161,5.851C1834.726,487.208,1836.779,483.164,1836.793,477.419Z" transform="translate(-1737.394 -376.268)"/><path class="g" d="M1764.38,381.519c-10.279-5.882-18.648-1.16-18.682,10.537l-.069,24.307c-.032,11.7,8.279,25.94,18.572,31.816-1.568,4.57-3.759,8.763-6.714,11.581.536.3,12.318,6.875,24.214-1.577l48.492,27.7c10.276,5.876,18.647,1.162,18.686-10.533l.068-24.312c.032-11.7-8.287-25.945-18.561-31.822Z" transform="translate(-1745.628 -375.806)"/></g></svg>