<svg xmlns="http://www.w3.org/2000/svg" width="76.638" height="243.921" viewBox="0 0 76.638 243.921"><defs><style>.a{fill:#e2e5f3;}.b{fill:#f5f5fa;}.c{fill:#3d2768;}.d{fill:#5dc5c7;}.e{fill:#2d1d50;}.f{fill:#bdc0df;}</style></defs><ellipse class="a" cx="30.42" cy="19.328" rx="30.42" ry="19.328" transform="translate(15.797 205.264)"/><path class="a" d="M3794.734,802.441l.067,1.159A9.425,9.425,0,0,1,3794.734,802.441Z" transform="translate(-3790.786 -654.385)"/><path class="a" d="M3842.727,802.441a10.066,10.066,0,0,1-.106,1.5Z" transform="translate(-3783.68 -654.385)"/><path class="a" d="M3849.833,804.644l-.107,1.5c-1.219,8.717-13.043,15.556-27.446,15.556-14.586,0-26.523-7.013-27.479-15.892l-.067-1.159c0-9.418,12.335-17.051,27.546-17.051S3849.833,795.226,3849.833,804.644Z" transform="translate(-3790.786 -656.589)"/><path class="b" d="M3849.714,803.782l-4.531,63.725c0,6.71-10.486,12.142-23.419,12.142-10.981,0-20.188-3.917-22.722-9.2a6.658,6.658,0,0,1-.7-2.947l-3.549-64.057c.958,8.876,12.887,15.893,27.478,15.893C3836.674,819.344,3848.5,812.5,3849.714,803.782Z" transform="translate(-3790.777 -654.236)"/><path class="c" d="M3846.233,803.7l-.1,1.326c-.721,5.161-5.632,9.573-12.625,11.932a35.115,35.115,0,0,1-7.747,1.636c-.7.075-1.415.122-2.143.155-.579.026-1.172.04-1.765.04-.969,0-1.926-.033-2.863-.108a34.512,34.512,0,0,1-3.732-.458,31.989,31.989,0,0,1-5.275-1.347c-7.006-2.418-11.877-6.919-12.443-12.146l-.061-1.03c0-3.652,2.1-7.006,5.591-9.614a26.028,26.028,0,0,1,7.822-3.86c.788-.249,1.6-.465,2.432-.66a38.006,38.006,0,0,1,8.528-.95c.688,0,1.375.019,2.049.061.943.04,1.866.121,2.769.235a31.127,31.127,0,0,1,12.363,4.09C3843.477,795.734,3846.233,799.52,3846.233,803.7Z" transform="translate(-3790.378 -656.436)"/><path class="d" d="M3827.092,761.323c-.041-3.577-3.153-10.55-1.347-18.688,4.6-20.736-7.808-67.873-9.641-69.092-1.166-.775-5.646,14.558-9.472,33.711a5.263,5.263,0,0,1,1.657.444,5.492,5.492,0,0,1,0,10.031,5.4,5.4,0,0,1-2.243.479,5.275,5.275,0,0,1-.869-.068,3.849,3.849,0,0,1-.559-.122c-1.408,8.172-2.594,16.6-3.288,24.469-.815,9.263-.956,17.752.021,24.117,1.9,12.449,5.6,27.715,9.068,40.7,1.138,4.251,2.256,8.259,3.274,11.836,2.754,9.681,4.823,16.283,4.823,16.283v.336c.815.068,1.645.1,2.479.1.127.007.256.007.384.007.593,0,1.186-.014,1.765-.04.728-.033,1.442-.08,2.143-.155.108-3.234.512-15.677.91-29.682C3826.688,788.7,3827.179,769.023,3827.092,761.323ZM3816.1,736.3a3.547,3.547,0,0,1,1.906.552,3.454,3.454,0,0,1,.795.673v.007a3.57,3.57,0,0,1-.593,5.255v.007c-.007.007-.013.007-.02.014a3.554,3.554,0,0,1-2.089.673,3.59,3.59,0,1,1,0-7.181Zm-2.452,43.964v.007a3.59,3.59,0,1,1,.593-5.268v.007a3.571,3.571,0,0,1-.593,5.254Zm8.279,15.629a5.331,5.331,0,0,1-2.128.479h-.115a5.348,5.348,0,0,1-.869-.068,5.5,5.5,0,0,1,.324-10.894,2.833,2.833,0,0,1,.33-.019c.074-.007.141-.007.216-.007a5.414,5.414,0,0,1,2.243.478,5.487,5.487,0,0,1,0,10.031Z" transform="translate(-3789.905 -673.515)"/><path class="d" d="M3846.123,746.108a5.382,5.382,0,0,1,2.163.444A104.6,104.6,0,0,0,3850,732c-.075-15.258-6.346-41.121-8.353-43.081-.1-.1-.189-.141-.264-.122l-.006.007c-1.577.519-15.312,32.027-18.54,51.563-.2,1.233-.364,2.418-.479,3.544-.013.12-.026.242-.033.363-.021.2-.04.392-.061.6-.148,1.678-.29,3.746-.417,6.138-.021.451-.048.909-.068,1.38q-.05.8-.082,1.638c-.026.512-.047,1.03-.073,1.563-.047,1.138-.094,2.331-.141,3.563q-.031.839-.061,1.7c-.007.255-.021.518-.027.788a4.724,4.724,0,0,1,.546-.028,5.392,5.392,0,0,1,2.243.479,5.492,5.492,0,0,1,0,10.031,5.393,5.393,0,0,1-2.243.478,5.266,5.266,0,0,1-.869-.067c-.075,3.065-.142,6.245-.2,9.479-.013.646-.027,1.293-.04,1.946-.1,5.168-.189,10.449-.256,15.643-.007.646-.021,1.3-.027,1.946s-.02,1.293-.026,1.941c-.149,11.5-.235,22.291-.285,30.073.729-.033,1.443-.08,2.144-.155.613-.061,1.212-.134,1.805-.228.371-.054.735-.115,1.1-.183a32.08,32.08,0,0,0,4.844-1.225c.863-3.652,2.978-12.686,5.525-23.956,3.489-15.408,7.773-34.991,10.744-50.729-.094.007-.181.007-.275.007a5.494,5.494,0,1,1,0-10.988Zm-12.908,43.715a3.557,3.557,0,0,1-2.937-1.536,3.521,3.521,0,0,1-.646-2.048,3.587,3.587,0,1,1,3.583,3.584Zm4.015-63.865v.007a3.589,3.589,0,1,1,.594-5.269v.007a3.572,3.572,0,0,1-.594,5.255Z" transform="translate(-3787.001 -671.248)"/><path class="d" d="M3815.083,811.3q-.131-1.89-.263-3.894a3.223,3.223,0,0,1-.923.129,3.533,3.533,0,0,1-2.93-1.536,3.473,3.473,0,0,1-.647-2.047,3.6,3.6,0,0,1,3.577-3.591,2.544,2.544,0,0,1,.453.033c-.035-.525-.075-1.058-.108-1.589-1.179-17.522-2.494-37.072-2.918-43.351-.444-6.595-4.485-14.8-8.6-20.81-3.524-5.133-7.1-8.663-8.562-8.219-1.313.4-2.2,6.367-2.606,13.7a5.233,5.233,0,0,1,1.022-.2,5.009,5.009,0,0,1,.547-.026,5.562,5.562,0,0,1,.586.033,2.178,2.178,0,0,1,.282.04,5.255,5.255,0,0,1,1.375.4,5.379,5.379,0,0,1,1.886,1.4,5.435,5.435,0,0,1,1.368,3.624,5.368,5.368,0,0,1-.284,1.724,5.472,5.472,0,0,1-2.971,3.288,5.043,5.043,0,0,1-.964.331,5.7,5.7,0,0,1-1.279.148,5.3,5.3,0,0,1-.87-.068,4.027,4.027,0,0,1-.559-.121,4.069,4.069,0,0,1-.4-.129c.026,7.377.519,14.262,1.515,17,.809,2.229,3.039,9.3,5.679,17.839a5.165,5.165,0,0,1,2.163-.7,2.56,2.56,0,0,1,.33-.021c.074-.007.142-.007.215-.007a5.7,5.7,0,0,1,1.523.209,5.216,5.216,0,0,1,.721.27,5.492,5.492,0,0,1,1.859,8.683,5.69,5.69,0,0,1-1.859,1.348,5.2,5.2,0,0,1-1.805.458c.788,2.567,1.582,5.153,2.35,7.679,3.1,10.173,5.881,19.375,6.913,22.791a29.222,29.222,0,0,0,2.923.862c.216.054.431.108.654.148.552.129,1.125.242,1.7.336C3815.958,824.229,3815.561,818.368,3815.083,811.3Zm-9.917-52.17a3.548,3.548,0,0,1,1.907.552,3.474,3.474,0,0,1,.795.674v.007a3.574,3.574,0,0,1-.593,5.254v.007c-.007.007-.014.007-.021.014a3.542,3.542,0,0,1-2.088.674,3.591,3.591,0,0,1,0-7.182Z" transform="translate(-3791.296 -665.67)"/><path class="c" d="M3792.542,739.912a5.249,5.249,0,0,0-1.024.2c.4-7.329,1.293-13.3,2.607-13.7,0,0-.283,5.82-.169,13.541a2.167,2.167,0,0,0-.282-.04,5.538,5.538,0,0,0-.586-.033A4.991,4.991,0,0,0,3792.542,739.912Z" transform="translate(-3791.262 -665.666)"/><path class="c" d="M3802.721,781.762a5.7,5.7,0,0,0-1.523-.209c-.073,0-.141,0-.215.007a2.571,2.571,0,0,0-.33.021,5.162,5.162,0,0,0-2.163.7c-2.641-8.543-4.87-15.61-5.679-17.839-1-2.742-1.489-9.627-1.515-17a4.085,4.085,0,0,0,.4.129,4.018,4.018,0,0,0,.559.121,5.308,5.308,0,0,0,.87.068,5.7,5.7,0,0,0,1.279-.148c.533,8.151,1.678,16.485,3.995,21.672A117.09,117.09,0,0,1,3802.721,781.762Z" transform="translate(-3791.296 -662.547)"/><path class="c" d="M3812.488,818.262a29.194,29.194,0,0,1-2.924-.862c-1.031-3.415-3.812-12.617-6.912-22.791-.769-2.526-1.563-5.113-2.351-7.679a5.2,5.2,0,0,0,1.805-.458,5.683,5.683,0,0,0,1.859-1.348C3807.172,796.664,3810.419,809.733,3812.488,818.262Z" transform="translate(-3789.96 -656.955)"/><path class="e" d="M3824.2,805.992c-.4,14.006-.8,26.448-.91,29.682-.7.075-1.415.122-2.143.155-.579.026-1.171.04-1.765.04-.127,0-.256,0-.383-.007l-1.192-39.5a5.331,5.331,0,0,0,2.128-.479,5.488,5.488,0,0,0,0-10.031,5.419,5.419,0,0,0-2.243-.478c-.075,0-.142,0-.216.007L3816.2,742.8c.007-.007.013-.007.02-.014v-.007a3.569,3.569,0,0,0,.592-5.255v-.007a3.427,3.427,0,0,0-.794-.673l-1.907-63.306c1.833,1.22,14.242,48.356,9.641,69.092-1.8,8.137,1.307,15.11,1.347,18.688C3825.185,769.02,3824.693,788.7,3824.2,805.992Z" transform="translate(-3787.91 -673.512)"/><path class="c" d="M3824.188,761.359c-.007,19.961,0,49.037,0,61.056-.593.094-1.192.168-1.805.228-.7.075-1.415.122-2.144.155.049-7.781.136-18.574.285-30.073.006-.648.019-1.287.026-1.941s.021-1.3.027-1.946c.067-5.194.155-10.476.256-15.643.012-.654.026-1.3.04-1.947.061-3.234.128-6.414.2-9.479a5.279,5.279,0,0,0,.869.067A5.393,5.393,0,0,0,3824.188,761.359Z" transform="translate(-3787.001 -660.481)"/><path class="c" d="M3841.231,688.8l-.007.026c-.519,1.5-17.178,49.563-17.185,70.225v3.039a5.391,5.391,0,0,0-2.243-.479,4.769,4.769,0,0,0-.547.028c.007-.27.021-.533.028-.788q.029-.859.061-1.7c.047-1.232.094-2.425.141-3.563.026-.533.047-1.051.073-1.563q.032-.839.082-1.637c.02-.471.047-.929.067-1.38.128-2.392.269-4.46.417-6.138.021-.208.041-.4.062-.6.006-.121.02-.242.033-.363.114-1.125.276-2.311.479-3.544C3825.918,720.831,3839.654,689.323,3841.231,688.8Z" transform="translate(-3786.852 -671.247)"/><path class="b" d="M3839.974,751.6a5.493,5.493,0,0,0,5.5,5.49c.094,0,.182,0,.275-.007-2.971,15.737-7.255,35.321-10.744,50.729-2.547,11.27-4.662,20.3-5.525,23.956a32.087,32.087,0,0,1-4.844,1.225l4.992-44.712a3.586,3.586,0,0,0,6.528-2.048,3.594,3.594,0,0,0-3.59-3.591,3.541,3.541,0,0,0-2.412.943l6.426-57.626v-.007a3.572,3.572,0,0,0,.593-5.255V720.7l3.55-31.865.007-.026.271.115c2.007,1.96,8.278,27.823,8.353,43.081a104.392,104.392,0,0,1-1.718,14.551,5.378,5.378,0,0,0-2.162-.444A5.5,5.5,0,0,0,3839.974,751.6Z" transform="translate(-3786.349 -671.247)"/><path class="b" d="M3814.713,811.3q-.131-1.89-.263-3.894a3.221,3.221,0,0,1-.923.129A3.533,3.533,0,0,1,3810.6,806a3.473,3.473,0,0,1-.647-2.047,3.6,3.6,0,0,1,3.577-3.591,2.547,2.547,0,0,1,.453.033c-.035-.525-.075-1.058-.109-1.589-1.178-17.522-2.493-37.072-2.917-43.351-.444-6.595-4.486-14.8-8.6-20.81-3.524-5.133-7.1-8.663-8.563-8.219l3.092,15.34a5.434,5.434,0,0,1,1.369,3.624,5.368,5.368,0,0,1-.284,1.724l16.141,80.013c.552.129,1.125.242,1.7.336C3815.588,824.229,3815.191,818.368,3814.713,811.3Zm-7.808-45.682v.007c-.006.007-.013.007-.02.014a3.544,3.544,0,0,1-2.089.674,3.591,3.591,0,0,1,0-7.182,3.548,3.548,0,0,1,1.907.552,3.464,3.464,0,0,1,.795.674v.007a3.572,3.572,0,0,1-.593,5.254Z" transform="translate(-3790.926 -665.67)"/><path class="f" d="M3849.168,803.739l-4.531,63.725c0,6.71-10.486,12.142-23.419,12.142-10.982,0-20.188-3.917-22.722-9.2l-.011-.036c30.78-28.152,23.241-51.074,23.241-51.074C3836.128,819.3,3847.949,812.461,3849.168,803.739Z" transform="translate(-3790.229 -654.193)"/></svg>