<svg xmlns="http://www.w3.org/2000/svg" width="101.689" height="278.276" viewBox="0 0 101.689 278.276"><defs><style>.a{fill:#1f3598;}.b{fill:#ff8358;}.c{fill:#ffc7cb;}.d{fill:#75a3ec;}.e{fill:#3772ce;}.f{fill:#8dc0ef;}.g{fill:#e2e8f2;}.h{fill:#842229;}.i{fill:#636363;}.j{fill:#fab300;}</style></defs><g transform="translate(0 0)"><path class="a" d="M883.734,876.53c.84,1.468,1.7,2.916,2.524,4.377a43.687,43.687,0,0,1,2.349,4.6c.994,2.393,2.886,7.054,1.506,9.5-2.078,3.683-6.479,1.272-8.785-.876a99.28,99.28,0,0,1-9.738-10.509,15.76,15.76,0,0,1-3.221-5.568c-1.851-6.673.069-16.681,6.793-15.2,2.455.541,3.715,2.558,4.607,5.264A45.889,45.889,0,0,0,883.734,876.53Z" transform="translate(-802.618 -618.642)"/><path class="a" d="M929.1,861.774c.285,1.372.6,2.739.868,4.1a29.722,29.722,0,0,1,.627,4.192c.112,2.092.287,6.15-1.857,7.366-3.228,1.829-6.543-1.59-7.976-4.013a82.825,82.825,0,0,1-5.551-11.259,11.217,11.217,0,0,1-1.115-5.219c.557-5.478,5.819-11.885,11.643-8.235,2.127,1.334,2.619,3.26,2.525,5.536A30.929,30.929,0,0,0,929.1,861.774Z" transform="translate(-892.62 -619.807)"/><path class="b" d="M922.767,803.273l-22.05,48.949c-.938,3.079.518,6.252,3.255,7.084l3.406,1.039c2.575.784,4.227-1.139,5.322-3.961l16-33.289Z" transform="translate(-875.978 -623.237)"/><path class="c" d="M893.38,885.718c-.886-2.093-7.144-14.962-7.522-16.908-10.594-40.7-6.094-23.438-7.64-24.542-1.967-2.37-2.708,9.3-8.187,7.756l4.624,18.9c1.122,4.487,8.746,15.947,10.962,17.384l3.715,2.411c1.065.692,2.345,1.408,3.495.917a2.854,2.854,0,0,0,1.45-2.727A8.844,8.844,0,0,0,893.38,885.718Z" transform="translate(-808.806 -620.277)"/><path class="c" d="M926.663,855.109l-.108,7.248a8.821,8.821,0,0,1-.468,3.281,2.855,2.855,0,0,1-2.427,1.91c-1.25-.014-2.131-1.186-2.828-2.25l-2.425-3.7c-1.448-2.209-2.953-4.618-2.866-7.334.1-3.175,2.329-5.842,4.429-8.2,1.024-1.15,2.248-2.394,3.726-2.351a3.584,3.584,0,0,1,2.5,1.4,7.061,7.061,0,0,1,1.651,4.822c-.085,2.294-1.24,4.468-1.317,6.761Z" transform="translate(-891.405 -620.111)"/><path class="a" d="M513.356,1832.081c-4.691-10.44-14.66-15.016-26.318-14.338-13.112.763-23.676,13.039-24.175,26.741a40.311,40.311,0,0,0,.819,8.588c.674,3.748,7.854,40.86,6.39,41.143,1.07,6.789,1.5,13.037-3.97,20.147-4.8,7.667-13.954,24.313-1.795,32.1a3.448,3.448,0,0,0,1.795.665,3.838,3.838,0,0,0,2.067-.833c8.973-6.037,7.384-15.059,14.608-22.883,3.836-4.155,4.686-15.675,6.626-22.57,1.818-5.768,1.108-9.367,1.939-15.3.628-4.487-.474-7.985,0-12.5.221-2.1,1.878-6.279,1.541-8.187,1.821,10.315,1.844,39.024,1.545,49.5-.437,15.3-3.481,21.725-1.545,36.971a12.118,12.118,0,0,0,1.545,5.272c1.99,2.962,10.244,3.3,13.633,3.37a2.454,2.454,0,0,0,1.581-.333,2.924,2.924,0,0,0,.813-1.968,584.1,584.1,0,0,0,5.864-66.711c.355-9.849.08-19.706.409-29.555.3-8.81.51-17.819-2.226-26.33A28.738,28.738,0,0,0,513.356,1832.081Zm.672,3.685c.005-.028.013-.057.019-.085v.087Z" transform="translate(-432.486 -1712.617)"/><path class="d" d="M880.342,731.034,873.4,684.86a7.284,7.284,0,1,0-14.4,2.173l7.1,47.2a7.044,7.044,0,0,0,.582,1.966l15.484,33.481a18.786,18.786,0,0,0,13.252-6.031Z" transform="translate(-797.965 -632.871)"/><path class="c" d="M871.8,765.272l-3.568-7.718a18.785,18.785,0,0,1-13.252,6.031l3.6,7.8a7.273,7.273,0,0,0,6.613,4.223,7.275,7.275,0,0,0,6.6-10.339Z" transform="translate(-770.782 -626.771)"/><path class="e" d="M896.182,668.479c-.024,0-.046.026-.07.052a1.621,1.621,0,0,1-.024-.337A.419.419,0,0,0,896.182,668.479Z" transform="translate(-838.78 -633.68)"/><path class="b" d="M893.372,678.57c.166.011.331.044.5.066l-1.3-1.244C892.845,677.775,893.109,678.173,893.372,678.57Z" transform="translate(-832.675 -632.969)"/><path class="d" d="M875.413,699.186l2.729,10.241,5.377,31.105c.561,2.107,4.239,3.841,6.076,4.751,4.944,2.45,14.575,3.666,28.784-2.356a7.442,7.442,0,0,0,4.318-5.494l5.6-23.048.089-.463a16.224,16.224,0,0,0-1.5-10.478l-5.189-9.96v-5.325c0-6.316-5.587-10.866-11.183-9.1l-5.032,1.746-13.644,4.754-11.749,4.085A7.89,7.89,0,0,0,875.413,699.186Z" transform="translate(-848.695 -632.87)"/><path class="f" d="M875.413,699.186l2.729,10.241c1.37,1.691,2.74,3.395,4.119,5.087,2.888,3.579,5.914,7.265,9.934,9.141,6.688,3.126,14.369.572,21.156-2.307q6.3-2.652,12.454-5.659c.834-.4,1.687-.819,2.491-1.3l.089-.463a16.224,16.224,0,0,0-1.5-10.478l-5.189-9.96v-5.325c0-6.316-5.587-10.866-11.183-9.1l-5.032,1.746-13.644,4.754-11.749,4.085A7.89,7.89,0,0,0,875.413,699.186Z" transform="translate(-848.695 -632.87)"/><path class="c" d="M910.234,695.319a1.7,1.7,0,0,1-.984.461c-1.626.254-3.216-.643-4.647-1.542a105,105,0,0,1-10.521-7.644c-.473-.389-.947-.79-1.42-1.189l8-2.779,5.643-1.966c.182.377.364.753.534,1.141a52.4,52.4,0,0,1,2.56,6.869c.426,1.456.789,2.937,1.092,4.429A2.583,2.583,0,0,1,910.234,695.319Z" transform="translate(-849.518 -632.716)"/><path class="f" d="M938.51,749.577c1.882.162,3.766.3,5.655.334q1.8.035,3.594-.049c.336-.015.571-.021.763-.025.175-.039.388-.083.7-.141.282-.054,1.119-.292,1.607-.418.234-.141.4-.235.489-.275.051-.046.11-.105.137-.125.053-.122.1-.239.122-.3a10.443,10.443,0,0,0,.448-3.5,13.343,13.343,0,0,1,.151-1.62c-4.6-7.38-13.56-10.952-19.47-13.289a51.153,51.153,0,0,1-4.757-2.049,2.406,2.406,0,0,1,.381-2.743l20.068-23.855a7.281,7.281,0,0,0-11.144-9.374l-19.992,23.768a16.981,16.981,0,0,0-.593,21.482c2.331,3.008,6.015,4.466,10.679,6.311C931.3,745.264,935.918,747.1,938.51,749.577Z" transform="translate(-913.125 -632.03)"/><path class="g" d="M871.559,708.269l-.165.34a.5.5,0,0,0,.132.012C871.526,708.51,871.548,708.39,871.559,708.269Z" transform="translate(-787.554 -630.582)"/><rect class="c" width="14.186" height="19.173" transform="translate(43.133 34.704)"/><path class="c" d="M910.534,689.619a10.664,10.664,0,0,1-3.117-1.335c-.377-.231-.753-.486-1.117-.74a28.041,28.041,0,0,1-4.5-3.969,61.123,61.123,0,0,1-8.009-11.734V668.37h14.186v14.38A52.358,52.358,0,0,1,910.534,689.619Z" transform="translate(-850.656 -633.667)"/><path class="c" d="M896.17,674.4l14.119,8.276.067-.191v-9.1Z" transform="translate(-853.043 -633.278)"/><path class="h" d="M884.7,650.763c.407-13.357,12.284-10.456,23.641-9.483a11.736,11.736,0,0,1,3.078.542,9.348,9.348,0,0,1,2.334,1.381c6.623,4.989,11.169,12.582,10.273,20.229-1.681,14.357-21.981,19.8-32.89,9.22C885.244,666.932,884.465,658.494,884.7,650.763Z" transform="translate(-854.435 -635.835)"/><path class="c" d="M912.853,667.672c-.149,4.186-.866,8.319-3.319,11.39-2.7,3.426-7.062,4.785-11.2,4.894a12.428,12.428,0,0,1-6.665-1.468c-3.816-2.284-5.6-7.2-6.565-11.852a39.116,39.116,0,0,1-.718-5.356,19.9,19.9,0,0,1,.594-6.063,17.437,17.437,0,0,1,7.631-9.949,27.492,27.492,0,0,1,11.595-3.67c1.957-.245-4.431-.3-2.672.707,1.165.653,4.507,1.9,4.78,3.262.125.49,6.192,1.006,6.118,1.5.123,3.806.247,7.584.371,11.39C912.853,664.165,912.9,665.9,912.853,667.672Z" transform="translate(-842.844 -635.439)"/><path class="h" d="M929.235,641.788c-3.577-6.66-14.376-7.636-19.09-1.727s-1.362,16.221,5.927,18.229a11.8,11.8,0,0,0,13.655-6.816,11.64,11.64,0,0,0-5.505-14.189Z" transform="translate(-885.82 -636.157)"/><path class="h" d="M913.785,654.692a25.751,25.751,0,0,1-5.978,9.171,15.049,15.049,0,0,1-9.9,4.276,5.916,5.916,0,0,1-4.69-1.733,6.4,6.4,0,0,1-1.142-2.522,16.5,16.5,0,0,1,.676-10.791,12.526,12.526,0,0,1,7.981-7.065,14.089,14.089,0,0,1,11.026,2.169c2.3,1.486,4.446,4.032,3.784,6.69Z" transform="translate(-853.305 -635.423)"/><path class="i" d="M912.628,672.846l.458-.787-10.84-6.334-.459.787Z" transform="translate(-861.825 -633.871)"/><path class="c" d="M909.648,664.922c1.433-.5,2.849,1.1,3.474,2.924a15.915,15.915,0,0,0,.965,2.722,2.061,2.061,0,0,0,1.036.926,3.087,3.087,0,0,1-1.551,3.569c-1.221.4-2.487-.384-3.492-1.406a7.677,7.677,0,0,1-2.244-4.395C907.618,667.46,908.346,665.373,909.648,664.922Z" transform="translate(-870.445 -633.94)"/><path class="j" d="M894.143,665.7c-.264-.9-.84-1.213-1.5-.83a3.971,3.971,0,0,0-1.5,2.566l-.429-.07a5.108,5.108,0,0,1,1.933-3.3c.854-.493,1.594-.085,1.934,1.065Z" transform="translate(-831.371 -634.015)"/><path class="i" d="M894.143,665.7c-.264-.9-.84-1.213-1.5-.83a3.971,3.971,0,0,0-1.5,2.566l-.429-.07a5.108,5.108,0,0,1,1.933-3.3c.854-.493,1.594-.085,1.934,1.065Z" transform="translate(-831.371 -634.015)"/><path class="i" d="M896.346,676.764a4.423,4.423,0,0,0,2.177-.659,10.167,10.167,0,0,0,4.592-7.953,3.1,3.1,0,0,0-5.047-2.914,10.162,10.162,0,0,0-4.591,7.953,3.494,3.494,0,0,0,1.506,3.219A2.684,2.684,0,0,0,896.346,676.764Zm3.9-11.274a1.805,1.805,0,0,1,.911.231,2.646,2.646,0,0,1,1.05,2.432,9.156,9.156,0,0,1-4.137,7.163,2.219,2.219,0,0,1-3.681-2.125,9.153,9.153,0,0,1,4.137-7.164A3.514,3.514,0,0,1,900.242,665.49Z" transform="translate(-842.899 -633.96)"/><path class="i" d="M885.564,670.538a4.424,4.424,0,0,0,2.177-.658,10.166,10.166,0,0,0,4.591-7.953,3.1,3.1,0,0,0-5.047-2.914,10.164,10.164,0,0,0-4.591,7.953,3.5,3.5,0,0,0,1.506,3.219A2.687,2.687,0,0,0,885.564,670.538Zm3.9-11.273a1.8,1.8,0,0,1,.911.231,2.645,2.645,0,0,1,1.05,2.432,9.151,9.151,0,0,1-4.137,7.163,2.219,2.219,0,0,1-3.681-2.124,9.156,9.156,0,0,1,4.137-7.164A3.511,3.511,0,0,1,889.461,659.265Z" transform="translate(-820.502 -634.441)"/><path class="h" d="M886.964,652.788l21.013,6.833a13.447,13.447,0,0,0-3.939-11.852c-3.067-3.066-7.317-5.976-11.618-6.531-3.382-.435-7.7,1.655-8.543,4.959-.929,3.653,3.132,6.455,6.555,8.03Z" transform="translate(-837.496 -635.768)"/><path class="b" d="M874.3,763.045a.341.341,0,0,0,.012.109,15.3,15.3,0,0,1-1.808-.182Z" transform="translate(-791.495 -626.353)"/><path class="c" d="M919.383,736.86a12.166,12.166,0,0,0-6.547,1.133q-.372.186-.726.409a4.907,4.907,0,0,0-.445,7.778,7.26,7.26,0,0,1,2.5,4.286,5.873,5.873,0,0,0,5.711,5.265h.294a6.131,6.131,0,0,0,2.723-.639,6.206,6.206,0,0,0,3.262-6.5A19,19,0,0,0,919.383,736.86Z" transform="translate(-883.781 -628.376)"/></g></svg>