<svg xmlns="http://www.w3.org/2000/svg" width="208.359" height="489.607" viewBox="0 0 208.359 489.607"><defs><style>.a{fill:#1f3598;}.b{fill:#ffc7cb;}.c{fill:#bddcff;}.d{fill:#3772ce;}.e{fill:#e2e8f2;}.f{fill:#a0d2ff;}</style></defs><path d="M564.465,561.654a117.747,117.747,0,0,1,.427-18.693c1.424-16.3,9.747-31.514,27.569-33.552,32.657-3.74,39.143,18.961,40.785,46.414-10.138,11.758-22.216,23.365-28.53,37.7-1.352,3.07-17.931,3.244-20.138,2.3-5.356-2.28-11.926-11.316-14.984-16.112C566.376,574.665,564.956,568.248,564.465,561.654Z" transform="translate(-518.813 -509.004)"/><path class="a" d="M590.252,745.828c-.181,2.177-.343,4.474.6,6.447,1.149,2.4,3.667,3.787,6.029,5.015,8.684,4.519,17.147,9.33,26.566,12.177a15,15,0,0,0,6.634.869c2.222-.356,4.4-1.872,4.867-4.073.533-2.533-1.249-4.914-2.918-6.891-7.051-8.349-14.389-16.926-24.192-21.757-2.9-1.428-6.1-2.518-9.309-2.179s-6.407,2.411-7.248,5.529Z" transform="translate(-496.265 -311.632)"/><path class="a" d="M562.493,759.83a19.516,19.516,0,0,0,1.26,6.655c1.72,4.326,4.523,8.12,7.295,11.862q2.454,3.31,4.906,6.621a33.78,33.78,0,0,0,5.576,6.342,11.379,11.379,0,0,0,7.772,2.821,3.157,3.157,0,0,0,2.091-.786,3.3,3.3,0,0,0,.627-1.065c1.981-4.833.625-10.316-.751-15.353-1.935-7.091-4.505-13.773-6.424-20.778-1.331-4.863-2.915-11.673-8.884-12.527C566.537,742.342,562.3,751.556,562.493,759.83Z" transform="translate(-520.353 -304.544)"/><path class="b" d="M570.658,747.258,564.372,642.9l2.155-24.979,51.193,7.787,27.4-1.3.934,120s-12.508,92.731-12.532,92.91c-.29,2.149,3.6,3.5,3.6,5.606,0,2.589-1.222,6.615-6.98,7.611-2.274.391-8.4-1.05-10.245-2.506-3.482-2.742-6.144-6.318-5.932-11.069,0-.039,3.763-84.578,3.763-84.578L609.841,662l-2.295,42.139-2.791,42.908L583.02,860.3c-.35,4.68-1.928,8.28-6.1,8.28H571.4c-4.435,0-8.027-4.045-8.027-9.036Z" transform="translate(-519.581 -414.04)"/><path class="a" d="M576.727,603.023l-16.029,26.4s-2.92,87.648,1.054,136.28c0,0,17.33,17.91,45.8,17.555,0,0,42.616-7.557,59.51-22.833,0,0-.719-117.55-29.174-158.165Z" transform="translate(-522.814 -427.694)"/><path class="c" d="M599.155,550.545h0a11.637,11.637,0,0,0-6.477,15.129l30.2,75.41A11.639,11.639,0,0,0,638,647.56h0a11.637,11.637,0,0,0,6.477-15.129l-30.2-75.41A11.635,11.635,0,0,0,599.155,550.545Z" transform="translate(-494.758 -473.514)"/><path class="d" d="M591.32,543.753c-.037,0-.075.041-.114.082a2.638,2.638,0,0,1-.037-.541A.664.664,0,0,0,591.32,543.753Z" transform="translate(-495.345 -479.106)"/><path class="c" d="M568.521,599.429l6.037,51.21a22.751,22.751,0,0,1,1.913,1.451c11.673,10.026,28.065,11.012,43.827,10.643a93.856,93.856,0,0,0,10.775-3.8,11.933,11.933,0,0,0,6.934-8.821l10.962-42.73.148-.739a26.078,26.078,0,0,0-2.405-16.812l-8.321-15.977-2.512-8.568c-.81-9.423-8.669-18.828-15.426-14.569l-3.107,1.073-4.975,1.72-21.877,7.637-6.4,2.22-12.446,4.328c-5.917,2.052-9.228,8.839-7.508,15.312Z" transform="translate(-519.308 -473.554)"/><path class="e" d="M564.139,582.788l4.382,16.422c2.2,2.718,4.384,5.436,6.6,8.156,4.642,5.751,9.489,11.651,15.941,14.665,10.726,5.011,23.043.925,33.936-3.7,6.731-2.828,13.408-5.861,19.973-9.081,1.331-.627,2.7-1.312,3.995-2.089l.148-.74a26.07,26.07,0,0,0-2.405-16.809l-8.321-15.979-3.171-10.814c-.151-7.177-5.8-15.151-14.767-12.323l-3.107,1.073-4.975,1.72-21.877,7.637-6.4,2.22-12.446,4.328C565.73,569.527,562.418,576.315,564.139,582.788Z" transform="translate(-519.308 -473.335)"/><path class="b" d="M574.587,562.376A60.1,60.1,0,0,0,586.4,575.82c3.366,3,6.99,5.844,11.261,7.231,4.255,1.406,9.322,1.11,12.779-1.737a13.167,13.167,0,0,0,4.382-9.618,27.3,27.3,0,0,0-2.033-10.616,59.294,59.294,0,0,0-4.957-10.283l-4.975,1.721-21.877,7.637Z" transform="translate(-509.802 -472.563)"/><path class="e" d="M613.145,577.215l-.266.548a.9.9,0,0,0,.213.017C613.093,577.6,613.126,577.41,613.145,577.215Z" transform="translate(-476.415 -449.53)"/><rect class="b" width="22.757" height="41.865" transform="translate(70.916 53.255)"/><path class="b" d="M579.061,541.405l20.645,21.655.108-.306v-14.59Z" transform="translate(-505.902 -480.753)"/><ellipse class="a" cx="17.387" cy="19.167" rx="17.387" ry="19.167" transform="translate(85.095 14.785)"/><path class="d" d="M578.635,533.323c-.036,0-.071.039-.107.081a2.417,2.417,0,0,1-.037-.517A.637.637,0,0,0,578.635,533.323Z" transform="translate(-506.398 -488.18)"/><path class="b" d="M578.3,554.1c2.842-14.534,12.117-29.724,27.772-32.3a1.66,1.66,0,0,0,1.155-2.546,2.093,2.093,0,0,0-.245-2.059c.148-.019.3-.043.444-.06,3-.384,6.235-.47,8.935,1.108a7.773,7.773,0,0,1,3.613,5.118,6.116,6.116,0,0,1,.075,2.345c.191,5.971.38,11.9.571,17.871.075,2.688.152,5.417.075,8.19-.228,6.569-1.329,13.051-5.094,17.871-4.144,5.374-10.834,7.506-17.184,7.677-3.5.086-7.109-2.441-10.228-4.319-5.854-3.583-8.592-9.287-10.075-16.581-.1-.5-.163-1.007-.251-1.51A1.576,1.576,0,0,0,578.3,554.1Z" transform="translate(-506.947 -502.117)"/><path d="M583.74,520.928a13.154,13.154,0,0,1,6.222-8.2,10.891,10.891,0,0,1,5.977-1.529c2.971-.693,6,.545,8.732,2.252,1.921.833,3.851,1.822,5.751,2.853,4.41,2.394,8.843,5.069,11.851,9.086a19.543,19.543,0,0,1,3.272,16.2,17.681,17.681,0,0,1-5.973,9.642c-.47,1.767-1.66-1.885-2.132-.116-.719-5.423-3.847-4.565-8.33-7.7s-9.646-5.12-14.541-7.561c-3.208-1.6-6.391-3.465-8.648-6.25a11.366,11.366,0,0,1-1.512-2.432C583.182,525.627,582.8,523.637,583.74,520.928Z" transform="translate(-502.278 -507.263)"/><path class="c" d="M640.988,604.742a15.953,15.953,0,1,1-15.945-15.462A15.709,15.709,0,0,1,640.988,604.742Z" transform="translate(-479.714 -439.011)"/><path class="b" d="M615.729,603.03h0a12.563,12.563,0,0,0,10.956,13.989l41.6,6.458a12.566,12.566,0,0,0,13.991-10.958h0a12.567,12.567,0,0,0-10.958-13.991l-41.6-6.456A12.565,12.565,0,0,0,615.729,603.03Z" transform="translate(-474.011 -436.657)"/><path class="f" d="M628.656,629.221c2.141,4.242,9.219,7.362,17.643,7.362s15.5-3.12,17.641-7.362l.68-5.762V598.18h-.481C662.266,593.722,655,590.4,646.3,590.4s-15.969,3.326-17.839,7.784h-.483v2.235Z" transform="translate(-463.252 -438.038)"/><path class="e" d="M664.619,599.829c0,5.545-8.2,10.041-18.321,10.041s-18.322-4.5-18.322-10.041,8.2-10.041,18.322-10.041S664.619,594.284,664.619,599.829Z" transform="translate(-463.252 -438.568)"/><ellipse class="d" cx="13.053" cy="7.154" rx="13.053" ry="7.154" transform="translate(169.993 153.898)"/><path d="M578.256,551.818a38.687,38.687,0,0,0,17.332-33.694,27.127,27.127,0,0,0-16.883,34.6Z" transform="translate(-507.504 -501.052)"/><path class="e" d="M548.146,631.775a110.885,110.885,0,0,0,9.672,11.576,77.524,77.524,0,0,1,8.566,10.434,46.142,46.142,0,0,1,5.056,9.931,8.694,8.694,0,0,1,.582,3.01,12.038,12.038,0,0,0,18.137,15.829c5.438-6.059,7.123-13.622,5.1-22.611q-1.954-8.637-8.506-19a96.089,96.089,0,0,0-11.2-13.884,91.753,91.753,0,0,1-7.684-9.067c-3.551-5.077-4.856-10.957-3.049-13.663,1.084-1.627,3.933-3.452,6.46-5.056l27.648-17.7a12.036,12.036,0,0,0-12.961-20.284l-27.667,17.7c-4.053,2.587-9.61,6.138-13.5,11.958C537.313,602.141,538.636,618.172,548.146,631.775Z" transform="translate(-539.978 -465.065)"/><path d="M566.027,554.8a87.639,87.639,0,0,1,1.729-15.479c.7-3.6,1.771-7.278,4.219-10.007s6.606-4.219,9.9-2.619c5.191,2.52,4.867,9.829,4.541,15.589-1.889,33.46,31.79,53.169,31.439,86.269-.127,12.029-6.052,23.137-11.823,33.691-1.219,2.226-3.137,4.8-5.627,4.305a5.681,5.681,0,0,1-2.987-2.2c-6.885-8.186-10.623-18.644-12.321-29.2-2.7-16.8.114-31.877-6.735-47.835-2.474-5.764-6.525-10.709-9.348-16.31C566.712,566.428,565.96,560.634,566.027,554.8Z" transform="translate(-517.27 -494.153)"/><path class="b" d="M580.3,537.5a1.593,1.593,0,0,1-1.586.176,4.049,4.049,0,0,0-.1-.564Z" transform="translate(-506.296 -484.5)"/><path class="b" d="M575.091,531.405c2.48-.859,4.934,1.906,6.015,5.062a27.678,27.678,0,0,0,1.672,4.714,3.56,3.56,0,0,0,1.8,1.6c.711,2.456-.723,5.533-2.686,6.179-2.113.693-4.307-.663-6.046-2.434a13.293,13.293,0,0,1-3.882-7.607C571.577,535.8,572.837,532.186,575.091,531.405Z" transform="translate(-512.153 -489.611)"/><path class="b" d="M559.574,636.645a12.048,12.048,0,0,0,16.993-.923c5.438-6.059,7.123-13.622,5.1-22.611a24.2,24.2,0,0,1-23.814,3.772,8.7,8.7,0,0,1,.582,3.01A12.025,12.025,0,0,0,559.574,636.645Z" transform="translate(-526.387 -418.232)"/></svg>