<svg xmlns="http://www.w3.org/2000/svg" width="514.312" height="361.732" viewBox="0 0 514.312 361.732"><defs><style>.a{fill:#0f62fe;}.b,.c,.d,.e,.f{fill:none;stroke:#fff;}.b,.c,.d{stroke-linejoin:round;}.b,.c{stroke-width:2.5px;}.c{stroke-linecap:square;}.d,.e{stroke-linecap:round;}.f{stroke-width:1.5px;}.g{fill:rgba(15,0,0,0.1);}.h{fill:#c4e4f9;}.i{fill:#8dc0ef;}.j{fill:#1f3598;}.k{fill:#647ddd;opacity:0.17;}.l{fill:#d5e8fa;}.m{fill:#eff6fc;}.n{fill:#bddcff;}.o{fill:#e2e8f2;}.p{fill:#ffc7cb;}.q{fill:#ff8358;}.r{fill:#f2f4f9;}.s{fill:#f2f4fa;}.t{fill:#3772ce;}.u{fill:#fff;}.v{fill:#4568c7;}.w{fill:#a0d2ff;}.x{fill:#cacaca;mix-blend-mode:multiply;isolation:isolate;}.y{fill:#e5e9f9;}.z{fill:#32b98e;}.aa{fill:#f26c73;}.ab{fill:#37447f;}.ac{fill:#c4def2;}.ad{fill:#ff9975;}.ae{fill:#577de8;}</style></defs><g transform="translate(-1235.222 -380.2)"><g transform="translate(1301.965 453.929)"><path class="a" d="M130,0A130,130,0,1,1,0,130,130,130,0,0,1,130,0Z" transform="translate(-66.743 -73.729)"/><path class="b" d="M266.632,1540.089H280.7v92H157.57v-92h14.069" transform="translate(-157.57 -1526.745)"/><path class="b" d="M246.878,1808.895h54.51" transform="translate(-212.108 -1690.897)"/><line class="b" y2="12.659" transform="translate(50.762 105.339)"/><line class="b" y2="8.378" transform="translate(73.289 109.619)"/><line class="b" x2="123.132" transform="translate(0 92.027)"/><path class="c" d="M283.964,1578.655H208.579v-72.839h83.41v72.839" transform="translate(-188.72 -1505.816)"/><line class="d" x2="35.153" transform="translate(58.323 21.257)"/><line class="d" x2="35.153" transform="translate(58.323 53.353)"/><line class="d" x2="1.136" transform="translate(53.024 21.257)"/><line class="d" x2="1.136" transform="translate(53.024 53.353)"/><path class="e" d="M9.161,0A9.161,9.161,0,1,1,0,9.161,9.161,9.161,0,0,1,9.161,0Z" transform="matrix(0.26, -0.966, 0.966, 0.26, 26.78, 27.151)"/><path class="e" d="M9.161,0A9.161,9.161,0,1,1,0,9.161,9.161,9.161,0,0,1,9.161,0Z" transform="matrix(0.26, -0.966, 0.966, 0.26, 26.78, 59.247)"/><path class="f" d="M2090.761,106.6l2.555,2.135,6.192-6.192" transform="translate(-2057.464 -84.98)"/><path class="f" d="M2090.761,106.6l2.555,2.135,6.192-6.192" transform="translate(-2057.464 -52.884)"/></g><g transform="translate(1262.49 632.403)"><path class="g" d="M276,660H763.044s-10.207,18.957-33.539,16.04a135.411,135.411,0,0,1-18.957-1.458c-8.749-1.458-21.873,2.916-24.79,7.291,0,0-21.873,13.124-58.329,0,0,0-33.539-14.582-56.87-1.458,0,0-17.5,18.957-62.7-4.375,0,0-11.666-7.291-32.081,7.291,0,0-20.415,17.5-59.787-7.291,0,0-21.873-5.833-46.663,5.833C369.326,681.873,319.746,689.164,276,660Z" transform="translate(-276 -579.798)"/><path class="h" d="M582.35,634.075s24.644,13.611,13.76,33.064C596.109,667.139,578.478,663.5,582.35,634.075Z" transform="translate(-135.881 -591.677)"/><path class="a" d="M611.519,623s13.124,42.288-20.415,52.5C591.1,675.5,575.064,652.164,611.519,623Z" transform="translate(-133.225 -596.752)"/><path class="a" d="M331.726,621.92s-37.65,20.8-21.022,50.514C310.7,672.434,337.642,666.883,331.726,621.92Z" transform="translate(-262.041 -597.247)"/><path class="h" d="M291.659,605s-20.05,64.608,31.188,80.2C322.848,685.2,347.354,649.557,291.659,605Z" transform="translate(-270.596 -605)"/></g><g transform="translate(1442.27 518.4)"><path class="i" d="M2034.641,945.123a4.254,4.254,0,0,0,3.852,0,1.174,1.174,0,0,0,0-2.225,4.255,4.255,0,0,0-3.852,0A1.174,1.174,0,0,0,2034.641,945.123Z" transform="translate(-1940.001 -747.842)"/><path class="j" d="M2093.11,803.131c4.25-4.923,9.035,2.063,11.294,4.96,1.536,1.969,6.876,7.193,6.292,9.935-.205.961-.322.917-1.271,1.171a5.947,5.947,0,0,1-2.915-.109,16.609,16.609,0,0,1-11.26-8.379c-.093,1.2-.116,2.411-.1,3.619a.347.347,0,0,1-.538.283q-.7-.458-1.378-.954c-1.681-1.242-.94-3-1.395-5A6.277,6.277,0,0,1,2093.11,803.131Z" transform="translate(-2056.251 -716.085)"/><path class="k" d="M1872.568,927.808c10.815-6.243,28.347-6.243,39.16,0s10.814,16.366,0,22.609-28.345,6.243-39.16,0S1861.755,934.051,1872.568,927.808Z" transform="translate(-1689.31 -743.493)"/><path class="k" d="M1850.609,850.129l144-81.9,89.058,53.47a1.6,1.6,0,0,1-.037,2.768l-139.984,78.921a9.363,9.363,0,0,1-9.481-.091l-83.585-50.16A1.746,1.746,0,0,1,1850.609,850.129Z" transform="translate(-1842.502 -708.611)"/><path class="i" d="M2033.84,878.377v50.635a.565.565,0,0,0,.041.2.448.448,0,0,0,.395.239h4.579a.449.449,0,0,0,.395-.239.563.563,0,0,0,.041-.2V878.377a.439.439,0,0,0-.435-.436h-4.579A.439.439,0,0,0,2033.84,878.377Z" transform="translate(-1939.999 -733.317)"/><path class="i" d="M2033.84,887.049a.386.386,0,0,0,.049.189.884.884,0,0,0-.049.287,1.339,1.339,0,0,0,.8,1.11,4.247,4.247,0,0,0,3.855,0,1.34,1.34,0,0,0,.8-1.11.872.872,0,0,0-.049-.287.381.381,0,0,0,.049-.189v-8.672a.439.439,0,0,0-.435-.436h-4.579a.439.439,0,0,0-.435.436Z" transform="translate(-1939.999 -733.317)"/><path class="i" d="M1847.455,841.294a4.256,4.256,0,0,0,3.852,0,1.174,1.174,0,0,0,0-2.224,4.256,4.256,0,0,0-3.852,0A1.174,1.174,0,0,0,1847.455,841.294Z" transform="translate(-1607.785 -724.46)"/><path class="i" d="M1846.655,774.547v50.636a.56.56,0,0,0,.042.2.445.445,0,0,0,.394.239h4.579a.447.447,0,0,0,.394-.239.573.573,0,0,0,.041-.2V774.547a.439.439,0,0,0-.435-.436h-4.579A.438.438,0,0,0,1846.655,774.547Z" transform="translate(-1607.783 -709.935)"/><path class="i" d="M1846.655,783.219a.386.386,0,0,0,.049.189.887.887,0,0,0-.049.287,1.34,1.34,0,0,0,.8,1.11,4.249,4.249,0,0,0,3.855,0,1.341,1.341,0,0,0,.8-1.11.878.878,0,0,0-.05-.287.383.383,0,0,0,.05-.189v-8.672a.439.439,0,0,0-.435-.436h-4.579a.438.438,0,0,0-.436.436Z" transform="translate(-1607.783 -709.935)"/><path class="i" d="M2148.336,878.646a4.256,4.256,0,0,0,3.852,0,1.174,1.174,0,0,0,0-2.224,4.262,4.262,0,0,0-3.852,0A1.174,1.174,0,0,0,2148.336,878.646Z" transform="translate(-2141.787 -732.872)"/><path class="i" d="M2147.536,811.9v50.636a.567.567,0,0,0,.042.2.448.448,0,0,0,.4.238h4.578a.445.445,0,0,0,.394-.238.557.557,0,0,0,.042-.2V811.9a.439.439,0,0,0-.436-.435h-4.578A.439.439,0,0,0,2147.536,811.9Z" transform="translate(-2141.786 -718.347)"/><path class="i" d="M2147.536,825.485a.387.387,0,0,0,.049.189.9.9,0,0,0-.049.287,1.342,1.342,0,0,0,.8,1.11,4.251,4.251,0,0,0,3.856,0,1.34,1.34,0,0,0,.8-1.11.891.891,0,0,0-.049-.287.385.385,0,0,0,.049-.189v-8.672a.438.438,0,0,0-.436-.436h-4.578a.439.439,0,0,0-.437.436Z" transform="translate(-2141.786 -719.453)"/><path class="l" d="M1859.841,761.734l.01,10.861-16.171,5.971.825-5.918Z" transform="translate(-1613.224 -707.147)"/><path class="l" d="M2138.858,812.109v-9.7l17.924,11.523-1.2,3.191Z" transform="translate(-2138.858 -716.308)"/><path class="l" d="M2087.434,754.743l-83.969-49.087a19.023,19.023,0,0,0-19.035-.1l-138.615,79.17a5.012,5.012,0,0,0-.02,8.691l85.333,49.281a19.021,19.021,0,0,0,19.029,0l137.255-79.293A5.011,5.011,0,0,0,2087.434,754.743Z" transform="translate(-1842.987 -693.933)"/><path class="m" d="M2087.825,742.967l-83.969-49.086a19.026,19.026,0,0,0-19.036-.1l-138.614,79.17a5.011,5.011,0,0,0-.021,8.691l85.333,49.282a19.023,19.023,0,0,0,19.029,0L2087.8,751.634A5.011,5.011,0,0,0,2087.825,742.967Z" transform="translate(-1843.68 -691.281)"/><path class="i" d="M1944.6,812.611,1987.223,788c1.935-1.117,1.935-2.928,0-4.044l-16.757-9.675a7.741,7.741,0,0,0-7.006,0l-42.626,24.611c-1.934,1.117-1.934,2.928,0,4.044l16.758,9.675A7.738,7.738,0,0,0,1944.6,812.611Z" transform="translate(-1800.702 -709.784)"/><path class="i" d="M1988.674,785.658V789.7l-47.58,26.5-21.71-12.535v-3.071Z" transform="translate(-1800.702 -712.535)"/><path class="n" d="M1944.6,808.648l42.626-24.611c1.935-1.116,1.935-2.927,0-4.044l-16.757-9.675a7.745,7.745,0,0,0-7.006,0l-42.626,24.611c-1.934,1.116-1.934,2.927,0,4.044l16.758,9.675A7.743,7.743,0,0,0,1944.6,808.648Z" transform="translate(-1800.702 -708.892)"/><path class="n" d="M1938.357,804.714l41.3-23.845-3.629-2.1-41.3,23.845Z" transform="translate(-1803.575 -710.985)"/><path class="n" d="M1930.325,809.352l41.3-23.845-3.629-2.1-41.3,23.846Z" transform="translate(-1789.318 -712.029)"/><path class="o" d="M1979.075,781.007,1938.6,804.378l-2.807-1.621,40.478-23.371Z" transform="translate(-1803.814 -711.122)"/><path class="o" d="M1971.042,785.645l-40.478,23.371-2.807-1.622,40.478-23.37Z" transform="translate(-1789.557 -712.167)"/><path class="o" d="M1986.892,775.739l-40.478,23.371-2.807-1.622,40.479-23.37Z" transform="translate(-1817.688 -709.936)"/><path class="j" d="M2036.75,906.858l-.944-.549c-.143-.083-.142-.218,0-.3l.947-.547a.577.577,0,0,1,.522,0l.943.549a.16.16,0,0,1,0,.3l-.948.547a.575.575,0,0,1-.522,0Z" transform="translate(-1940.479 -739.501)"/><rect class="j" width="3.679" height="8.819" rx="1.584" transform="translate(148.621 177.866)"/><path class="p" d="M1978.569,858.4l-.131,2.823-1.628,39.754c.007.149.019.119.028.055a5.853,5.853,0,0,1,.376,2.1c-2.449,1.79-4.551,2.789-7.822,2.623a27.9,27.9,0,0,0-.5-5.787c-.057-.424-3.213-39.718-3.213-39.718v-.034C1970.52,860.336,1973.726,858.135,1978.569,858.4Z" transform="translate(-1826.465 -728.912)"/><path class="j" d="M1987.58,924.109c-3.156,2.232-2.85,4.322-7.585,3.156a8.777,8.777,0,0,1-4.1-1.963,3.245,3.245,0,0,1-.776-3.921,5.247,5.247,0,0,1,3.429-1.905,21.122,21.122,0,0,1,6.8-.393,5.8,5.8,0,0,1,3.052,1C1990.081,921.441,1989,923.107,1987.58,924.109Z" transform="translate(-1844.172 -742.557)"/><path class="p" d="M1977.259,914.245a8.288,8.288,0,0,0-2.132,1.531,30.6,30.6,0,0,0-6.466,6.607c.495,1.464,2.1,2.526,3.854,3.052a26.117,26.117,0,0,0,3-1.062,16.357,16.357,0,0,0,6.628-5.5c.2-.289.393-.68.195-.969l-2.643-2.559c-2.649-2.564-6.565,1.095-9.235,2.489-1.01.527-2.156,1.259-2.194,2.4-.037,1.065.945,1.876,1.908,2.331a9.148,9.148,0,0,0,3.009.835Z" transform="translate(-1832.323 -741.493)"/><path class="j" d="M1982,914.8a4.2,4.2,0,0,0-3.835.556c-1.854,1.119-3.229,2.949-4.849,4.358-2.232,1.941-4.48,3.027-7.212,1.778-.9.546-1.529,1.175-1.5,1.9.04,1.056,1.933,2.411,2.768,2.985,2.624,1.805,6.842-1.092,8.976-2.177,1.681-.855,3.463-.7,5.064-1.409C1983.565,921.831,1984.25,916.825,1982,914.8Z" transform="translate(-1830.452 -741.563)"/><rect class="j" width="3.679" height="8.819" rx="1.584" transform="translate(170.777 163.858)"/><path class="q" d="M1948.685,851.975l-.131-1.287-1.628,34.822c.006.149.019.119.028.055a5.868,5.868,0,0,1,.375,2.1c-2.449,1.791-4.55,2.789-7.823,2.624a27.866,27.866,0,0,0-.5-5.787c-.057-.424-2.39-33.142-2.39-33.142v-.034C1941.458,851.443,1943.842,851.708,1948.685,851.975Z" transform="translate(-1774.064 -727.18)"/><path class="j" d="M1958.518,906.379c-3.156,2.232-2.85,4.323-7.585,3.156a8.785,8.785,0,0,1-4.1-1.963,3.245,3.245,0,0,1-.776-3.921,5.241,5.241,0,0,1,3.429-1.9,21.116,21.116,0,0,1,6.8-.394,5.8,5.8,0,0,1,3.053,1C1961.019,903.711,1959.934,905.378,1958.518,906.379Z" transform="translate(-1792.593 -738.564)"/><path class="q" d="M1948.2,896.515a8.292,8.292,0,0,0-2.132,1.531,30.6,30.6,0,0,0-6.467,6.607c.494,1.464,2.1,2.527,3.854,3.053a26.205,26.205,0,0,0,3-1.062,16.354,16.354,0,0,0,6.628-5.5c.2-.289.393-.679.195-.969l-2.643-2.559c-2.649-2.563-6.565,1.1-9.235,2.489-1.009.527-2.155,1.259-2.194,2.4-.036,1.064.945,1.875,1.907,2.33a9.155,9.155,0,0,0,3.009.835Z" transform="translate(-1780.743 -737.5)"/><path class="j" d="M1952.936,897.069a4.2,4.2,0,0,0-3.835.556c-1.854,1.12-3.23,2.95-4.849,4.358-2.232,1.941-4.48,3.027-7.212,1.779-.9.545-1.529,1.175-1.5,1.9.04,1.057,1.933,2.411,2.768,2.985,2.623,1.805,6.841-1.092,8.975-2.177,1.681-.855,3.463-.7,5.065-1.409C1954.5,904.1,1955.187,899.1,1952.936,897.069Z" transform="translate(-1778.873 -737.57)"/><path class="r" d="M1986.586,758.083c0,10.278,3.949,13.168,3.949,13.168s.865.546,2.151,1.354a.326.326,0,0,1,.068.057l.273.159q.922.58,2.014,1.264l.069-.035.729.433,5.577,3.3a4.911,4.911,0,0,0,4.518.034l12.428-7.181c1.252-.718,1.252-1.89,0-2.618l-5.588-3.232-3.255-1.878h-.011c-.808-.467-1.582-.911-2.254-1.309-4.563-2.629-.226-14.819-.01-15.422v-.012h-.011Z" transform="translate(-1883.398 -703.642)"/><path class="m" d="M1995.01,758.083c0,10.278,3.949,13.168,3.949,13.168s.865.546,2.152,1.354a.31.31,0,0,1,.068.057l.274.159q.921.58,2.014,1.264l.069-.035.728.433,16.935-9.7-3.254-1.878h-.012c-.808-.467-1.582-.911-2.254-1.309-4.564-2.629-.227-14.819-.011-15.422l-.012-.012Z" transform="translate(-1891.822 -703.642)"/><path class="s" d="M2010,758.282c0,1.579,1.108,2.219,2.476,1.429a5.473,5.473,0,0,0,2.476-4.288c0-1.579-1.109-2.219-2.476-1.43A5.472,5.472,0,0,0,2010,758.282Z" transform="translate(-1897.19 -705.328)"/><path class="q" d="M1936.268,807.137a25.768,25.768,0,0,0,.089-2.943c-.612-1.282-1.158-2.438-1.151-2.535l-19.218-13.34a3.482,3.482,0,0,0-2.518-.921,3.573,3.573,0,0,0-.5.057,3.467,3.467,0,0,0-1.927,1.071,3.505,3.505,0,0,0,.206,4.948l18.839,16.2.046.039A3.789,3.789,0,0,0,1936.268,807.137Z" transform="translate(-1741.213 -712.926)"/><path class="p" d="M1935.609,795.269c2.308,2.145,5.557,2.4,7.256.573s1.206-5.05-1.1-7.195-5.557-2.4-7.256-.573S1933.3,793.125,1935.609,795.269Z" transform="translate(-1766.838 -712.805)"/><path class="j" d="M1898.828,852.493l11.706-6.708c4.53-2.268,8.1.551,12.955,1.981l-.617-.617,2.285-3.567,27.044-1.908c9.469,5.368,11.3,28.393,11.3,28.393l-.008.173h0c1.119,9.345-13.441,16.368-24.676,18.08a18.442,18.442,0,0,1-11.495-2.019l-1.88-1.01-27.119-14.566C1890.156,866.1,1890.444,856.71,1898.828,852.493Z" transform="translate(-1754.651 -725.15)"/><path class="o" d="M1930.39,825.326a34.93,34.93,0,0,0,.087,4.753,2.2,2.2,0,0,1-1,2.06,29.139,29.139,0,0,1-4.242,2.208c-4.252,1.783-9.125,2.788-13.662,1.783-.181-.042-.355-.086-.536-.129-2.607-.667-8.277-2.207-8.788-5.437a1.6,1.6,0,0,1-.042-.4c.009-.3.025-.615.042-.927V814.746c-1.411-4.2-4-7.194-2.709-12.527a18.965,18.965,0,0,1,3.021-6.787c2.389-3.29,5.835-5.325,10.233-6.606,1.394-.4,2.771-.728,4.017-.987a24.76,24.76,0,0,1,8.069-.3c2.83.364,5.54,1.325,7.229,3.212a6.591,6.591,0,0,1,.606.762c3.359,5.039,1.575,12.086.355,17.557C1931.862,814.443,1930.6,819.846,1930.39,825.326Z" transform="translate(-1731.022 -712.913)"/><path class="t" d="M1928.461,777.347c.017,0,.033.019.05.037a1.137,1.137,0,0,0,.017-.24A.3.3,0,0,1,1928.461,777.347Z" transform="translate(-1747.59 -710.618)"/><path class="p" d="M1924.89,790.391h-4.124a7.086,7.086,0,0,1-6.988-5.914l-.256-1.535-.937-5.617h10.121Z" transform="translate(-1731.651 -710.659)"/><path class="q" d="M1925.343,779.868l-5.025,7.633H1920l-1.248-7.448Z" transform="translate(-1736.879 -711.231)"/><path class="q" d="M1926.693,774.29a.851.851,0,0,0,.645.053c.022-.055.011-.116.043-.169Z" transform="translate(-1745.073 -709.949)"/><path class="q" d="M1931.2,782.638c-.118.008-.236.032-.353.047l.928-.888C1931.573,782.073,1931.385,782.356,1931.2,782.638Z" transform="translate(-1752.675 -711.666)"/><path class="q" d="M1923.35,790.672c-1.585,2.321-6.872,1.488-11.921-1.84,1.4-.407,2.776-.736,4.024-.992a25,25,0,0,1,8.065-.3A3.486,3.486,0,0,1,1923.35,790.672Z" transform="translate(-1729.666 -712.914)"/><path class="t" d="M1928.064,771.624c.017,0,.032.021.047.041a1.172,1.172,0,0,0,.041-.237A.3.3,0,0,1,1928.064,771.624Z" transform="translate(-1746.906 -709.33)"/><path class="p" d="M1910.526,762.3c-.2,2.982.016,5.967,1.535,8.324,1.67,2.626,4.667,3.9,7.6,4.28a8.865,8.865,0,0,0,4.837-.562c2.872-1.346,4.493-4.71,5.513-7.939a27.923,27.923,0,0,0,.9-3.75,14.229,14.229,0,0,0,.014-4.345,12.436,12.436,0,0,0-4.7-7.612,19.615,19.615,0,0,0-7.965-3.44,6.638,6.638,0,0,0-4.183.082,3.54,3.54,0,0,0-1.906,2.146,2.7,2.7,0,0,0-.142,1.057c-.362,2.693-.722,5.366-1.084,8.058C1910.778,759.811,1910.618,761.042,1910.526,762.3Z" transform="translate(-1736.196 -703.819)"/><path d="M1931.12,757.914a18.743,18.743,0,0,1-1.82,6.461,16.748,16.748,0,0,1-5.725,6.893c-2.024,1.268-6,2.252-7.7-.016-1.675-2.224-.253-5.754-1.909-7.992a7.675,7.675,0,0,0-1.83-1.574,14.445,14.445,0,0,1-3.879-3.753c-2.5-3.837-1.324-10.953,2.93-13.207a14.357,14.357,0,0,1,11.242-.553,12.853,12.853,0,0,1,3.243,1.823c.055.048.11.088.18.145A13.99,13.99,0,0,1,1931.12,757.914Z" transform="translate(-1733.554 -702.993)"/><path class="q" d="M1926.005,768.7a.846.846,0,0,0,.637.118c.027-.053.022-.115.059-.164Z" transform="translate(-1743.86 -708.705)"/><path class="q" d="M1929.087,769.485a4.842,4.842,0,0,1-1.252,2.681,5.2,5.2,0,0,1-1.381,1.294,2.226,2.226,0,0,1-1.826.25c-1.866-.66-1.4-3.455-.668-4.775a3.39,3.39,0,0,1,2.766-1.807A2.263,2.263,0,0,1,1929.087,769.485Z" transform="translate(-1744.166 -708.362)"/><path class="u" d="M1940.713,805.686c-1.3-2.315-2.408-3.99-5.2-3.539a36.19,36.19,0,0,0-5.7,1.678c-.179.551-.349,1.116-.5,1.713-1.29,5.333,1.3,8.328,2.709,12.527v14.493c-.017.311-.034.624-.043.927a1.6,1.6,0,0,0,.043.4c.511,3.229,6.181,4.77,8.788,5.437.181.043.355.087.536.129v-32.9A4.2,4.2,0,0,1,1940.713,805.686Z" transform="translate(-1760.805 -716.232)"/><path class="j" d="M1921.4,746.8l.431.043Z" transform="translate(-1735.418 -703.784)"/><path class="p" d="M1970.31,834.28a25.5,25.5,0,0,0,.089-2.944c-.611-1.282-1.158-2.437-1.152-2.535l-19.218-13.34a3.484,3.484,0,0,0-2.518-.921,3.54,3.54,0,0,0-.5.057,3.5,3.5,0,0,0-1.722,6.019l18.839,16.2.045.039A3.789,3.789,0,0,0,1970.31,834.28Z" transform="translate(-1801.632 -719.039)"/><path class="p" d="M1969.651,822.412c2.308,2.145,5.557,2.4,7.257.573s1.206-5.05-1.1-7.195-5.558-2.4-7.257-.573S1967.343,820.267,1969.651,822.412Z" transform="translate(-1827.256 -718.917)"/><path class="p" d="M1980.182,815.407h0a1.507,1.507,0,0,0-.078-2.13l-6.63-6.16a1.506,1.506,0,0,0-2.129.078h0a1.506,1.506,0,0,0,.078,2.129l6.628,6.16A1.508,1.508,0,0,0,1980.182,815.407Z" transform="translate(-1832.561 -717.277)"/><path class="n" d="M1934.8,834.268l.071.026a4.971,4.971,0,0,0,6.406-3.571l6.213-24.858a5.194,5.194,0,0,0-10.078-2.52l-2.45,9.8-2.415,9.653h0C1931.484,827.419,1929.284,832.211,1934.8,834.268Z" transform="translate(-1768.839 -715.633)"/><path d="M1863.687,759.641c.055-.47.1-.941.129-1.414.253-4.031-.5-8.311,3.014-11.321,2.444-2.094,5.976-2.213,9.189-2.025,3.513.2,7.141.691,10.125,2.555,5.6,3.5,5.576,12.338,3.907,18.019a44.933,44.933,0,0,0-1.5,7c.041,3.64,2.145,5.486,6.294,6.184a9.221,9.221,0,0,1,7,5.455,12.9,12.9,0,0,1,1.089,4.661c.245,5.014.723,6.405,6.552,8.186a13.037,13.037,0,0,1,8.156,7.29c4.094,8.95-.122,21.887-9.418,28.895s-20.15,5.431-24.245-3.52a20.157,20.157,0,0,1-.99-12.692c1.629-7.383.923-8.613-2.342-11.313a.265.265,0,0,1-.027-.025,9.686,9.686,0,0,1-2.642-3.49,14.891,14.891,0,0,1-.3-10.506c1.551-4.995,1.32-8.254-1.135-10.073a23.6,23.6,0,0,0-5.492-1.732,10.039,10.039,0,0,1-7.4-5.9C1861.475,769.111,1863.124,764.461,1863.687,759.641Z" transform="translate(-1687.209 -703.338)"/><path class="v" d="M1879.513,955.428a6.3,6.3,0,0,0-2.852-4.938c-1.575-.909-2.851-.173-2.852,1.646a6.3,6.3,0,0,0,2.852,4.939C1878.236,957.983,1879.513,957.246,1879.513,955.428Z" transform="translate(-1656.229 -749.568)"/><path class="v" d="M1879.513,955.428a6.3,6.3,0,0,0-2.852-4.938c-1.575-.909-2.851-.173-2.852,1.646a6.3,6.3,0,0,0,2.852,4.939C1878.236,957.983,1879.513,957.246,1879.513,955.428Z" transform="translate(-1656.229 -749.568)"/><path class="v" d="M1877.128,950.414l-2.457,1.28,3.858,7.031,2.877-1.5-.729-3.96Z" transform="translate(-1658.79 -749.639)"/><path class="i" d="M1882.64,957.05a6.3,6.3,0,0,0-2.851-4.939c-1.574-.909-2.851-.172-2.851,1.647a6.3,6.3,0,0,0,2.851,4.939C1881.363,959.606,1882.64,958.869,1882.64,957.05Z" transform="translate(-1661.781 -749.933)"/><path class="o" d="M1882.64,957.05a6.3,6.3,0,0,0-2.851-4.939c-1.574-.909-2.851-.172-2.851,1.647a6.3,6.3,0,0,0,2.851,4.939C1881.363,959.606,1882.64,958.869,1882.64,957.05Z" transform="translate(-1661.781 -749.933)"/><path class="v" d="M1923.765,930.693a6.306,6.306,0,0,0-2.851-4.939c-1.575-.909-2.851-.172-2.851,1.646a6.3,6.3,0,0,0,2.851,4.939C1922.488,933.249,1923.765,932.512,1923.765,930.693Z" transform="translate(-1734.769 -743.998)"/><path class="v" d="M1923.765,930.693a6.306,6.306,0,0,0-2.851-4.939c-1.575-.909-2.851-.172-2.851,1.646a6.3,6.3,0,0,0,2.851,4.939C1922.488,933.249,1923.765,932.512,1923.765,930.693Z" transform="translate(-1734.769 -743.998)"/><path class="v" d="M1921.381,925.68l-2.457,1.281,3.857,7.03,2.877-1.5-.729-3.96Z" transform="translate(-1737.329 -744.068)"/><path class="i" d="M1926.893,932.316a6.3,6.3,0,0,0-2.851-4.938c-1.574-.91-2.851-.172-2.851,1.646a6.3,6.3,0,0,0,2.851,4.939C1925.616,934.872,1926.893,934.135,1926.893,932.316Z" transform="translate(-1740.321 -744.363)"/><path class="o" d="M1926.893,932.316a6.3,6.3,0,0,0-2.851-4.938c-1.574-.91-2.851-.172-2.851,1.646a6.3,6.3,0,0,0,2.851,4.939C1925.616,934.872,1926.893,934.135,1926.893,932.316Z" transform="translate(-1740.321 -744.363)"/><path class="v" d="M1921.689,956.519a6.3,6.3,0,0,0-2.852-4.938c-1.574-.91-2.851-.173-2.851,1.646a6.3,6.3,0,0,0,2.851,4.939C1920.412,959.076,1921.689,958.338,1921.689,956.519Z" transform="translate(-1731.084 -749.814)"/><path class="v" d="M1921.689,956.519a6.3,6.3,0,0,0-2.852-4.938c-1.574-.91-2.851-.173-2.851,1.646a6.3,6.3,0,0,0,2.851,4.939C1920.412,959.076,1921.689,958.338,1921.689,956.519Z" transform="translate(-1731.084 -749.814)"/><path class="v" d="M1919.3,951.506l-2.457,1.281,3.857,7.03,2.877-1.5-.729-3.959Z" transform="translate(-1733.644 -749.885)"/><path class="i" d="M1924.816,958.142a6.3,6.3,0,0,0-2.851-4.939c-1.576-.909-2.851-.172-2.851,1.646a6.3,6.3,0,0,0,2.851,4.938C1923.539,960.7,1924.816,959.961,1924.816,958.142Z" transform="translate(-1736.634 -750.179)"/><path class="o" d="M1924.816,958.142a6.3,6.3,0,0,0-2.851-4.939c-1.576-.909-2.851-.172-2.851,1.646a6.3,6.3,0,0,0,2.851,4.938C1923.539,960.7,1924.816,959.961,1924.816,958.142Z" transform="translate(-1736.634 -750.179)"/><path class="v" d="M1878.728,931.611a6.3,6.3,0,0,0-2.851-4.938c-1.574-.909-2.851-.172-2.851,1.646a6.3,6.3,0,0,0,2.851,4.938C1877.451,934.167,1878.728,933.43,1878.728,931.611Z" transform="translate(-1654.837 -744.204)"/><path class="v" d="M1878.728,931.611a6.3,6.3,0,0,0-2.851-4.938c-1.574-.909-2.851-.172-2.851,1.646a6.3,6.3,0,0,0,2.851,4.938C1877.451,934.167,1878.728,933.43,1878.728,931.611Z" transform="translate(-1654.837 -744.204)"/><path class="v" d="M1876.344,926.6l-2.457,1.281,3.857,7.03,2.877-1.5-.729-3.959Z" transform="translate(-1657.398 -744.275)"/><path class="i" d="M1881.856,933.234A6.3,6.3,0,0,0,1879,928.3c-1.574-.909-2.851-.172-2.851,1.646A6.3,6.3,0,0,0,1879,934.88C1880.58,935.79,1881.856,935.053,1881.856,933.234Z" transform="translate(-1660.389 -744.57)"/><path class="o" d="M1881.856,933.234A6.3,6.3,0,0,0,1879,928.3c-1.574-.909-2.851-.172-2.851,1.646A6.3,6.3,0,0,0,1879,934.88C1880.58,935.79,1881.856,935.053,1881.856,933.234Z" transform="translate(-1660.389 -744.57)"/><path class="m" d="M1873.741,942.133l12.617-7.285-12.617-7.285c-2.071-1.2-2.071-3.152,0-4.348h0a8.357,8.357,0,0,1,7.532,0l12.617,7.285,12.617-7.285a8.356,8.356,0,0,1,7.531,0c2.071,1.2,2.071,3.153,0,4.348l-12.617,7.285,12.617,7.285c2.071,1.2,2.071,3.153,0,4.348h0a8.355,8.355,0,0,1-7.531,0L1893.89,939.2l-12.617,7.285a8.356,8.356,0,0,1-7.532,0C1871.671,945.285,1871.671,943.328,1873.741,942.133Z" transform="translate(-1691.052 -743.312)"/><path class="m" d="M1873.741,942.133l12.617-7.285-12.617-7.285c-2.071-1.2-2.071-3.152,0-4.348h0a8.357,8.357,0,0,1,7.532,0l12.617,7.285,12.617-7.285a8.356,8.356,0,0,1,7.531,0c2.071,1.2,2.071,3.153,0,4.348l-12.617,7.285,12.617,7.285c2.071,1.2,2.071,3.153,0,4.348h0a8.355,8.355,0,0,1-7.531,0L1893.89,939.2l-12.617,7.285a8.356,8.356,0,0,1-7.532,0C1871.671,945.285,1871.671,943.328,1873.741,942.133Z" transform="translate(-1691.052 -743.312)"/><path class="i" d="M1904.7,936.392c0,2.357-2.844,4.268-6.354,4.268s-6.354-1.911-6.354-4.268,2.845-6.262,6.354-6.262S1904.7,934.035,1904.7,936.392Z" transform="translate(-1695.513 -745.071)"/><path class="m" d="M1903.5,933.26c0,1.729-2.087,3.132-4.662,3.132s-4.661-1.4-4.661-3.132,2.086-3.131,4.661-3.131S1903.5,931.531,1903.5,933.26Z" transform="translate(-1696.004 -745.071)"/><path class="i" d="M1899.368,890.8a2.871,2.871,0,0,1,2.851,2.891v27.823a2.852,2.852,0,1,1-5.7,0V893.69A2.871,2.871,0,0,1,1899.368,890.8Z" transform="translate(-1696.53 -736.213)"/><path class="w" d="M1849.172,874.951a4.716,4.716,0,0,0,.017.485,14.182,14.182,0,0,0,7.315,11.36l31.1,17.056a8.273,8.273,0,0,0,1.472.633,8.492,8.492,0,0,0,6.946-.756l35.626-20.994a19.444,19.444,0,0,0,9.487-14.944l3.731-39.933.387-4.151a4.434,4.434,0,0,0-6.379-4.389L1900.317,838.4a4.436,4.436,0,0,0-2.244,2.581l-12.33,37.418a5.148,5.148,0,0,1-7.44,2.861l-20.122-11.508A6.022,6.022,0,0,0,1849.172,874.951Z" transform="translate(-1702.905 -720.01)"/><path class="v" d="M1850.233,904.476a2.472,2.472,0,0,0,2.667,3.319,8.475,8.475,0,0,0,3.131-1.093l35.626-20.994a19.445,19.445,0,0,0,9.487-14.944L1904.579,834a1.776,1.776,0,0,0-2.555-1.757l-31.115,15.384a4.451,4.451,0,0,0-2.243,2.589l-12.323,37.418C1855.919,888.935,1853.314,896.394,1850.233,904.476Z" transform="translate(-1662.91 -722.983)"/><g transform="translate(-3.901 -131.706)"><path class="x" d="M2105.377,354.213l179.081-104.058c3.3-2.108,6.144-.67,6.355,3.209l.881,16.231,6.7,123.308a13.354,13.354,0,0,1-5.591,10.842L2113.721,507.8c-3.3,2.108-6.144.671-6.354-3.209l-6.7-123.308-.881-16.231A13.352,13.352,0,0,1,2105.377,354.213Z" transform="translate(-2099.775 -249.183)"/><path class="y" d="M2087.4,399.244l6.7,123.305c.21,3.884,3.056,5.316,6.355,3.213l101.278-58.852,77.8-45.212a13.344,13.344,0,0,0,5.592-10.836l-6.7-123.311-84,49.108Z" transform="translate(-2078.963 -264.145)"/><path class="u" d="M2098.412,369.967l.874,16.145.007.085,107.034-62.585,83.995-49.108-.079-1.432-.8-14.8c-.21-3.877-3.056-5.316-6.354-3.207L2104,359.124A13.353,13.353,0,0,0,2098.412,369.967Z" transform="translate(-2090.854 -251.098)"/><path class="z" d="M2398.133,440.585a5.838,5.838,0,0,1-2.542,4.69c-1.462.892-2.692.239-2.75-1.46a5.839,5.839,0,0,1,2.542-4.689C2396.845,438.234,2398.076,438.887,2398.133,440.585Z" transform="translate(-2378.288 -323.097)"/><path class="aa" d="M2382.4,430.983a5.839,5.839,0,0,1-2.541,4.689c-1.462.892-2.692.238-2.75-1.46a5.839,5.839,0,0,1,2.541-4.689C2381.113,428.631,2382.344,429.284,2382.4,430.983Z" transform="translate(-2352.958 -319.353)"/><g transform="translate(19.91 61.469)"><g transform="matrix(0.998, -0.07, 0.07, 0.998, 0, 64.311)"><path class="u" d="M65.757,5.33c0,4.66-3.813,10.38-8.474,12.711L2.071,45.653c-4.66,2.331,0-3.813,0-8.474v-.1c0-4.66-4.66-6.143,0-8.473L57.283.995c4.66-2.33,8.474-.425,8.474,4.236Z" transform="translate(9.891 0)"/><ellipse class="ab" cx="10.917" cy="6.654" rx="10.917" ry="6.654" transform="matrix(0.615, -0.788, 0.788, 0.615, 0, 41.639)"/><path class="u" d="M0,9.907,1.632,7.425l3.413,1.63L10.009,0,11.87.477,5.308,12.444Z" transform="translate(6.028 30.046)"/><path class="ab" d="M28.052.818a2.678,2.678,0,0,1-1.465,2.091L1.458,15.42c-.807.4-1.46.117-1.458-.636H0a2.676,2.676,0,0,1,1.464-2.09L26.594.182c.807-.4,1.46-.117,1.458.636Z" transform="translate(24.418 12.961)"/><path class="ac" d="M43.39.549a1.8,1.8,0,0,1-.982,1.4L.978,22.532C.437,22.8,0,22.61,0,22.106H0a1.8,1.8,0,0,1,.982-1.4L42.412.122c.542-.269.979-.078.978.427Z" transform="translate(24.005 9.726)"/><path class="ac" d="M37.964.549a1.8,1.8,0,0,1-.982,1.4l-36,17.868C.437,20.089,0,19.9,0,19.392H0a1.8,1.8,0,0,1,.982-1.4l36-17.868c.542-.27.979-.078.978.426Z" transform="translate(23.998 15.647)"/><path class="u" d="M65.756,5.33c0,4.66-3.813,10.381-8.473,12.711L2.071,45.653c-4.66,2.331,0-3.813,0-8.473v-.1c0-4.66-4.66-6.143,0-8.473L57.283.995c4.66-2.331,8.473-.425,8.473,4.236Z" transform="translate(17.246 22.978)"/><ellipse class="ab" cx="10.917" cy="6.654" rx="10.917" ry="6.654" transform="translate(7.355 64.618) rotate(-52.02)"/><path class="u" d="M0,9.907,1.632,7.425l3.413,1.63L10.009,0,11.87.477,5.308,12.444Z" transform="translate(13.382 53.024)"/><path class="ab" d="M28.052.819a2.678,2.678,0,0,1-1.464,2.091L1.457,15.42c-.807.4-1.459.117-1.457-.636H0a2.676,2.676,0,0,1,1.463-2.09L26.593.182c.807-.4,1.46-.117,1.459.636Z" transform="translate(31.773 35.939)"/><path class="ac" d="M43.39.549a1.8,1.8,0,0,1-.982,1.4L.978,22.532C.437,22.8,0,22.61,0,22.106H0a1.8,1.8,0,0,1,.982-1.4L42.412.122c.541-.269.979-.078.978.427Z" transform="translate(31.36 32.704)"/><path class="ac" d="M37.964.549a1.8,1.8,0,0,1-.982,1.4l-36,17.868C.437,20.088,0,19.9,0,19.392H0a1.8,1.8,0,0,1,.982-1.4l36-17.868c.542-.269.979-.078.978.427Z" transform="translate(31.352 38.626)"/><path class="u" d="M65.757,5.33c0,4.66-3.813,10.38-8.474,12.711L2.071,45.653c-4.66,2.331,0-3.813,0-8.473v-.1c0-4.66-4.66-6.143,0-8.474L57.283.995c4.66-2.331,8.474-.425,8.474,4.236Z" transform="translate(23.606 49.051)"/><ellipse class="ad" cx="10.917" cy="6.654" rx="10.917" ry="6.654" transform="matrix(0.615, -0.788, 0.788, 0.615, 13.714, 90.69)"/><path class="ab" d="M28.052.818a2.677,2.677,0,0,1-1.464,2.091L1.458,15.419c-.807.4-1.46.117-1.458-.636H0a2.678,2.678,0,0,1,1.464-2.091L26.594.182c.807-.4,1.46-.117,1.458.636Z" transform="translate(38.132 62.011)"/><path class="ac" d="M43.39.549a1.8,1.8,0,0,1-.982,1.4L.978,22.532C.437,22.8,0,22.611,0,22.106H0a1.8,1.8,0,0,1,.982-1.4L42.412.122c.542-.269.979-.078.978.427Z" transform="translate(37.719 58.776)"/><path class="ac" d="M37.964.549a1.8,1.8,0,0,1-.982,1.4l-36,17.868C.437,20.088,0,19.9,0,19.392H0a1.8,1.8,0,0,1,.982-1.4l36-17.868c.541-.269.979-.078.977.426Z" transform="translate(37.712 64.698)"/><path class="u" d="M1.8,12.743l-1.8-.9L7.9,0l1.8.9Z" transform="translate(20.957 79.495)"/><path class="u" d="M7.9,6.643,0,2.7,1.8,0l7.9,3.947Z" transform="translate(20.957 82.545)"/></g><g transform="translate(104.442 48.226)"><path class="u" d="M26.97,31.977,4.482,43.224C2.017,44.457,0,43.448,0,40.984V18.5c0-2.465,2.017-5.49,4.482-6.723L26.97.526C29.435-.706,31.451.3,31.451,2.766V25.255C31.451,27.719,29.435,30.745,26.97,31.977Z" transform="matrix(0.996, -0.087, 0.087, 0.996, 34.58, 2.741)"/><path class="u" d="M26.97,31.977,4.481,43.224C2.016,44.456,0,43.448,0,40.983V18.5c0-2.465,2.016-5.49,4.481-6.723L26.97.526C29.434-.706,31.451.3,31.451,2.766V25.254C31.451,27.719,29.434,30.744,26.97,31.977Z" transform="matrix(0.996, -0.087, 0.087, 0.996, 0, 23.985)"/><path class="ae" d="M.119,4.066c.386.911,1.593.89,2.7-.048S4.5,1.581,4.118.67,2.524-.22,1.42.718-.267,3.155.119,4.066Z" transform="matrix(0.996, -0.087, 0.087, 0.996, 49.407, 23.424)"/><path class="ae" d="M2.785,6.465l-1.349.024L.156,9.78l1.349-.024a6.294,6.294,0,0,0-.094,1.653L0,12.609.971,14.9l1.411-1.2a2.82,2.82,0,0,0,1.074.662L2.8,16.04l2.652-.047.651-1.675a7.54,7.54,0,0,0,1.607-.709l.493,1.165,2.779-2.36-.493-1.165a12.1,12.1,0,0,0,1.2-1.673l1.349-.024L14.32,6.26l-1.349.024a6.346,6.346,0,0,0,.094-1.654l1.411-1.2-.97-2.294-1.412,1.2a2.816,2.816,0,0,0-1.074-.661L11.671,0,9.02.048,8.369,1.722a7.509,7.509,0,0,0-1.606.709L6.27,1.266,3.49,3.627l.493,1.165A12.108,12.108,0,0,0,2.785,6.465Zm7.993-1.451c.682,1.611-.352,4.27-2.3,5.928s-4.094,1.7-4.776.085S4.05,6.756,6,5.1,10.1,3.4,10.778,5.014Z" transform="matrix(0.996, -0.087, 0.087, 0.996, 43.815, 18.239)"/><path class="ae" d="M.164,1.066C-.148,1.717,0,2.3.493,2.362A1.7,1.7,0,0,0,1.954,1.3c.312-.65.164-1.231-.329-1.3A1.7,1.7,0,0,0,.164,1.066Z" transform="matrix(0.996, -0.087, 0.087, 0.996, 56.894, 12.326)"/><path class="ae" d="M3.746,1.093,3.581.445,2.145,1.487l.165.649a6.061,6.061,0,0,0-.658.792L1.02,2.844.234,4.482l.632.083a3.711,3.711,0,0,0-.135.861L0,5.956.324,7.23l.73-.53a1.4,1.4,0,0,0,.463.426l-.4.832,1.245.164.4-.832a3.246,3.246,0,0,0,.793-.261l.165.648L5.156,6.634l-.165-.648a6.063,6.063,0,0,0,.658-.792l.632.083L7.067,3.64l-.632-.083A3.717,3.717,0,0,0,6.571,2.7L7.3,2.166,6.977.892l-.731.53A1.4,1.4,0,0,0,5.784,1l.4-.832L4.938,0l-.4.832A3.244,3.244,0,0,0,3.746,1.093ZM5.236,4.27A3,3,0,0,1,2.649,6.147C1.776,6.032,1.514,5,2.066,3.852A3,3,0,0,1,4.652,1.975C5.526,2.09,5.787,3.119,5.236,4.27Z" transform="matrix(0.996, -0.087, 0.087, 0.996, 54.062, 9.686)"/><path class="ae" d="M4.369,5.389,0,7.573V2.185L4.369,0Z" transform="matrix(0.996, -0.087, 0.087, 0.996, 11.184, 50.192)"/><path class="ae" d="M4.369,7.816,0,10V2.185L4.369,0Z" transform="matrix(0.996, -0.087, 0.087, 0.996, 16.065, 44.45)"/><path class="ae" d="M4.369,11.209,0,13.393V2.185L4.369,0Z" transform="matrix(0.996, -0.087, 0.087, 0.996, 20.971, 37.775)"/><path class="ae" d="M0,14.821l.051-1.714L13.158,0l.832.832Z" transform="matrix(0.996, -0.087, 0.087, 0.996, 9.575, 33.886)"/><path class="ae" d="M3.354,5.323,2.241,4.941l.892-2.6L.526,3.642,0,2.59,5.178,0Z" transform="matrix(0.996, -0.087, 0.087, 0.996, 19.391, 31.418)"/></g><g transform="matrix(0.998, -0.07, 0.07, 0.998, 87.625, 5.721)"><path class="u" d="M65.756,5.33c0,4.66-3.813,10.381-8.473,12.711L2.071,45.653c-4.66,2.331,0-3.813,0-8.473v-.1c0-4.66-4.66-6.143,0-8.473L57.283.995c4.66-2.331,8.473-.425,8.473,4.236Z" transform="translate(9.892 0)"/><ellipse class="ab" cx="10.917" cy="6.654" rx="10.917" ry="6.654" transform="translate(0 41.64) rotate(-52.02)"/><path class="u" d="M0,9.907,1.632,7.425l3.413,1.63L10.009,0,11.87.477,5.308,12.444Z" transform="translate(6.028 30.046)"/><path class="ab" d="M28.052.819a2.678,2.678,0,0,1-1.464,2.091L1.457,15.42c-.807.4-1.459.117-1.457-.636H0a2.676,2.676,0,0,1,1.463-2.09L26.593.182c.807-.4,1.46-.117,1.459.636Z" transform="translate(24.418 12.961)"/><path class="ac" d="M43.39.549a1.8,1.8,0,0,1-.982,1.4L.978,22.532C.437,22.8,0,22.61,0,22.106H0a1.8,1.8,0,0,1,.982-1.4L42.412.122c.541-.269.979-.078.978.427Z" transform="translate(24.005 9.726)"/><path class="ac" d="M37.964.549a1.8,1.8,0,0,1-.982,1.4l-36,17.868C.437,20.088,0,19.9,0,19.392H0a1.8,1.8,0,0,1,.982-1.4l36-17.868c.542-.269.979-.078.978.427Z" transform="translate(23.997 15.648)"/><path class="u" d="M65.757,5.33c0,4.66-3.813,10.38-8.474,12.711L2.071,45.653c-4.66,2.331,0-3.813,0-8.473v-.1c0-4.66-4.66-6.143,0-8.474L57.283.995c4.66-2.331,8.474-.425,8.474,4.236Z" transform="translate(16.251 26.072)"/><ellipse class="ad" cx="10.917" cy="6.654" rx="10.917" ry="6.654" transform="matrix(0.615, -0.788, 0.788, 0.615, 6.36, 67.712)"/><path class="ab" d="M28.052.818a2.677,2.677,0,0,1-1.464,2.091L1.458,15.419c-.807.4-1.46.117-1.458-.636H0a2.678,2.678,0,0,1,1.464-2.091L26.594.182c.807-.4,1.46-.117,1.458.636Z" transform="translate(30.777 39.033)"/><path class="ac" d="M43.39.549a1.8,1.8,0,0,1-.982,1.4L.978,22.532C.437,22.8,0,22.611,0,22.106H0a1.8,1.8,0,0,1,.982-1.4L42.412.122c.542-.269.979-.078.978.427Z" transform="translate(30.364 35.798)"/><path class="ac" d="M37.964.549a1.8,1.8,0,0,1-.982,1.4l-36,17.868C.437,20.088,0,19.9,0,19.392H0a1.8,1.8,0,0,1,.982-1.4l36-17.868c.541-.269.979-.078.977.426Z" transform="translate(30.357 41.72)"/><path class="u" d="M1.8,12.743l-1.8-.9L7.9,0l1.8.9Z" transform="translate(13.602 56.516)"/><path class="u" d="M7.9,6.643,0,2.7,1.8,0l7.9,3.947Z" transform="translate(13.602 59.566)"/></g></g></g></g></g></svg>