<svg xmlns="http://www.w3.org/2000/svg" xmlns:xlink="http://www.w3.org/1999/xlink" width="592.91" height="416.349" viewBox="0 0 592.91 416.349"><defs><style>.a{fill:#8dc0ef;}.b{fill:#525252;}.c,.d{fill:none;stroke:#fff;}.c{stroke-linecap:round;stroke-linejoin:round;stroke-width:2px;}.d{stroke-width:2.5px;}.e{fill:rgba(15,0,0,0.1);}.f{fill:#c4e4f9;}.g{fill:#0f62fe;}.h{fill:#1f3598;}.i{fill:#647ddd;opacity:0.17;}.j{fill:#d5e8fa;}.k{fill:#eff6fc;}.l{fill:#bddcff;}.m{fill:#e2e8f2;}.n{fill:#75a3ec;}.o{fill:#ffc7cb;}.p{fill:#ff8358;}.q{fill:#577de8;}.r{fill:#f2f4fa;}.s{fill:#3772ce;}.t{fill:#fff;}.u{fill:#4568c7;}.v{fill:#a0d2ff;}.w{fill:#cacaca;mix-blend-mode:multiply;isolation:isolate;}.x{fill:#32b98e;}.y{fill:#f26c73;}.aa,.z{fill:#eee;}.aa{opacity:0.5;}.ab{clip-path:url(#a);}.ac{fill:#ced6e9;}.ad{fill:#fbc1b1;}.ae{fill:#520c0c;}.af{fill:#fab300;}</style><clipPath id="a"><path class="a" d="M2054.553,726.411l-63.507-36.664v45.244l63.506,36.664Z" transform="translate(-1991.046 -689.747)"/></clipPath></defs><g transform="translate(-1307.09 -414.651)"><g transform="translate(1712 643.955)"><circle class="b" cx="130" cy="130" r="130" transform="translate(-72 -72.955)"/><path class="c" d="M438.283,186.916v15.738a4.24,4.24,0,0,0,4.2,4.283c2.316,0,3.836-1.918,3.836-4.283v-22.54a8.926,8.926,0,0,0-8.925-8.925H418.918a6.207,6.207,0,0,1-4.389-1.817l-1.888-1.89-10.1-10.1a4.239,4.239,0,0,0-5.995-.062c-1.639,1.638-1.357,4.068.315,5.741l2.848,2.848,3.826,3.826,3.39,3.389,6.017,6.018a10.285,10.285,0,0,1,3.02,7.279v47.566c0,2.554,1.642,4.626,4.144,4.626a4.58,4.58,0,0,0,4.532-4.626V210.5a2.487,2.487,0,0,1,2.485-2.485h0a2.485,2.485,0,0,1,2.485,2.485v23.483a4.581,4.581,0,0,0,4.533,4.626c2.5,0,4.144-2.072,4.144-4.626V181.453" transform="translate(-337.722 -126.537)"/><path class="c" d="M371.761,182.75v32.91a12.272,12.272,0,0,0,12.271,12.271H419.6" transform="translate(-347.219 -115.855)"/><path class="c" d="M447.263,149.243v-1.973A12.272,12.272,0,0,0,434.992,135H363a12.272,12.272,0,0,1,12.271,12.271v11.195" transform="translate(-350.731 -135)"/><path class="c" d="M366.514,135a12.271,12.271,0,0,0-12.271,12.271v7.363h24.542" transform="translate(-354.243 -135)"/><line class="c" x2="17.663" transform="translate(46.764 73.797)"/><line class="c" x2="7.679" transform="translate(46.764 90.608)"/><line class="c" x2="17.663" transform="translate(46.764 82.202)"/><line class="c" x2="1.873" transform="translate(38.027 73.797)"/><line class="c" x2="1.873" transform="translate(38.027 90.608)"/><line class="c" x2="1.873" transform="translate(38.027 82.202)"/><circle class="c" cx="15.105" cy="15.105" r="15.105" transform="matrix(0.26, -0.966, 0.966, 0.26, 12.396, 55.795)"/><path class="d" d="M2090.761,109.23l4.212,3.521,10.209-10.21" transform="translate(-2067.62 -62.557)"/><path class="c" d="M420.806,168.122a9.6,9.6,0,1,1,9.6-9.6A9.605,9.605,0,0,1,420.806,168.122Z" transform="translate(-331.406 -129.422)"/></g><g transform="translate(1307.09 722.852)"><path class="e" d="M276,660H755.693s-10.053,18.671-33.033,15.8a133.351,133.351,0,0,1-18.67-1.436c-8.617-1.436-21.543,2.872-24.416,7.181,0,0-21.543,12.926-57.448,0,0,0-33.033-14.362-56.012-1.436,0,0-17.235,18.671-61.757-4.309,0,0-11.49-7.181-31.6,7.181,0,0-20.107,17.234-58.884-7.181,0,0-21.543-5.745-45.959,5.745C367.917,681.543,319.086,688.724,276,660Z" transform="translate(-276 -581.009)"/><path class="f" d="M582.341,634.075s24.272,13.406,13.552,32.565C595.893,666.64,578.528,663.061,582.341,634.075Z" transform="translate(-267.222 -583.199)"/><path class="g" d="M611.158,623s12.926,41.65-20.107,51.7C591.051,674.7,575.253,651.724,611.158,623Z" transform="translate(-264.694 -588.031)"/><path class="g" d="M331.345,621.92s-37.082,20.482-20.7,49.752C310.64,671.672,337.171,666.2,331.345,621.92Z" transform="translate(-262.711 -597.619)"/><path class="f" d="M291.6,605s-19.748,63.633,30.718,78.991C322.319,683.991,346.456,648.885,291.6,605Z" transform="translate(-270.855 -605)"/></g><g transform="translate(1413.158 593.382)"><path class="a" d="M2038.455,945.1a4.22,4.22,0,0,1-3.821,0,1.165,1.165,0,0,1,0-2.207,4.222,4.222,0,0,1,3.821,0A1.165,1.165,0,0,1,2038.455,945.1Z" transform="translate(-1887.386 -749.402)"/><path class="h" d="M2109.155,803.117c-4.216-4.883-8.962,2.047-11.2,4.92-1.524,1.953-6.822,7.136-6.241,9.856.2.954.318.909,1.26,1.162a5.9,5.9,0,0,0,2.891-.108,16.48,16.48,0,0,0,11.171-8.312c.092,1.2.115,2.392.1,3.59a.344.344,0,0,0,.533.28q.7-.454,1.368-.946c1.668-1.232.932-2.978,1.384-4.964A6.226,6.226,0,0,0,2109.155,803.117Z" transform="translate(-1900.768 -716.769)"/><path class="i" d="M1911.35,927.77c-10.728-6.193-28.12-6.193-38.846,0s-10.727,16.235,0,22.428,28.118,6.193,38.846,0S1922.076,933.964,1911.35,927.77Z" transform="translate(-1848.188 -744.933)"/><path class="i" d="M2081.689,849.473l-142.844-81.239L1850.5,821.275a1.588,1.588,0,0,0,.037,2.746L1989.4,902.309a9.287,9.287,0,0,0,9.405-.09l82.915-49.758A1.732,1.732,0,0,0,2081.689,849.473Z" transform="translate(-1844.78 -709.089)"/><path class="a" d="M2039.247,878.374V928.6a.562.562,0,0,1-.041.2.443.443,0,0,1-.391.237h-4.542a.445.445,0,0,1-.391-.237.556.556,0,0,1-.041-.2V878.374a.435.435,0,0,1,.432-.433h4.542A.435.435,0,0,1,2039.247,878.374Z" transform="translate(-1887.385 -734.477)"/><path class="a" d="M2039.247,886.977a.389.389,0,0,1-.049.188.891.891,0,0,1,.049.285,1.329,1.329,0,0,1-.792,1.1,4.213,4.213,0,0,1-3.824,0,1.331,1.331,0,0,1-.791-1.1.865.865,0,0,1,.049-.285.379.379,0,0,1-.049-.187v-8.6a.435.435,0,0,1,.432-.433h4.542a.435.435,0,0,1,.432.433Z" transform="translate(-1887.385 -734.477)"/><path class="a" d="M1851.27,841.272a4.223,4.223,0,0,1-3.821,0,1.165,1.165,0,0,1,0-2.207,4.221,4.221,0,0,1,3.821,0A1.165,1.165,0,0,1,1851.27,841.272Z" transform="translate(-1844.069 -725.375)"/><path class="a" d="M1852.061,774.544v50.23a.55.55,0,0,1-.041.2.441.441,0,0,1-.391.237h-4.542a.445.445,0,0,1-.392-.237.565.565,0,0,1-.04-.2v-50.23a.435.435,0,0,1,.432-.433h4.542A.435.435,0,0,1,1852.061,774.544Z" transform="translate(-1844.069 -710.449)"/><path class="a" d="M1852.061,783.146a.383.383,0,0,1-.048.188.882.882,0,0,1,.048.285,1.328,1.328,0,0,1-.791,1.1,4.214,4.214,0,0,1-3.824,0,1.329,1.329,0,0,1-.791-1.1.864.864,0,0,1,.049-.285.376.376,0,0,1-.049-.188v-8.6a.435.435,0,0,1,.432-.433h4.542a.435.435,0,0,1,.432.433Z" transform="translate(-1844.069 -710.449)"/><path class="a" d="M2152.15,878.625a4.222,4.222,0,0,1-3.822,0,1.165,1.165,0,0,1,0-2.207,4.227,4.227,0,0,1,3.822,0A1.164,1.164,0,0,1,2152.15,878.625Z" transform="translate(-1913.697 -734.019)"/><path class="a" d="M2152.943,811.9v50.23a.571.571,0,0,1-.042.2.442.442,0,0,1-.391.236h-4.542a.441.441,0,0,1-.39-.236.559.559,0,0,1-.041-.2V811.9a.435.435,0,0,1,.431-.432h4.542A.436.436,0,0,1,2152.943,811.9Z" transform="translate(-1913.697 -719.093)"/><path class="a" d="M2152.943,825.412a.393.393,0,0,1-.049.188.911.911,0,0,1,.049.285,1.33,1.33,0,0,1-.791,1.1,4.216,4.216,0,0,1-3.825,0,1.328,1.328,0,0,1-.791-1.1.9.9,0,0,1,.048-.285.389.389,0,0,1-.048-.188v-8.6a.435.435,0,0,1,.431-.432h4.542a.435.435,0,0,1,.433.432Z" transform="translate(-1913.697 -720.23)"/><path class="j" d="M1843.69,761.735l-.01,10.774,16.041,5.923-.819-5.87Z" transform="translate(-1843.38 -707.585)"/><path class="j" d="M2156.639,812.031V802.41l-17.78,11.431,1.188,3.165Z" transform="translate(-1911.688 -716.998)"/><path class="j" d="M1845.753,754.328l83.3-48.694a18.87,18.87,0,0,1,18.883-.095l137.5,78.535a4.972,4.972,0,0,1,.02,8.622l-84.649,48.886a18.87,18.87,0,0,1-18.877,0l-136.155-78.658A4.971,4.971,0,0,1,1845.753,754.328Z" transform="translate(-1843.29 -694.006)"/><path class="k" d="M1846.143,742.553l83.3-48.693a18.872,18.872,0,0,1,18.883-.1l137.5,78.536a4.97,4.97,0,0,1,.021,8.621L2001.2,829.809a18.87,18.87,0,0,1-18.877,0L1846.165,751.15A4.971,4.971,0,0,1,1846.143,742.553Z" transform="translate(-1843.38 -691.281)"/><path class="a" d="M1963.108,812.3l-42.284-24.413c-1.919-1.108-1.919-2.9,0-4.012l16.622-9.6a7.678,7.678,0,0,1,6.949,0l42.285,24.413c1.919,1.109,1.919,2.9,0,4.012l-16.623,9.6A7.677,7.677,0,0,1,1963.108,812.3Z" transform="translate(-1860.899 -710.295)"/><path class="a" d="M1919.384,785.658v4.01l47.2,26.287,21.536-12.434v-3.046Z" transform="translate(-1860.899 -713.121)"/><path class="l" d="M1963.108,808.334l-42.284-24.414c-1.919-1.107-1.919-2.9,0-4.012l16.622-9.6a7.682,7.682,0,0,1,6.949,0l42.285,24.414c1.919,1.108,1.919,2.9,0,4.012l-16.623,9.6A7.681,7.681,0,0,1,1963.108,808.334Z" transform="translate(-1860.899 -709.377)"/><path class="l" d="M1975.7,804.506l-40.969-23.654,3.6-2.078,40.969,23.654Z" transform="translate(-1864.45 -711.528)"/><path class="l" d="M1967.665,809.144,1926.7,785.49l3.6-2.078,40.969,23.654Z" transform="translate(-1862.591 -712.601)"/><path class="m" d="M1935.79,780.994l40.154,23.184,2.785-1.608-40.155-23.184Z" transform="translate(-1864.696 -711.67)"/><path class="m" d="M1927.757,785.632l40.154,23.184,2.784-1.609-40.154-23.183Z" transform="translate(-1862.836 -712.743)"/><path class="m" d="M1943.607,775.726l40.154,23.184,2.785-1.609-40.154-23.183Z" transform="translate(-1866.505 -710.451)"/><path class="n" d="M2037.893,819.187c0,2.689-4.1,4.868-9.165,4.868s-9.165-2.18-9.165-4.868,4.1-4.868,9.165-4.868S2037.893,816.5,2037.893,819.187Z" transform="translate(-1884.082 -719.754)"/><ellipse class="l" cx="9.165" cy="4.867" rx="9.165" ry="4.867" transform="translate(135.482 92.152)"/><path class="h" d="M2037.267,906.847l.936-.544c.142-.082.142-.216,0-.3l-.94-.543a.573.573,0,0,0-.518,0l-.935.544a.159.159,0,0,0,0,.3l.94.543a.571.571,0,0,0,.518,0Z" transform="translate(-1887.816 -740.83)"/><rect class="h" width="3.649" height="8.749" rx="1.584" transform="translate(93.872 176.441)"/><path class="o" d="M1965.677,858.4l.13,2.8,1.615,39.435c-.006.148-.019.118-.027.055a5.81,5.81,0,0,0-.373,2.079c2.43,1.776,4.514,2.766,7.76,2.6a27.693,27.693,0,0,1,.5-5.74c.057-.42,3.187-39.4,3.187-39.4V860.2C1973.662,860.32,1970.481,858.137,1965.677,858.4Z" transform="translate(-1871.612 -729.95)"/><path class="h" d="M1976.4,924.068c3.131,2.214,2.827,4.288,7.525,3.131a8.71,8.71,0,0,0,4.066-1.947,3.218,3.218,0,0,0,.77-3.89,5.2,5.2,0,0,0-3.4-1.89,20.937,20.937,0,0,0-6.741-.39,5.75,5.75,0,0,0-3.028.994C1973.921,921.421,1975,923.074,1976.4,924.068Z" transform="translate(-1873.71 -743.971)"/><path class="o" d="M1973.387,914.245a8.205,8.205,0,0,1,2.115,1.519,30.337,30.337,0,0,1,6.414,6.554c-.49,1.452-2.081,2.506-3.823,3.029a26,26,0,0,1-2.977-1.054,16.226,16.226,0,0,1-6.575-5.452c-.2-.287-.39-.674-.193-.962l2.621-2.538c2.628-2.543,6.513,1.086,9.161,2.469,1,.523,2.138,1.249,2.176,2.377.037,1.056-.937,1.861-1.892,2.313a9.078,9.078,0,0,1-2.985.828Z" transform="translate(-1872.211 -742.878)"/><path class="h" d="M1965.981,914.8a4.166,4.166,0,0,1,3.8.552c1.839,1.11,3.2,2.926,4.81,4.323,2.215,1.925,4.445,3,7.154,1.764.892.542,1.517,1.166,1.488,1.885-.039,1.048-1.917,2.392-2.746,2.962-2.6,1.791-6.786-1.084-8.9-2.16-1.668-.849-3.435-.691-5.024-1.4C1964.428,921.773,1963.748,916.807,1965.981,914.8Z" transform="translate(-1871.363 -742.949)"/><rect class="h" width="3.649" height="8.749" rx="1.584" transform="translate(71.893 162.544)"/><path class="p" d="M1936.615,851.965l.13-1.277,1.615,34.543c-.006.148-.019.118-.028.055a5.807,5.807,0,0,0-.373,2.079c2.43,1.776,4.514,2.767,7.76,2.6a27.7,27.7,0,0,1,.5-5.741c.057-.42,2.371-32.876,2.371-32.876v-.034C1943.784,851.436,1941.42,851.7,1936.615,851.965Z" transform="translate(-1864.886 -728.17)"/><path class="h" d="M1947.341,906.338c3.13,2.214,2.827,4.288,7.524,3.131a8.717,8.717,0,0,0,4.066-1.948,3.219,3.219,0,0,0,.77-3.89,5.2,5.2,0,0,0-3.4-1.889,20.957,20.957,0,0,0-6.741-.39,5.753,5.753,0,0,0-3.028.994C1944.859,903.691,1945.936,905.345,1947.341,906.338Z" transform="translate(-1866.985 -739.868)"/><path class="p" d="M1944.325,896.515a8.245,8.245,0,0,1,2.115,1.519,30.359,30.359,0,0,1,6.414,6.554c-.49,1.452-2.081,2.506-3.823,3.028a26.01,26.01,0,0,1-2.977-1.054,16.222,16.222,0,0,1-6.575-5.451c-.2-.287-.39-.674-.193-.962l2.622-2.538c2.628-2.543,6.513,1.087,9.161,2.469,1,.523,2.138,1.249,2.177,2.378.036,1.055-.937,1.86-1.892,2.312a9.068,9.068,0,0,1-2.985.828Z" transform="translate(-1865.486 -738.775)"/><path class="h" d="M1936.919,897.067a4.165,4.165,0,0,1,3.8.552c1.839,1.111,3.2,2.926,4.81,4.324,2.214,1.926,4.445,3,7.154,1.765.892.541,1.516,1.165,1.488,1.884-.04,1.048-1.917,2.392-2.746,2.961-2.6,1.791-6.787-1.084-8.9-2.16-1.668-.849-3.435-.691-5.024-1.4C1935.365,904.043,1934.687,899.077,1936.919,897.067Z" transform="translate(-1864.638 -738.846)"/><path class="q" d="M2017.766,695.8v0Z" transform="translate(-1850.83 -673.37)"/><path class="r" d="M2014.913,758.245c0,1.566-1.1,2.2-2.456,1.418a5.427,5.427,0,0,1-2.456-4.254c0-1.566,1.1-2.2,2.456-1.418A5.428,5.428,0,0,1,2014.913,758.245Z" transform="translate(-1881.869 -705.715)"/><path class="p" d="M1910.213,806.978a25.558,25.558,0,0,1-.088-2.92c.606-1.271,1.148-2.418,1.142-2.515l19.064-13.233a3.455,3.455,0,0,1,2.5-.914,3.516,3.516,0,0,1,.5.056,3.442,3.442,0,0,1,1.912,1.062,3.477,3.477,0,0,1-.205,4.908l-18.688,16.068-.045.038A3.759,3.759,0,0,1,1910.213,806.978Z" transform="translate(-1858.754 -713.523)"/><path class="o" d="M1941.7,795.2c-2.29,2.128-5.513,2.383-7.2.569s-1.2-5.01,1.094-7.137,5.513-2.383,7.2-.569S1943.986,793.075,1941.7,795.2Z" transform="translate(-1864.164 -713.398)"/><path class="h" d="M1956.575,852.406l-11.612-6.654c-4.493-2.25-8.032.546-12.852,1.965l.612-.612-2.267-3.539-26.828-1.892c-9.394,5.325-11.212,28.165-11.212,28.165l.009.171h0c-1.111,9.27,13.332,16.237,24.477,17.935a18.3,18.3,0,0,0,11.4-2l1.865-1,26.9-14.449C1965.178,865.909,1964.892,856.589,1956.575,852.406Z" transform="translate(-1854.646 -726.084)"/><path class="m" d="M1903.405,825.021a34.63,34.63,0,0,1-.086,4.715,2.188,2.188,0,0,0,1,2.044,28.885,28.885,0,0,0,4.208,2.19c4.217,1.768,9.052,2.765,13.552,1.768.18-.042.352-.086.532-.128,2.586-.662,8.21-2.19,8.717-5.393a1.548,1.548,0,0,0,.042-.395c-.008-.3-.025-.611-.042-.919V814.526c1.4-4.165,3.968-7.136,2.688-12.427a18.811,18.811,0,0,0-3-6.733c-2.371-3.264-5.788-5.282-10.151-6.553-1.383-.395-2.749-.722-3.985-.979a24.565,24.565,0,0,0-8-.3c-2.808.362-5.5,1.314-7.171,3.187a6.448,6.448,0,0,0-.6.755c-3.332,5-1.563,11.989-.353,17.416C1901.945,814.226,1903.2,819.585,1903.405,825.021Z" transform="translate(-1856.224 -713.51)"/><path class="s" d="M1928.528,777.345c-.017,0-.033.018-.05.037a1.12,1.12,0,0,1-.017-.238A.292.292,0,0,0,1928.528,777.345Z" transform="translate(-1862.999 -711.151)"/><path class="o" d="M1912.585,790.287h4.091a7.029,7.029,0,0,0,6.932-5.867l.255-1.523.929-5.571h-10.04Z" transform="translate(-1859.325 -711.193)"/><path class="p" d="M1918.75,779.868l4.984,7.572h.318l1.238-7.389Z" transform="translate(-1860.752 -711.781)"/><path class="p" d="M1927.376,774.289a.843.843,0,0,1-.64.052c-.022-.055-.01-.115-.042-.168Z" transform="translate(-1862.59 -710.463)"/><path class="p" d="M1931.412,782.632c.117.008.234.032.35.047l-.92-.881C1931.038,782.071,1931.224,782.351,1931.412,782.632Z" transform="translate(-1863.551 -712.228)"/><path class="p" d="M1911.877,790.645c1.571,2.3,6.817,1.476,11.825-1.826-1.389-.4-2.754-.73-3.992-.984a24.8,24.8,0,0,0-8-.3A3.459,3.459,0,0,0,1911.877,790.645Z" transform="translate(-1859.058 -713.51)"/><path class="s" d="M1928.151,771.622c-.017,0-.032.021-.047.041a1.175,1.175,0,0,1-.04-.235A.293.293,0,0,0,1928.151,771.622Z" transform="translate(-1862.907 -709.828)"/><path class="o" d="M1930.852,762.176c.195,2.958-.016,5.919-1.523,8.257-1.656,2.6-4.63,3.874-7.536,4.246a8.8,8.8,0,0,1-4.8-.558c-2.849-1.335-4.457-4.672-5.469-7.876a27.692,27.692,0,0,1-.889-3.72,14.1,14.1,0,0,1-.013-4.31,12.334,12.334,0,0,1,4.662-7.55,19.456,19.456,0,0,1,7.9-3.413,6.583,6.583,0,0,1,4.149.081,3.513,3.513,0,0,1,1.891,2.129,2.685,2.685,0,0,1,.141,1.049l1.075,7.993C1930.6,759.708,1930.761,760.929,1930.852,762.176Z" transform="translate(-1858.834 -704.165)"/><path d="M1906.99,757.8a18.6,18.6,0,0,0,1.806,6.409,16.608,16.608,0,0,0,5.68,6.838c2.008,1.257,5.948,2.234,7.643-.016,1.662-2.207.25-5.708,1.893-7.928a7.611,7.611,0,0,1,1.816-1.562,14.332,14.332,0,0,0,3.847-3.723c2.48-3.806,1.313-10.866-2.907-13.1a14.243,14.243,0,0,0-11.152-.549,12.747,12.747,0,0,0-3.216,1.809c-.054.048-.109.087-.179.144A13.878,13.878,0,0,0,1906.99,757.8Z" transform="translate(-1858.021 -703.316)"/><path class="p" d="M1926.7,768.7a.839.839,0,0,1-.632.117c-.028-.052-.022-.114-.059-.162Z" transform="translate(-1862.431 -709.186)"/><path class="p" d="M1923.32,769.466a4.8,4.8,0,0,0,1.242,2.659,5.151,5.151,0,0,0,1.37,1.284,2.209,2.209,0,0,0,1.811.248c1.851-.655,1.389-3.427.662-4.737a3.362,3.362,0,0,0-2.743-1.792A2.244,2.244,0,0,0,1923.32,769.466Z" transform="translate(-1861.809 -708.833)"/><path class="t" d="M1929.6,805.657c1.287-2.3,2.389-3.958,5.158-3.511a35.951,35.951,0,0,1,5.652,1.665c.178.547.347,1.107.492,1.7,1.28,5.29-1.288,8.261-2.687,12.427v14.376c.017.309.034.619.042.919a1.571,1.571,0,0,1-.042.4c-.507,3.2-6.132,4.731-8.717,5.393l-.532.128V806.512A4.169,4.169,0,0,0,1929.6,805.657Z" transform="translate(-1863.117 -716.92)"/><path class="h" d="M1921.826,746.8l-.427.043Z" transform="translate(-1861.364 -704.129)"/><path class="o" d="M1944.255,834.121a25.234,25.234,0,0,1-.087-2.92c.607-1.271,1.148-2.418,1.142-2.515l19.064-13.233a3.455,3.455,0,0,1,2.5-.914,3.5,3.5,0,0,1,.5.056,3.442,3.442,0,0,1,1.913,1.062,3.478,3.478,0,0,1-.2,4.908l-18.687,16.068-.046.038A3.758,3.758,0,0,1,1944.255,834.121Z" transform="translate(-1866.631 -719.804)"/><path class="o" d="M1975.739,822.345c-2.29,2.128-5.513,2.383-7.2.569s-1.2-5.01,1.094-7.137,5.513-2.383,7.2-.569S1978.028,820.217,1975.739,822.345Z" transform="translate(-1872.042 -719.679)"/><path class="o" d="M1971.343,815.338h0a1.5,1.5,0,0,1,.077-2.113l6.577-6.11a1.493,1.493,0,0,1,2.111.078h0a1.494,1.494,0,0,1-.077,2.112l-6.575,6.11A1.5,1.5,0,0,1,1971.343,815.338Z" transform="translate(-1872.83 -717.994)"/><path class="l" d="M1943.949,833.988l-.069.026a4.932,4.932,0,0,1-6.356-3.543l-6.163-24.659a5.152,5.152,0,0,1,10-2.5l2.431,9.722,2.4,9.576h0C1947.244,827.194,1949.426,831.948,1943.949,833.988Z" transform="translate(-1863.635 -716.304)"/><path d="M1917.636,759.522c-.054-.466-.1-.933-.128-1.4-.251-4,.494-8.244-2.99-11.231-2.424-2.077-5.928-2.2-9.115-2.009-3.485.2-7.084.686-10.044,2.535-5.558,3.471-5.532,12.239-3.876,17.875a44.5,44.5,0,0,1,1.489,6.947c-.041,3.611-2.128,5.442-6.244,6.135a9.147,9.147,0,0,0-6.948,5.411,12.8,12.8,0,0,0-1.08,4.624c-.242,4.973-.717,6.354-6.5,8.12a12.932,12.932,0,0,0-8.091,7.232c-4.061,8.879.121,21.712,9.343,28.663s19.988,5.388,24.05-3.492a20,20,0,0,0,.982-12.59c-1.617-7.324-.916-8.544,2.323-11.222a.292.292,0,0,0,.027-.025,9.6,9.6,0,0,0,2.621-3.462,14.772,14.772,0,0,0,.3-10.422c-1.539-4.955-1.31-8.188,1.127-9.992a23.409,23.409,0,0,1,5.448-1.719,9.959,9.959,0,0,0,7.336-5.85C1919.831,768.916,1918.2,764.3,1917.636,759.522Z" transform="translate(-1847.749 -703.67)"/><path class="u" d="M1873.809,955.385a6.252,6.252,0,0,1,2.828-4.9c1.563-.9,2.828-.171,2.83,1.633a6.25,6.25,0,0,1-2.83,4.9C1875.076,957.92,1873.809,957.189,1873.809,955.385Z" transform="translate(-1850.352 -751.175)"/><path class="u" d="M1873.809,955.385a6.252,6.252,0,0,1,2.828-4.9c1.563-.9,2.828-.171,2.83,1.633a6.25,6.25,0,0,1-2.83,4.9C1875.076,957.92,1873.809,957.189,1873.809,955.385Z" transform="translate(-1850.352 -751.175)"/><path class="u" d="M1878.914,950.414l2.438,1.27-3.826,6.974-2.854-1.485.724-3.928Z" transform="translate(-1850.552 -751.248)"/><path class="a" d="M1876.937,957.007a6.251,6.251,0,0,1,2.828-4.9c1.562-.9,2.828-.171,2.828,1.633a6.253,6.253,0,0,1-2.828,4.9C1878.2,959.542,1876.937,958.812,1876.937,957.007Z" transform="translate(-1851.076 -751.55)"/><path class="m" d="M1876.937,957.007a6.251,6.251,0,0,1,2.828-4.9c1.562-.9,2.828-.171,2.828,1.633a6.253,6.253,0,0,1-2.828,4.9C1878.2,959.542,1876.937,958.812,1876.937,957.007Z" transform="translate(-1851.076 -751.55)"/><path class="u" d="M1918.062,930.651a6.255,6.255,0,0,1,2.828-4.9c1.562-.9,2.829-.171,2.829,1.633a6.25,6.25,0,0,1-2.829,4.9C1919.329,933.186,1918.062,932.455,1918.062,930.651Z" transform="translate(-1860.593 -745.451)"/><path class="u" d="M1918.062,930.651a6.255,6.255,0,0,1,2.828-4.9c1.562-.9,2.829-.171,2.829,1.633a6.25,6.25,0,0,1-2.829,4.9C1919.329,933.186,1918.062,932.455,1918.062,930.651Z" transform="translate(-1860.593 -745.451)"/><path class="u" d="M1923.167,925.68l2.438,1.27-3.827,6.974-2.854-1.485.724-3.928Z" transform="translate(-1860.792 -745.524)"/><path class="a" d="M1921.19,932.273a6.25,6.25,0,0,1,2.828-4.9c1.562-.9,2.829-.171,2.829,1.633a6.254,6.254,0,0,1-2.829,4.9C1922.456,934.808,1921.19,934.077,1921.19,932.273Z" transform="translate(-1861.317 -745.827)"/><path class="m" d="M1921.19,932.273a6.25,6.25,0,0,1,2.828-4.9c1.562-.9,2.829-.171,2.829,1.633a6.254,6.254,0,0,1-2.829,4.9C1922.456,934.808,1921.19,934.077,1921.19,932.273Z" transform="translate(-1861.317 -745.827)"/><path class="u" d="M1915.986,956.477a6.249,6.249,0,0,1,2.828-4.9c1.562-.9,2.828-.171,2.828,1.632a6.252,6.252,0,0,1-2.828,4.9C1917.252,959.012,1915.986,958.28,1915.986,956.477Z" transform="translate(-1860.112 -751.428)"/><path class="u" d="M1915.986,956.477a6.249,6.249,0,0,1,2.828-4.9c1.562-.9,2.828-.171,2.828,1.632a6.252,6.252,0,0,1-2.828,4.9C1917.252,959.012,1915.986,958.28,1915.986,956.477Z" transform="translate(-1860.112 -751.428)"/><path class="u" d="M1921.09,951.506l2.437,1.27-3.826,6.974-2.854-1.485.724-3.928Z" transform="translate(-1860.312 -751.5)"/><path class="a" d="M1919.113,958.1a6.252,6.252,0,0,1,2.829-4.9c1.562-.9,2.828-.171,2.828,1.633a6.251,6.251,0,0,1-2.828,4.9C1920.38,960.635,1919.113,959.9,1919.113,958.1Z" transform="translate(-1860.836 -751.803)"/><path class="m" d="M1919.113,958.1a6.252,6.252,0,0,1,2.829-4.9c1.562-.9,2.828-.171,2.828,1.633a6.251,6.251,0,0,1-2.828,4.9C1920.38,960.635,1919.113,959.9,1919.113,958.1Z" transform="translate(-1860.836 -751.803)"/><path class="u" d="M1873.025,931.569a6.254,6.254,0,0,1,2.828-4.9c1.562-.9,2.829-.171,2.829,1.633a6.25,6.25,0,0,1-2.829,4.9C1874.292,934.1,1873.025,933.373,1873.025,931.569Z" transform="translate(-1850.17 -745.664)"/><path class="u" d="M1873.025,931.569a6.254,6.254,0,0,1,2.828-4.9c1.562-.9,2.829-.171,2.829,1.633a6.25,6.25,0,0,1-2.829,4.9C1874.292,934.1,1873.025,933.373,1873.025,931.569Z" transform="translate(-1850.17 -745.664)"/><path class="u" d="M1878.129,926.6l2.438,1.27-3.827,6.974-2.854-1.485.723-3.928Z" transform="translate(-1850.37 -745.736)"/><path class="a" d="M1876.153,933.192a6.25,6.25,0,0,1,2.828-4.9c1.562-.9,2.828-.171,2.828,1.633a6.252,6.252,0,0,1-2.828,4.9C1877.419,935.727,1876.153,935,1876.153,933.192Z" transform="translate(-1850.894 -746.039)"/><path class="m" d="M1876.153,933.192a6.25,6.25,0,0,1,2.828-4.9c1.562-.9,2.828-.171,2.828,1.633a6.252,6.252,0,0,1-2.828,4.9C1877.419,935.727,1876.153,935,1876.153,933.192Z" transform="translate(-1850.894 -746.039)"/><path class="k" d="M1913.7,941.974l-12.516-7.226,12.516-7.226c2.054-1.186,2.054-3.127,0-4.313h0a8.289,8.289,0,0,0-7.471,0l-12.516,7.226-12.516-7.226a8.288,8.288,0,0,0-7.471,0c-2.054,1.187-2.054,3.127,0,4.313l12.516,7.226-12.516,7.226c-2.054,1.186-2.054,3.128,0,4.314h0a8.289,8.289,0,0,0,7.471,0l12.516-7.226,12.516,7.226a8.289,8.289,0,0,0,7.471,0C1915.756,945.1,1915.756,943.16,1913.7,941.974Z" transform="translate(-1849.977 -744.746)"/><path class="k" d="M1913.7,941.974l-12.516-7.226,12.516-7.226c2.054-1.186,2.054-3.127,0-4.313h0a8.289,8.289,0,0,0-7.471,0l-12.516,7.226-12.516-7.226a8.288,8.288,0,0,0-7.471,0c-2.054,1.187-2.054,3.127,0,4.313l12.516,7.226-12.516,7.226c-2.054,1.186-2.054,3.128,0,4.314h0a8.289,8.289,0,0,0,7.471,0l12.516-7.226,12.516,7.226a8.289,8.289,0,0,0,7.471,0C1915.756,945.1,1915.756,943.16,1913.7,941.974Z" transform="translate(-1849.977 -744.746)"/><path class="a" d="M1892,936.342c0,2.338,2.821,4.233,6.3,4.233s6.3-1.9,6.3-4.233-2.823-6.213-6.3-6.213S1892,934,1892,936.342Z" transform="translate(-1854.561 -746.553)"/><path class="k" d="M1894.18,933.235c0,1.716,2.07,3.107,4.625,3.107s4.624-1.391,4.624-3.107-2.07-3.106-4.624-3.106S1894.18,931.52,1894.18,933.235Z" transform="translate(-1855.066 -746.553)"/><path class="a" d="M1899.346,890.8a2.848,2.848,0,0,0-2.829,2.868v27.6a2.829,2.829,0,1,0,5.657,0v-27.6A2.848,2.848,0,0,0,1899.346,890.8Z" transform="translate(-1855.607 -737.452)"/><path class="v" d="M1944.507,874.5c0,.154,0,.318-.016.481a14.069,14.069,0,0,1-7.257,11.269l-30.855,16.919a8.175,8.175,0,0,1-1.459.628,8.424,8.424,0,0,1-6.891-.75l-35.341-20.826a19.289,19.289,0,0,1-9.411-14.825l-3.7-39.613-.384-4.118a4.4,4.4,0,0,1,6.328-4.354l38.252,18.926A4.4,4.4,0,0,1,1896,840.8l12.232,37.118a5.107,5.107,0,0,0,7.38,2.838l19.961-11.416A5.973,5.973,0,0,1,1944.507,874.5Z" transform="translate(-1844.651 -720.802)"/><path class="u" d="M1903.987,903.9a2.452,2.452,0,0,1-2.646,3.293,8.412,8.412,0,0,1-3.106-1.084l-35.341-20.826a19.286,19.286,0,0,1-9.41-14.825l-3.408-36.472a1.761,1.761,0,0,1,2.534-1.742l30.866,15.261a4.418,4.418,0,0,1,2.226,2.569l12.223,37.118C1898.347,888.48,1900.931,895.878,1903.987,903.9Z" transform="translate(-1844.859 -723.858)"/><g transform="translate(20.643 -178.731)"><path class="w" d="M2325.625,372.073,2116.092,250.319c-3.859-2.466-7.188-.784-7.435,3.755l-1.032,18.991-7.837,144.276a15.624,15.624,0,0,0,6.542,12.685L2315.862,551.78c3.86,2.466,7.188.785,7.435-3.754l7.838-144.276,1.031-18.992A15.626,15.626,0,0,0,2325.625,372.073Z" transform="translate(-2090.942 -249.183)"/><path class="q" d="M2318.765,418.237l-7.842,144.273c-.246,4.544-3.576,6.22-7.435,3.759l-118.5-68.86-91.028-52.9a15.613,15.613,0,0,1-6.543-12.679l7.835-144.28,98.277,57.458Z" transform="translate(-2087.402 -260.165)"/><path class="t" d="M2322.942,389.67l-1.022,18.891-.008.1-125.235-73.228L2098.4,277.975l.092-1.676.938-17.315c.246-4.536,3.576-6.22,7.435-3.752L2316.4,376.984A15.625,15.625,0,0,1,2322.942,389.67Z" transform="translate(-2090.549 -250.589)"/><path class="x" d="M2392.843,440.9a6.831,6.831,0,0,0,2.973,5.488c1.71,1.044,3.15.279,3.217-1.708a6.832,6.832,0,0,0-2.974-5.487C2394.35,438.15,2392.909,438.915,2392.843,440.9Z" transform="translate(-2174.826 -303.435)"/><path class="y" d="M2377.11,431.3a6.831,6.831,0,0,0,2.974,5.487c1.71,1.044,3.15.279,3.216-1.708a6.828,6.828,0,0,0-2.973-5.487C2378.617,428.547,2377.176,429.312,2377.11,431.3Z" transform="translate(-2170.322 -300.686)"/><g transform="translate(16.824 59.747)"><g transform="translate(0 0)"><path class="z" d="M0,4.563l4.936,2.85V2.85L0,0Z" transform="matrix(1, -0.017, 0.017, 1, 109.615, 98.315)"/><path class="z" d="M0,4.563l4.936,2.85V2.85L0,0Z" transform="matrix(1, -0.017, 0.017, 1, 109.788, 109.426)"/><path class="z" d="M0,4.563l4.936,2.85V2.85L0,0Z" transform="matrix(1, -0.017, 0.017, 1, 109.962, 120.537)"/><path class="z" d="M0,4.563l4.936,2.85V2.85L0,0Z" transform="matrix(1, -0.017, 0.017, 1, 110.135, 131.649)"/><path class="z" d="M0,4.563l4.936,2.85V2.85L0,0Z" transform="matrix(1, -0.017, 0.017, 1, 110.309, 144.643)"/><path class="z" d="M0,4.563l4.936,2.85V2.85L0,0Z" transform="matrix(1, -0.017, 0.017, 1, 110.482, 154.58)"/><path class="z" d="M.166.517,105.844,68.925c.091.06.165,0,.165-.14a.464.464,0,0,0-.165-.355L.166.023C.074-.037,0,.025,0,.162A.46.46,0,0,0,.166.517Z" transform="matrix(1, -0.017, 0.017, 1, 0.961, 22.451)"/><path class="z" d="M.166.518,105.844,68.925c.091.06.165,0,.165-.14a.464.464,0,0,0-.165-.355L.166.023C.074-.037,0,.025,0,.162A.462.462,0,0,0,.166.518Z" transform="matrix(1, -0.017, 0.017, 1, 1.047, 32.829)"/><path class="z" d="M.166.517,105.844,68.925c.091.06.165,0,.165-.141a.461.461,0,0,0-.165-.354L.166.022C.074-.037,0,.026,0,.163A.459.459,0,0,0,.166.517Z" transform="matrix(1, -0.017, 0.017, 1, 1.134, 38.848)"/><path class="z" d="M.166.517,105.844,68.925c.091.06.165,0,.165-.141a.462.462,0,0,0-.165-.354L.166.022C.074-.037,0,.026,0,.163A.459.459,0,0,0,.166.517Z" transform="matrix(1, -0.017, 0.017, 1, 1.221, 44.868)"/><path class="z" d="M.166.517,105.844,68.926c.091.06.165,0,.165-.141a.462.462,0,0,0-.165-.354L.166.022C.074-.037,0,.026,0,.163A.459.459,0,0,0,.166.517Z" transform="matrix(1, -0.017, 0.017, 1, 1.308, 50.887)"/><path class="z" d="M.166.517,105.844,68.926c.091.06.165,0,.165-.141a.46.46,0,0,0-.165-.354L.166.022C.074-.037,0,.026,0,.163A.458.458,0,0,0,.166.517Z" transform="matrix(1, -0.017, 0.017, 1, 1.394, 56.906)"/><path class="z" d="M.166.517,105.844,68.926c.091.059.165,0,.165-.141a.46.46,0,0,0-.165-.354L.166.022C.074-.037,0,.026,0,.163A.46.46,0,0,0,.166.517Z" transform="matrix(1, -0.017, 0.017, 1, 1.481, 62.925)"/><path class="z" d="M.166.517,105.844,68.926c.091.059.165,0,.165-.141a.46.46,0,0,0-.165-.354L.166.023C.074-.037,0,.025,0,.163A.46.46,0,0,0,.166.517Z" transform="matrix(1, -0.017, 0.017, 1, 1.568, 68.944)"/><path class="z" d="M.166.517,105.844,68.925c.091.06.165,0,.165-.14a.464.464,0,0,0-.165-.355L.166.023C.074-.037,0,.025,0,.162A.46.46,0,0,0,.166.517Z" transform="matrix(1, -0.017, 0.017, 1, 1.654, 79.168)"/><path class="z" d="M.166.517,105.844,68.925c.091.06.165,0,.165-.14a.462.462,0,0,0-.165-.355L.166.022C.074-.037,0,.026,0,.162A.462.462,0,0,0,.166.517Z" transform="matrix(1, -0.017, 0.017, 1, 1.741, 84.136)"/><path class="z" d="M.166.517,105.844,68.925c.091.06.165,0,.165-.14a.462.462,0,0,0-.165-.355L.166.022C.074-.037,0,.026,0,.163A.458.458,0,0,0,.166.517Z" transform="matrix(1, -0.017, 0.017, 1, 1.828, 89.104)"/><path class="z" d="M.166.517,105.844,68.925c.091.06.165,0,.165-.141a.462.462,0,0,0-.165-.354L.166.022C.074-.037,0,.026,0,.163A.459.459,0,0,0,.166.517Z" transform="matrix(1, -0.017, 0.017, 1, 1.915, 94.072)"/><path class="z" d="M.166.517,105.844,68.925c.091.06.165,0,.165-.14a.462.462,0,0,0-.165-.355L.166.022C.074-.037,0,.026,0,.163A.459.459,0,0,0,.166.517Z" transform="matrix(1, -0.017, 0.017, 1, 2.001, 99.041)"/><path class="z" d="M98.133,114l.306.021L89.346,72.555l-7.937.232-10.4-22.179L66.056,57.37l-5.741-8.306-7.823,9.288L44.328,33.828l-7.094.193L25.248,10.886l-8.053.123L12.189,2.28,7.592,13.1.2,0,0,.27,7.71,13.928,12.309,3.1l4.846,8.451,8.037-.124L37.179,34.565l7.026-.191,8.256,24.8,7.94-9.426,5.752,8.322,4.9-6.684,10.291,21.95,7.825-.229Z" transform="matrix(1, -0.017, 0.017, 1, 4.218, 48.9)"/><path class="z" d="M0,.867A2.37,2.37,0,0,0,.99,2.758c.546.316.99-.019.99-.748A2.372,2.372,0,0,0,.99.119C.443-.2,0,.138,0,.867Z" transform="matrix(1, -0.017, 0.017, 1, 95.123, 113.666)"/><path class="z" d="M0,.868A2.372,2.372,0,0,0,.99,2.759c.548.316.99-.019.99-.749A2.367,2.367,0,0,0,.99.119C.444-.2,0,.139,0,.868Z" transform="matrix(1, -0.017, 0.017, 1, 87.045, 113.814)"/><path class="z" d="M0,.867A2.371,2.371,0,0,0,.99,2.759c.547.315.99-.02.99-.749A2.37,2.37,0,0,0,.99.119C.442-.2,0,.138,0,.867Z" transform="matrix(1, -0.017, 0.017, 1, 76.222, 89.717)"/><path class="z" d="M0,.867A2.372,2.372,0,0,0,.99,2.758c.547.316.99-.02.99-.748A2.371,2.371,0,0,0,.99.119C.444-.2,0,.138,0,.867Z" transform="matrix(1, -0.017, 0.017, 1, 71.325, 97.306)"/><path class="z" d="M0,.867A2.37,2.37,0,0,0,.991,2.759c.547.315.99-.019.99-.749A2.368,2.368,0,0,0,.991.119C.444-.2,0,.139,0,.867Z" transform="matrix(1, -0.017, 0.017, 1, 65.178, 87.603)"/><path class="z" d="M0,.867A2.372,2.372,0,0,0,.99,2.759c.547.315.99-.019.99-.749A2.373,2.373,0,0,0,.99.119C.443-.2,0,.138,0,.867Z" transform="matrix(1, -0.017, 0.017, 1, 57.382, 98.677)"/><path class="z" d="M0,.867A2.368,2.368,0,0,0,.99,2.758c.548.316.991-.019.991-.748A2.369,2.369,0,0,0,.99.119C.443-.2,0,.138,0,.867Z" transform="matrix(1, -0.017, 0.017, 1, 48.704, 71.21)"/><path class="z" d="M0,.867A2.37,2.37,0,0,0,.99,2.758c.547.316.99-.019.991-.748A2.37,2.37,0,0,0,.99.119C.443-.2,0,.138,0,.867Z" transform="matrix(1, -0.017, 0.017, 1, 41.404, 71.259)"/><path class="z" d="M0,.867A2.373,2.373,0,0,0,.99,2.759c.546.315.989-.019.989-.749A2.373,2.373,0,0,0,.99.119C.444-.2,0,.138,0,.867Z" transform="matrix(1, -0.017, 0.017, 1, 28.807, 46.165)"/><path class="z" d="M0,.867A2.371,2.371,0,0,0,.99,2.759c.547.315.99-.019.99-.749A2.371,2.371,0,0,0,.99.119C.443-.2,0,.138,0,.867Z" transform="matrix(1, -0.017, 0.017, 1, 22.7, 46.422)"/><path class="z" d="M0,.867A2.373,2.373,0,0,0,.99,2.759c.547.315.99-.02.99-.749A2.372,2.372,0,0,0,.99.119C.443-.2,0,.138,0,.867Z" transform="matrix(1, -0.017, 0.017, 1, 17.066, 36.711)"/><path class="z" d="M0,.867A2.371,2.371,0,0,0,.99,2.758c.548.316.991-.02.991-.748A2.367,2.367,0,0,0,.99.119C.443-.2,0,.138,0,.867Z" transform="matrix(1, -0.017, 0.017, 1, 11.936, 48.932)"/><path class="z" d="M99.6,97.005,89.973,81.3l-7.7.083L74.368,57.362l-6.762,5.024-4.473-7.14L54.29,58.037l-2.7-4.993-8.426,2.181L34.487,31.366l-4.228,1.575L22.978,9.331l-10.3-1.612L7.685,13.9,0,0V41.186l99.6,64.925Z" transform="matrix(1, -0.017, 0.017, 1, 4.52, 59.816)"/><path class="aa" d="M0,9.248,38.405,32.032V22.784L0,0Z" transform="matrix(1, -0.017, 0.017, 1, 82.11, 54.625)"/><path class="aa" d="M0,9.248,38.406,32.032V22.784L0,0Z" transform="matrix(1, -0.017, 0.017, 1, 41.741, 28.023)"/><path class="aa" d="M0,9.248,38.406,32.032V22.784L0,0Z" transform="matrix(1, -0.017, 0.017, 1, 0, 0.67)"/></g><g transform="translate(132.551 75.82)"><path class="a" d="M2054.553,726.411l-63.507-36.664v45.244l63.506,36.664Z" transform="translate(-1991.046 -689.747)"/><g class="ab" transform="translate(0 0)"><g transform="translate(28.249 23.419)"><path class="ac" d="M1763.968,401.361l.017-5.965a9.942,9.942,0,0,0-4.507-7.808l-16.025-9.249a3.183,3.183,0,0,0-3.216-.316l2.495-1.451a3.2,3.2,0,0,1,3.219.316l16.021,9.251a9.935,9.935,0,0,1,4.507,7.806l-.017,5.965a3.171,3.171,0,0,1-1.318,2.9l-2.5,1.451A3.168,3.168,0,0,0,1763.968,401.361Z" transform="translate(-1739.285 -376.268)"/><path class="m" d="M1750.18,379.609c-2.5-1.443-4.528-.285-4.536,2.585l-.017,5.964a9.93,9.93,0,0,0,4.509,7.807,7.146,7.146,0,0,1-1.63,2.841,5.569,5.569,0,0,0,5.878-.387l11.774,6.8c2.495,1.442,4.527.285,4.536-2.584l.017-5.965a9.945,9.945,0,0,0-4.507-7.808Z" transform="translate(-1745.628 -377.923)"/></g><g transform="translate(9.072 25.683)"><path class="p" d="M1438.208,1492.084,1436,1504.007a4.762,4.762,0,0,1-1.938,3.83c-6.956,6.032-2.241-3.649-2.241-3.83l2.206-11.922a2.09,2.09,0,0,1,4.181,0Z" transform="translate(-1430.26 -1477.612)"/><path class="ac" d="M1452.733,1499.8a1.72,1.72,0,0,0,.809-.522,1.259,1.259,0,0,0,.316-.845l1.931-8.12a2.393,2.393,0,1,0-4.67,0l-1.62,6.809a1.138,1.138,0,0,0,.568,1.2Z" transform="translate(-1447.648 -1475.76)"/><path class="ac" d="M1471.155,1497.9c-.014,3.591-.422,7.653-1.536,8.677-.86.791-2.433.852-4.1.557-.1-.017-.209-.036-.314-.058a16.928,16.928,0,0,1-5.045-1.9c-.262-.157-3.282-1.547-4.559-2.319a.165.165,0,0,0-.166-.016,14.709,14.709,0,0,0,1.473-5.779c-.078-1.578-.908-3.207-1.134-4.8-.41-2.907-.432-7.086,2.485-8.78a3.557,3.557,0,0,1,1.754-.373,5.433,5.433,0,0,1,.974.066c4.5.819,6.876,2.268,8.23,4.49a14.448,14.448,0,0,1,1.682,5.55c.02.135.039.284.055.441.011.08.019.16.028.243A39.052,39.052,0,0,1,1471.155,1497.9Z" transform="translate(-1451.898 -1472.698)"/><path class="ac" d="M1471.16,1486.577l-2.432,2.727a.654.654,0,0,1-1.019-.055l-1.413-1.964-2.033.362a.405.405,0,0,1-.476-.4v-.63a2.957,2.957,0,0,1,2.337-2.892,6.776,6.776,0,0,1,1.419-.148,5.945,5.945,0,0,1,3.408.988A1.36,1.36,0,0,1,1471.16,1486.577Z" transform="translate(-1457.856 -1473.034)"/><path class="ac" d="M1496.275,1509.254c-.013,3.59-.422,7.653-1.536,8.677-.86.792-2.432.852-4.1.557a4.655,4.655,0,0,1,.218-.494c1.492-2.422,1.685-3.117,1.384-5.988a9.282,9.282,0,0,1,.067-3.4c.289-1.046.952-2.058.75-3.122a6.366,6.366,0,0,0-.546-1.36,5.208,5.208,0,0,1-.337-3.028,2.821,2.821,0,0,1,.72-1.517,2.048,2.048,0,0,1,1.442-.56,14.46,14.46,0,0,1,1.682,5.549c.019.135.039.284.055.441.011.077.02.16.028.243C1496.206,1506.294,1496.269,1507.714,1496.275,1509.254Z" transform="translate(-1477.018 -1484.048)"/><path class="h" d="M1473.269,1485.191a1.208,1.208,0,0,1-.386.857,2.683,2.683,0,0,1-3.423.031,1.155,1.155,0,0,1,0-1.776c.025-.022.052-.047.08-.069,0,0,.005-.006.008-.006a2.387,2.387,0,0,1,1.17-.491c.071-.011.143-.019.218-.025s.146-.008.221-.008a2.453,2.453,0,0,1,1.727.631A1.2,1.2,0,0,1,1473.269,1485.191Z" transform="translate(-1461.607 -1473.123)"/><path class="p" d="M1473.916,1473.15v5.367a2.454,2.454,0,0,1-1.727.631,2.5,2.5,0,0,1-1.657-.568.322.322,0,0,1-.038-.034v-5.4Z" transform="translate(-1462.642 -1465.592)"/><path class="ad" d="M1471.846,1478.943a2.642,2.642,0,0,1-1.75-.6s-.016-.013-.027-.023l-.042-.041-.015-.073v-5.536h3.7v5.563l-.04.04A2.612,2.612,0,0,1,1471.846,1478.943Zm-1.558-.8a2.4,2.4,0,0,0,1.558.526,2.368,2.368,0,0,0,1.589-.552v-5.171h-3.147Z" transform="translate(-1462.299 -1465.248)"/><path class="p" d="M1473.739,1475.75l-.3.439-1.492,2.137-.209.3-1.211,1.812a.433.433,0,0,1-.038-.033v-2.8l0-.013a20.175,20.175,0,0,1,1.65-1.751l1.335-.074Z" transform="translate(-1462.642 -1467.448)"/><path class="p" d="M1465.785,1459.648c-.014.2-.247.363-.494.521-.083.055-.165.11-.241.171-.006,0-.013,0-.02.013a.8.8,0,0,0-.158.137.4.4,0,0,0-.117.2,4.084,4.084,0,0,1-1.79,2.572,4.072,4.072,0,0,1-.46.24,3.155,3.155,0,0,1-.995.274,2.54,2.54,0,0,1-.4.013,3.324,3.324,0,0,1-3.093-2.743,6.349,6.349,0,0,1-.117-1.022c-.006-.4,0-.789.014-1.173.027-.611.048-1.221.069-1.824.006-.247.02-.487.027-.734a.787.787,0,0,1,.007-.336,1.122,1.122,0,0,1,.583-.734,2.5,2.5,0,0,1,1.44-.165,7.419,7.419,0,0,1,2.861.83,4,4,0,0,1,1.879,2.236C1464.921,1458.565,1465.807,1459.188,1465.785,1459.648Z" transform="translate(-1453.657 -1452.66)"/><path class="ae" d="M1464.061,1450.458a3.821,3.821,0,0,0-.9-2.279,4.02,4.02,0,0,0-1.9-1.179,4.216,4.216,0,0,0-1.5-.23,10.66,10.66,0,0,0-2.071.588c-.712.2-1.467.241-2.161.495a2.034,2.034,0,0,0-1.434,1.54,1.859,1.859,0,0,0,1.211,1.76,5.438,5.438,0,0,0,2.251.285,5.745,5.745,0,0,1,2.066.016c.713.37.448,1.448.787,2.023a.552.552,0,0,0,.495.281c.467-.032.634-.691,1.074-.851a.673.673,0,0,1,.8.383.941.941,0,0,1-.148.922c-.21.275-.622.305-.81.524-.156.182-.1.494-.035.785a.778.778,0,0,0,.465.589C1464.1,1456.745,1464.126,1451.329,1464.061,1450.458Z" transform="translate(-1450.937 -1446.765)"/><path class="p" d="M1476.016,1503.058v12.473a4.764,4.764,0,0,1-1.939,3.83c-8.436,5.078-11.467,2.115-2.471-3.373a.572.572,0,0,0,.229-.458v-12.473a2.09,2.09,0,0,1,4.181,0Z" transform="translate(-1457.494 -1485.442)"/><path class="ac" d="M1495.085,1513.77a2.412,2.412,0,0,0,2.225-.829,1.263,1.263,0,0,0,.316-.845v-10.051a2.393,2.393,0,1,0-4.67,0v10.415a.736.736,0,0,0,.449.678A7.511,7.511,0,0,0,1495.085,1513.77Z" transform="translate(-1478.671 -1484.13)"/></g></g><path class="a" d="M2054.553,726.411l-63.507-36.664v45.244l63.506,36.664Z" transform="translate(-1991.046 -631.617)"/><g class="ab" transform="translate(0 58.13)"><g transform="translate(0.498 14.444)"><path class="m" d="M777.272,1011.225c-1.558.654-2.487,0-3.087-1.518-.626-1.588-.591-3.523,1.02-4.323a10.242,10.242,0,0,0,3.125-3.163,7.449,7.449,0,0,0,1.09-2.582c.008-.036.016-.072.025-.107l2.07-8.241a3.484,3.484,0,0,1,3.825-2.658,2.9,2.9,0,0,1,2.229,3.7l-2.057,8.192a14.637,14.637,0,0,1-2.136,5,16.88,16.88,0,0,1-5.9,5.613C777.407,1011.166,777.339,1011.2,777.272,1011.225Z" transform="translate(-773.808 -972.269)"/><path class="s" d="M796.639,1035.182l-1.2,1.834a8.6,8.6,0,0,0-1.418,4.83l.323,24.945s11.462,5.578,17.395-.75l.257-17.853s1.411-10.059-2.841-12.4Z" transform="translate(-786.652 -1001.883)"/><path class="s" d="M814.5,975.286c.008,0,.015.009.023.016a.507.507,0,0,0,.008-.108A.131.131,0,0,1,814.5,975.286Z" transform="translate(-799.674 -963.754)"/><path class="ac" d="M811.718,991.69l-.874,3.28-1.722,9.962c-.18.675-1.358,1.23-1.946,1.522-1.583.784-4.668,1.174-9.219-.755a2.383,2.383,0,0,1-1.383-1.76l-1.793-7.382-.029-.148a5.2,5.2,0,0,1,.48-3.356l1.662-3.19v-1.705a2.85,2.85,0,0,1,3.582-2.914l1.611.559,4.37,1.523,3.763,1.308A2.527,2.527,0,0,1,811.718,991.69Z" transform="translate(-787.061 -970.063)"/><path class="m" d="M811.718,991.69l-.874,3.28c-.439.542-.877,1.087-1.319,1.63a9.747,9.747,0,0,1-3.182,2.927c-2.142,1-4.6.183-6.776-.738q-2.017-.85-3.989-1.813c-.267-.127-.54-.262-.8-.418l-.029-.148a5.2,5.2,0,0,1,.48-3.356l1.662-3.19v-1.705a2.85,2.85,0,0,1,3.582-2.914l1.611.559,4.37,1.523,3.763,1.308A2.527,2.527,0,0,1,811.718,991.69Z" transform="translate(-787.061 -970.063)"/><path class="p" d="M817.009,988.517a33.939,33.939,0,0,1-3.827,2.827,2.258,2.258,0,0,1-1.488.494.539.539,0,0,1-.314-.145.828.828,0,0,1-.083-.711,16.676,16.676,0,0,1,1.341-3.987Z" transform="translate(-797.612 -971.254)"/><path class="p" d="M819.126,975.366v5.75l-4.544.389v-6.139Z" transform="translate(-799.724 -963.863)"/><path class="p" d="M819.126,980.441l-4.522,3.428-.022.328v-4.079Z" transform="translate(-799.724 -966.883)"/><path d="M811.48,948.88c-2.418-.778-1.286-2.58-2.7-4.116-1.639-1.783-4.518-.808-6.022.582a1.361,1.361,0,0,1-.571.383c-1.513.355-2.226-.834-3.578.685-.9,1.014-1.561,2.685-2.494,3.825-.538.657-1.091,1.6-.581,2.28.37.493,1.18.6,1.385,1.177a2.027,2.027,0,0,1-.187,1.2,2.756,2.756,0,0,0,1.063,2.963c2.365,1.614,3.375-.9,5.081-1.755,2.567-1.285,3.055,2.645,4.848,3.542a2.318,2.318,0,0,0,3.094-1.264,8.773,8.773,0,0,0,.077-2.643c.053-2.087,2.142-1.575,2.609-3.349A3.217,3.217,0,0,0,811.48,948.88Z" transform="translate(-787.49 -943.798)"/><path d="M819.68,949.071a2.778,2.778,0,0,0,.012-2.241,1.605,1.605,0,0,1,.669-.207,2.647,2.647,0,0,1,.193-.358.846.846,0,0,0-1.272.012,3.458,3.458,0,0,0-1.32,2.833,2.142,2.142,0,0,0,.357.966A3.756,3.756,0,0,0,819.68,949.071Z" transform="translate(-801.864 -945.187)"/><path d="M814.737,952.017a9.833,9.833,0,0,0-1.955-1.609,5.012,5.012,0,0,0-1.231-.632,8.407,8.407,0,0,0-5.482,1.108c-2.121,1.6-3.577,4.029-3.29,6.478.8,6.836,10.194,5.221,12.658.49a5.21,5.21,0,0,0,.139-4.607A5.335,5.335,0,0,0,814.737,952.017Z" transform="translate(-792.199 -947.518)"/><path class="p" d="M802.464,962.472a6.1,6.1,0,0,0,1.063,3.648,4.628,4.628,0,0,0,3.587,1.567,3.976,3.976,0,0,0,2.135-.47c1.222-.731,1.793-2.307,2.1-3.8a12.557,12.557,0,0,0,.23-1.715,6.377,6.377,0,0,0-.19-1.942,5.587,5.587,0,0,0-2.444-3.187,8.8,8.8,0,0,0-3.714-1.175,2.978,2.978,0,0,0-1.865.226,1.587,1.587,0,0,0-.754,1.045,1.218,1.218,0,0,0-.016.479c-.04,1.219-.079,2.429-.119,3.648C802.464,961.349,802.448,961.906,802.464,962.472Z" transform="translate(-792.018 -951.143)"/><path d="M809.8,958.445a8.26,8.26,0,0,0,1.915,2.937,4.821,4.821,0,0,0,3.17,1.37,1.9,1.9,0,0,0,1.5-.555,2.057,2.057,0,0,0,.366-.808,5.286,5.286,0,0,0-.217-3.457,4.012,4.012,0,0,0-2.556-2.263,4.512,4.512,0,0,0-3.532.695,2.184,2.184,0,0,0-1.212,2.143Z" transform="translate(-796.303 -951.268)"/><rect class="h" width="4.021" height="0.286" transform="translate(16.452 13.238) rotate(-30.272)"/><path class="p" d="M823.936,979.35a.294.294,0,0,0,.293.033.784.784,0,0,1,.019-.1Z" transform="translate(-805.67 -966.349)"/><path class="p" d="M826.435,973.737c-.459-.159-.913.353-1.112.936a5.109,5.109,0,0,1-.309.872.662.662,0,0,1-.332.3.989.989,0,0,0,.5,1.143,1.16,1.16,0,0,0,1.118-.45,2.457,2.457,0,0,0,.719-1.407C827.086,974.55,826.852,973.881,826.435,973.737Z" transform="translate(-806.122 -962.809)"/><g transform="translate(12.627 10.565)"><path class="af" d="M808.6,973.379c.085-.286.269-.388.482-.266a1.276,1.276,0,0,1,.482.822l.137-.023a1.637,1.637,0,0,0-.619-1.056c-.274-.158-.511-.027-.62.342Z" transform="translate(-808.461 -972.79)"/></g><g transform="translate(12.627 10.565)"><path class="h" d="M808.6,973.379c.085-.286.269-.388.482-.266a1.276,1.276,0,0,1,.482.822l.137-.023a1.637,1.637,0,0,0-.619-1.056c-.274-.158-.511-.027-.62.342Z" transform="translate(-808.461 -972.79)"/></g><g transform="translate(13.586 10.815)"><path class="h" d="M813.258,977.374a1.41,1.41,0,0,1-.7-.211,3.253,3.253,0,0,1-1.469-2.545.991.991,0,0,1,1.612-.931,3.251,3.251,0,0,1,1.469,2.545,1.117,1.117,0,0,1-.481,1.029A.858.858,0,0,1,813.258,977.374Zm-1.248-3.611a.577.577,0,0,0-.293.074.85.85,0,0,0-.338.781,2.936,2.936,0,0,0,1.326,2.3.714.714,0,0,0,1.183-.683,2.935,2.935,0,0,0-1.326-2.3A1.127,1.127,0,0,0,812.01,973.763Z" transform="translate(-811.093 -973.477)"/></g><g transform="translate(9.866 8.667)"><path class="h" d="M803.048,971.48a1.413,1.413,0,0,1-.7-.211,3.252,3.252,0,0,1-1.469-2.545.991.991,0,0,1,1.613-.931,3.253,3.253,0,0,1,1.469,2.545,1.117,1.117,0,0,1-.481,1.029A.86.86,0,0,1,803.048,971.48Zm-1.248-3.611a.579.579,0,0,0-.293.074.85.85,0,0,0-.338.781,2.936,2.936,0,0,0,1.326,2.3.713.713,0,0,0,1.183-.683,2.935,2.935,0,0,0-1.326-2.3A1.13,1.13,0,0,0,801.8,967.869Z" transform="translate(-800.883 -967.583)"/></g><path d="M805.855,954.584a19.989,19.989,0,0,1-4.2,1.926,3.279,3.279,0,0,1-.242-2.972,4.84,4.84,0,0,1,2.016-2.284c1.558-.957,3.794-1.105,5.072.2a1.462,1.462,0,0,1,.456.85c.068.729-.666,1.253-1.318,1.584a26.817,26.817,0,0,1-3.031,1.311Z" transform="translate(-791.198 -948.061)"/><path class="m" d="M837.379,1014.121a2.763,2.763,0,0,1-2.487-1.556l-5.768-11.863a2.764,2.764,0,1,1,4.971-2.417l5.768,11.863a2.764,2.764,0,0,1-2.483,3.973Z" transform="translate(-808.79 -977.442)"/><path class="p" d="M812.072,1040.673a2.369,2.369,0,1,1,0-4.738c9.451,0,10.795-3.546,10.8-3.581a2.369,2.369,0,0,1,4.676.768C827.421,1033.894,825.908,1040.673,812.072,1040.673Z" transform="translate(-796.623 -998.823)"/><path class="p" d="M815.912,1043.479h0a.972.972,0,0,1-1.325-.24l-1.328-1.818a.915.915,0,0,1,.2-1.3h0a.972.972,0,0,1,1.325.24l1.328,1.818A.916.916,0,0,1,815.912,1043.479Z" transform="translate(-798.767 -1004.919)"/></g><g transform="translate(31.708 24.963)"><path class="ac" d="M1763.968,401.361l.017-5.965a9.942,9.942,0,0,0-4.507-7.808l-16.025-9.249a3.183,3.183,0,0,0-3.216-.316l2.495-1.451a3.2,3.2,0,0,1,3.219.316l16.021,9.251a9.935,9.935,0,0,1,4.507,7.806l-.017,5.965a3.171,3.171,0,0,1-1.318,2.9l-2.5,1.451A3.168,3.168,0,0,0,1763.968,401.361Z" transform="translate(-1739.285 -376.268)"/><path class="m" d="M1750.18,379.609c-2.5-1.443-4.528-.285-4.536,2.585l-.017,5.964a9.93,9.93,0,0,0,4.509,7.807,7.146,7.146,0,0,1-1.63,2.841,5.569,5.569,0,0,0,5.878-.387l11.774,6.8c2.495,1.442,4.527.285,4.536-2.584l.017-5.965a9.945,9.945,0,0,0-4.507-7.808Z" transform="translate(-1745.628 -377.923)"/></g></g></g></g></g></g></g></svg>