<svg xmlns="http://www.w3.org/2000/svg" xmlns:xlink="http://www.w3.org/1999/xlink" width="527.75" height="361.732" viewBox="0 0 527.75 361.732"><defs><style>.a{fill:#8dc0ef;}.b{fill:rgba(15,0,0,0.1);}.c{fill:#c4e4f9;}.d{fill:#0f62fe;}.e,.f{fill:none;stroke:#fff;stroke-linejoin:round;}.e{stroke-width:2px;}.f{stroke-width:1.5px;}.g{fill:#fff;}.h{fill:#1f3598;}.ae,.i{fill:#647ddd;}.i{opacity:0.17;}.j{fill:#d5e8fa;}.k{fill:#eff6fc;}.l{fill:#bddcff;}.m{fill:#e2e8f2;}.n{fill:#f2f4f9;}.o{fill:#f2f4fa;}.p{fill:#3772ce;}.q{fill:#ff8358;}.r{fill:#cacaca;mix-blend-mode:multiply;isolation:isolate;}.s{fill:#e5e9f9;}.t{fill:#32b98e;}.u{fill:#f26c73;}.v{clip-path:url(#a);}.w{fill:#ced6e9;}.x{fill:#fbc1b1;}.y{fill:#520c0c;}.z{fill:#fab300;}.aa{clip-path:url(#c);}.ab{fill:#a0d2ff;}.ac{fill:#020309;}.ad{fill:#4568c7;}.ae{opacity:0.22;}.af{fill:#ffc7cb;}.ag{fill:#ee3f5c;}</style><clipPath id="a"><path class="a" d="M1991.046,727.3l65.048-37.553v46.342l-65.046,37.553Z" transform="translate(-1991.046 -689.747)"/></clipPath><clipPath id="c"><path class="a" d="M2017.905,742.808l65.049-37.555v46.342l-65.049,37.555Z" transform="translate(-2017.905 -705.253)"/></clipPath></defs><g transform="translate(-1197.221 -292.2)"><g transform="translate(1224.49 544.403)"><path class="b" d="M276,660H763.044s-10.207,18.957-33.539,16.04a135.411,135.411,0,0,1-18.957-1.458c-8.749-1.458-21.873,2.916-24.79,7.291,0,0-21.873,13.124-58.329,0,0,0-33.539-14.582-56.87-1.458,0,0-17.5,18.957-62.7-4.375,0,0-11.666-7.291-32.081,7.291,0,0-20.415,17.5-59.787-7.291,0,0-21.873-5.833-46.663,5.833C369.326,681.873,319.746,689.164,276,660Z" transform="translate(-276 -579.798)"/><path class="c" d="M582.35,634.075s24.644,13.611,13.76,33.064C596.109,667.139,578.478,663.5,582.35,634.075Z" transform="translate(-135.881 -591.677)"/><path class="d" d="M611.519,623s13.124,42.288-20.415,52.5C591.1,675.5,575.064,652.164,611.519,623Z" transform="translate(-133.225 -596.752)"/><path class="d" d="M331.726,621.92s-37.65,20.8-21.022,50.514C310.7,672.434,337.642,666.883,331.726,621.92Z" transform="translate(-262.041 -597.247)"/><path class="c" d="M291.659,605s-20.05,64.608,31.188,80.2C322.848,685.2,347.354,649.557,291.659,605Z" transform="translate(-270.596 -605)"/></g><g transform="translate(1254.868 374.839)"><g transform="translate(0 0)"><path class="d" d="M130,0A130,130,0,1,1,0,130,130,130,0,0,1,130,0Z" transform="translate(-57.647 -82.639)"/><g transform="translate(11.446)"><path class="e" d="M2410.229,415.033V347.978a6.417,6.417,0,0,1,6.4-6.431h100.494a6.415,6.415,0,0,1,6.4,6.431v22.363" transform="translate(-2410.229 -341.547)"/></g><g transform="translate(0 78.753)"><path class="e" d="M2473.938,534.191h-91.707v.029c0,7.224,7.348,13.079,16.415,13.079h81.708" transform="translate(-2382.231 -534.191)"/></g></g><g transform="translate(100.087 37.052)"><g transform="translate(0 0)"><g transform="translate(12.351)"><path class="f" d="M2017.83,1656.493s-5.167-14.3,9.082-14.309c0,0,4.745.1,5.958,1.979,4.062.961,5.824,4.307,2.951,12.349l0,0" transform="translate(-2016.917 -1642.184)"/></g><g transform="translate(22.207 25.909)"><path class="f" d="M2058.249,1738.376a7.851,7.851,0,0,1-4.74,2.1" transform="translate(-2053.509 -1738.376)"/></g><g transform="translate(12.492 9.104)"><path class="f" d="M2022.418,1692.789a10.95,10.95,0,0,1-2.227-2.531,5.156,5.156,0,0,1-.841-2.188l-.3-2.129a.651.651,0,0,0-.238-.428,3.778,3.778,0,0,1-1.359-3.174c.051-.714.366-1.042.761-1.15a1.493,1.493,0,0,1,.724,0,.158.158,0,0,0,.141-.038c.692-.611.727-1.354,1.01-2.9.2-1.117,4.5-2.695,7.771-.805a2.976,2.976,0,0,0,4.428-1.23.454.454,0,0,1,.336-.226.441.441,0,0,1,.379.121,6.191,6.191,0,0,1,2.067,4.972.173.173,0,0,0,.064.145.16.16,0,0,0,.155.024,1.355,1.355,0,0,1,.916-.045c.336.121.609.447.657,1.131a3.777,3.777,0,0,1-1.36,3.174.675.675,0,0,0-.238.428l-.3,2.129a5.116,5.116,0,0,1-.841,2.188,11.059,11.059,0,0,1-2.224,2.531" transform="translate(-2017.441 -1675.984)"/></g><g transform="translate(17.47 25.909)"><path class="f" d="M2040.659,1740.476a7.851,7.851,0,0,1-4.738-2.1" transform="translate(-2035.921 -1738.376)"/></g><g transform="translate(0 25.909)"><path class="f" d="M1998.009,1738.376a9.092,9.092,0,0,0,.646,3.214,4.047,4.047,0,0,0,1.592,1.452c.1.053.2.107.3.156l.208.091c.3.132.617.248.945.356l8.3,3.141a6.513,6.513,0,0,1,4.077,4.892l1.394,8.636h-44.414l1.4-8.636a6.51,6.51,0,0,1,4.075-4.892l8.3-3.141a9.994,9.994,0,0,0,.946-.356c.069-.03.136-.059.2-.091.1-.049.206-.1.3-.156a4.04,4.04,0,0,0,1.594-1.452,9.092,9.092,0,0,0,.646-3.214" transform="translate(-1971.061 -1738.376)"/></g><g transform="translate(15.23 30.575)"><path class="f" d="M2041.559,1755.7a6.356,6.356,0,0,1-2.259,2.259,9.11,9.11,0,0,1-4.719,1.26c-3.124,0-5.808-1.448-6.978-3.519" transform="translate(-2027.603 -1755.698)"/></g></g></g><g transform="translate(33.932 9.458)"><path class="g" d="M916.19,2377.912a.811.811,0,0,0-.678,1.475c2.678,1.231,4.153,2.668,4.153,4.047,0,1.717-2.363,3.551-6.322,4.9a58.919,58.919,0,0,1-32.649,0c-3.958-1.353-6.321-3.187-6.321-4.9,0-1.378,1.475-2.815,4.153-4.047a.811.811,0,0,0-.678-1.475c-3.336,1.534-5.1,3.442-5.1,5.521,0,2.517,2.635,4.8,7.419,6.44a60.528,60.528,0,0,0,33.7,0c4.784-1.636,7.419-3.924,7.419-6.44C921.288,2381.354,919.525,2379.446,916.19,2377.912Z" transform="translate(-872.75 -2339.11)"/><path class="g" d="M1389.487,2566.4a28.3,28.3,0,0,0,8.819-1.256c3.383-1.157,4.093-2.647,4.093-3.694a.811.811,0,0,0-1.623,0c0,1.357-4.4,3.327-11.29,3.327s-11.29-1.97-11.29-3.327a.812.812,0,0,0-1.623,0c0,1.047.71,2.537,4.094,3.694A28.307,28.307,0,0,0,1389.487,2566.4Z" transform="translate(-1365.218 -2517.793)"/><path class="g" d="M1319.99,1958.367c-.048-.041-4.859-4.151-6.18-9.26a.812.812,0,1,0-1.571.406c1.448,5.6,6.49,9.913,6.7,10.094a.811.811,0,1,0,1.047-1.24Z" transform="translate(-1302.308 -1919.448)"/><path class="g" d="M1953.852,673.7a4.217,4.217,0,0,1-1.488,2.624.812.812,0,0,0,.951,1.316,5.812,5.812,0,0,0,2.143-3.7,7.575,7.575,0,0,0-1.984-5.73,6.071,6.071,0,0,1-1.648-4.475,4.221,4.221,0,0,1,1.491-2.626.811.811,0,0,0-.954-1.313,5.808,5.808,0,0,0-2.143,3.7,7.573,7.573,0,0,0,1.983,5.73A6.067,6.067,0,0,1,1953.852,673.7Z" transform="translate(-1925.884 -659.643)"/><path class="g" d="M1714.678,1037.027a3,3,0,0,1-1.048,1.859.811.811,0,0,0,.95,1.315,4.613,4.613,0,0,0,1.7-2.932,5.921,5.921,0,0,0-1.543-4.489,4.421,4.421,0,0,1-1.208-3.236,3,3,0,0,1,1.053-1.862.812.812,0,0,0-.955-1.313,4.615,4.615,0,0,0-1.7,2.933,5.923,5.923,0,0,0,1.544,4.489A4.421,4.421,0,0,1,1714.678,1037.027Z" transform="translate(-1692.973 -1017.953)"/><path class="g" d="M1115.874,1462.847c-1.508-1.278-3.939-1.08-5.578-.742q.044-.774.045-1.556c0-3.4-9.557-4.476-13.665-4.782a.811.811,0,1,0-.121,1.618,45.014,45.014,0,0,1,9.1,1.471c2.514.76,3.065,1.48,3.065,1.693,0,.281-.905,1.284-4.927,2.172a73.287,73.287,0,0,1-26.514,0c-4.022-.888-4.927-1.891-4.927-2.172,0-.213.551-.932,3.065-1.693a45.02,45.02,0,0,1,9.1-1.471.811.811,0,1,0-.121-1.618c-4.109.306-13.665,1.385-13.665,4.782a25.613,25.613,0,0,0,3.666,13.386,20.38,20.38,0,0,0,9.437,8.342,21.936,21.936,0,0,0,6.7.849,19.986,19.986,0,0,0,6.7-.849,19.771,19.771,0,0,0,7.828-6.038,14.3,14.3,0,0,0,7.352-3.213c2.644-2.055,4.37-4.506,4.615-6.554A3.839,3.839,0,0,0,1115.874,1462.847Zm-19.262,17.933a19.673,19.673,0,0,1-6.078.723,21.477,21.477,0,0,1-6.077-.722c-6.638-2.78-11.279-9.843-12.006-17.986a16.86,16.86,0,0,0,4.477,1.511,74.839,74.839,0,0,0,27.213,0,16.851,16.851,0,0,0,4.476-1.511C1107.889,1470.936,1103.249,1478,1096.612,1480.779Zm18.811-14.5c-.192,1.6-1.725,3.7-4,5.467a14.811,14.811,0,0,1-5.025,2.631q.14-.218.277-.44a25.171,25.171,0,0,0,3.471-10.133c2.083-.52,3.848-.42,4.678.284A2.32,2.32,0,0,1,1115.423,1466.277Z" transform="translate(-1066.265 -1437.82)"/></g></g><g transform="translate(1404.27 430.4)"><path class="a" d="M2034.641,945.123a4.254,4.254,0,0,0,3.852,0,1.174,1.174,0,0,0,0-2.225,4.255,4.255,0,0,0-3.852,0A1.174,1.174,0,0,0,2034.641,945.123Z" transform="translate(-1940.001 -747.842)"/><path class="h" d="M2093.11,803.131c4.25-4.923,9.035,2.063,11.294,4.96,1.536,1.969,6.876,7.193,6.292,9.935-.205.961-.322.917-1.271,1.171a5.947,5.947,0,0,1-2.915-.109,16.609,16.609,0,0,1-11.26-8.379c-.093,1.2-.116,2.411-.1,3.619a.347.347,0,0,1-.538.283q-.7-.458-1.378-.954c-1.681-1.242-.94-3-1.395-5A6.277,6.277,0,0,1,2093.11,803.131Z" transform="translate(-2056.251 -716.085)"/><path class="i" d="M1850.609,850.129l144-81.9,89.058,53.47a1.6,1.6,0,0,1-.037,2.768l-139.984,78.921a9.363,9.363,0,0,1-9.481-.091l-83.585-50.16A1.746,1.746,0,0,1,1850.609,850.129Z" transform="translate(-1842.502 -708.611)"/><path class="a" d="M2033.84,878.377v50.635a.565.565,0,0,0,.041.2.448.448,0,0,0,.395.239h4.579a.449.449,0,0,0,.395-.239.563.563,0,0,0,.041-.2V878.377a.439.439,0,0,0-.435-.436h-4.579A.439.439,0,0,0,2033.84,878.377Z" transform="translate(-1939.999 -733.317)"/><path class="a" d="M2033.84,887.049a.386.386,0,0,0,.049.189.884.884,0,0,0-.049.287,1.339,1.339,0,0,0,.8,1.11,4.247,4.247,0,0,0,3.855,0,1.34,1.34,0,0,0,.8-1.11.872.872,0,0,0-.049-.287.381.381,0,0,0,.049-.189v-8.672a.439.439,0,0,0-.435-.436h-4.579a.439.439,0,0,0-.435.436Z" transform="translate(-1939.999 -733.317)"/><path class="a" d="M1847.455,841.294a4.256,4.256,0,0,0,3.852,0,1.174,1.174,0,0,0,0-2.224,4.256,4.256,0,0,0-3.852,0A1.174,1.174,0,0,0,1847.455,841.294Z" transform="translate(-1607.785 -724.46)"/><path class="a" d="M1846.655,774.547v50.636a.56.56,0,0,0,.042.2.445.445,0,0,0,.394.239h4.579a.447.447,0,0,0,.394-.239.573.573,0,0,0,.041-.2V774.547a.439.439,0,0,0-.435-.436h-4.579A.438.438,0,0,0,1846.655,774.547Z" transform="translate(-1607.783 -709.935)"/><path class="a" d="M1846.655,783.219a.386.386,0,0,0,.049.189.887.887,0,0,0-.049.287,1.34,1.34,0,0,0,.8,1.11,4.249,4.249,0,0,0,3.855,0,1.341,1.341,0,0,0,.8-1.11.878.878,0,0,0-.05-.287.383.383,0,0,0,.05-.189v-8.672a.439.439,0,0,0-.435-.436h-4.579a.438.438,0,0,0-.436.436Z" transform="translate(-1607.783 -709.935)"/><path class="a" d="M2148.336,878.646a4.256,4.256,0,0,0,3.852,0,1.174,1.174,0,0,0,0-2.224,4.262,4.262,0,0,0-3.852,0A1.174,1.174,0,0,0,2148.336,878.646Z" transform="translate(-2141.787 -732.872)"/><path class="a" d="M2147.536,811.9v50.636a.567.567,0,0,0,.042.2.448.448,0,0,0,.4.238h4.578a.445.445,0,0,0,.394-.238.557.557,0,0,0,.042-.2V811.9a.439.439,0,0,0-.436-.435h-4.578A.439.439,0,0,0,2147.536,811.9Z" transform="translate(-2141.786 -718.347)"/><path class="a" d="M2147.536,825.485a.387.387,0,0,0,.049.189.9.9,0,0,0-.049.287,1.342,1.342,0,0,0,.8,1.11,4.251,4.251,0,0,0,3.856,0,1.34,1.34,0,0,0,.8-1.11.891.891,0,0,0-.049-.287.385.385,0,0,0,.049-.189v-8.672a.438.438,0,0,0-.436-.436h-4.578a.439.439,0,0,0-.437.436Z" transform="translate(-2141.786 -719.453)"/><path class="j" d="M1859.841,761.734l.01,10.861-16.171,5.971.825-5.918Z" transform="translate(-1613.224 -707.147)"/><path class="j" d="M2138.858,812.109v-9.7l17.924,11.523-1.2,3.191Z" transform="translate(-2138.858 -716.308)"/><path class="j" d="M2087.434,754.743l-83.969-49.087a19.023,19.023,0,0,0-19.035-.1l-138.615,79.17a5.012,5.012,0,0,0-.02,8.691l85.333,49.281a19.021,19.021,0,0,0,19.029,0l137.255-79.293A5.011,5.011,0,0,0,2087.434,754.743Z" transform="translate(-1842.987 -693.933)"/><path class="k" d="M2087.825,742.967l-83.969-49.086a19.026,19.026,0,0,0-19.036-.1l-138.614,79.17a5.011,5.011,0,0,0-.021,8.691l85.333,49.282a19.023,19.023,0,0,0,19.029,0L2087.8,751.634A5.011,5.011,0,0,0,2087.825,742.967Z" transform="translate(-1843.68 -691.281)"/><path class="a" d="M1944.6,812.611,1987.223,788c1.935-1.117,1.935-2.928,0-4.044l-16.757-9.675a7.741,7.741,0,0,0-7.006,0l-42.626,24.611c-1.934,1.117-1.934,2.928,0,4.044l16.758,9.675A7.738,7.738,0,0,0,1944.6,812.611Z" transform="translate(-1800.702 -709.784)"/><path class="a" d="M1988.674,785.658V789.7l-47.58,26.5-21.71-12.535v-3.071Z" transform="translate(-1800.702 -712.535)"/><path class="l" d="M1944.6,808.648l42.626-24.611c1.935-1.116,1.935-2.927,0-4.044l-16.757-9.675a7.745,7.745,0,0,0-7.006,0l-42.626,24.611c-1.934,1.116-1.934,2.927,0,4.044l16.758,9.675A7.743,7.743,0,0,0,1944.6,808.648Z" transform="translate(-1800.702 -708.892)"/><path class="l" d="M1938.357,804.714l41.3-23.845-3.629-2.1-41.3,23.845Z" transform="translate(-1803.575 -710.985)"/><path class="l" d="M1930.325,809.352l41.3-23.845-3.629-2.1-41.3,23.846Z" transform="translate(-1789.318 -712.029)"/><path class="m" d="M1979.075,781.007,1938.6,804.378l-2.807-1.621,40.478-23.371Z" transform="translate(-1803.814 -711.122)"/><path class="m" d="M1971.042,785.645l-40.478,23.371-2.807-1.622,40.478-23.37Z" transform="translate(-1789.557 -712.167)"/><path class="m" d="M1986.892,775.739l-40.478,23.371-2.807-1.622,40.479-23.37Z" transform="translate(-1817.688 -709.936)"/><path class="h" d="M2036.75,906.858l-.944-.549c-.143-.083-.142-.218,0-.3l.947-.547a.577.577,0,0,1,.522,0l.943.549a.16.16,0,0,1,0,.3l-.948.547a.575.575,0,0,1-.522,0Z" transform="translate(-1940.479 -739.501)"/><path class="n" d="M1986.586,758.083c0,10.278,3.949,13.168,3.949,13.168s.865.546,2.151,1.354a.326.326,0,0,1,.068.057l.273.159q.922.58,2.014,1.264l.069-.035.729.433,5.577,3.3a4.911,4.911,0,0,0,4.518.034l12.428-7.181c1.252-.718,1.252-1.89,0-2.618l-5.588-3.232-3.255-1.878h-.011c-.808-.467-1.582-.911-2.254-1.309-4.563-2.629-.226-14.819-.01-15.422v-.012h-.011Z" transform="translate(-1883.398 -703.642)"/><path class="k" d="M1995.01,758.083c0,10.278,3.949,13.168,3.949,13.168s.865.546,2.152,1.354a.31.31,0,0,1,.068.057l.274.159q.921.58,2.014,1.264l.069-.035.728.433,16.935-9.7-3.254-1.878h-.012c-.808-.467-1.582-.911-2.254-1.309-4.564-2.629-.227-14.819-.011-15.422l-.012-.012Z" transform="translate(-1891.822 -703.642)"/><path class="o" d="M2010,758.282c0,1.579,1.108,2.219,2.476,1.429a5.473,5.473,0,0,0,2.476-4.288c0-1.579-1.109-2.219-2.476-1.43A5.472,5.472,0,0,0,2010,758.282Z" transform="translate(-1897.19 -705.328)"/><path class="p" d="M1928.461,777.347c.017,0,.033.019.05.037a1.137,1.137,0,0,0,.017-.24A.3.3,0,0,1,1928.461,777.347Z" transform="translate(-1747.59 -710.618)"/><path class="q" d="M1926.693,774.29a.851.851,0,0,0,.645.053c.022-.055.011-.116.043-.169Z" transform="translate(-1745.073 -709.949)"/><path class="q" d="M1931.2,782.638c-.118.008-.236.032-.353.047l.928-.888C1931.573,782.073,1931.385,782.356,1931.2,782.638Z" transform="translate(-1752.675 -711.666)"/><path class="p" d="M1928.064,771.624c.017,0,.032.021.047.041a1.172,1.172,0,0,0,.041-.237A.3.3,0,0,1,1928.064,771.624Z" transform="translate(-1746.906 -709.33)"/><path class="q" d="M1926.005,768.7a.846.846,0,0,0,.637.118c.027-.053.022-.115.059-.164Z" transform="translate(-1743.86 -708.705)"/><path class="h" d="M1921.4,746.8l.431.043Z" transform="translate(-1735.418 -703.784)"/><g transform="translate(-3.901 -131.706)"><path class="r" d="M2105.377,354.213l179.081-104.058c3.3-2.108,6.144-.67,6.355,3.209l.881,16.231,6.7,123.308a13.354,13.354,0,0,1-5.591,10.842L2113.721,507.8c-3.3,2.108-6.144.671-6.354-3.209l-6.7-123.308-.881-16.231A13.352,13.352,0,0,1,2105.377,354.213Z" transform="translate(-2099.775 -249.183)"/><path class="s" d="M2087.4,399.244l6.7,123.305c.21,3.884,3.056,5.316,6.355,3.213l101.278-58.852,77.8-45.212a13.344,13.344,0,0,0,5.592-10.836l-6.7-123.311-84,49.108Z" transform="translate(-2078.963 -264.145)"/><path class="g" d="M2098.412,369.967l.874,16.145.007.085,107.034-62.585,83.995-49.108-.079-1.432-.8-14.8c-.21-3.877-3.056-5.316-6.354-3.207L2104,359.124A13.353,13.353,0,0,0,2098.412,369.967Z" transform="translate(-2090.854 -251.098)"/><path class="t" d="M2398.133,440.585a5.838,5.838,0,0,1-2.542,4.69c-1.462.892-2.692.239-2.75-1.46a5.839,5.839,0,0,1,2.542-4.689C2396.845,438.234,2398.076,438.887,2398.133,440.585Z" transform="translate(-2378.288 -323.097)"/><path class="u" d="M2382.4,430.983a5.839,5.839,0,0,1-2.541,4.689c-1.462.892-2.692.238-2.75-1.46a5.839,5.839,0,0,1,2.541-4.689C2381.113,428.631,2382.344,429.284,2382.4,430.983Z" transform="translate(-2352.958 -319.353)"/><g transform="translate(35.987 47.753)"><path class="a" d="M1991.046,727.3l65.048-37.553v46.342l-65.046,37.553Z" transform="translate(-1912.994 -689.747)"/><g class="v" transform="translate(78.052 0)"><g transform="translate(8.259 23.987)"><path class="w" d="M1742.811,401.97l-.017-6.11a10.184,10.184,0,0,1,4.616-8l16.414-9.474a3.259,3.259,0,0,1,3.293-.323l-2.555-1.486a3.274,3.274,0,0,0-3.3.324l-16.41,9.475a10.174,10.174,0,0,0-4.617,8l.017,6.11a3.248,3.248,0,0,0,1.35,2.97l2.558,1.487A3.243,3.243,0,0,1,1742.811,401.97Z" transform="translate(-1740.238 -376.268)"/><path class="m" d="M1766.657,379.625c2.556-1.478,4.637-.292,4.646,2.648l.018,6.109a10.17,10.17,0,0,1-4.618,8,7.319,7.319,0,0,0,1.669,2.91,5.7,5.7,0,0,1-6.021-.4l-12.059,6.961c-2.555,1.477-4.637.292-4.647-2.647l-.017-6.11a10.185,10.185,0,0,1,4.616-8Z" transform="translate(-1743.466 -377.897)"/></g><g transform="translate(36.032 26.306)"><path class="q" d="M1430.26,1492.135l2.261,12.212a4.878,4.878,0,0,0,1.985,3.923c7.125,6.178,2.3-3.738,2.3-3.923l-2.26-12.212a2.141,2.141,0,0,0-4.282,0Z" transform="translate(-1418.677 -1477.312)"/><path class="w" d="M1452.61,1500.1a1.769,1.769,0,0,1-.828-.535,1.289,1.289,0,0,1-.324-.866l-1.978-8.317a2.451,2.451,0,1,1,4.784,0l1.659,6.975a1.165,1.165,0,0,1-.582,1.233Z" transform="translate(-1438.095 -1475.477)"/><path class="w" d="M1455.437,1498.262c.014,3.678.432,7.839,1.574,8.887.881.81,2.491.873,4.2.571q.16-.026.322-.059a17.342,17.342,0,0,0,5.167-1.947c.269-.161,3.362-1.585,4.67-2.376a.168.168,0,0,1,.169-.016,15.069,15.069,0,0,1-1.509-5.919c.079-1.616.93-3.285,1.161-4.921.42-2.978.443-7.258-2.546-8.992a3.641,3.641,0,0,0-1.8-.382,5.555,5.555,0,0,0-1,.068c-4.6.839-7.043,2.322-8.43,4.6a14.8,14.8,0,0,0-1.723,5.684c-.02.138-.039.291-.057.452-.011.082-.02.163-.028.249A40.039,40.039,0,0,0,1455.437,1498.262Z" transform="translate(-1455.436 -1472.445)"/><path class="w" d="M1464.144,1486.65l2.491,2.793a.67.67,0,0,0,1.044-.056l1.448-2.011,2.082.371a.415.415,0,0,0,.487-.408v-.646a3.029,3.029,0,0,0-2.394-2.962,6.945,6.945,0,0,0-1.454-.151,6.088,6.088,0,0,0-3.491,1.012A1.393,1.393,0,0,0,1464.144,1486.65Z" transform="translate(-1458.046 -1472.778)"/><path class="w" d="M1490.64,1509.5c.014,3.678.432,7.839,1.573,8.888.881.811,2.491.873,4.2.57a4.8,4.8,0,0,0-.224-.506c-1.528-2.48-1.726-3.192-1.418-6.133a9.507,9.507,0,0,0-.068-3.486c-.3-1.071-.975-2.107-.768-3.2a6.509,6.509,0,0,1,.559-1.393,5.332,5.332,0,0,0,.344-3.1,2.889,2.889,0,0,0-.737-1.554,2.1,2.1,0,0,0-1.477-.573,14.809,14.809,0,0,0-1.723,5.684c-.02.139-.04.291-.057.452-.011.079-.02.164-.028.248C1490.71,1506.47,1490.646,1507.925,1490.64,1509.5Z" transform="translate(-1490.64 -1483.686)"/><path class="h" d="M1469.043,1485.227a1.236,1.236,0,0,0,.4.878,2.749,2.749,0,0,0,3.506.031,1.183,1.183,0,0,0,0-1.819c-.026-.022-.053-.048-.082-.07,0,0-.005-.006-.008-.006a2.439,2.439,0,0,0-1.2-.5c-.073-.011-.147-.02-.223-.026s-.15-.008-.226-.008a2.513,2.513,0,0,0-1.768.647A1.232,1.232,0,0,0,1469.043,1485.227Z" transform="translate(-1461.263 -1472.867)"/><path class="q" d="M1470.493,1473.15v5.5a2.516,2.516,0,0,0,1.769.646,2.561,2.561,0,0,0,1.7-.582.282.282,0,0,0,.039-.034v-5.528Z" transform="translate(-1462.316 -1465.409)"/><path class="x" d="M1471.922,1479.095a2.706,2.706,0,0,0,1.792-.618s.017-.013.028-.023l.043-.042.015-.074v-5.67h-3.788v5.7l.041.041A2.676,2.676,0,0,0,1471.922,1479.095Zm1.6-.82a2.456,2.456,0,0,1-1.6.538,2.426,2.426,0,0,1-1.627-.566v-5.3h3.224Z" transform="translate(-1461.976 -1465.068)"/><path class="q" d="M1470.493,1475.75l.3.449,1.528,2.189.214.305,1.24,1.856a.372.372,0,0,0,.04-.034v-2.865l0-.014a20.659,20.659,0,0,0-1.69-1.794l-1.367-.076Z" transform="translate(-1462.135 -1467.247)"/><path class="q" d="M1457.9,1459.76c.014.2.253.372.506.534a2.971,2.971,0,0,1,.246.176c.007,0,.014,0,.021.014a.841.841,0,0,1,.162.14.411.411,0,0,1,.119.2,4.077,4.077,0,0,0,.246.766,3.915,3.915,0,0,0,2.058,2.114,3.23,3.23,0,0,0,1.019.282,2.667,2.667,0,0,0,.408.014,3.406,3.406,0,0,0,3.169-2.81,6.512,6.512,0,0,0,.119-1.046c.007-.408,0-.808-.014-1.2-.028-.625-.05-1.25-.07-1.869-.007-.253-.021-.5-.028-.752a.809.809,0,0,0-.007-.344,1.149,1.149,0,0,0-.6-.752,2.566,2.566,0,0,0-1.475-.169,7.6,7.6,0,0,0-2.93.85,4.1,4.1,0,0,0-1.925,2.29C1458.787,1458.65,1457.88,1459.289,1457.9,1459.76Z" transform="translate(-1450.6 -1452.603)"/><path class="y" d="M1454.106,1450.548a3.915,3.915,0,0,1,.919-2.334,4.114,4.114,0,0,1,1.943-1.207,4.3,4.3,0,0,1,1.541-.236,10.934,10.934,0,0,1,2.122.6c.729.2,1.5.246,2.213.506a2.084,2.084,0,0,1,1.468,1.578,1.9,1.9,0,0,1-1.24,1.8,5.576,5.576,0,0,1-2.305.292,5.884,5.884,0,0,0-2.116.016c-.73.379-.459,1.483-.806,2.072a.566.566,0,0,1-.507.288c-.478-.033-.649-.708-1.1-.871a.69.69,0,0,0-.822.392.964.964,0,0,0,.152.944c.216.282.637.313.83.537.16.187.1.506.036.8a.8.8,0,0,1-.476.6C1454.07,1456.988,1454.04,1451.44,1454.106,1450.548Z" transform="translate(-1447.825 -1446.765)"/><path class="q" d="M1466.146,1503.109v12.776a4.88,4.88,0,0,0,1.986,3.923c8.64,5.2,11.745,2.166,2.531-3.455a.586.586,0,0,1-.235-.468v-12.776a2.141,2.141,0,0,0-4.282,0Z" transform="translate(-1465.393 -1485.066)"/><path class="w" d="M1495.559,1514.125a2.47,2.47,0,0,1-2.279-.849,1.292,1.292,0,0,1-.324-.866v-10.294a2.451,2.451,0,1,1,4.784,0v10.667a.754.754,0,0,1-.46.694A7.693,7.693,0,0,1,1495.559,1514.125Z" transform="translate(-1492.648 -1483.767)"/></g></g><path class="a" d="M1991.046,727.3l65.048-37.553v46.342l-65.046,37.553Z" transform="translate(-1912.994 -630.207)"/><g class="v" transform="translate(78.051 59.54)"><g transform="translate(32.425 14.794)"><path class="m" d="M784.459,1011.774c1.6.67,2.547,0,3.162-1.555.641-1.626.606-3.608-1.044-4.427a10.5,10.5,0,0,1-3.2-3.239,7.634,7.634,0,0,1-1.116-2.645c-.008-.036-.017-.073-.026-.11l-2.12-8.441a3.569,3.569,0,0,0-3.917-2.722,2.969,2.969,0,0,0-2.283,3.785l2.107,8.39a14.981,14.981,0,0,0,2.188,5.121,17.289,17.289,0,0,0,6.044,5.749C784.322,1011.714,784.39,1011.746,784.459,1011.774Z" transform="translate(-755.896 -971.873)"/><path class="p" d="M809.973,1035.182l1.233,1.879a8.811,8.811,0,0,1,1.452,4.948l-.331,25.55s-11.74,5.714-17.817-.769l-.263-18.286s-1.445-10.3,2.909-12.7Z" transform="translate(-788.09 -1001.075)"/><path class="p" d="M814.535,975.288c-.008,0-.015.009-.023.017a.522.522,0,0,1-.008-.11A.135.135,0,0,0,814.535,975.288Z" transform="translate(-797.612 -963.477)"/><path class="w" d="M794.752,991.849l.9,3.359,1.764,10.2c.184.691,1.391,1.26,1.994,1.558,1.622.8,4.781,1.2,9.442-.773a2.44,2.44,0,0,0,1.416-1.8l1.837-7.561.029-.152a5.328,5.328,0,0,0-.492-3.437l-1.7-3.268v-1.747a2.92,2.92,0,0,0-3.669-2.985l-1.65.573-4.476,1.56-3.854,1.34A2.589,2.589,0,0,0,794.752,991.849Z" transform="translate(-787.895 -969.698)"/><path class="m" d="M794.752,991.849l.9,3.359c.449.555.9,1.114,1.351,1.669a9.985,9.985,0,0,0,3.259,3c2.194,1.026,4.714.188,6.94-.756q2.066-.87,4.086-1.857c.273-.131.553-.269.817-.428l.029-.152a5.328,5.328,0,0,0-.492-3.437l-1.7-3.268v-1.747a2.92,2.92,0,0,0-3.669-2.985l-1.65.573-4.476,1.56-3.854,1.34A2.589,2.589,0,0,0,794.752,991.849Z" transform="translate(-787.895 -969.698)"/><path class="q" d="M811.259,988.554a34.771,34.771,0,0,0,3.92,2.9,2.312,2.312,0,0,0,1.524.506.553.553,0,0,0,.322-.149.849.849,0,0,0,.085-.728,17.079,17.079,0,0,0-1.374-4.084Z" transform="translate(-799.015 -970.872)"/><path class="q" d="M814.582,975.366v5.889l4.654.4v-6.287Z" transform="translate(-802.342 -963.584)"/><path class="q" d="M814.582,980.448l4.632,3.511.022.336v-4.178Z" transform="translate(-802.342 -966.562)"/><path d="M797.481,949c2.477-.8,1.317-2.642,2.764-4.216,1.679-1.826,4.628-.827,6.168.6a1.4,1.4,0,0,0,.585.392c1.55.363,2.28-.854,3.665.7.925,1.038,1.6,2.75,2.554,3.917.551.673,1.118,1.64.595,2.336-.38.5-1.208.61-1.418,1.206a2.077,2.077,0,0,0,.191,1.231A2.823,2.823,0,0,1,811.5,958.2c-2.422,1.653-3.457-.923-5.2-1.8-2.629-1.316-3.129,2.71-4.966,3.629a2.374,2.374,0,0,1-3.169-1.3,8.986,8.986,0,0,1-.079-2.708c-.054-2.137-2.194-1.613-2.673-3.43A3.3,3.3,0,0,1,797.481,949Z" transform="translate(-789.941 -943.798)"/><path d="M818.844,949.146a2.846,2.846,0,0,1-.013-2.295,1.649,1.649,0,0,0-.685-.212,2.708,2.708,0,0,0-.2-.367.867.867,0,0,1,1.3.012,3.543,3.543,0,0,1,1.352,2.9,2.2,2.2,0,0,1-.365.99A3.848,3.848,0,0,1,818.844,949.146Z" transform="translate(-804.98 -945.167)"/><path d="M804.084,952.075a10.052,10.052,0,0,1,2-1.649,5.126,5.126,0,0,1,1.261-.647,8.608,8.608,0,0,1,5.615,1.135c2.173,1.636,3.664,4.127,3.37,6.635-.819,7-10.441,5.347-12.964.5a5.336,5.336,0,0,1-.143-4.719A5.45,5.45,0,0,1,804.084,952.075Z" transform="translate(-795.057 -947.466)"/><path class="q" d="M811.8,962.645a6.25,6.25,0,0,1-1.089,3.737,4.741,4.741,0,0,1-3.674,1.605,4.071,4.071,0,0,1-2.186-.482c-1.251-.749-1.837-2.363-2.154-3.888a12.813,12.813,0,0,1-.235-1.757,6.533,6.533,0,0,1,.195-1.989,5.722,5.722,0,0,1,2.5-3.264,9.017,9.017,0,0,1,3.8-1.2,3.051,3.051,0,0,1,1.91.232,1.627,1.627,0,0,1,.772,1.07,1.249,1.249,0,0,1,.016.49l.122,3.737C811.8,961.495,811.82,962.065,811.8,962.645Z" transform="translate(-790.391 -951.041)"/><path d="M816.515,958.515a8.46,8.46,0,0,1-1.961,3.009,4.939,4.939,0,0,1-3.247,1.4,1.943,1.943,0,0,1-1.539-.569,2.108,2.108,0,0,1-.375-.827,5.416,5.416,0,0,1,.222-3.541,4.11,4.11,0,0,1,2.618-2.317,4.622,4.622,0,0,1,3.617.711,2.237,2.237,0,0,1,1.241,2.195Z" transform="translate(-798.229 -951.164)"/><rect class="h" width="4.119" height="0.293" transform="translate(15.113 13.812) rotate(-149.728)"/><path class="q" d="M824.256,979.352a.3.3,0,0,1-.3.034.779.779,0,0,0-.02-.107Z" transform="translate(-810.853 -966.036)"/><path class="q" d="M825.254,973.738c.47-.163.935.361,1.14.959a5.223,5.223,0,0,0,.317.893.677.677,0,0,0,.34.3,1.013,1.013,0,0,1-.509,1.171,1.188,1.188,0,0,1-1.146-.461,2.517,2.517,0,0,1-.736-1.441C824.588,974.57,824.827,973.886,825.254,973.738Z" transform="translate(-813.948 -962.545)"/><g transform="translate(17.91 10.821)"><path class="z" d="M809.589,973.393c-.087-.293-.275-.4-.494-.272a1.307,1.307,0,0,0-.493.842l-.141-.023a1.677,1.677,0,0,1,.634-1.082c.28-.162.523-.028.634.35Z" transform="translate(-808.461 -972.791)"/></g><g transform="translate(17.91 10.821)"><path class="h" d="M809.589,973.393c-.087-.293-.275-.4-.494-.272a1.307,1.307,0,0,0-.493.842l-.141-.023a1.677,1.677,0,0,1,.634-1.082c.28-.162.523-.028.634.35Z" transform="translate(-808.461 -972.791)"/></g><g transform="translate(15.04 11.077)"><path class="h" d="M812.032,977.469a1.443,1.443,0,0,0,.713-.216,3.331,3.331,0,0,0,1.5-2.607,1.015,1.015,0,0,0-1.651-.953,3.33,3.33,0,0,0-1.505,2.606,1.144,1.144,0,0,0,.493,1.054A.88.88,0,0,0,812.032,977.469Zm1.279-3.7a.591.591,0,0,1,.3.076.87.87,0,0,1,.346.8A3.008,3.008,0,0,1,812.6,977a.731.731,0,0,1-1.212-.7,3.006,3.006,0,0,1,1.359-2.352A1.154,1.154,0,0,1,813.31,973.771Z" transform="translate(-811.093 -973.477)"/></g><g transform="translate(18.851 8.877)"><path class="h" d="M801.822,971.575a1.448,1.448,0,0,0,.713-.216,3.331,3.331,0,0,0,1.5-2.607,1.016,1.016,0,0,0-1.652-.954,3.333,3.333,0,0,0-1.5,2.607,1.144,1.144,0,0,0,.493,1.054A.881.881,0,0,0,801.822,971.575Zm1.278-3.7a.6.6,0,0,1,.3.076.871.871,0,0,1,.346.8,3.007,3.007,0,0,1-1.358,2.352.731.731,0,0,1-1.212-.7,3.005,3.005,0,0,1,1.358-2.352A1.157,1.157,0,0,1,803.1,967.876Z" transform="translate(-800.883 -967.583)"/></g><path d="M804.347,954.683a20.476,20.476,0,0,0,4.3,1.973,3.357,3.357,0,0,0,.247-3.044,4.955,4.955,0,0,0-2.065-2.339c-1.6-.98-3.886-1.132-5.195.207a1.5,1.5,0,0,0-.467.87c-.07.746.682,1.284,1.35,1.623a27.447,27.447,0,0,0,3.1,1.343Z" transform="translate(-787.248 -948.002)"/><path class="m" d="M831.674,1014.543a2.83,2.83,0,0,0,2.548-1.594l5.908-12.15a2.831,2.831,0,0,0-5.092-2.476l-5.908,12.151a2.831,2.831,0,0,0,2.544,4.069Z" transform="translate(-828.845 -976.974)"/><path class="q" d="M825.587,1040.923a2.426,2.426,0,1,0,0-4.853c-9.681,0-11.057-3.632-11.063-3.668a2.427,2.427,0,0,0-4.789.787C809.866,1033.98,811.416,1040.923,825.587,1040.923Z" transform="translate(-809.299 -998.058)"/><path class="q" d="M813.47,1043.564h0a1,1,0,0,0,1.357-.246l1.36-1.862a.937.937,0,0,0-.207-1.33h0a1,1,0,0,0-1.357.246l-1.36,1.862A.938.938,0,0,0,813.47,1043.564Z" transform="translate(-798.919 -1004.069)"/></g><g transform="translate(4.716 25.569)"><path class="w" d="M1742.811,401.97l-.017-6.11a10.184,10.184,0,0,1,4.616-8l16.414-9.474a3.259,3.259,0,0,1,3.293-.323l-2.555-1.486a3.274,3.274,0,0,0-3.3.324l-16.41,9.475a10.174,10.174,0,0,0-4.617,8l.017,6.11a3.248,3.248,0,0,0,1.35,2.97l2.558,1.487A3.243,3.243,0,0,1,1742.811,401.97Z" transform="translate(-1740.238 -376.268)"/><path class="m" d="M1766.657,379.625c2.556-1.478,4.637-.292,4.646,2.648l.018,6.109a10.17,10.17,0,0,1-4.618,8,7.319,7.319,0,0,0,1.669,2.91,5.7,5.7,0,0,1-6.021-.4l-12.059,6.961c-2.555,1.477-4.637.292-4.647-2.647l-.017-6.11a10.185,10.185,0,0,1,4.616-8Z" transform="translate(-1743.466 -377.897)"/></g></g><path class="a" d="M2017.905,742.808l65.049-37.555v46.342l-65.049,37.555Z" transform="translate(-2017.905 -660.192)"/><g class="aa" transform="translate(0 45.061)"><g transform="translate(4.815 27.646)"><path class="w" d="M1742.811,401.97l-.017-6.11a10.184,10.184,0,0,1,4.616-8l16.414-9.474a3.259,3.259,0,0,1,3.293-.323l-2.555-1.486a3.274,3.274,0,0,0-3.3.324l-16.41,9.475a10.174,10.174,0,0,0-4.617,8l.017,6.11a3.248,3.248,0,0,0,1.35,2.97l2.558,1.487A3.243,3.243,0,0,1,1742.811,401.97Z" transform="translate(-1740.238 -376.268)"/><path class="m" d="M1766.657,379.625c2.556-1.478,4.637-.292,4.646,2.648l.018,6.109a10.17,10.17,0,0,1-4.618,8,7.319,7.319,0,0,0,1.669,2.91,5.7,5.7,0,0,1-6.021-.4l-12.059,6.961c-2.555,1.477-4.637.292-4.647-2.647l-.017-6.11a10.185,10.185,0,0,1,4.616-8Z" transform="translate(-1743.466 -377.897)"/></g><g transform="translate(32.423 23.973)"><path class="ab" d="M1135.49,1863.872a1.982,1.982,0,0,0,1.307-3.473l-4.671-4.094a16.666,16.666,0,0,1-4.964-7.692l-2.19-7.2a1.982,1.982,0,1,0-3.793,1.153l2.19,7.205a20.624,20.624,0,0,0,6.143,9.52l4.671,4.094A1.975,1.975,0,0,0,1135.49,1863.872Z" transform="translate(-1107.283 -1827.706)"/><path class="ab" d="M1177.931,1841.72v17.073l-4.26,2.615a9.284,9.284,0,0,1-7.95.861l-1.5-.533.556-18.933a3.219,3.219,0,0,1,.876-2.1,3.031,3.031,0,0,1,.7-.572l1.342-.846.373-.236a11.825,11.825,0,0,1,4.749-1.654,7.8,7.8,0,0,1,1.006-.068,3.636,3.636,0,0,1,1.8.381A4.644,4.644,0,0,1,1177.931,1841.72Z" transform="translate(-1160.019 -1825.795)"/><path class="ab" d="M1199.932,1871.225a9.194,9.194,0,0,1-2.1-.472l-1.5-.534.556-18.933a3.22,3.22,0,0,1,.877-2.1,6.938,6.938,0,0,1,.884.145.877.877,0,0,1,.244.1,2.291,2.291,0,0,1,1.082.572,2.671,2.671,0,0,1,.175,2.729,4.873,4.873,0,0,0-.511,2.8c.183.663.694,1.2.831,1.883.282,1.433-1.235,5.015-1.09,6.471a6.731,6.731,0,0,0,1.067,2.241A5.2,5.2,0,0,1,1199.932,1871.225Z" transform="translate(-1192.127 -1834.279)"/><path class="m" d="M1171.128,1838.9l2.5,2.8a.672.672,0,0,0,1.047-.056l1.452-2.016,2.086.372a.416.416,0,0,0,.489-.41v-.647a3.037,3.037,0,0,0-2.4-2.97,6.993,6.993,0,0,0-1.457-.151,6.1,6.1,0,0,0-3.5,1.015A1.4,1.4,0,0,0,1171.128,1838.9Z" transform="translate(-1162.652 -1824.717)"/><path class="h" d="M1191.048,1822.336c-.007,0-.013.007-.02.014a.389.389,0,0,1-.007-.087A.1.1,0,0,0,1191.048,1822.336Z" transform="translate(-1180.767 -1815.018)"/><path class="q" d="M1179.259,1838.778c1.269,0,2.264-.713,2.264-1.624s-.994-1.624-2.264-1.624-2.263.714-2.263,1.624S1177.99,1838.778,1179.259,1838.778Z" transform="translate(-1167.248 -1824.508)"/><path class="w" d="M1164.38,1806.8a22.126,22.126,0,0,1-2.313,1.181l-.446-2.4a6.145,6.145,0,0,1,1.066-.712c.289-.089,1.215.65,1.215.65Z" transform="translate(-1145.728 -1802.569)"/><path class="q" d="M1178.07,1825.532h0v-4.072a1.926,1.926,0,0,1,1.189-1.769,2.041,2.041,0,0,1,.648-.13c.107,0,.213.008.312.015a1.9,1.9,0,0,1,1.647,1.883v4.072h0v.2h-.022a2.1,2.1,0,0,1-3.752,0h-.022Z" transform="translate(-1167.897 -1813.085)"/><path class="q" d="M1180.918,1823.9c-1.575-.081-2.824-1.087-2.824-2.307v-3.911a3.69,3.69,0,0,1,1.124-.163h.1a2.124,2.124,0,0,1,.222.015h.067a1.538,1.538,0,0,1,.51.177.858.858,0,0,1,.207.126l.089.066a2.717,2.717,0,0,1,.207.207,2.155,2.155,0,0,1,.517,1.419v3.5Z" transform="translate(-1167.179 -1811.628)"/><path class="q" d="M1167.323,1812.89a5.657,5.657,0,0,1-.8-2.4c-.106-.658-1-.383-1-1.055,0-.478.447-.988.648-1.4a3.005,3.005,0,0,1,1-1.218,5.942,5.942,0,0,1,1.857-.784,14.612,14.612,0,0,1,2.222-.433l.207-.71h2.329v6.671c0,.065-.035.157-.045.277-.154,1.771-1.89,2.656-3.365,2.7a3.133,3.133,0,0,1-1.844-.559A5.188,5.188,0,0,1,1167.323,1812.89Z" transform="translate(-1156.249 -1802.588)"/><path class="ac" d="M1170.12,1798.727a17.067,17.067,0,0,0-2.289-1.142,7.069,7.069,0,0,0-2.7-.762,4.33,4.33,0,0,0-3.436,1.279,6.5,6.5,0,0,0-1.278,5,4.463,4.463,0,0,0,.52,1.986c.194.3,1.186,1.24,1.621.871.369-.313-.081-.893.091-1.364a.406.406,0,0,1,.1-.175.386.386,0,0,1,.329-.041.508.508,0,0,0,.269,0c.193-.074.219-.333.206-.539-.041-.667-.135-1.436.632-1.639.531-.141,1.129.055,1.644-.168a17.473,17.473,0,0,1,3.067-1.471c.152-.033.416-.125.454.026.123.488.046.654.168.986a1.6,1.6,0,0,0,1.15-.822,1.651,1.651,0,0,0-.029-1.469A1.689,1.689,0,0,0,1170.12,1798.727Z" transform="translate(-1151.813 -1796.815)"/><rect class="p" width="3.259" height="0.212" transform="translate(13.198 8.238) rotate(-148.241)"/><path class="q" d="M1187.047,1823.409a.294.294,0,0,1-.221.018c-.008-.019,0-.04-.015-.058Z" transform="translate(-1175.567 -1815.809)"/><path class="q" d="M1187.946,1819.425a.8.8,0,0,1,.841.521,2.356,2.356,0,0,0,.233.484.48.48,0,0,0,.251.165.513.513,0,0,1-.376.635,1.05,1.05,0,0,1-.845-.25,1.293,1.293,0,0,1-.543-.782A.682.682,0,0,1,1187.946,1819.425Z" transform="translate(-1178.013 -1812.976)"/><path class="z" d="M1171.128,1818.584c-.065-.219-.206-.3-.369-.2a.973.973,0,0,0-.368.629l-.105-.018a1.252,1.252,0,0,1,.473-.808c.209-.12.39-.021.474.261Z" transform="translate(-1155.049 -1812.065)"/><path class="p" d="M1171.128,1818.584c-.065-.219-.206-.3-.369-.2a.973.973,0,0,0-.368.629l-.105-.018a1.252,1.252,0,0,1,.473-.808c.209-.12.39-.021.474.261Z" transform="translate(-1155.049 -1812.065)"/><path class="p" d="M1173.57,1821.791a1.072,1.072,0,0,0,.53-.161,2.482,2.482,0,0,0,1.122-1.943.755.755,0,0,0-1.228-.709,2.484,2.484,0,0,0-1.121,1.943.85.85,0,0,0,.366.784A.656.656,0,0,0,1173.57,1821.791Zm.954-2.76a.442.442,0,0,1,.225.057.652.652,0,0,1,.26.6,2.248,2.248,0,0,1-1.016,1.759.548.548,0,0,1-.909-.525,2.248,2.248,0,0,1,1.015-1.759A.866.866,0,0,1,1174.525,1819.03Z" transform="translate(-1159.775 -1812.553)"/><path class="p" d="M1163.58,1816.023a1.075,1.075,0,0,0,.531-.161,2.484,2.484,0,0,0,1.122-1.943.755.755,0,0,0-1.228-.709,2.483,2.483,0,0,0-1.121,1.943.85.85,0,0,0,.366.784A.648.648,0,0,0,1163.58,1816.023Zm.954-2.76a.443.443,0,0,1,.226.057.652.652,0,0,1,.26.6,2.247,2.247,0,0,1-1.016,1.759.549.549,0,0,1-.909-.525,2.247,2.247,0,0,1,1.015-1.759A.867.867,0,0,1,1164.534,1813.263Z" transform="translate(-1146.939 -1808.428)"/><path class="ab" d="M1202.886,1875.989a1.983,1.983,0,0,0,1.921-2.478l-2.039-7.905a10.071,10.071,0,0,1,.427-6.288l3.3-8.075a1.982,1.982,0,1,0-3.67-1.5l-3.3,8.075a14.061,14.061,0,0,0-.6,8.779l2.039,7.905A1.984,1.984,0,0,0,1202.886,1875.989Z" transform="translate(-1198.49 -1833.792)"/><path class="o" d="M1167.569,1828.063l-.083.147c.02.747.559,1.044,1.221.662a2.709,2.709,0,0,0,1.22-2.071l-.083-.052Z" transform="translate(-1152.946 -1818.227)"/></g></g><path class="a" d="M2017.905,742.808l65.049-37.555v46.342l-65.049,37.555Z" transform="translate(-2017.905 -600.652)"/><g class="aa" transform="translate(0 104.601)"><g transform="translate(7.472 26.57)"><path class="w" d="M1742.811,401.97l-.017-6.11a10.184,10.184,0,0,1,4.616-8l16.414-9.474a3.259,3.259,0,0,1,3.293-.323l-2.555-1.486a3.274,3.274,0,0,0-3.3.324l-16.41,9.475a10.174,10.174,0,0,0-4.617,8l.017,6.11a3.248,3.248,0,0,0,1.35,2.97l2.558,1.487A3.243,3.243,0,0,1,1742.811,401.97Z" transform="translate(-1740.238 -376.268)"/><path class="m" d="M1766.657,379.625c2.556-1.478,4.637-.292,4.646,2.648l.018,6.109a10.17,10.17,0,0,1-4.618,8,7.319,7.319,0,0,0,1.669,2.91,5.7,5.7,0,0,1-6.021-.4l-12.059,6.961c-2.555,1.477-4.637.292-4.647-2.647l-.017-6.11a10.185,10.185,0,0,1,4.616-8Z" transform="translate(-1743.466 -377.897)"/></g><g transform="translate(36.068 24.086)"><path class="w" d="M865.37,694.44l-2.091-13.911a2.194,2.194,0,1,0-4.34.655l2.139,14.221a2.124,2.124,0,0,0,.175.592l4.665,10.086a5.659,5.659,0,0,0,3.992-1.817Z" transform="translate(-840.554 -664.867)"/><path class="p" d="M896.116,668.279c-.007,0-.014.008-.021.016a.483.483,0,0,1-.007-.1A.127.127,0,0,0,896.116,668.279Z" transform="translate(-878.824 -657.796)"/><path class="q" d="M892.811,677.746c.05,0,.1.013.149.02l-.391-.375C892.652,677.507,892.732,677.627,892.811,677.746Z" transform="translate(-874.526 -664.008)"/><path class="w" d="M875.215,684.855l.822,3.085,1.62,9.371c.169.635,1.277,1.157,1.83,1.431,1.489.738,4.391,1.1,8.671-.71a2.242,2.242,0,0,0,1.3-1.655l1.687-6.943.027-.14a4.885,4.885,0,0,0-.451-3.156l-1.563-3v-1.6a2.681,2.681,0,0,0-3.369-2.741l-1.516.526-4.111,1.432-3.54,1.231A2.377,2.377,0,0,0,875.215,684.855Z" transform="translate(-867.167 -664.877)"/><path class="m" d="M875.215,684.855l.822,3.085c.413.51.825,1.023,1.241,1.533a9.175,9.175,0,0,0,2.993,2.754c2.015.942,4.329.172,6.373-.695q1.9-.8,3.752-1.7c.251-.12.508-.247.75-.393l.027-.14a4.885,4.885,0,0,0-.451-3.156l-1.563-3v-1.6a2.681,2.681,0,0,0-3.369-2.741l-1.516.526-4.111,1.432-3.54,1.231A2.377,2.377,0,0,0,875.215,684.855Z" transform="translate(-867.167 -664.877)"/><path class="q" d="M897.956,685.075a.511.511,0,0,1-.3.139,2.148,2.148,0,0,1-1.4-.464,31.6,31.6,0,0,1-3.17-2.3c-.142-.117-.285-.238-.428-.358l2.409-.837,1.7-.592c.055.114.11.227.161.344a15.774,15.774,0,0,1,.771,2.069c.128.438.238.885.329,1.334A.778.778,0,0,1,897.956,685.075Z" transform="translate(-879.665 -666.216)"/><path class="w" d="M920.772,707.63c.567.049,1.135.089,1.7.1q.542.011,1.083-.015c.1,0,.172-.006.23-.007s.117-.025.21-.042.337-.088.484-.126a1.675,1.675,0,0,1,.147-.083c.015-.014.033-.032.041-.038.016-.037.031-.072.037-.092a3.143,3.143,0,0,0,.135-1.056,4.048,4.048,0,0,1,.046-.488c-1.385-2.223-4.085-3.3-5.866-4a15.416,15.416,0,0,1-1.433-.617.724.724,0,0,1,.115-.826l6.046-7.187a2.193,2.193,0,0,0-3.357-2.824l-6.023,7.16a5.116,5.116,0,0,0-.179,6.471,7.136,7.136,0,0,0,3.217,1.9A11.153,11.153,0,0,1,920.772,707.63Z" transform="translate(-913.125 -672.218)"/><path class="m" d="M871.444,708.269l-.05.1a.153.153,0,0,0,.04,0C871.434,708.342,871.441,708.305,871.444,708.269Z" transform="translate(-846.137 -684.865)"/><rect class="q" width="4.274" height="5.776" transform="translate(12.994 10.455)"/><path class="q" d="M898.834,674.771a3.208,3.208,0,0,1-.939-.4c-.114-.069-.227-.146-.337-.223a8.446,8.446,0,0,1-1.356-1.2,18.424,18.424,0,0,1-2.413-3.535V668.37h4.274V672.7A15.755,15.755,0,0,1,898.834,674.771Z" transform="translate(-880.795 -657.915)"/><path class="q" d="M896.17,673.7l4.254,2.493.02-.057v-2.74Z" transform="translate(-883.178 -661.307)"/><path class="ad" d="M884.677,643.471c.123-4.024,3.7-3.15,7.122-2.857a3.54,3.54,0,0,1,.927.163,2.817,2.817,0,0,1,.7.416c2,1.5,3.365,3.79,3.095,6.094-.506,4.325-6.622,5.966-9.909,2.777C884.84,648.343,884.605,645.8,884.677,643.471Z" transform="translate(-875.558 -638.974)"/><path class="q" d="M892.948,652.143a5.739,5.739,0,0,1-1,3.432,4.353,4.353,0,0,1-3.374,1.474,3.744,3.744,0,0,1-2.008-.442,5.264,5.264,0,0,1-1.978-3.571,11.788,11.788,0,0,1-.217-1.613,6,6,0,0,1,.179-1.827,5.253,5.253,0,0,1,2.3-3,8.282,8.282,0,0,1,3.493-1.106c.59-.074-1.335-.09-.8.213.351.2,1.358.574,1.44.983.038.148,1.865.3,1.843.451.037,1.147.074,2.285.112,3.431C892.948,651.087,892.963,651.611,892.948,652.143Z" transform="translate(-871.857 -642.432)"/><path class="ad" d="M914.371,637.853a3.459,3.459,0,1,0-3.965,4.972,3.556,3.556,0,0,0,4.114-2.054,3.507,3.507,0,0,0-1.658-4.275Z" transform="translate(-901.292 -636.157)"/><path class="ad" d="M898.2,648.378a7.753,7.753,0,0,1-1.8,2.763,4.534,4.534,0,0,1-2.982,1.288,1.782,1.782,0,0,1-1.413-.522,1.929,1.929,0,0,1-.344-.76,4.973,4.973,0,0,1,.2-3.251,3.774,3.774,0,0,1,2.4-2.128,4.244,4.244,0,0,1,3.322.653,2.055,2.055,0,0,1,1.14,2.015Z" transform="translate(-879.982 -642.572)"/><path class="h" d="M905.054,667.87l.138-.237-3.266-1.908-.138.237Z" transform="translate(-889.749 -656.129)"/><path class="q" d="M907.341,670.781a.278.278,0,0,1-.276.031.677.677,0,0,0-.018-.1Z" transform="translate(-893.605 -659.498)"/><path class="q" d="M908.356,664.857c.432-.15.859.332,1.047.881a4.8,4.8,0,0,0,.291.82.62.62,0,0,0,.312.279.93.93,0,0,1-.467,1.075,1.092,1.092,0,0,1-1.052-.424,2.314,2.314,0,0,1-.676-1.324C907.744,665.622,907.964,664.993,908.356,664.857Z" transform="translate(-896.546 -655.524)"/><path class="z" d="M891.741,664.415c-.079-.27-.253-.365-.453-.25a1.2,1.2,0,0,0-.453.773l-.129-.021a1.541,1.541,0,0,1,.582-.994c.257-.149.48-.026.583.321Z" transform="translate(-872.83 -654.87)"/><path class="h" d="M891.741,664.415c-.079-.27-.253-.365-.453-.25a1.2,1.2,0,0,0-.453.773l-.129-.021a1.541,1.541,0,0,1,.582-.994c.257-.149.48-.026.583.321Z" transform="translate(-872.83 -654.87)"/><path class="h" d="M894.341,668.25a1.333,1.333,0,0,0,.656-.2,3.063,3.063,0,0,0,1.383-2.4.935.935,0,0,0-1.521-.878,3.062,3.062,0,0,0-1.383,2.4,1.053,1.053,0,0,0,.454.97A.809.809,0,0,0,894.341,668.25Zm1.174-3.4a.543.543,0,0,1,.275.069.8.8,0,0,1,.316.732,2.758,2.758,0,0,1-1.246,2.158.668.668,0,0,1-1.109-.64A2.757,2.757,0,0,1,895,665.016,1.058,1.058,0,0,1,895.515,664.854Z" transform="translate(-878.24 -655.355)"/><path class="h" d="M883.559,662.024a1.332,1.332,0,0,0,.656-.2,3.063,3.063,0,0,0,1.383-2.4.935.935,0,0,0-1.521-.878,3.062,3.062,0,0,0-1.383,2.4,1.053,1.053,0,0,0,.454.97A.809.809,0,0,0,883.559,662.024Zm1.174-3.4a.544.544,0,0,1,.275.07.8.8,0,0,1,.316.732,2.757,2.757,0,0,1-1.246,2.158.669.669,0,0,1-1.109-.64,2.759,2.759,0,0,1,1.246-2.158A1.059,1.059,0,0,1,884.732,658.628Z" transform="translate(-863.958 -651.15)"/><path class="ad" d="M884.713,644.678l6.33,2.059a4.051,4.051,0,0,0-1.187-3.57,6.543,6.543,0,0,0-3.5-1.967,2.426,2.426,0,0,0-2.574,1.494c-.28,1.1.943,1.945,1.975,2.419Z" transform="translate(-869.811 -639.551)"/><path class="q" d="M873.041,762.994a.111.111,0,0,0,0,.033,4.607,4.607,0,0,1-.544-.055Z" transform="translate(-848.096 -721.814)"/></g></g></g></g></g><g transform="translate(1637.42 366.205)"><path class="ae" d="M557.862,761.8c-11.445-6.608-11.445-17.322,0-23.93s30-6.609,41.447,0,11.445,17.322,0,23.93S569.307,768.412,557.862,761.8Z" transform="translate(-527.657 -556.797)"/><path d="M593.154,531.126a49.459,49.459,0,0,0-.179-7.855c-.6-6.851-4.1-13.242-11.584-14.1-13.722-1.572-16.448,7.967-17.137,19.5,4.26,4.94,9.335,9.818,11.988,15.84.568,1.29,7.534,1.363,8.462.968,2.25-.958,5.011-4.755,6.3-6.77A16.434,16.434,0,0,0,593.154,531.126Z" transform="translate(-524.786 -509.004)"/><path class="h" d="M608.934,739.766a3.938,3.938,0,0,1-2.785,4.816c-3.649,1.9-7.2,3.92-11.163,5.117a6.3,6.3,0,0,1-2.788.365,2.418,2.418,0,0,1-2.045-1.711c-.224-1.064.525-2.065,1.226-2.9,2.963-3.508,6.046-7.112,10.165-9.142a7.284,7.284,0,0,1,3.911-.916,3.476,3.476,0,0,1,3.045,2.324Z" transform="translate(-560.875 -557.321)"/><path class="h" d="M575.312,750.362a8.2,8.2,0,0,1-.529,2.8,22.682,22.682,0,0,1-3.065,4.984l-2.062,2.782a14.2,14.2,0,0,1-2.343,2.665,4.782,4.782,0,0,1-3.266,1.185,1.327,1.327,0,0,1-.879-.33,1.388,1.388,0,0,1-.263-.448c-.832-2.031-.263-4.335.315-6.451.813-2.98,1.893-5.788,2.7-8.731.559-2.043,1.225-4.9,3.733-5.263C573.613,743.014,575.395,746.885,575.312,750.362Z" transform="translate(-505.469 -559.056)"/><path class="af" d="M595.05,672.266l2.641-43.851-.905-10.5-21.511,3.272-11.512-.545-.392,50.421,5.266,39.04c.122.9-1.513,1.472-1.511,2.356a3.148,3.148,0,0,0,2.933,3.2,8.369,8.369,0,0,0,4.3-1.053,5.585,5.585,0,0,0,2.493-4.651c0-.017-1.581-35.539-1.581-35.539l3.311-37.977.964,17.706,1.173,18.029,9.133,47.587c.147,1.966.81,3.479,2.564,3.479h2.32a3.6,3.6,0,0,0,3.373-3.8Z" transform="translate(-528.962 -532.251)"/><path class="h" d="M597.62,602.58l6.735,11.093s1.227,36.829-.443,57.263a27.925,27.925,0,0,1-19.244,7.376s-17.907-3.175-25.005-9.594c0,0,.3-49.393,12.258-66.459Z" transform="translate(-532.723 -528.909)"/><path class="l" d="M611.238,550.06h0a4.89,4.89,0,0,1,2.721,6.357L601.271,588.1a4.89,4.89,0,0,1-6.357,2.721h0a4.89,4.89,0,0,1-2.721-6.357l12.689-31.686A4.889,4.889,0,0,1,611.238,550.06Z" transform="translate(-567.554 -517.692)"/><path class="p" d="M591.168,543.487c.016,0,.031.017.048.035a1.1,1.1,0,0,0,.016-.227A.279.279,0,0,1,591.168,543.487Z" transform="translate(-543.945 -516.323)"/><path class="l" d="M597.744,570.573l-2.537,21.518a9.546,9.546,0,0,0-.8.61c-4.9,4.213-11.793,4.627-18.416,4.472a39.433,39.433,0,0,1-4.527-1.6,5.014,5.014,0,0,1-2.914-3.706l-4.606-17.955-.062-.311a10.957,10.957,0,0,1,1.011-7.064l3.5-6.713,1.056-3.6c.341-3.96,3.642-7.911,6.482-6.122l1.306.451,2.091.723,9.192,3.209,2.689.933,5.23,1.818a5.318,5.318,0,0,1,3.155,6.434Z" transform="translate(-530.872 -517.682)"/><path class="m" d="M599.585,563.726l-1.841,6.9c-.925,1.142-1.842,2.284-2.774,3.427-1.951,2.416-3.987,4.9-6.7,6.162-4.507,2.106-9.682.389-14.259-1.554-2.828-1.189-5.634-2.463-8.393-3.816-.559-.263-1.134-.551-1.679-.878l-.062-.311a10.954,10.954,0,0,1,1.011-7.063l3.5-6.714,1.333-4.544c.064-3.016,2.437-6.366,6.205-5.178l1.306.451,2.091.723,9.192,3.209,2.689.933,5.23,1.818A5.318,5.318,0,0,1,599.585,563.726Z" transform="translate(-530.872 -517.736)"/><path class="af" d="M591.5,555.663a25.252,25.252,0,0,1-4.966,5.649,13.743,13.743,0,0,1-4.732,3.039,5.73,5.73,0,0,1-5.37-.73,5.533,5.533,0,0,1-1.841-4.041,11.473,11.473,0,0,1,.854-4.461,24.908,24.908,0,0,1,2.083-4.32l2.091.723,9.192,3.209Z" transform="translate(-531.175 -517.924)"/><path class="m" d="M612.879,577.215l.112.23a.378.378,0,0,1-.09.007C612.9,577.379,612.887,577.3,612.879,577.215Z" transform="translate(-582.781 -523.563)"/><rect class="af" width="9.562" height="17.591" transform="translate(48.19 22.377)"/><path class="af" d="M587.781,541.405l-8.675,9.1-.045-.129v-6.13Z" transform="translate(-530.971 -515.92)"/><ellipse class="h" cx="7.306" cy="8.054" rx="7.306" ry="8.054" transform="translate(37.183 6.213)"/><path class="p" d="M578.491,533.07c.015,0,.03.017.045.034a1.008,1.008,0,0,0,.016-.217A.267.267,0,0,1,578.491,533.07Z" transform="translate(-521.294 -514.102)"/><path class="af" d="M595.689,532.534c-1.194-6.107-5.091-12.49-11.669-13.573a.7.7,0,0,1-.485-1.07.879.879,0,0,1,.1-.865c-.062-.008-.124-.018-.186-.025a5.877,5.877,0,0,0-3.754.466,3.266,3.266,0,0,0-1.518,2.151,2.569,2.569,0,0,0-.032.986l-.24,7.509c-.031,1.129-.064,2.276-.031,3.441.1,2.76.558,5.484,2.14,7.509a9.225,9.225,0,0,0,7.22,3.226c1.47.036,2.987-1.026,4.3-1.815,2.46-1.505,3.61-3.9,4.233-6.967.04-.21.068-.423.105-.635A.662.662,0,0,1,595.689,532.534Z" transform="translate(-538.12 -510.69)"/><path d="M601.014,515.172a5.527,5.527,0,0,0-2.615-3.447,4.576,4.576,0,0,0-2.511-.643,4.963,4.963,0,0,0-3.669.946c-.807.35-1.618.765-2.416,1.2a14.757,14.757,0,0,0-4.98,3.818,8.211,8.211,0,0,0-1.375,6.807,7.428,7.428,0,0,0,2.51,4.052c.2.743.7-.792.9-.049.3-2.279,1.616-1.918,3.5-3.234a46.846,46.846,0,0,1,6.11-3.177,10.616,10.616,0,0,0,3.634-2.626,4.785,4.785,0,0,0,.636-1.022A2.584,2.584,0,0,0,601.014,515.172Z" transform="translate(-547.693 -509.43)"/><path class="l" d="M609.1,595.777a6.7,6.7,0,1,0,6.7-6.5A6.6,6.6,0,0,0,609.1,595.777Z" transform="translate(-589.311 -526.139)"/><path class="af" d="M643.638,596.623h0a5.279,5.279,0,0,1-4.6,5.878l-17.48,2.714a5.28,5.28,0,0,1-5.879-4.6h0a5.28,5.28,0,0,1,4.6-5.879l17.48-2.713A5.28,5.28,0,0,1,643.638,596.623Z" transform="translate(-615.636 -526.715)"/><path class="ab" d="M643.087,606.71c-.9,1.782-3.874,3.094-7.413,3.094s-6.513-1.311-7.413-3.094l-.286-2.421V593.666h.2c.787-1.873,3.84-3.271,7.5-3.271s6.71,1.4,7.5,3.271h.2v.939Z" transform="translate(-625.038 -526.377)"/><path class="m" d="M627.976,594.007c0,2.33,3.447,4.219,7.7,4.219s7.7-1.889,7.7-4.219-3.447-4.219-7.7-4.219S627.976,591.677,627.976,594.007Z" transform="translate(-625.038 -526.247)"/><ellipse class="ag" cx="5.485" cy="3.006" rx="5.485" ry="3.006" transform="translate(5.152 64.666)"/><path d="M584.523,532.282a16.255,16.255,0,0,1-7.283-14.158,11.4,11.4,0,0,1,7.094,14.539Z" transform="translate(-526.702 -510.951)"/><path class="m" d="M563.649,589.81a46.58,46.58,0,0,1-4.064,4.864,32.577,32.577,0,0,0-3.6,4.384,19.383,19.383,0,0,0-2.125,4.173,3.648,3.648,0,0,0-.245,1.265A5.058,5.058,0,0,1,546,611.147c-2.285-2.546-2.993-5.724-2.141-9.5a26.2,26.2,0,0,1,3.574-7.984,40.381,40.381,0,0,1,4.7-5.834,38.544,38.544,0,0,0,3.229-3.81c1.492-2.133,2.04-4.6,1.281-5.741a10.359,10.359,0,0,0-2.714-2.125l-11.617-7.436a5.057,5.057,0,0,1,5.446-8.523l11.625,7.436a18.1,18.1,0,0,1,5.673,5.024C568.2,577.358,567.645,584.094,563.649,589.81Z" transform="translate(-479.531 -519.76)"/><path d="M587.8,538.122a36.814,36.814,0,0,0-.727-6.5,8.65,8.65,0,0,0-1.773-4.2,3.683,3.683,0,0,0-4.161-1.1c-2.181,1.059-2.045,4.13-1.908,6.55.794,14.06-13.358,22.341-13.21,36.249.053,5.054,2.543,9.722,4.968,14.156.512.935,1.318,2.019,2.364,1.809a2.387,2.387,0,0,0,1.255-.923,25.127,25.127,0,0,0,5.177-12.271c1.136-7.059-.048-13.394,2.83-20.1,1.04-2.422,2.742-4.5,3.928-6.853A15.031,15.031,0,0,0,587.8,538.122Z" transform="translate(-520.74 -512.639)"/><path class="af" d="M578.609,537.271a.669.669,0,0,0,.666.074,1.714,1.714,0,0,1,.044-.237Z" transform="translate(-522.154 -515.003)"/><path class="af" d="M575.952,531.313c-1.042-.361-2.073.8-2.527,2.127a11.615,11.615,0,0,1-.7,1.981,1.5,1.5,0,0,1-.754.673,2.246,2.246,0,0,0,1.129,2.6,2.635,2.635,0,0,0,2.54-1.023,5.587,5.587,0,0,0,1.631-3.2C577.428,533.159,576.9,531.641,575.952,531.313Z" transform="translate(-514.847 -513.751)"/><path class="af" d="M565.2,623a5.062,5.062,0,0,1-7.14-.388c-2.285-2.546-2.993-5.724-2.141-9.5a10.17,10.17,0,0,0,10.007,1.585,3.659,3.659,0,0,0-.245,1.265A5.053,5.053,0,0,1,565.2,623Z" transform="translate(-491.59 -531.225)"/></g></g></svg>