<svg xmlns="http://www.w3.org/2000/svg" width="592.91" height="416.349" viewBox="0 0 592.91 416.349"><defs><style>.a{fill:#8dc0ef;}.b{fill:rgba(15,0,0,0.1);}.c{fill:#c4e4f9;}.d{fill:#0f62fe;}.e{fill:#525252;}.f,.y,.z{fill:none;}.f,.y{stroke:#fff;}.f,.z{stroke-linecap:round;stroke-linejoin:round;stroke-width:2px;}.g{fill:#1f3598;}.h{fill:#647ddd;opacity:0.17;}.i{fill:#d5e8fa;}.j{fill:#eff6fc;}.k{fill:#bddcff;}.l{fill:#e2e8f2;}.m{fill:#75a3ec;}.n{fill:#ffc7cb;}.o{fill:#ff8358;}.p{fill:#577de8;}.q{fill:#f2f4fa;}.r{fill:#3772ce;}.s{fill:#fff;}.t{fill:#4568c7;}.u{fill:#a0d2ff;}.v{fill:#cacaca;mix-blend-mode:multiply;isolation:isolate;}.w{fill:#32b98e;}.x{fill:#f26c73;}.y{stroke-miterlimit:10;stroke-width:0.664px;}.z{stroke:#a0d2ff;}.aa{fill:#ebebeb;}</style></defs><g transform="translate(-1307.09 -414.651)"><g transform="translate(1307.09 722.852)"><path class="b" d="M276,660H755.693s-10.053,18.671-33.033,15.8a133.351,133.351,0,0,1-18.67-1.436c-8.617-1.436-21.543,2.872-24.416,7.181,0,0-21.543,12.926-57.448,0,0,0-33.033-14.362-56.012-1.436,0,0-17.235,18.671-61.757-4.309,0,0-11.49-7.181-31.6,7.181,0,0-20.107,17.234-58.884-7.181,0,0-21.543-5.745-45.959,5.745C367.917,681.543,319.086,688.724,276,660Z" transform="translate(-276 -581.009)"/><path class="c" d="M582.341,634.075s24.272,13.406,13.552,32.565C595.893,666.64,578.528,663.061,582.341,634.075Z" transform="translate(-267.222 -583.199)"/><path class="d" d="M611.158,623s12.926,41.65-20.107,51.7C591.051,674.7,575.253,651.724,611.158,623Z" transform="translate(-264.694 -588.031)"/><path class="d" d="M331.345,621.92s-37.082,20.482-20.7,49.752C310.64,671.672,337.171,666.2,331.345,621.92Z" transform="translate(-262.711 -597.619)"/><path class="c" d="M291.6,605s-19.748,63.633,30.718,78.991C322.319,683.991,346.456,648.885,291.6,605Z" transform="translate(-270.855 -605)"/></g><g transform="translate(1703.76 649.667)"><circle class="e" cx="130" cy="130" r="130" transform="translate(-63.76 -78.667)"/><path class="f" d="M306.845,238.162a1.7,1.7,0,0,1-1.618-1.322,5.132,5.132,0,0,0-4.958-3.808H253.3v-82.1h53.286a5.131,5.131,0,0,1,5.13,5.132v82.1Z" transform="translate(-245.405 -141.983)"/><path class="f" d="M300.707,237.331H249v-82.1" transform="translate(-249 -138.387)"/><path class="f" d="M291.563,150.932h-1.318a5.131,5.131,0,0,0-5.132,5.132v82.1h4.872a1.7,1.7,0,0,0,1.616-1.322,5.135,5.135,0,0,1,4.96-3.808H343.53V215.4" transform="translate(-218.802 -141.983)"/><path class="f" d="M318.129,170.667V150.932h-2.642" transform="translate(-193.401 -141.982)"/><line class="f" y1="5.526" transform="translate(132.622 16.844)"/><path class="f" d="M293.066,215.041h51.707V181.886" transform="translate(-212.15 -116.098)"/><line class="f" x2="9.473" transform="translate(61.575 27.896)"/><line class="f" x2="9.473" transform="translate(61.575 35.79)"/><line class="f" x2="9.473" transform="translate(61.575 43.684)"/><line class="f" x2="9.473" transform="translate(61.575 51.578)"/><line class="f" x2="9.473" transform="translate(61.575 59.472)"/><line class="f" x2="9.473" transform="translate(61.575 67.367)"/><line class="f" x2="9.473" transform="translate(61.575 75.261)"/><line class="f" x2="9.473" transform="translate(61.575 83.155)"/><line class="f" x2="9.473" transform="translate(61.575 20.002)"/><path class="f" d="M314.011,213.418l37.43-37.43a6.256,6.256,0,0,0,0-8.843l-3.634-3.634a6.253,6.253,0,0,0-8.843,0l-37.43,37.43-1.559,14.42Z" transform="translate(-206.373 -132.995)"/><line class="f" x2="12.476" y2="12.477" transform="translate(99.127 63.98)"/><line class="f" x2="12.476" y2="12.476" transform="translate(127.968 35.139)"/><line class="f" x2="31.508" transform="translate(19.342 23.674)"/><line class="f" x2="31.508" transform="translate(19.342 32.855)"/><line class="f" x2="31.508" transform="translate(19.342 42.037)"/><line class="f" x2="31.508" transform="translate(19.342 51.218)"/><line class="f" x2="31.508" transform="translate(19.342 60.399)"/><line class="f" x2="18.654" transform="translate(19.342 69.58)"/><path class="f" d="M327.779,159.22l-1.858-4.486a.823.823,0,0,0-1.017-.468l-4.179,1.366a.833.833,0,0,1-.889-.255,12.886,12.886,0,0,0-1.311-1.318.832.832,0,0,1-.255-.887L319.633,149a.823.823,0,0,0-.468-1.017l-4.486-1.858a.824.824,0,0,0-1.048.389l-1.987,3.917a.831.831,0,0,1-.808.446,13.108,13.108,0,0,0-1.86.006.836.836,0,0,1-.81-.446l-1.989-3.922a.826.826,0,0,0-1.05-.389l-4.486,1.858a.824.824,0,0,0-.466,1.017l1.366,4.179a.834.834,0,0,1-.257.889,13.045,13.045,0,0,0-1.317,1.311.834.834,0,0,1-.889.255l-4.176-1.364a.822.822,0,0,0-1.016.468l-1.858,4.486a.822.822,0,0,0,.387,1.049l3.919,1.987a.831.831,0,0,1,.446.808,13.386,13.386,0,0,0,0,1.86.83.83,0,0,1-.446.81l-3.922,1.989a.823.823,0,0,0-.387,1.05l1.858,4.486a.823.823,0,0,0,1.016.466l4.181-1.366a.832.832,0,0,1,.887.257,13.276,13.276,0,0,0,1.313,1.318.833.833,0,0,1,.255.887L300.174,179a.823.823,0,0,0,.466,1.015l4.486,1.858a.823.823,0,0,0,1.05-.387l1.987-3.919a.831.831,0,0,1,.808-.446,13.385,13.385,0,0,0,1.86,0,.83.83,0,0,1,.81.446l1.989,3.922a.822.822,0,0,0,1.048.387l4.486-1.858a.822.822,0,0,0,.468-1.015l-1.366-4.181a.834.834,0,0,1,.255-.887,12.91,12.91,0,0,0,1.318-1.313.835.835,0,0,1,.887-.255l4.176,1.364a.824.824,0,0,0,1.017-.466l1.858-4.486a.826.826,0,0,0-.389-1.05l-3.917-1.987a.831.831,0,0,1-.446-.808,13.111,13.111,0,0,0-.006-1.86.836.836,0,0,1,.446-.81l3.922-1.989A.824.824,0,0,0,327.779,159.22Z" transform="translate(-213.071 -146.058)"/><path class="f" d="M309.985,156.262a5.981,5.981,0,1,1-7.815-3.237A5.982,5.982,0,0,1,309.985,156.262Z" transform="translate(-207.626 -140.614)"/></g><g transform="translate(1413.158 593.383)"><path class="a" d="M2038.455,945.1a4.22,4.22,0,0,1-3.821,0,1.165,1.165,0,0,1,0-2.207,4.222,4.222,0,0,1,3.821,0A1.165,1.165,0,0,1,2038.455,945.1Z" transform="translate(-1887.386 -749.402)"/><path class="g" d="M2109.155,803.117c-4.216-4.883-8.962,2.047-11.2,4.92-1.524,1.953-6.822,7.136-6.241,9.856.2.954.318.909,1.26,1.162a5.9,5.9,0,0,0,2.891-.108,16.48,16.48,0,0,0,11.171-8.312c.092,1.2.115,2.392.1,3.59a.344.344,0,0,0,.533.28q.7-.454,1.368-.946c1.668-1.232.932-2.978,1.384-4.964A6.226,6.226,0,0,0,2109.155,803.117Z" transform="translate(-1900.768 -716.769)"/><path class="h" d="M1911.35,927.77c-10.728-6.193-28.12-6.193-38.846,0s-10.727,16.235,0,22.428,28.118,6.193,38.846,0S1922.076,933.964,1911.35,927.77Z" transform="translate(-1848.188 -744.933)"/><path class="h" d="M2081.689,849.473l-142.844-81.239L1850.5,821.275a1.588,1.588,0,0,0,.037,2.746L1989.4,902.309a9.287,9.287,0,0,0,9.405-.09l82.915-49.758A1.732,1.732,0,0,0,2081.689,849.473Z" transform="translate(-1844.78 -709.089)"/><path class="a" d="M2039.247,878.374V928.6a.562.562,0,0,1-.041.2.443.443,0,0,1-.391.237h-4.542a.445.445,0,0,1-.391-.237.556.556,0,0,1-.041-.2V878.374a.435.435,0,0,1,.432-.433h4.542A.435.435,0,0,1,2039.247,878.374Z" transform="translate(-1887.385 -734.477)"/><path class="a" d="M2039.247,886.977a.389.389,0,0,1-.049.188.891.891,0,0,1,.049.285,1.329,1.329,0,0,1-.792,1.1,4.213,4.213,0,0,1-3.824,0,1.331,1.331,0,0,1-.791-1.1.865.865,0,0,1,.049-.285.379.379,0,0,1-.049-.187v-8.6a.435.435,0,0,1,.432-.433h4.542a.435.435,0,0,1,.432.433Z" transform="translate(-1887.385 -734.477)"/><path class="a" d="M1851.27,841.272a4.223,4.223,0,0,1-3.821,0,1.165,1.165,0,0,1,0-2.207,4.221,4.221,0,0,1,3.821,0A1.165,1.165,0,0,1,1851.27,841.272Z" transform="translate(-1844.069 -725.375)"/><path class="a" d="M1852.061,774.544v50.23a.55.55,0,0,1-.041.2.441.441,0,0,1-.391.237h-4.542a.445.445,0,0,1-.392-.237.565.565,0,0,1-.04-.2v-50.23a.435.435,0,0,1,.432-.433h4.542A.435.435,0,0,1,1852.061,774.544Z" transform="translate(-1844.069 -710.449)"/><path class="a" d="M1852.061,783.146a.383.383,0,0,1-.048.188.882.882,0,0,1,.048.285,1.328,1.328,0,0,1-.791,1.1,4.214,4.214,0,0,1-3.824,0,1.329,1.329,0,0,1-.791-1.1.864.864,0,0,1,.049-.285.376.376,0,0,1-.049-.188v-8.6a.435.435,0,0,1,.432-.433h4.542a.435.435,0,0,1,.432.433Z" transform="translate(-1844.069 -710.449)"/><path class="a" d="M2152.15,878.625a4.222,4.222,0,0,1-3.822,0,1.165,1.165,0,0,1,0-2.207,4.227,4.227,0,0,1,3.822,0A1.164,1.164,0,0,1,2152.15,878.625Z" transform="translate(-1913.697 -734.019)"/><path class="a" d="M2152.943,811.9v50.23a.571.571,0,0,1-.042.2.442.442,0,0,1-.391.236h-4.542a.441.441,0,0,1-.39-.236.559.559,0,0,1-.041-.2V811.9a.435.435,0,0,1,.431-.432h4.542A.436.436,0,0,1,2152.943,811.9Z" transform="translate(-1913.697 -719.093)"/><path class="a" d="M2152.943,825.412a.393.393,0,0,1-.049.188.911.911,0,0,1,.049.285,1.33,1.33,0,0,1-.791,1.1,4.216,4.216,0,0,1-3.825,0,1.328,1.328,0,0,1-.791-1.1.9.9,0,0,1,.048-.285.389.389,0,0,1-.048-.188v-8.6a.435.435,0,0,1,.431-.432h4.542a.435.435,0,0,1,.433.432Z" transform="translate(-1913.697 -720.23)"/><path class="i" d="M1843.69,761.735l-.01,10.774,16.041,5.923-.819-5.87Z" transform="translate(-1843.38 -707.585)"/><path class="i" d="M2156.639,812.031V802.41l-17.78,11.431,1.188,3.165Z" transform="translate(-1911.688 -716.998)"/><path class="i" d="M1845.753,754.328l83.3-48.694a18.87,18.87,0,0,1,18.883-.095l137.5,78.535a4.972,4.972,0,0,1,.02,8.622l-84.649,48.886a18.87,18.87,0,0,1-18.877,0l-136.155-78.658A4.971,4.971,0,0,1,1845.753,754.328Z" transform="translate(-1843.29 -694.006)"/><path class="j" d="M1846.143,742.553l83.3-48.693a18.872,18.872,0,0,1,18.883-.1l137.5,78.536a4.97,4.97,0,0,1,.021,8.621L2001.2,829.809a18.87,18.87,0,0,1-18.877,0L1846.165,751.15A4.971,4.971,0,0,1,1846.143,742.553Z" transform="translate(-1843.38 -691.281)"/><path class="a" d="M1963.108,812.3l-42.284-24.413c-1.919-1.108-1.919-2.9,0-4.012l16.622-9.6a7.678,7.678,0,0,1,6.949,0l42.285,24.413c1.919,1.109,1.919,2.9,0,4.012l-16.623,9.6A7.677,7.677,0,0,1,1963.108,812.3Z" transform="translate(-1860.899 -710.295)"/><path class="a" d="M1919.384,785.658v4.01l47.2,26.287,21.536-12.434v-3.046Z" transform="translate(-1860.899 -713.121)"/><path class="k" d="M1963.108,808.334l-42.284-24.414c-1.919-1.107-1.919-2.9,0-4.012l16.622-9.6a7.682,7.682,0,0,1,6.949,0l42.285,24.414c1.919,1.108,1.919,2.9,0,4.012l-16.623,9.6A7.681,7.681,0,0,1,1963.108,808.334Z" transform="translate(-1860.899 -709.377)"/><path class="k" d="M1975.7,804.506l-40.969-23.654,3.6-2.078,40.969,23.654Z" transform="translate(-1864.45 -711.528)"/><path class="k" d="M1967.665,809.144,1926.7,785.49l3.6-2.078,40.969,23.654Z" transform="translate(-1862.591 -712.601)"/><path class="l" d="M1935.79,780.994l40.154,23.184,2.785-1.608-40.155-23.184Z" transform="translate(-1864.696 -711.67)"/><path class="l" d="M1927.757,785.632l40.154,23.184,2.784-1.609-40.154-23.183Z" transform="translate(-1862.836 -712.743)"/><path class="l" d="M1943.607,775.726l40.154,23.184,2.785-1.609-40.154-23.183Z" transform="translate(-1866.505 -710.451)"/><path class="m" d="M2037.893,819.187c0,2.689-4.1,4.868-9.165,4.868s-9.165-2.18-9.165-4.868,4.1-4.868,9.165-4.868S2037.893,816.5,2037.893,819.187Z" transform="translate(-1884.082 -719.754)"/><ellipse class="k" cx="9.165" cy="4.867" rx="9.165" ry="4.867" transform="translate(135.482 92.152)"/><path class="g" d="M2037.267,906.847l.936-.544c.142-.082.142-.216,0-.3l-.94-.543a.573.573,0,0,0-.518,0l-.935.544a.159.159,0,0,0,0,.3l.94.543a.571.571,0,0,0,.518,0Z" transform="translate(-1887.816 -740.83)"/><rect class="g" width="3.649" height="8.749" rx="1.584" transform="translate(93.872 176.441)"/><path class="n" d="M1965.677,858.4l.13,2.8,1.615,39.435c-.006.148-.019.118-.027.055a5.81,5.81,0,0,0-.373,2.079c2.43,1.776,4.514,2.766,7.76,2.6a27.693,27.693,0,0,1,.5-5.74c.057-.42,3.187-39.4,3.187-39.4V860.2C1973.662,860.32,1970.481,858.137,1965.677,858.4Z" transform="translate(-1871.612 -729.95)"/><path class="g" d="M1976.4,924.068c3.131,2.214,2.827,4.288,7.525,3.131a8.71,8.71,0,0,0,4.066-1.947,3.218,3.218,0,0,0,.77-3.89,5.2,5.2,0,0,0-3.4-1.89,20.937,20.937,0,0,0-6.741-.39,5.75,5.75,0,0,0-3.028.994C1973.921,921.421,1975,923.074,1976.4,924.068Z" transform="translate(-1873.71 -743.971)"/><path class="n" d="M1973.387,914.245a8.205,8.205,0,0,1,2.115,1.519,30.337,30.337,0,0,1,6.414,6.554c-.49,1.452-2.081,2.506-3.823,3.029a26,26,0,0,1-2.977-1.054,16.226,16.226,0,0,1-6.575-5.452c-.2-.287-.39-.674-.193-.962l2.621-2.538c2.628-2.543,6.513,1.086,9.161,2.469,1,.523,2.138,1.249,2.176,2.377.037,1.056-.937,1.861-1.892,2.313a9.078,9.078,0,0,1-2.985.828Z" transform="translate(-1872.211 -742.878)"/><path class="g" d="M1965.981,914.8a4.166,4.166,0,0,1,3.8.552c1.839,1.11,3.2,2.926,4.81,4.323,2.215,1.925,4.445,3,7.154,1.764.892.542,1.517,1.166,1.488,1.885-.039,1.048-1.917,2.392-2.746,2.962-2.6,1.791-6.786-1.084-8.9-2.16-1.668-.849-3.435-.691-5.024-1.4C1964.428,921.773,1963.748,916.807,1965.981,914.8Z" transform="translate(-1871.363 -742.949)"/><rect class="g" width="3.649" height="8.749" rx="1.584" transform="translate(71.893 162.544)"/><path class="o" d="M1936.615,851.965l.13-1.277,1.615,34.543c-.006.148-.019.118-.028.055a5.807,5.807,0,0,0-.373,2.079c2.43,1.776,4.514,2.767,7.76,2.6a27.7,27.7,0,0,1,.5-5.741c.057-.42,2.371-32.876,2.371-32.876v-.034C1943.784,851.436,1941.42,851.7,1936.615,851.965Z" transform="translate(-1864.886 -728.17)"/><path class="g" d="M1947.341,906.338c3.13,2.214,2.827,4.288,7.524,3.131a8.717,8.717,0,0,0,4.066-1.948,3.219,3.219,0,0,0,.77-3.89,5.2,5.2,0,0,0-3.4-1.889,20.957,20.957,0,0,0-6.741-.39,5.753,5.753,0,0,0-3.028.994C1944.859,903.691,1945.936,905.345,1947.341,906.338Z" transform="translate(-1866.985 -739.868)"/><path class="o" d="M1944.325,896.515a8.245,8.245,0,0,1,2.115,1.519,30.359,30.359,0,0,1,6.414,6.554c-.49,1.452-2.081,2.506-3.823,3.028a26.01,26.01,0,0,1-2.977-1.054,16.222,16.222,0,0,1-6.575-5.451c-.2-.287-.39-.674-.193-.962l2.622-2.538c2.628-2.543,6.513,1.087,9.161,2.469,1,.523,2.138,1.249,2.177,2.378.036,1.055-.937,1.86-1.892,2.312a9.068,9.068,0,0,1-2.985.828Z" transform="translate(-1865.486 -738.775)"/><path class="g" d="M1936.919,897.067a4.165,4.165,0,0,1,3.8.552c1.839,1.111,3.2,2.926,4.81,4.324,2.214,1.926,4.445,3,7.154,1.765.892.541,1.516,1.165,1.488,1.884-.04,1.048-1.917,2.392-2.746,2.961-2.6,1.791-6.787-1.084-8.9-2.16-1.668-.849-3.435-.691-5.024-1.4C1935.365,904.043,1934.687,899.077,1936.919,897.067Z" transform="translate(-1864.638 -738.846)"/><path class="p" d="M2017.766,695.8v0Z" transform="translate(-1850.83 -673.37)"/><path class="q" d="M2014.913,758.245c0,1.566-1.1,2.2-2.456,1.418a5.427,5.427,0,0,1-2.456-4.254c0-1.566,1.1-2.2,2.456-1.418A5.428,5.428,0,0,1,2014.913,758.245Z" transform="translate(-1881.869 -705.715)"/><path class="o" d="M1910.213,806.978a25.558,25.558,0,0,1-.088-2.92c.606-1.271,1.148-2.418,1.142-2.515l19.064-13.233a3.455,3.455,0,0,1,2.5-.914,3.516,3.516,0,0,1,.5.056,3.442,3.442,0,0,1,1.912,1.062,3.477,3.477,0,0,1-.205,4.908l-18.688,16.068-.045.038A3.759,3.759,0,0,1,1910.213,806.978Z" transform="translate(-1858.754 -713.523)"/><path class="n" d="M1941.7,795.2c-2.29,2.128-5.513,2.383-7.2.569s-1.2-5.01,1.094-7.137,5.513-2.383,7.2-.569S1943.986,793.075,1941.7,795.2Z" transform="translate(-1864.164 -713.398)"/><path class="g" d="M1956.575,852.406l-11.612-6.654c-4.493-2.25-8.032.546-12.852,1.965l.612-.612-2.267-3.539-26.828-1.892c-9.394,5.325-11.212,28.165-11.212,28.165l.009.171h0c-1.111,9.27,13.332,16.237,24.477,17.935a18.3,18.3,0,0,0,11.4-2l1.865-1,26.9-14.449C1965.178,865.909,1964.892,856.589,1956.575,852.406Z" transform="translate(-1854.646 -726.084)"/><path class="l" d="M1903.405,825.021a34.63,34.63,0,0,1-.086,4.715,2.188,2.188,0,0,0,1,2.044,28.885,28.885,0,0,0,4.208,2.19c4.217,1.768,9.052,2.765,13.552,1.768.18-.042.352-.086.532-.128,2.586-.662,8.21-2.19,8.717-5.393a1.548,1.548,0,0,0,.042-.395c-.008-.3-.025-.611-.042-.919V814.526c1.4-4.165,3.968-7.136,2.688-12.427a18.811,18.811,0,0,0-3-6.733c-2.371-3.264-5.788-5.282-10.151-6.553-1.383-.395-2.749-.722-3.985-.979a24.565,24.565,0,0,0-8-.3c-2.808.362-5.5,1.314-7.171,3.187a6.448,6.448,0,0,0-.6.755c-3.332,5-1.563,11.989-.353,17.416C1901.945,814.226,1903.2,819.585,1903.405,825.021Z" transform="translate(-1856.224 -713.51)"/><path class="r" d="M1928.528,777.345c-.017,0-.033.018-.05.037a1.12,1.12,0,0,1-.017-.238A.292.292,0,0,0,1928.528,777.345Z" transform="translate(-1862.999 -711.151)"/><path class="n" d="M1912.585,790.287h4.091a7.029,7.029,0,0,0,6.932-5.867l.255-1.523.929-5.571h-10.04Z" transform="translate(-1859.325 -711.193)"/><path class="o" d="M1918.75,779.868l4.984,7.572h.318l1.238-7.389Z" transform="translate(-1860.752 -711.781)"/><path class="o" d="M1927.376,774.289a.843.843,0,0,1-.64.052c-.022-.055-.01-.115-.042-.168Z" transform="translate(-1862.59 -710.463)"/><path class="o" d="M1931.412,782.632c.117.008.234.032.35.047l-.92-.881C1931.038,782.071,1931.224,782.351,1931.412,782.632Z" transform="translate(-1863.551 -712.228)"/><path class="o" d="M1911.877,790.645c1.571,2.3,6.817,1.476,11.825-1.826-1.389-.4-2.754-.73-3.992-.984a24.8,24.8,0,0,0-8-.3A3.459,3.459,0,0,0,1911.877,790.645Z" transform="translate(-1859.058 -713.51)"/><path class="r" d="M1928.151,771.622c-.017,0-.032.021-.047.041a1.175,1.175,0,0,1-.04-.235A.293.293,0,0,0,1928.151,771.622Z" transform="translate(-1862.907 -709.828)"/><path class="n" d="M1930.852,762.176c.195,2.958-.016,5.919-1.523,8.257-1.656,2.6-4.63,3.874-7.536,4.246a8.8,8.8,0,0,1-4.8-.558c-2.849-1.335-4.457-4.672-5.469-7.876a27.692,27.692,0,0,1-.889-3.72,14.1,14.1,0,0,1-.013-4.31,12.334,12.334,0,0,1,4.662-7.55,19.456,19.456,0,0,1,7.9-3.413,6.583,6.583,0,0,1,4.149.081,3.513,3.513,0,0,1,1.891,2.129,2.685,2.685,0,0,1,.141,1.049l1.075,7.993C1930.6,759.708,1930.761,760.929,1930.852,762.176Z" transform="translate(-1858.834 -704.165)"/><path d="M1906.99,757.8a18.6,18.6,0,0,0,1.806,6.409,16.608,16.608,0,0,0,5.68,6.838c2.008,1.257,5.948,2.234,7.643-.016,1.662-2.207.25-5.708,1.893-7.928a7.611,7.611,0,0,1,1.816-1.562,14.332,14.332,0,0,0,3.847-3.723c2.48-3.806,1.313-10.866-2.907-13.1a14.243,14.243,0,0,0-11.152-.549,12.747,12.747,0,0,0-3.216,1.809c-.054.048-.109.087-.179.144A13.878,13.878,0,0,0,1906.99,757.8Z" transform="translate(-1858.021 -703.316)"/><path class="o" d="M1926.7,768.7a.839.839,0,0,1-.632.117c-.028-.052-.022-.114-.059-.162Z" transform="translate(-1862.431 -709.186)"/><path class="o" d="M1923.32,769.466a4.8,4.8,0,0,0,1.242,2.659,5.151,5.151,0,0,0,1.37,1.284,2.209,2.209,0,0,0,1.811.248c1.851-.655,1.389-3.427.662-4.737a3.362,3.362,0,0,0-2.743-1.792A2.244,2.244,0,0,0,1923.32,769.466Z" transform="translate(-1861.809 -708.833)"/><path class="s" d="M1929.6,805.657c1.287-2.3,2.389-3.958,5.158-3.511a35.951,35.951,0,0,1,5.652,1.665c.178.547.347,1.107.492,1.7,1.28,5.29-1.288,8.261-2.687,12.427v14.376c.017.309.034.619.042.919a1.571,1.571,0,0,1-.042.4c-.507,3.2-6.132,4.731-8.717,5.393l-.532.128V806.512A4.169,4.169,0,0,0,1929.6,805.657Z" transform="translate(-1863.117 -716.92)"/><path class="g" d="M1921.826,746.8l-.427.043Z" transform="translate(-1861.364 -704.129)"/><path class="n" d="M1944.255,834.121a25.234,25.234,0,0,1-.087-2.92c.607-1.271,1.148-2.418,1.142-2.515l19.064-13.233a3.455,3.455,0,0,1,2.5-.914,3.5,3.5,0,0,1,.5.056,3.442,3.442,0,0,1,1.913,1.062,3.478,3.478,0,0,1-.2,4.908l-18.687,16.068-.046.038A3.758,3.758,0,0,1,1944.255,834.121Z" transform="translate(-1866.631 -719.804)"/><path class="n" d="M1975.739,822.345c-2.29,2.128-5.513,2.383-7.2.569s-1.2-5.01,1.094-7.137,5.513-2.383,7.2-.569S1978.028,820.217,1975.739,822.345Z" transform="translate(-1872.042 -719.679)"/><path class="n" d="M1971.343,815.338h0a1.5,1.5,0,0,1,.077-2.113l6.577-6.11a1.493,1.493,0,0,1,2.111.078h0a1.494,1.494,0,0,1-.077,2.112l-6.575,6.11A1.5,1.5,0,0,1,1971.343,815.338Z" transform="translate(-1872.83 -717.994)"/><path class="k" d="M1943.949,833.988l-.069.026a4.932,4.932,0,0,1-6.356-3.543l-6.163-24.659a5.152,5.152,0,0,1,10-2.5l2.431,9.722,2.4,9.576h0C1947.244,827.194,1949.426,831.948,1943.949,833.988Z" transform="translate(-1863.635 -716.304)"/><path d="M1917.636,759.522c-.054-.466-.1-.933-.128-1.4-.251-4,.494-8.244-2.99-11.231-2.424-2.077-5.928-2.2-9.115-2.009-3.485.2-7.084.686-10.044,2.535-5.558,3.471-5.532,12.239-3.876,17.875a44.5,44.5,0,0,1,1.489,6.947c-.041,3.611-2.128,5.442-6.244,6.135a9.147,9.147,0,0,0-6.948,5.411,12.8,12.8,0,0,0-1.08,4.624c-.242,4.973-.717,6.354-6.5,8.12a12.932,12.932,0,0,0-8.091,7.232c-4.061,8.879.121,21.712,9.343,28.663s19.988,5.388,24.05-3.492a20,20,0,0,0,.982-12.59c-1.617-7.324-.916-8.544,2.323-11.222a.292.292,0,0,0,.027-.025,9.6,9.6,0,0,0,2.621-3.462,14.772,14.772,0,0,0,.3-10.422c-1.539-4.955-1.31-8.188,1.127-9.992a23.409,23.409,0,0,1,5.448-1.719,9.959,9.959,0,0,0,7.336-5.85C1919.831,768.916,1918.2,764.3,1917.636,759.522Z" transform="translate(-1847.749 -703.67)"/><path class="t" d="M1873.809,955.385a6.252,6.252,0,0,1,2.828-4.9c1.563-.9,2.828-.171,2.83,1.633a6.25,6.25,0,0,1-2.83,4.9C1875.076,957.92,1873.809,957.189,1873.809,955.385Z" transform="translate(-1850.352 -751.175)"/><path class="t" d="M1873.809,955.385a6.252,6.252,0,0,1,2.828-4.9c1.563-.9,2.828-.171,2.83,1.633a6.25,6.25,0,0,1-2.83,4.9C1875.076,957.92,1873.809,957.189,1873.809,955.385Z" transform="translate(-1850.352 -751.175)"/><path class="t" d="M1878.914,950.414l2.438,1.27-3.826,6.974-2.854-1.485.724-3.928Z" transform="translate(-1850.552 -751.248)"/><path class="a" d="M1876.937,957.007a6.251,6.251,0,0,1,2.828-4.9c1.562-.9,2.828-.171,2.828,1.633a6.253,6.253,0,0,1-2.828,4.9C1878.2,959.542,1876.937,958.812,1876.937,957.007Z" transform="translate(-1851.076 -751.55)"/><path class="l" d="M1876.937,957.007a6.251,6.251,0,0,1,2.828-4.9c1.562-.9,2.828-.171,2.828,1.633a6.253,6.253,0,0,1-2.828,4.9C1878.2,959.542,1876.937,958.812,1876.937,957.007Z" transform="translate(-1851.076 -751.55)"/><path class="t" d="M1918.062,930.651a6.255,6.255,0,0,1,2.828-4.9c1.562-.9,2.829-.171,2.829,1.633a6.25,6.25,0,0,1-2.829,4.9C1919.329,933.186,1918.062,932.455,1918.062,930.651Z" transform="translate(-1860.593 -745.451)"/><path class="t" d="M1918.062,930.651a6.255,6.255,0,0,1,2.828-4.9c1.562-.9,2.829-.171,2.829,1.633a6.25,6.25,0,0,1-2.829,4.9C1919.329,933.186,1918.062,932.455,1918.062,930.651Z" transform="translate(-1860.593 -745.451)"/><path class="t" d="M1923.167,925.68l2.438,1.27-3.827,6.974-2.854-1.485.724-3.928Z" transform="translate(-1860.792 -745.524)"/><path class="a" d="M1921.19,932.273a6.25,6.25,0,0,1,2.828-4.9c1.562-.9,2.829-.171,2.829,1.633a6.254,6.254,0,0,1-2.829,4.9C1922.456,934.808,1921.19,934.077,1921.19,932.273Z" transform="translate(-1861.317 -745.827)"/><path class="l" d="M1921.19,932.273a6.25,6.25,0,0,1,2.828-4.9c1.562-.9,2.829-.171,2.829,1.633a6.254,6.254,0,0,1-2.829,4.9C1922.456,934.808,1921.19,934.077,1921.19,932.273Z" transform="translate(-1861.317 -745.827)"/><path class="t" d="M1915.986,956.477a6.249,6.249,0,0,1,2.828-4.9c1.562-.9,2.828-.171,2.828,1.632a6.252,6.252,0,0,1-2.828,4.9C1917.252,959.012,1915.986,958.28,1915.986,956.477Z" transform="translate(-1860.112 -751.428)"/><path class="t" d="M1915.986,956.477a6.249,6.249,0,0,1,2.828-4.9c1.562-.9,2.828-.171,2.828,1.632a6.252,6.252,0,0,1-2.828,4.9C1917.252,959.012,1915.986,958.28,1915.986,956.477Z" transform="translate(-1860.112 -751.428)"/><path class="t" d="M1921.09,951.506l2.437,1.27-3.826,6.974-2.854-1.485.724-3.928Z" transform="translate(-1860.312 -751.5)"/><path class="a" d="M1919.113,958.1a6.252,6.252,0,0,1,2.829-4.9c1.562-.9,2.828-.171,2.828,1.633a6.251,6.251,0,0,1-2.828,4.9C1920.38,960.635,1919.113,959.9,1919.113,958.1Z" transform="translate(-1860.836 -751.803)"/><path class="l" d="M1919.113,958.1a6.252,6.252,0,0,1,2.829-4.9c1.562-.9,2.828-.171,2.828,1.633a6.251,6.251,0,0,1-2.828,4.9C1920.38,960.635,1919.113,959.9,1919.113,958.1Z" transform="translate(-1860.836 -751.803)"/><path class="t" d="M1873.025,931.569a6.254,6.254,0,0,1,2.828-4.9c1.562-.9,2.829-.171,2.829,1.633a6.25,6.25,0,0,1-2.829,4.9C1874.292,934.1,1873.025,933.373,1873.025,931.569Z" transform="translate(-1850.17 -745.664)"/><path class="t" d="M1873.025,931.569a6.254,6.254,0,0,1,2.828-4.9c1.562-.9,2.829-.171,2.829,1.633a6.25,6.25,0,0,1-2.829,4.9C1874.292,934.1,1873.025,933.373,1873.025,931.569Z" transform="translate(-1850.17 -745.664)"/><path class="t" d="M1878.129,926.6l2.438,1.27-3.827,6.974-2.854-1.485.723-3.928Z" transform="translate(-1850.37 -745.736)"/><path class="a" d="M1876.153,933.192a6.25,6.25,0,0,1,2.828-4.9c1.562-.9,2.828-.171,2.828,1.633a6.252,6.252,0,0,1-2.828,4.9C1877.419,935.727,1876.153,935,1876.153,933.192Z" transform="translate(-1850.894 -746.039)"/><path class="l" d="M1876.153,933.192a6.25,6.25,0,0,1,2.828-4.9c1.562-.9,2.828-.171,2.828,1.633a6.252,6.252,0,0,1-2.828,4.9C1877.419,935.727,1876.153,935,1876.153,933.192Z" transform="translate(-1850.894 -746.039)"/><path class="j" d="M1913.7,941.974l-12.516-7.226,12.516-7.226c2.054-1.186,2.054-3.127,0-4.313h0a8.289,8.289,0,0,0-7.471,0l-12.516,7.226-12.516-7.226a8.288,8.288,0,0,0-7.471,0c-2.054,1.187-2.054,3.127,0,4.313l12.516,7.226-12.516,7.226c-2.054,1.186-2.054,3.128,0,4.314h0a8.289,8.289,0,0,0,7.471,0l12.516-7.226,12.516,7.226a8.289,8.289,0,0,0,7.471,0C1915.756,945.1,1915.756,943.16,1913.7,941.974Z" transform="translate(-1849.977 -744.746)"/><path class="j" d="M1913.7,941.974l-12.516-7.226,12.516-7.226c2.054-1.186,2.054-3.127,0-4.313h0a8.289,8.289,0,0,0-7.471,0l-12.516,7.226-12.516-7.226a8.288,8.288,0,0,0-7.471,0c-2.054,1.187-2.054,3.127,0,4.313l12.516,7.226-12.516,7.226c-2.054,1.186-2.054,3.128,0,4.314h0a8.289,8.289,0,0,0,7.471,0l12.516-7.226,12.516,7.226a8.289,8.289,0,0,0,7.471,0C1915.756,945.1,1915.756,943.16,1913.7,941.974Z" transform="translate(-1849.977 -744.746)"/><path class="a" d="M1892,936.342c0,2.338,2.821,4.233,6.3,4.233s6.3-1.9,6.3-4.233-2.823-6.213-6.3-6.213S1892,934,1892,936.342Z" transform="translate(-1854.561 -746.553)"/><path class="j" d="M1894.18,933.235c0,1.716,2.07,3.107,4.625,3.107s4.624-1.391,4.624-3.107-2.07-3.106-4.624-3.106S1894.18,931.52,1894.18,933.235Z" transform="translate(-1855.066 -746.553)"/><path class="a" d="M1899.346,890.8a2.848,2.848,0,0,0-2.829,2.868v27.6a2.829,2.829,0,1,0,5.657,0v-27.6A2.848,2.848,0,0,0,1899.346,890.8Z" transform="translate(-1855.607 -737.452)"/><path class="u" d="M1944.507,874.5c0,.154,0,.318-.016.481a14.069,14.069,0,0,1-7.257,11.269l-30.855,16.919a8.175,8.175,0,0,1-1.459.628,8.424,8.424,0,0,1-6.891-.75l-35.341-20.826a19.289,19.289,0,0,1-9.411-14.825l-3.7-39.613-.384-4.118a4.4,4.4,0,0,1,6.328-4.354l38.252,18.926A4.4,4.4,0,0,1,1896,840.8l12.232,37.118a5.107,5.107,0,0,0,7.38,2.838l19.961-11.416A5.973,5.973,0,0,1,1944.507,874.5Z" transform="translate(-1844.651 -720.802)"/><path class="t" d="M1903.987,903.9a2.452,2.452,0,0,1-2.646,3.293,8.412,8.412,0,0,1-3.106-1.084l-35.341-20.826a19.286,19.286,0,0,1-9.41-14.825l-3.408-36.472a1.761,1.761,0,0,1,2.534-1.742l30.866,15.261a4.418,4.418,0,0,1,2.226,2.569l12.223,37.118C1898.347,888.48,1900.931,895.878,1903.987,903.9Z" transform="translate(-1844.859 -723.858)"/></g><g transform="translate(1433.801 414.651)"><path class="v" d="M2325.625,372.073,2116.092,250.319c-3.859-2.466-7.188-.784-7.435,3.755l-1.032,18.991-7.837,144.276a15.624,15.624,0,0,0,6.542,12.685L2315.862,551.78c3.86,2.466,7.188.785,7.435-3.754l7.838-144.276,1.031-18.992A15.626,15.626,0,0,0,2325.625,372.073Z" transform="translate(-2090.942 -249.183)"/><path class="p" d="M2318.765,418.237l-7.842,144.273c-.246,4.544-3.576,6.22-7.435,3.759l-118.5-68.86-91.028-52.9a15.613,15.613,0,0,1-6.543-12.679l7.835-144.28,98.277,57.458Z" transform="translate(-2087.402 -260.165)"/><path class="s" d="M2322.942,389.67l-1.022,18.891-.008.1-125.235-73.228L2098.4,277.975l.092-1.676.938-17.315c.246-4.536,3.576-6.22,7.435-3.752L2316.4,376.984A15.625,15.625,0,0,1,2322.942,389.67Z" transform="translate(-2090.549 -250.589)"/><path class="w" d="M2392.843,440.9a6.831,6.831,0,0,0,2.973,5.488c1.71,1.044,3.15.279,3.217-1.708a6.832,6.832,0,0,0-2.974-5.487C2394.35,438.15,2392.909,438.915,2392.843,440.9Z" transform="translate(-2174.826 -303.435)"/><path class="x" d="M2377.11,431.3a6.831,6.831,0,0,0,2.974,5.487c1.71,1.044,3.15.279,3.216-1.708a6.828,6.828,0,0,0-2.973-5.487C2378.617,428.547,2377.176,429.312,2377.11,431.3Z" transform="translate(-2170.322 -300.686)"/><g transform="translate(24.804 58.346)"><g transform="translate(0 0)"><line class="y" x2="69.512" y2="56.896" transform="matrix(0.998, -0.07, 0.07, 0.998, 0, 4.849)"/><line class="y" x2="69.512" y2="56.896" transform="matrix(0.998, -0.07, 0.07, 0.998, 4.192, 58.57)"/><line class="y" x2="69.512" y2="56.896" transform="matrix(0.998, -0.07, 0.07, 0.998, 8.385, 112.291)"/><path class="y" d="M0,0" transform="matrix(0.998, -0.07, 0.07, 0.998, 85.887, 217.921)"/><path class="y" d="M35.273,82.33.435,53.882,0,0,34.838,28.448Z" transform="matrix(0.998, -0.07, 0.07, 0.998, 0, 4.849)"/><path class="y" d="M35.273,82.331.435,53.882,0,0,34.839,28.448Z" transform="matrix(0.998, -0.07, 0.07, 0.998, 36.573, 30.809)"/><path class="y" d="M35.273,82.331.435,53.883,0,0,34.839,28.448Z" transform="matrix(0.998, -0.07, 0.07, 0.998, 4.192, 58.57)"/><path class="y" d="M35.273,82.33.435,53.883,0,0,34.838,28.448Z" transform="matrix(0.998, -0.07, 0.07, 0.998, 40.766, 84.53)"/><line class="y" x1="34.838" y1="28.448" transform="matrix(0.998, -0.07, 0.07, 0.998, 8.385, 112.291)"/><line class="y" x2="34.838" y2="28.448" transform="matrix(0.998, -0.07, 0.07, 0.998, 44.958, 138.251)"/></g><path class="z" d="M1128.69,563.105l17.952-13.431,20.3-2.681,24.012-19.092" transform="translate(-1118.687 -456.174)"/><path class="z" d="M1164.605,526.63l5.03,2.2L1167.12,536" transform="translate(-1096.343 -457.827)"/><g transform="translate(101.156 74.863)"><path class="s" d="M401.165,310.421l-30.716-17.734v1.258l30.716,17.733Z" transform="translate(-366.582 -193.091)"/><path class="s" d="M447.321,337.07v1.257l12.185,7.034V344.1Z" transform="translate(-410.766 -218.6)"/><path class="s" d="M447.62,347.992l-7.825-4.518v1.256l7.825,4.519Z" transform="translate(-406.441 -222.283)"/><path class="s" d="M394.956,318.844l17.094,9.869v-1.257l-17.094-9.869Z" transform="translate(-380.668 -207.403)"/><path class="s" d="M462.835,356.776v1.257l5.588,3.226V360Z" transform="translate(-419.685 -229.927)"/><path class="s" d="M373.669,305.3l-12.317-7.111v1.257l12.317,7.111Z" transform="translate(-361.352 -196.251)"/><path class="s" d="M369.871,313.853l-8.519-4.918v1.257l8.518,4.918Z" transform="translate(-361.352 -202.429)"/><path class="aa" d="M3336.149,319.121c5.4,3.153,8.789,11.237,7.565,18.06s-6.6,9.8-12,6.645-8.79-11.237-7.565-18.06S3330.748,315.97,3336.149,319.121Zm-3.453,19.233,5.63,3.285c.878-4.888-.593-7.88-4.406-10.1s-5.977-1.354-6.854,3.534l5.631,3.285Zm2.743-15.283c-1.713-1-3.415-.055-3.8,2.109a5.821,5.821,0,0,0,2.4,5.726c1.713,1,3.417.056,3.806-2.108a5.826,5.826,0,0,0-2.4-5.727Z" transform="translate(-3311.006 -317.863)"/><path class="aa" d="M3408.737,366.714l-.82,4.566-24.67-14.393.82-4.566Z" transform="translate(-3344.933 -337.562)"/><path class="aa" d="M3407.6,385.2l-.6,3.344-26.381-15.391.6-3.344Z" transform="translate(-3343.432 -347.557)"/><path class="aa" d="M3436.9,413.127l-.6,3.347-16.375-9.554.6-3.347Z" transform="translate(-3365.897 -366.858)"/><path class="aa" d="M3460.441,416.026l-.6,3.344-12.392-7.23.6-3.344Z" transform="translate(-3381.634 -369.845)"/><path class="aa" d="M3461,397.208l-.82,4.566-14.1-8.228.819-4.566Z" transform="translate(-3380.852 -358.518)"/><path class="aa" d="M3394.8,388.568l-.6,3.347-15.344-8.952.6-3.347Z" transform="translate(-3342.425 -353.165)"/><path class="aa" d="M3361.964,446.96l-.321,2.51-9.438-5.506.321-2.51Z" transform="translate(-3327.187 -388.513)"/><path class="aa" d="M3338.739,447.554l-.321,2.51L3323.74,441.5l.321-2.51Z" transform="translate(-3310.916 -387.107)"/><path class="aa" d="M3316.693,448.836l-.321,2.51-10.539-6.149.321-2.51Z" transform="translate(-3300.679 -389.219)"/><path class="aa" d="M3313.273,432.7l-.322,2.51-5.433-3.17.321-2.51Z" transform="translate(-3301.642 -381.696)"/><path class="aa" d="M3345.458,396.494l-.764,5.963-31.613-18.444.764-5.963Z" transform="translate(-3304.823 -352.27)"/><path class="aa" d="M3324.524,410.972l-.322,2.51-13.312-7.766.321-2.51Z" transform="translate(-3303.57 -366.649)"/><path class="aa" d="M3326.431,426.229l-.322,2.51-16.905-9.863.322-2.51Z" transform="translate(-3302.606 -374.173)"/><path class="aa" d="M3319.685,478.871l-.321,2.513-16.905-9.863.322-2.513Z" transform="translate(-3298.75 -404.267)"/><path class="aa" d="M3365.143,491.248l-.322,2.514-26.064-15.207.322-2.514Z" transform="translate(-3319.5 -408.286)"/><path class="aa" d="M3395.58,494.861l-.322,2.51-12.089-7.053.321-2.51Z" transform="translate(-3344.888 -415.013)"/><path class="aa" d="M3425.992,484.317l-.321,2.51-19.982-11.658.322-2.51Z" transform="translate(-3357.762 -406.352)"/><path class="aa" d="M3317.779,463.614l-.322,2.514-13.311-7.767.322-2.514Z" transform="translate(-3299.714 -396.742)"/><path class="aa" d="M3353.852,470.516l-.321,2.51-19.561-11.412.322-2.51Z" transform="translate(-3316.763 -398.603)"/><path class="aa" d="M3355.218,499.6l-.321,2.513-9.439-5.506.323-2.513Z" transform="translate(-3323.331 -418.607)"/><path class="aa" d="M3384.69,474.363l-.322,2.51-22.833-13.322.321-2.51Z" transform="translate(-3332.521 -399.711)"/><path class="aa" d="M3388.538,462.464l-.322,2.51-10.444-6.093.321-2.51Z" transform="translate(-3341.803 -397.042)"/><path class="aa" d="M3371.888,438.605l-.322,2.51L3345.5,425.909l.322-2.51Z" transform="translate(-3323.356 -378.194)"/><path class="aa" d="M3419.461,466.361l-.321,2.51-9.254-5.4.322-2.51Z" transform="translate(-3360.161 -399.667)"/><path class="aa" d="M3465.761,535.807l-.322,2.51-6.2-3.619.322-2.51Z" transform="translate(-3388.373 -440.382)"/><path class="aa" d="M3311.034,516.256l-.322,2.513L3297.4,511l.322-2.514Z" transform="translate(-3295.858 -426.836)"/><path class="aa" d="M3347.106,523.158l-.321,2.514-19.561-11.412.322-2.514Z" transform="translate(-3312.907 -428.697)"/><path class="aa" d="M3358.4,543.89l-.322,2.514L3332.012,531.2l.322-2.514Z" transform="translate(-3315.644 -438.379)"/><path class="aa" d="M3381.793,515.107l-.322,2.513-10.444-6.093.322-2.513Z" transform="translate(-3337.947 -427.134)"/><path class="aa" d="M3377.945,527.006l-.323,2.513L3354.789,516.2l.322-2.513Z" transform="translate(-3328.665 -429.805)"/><path class="aa" d="M3420.949,552.1l-.323,2.514-9-5.249.321-2.514Z" transform="translate(-3361.159 -448.763)"/><path class="aa" d="M3388.835,547.5l-.322,2.514-12.089-7.053.322-2.514Z" transform="translate(-3341.032 -445.105)"/><path class="aa" d="M3419.247,536.959l-.323,2.513-19.981-11.658.322-2.513Z" transform="translate(-3353.906 -436.446)"/><path class="aa" d="M3457.149,516.638l-.321,2.51-13.92-8.121.321-2.51Z" transform="translate(-3379.039 -426.851)"/><path class="aa" d="M3427.694,499.453l-.322,2.51-9-5.249.322-2.51Z" transform="translate(-3365.015 -418.669)"/><path class="aa" d="M3412.716,519l-.322,2.514-9.254-5.4.322-2.514Z" transform="translate(-3356.305 -429.759)"/><path class="aa" d="M3425.967,569.168l-.322,2.514-17.471-10.193.322-2.514Z" transform="translate(-3359.182 -455.695)"/><path class="aa" d="M3450.4,569.28l-.322,2.514-13.92-8.121.322-2.513Z" transform="translate(-3375.182 -456.944)"/><path class="aa" d="M3458.533,559.88l-.321,2.513-9.091-5.3.322-2.513Z" transform="translate(-3382.59 -453.181)"/><path class="aa" d="M3447.342,539.205l-.322,2.514-18.74-10.934.322-2.514Z" transform="translate(-3370.675 -438.143)"/><path class="aa" d="M3432.712,516.526l-.321,2.51-17.471-10.193.321-2.51Z" transform="translate(-3363.038 -425.603)"/><path class="aa" d="M3465.279,507.237l-.322,2.51-9.09-5.3.321-2.51Z" transform="translate(-3386.446 -423.087)"/><path class="aa" d="M3454.087,486.563l-.322,2.51-18.74-10.934.322-2.51Z" transform="translate(-3374.531 -408.051)"/><path class="aa" d="M3309.947,501.478l-.321,2.514-10.539-6.149.321-2.514Z" transform="translate(-3296.823 -419.313)"/><path class="aa" d="M3306.529,485.339l-.322,2.513-5.434-3.17.323-2.513Z" transform="translate(-3297.786 -411.79)"/><path class="aa" d="M3331.994,500.2l-.323,2.513-14.677-8.564.321-2.513Z" transform="translate(-3307.059 -417.199)"/><path class="aa" d="M3440.6,591.848l-.321,2.514-18.741-10.934.322-2.514Z" transform="translate(-3366.821 -468.237)"/><path class="aa" d="M3459.016,588.449l-.323,2.514-6.2-3.619.322-2.514Z" transform="translate(-3384.517 -470.476)"/><path class="aa" d="M3405.971,571.646l-.322,2.514-9.254-5.4.322-2.513Z" transform="translate(-3352.449 -459.852)"/></g></g></g></g></svg>