<svg xmlns="http://www.w3.org/2000/svg" width="535.614" height="308.822" viewBox="0 0 535.614 308.822"><defs><style>.a{fill:rgba(15,0,0,0.1);}.b{fill:#c4e4f9;}.c{fill:#0f62fe;}.d{fill:#e2e5f3;}.e{fill:#f5f5fa;}.f{fill:#3d2768;}.g{fill:#5dc5c7;}.h{fill:#2d1d50;}.i{fill:#bdc0df;}.j{fill:#fff;}.k{fill:#b2bade;}.l{fill:#1f3598;}.m{fill:#ced6e9;}.n{fill:#3772ce;}.o{fill:#d9def0;}.p{fill:#bdc1e1;}.q{fill:#e4e6f3;}.r{fill:#b3bade;}.s{fill:#3c2768;}.t{fill:#f69874;}.u{fill:#5678bb;}.v{fill:#ee3f5c;}.w{fill:#d2d2d2;}.x{fill:#ff8358;}.y{fill:#743c45;}.z{fill:#312103;}.aa{opacity:0.34;}.ab{fill:#fd8358;}.ac{fill:none;stroke:#201d1e;}.ad{fill:#3d296c;}</style></defs><g transform="translate(-405 -3797.889)"><g transform="translate(8737 -9961)"><path class="a" d="M276,660H811.614s-11.225,20.847-36.884,17.64a148.9,148.9,0,0,1-20.847-1.6c-9.622-1.6-24.054,3.207-27.262,8.018,0,0-24.055,14.433-64.145,0,0,0-36.884-16.036-62.542-1.6,0,0-19.244,20.847-68.956-4.811,0,0-12.829-8.018-35.28,8.018,0,0-22.451,19.243-65.749-8.018,0,0-24.055-6.415-51.316,6.414C378.633,684.054,324.109,692.073,276,660Z" transform="translate(-8608 13375.459)"/><path class="b" d="M582.4,634.075s27.1,14.968,15.132,36.361C597.537,670.436,578.147,666.439,582.4,634.075Z" transform="translate(-8423.412 13359.81)"/><path class="c" d="M613.906,623s14.433,46.505-22.451,57.731C591.455,680.731,573.815,655.073,613.906,623Z" transform="translate(-8419.913 13353.125)"/><path class="c" d="M334.245,621.92s-41.4,22.87-23.118,55.552C311.127,677.471,340.751,671.366,334.245,621.92Z" transform="translate(-8589.611 13352.473)"/><path class="b" d="M292.045,605s-22.05,71.051,34.3,88.2C326.343,693.2,353.294,654,292.045,605Z" transform="translate(-8600.88 13342.259)"/></g><g transform="translate(-4.387 -383)"><path class="d" d="M3842.688,802.441a6.367,6.367,0,0,1-.067.943Z" transform="translate(-2950.864 3547.063)"/><path class="d" d="M3829.5,798.351l-.067.943c-.77,5.5-8.23,9.815-17.317,9.815-9.2,0-16.734-4.425-17.338-10.027l-.042-.731c0-5.942,7.783-10.758,17.38-10.758S3829.5,792.409,3829.5,798.351Z" transform="translate(-2937.674 3551.153)"/><path class="e" d="M3829.446,803.659l-2.859,40.206c0,4.234-6.616,7.661-14.776,7.661-6.929,0-12.738-2.471-14.336-5.8a4.2,4.2,0,0,1-.44-1.859l-2.24-40.416c.6,5.6,8.131,10.028,17.337,10.028C3821.219,813.478,3828.678,809.162,3829.446,803.659Z" transform="translate(-2937.69 3546.785)"/><path class="f" d="M3828.24,798.137l-.064.837c-.455,3.256-3.553,6.04-7.966,7.528a22.148,22.148,0,0,1-4.888,1.033c-.442.047-.893.077-1.352.1-.365.017-.739.025-1.114.025-.611,0-1.215-.021-1.806-.068a21.757,21.757,0,0,1-2.355-.289,20.182,20.182,0,0,1-3.328-.85c-4.42-1.526-7.493-4.365-7.851-7.664l-.038-.65c0-2.3,1.326-4.421,3.528-6.066a16.428,16.428,0,0,1,4.935-2.435c.5-.157,1.007-.293,1.535-.417a23.975,23.975,0,0,1,5.38-.6c.434,0,.867.012,1.293.038.595.025,1.177.076,1.747.149a19.641,19.641,0,0,1,7.8,2.58C3826.5,793.109,3828.24,795.5,3828.24,798.137Z" transform="translate(-2938.43 3550.87)"/><path class="g" d="M3817.34,728.917c-.025-2.257-1.989-6.656-.85-11.791,2.9-13.083-4.926-42.824-6.083-43.593-.736-.489-3.562,9.185-5.977,21.269a3.324,3.324,0,0,1,1.046.28,3.465,3.465,0,0,1,0,6.329,3.407,3.407,0,0,1-1.415.3,3.344,3.344,0,0,1-.549-.043,2.452,2.452,0,0,1-.353-.077c-.888,5.156-1.636,10.474-2.074,15.438a67.818,67.818,0,0,0,.013,15.217,258.529,258.529,0,0,0,5.721,25.682c.718,2.682,1.424,5.211,2.065,7.468,1.738,6.108,3.043,10.274,3.043,10.274v.212c.514.043,1.038.064,1.564.064.081,0,.162,0,.242,0,.375,0,.749-.009,1.114-.025.459-.021.91-.051,1.352-.1.068-2.04.323-9.891.574-18.728C3817.085,746.191,3817.4,733.775,3817.34,728.917Zm-6.932-15.79a2.237,2.237,0,0,1,1.2.349,2.183,2.183,0,0,1,.5.425v0a2.253,2.253,0,0,1-.374,3.316v0s-.008,0-.012.009a2.243,2.243,0,0,1-1.318.425,2.265,2.265,0,1,1,0-4.531Zm-1.547,27.738v0a2.265,2.265,0,1,1,.374-3.323v0a2.253,2.253,0,0,1-.374,3.315Zm5.223,9.861a3.361,3.361,0,0,1-1.343.3h-.072a3.376,3.376,0,0,1-.548-.043,3.468,3.468,0,0,1,.2-6.873,1.783,1.783,0,0,1,.208-.012c.047,0,.089,0,.136,0a3.414,3.414,0,0,1,1.415.3,3.462,3.462,0,0,1,0,6.329Z" transform="translate(-2939.308 3582.574)"/><path class="g" d="M3836.571,724.956a3.394,3.394,0,0,1,1.365.28,65.94,65.94,0,0,0,1.084-9.181c-.047-9.627-4-25.945-5.27-27.182-.064-.064-.12-.089-.166-.077l0,0c-.995.327-9.661,20.207-11.7,32.533-.127.778-.23,1.526-.3,2.236-.008.076-.017.153-.021.229-.013.124-.025.247-.038.378-.094,1.059-.183,2.363-.263,3.873-.013.285-.03.574-.043.871q-.031.5-.052,1.033c-.017.323-.03.65-.046.986-.03.718-.059,1.471-.089,2.248q-.019.529-.038,1.072c0,.161-.013.327-.017.5a3,3,0,0,1,.345-.017,3.4,3.4,0,0,1,1.415.3,3.465,3.465,0,0,1,0,6.329,3.4,3.4,0,0,1-1.415.3,3.335,3.335,0,0,1-.549-.042c-.047,1.934-.089,3.94-.128,5.981-.009.408-.017.816-.025,1.228-.064,3.26-.12,6.593-.162,9.87,0,.408-.013.82-.017,1.228s-.012.816-.017,1.225c-.094,7.255-.148,14.064-.179,18.974.459-.021.91-.051,1.352-.1.387-.038.765-.085,1.139-.144.234-.034.464-.072.693-.115a20.245,20.245,0,0,0,3.056-.773c.544-2.3,1.879-8,3.486-15.115,2.2-9.721,4.9-22.077,6.779-32.007-.06,0-.115,0-.174,0a3.466,3.466,0,1,1,0-6.933Zm-8.144,27.582a2.244,2.244,0,0,1-1.853-.969,2.221,2.221,0,0,1-.408-1.292,2.264,2.264,0,1,1,2.261,2.261Zm2.533-40.295v0a2.264,2.264,0,1,1,.375-3.324v0a2.254,2.254,0,0,1-.375,3.316Z" transform="translate(-2944.699 3578.366)"/><path class="g" d="M3806.3,779.962q-.082-1.192-.166-2.457a2.031,2.031,0,0,1-.583.081,2.229,2.229,0,0,1-1.848-.969,2.19,2.19,0,0,1-.409-1.292,2.273,2.273,0,0,1,2.257-2.266,1.616,1.616,0,0,1,.285.021c-.022-.331-.047-.667-.068-1-.744-11.055-1.573-23.39-1.841-27.352-.28-4.161-2.83-9.338-5.428-13.13-2.223-3.239-4.48-5.466-5.4-5.186-.829.251-1.39,4.017-1.645,8.641a3.31,3.31,0,0,1,.646-.128,3.179,3.179,0,0,1,.345-.017,3.526,3.526,0,0,1,.37.021,1.377,1.377,0,0,1,.178.025,3.309,3.309,0,0,1,.867.255,3.454,3.454,0,0,1,1.874,4.255,3.451,3.451,0,0,1-1.874,2.074,3.181,3.181,0,0,1-.608.209,3.589,3.589,0,0,1-.807.093,3.343,3.343,0,0,1-.549-.043,2.531,2.531,0,0,1-.353-.076,2.59,2.59,0,0,1-.251-.081c.017,4.655.328,9,.957,10.729.51,1.406,1.917,5.865,3.583,11.255a3.259,3.259,0,0,1,1.364-.442,1.623,1.623,0,0,1,.208-.013c.046,0,.089,0,.136,0a3.6,3.6,0,0,1,.961.132,3.291,3.291,0,0,1,.455.17,3.465,3.465,0,0,1,1.173,5.478,3.587,3.587,0,0,1-1.173.851,3.283,3.283,0,0,1-1.139.289c.5,1.619,1,3.251,1.483,4.845,1.956,6.419,3.71,12.225,4.361,14.38a18.463,18.463,0,0,0,1.845.544c.136.034.272.068.412.093.348.081.71.153,1.071.212C3806.857,788.119,3806.606,784.421,3806.3,779.962Zm-6.257-32.916a2.238,2.238,0,0,1,1.2.349,2.186,2.186,0,0,1,.5.425v0a2.253,2.253,0,0,1-.374,3.315v0s-.009,0-.013.009a2.235,2.235,0,0,1-1.317.425,2.266,2.266,0,0,1,0-4.531Z" transform="translate(-2936.727 3568.011)"/><path class="f" d="M3807.99,806.032a18.487,18.487,0,0,1-1.845-.544c-.65-2.155-2.405-7.961-4.361-14.38-.485-1.594-.986-3.226-1.483-4.845a3.282,3.282,0,0,0,1.139-.289,3.584,3.584,0,0,0,1.173-.851C3804.636,792.4,3806.685,800.65,3807.99,806.032Z" transform="translate(-2939.207 3551.833)"/><path class="h" d="M3820.477,757.109c-.25,8.837-.506,16.687-.574,18.728-.442.047-.893.077-1.352.1-.365.017-.739.025-1.114.025-.08,0-.161,0-.242,0l-.752-24.92a3.36,3.36,0,0,0,1.343-.3,3.462,3.462,0,0,0,0-6.329,3.413,3.413,0,0,0-1.415-.3c-.047,0-.089,0-.136,0l-.807-26.867s.008,0,.012-.009v0a2.253,2.253,0,0,0,.374-3.316v0a2.181,2.181,0,0,0-.5-.425l-1.2-39.942c1.156.769,8.986,30.51,6.083,43.593-1.139,5.134.825,9.534.85,11.791C3821.1,733.782,3820.788,746.2,3820.477,757.109Z" transform="translate(-2943.01 3582.568)"/><path class="f" d="M3822.731,761.359c0,12.594,0,30.939,0,38.523-.374.059-.752.106-1.139.144-.442.047-.893.077-1.352.1.031-4.91.085-11.719.179-18.974,0-.409.012-.812.017-1.225s.013-.82.017-1.228c.042-3.277.1-6.609.162-9.87.008-.412.017-.82.025-1.228.039-2.04.081-4.047.128-5.981a3.335,3.335,0,0,0,.549.042A3.4,3.4,0,0,0,3822.731,761.359Z" transform="translate(-2944.699 3558.379)"/><path class="f" d="M3833.856,688.8l0,.017c-.328.944-10.838,31.271-10.843,44.307v1.917a3.4,3.4,0,0,0-1.415-.3,3,3,0,0,0-.345.017c0-.17.013-.336.018-.5q.018-.542.038-1.072c.03-.777.06-1.53.089-2.248.017-.336.03-.663.046-.986q.02-.529.051-1.033c.013-.3.03-.586.043-.871.08-1.509.169-2.814.263-3.873.013-.131.025-.254.038-.378,0-.076.013-.153.021-.229.072-.71.175-1.458.3-2.236C3824.2,709.011,3832.861,689.131,3833.856,688.8Z" transform="translate(-2944.977 3578.363)"/><path class="e" d="M3834.313,728.427a3.466,3.466,0,0,0,3.469,3.464c.06,0,.114,0,.174,0-1.875,9.929-4.578,22.285-6.779,32.007-1.607,7.111-2.942,12.811-3.486,15.115a20.245,20.245,0,0,1-3.056.773l3.149-28.211a2.263,2.263,0,0,0,4.119-1.292,2.267,2.267,0,0,0-2.266-2.266,2.233,2.233,0,0,0-1.521.595l4.054-36.358v0a2.254,2.254,0,0,0,.375-3.316v0l2.24-20.105,0-.017.17.072c1.267,1.237,5.224,17.555,5.271,27.182a65.912,65.912,0,0,1-1.084,9.181,3.392,3.392,0,0,0-1.364-.28A3.467,3.467,0,0,0,3834.313,728.427Z" transform="translate(-2945.909 3578.363)"/><path class="e" d="M3806.991,779.962q-.082-1.192-.166-2.457a2.031,2.031,0,0,1-.583.081,2.229,2.229,0,0,1-1.848-.969,2.19,2.19,0,0,1-.409-1.292,2.273,2.273,0,0,1,2.257-2.266,1.616,1.616,0,0,1,.285.021c-.022-.331-.047-.667-.068-1-.744-11.055-1.573-23.39-1.841-27.352-.28-4.161-2.83-9.338-5.428-13.13-2.223-3.239-4.48-5.466-5.4-5.186l1.951,9.679a3.429,3.429,0,0,1,.863,2.287,3.378,3.378,0,0,1-.179,1.088l10.184,50.484c.348.081.71.153,1.071.212C3807.543,788.119,3807.293,784.421,3806.991,779.962Zm-4.926-28.823v0s-.009,0-.013.009a2.235,2.235,0,0,1-1.317.425,2.266,2.266,0,0,1,0-4.531,2.238,2.238,0,0,1,1.2.349,2.186,2.186,0,0,1,.5.425v0a2.253,2.253,0,0,1-.374,3.315Z" transform="translate(-2937.413 3568.011)"/><path class="i" d="M3830.462,803.739l-2.859,40.206c0,4.234-6.616,7.661-14.776,7.661-6.929,0-12.738-2.471-14.336-5.8l-.007-.022c19.42-17.763,14.665-32.225,14.665-32.225C3822.235,813.557,3829.694,809.242,3830.462,803.739Z" transform="translate(-2938.707 3546.705)"/></g><g transform="translate(-9162 -7759)"><g transform="translate(1 -1)"><path class="j" d="M3715.22,917.408v14.256l-6.278,3.624,0-14.256Z" transform="translate(6038.827 10819.575)"/><path class="k" d="M3721.367,921.032l0,14.256-5.983-3.47-.164-.1v-7.138l.164-.1Z" transform="translate(6026.407 10819.575)"/></g><g transform="translate(9771.695 11721.923)"><g transform="translate(0 39.643)"><path class="l" d="M1305.478,1724.483c-3.373-2.651-11.094,1.967-14.8,2.792-2.393.532-11.122,1.029-10.445,5.177a14.372,14.372,0,0,0-.434,3.179,12.333,12.333,0,0,0,.384,4.048,10.8,10.8,0,0,0,5.122,3.074,6.506,6.506,0,0,0,.691-.082,15.337,15.337,0,0,0,4.584-2.153c4.568-2.8,11.412-5.258,14.848-9.491C1306.962,1729.14,1307.389,1725.985,1305.478,1724.483Z" transform="translate(-1279.783 -1723.671)"/></g><g transform="translate(1.554 34.431)"><g transform="translate(0 0)"><g transform="translate(0)"><path class="m" d="M3.953,0H12.67a3.953,3.953,0,0,1,3.953,3.953v1.48a3.952,3.952,0,0,1-3.952,3.952H3.955A3.955,3.955,0,0,1,0,5.431V3.953A3.953,3.953,0,0,1,3.953,0Z" transform="translate(0 16.622) rotate(-89.292)"/></g></g></g><g transform="translate(0.151 0)"><path class="n" d="M1280.125,1688.907l-.21,40.065a5.516,5.516,0,0,0,5.053,4.7l2.746.2a5.517,5.517,0,0,0,5.915-5.766l4.915-39.206Z" transform="translate(-1279.915 -1688.907)"/></g></g><path class="j" d="M3700.221,882.161a19.1,19.1,0,0,0,5.184,10.746v.009a18.5,18.5,0,0,0,10.045,4.889,21.322,21.322,0,0,0,6.594-.018c-.073-.249-.138-.508-.2-.757s-.13-.507-.176-.756c-.037-.166-.064-.332-.1-.5-.1-.489-.175-.969-.24-1.43v-.009a.057.057,0,0,0-.009-.037c-.046-.35-.083-.692-.111-1.015-.046-.415-.074-.811-.092-1.2-.018-.249-.028-.489-.037-.728a23.968,23.968,0,0,1,.184-4.05s.028-.009.074-.027c.074-.028.2-.074.4-.139.064-.027.147-.055.23-.083.471-.175,1.181-.424,2.085-.756.184-.065.378-.129.581-.2.858-.3,1.863-.664,3-1.061.166-.064.332-.12.5-.175,2.075-.738,4.538-1.605,7.287-2.555.525-.185,1.07-.369,1.614-.553.406-.139.821-.286,1.236-.425.249-.092.5-.175.756-.258.24-.083.48-.166.711-.249.608-.212,1.235-.415,1.863-.627.258-.092.516-.175.765-.268.166-.055.332-.11.508-.166v-.009c.507-.166,1.014-.341,1.531-.517,1.512-.5,3.062-1.023,4.639-1.549.1-.037.2-.065.3-.1.95-.313,1.909-.627,2.868-.94.074-.028.139-.056.2-.074.554-.175,1.1-.36,1.651-.535.12-.037.249-.083.369-.12,1.319-.434,2.638-.858,3.967-1.282q2.13-.678,4.261-1.347c.682-.221,1.374-.443,2.057-.655a23.8,23.8,0,0,1-2.076-3.717c2.039-.507,4.806-1.153,7.841-1.845l-9.187-5.3c-.019-.415-.037-.83-.065-1.246-.12-2.01-.258-3.947-.4-5.737-.628.166-1.264.342-1.9.517-1.374.369-2.776.765-4.206,1.171-.572.166-1.153.332-1.734.5-1.3.388-2.619.775-3.957,1.181-2.029.609-4.095,1.236-6.17,1.882-18.771,5.857-38.049,12.756-42.043,14.2-.5.184-.756.277-.756.277A27.249,27.249,0,0,0,3700.221,882.161Z" transform="translate(6023.641 10831.574)"/><g transform="translate(9829.361 11671.964)"><path class="o" d="M1466.6,957.2l-33.145,18.759-36.585-21.122,32.8-18.956Z" transform="translate(-1396.868 -878.647)"/><path class="p" d="M1430.013,953.187v2.754l-33.145,18.723v-2.719Z" transform="translate(-1360.283 -874.637)"/><path class="p" d="M1436.157,889.411v79.2s-2.359,2.956-8.847,2.956-7.087-2.544-7.087-2.544V890.336l7.087,4.072Z" transform="translate(-1395.191 -889.411)"/></g><path class="p" d="M1548.182,908.482l-120.776-69.394V828.657l120.776,69.72Z" transform="translate(8335.298 10807.479)"/><path class="j" d="M1586.561,843.556l-123.2,69.727-135.983-78.509,121.931-70.459Z" transform="translate(8420.118 10792.574)"/><path class="o" d="M1586.561,843.556l-137.25-79.242-121.931,70.459,144.653-29.048Z" transform="translate(8420.118 10792.574)"/><path class="q" d="M1450.577,828.652V838.89l-123.2,69.594v-10.1Z" transform="translate(8556.102 10806.479)"/><g transform="translate(9844.648 11617.454)"><path class="j" d="M1400.569,813.946c0,9.4,11.719,17.026,26.177,17.026,9.174,0,17.242-3.065,21.911-7.712a13.106,13.106,0,0,0,4.267-9.314c0-9.4-11.719-17.015-26.177-17.015-11.253,0-20.849,4.614-24.553,11.09A11.859,11.859,0,0,0,1400.569,813.946Z" transform="translate(-1397.958 -796.931)"/><path class="r" d="M1408.014,813.388c0,6.4,7.982,11.588,17.816,11.588.369,0,.727-.01,1.083-.021-8.231-.335-14.741-4.777-14.741-10.213,0-5.654,7.04-10.236,15.738-10.236,8.36,0,15.205,4.246,15.7,9.6.021-.237.032-.476.032-.714,0-6.39-7.971-11.578-17.817-11.578S1408.014,807,1408.014,813.388Z" transform="translate(-1396.977 -796.373)"/><path class="s" d="M1408.043,814.466v.129h.011c.043,2.936,2,5.578,5.1,7.42l.011.01a20.616,20.616,0,0,0,9.617,2.654c7.918-.3,14.437-3.974,16.236-8.848a7.654,7.654,0,0,0,.466-2,.3.3,0,0,0-.011-.065,6.561,6.561,0,0,0-.553-2.068,10.283,10.283,0,0,0-4.039-4.474,18.237,18.237,0,0,0-5.968-2.437l-.617-.129a24.305,24.305,0,0,0-4.516-.423c-.672,0-1.344.033-1.993.087C1414.033,804.945,1408.043,809.257,1408.043,814.466Z" transform="translate(-1392.848 -796.097)"/><path class="r" d="M1404.4,816.166c0,9.4,11.719,17.026,26.178,17.026,11.219,0,20.805-4.6,24.52-11.069-4.669,4.646-12.737,7.712-21.911,7.712-14.458,0-26.177-7.625-26.177-17.026a11.86,11.86,0,0,1,1.625-5.925A13.129,13.129,0,0,0,1404.4,816.166Z" transform="translate(-1404.398 -795.794)"/><path class="t" d="M1408.449,813.419a2.244,2.244,0,0,0,1.689,1.472h.011c.823.153,1.592-.074,2.177,1.2,1,2.166,1.214,4.419,2.924,6.218l.011.01a20.616,20.616,0,0,0,9.617,2.654c7.918-.3,14.437-3.974,16.236-8.848l.466-2a.3.3,0,0,0-.011-.065c-.055-.239-.239-1.072-.553-2.068-.553-1.809-1.526-4.148-2.87-4.506-.639-.173-.974-.119-1.169.032-.5.369-.25,1.354-2.1,1.126-2.4-.292-1.647-2.87-3.866-3.563l-.617-.129c-2.99-.369-.91,2.685-3.26,2.534-1.04-.065-2.047-1.462-3.249-2.87-1.505-1.776-3.336-3.584-5.957-2.783-4.69,1.441-5.6,2.622-7.04,5.059S1407.095,810.733,1408.449,813.419Z" transform="translate(-1394.942 -796.394)"/><path class="u" d="M1414.773,812.358c0,.819,1.091,1.483,2.437,1.483s2.437-.664,2.437-1.483-1.091-1.483-2.437-1.483S1414.773,811.539,1414.773,812.358Z" transform="translate(-1380.508 -795.338)"/><path class="v" d="M1426.409,810.72c0,.491.654.89,1.463.89s1.463-.4,1.463-.89-.655-.891-1.463-.891S1426.409,810.228,1426.409,810.72Z" transform="translate(-1403.161 -795.457)"/><path class="j" d="M1422.152,816.7c0,.819,1.091,1.483,2.437,1.483s2.437-.664,2.437-1.483-1.091-1.483-2.437-1.483S1422.152,815.88,1422.152,816.7Z" transform="translate(-1396.11 -794.842)"/></g><g transform="translate(9822.801 11587.326)"><g transform="translate(0 0)"><path class="d" d="M3683.9,797.576s.039.409.118,1.106c.8-4.019,5.863-7.1,11.991-7.1s11.2,3.083,11.992,7.116c0-.027.013-.053.013-.08.04-.356.065-.646.093-.817.013-.144.013-.223.013-.223,0-4.547-5.417-8.236-12.111-8.236S3683.9,793.029,3683.9,797.576Z" transform="translate(-3680.252 -789.34)"/><g transform="translate(0 2.24)"><path class="h" d="M3688.632,810.263c0,4.2,4.731,7.618,10.555,7.618s10.555-3.415,10.555-7.618a5.964,5.964,0,0,0-.315-1.872,7.789,7.789,0,0,1-5.088,1.872c-2.727,0-5.889-4.021-7.536-5.971-.962.631-3.278.762-3.752-.49C3691.139,805.185,3688.632,808.169,3688.632,810.263Z" transform="translate(-3688.632 -784.837)"/><path class="d" d="M3684,795.981c.553,4.336,3.057,18.436,11.978,18.436s11.412-14.1,11.953-18.436c-.884,3.953-5.9,6.985-11.965,6.985S3684.885,799.934,3684,795.981Z" transform="translate(-3680.21 -788.733)"/><path class="w" d="M3683.984,798.01c0,.027.012.066.012.093a.081.081,0,0,0,.013.053c.883,3.953,5.9,6.985,11.966,6.985s11.082-3.032,11.965-6.985c.014-.04.014-.093.027-.131-.79-4.033-5.865-7.116-11.992-7.116S3684.786,793.991,3683.984,798.01Z" transform="translate(-3680.216 -790.908)"/></g></g><path class="h" d="M3697.534,804.761a3.712,3.712,0,0,0,1.66,2.319,2.691,2.691,0,0,0,2.49-.566,22.173,22.173,0,0,1-1.594-2.78A11.879,11.879,0,0,0,3697.534,804.761Z" transform="translate(-3693.291 -783.17)"/></g><g transform="translate(200 -45)"><path class="e" d="M3749.852,769.061l.009,71.2,6.848,3.953v-71.2Z" transform="translate(5800.429 10904.574)"/><path class="k" d="M3743,844.217l6.856-3.946V776.979L3743,773.014Z" transform="translate(5814.141 10904.574)"/></g><path class="d" d="M3683.975,795.261c-.019.12-.037.323-.065.572A2.914,2.914,0,0,0,3683.975,795.261Z" transform="translate(6092.104 10997.574)"/><path class="d" d="M3700.762,795.1a3.635,3.635,0,0,0,.092.839C3700.789,795.418,3700.762,795.1,3700.762,795.1Z" transform="translate(6058.373 10997.574)"/><path class="d" d="M3683.9,795.105s.027.286.083.774c.562-2.813,4.1-4.971,8.393-4.971s7.841,2.158,8.394,4.981c0-.019.009-.037.009-.056.028-.249.046-.452.065-.572.009-.1.009-.156.009-.156,0-3.183-3.791-5.765-8.477-5.765S3683.9,791.922,3683.9,795.105Z" transform="translate(6075.234 10997.574)"/><path class="j" d="M3727.48,924.488v63.973l-6.277,3.624.019-63.983,6.094-3.518Z" transform="translate(6048.307 10828.575)"/><path class="k" d="M3733.627,928.1l-.019,63.983-6.147-3.566V924.488Z" transform="translate(6035.901 10828.575)"/><path class="j" d="M3764.473,903.254l6.161,3.557v56.86l-6.282,3.624.019-63.983Z" transform="translate(5961.002 10826.575)"/><path class="k" d="M3776.763,967.295l-6.147-3.567V899.7l6.163,3.615Z" transform="translate(5948.594 10826.575)"/><g transform="translate(36 -168)"><path class="k" d="M3666.96,894.337l9.3,5.368.018.019,30.66,17.682,2.592,1.494,3.616,2.094,3.062-1.762,3.053-1.771h.009v-.009l6.143-3.542,6.273-3.616,18.549-10.7,12.11-6.991.046-.028,4.465-2.564V890l3.671-2.113,3.145-1.817-4.713-2.73c-.323.222-.72.489-1.19.812-.148.092-.3.2-.471.313-.1.065-.2.139-.313.213-3.45,2.315-9.657,6.355-16.972,10.589-2.14,1.235-4.372,2.49-6.659,3.717-.572.3-1.153.608-1.725.913-1.734.913-3.5,1.808-5.258,2.666-.461.23-.922.451-1.393.673-1.964.931-3.929,1.817-5.875,2.629-.323.138-.646.267-.959.4-.526.222-1.052.425-1.578.628-.3.119-.609.239-.913.35-.157.065-.323.129-.489.184-.258.1-.516.194-.775.286a1.826,1.826,0,0,1-.221.074c-.4.148-.793.286-1.181.415-.249.083-.489.166-.728.249-.609.2-1.218.388-1.817.563-.36.111-.711.212-1.061.3a.147.147,0,0,1-.083.028c-.821.231-1.633.443-2.426.618-.4.092-.793.175-1.181.249s-.775.157-1.153.212a4.686,4.686,0,0,1-.507.083c-.295.046-.59.093-.885.129-.443.056-.867.1-1.292.129q-.983.084-1.909.083a17.434,17.434,0,0,1-3.007-.248c-9.2-1.652-13.052-7.426-14.611-12.812-.073-.249-.138-.508-.2-.757s-.13-.507-.176-.756c-.037-.166-.064-.332-.1-.5-.1-.489-.175-.969-.24-1.43v-.009l-15.367-8.864v-.009h-.009v.009l-.019,7.13-.525.3v.009l-.148.083-5.4,3.155Z" transform="translate(6019.359 10997.574)"/><path class="k" d="M3671.673,894.337v.009c.065.461.138.941.24,1.43.037.166.064.332.1.5.046.249.111.5.176.756s.129.508.2.757c1.559,5.386,5.415,11.16,14.611,12.812a17.434,17.434,0,0,0,3.007.248q.927,0,1.909-.083c.425-.027.849-.073,1.292-.129.3-.036.59-.083.885-.129a4.686,4.686,0,0,0,.507-.083c.378-.055.766-.129,1.153-.212s.784-.157,1.181-.249c.793-.175,1.6-.387,2.426-.618a.147.147,0,0,0,.083-.028c.35-.092.7-.193,1.061-.3.6-.175,1.208-.36,1.817-.563.239-.083.479-.166.728-.249.388-.129.784-.267,1.181-.415a1.826,1.826,0,0,0,.221-.074c.259-.092.517-.184.775-.286.166-.055.332-.119.489-.184.3-.111.609-.231.913-.35.526-.2,1.052-.406,1.578-.628.313-.129.636-.258.959-.4,1.946-.812,3.911-1.7,5.875-2.629.471-.222.932-.443,1.393-.673,1.762-.858,3.524-1.753,5.258-2.666.572-.3,1.153-.609,1.725-.913,2.287-1.227,4.519-2.482,6.659-3.717,7.315-4.234,13.522-8.274,16.972-10.589.111-.074.212-.148.313-.213.167-.11.323-.221.471-.313.47-.323.867-.59,1.19-.812l-4.123-2.38-19.712-11.373-4.362-2.518-9.187-5.3c-.019-.415-.037-.83-.065-1.246l-2.527-1.466-3.505-2.02-.489.277-.554.322h-.009l-5.11,2.952v42.651l-6.17,3.542L3687,903.192l-.009-.01Z" transform="translate(6039.292 10997.574)"/></g><g transform="translate(14 121)"><g transform="translate(9724.556 11453.696)"><g transform="translate(39.161 24.532)"><g transform="translate(0 0)"><path class="l" d="M1279.8,1585.09c.025,0,.049.024.074.049a1.386,1.386,0,0,0,.025-.321A.373.373,0,0,1,1279.8,1585.09Z" transform="translate(-1279.801 -1584.819)"/></g></g><g transform="translate(26.08 29.913)"><g transform="translate(0 0)"><path class="x" d="M1270.857,1589.538l-2.5,17.588c-.345,2.434,2.517,4.407,6.393,4.407s7.3-1.973,7.644-4.407h.064l2.5-17.588Z" transform="translate(-1268.33 -1589.538)"/></g></g><g transform="translate(20.985 0)"><g transform="translate(31.085 20.512)"><path d="M1296.161,1591.913a5.317,5.317,0,1,1,5.038-5.309A5.185,5.185,0,0,1,1296.161,1591.913Zm0-9.794a4.494,4.494,0,1,0,4.215,4.485A4.361,4.361,0,0,0,1296.161,1582.119Z" transform="translate(-1291.122 -1581.294)"/></g><g transform="translate(5.299 11.252)"><path class="x" d="M1275.667,1593.926c-1.538-2.292-3.032,3.082-3.417.656-.4-2.516-3.731-1.462-3.741-4.031-.008-1.826,1.675-3.775,2.43-5.356a11.444,11.444,0,0,1,3.73-4.656,22.048,22.048,0,0,1,6.961-2.994,53.8,53.8,0,0,1,8.329-1.655l.775-2.715h8.729v25.5a5,5,0,0,1-.169,1.058,10.629,10.629,0,0,1-14.3,7.318Z" transform="translate(-1268.509 -1573.174)"/></g><g transform="translate(0 0)"><path class="y" d="M1305.369,1573.889a6.173,6.173,0,0,1-1.884,2.659c-3.854,3.547-7.448,3.724-10.722,6.739-2.26,2.068-4.463,7.565-4.318,11.82a2.431,2.431,0,0,0-.115.444,1.586,1.586,0,0,0,.145.325,6.035,6.035,0,0,0,1.3,3.428,8.113,8.113,0,0,0,5.418,2.482,7.148,7.148,0,0,0,5.3-1.536c-.165.147.154,5.2-.2,6.127a7.507,7.507,0,0,1-4.127,4.394c-4.094,1.736-8.723-.365-12.034-2.877-2.006-1.524-4.364-5.991-6.8-6.384l-4.956-.8c-1.739-.266-3.68-.651-4.752-2.1a6.947,6.947,0,0,1-1.043-2.483c-2.608-9.338-5.381-18.106,2.125-26.647,6.955-7.86,26.824-8.185,34.938-1.181A5.455,5.455,0,0,1,1305.369,1573.889Z" transform="translate(-1263.862 -1563.306)"/></g><g transform="translate(19.349 25.296)"><path class="x" d="M1281.094,1592.009c.8,2.933,3.18,4.818,5.314,4.212s3.214-3.475,2.413-6.407-3.18-4.818-5.314-4.211S1280.294,1589.077,1281.094,1592.009Z" transform="translate(-1280.83 -1585.489)"/></g><g transform="translate(28.236 23.627)"><g transform="translate(0 0)"><g transform="translate(0)"><g transform="translate(0)"><rect class="z" width="12.355" height="0.824" transform="translate(0 5.067) rotate(-24.214)"/></g></g></g></g><g transform="translate(20.992 23.848) rotate(-8)"><g transform="translate(0 0)"><g transform="translate(0 0)"><rect class="y" width="4.651" height="17.829" rx="1.985"/></g></g></g></g><g transform="translate(0.035 106.371)"><g transform="translate(0 0)"><path class="n" d="M1309.056,1680.162l-45.855,28.6-11.1-6.687a13.661,13.661,0,0,1-6.609-11.706V1674.43l2.361,1.747,5.073-2.175,40.32-17.283.779-.066c.505-.044,1-.066,1.494-.066a18.092,18.092,0,0,1,17.535,13.638c0,.022.011.043.011.065A9.1,9.1,0,0,1,1309.056,1680.162Z" transform="translate(-1245.49 -1656.587)"/></g></g><g transform="translate(0.035 118.165)"><g transform="translate(0 0)"><path class="l" d="M1337.034,1680.578a18.105,18.105,0,0,0-17.536-13.649c-.495,0-.989.022-1.494.066l-.779.065-4.162,1.779-23.734,10.186a33.167,33.167,0,0,1-32.79-3.8l-3.615-2.671-7.434-5.49v21.863a13.661,13.661,0,0,0,6.609,11.706l11.1,6.687,12.936,7.785a16.923,16.923,0,0,0,17.689-.133l39.222-24.465A9.078,9.078,0,0,0,1337.034,1680.578Z" transform="translate(-1245.49 -1666.929)"/></g></g><g transform="translate(6.649 42.857)"><g transform="translate(0 0)"><path class="x" d="M1314.99,1632.076c-2.98,2.219-18.2,13.439-25.137,16.572a29.089,29.089,0,0,1-12.064,2.6,25.429,25.429,0,0,1-8.741-1.551,18.629,18.629,0,0,1-11.019-9.89,16.335,16.335,0,0,1-1.032-3.28l-5.6-27.665c-.678-3.332,2.048-6.8,6.075-7.74s7.858,1,8.534,4.341l5.6,27.664c.008.019.006.035.014.054a6.8,6.8,0,0,0,4.535,4.922,10.519,10.519,0,0,0,7.876-.4c3.829-1.731,15.107-9.615,21.9-14.669,3.235-2.406,7.883-2.329,10.387.17S1318.224,1629.678,1314.99,1632.076Z" transform="translate(-1251.29 -1600.889)"/></g></g><g transform="translate(0 41.409)"><g transform="translate(0 0)"><path class="n" d="M1302.209,1686.968a8.479,8.479,0,0,1-5.633,8.247c-2.065.736-5.5,1.91-8.214,2.548a18.1,18.1,0,0,1-2.141.384,36.217,36.217,0,0,1-22.675-5.171l-14.933-8.7a6.385,6.385,0,0,1-3.152-5.655l1.57-61.984a18.025,18.025,0,0,1,8.949-15.549,14.159,14.159,0,0,1,6.983-1.471,30.519,30.519,0,0,1,3.9.263c6.852.823,14.483,3.667,18.414,6.414,3.866,2.448,8.664,4.04,11.76,7.093a10.357,10.357,0,0,1,3.2,7.5C1300.3,1623.073,1302.209,1686.968,1302.209,1686.968Z" transform="translate(-1245.459 -1599.619)"/></g><g class="aa" transform="translate(39.568 18.921)"><path class="n" d="M1285.422,1619.572a.926.926,0,0,1-.405.442,33.939,33.939,0,0,0-.525,6.353c-.022,3.975.154,8.07-1.251,11.793-.856,2.261-2.284,4.315-2.822,6.676-1.3,5.622,2.624,11,3.755,16.647,1.252,6.281-.977,12.66-1.57,19.029a58.29,58.29,0,0,0,.889,14.922c2.713-.637,6.148-1.812,8.214-2.548a8.478,8.478,0,0,0,5.633-8.247s-1.767-59.082-1.961-65.553C1292.47,1615.863,1287.684,1614.5,1285.422,1619.572Z" transform="translate(-1280.158 -1616.212)"/></g></g><g transform="translate(46.06 58.848)"><g transform="translate(0 0)"><path class="x" d="M1340.767,1652.463c-2.185,2.733-13.357,16.557-18.677,20.44a16.267,16.267,0,0,1-9.572,3.284,15.755,15.755,0,0,1-7.328-1.814,21.98,21.98,0,0,1-10.14-11.967,29.136,29.136,0,0,1-1.219-3.992l-7.736-33.7c-.935-4.059.9-8.314,4.088-9.5s6.542,1.15,7.477,5.219l7.736,33.7c.009.021.009.043.018.065a8.779,8.779,0,0,0,4.27,5.964,5.952,5.952,0,0,0,6.4-.558c2.934-2.146,11.264-11.864,16.241-18.089a5.161,5.161,0,0,1,8.517.113A9.189,9.189,0,0,1,1340.767,1652.463Z" transform="translate(-1285.851 -1614.912)"/></g></g><g transform="translate(42.287 58.388)"><g transform="translate(0 0)"><path class="n" d="M1311.061,1653.462l-9.588-32.155a9.413,9.413,0,0,0-4.626-5.635,9.811,9.811,0,0,0-7.35-.781,9.567,9.567,0,0,0-5.759,4.519,9.182,9.182,0,0,0-.806,7.175l9.614,32.261a25.523,25.523,0,0,0,1.65,4.159l.4.8a1.114,1.114,0,0,0,1.341.543l.862-.284c.5-.164,1-.351,1.465-.539a38.18,38.18,0,0,0,12.276-7.813l.54-.515a1.061,1.061,0,0,0,.219-1.248Z" transform="translate(-1282.542 -1614.509)"/></g></g><g transform="translate(71.631 131.813)"><g transform="translate(0 65.175)"><path class="l" d="M1336.117,1736.932c-3.655-2.873-12.02,2.131-16.034,3.025-2.594.578-12.051,1.115-11.319,5.611a15.521,15.521,0,0,0-.471,3.444,13.376,13.376,0,0,0,.416,4.387,11.7,11.7,0,0,0,5.551,3.331,7.147,7.147,0,0,0,.748-.089,16.641,16.641,0,0,0,4.967-2.332c4.95-3.035,12.367-5.7,16.09-10.285C1337.726,1741.979,1338.189,1738.561,1336.117,1736.932Z" transform="translate(-1308.276 -1736.052)"/></g><g transform="translate(1.687 59.53)"><g transform="translate(0 0)"><rect class="m" width="10.17" height="18.012" rx="4.284" transform="translate(10.169 18.132) rotate(-179.314)"/></g></g><g transform="translate(0.164 0)"><path class="l" d="M1309.531,1680.522l-1.112,64.01a5.974,5.974,0,0,0,5.475,5.1l2.975.219a5.978,5.978,0,0,0,6.41-6.247l4.924-64.7Z" transform="translate(-1308.419 -1678.898)"/></g></g></g><g transform="translate(9815.62 11525.218)"><path class="ab" d="M11.337,11.538c-3.165,2.942-7.62,3.293-9.951.786S-.267,5.4,2.9,2.459s7.621-3.294,9.951-.786S14.5,8.6,11.337,11.538Z" transform="matrix(0.985, -0.174, 0.174, 0.985, 0, 10.544)"/><path class="ab" d="M.552,11.919h0A2.067,2.067,0,0,1,.659,9L9.75.553A2.065,2.065,0,0,1,12.669.66h0a2.065,2.065,0,0,1-.107,2.92L3.473,12.026A2.068,2.068,0,0,1,.552,11.919Z" transform="matrix(0.985, -0.174, 0.174, 0.985, 2.219, 2.296)"/></g></g><g transform="translate(34 -166)"><path class="ac" d="M3764.394,883.263l3.827,2.2v.006h-.006Z" transform="translate(5927.374 10997.574)"/><path class="ac" d="M3733.7,906.781l-6.214-3.586v-.006Z" transform="translate(5998.81 10997.575)"/><path class="ac" d="M3727.5,835.708v63.967l-.006-35.512-.006-28.461Z" transform="translate(6005.011 10997.574)"/><path class="ac" d="M3727.5,835.708v63.967l-.006-35.512-.006-28.461Z" transform="translate(6005.011 10997.574)"/><path class="ac" d="M3727.5,835.708v63.967l-.006-35.512-.006-28.461Z" transform="translate(6005.011 10997.574)"/><path class="d" d="M3776.725,896.161l-6.238-3.58.024-14.218,6.142,3.55.036,7.088Z" transform="translate(5912.776 10997.574)"/><path class="ac" d="M3727.489,899.675l-.006-35.513.006-.006Z" transform="translate(6005.018 10997.574)"/><path class="e" d="M3770.56,885.469l-.018,7.136-6.075,3.556-.036-7.16-.036-7.088,2.339,1.35,3.821,2.206Z" transform="translate(5925.036 10997.574)"/><path class="ac" d="M3768.221,885.463v.006h-.006l-3.821-2.206Z" transform="translate(5927.374 10997.574)"/><path class="e" d="M3721.312,835.7v71.079l6.171-3.542v-71.07Z" transform="translate(6011.195 10997.574)"/><path class="e" d="M3727.483,903.237l-.054,14.231-6.118,3.526V906.781Z" transform="translate(6011.195 10997.575)"/><path class="d" d="M3733.7,906.781v14.212l-6.214-3.586V903.189Z" transform="translate(5998.81 10997.575)"/><path class="k" d="M3776.726,899.675v7.106l-6.214-3.592-30.7-17.72v-.006l-3.827-2.2-2.339-1.35-6.142-3.55-.024-71.086.006.006a60.241,60.241,0,0,0,6.166,7.293,65.393,65.393,0,0,0,13.284,10.59c12.1,7.185,29.245,10.439,29.775,10.536l.006,28.461Z" transform="translate(5955.78 10997.574)"/><path class="d" d="M3721.312,807.277l.009.009a60.565,60.565,0,0,0,6.161,7.287c1.19,1.227,2.546,2.527,4.059,3.855a62.868,62.868,0,0,0,9.233,6.734c12.1,7.185,29.239,10.441,29.774,10.542h.01l6.17-3.532a.028.028,0,0,1-.018-.009c-.526-.093-17.673-3.358-29.775-10.543a67.72,67.72,0,0,1-19.443-17.867.027.027,0,0,1-.01-.018Z" transform="translate(5961.949 10997.574)"/><path class="ad" d="M3715.224,803.735a.027.027,0,0,0,.01.018,67.72,67.72,0,0,0,19.443,17.867c12.1,7.185,29.249,10.45,29.775,10.543a.028.028,0,0,0,.018.009V896a26.771,26.771,0,0,0,5.1-.047l.987-66.31s-3.348-2.075-16.262-4.482S3715.224,803.735,3715.224,803.735Z" transform="translate(5974.207 10997.574)"/><path class="i" d="M3749.024,809.081l27.7,85.265-27.678-15.983Z" transform="translate(5934.242 10997.574)"/></g><path class="i" d="M3665.917,892.584v7.084l6.208,3.588,6.161,3.551,30.725,17.737v-.055l6.171,3.616,6.088-3.523.166-.092,5.986-3.459,6.272-3.625,18.909-10.912,11.751-6.789,4.9-2.822,1.245-.719,2.823-1.633,3.4-1.965-.009-5.9-1.033-.59-3.146,1.817L3768.865,890v.009l-4.464,2.573-.046.028-12.111,6.982v.009l-18.549,10.7-6.272,3.607v.009l-6.143,3.542v.009l-6.125,3.523v-.009l-3.118-1.8-.5-.286-2.592-1.494-30.66-17.682-.018-.018-9.3-5.368-.452-.258-.433-.249-.821-.47Z" transform="translate(6053.349 10829.574)"/><g transform="translate(35 -211)"><path class="j" d="M3665.879,896.176l-.017,63.984,6.278-3.624V892.561Z" transform="translate(6121.987 11040.575)"/><path class="i" d="M3678.285,896.179l-.014,63.983-6.147-3.566V899.707l6.137-3.542Z" transform="translate(6109.581 11040.575)"/></g></g></g></svg>