<svg xmlns="http://www.w3.org/2000/svg" xmlns:xlink="http://www.w3.org/1999/xlink" width="549" height="424.749" viewBox="0 0 549 424.749"><defs><style>.a{fill:#fff;}.b{fill:none;}.c{fill:#8dc0ef;}.d{fill:#d5e8fa;}.e{fill:#647ddd;opacity:0.17;}.f{fill:#eff6fc;}.g{fill:#bddcff;}.h{fill:#e2e8f2;}.i{fill:#75a3ec;}.j{fill:#1f3598;}.k{fill:#f2f4f9;}.l{fill:#484255;}.m{fill:#577de8;}.n{fill:#f2f4fa;}.o{fill:#3772ce;}.p{fill:#ff8358;}.q{fill:#ced6e9;}.r{fill:#743c45;}.s{fill:#312103;}.t{opacity:0.34;}.u{fill:#4568c7;}.v{fill:#c1d7ea;}.w{fill:#fd8358;}.x{fill:rgba(15,0,0,0.1);}.y{fill:#c4e4f9;}.z{fill:#0f62fe;}.aa{fill:#cacaca;mix-blend-mode:multiply;}.aa,.ae{isolation:isolate;}.ab{fill:#1162fb;}.ac{fill:#32b98e;}.ad{fill:#f26c73;}.af{clip-path:url(#a);}.ag{clip-path:url(#d);}.ah{fill:#e95059;}.ai{fill:#536099;}.aj{fill:#fcad9d;}.ak{fill:#f1947d;}.al{fill:#4b598c;}.am{font-size:14px;}.am,.an{font-family:'.AppleSystemUIFont';}.an{font-size:13px;}.ao{clip-path:url(#g);}.ap{fill:#3d3535;}.aq{fill:#f2bf5e;}.ar{fill:#e8b156;}.as{clip-path:url(#j);}.at{fill:#ef6d53;}.au{fill:#ad847b;}.av{fill:#87655f;}.aw{fill:#e0563f;}.ax{filter:url(#h);}.ay{filter:url(#e);}.az{filter:url(#b);}</style><clipPath id="a"><path class="a" d="M-2127.408,2503.746l.252-88.788,167.207,96.537-.252,88.789Z" transform="translate(2127.408 -2414.958)"/></clipPath><filter id="b" x="396.272" y="138.748" width="152.727" height="145.243" filterUnits="userSpaceOnUse"><feOffset input="SourceAlpha"/><feGaussianBlur stdDeviation="3" result="c"/><feFlood flood-opacity="0.161"/><feComposite operator="in" in2="c"/><feComposite in="SourceGraphic"/></filter><clipPath id="d"><rect class="b" width="134.632" height="70.6" transform="translate(0)"/></clipPath><filter id="e" x="255.275" y="88.476" width="148.148" height="140.917" filterUnits="userSpaceOnUse"><feOffset input="SourceAlpha"/><feGaussianBlur stdDeviation="3" result="f"/><feFlood flood-opacity="0.161"/><feComposite operator="in" in2="f"/><feComposite in="SourceGraphic"/></filter><clipPath id="g"><rect class="b" width="131.798" height="69.113" transform="translate(0)"/></clipPath><filter id="h" x="254.75" y="215.748" width="150.101" height="142.762" filterUnits="userSpaceOnUse"><feOffset input="SourceAlpha"/><feGaussianBlur stdDeviation="3" result="i"/><feFlood flood-opacity="0.161"/><feComposite operator="in" in2="i"/><feComposite in="SourceGraphic"/></filter><clipPath id="j"><rect class="b" width="131.612" height="69.764" transform="translate(0)"/></clipPath></defs><g transform="translate(-404 -2651.252)"><g transform="translate(-14748 -8083)"><path class="c" d="M2151.557,878.283a3.679,3.679,0,0,1-3.331,0,1.015,1.015,0,0,1,0-1.923,3.685,3.685,0,0,1,3.331,0A1.015,1.015,0,0,1,2151.557,878.283Z" transform="translate(13292.052 10173.126)"/><path class="c" d="M2152.248,811.841v43.776a.488.488,0,0,1-.036.171.386.386,0,0,1-.341.206h-3.958a.385.385,0,0,1-.341-.206.487.487,0,0,1-.036-.171V811.841a.379.379,0,0,1,.376-.377h3.958A.38.38,0,0,1,2152.248,811.841Z" transform="translate(13292.052 10194.422)"/><path class="c" d="M2152.248,824.251a.333.333,0,0,1-.043.163.772.772,0,0,1,.043.249,1.159,1.159,0,0,1-.689.959,3.674,3.674,0,0,1-3.333,0,1.158,1.158,0,0,1-.689-.959.764.764,0,0,1,.042-.249.33.33,0,0,1-.042-.163v-7.5a.379.379,0,0,1,.376-.377h3.958a.379.379,0,0,1,.377.377Z" transform="translate(13292.052 10192.8)"/><path class="d" d="M2154.354,810.795V802.41l-15.5,9.962,1.036,2.758Z" transform="translate(13294.916 10197.411)"/><path class="c" d="M2037.863,944.76a3.679,3.679,0,0,1-3.331,0,1.015,1.015,0,0,1,0-1.923,3.681,3.681,0,0,1,3.331,0A1.015,1.015,0,0,1,2037.863,944.76Z" transform="translate(13396.955 10076.234)"/><path class="e" d="M2051.883,839.034l-124.489-70.8L1850.4,814.459a1.384,1.384,0,0,0,.032,2.393l121.019,68.229a8.094,8.094,0,0,0,8.2-.078l72.261-43.364A1.51,1.51,0,0,0,2051.883,839.034Z" transform="translate(13406.378 10207.854)"/><path class="c" d="M2038.552,878.318v43.775a.488.488,0,0,1-.036.171.386.386,0,0,1-.341.206h-3.959a.388.388,0,0,1-.341-.206.488.488,0,0,1-.036-.171V878.318a.38.38,0,0,1,.376-.377h3.959A.379.379,0,0,1,2038.552,878.318Z" transform="translate(13345.59 10171.63)"/><path class="c" d="M2038.552,885.816a.338.338,0,0,1-.042.163.773.773,0,0,1,.042.249,1.158,1.158,0,0,1-.689.959,3.672,3.672,0,0,1-3.333,0,1.159,1.159,0,0,1-.689-.959.752.752,0,0,1,.043-.249.33.33,0,0,1-.043-.163v-7.5a.38.38,0,0,1,.376-.377h3.959a.379.379,0,0,1,.376.377Z" transform="translate(13345.59 10171.63)"/><path class="c" d="M1850.677,840.93a3.68,3.68,0,0,1-3.33,0,1.015,1.015,0,0,1,0-1.923,3.679,3.679,0,0,1,3.33,0A1.015,1.015,0,0,1,1850.677,840.93Z" transform="translate(13407.392 10184.618)"/><path class="c" d="M1851.366,774.488v43.776a.49.49,0,0,1-.035.17.385.385,0,0,1-.341.206h-3.959a.387.387,0,0,1-.341-.206.5.5,0,0,1-.035-.17V774.488a.379.379,0,0,1,.376-.377h3.959A.379.379,0,0,1,1851.366,774.488Z" transform="translate(13407.393 10205.913)"/><path class="c" d="M1851.366,781.985a.337.337,0,0,1-.042.164.775.775,0,0,1,.042.248,1.158,1.158,0,0,1-.689.959,3.673,3.673,0,0,1-3.333,0,1.159,1.159,0,0,1-.689-.959.757.757,0,0,1,.043-.248.33.33,0,0,1-.043-.164v-7.5a.379.379,0,0,1,.376-.377h3.959a.379.379,0,0,1,.376.377Z" transform="translate(13407.393 10205.913)"/><path class="d" d="M1843.689,761.735l-.009,9.389,13.98,5.162-.713-5.116Z" transform="translate(13408.376 10209.999)"/><path class="d" d="M1845.436,747.74l72.593-42.437a16.445,16.445,0,0,1,16.456-.082l119.835,68.444a4.333,4.333,0,0,1,.017,7.514l-73.772,42.6a16.445,16.445,0,0,1-16.451,0l-118.66-68.551A4.332,4.332,0,0,1,1845.436,747.74Z" transform="translate(13408.504 10229.373)"/><path class="f" d="M1845.826,735.965l72.593-42.436a16.447,16.447,0,0,1,16.456-.083L2054.71,761.89a4.332,4.332,0,0,1,.018,7.513l-73.772,42.605a16.445,16.445,0,0,1-16.451,0l-118.66-68.55A4.332,4.332,0,0,1,1845.826,735.965Z" transform="translate(13408.376 10233.261)"/><path class="c" d="M1957.489,807.3l-36.851-21.276c-1.673-.966-1.673-2.531,0-3.5l14.486-8.364a6.692,6.692,0,0,1,6.057,0l36.851,21.276c1.672.966,1.672,2.531,0,3.5l-14.487,8.364A6.691,6.691,0,0,1,1957.489,807.3Z" transform="translate(13383.381 10206.133)"/><path class="c" d="M1919.384,785.658v3.495l41.134,22.909,18.769-10.837v-2.655Z" transform="translate(13383.381 10202.101)"/><path class="g" d="M1957.489,803.342l-36.851-21.277c-1.673-.965-1.673-2.531,0-3.5l14.486-8.364a6.7,6.7,0,0,1,6.057,0l36.851,21.277c1.672.965,1.672,2.531,0,3.5l-14.487,8.364A6.7,6.7,0,0,1,1957.489,803.342Z" transform="translate(13383.381 10207.441)"/><path class="g" d="M1970.434,801.2l-35.705-20.615,3.137-1.811,35.705,20.615Z" transform="translate(13378.314 10204.374)"/><path class="g" d="M1962.4,805.838l-35.7-20.615,3.137-1.811,35.7,20.615Z" transform="translate(13380.966 10202.842)"/><path class="h" d="M1935.79,780.787l34.994,20.2,2.427-1.4-34.995-20.2Z" transform="translate(13377.963 10204.171)"/><path class="h" d="M1927.757,785.425l34.995,20.2,2.427-1.4-34.994-20.2Z" transform="translate(13380.616 10202.64)"/><path class="h" d="M1943.607,775.52l34.994,20.2,2.427-1.4-34.995-20.2Z" transform="translate(13375.383 10205.91)"/><path class="i" d="M2035.537,818.561c0,2.343-3.576,4.243-7.987,4.243s-7.987-1.9-7.987-4.243,3.576-4.242,7.987-4.242S2035.537,816.219,2035.537,818.561Z" transform="translate(13350.305 10192.637)"/><ellipse class="g" cx="7.987" cy="4.242" rx="7.987" ry="4.242" transform="translate(15369.867 11004.854)"/><path class="j" d="M2037.065,906.661l.816-.474c.124-.072.123-.189,0-.261l-.819-.473a.5.5,0,0,0-.452,0l-.815.474a.138.138,0,0,0,0,.261l.819.473a.5.5,0,0,0,.451,0Z" transform="translate(13344.977 10162.566)"/><path class="c" d="M1997.006,749.255s4.037,11.025,0,13.356l-1.952,1.127-.006,0-7.653,4.42a1.2,1.2,0,0,0,0,2.262l10.75,6.209a4.247,4.247,0,0,0,3.9-.033l5.458-3.228.054.025c.628-.39,1.214-.757,1.742-1.088l.24-.142c.023-.014.038-.031.058-.045,1.107-.695,1.857-1.17,1.857-1.17s3.414-2.5,3.414-11.384Z" transform="translate(13361.191 10214.119)"/><path class="k" d="M2014.87,756.469c0,8.885-3.414,11.384-3.414,11.384s-.748.472-1.86,1.171a.276.276,0,0,0-.059.049l-.236.138q-.8.5-1.741,1.093l-.06-.03-.63.374-4.822,2.853a4.246,4.246,0,0,1-3.906.029l-10.745-6.208a1.2,1.2,0,0,1,0-2.264l4.831-2.794,2.814-1.624h.01c.7-.4,1.368-.787,1.949-1.131,3.945-2.273.2-12.811.01-13.332v-.01h.01Z" transform="translate(13361.192 10215.14)"/><path class="f" d="M2017.651,756.469c0,8.885-3.414,11.384-3.414,11.384s-.748.472-1.86,1.171a.264.264,0,0,0-.059.049l-.237.138q-.8.5-1.741,1.093l-.06-.03-.63.374-14.641-8.384,2.814-1.624h.01c.7-.4,1.368-.787,1.949-1.131,3.945-2.273.2-12.811.009-13.332l.01-.01Z" transform="translate(13358.41 10215.14)"/><path class="a" d="M2036.16,693.97l-56.934-32.87c-1.414-.817-2.495-.478-3.731.519l-2.63,1.475,2.829,2v44.479a7.807,7.807,0,0,0,3.532,6.118l55.751,32.187v2.53a.455.455,0,0,0,.713.374l2.674-1.843a2.315,2.315,0,0,0,1.328-2.417V700.1A7.818,7.818,0,0,0,2036.16,693.97Z" transform="translate(13365.723 10243.377)"/><path class="l" d="M2035.336,703.415V749.84c0,2.258-1.584,3.164-3.532,2.04l-56.933-32.87a7.8,7.8,0,0,1-3.533-6.118V666.467c0-2.258,1.584-3.172,3.533-2.048l56.933,32.869A7.82,7.82,0,0,1,2035.336,703.415Z" transform="translate(13366.227 10242.289)"/><path class="m" d="M1977.728,717.39v-44.7l55.435,32v44.7Z" transform="translate(13364.116 10239.399)"/><path class="c" d="M2035.335,760.573v8.974c0,2.258-1.584,3.164-3.532,2.04l-56.933-32.87a7.8,7.8,0,0,1-3.533-6.118v-8.974Z" transform="translate(13366.227 10222.582)"/><path class="c" d="M2033.179,772.132a3.616,3.616,0,0,1-1.785-.54l-56.933-32.87a8.151,8.151,0,0,1-3.738-6.475V722.56l64.822,37.424V769.2a2.87,2.87,0,0,1-1.24,2.645A2.227,2.227,0,0,1,2033.179,772.132Zm-61.633-48.145v8.26a7.365,7.365,0,0,0,3.326,5.762l56.933,32.869a1.754,1.754,0,0,0,2.915-1.683V760.46Z" transform="translate(13366.429 10222.934)"/><path class="n" d="M2014.282,757.655c0,1.365-.958,1.918-2.141,1.236a4.732,4.732,0,0,1-2.14-3.707c0-1.365.959-1.918,2.141-1.236A4.731,4.731,0,0,1,2014.282,757.655Z" transform="translate(13353.461 10212.666)"/><path class="c" d="M2006.039,698.4l-14.993-8.656v10.682l14.993,8.656Z" transform="translate(13359.719 10233.768)"/><path class="c" d="M2032.9,713.91l-14.994-8.656v10.682l14.994,8.656Z" transform="translate(13350.852 10228.647)"/><path class="c" d="M2006.039,719.517l-14.993-8.656v10.681l14.993,8.656Z" transform="translate(13359.72 10226.797)"/><path class="c" d="M2032.9,735.024l-14.994-8.656v10.681L2032.9,745.7Z" transform="translate(13350.852 10221.677)"/><path class="o" d="M1928.519,777.32c-.015,0-.029.016-.044.032a.976.976,0,0,1-.015-.208A.255.255,0,0,0,1928.519,777.32Z" transform="translate(13380.384 10204.911)"/><path class="p" d="M1927.288,774.274a.735.735,0,0,1-.558.046c-.02-.048-.01-.1-.037-.146Z" transform="translate(13380.968 10205.893)"/><path class="p" d="M1931.339,782.525c.1.007.2.027.305.041l-.8-.768C1931.012,782.036,1931.175,782.28,1931.339,782.525Z" transform="translate(13379.597 10203.375)"/><path class="o" d="M1928.14,771.6c-.015,0-.028.018-.04.036a1.013,1.013,0,0,1-.035-.205A.255.255,0,0,0,1928.14,771.6Z" transform="translate(13380.515 10206.799)"/><path class="p" d="M1926.607,768.691a.732.732,0,0,1-.551.1c-.023-.046-.019-.1-.051-.141Z" transform="translate(13381.194 10207.715)"/><path class="j" d="M1921.77,746.8l-.373.037Z" transform="translate(13382.716 10214.93)"/><g transform="translate(15233.379 10943.313)"><g transform="translate(21.339)"><g transform="translate(28.903 105.764)"><g transform="translate(0 29.273)"><path class="j" d="M1298.757,1724.271c-2.491-1.958-8.192,1.453-10.928,2.062-1.767.393-8.213.76-7.713,3.823a10.611,10.611,0,0,0-.321,2.348,9.108,9.108,0,0,0,.284,2.989,7.977,7.977,0,0,0,3.782,2.27,4.818,4.818,0,0,0,.51-.061,11.325,11.325,0,0,0,3.385-1.59c3.373-2.067,8.427-3.883,10.964-7.009C1299.853,1727.71,1300.168,1725.38,1298.757,1724.271Z" transform="translate(-1279.783 -1723.671)"/></g><g transform="translate(1.148 25.425)"><path class="q" d="M3.465,0H8.81a3.465,3.465,0,0,1,3.465,3.465v0A3.463,3.463,0,0,1,8.812,6.93H3.466A3.466,3.466,0,0,1,0,3.465v0A3.465,3.465,0,0,1,3.465,0Z" transform="translate(0 12.274) rotate(-89.292)"/></g><g transform="translate(0.112 0)"><path class="o" d="M1280.07,1688.907l-.155,29.585a4.073,4.073,0,0,0,3.731,3.474l2.028.149a4.074,4.074,0,0,0,4.368-4.258l3.629-28.951Z" transform="translate(-1279.915 -1688.907)"/></g></g><g transform="translate(28.918 18.115)"><g transform="translate(0 0)"><path class="j" d="M1279.8,1585.019c.019,0,.036.018.055.036a1.02,1.02,0,0,0,.019-.237A.275.275,0,0,1,1279.8,1585.019Z" transform="translate(-1279.801 -1584.819)"/></g></g><g transform="translate(19.259 22.088)"><g transform="translate(0 0)"><path class="p" d="M1270.2,1589.538l-1.845,12.987c-.255,1.8,1.859,3.255,4.721,3.255s5.389-1.457,5.644-3.255h.047l1.845-12.987Z" transform="translate(-1268.33 -1589.538)"/></g></g><g transform="translate(15.497 0)"><g transform="translate(22.954 15.147)"><path d="M1294.843,1589.135a3.926,3.926,0,1,1,3.72-3.921A3.829,3.829,0,0,1,1294.843,1589.135Zm0-7.232a3.319,3.319,0,1,0,3.112,3.312A3.22,3.22,0,0,0,1294.843,1581.9Z" transform="translate(-1291.122 -1581.294)"/></g><g transform="translate(3.913 8.309)"><path class="p" d="M1273.795,1588.5c-1.136-1.693-2.239,2.276-2.523.484-.295-1.858-2.755-1.079-2.763-2.977-.006-1.348,1.237-2.787,1.794-3.955a8.452,8.452,0,0,1,2.754-3.438,16.287,16.287,0,0,1,5.14-2.211,39.754,39.754,0,0,1,6.15-1.222l.573-2.005h6.446V1592a3.681,3.681,0,0,1-.125.781,7.849,7.849,0,0,1-10.557,5.4Z" transform="translate(-1268.509 -1573.174)"/></g><g transform="translate(0 0)"><path class="r" d="M1294.512,1571.121a4.557,4.557,0,0,1-1.391,1.964c-2.846,2.619-5.5,2.75-7.917,4.976-1.669,1.527-3.3,5.586-3.189,8.729a1.792,1.792,0,0,0-.085.328,1.174,1.174,0,0,0,.107.24,4.459,4.459,0,0,0,.963,2.531,5.991,5.991,0,0,0,4,1.833,5.279,5.279,0,0,0,3.916-1.134c-.122.109.114,3.842-.145,4.525a5.544,5.544,0,0,1-3.047,3.244c-3.023,1.282-6.442-.269-8.886-2.125-1.481-1.125-3.223-4.424-5.018-4.714l-3.66-.589c-1.284-.2-2.717-.481-3.509-1.549a5.129,5.129,0,0,1-.771-1.833c-1.926-6.9-3.974-13.37,1.569-19.677,5.136-5.8,19.808-6.044,25.8-.872A4.029,4.029,0,0,1,1294.512,1571.121Z" transform="translate(-1263.862 -1563.306)"/></g><g transform="translate(14.288 18.68)"><path class="p" d="M1281.025,1590.3c.591,2.166,2.349,3.558,3.924,3.111s2.373-2.566,1.782-4.732-2.349-3.558-3.924-3.11S1280.434,1588.139,1281.025,1590.3Z" transform="translate(-1280.83 -1585.489)"/></g><g transform="translate(20.85 17.447)"><rect class="s" width="9.123" height="0.609" transform="translate(0 3.742) rotate(-24.214)"/></g><g transform="translate(15.501 17.61) rotate(-8)"><rect class="r" width="3.435" height="13.166" rx="1.717" transform="translate(0 0)"/></g></g><g transform="translate(0.026 78.548)"><g transform="translate(0 0)"><path class="o" d="M1292.429,1674l-33.861,21.122-8.2-4.938a10.088,10.088,0,0,1-4.881-8.644v-11.774l1.743,1.29,3.746-1.606,29.774-12.762.575-.049c.373-.033.738-.049,1.1-.049a13.36,13.36,0,0,1,12.948,10.071c0,.016.008.032.008.048A6.716,6.716,0,0,1,1292.429,1674Z" transform="translate(-1245.49 -1656.587)"/></g></g><g transform="translate(0.026 87.257)"><g transform="translate(0 0)"><path class="j" d="M1313.089,1677.008a13.369,13.369,0,0,0-12.949-10.079c-.365,0-.73.016-1.1.049l-.575.048-3.074,1.313-17.526,7.521a24.492,24.492,0,0,1-24.214-2.808l-2.669-1.972-5.49-4.054v16.144a10.088,10.088,0,0,0,4.881,8.644l8.2,4.938,9.552,5.749a12.5,12.5,0,0,0,13.062-.1l28.963-18.066A6.7,6.7,0,0,0,1313.089,1677.008Z" transform="translate(-1245.49 -1666.929)"/></g></g><g transform="translate(4.91 31.647)"><g transform="translate(0 0)"><path class="p" d="M1298.329,1623.919c-2.2,1.639-13.438,9.924-18.562,12.238a21.481,21.481,0,0,1-8.908,1.923,18.78,18.78,0,0,1-6.454-1.145,13.757,13.757,0,0,1-8.137-7.3,12.066,12.066,0,0,1-.762-2.422l-4.139-20.428c-.5-2.46,1.512-5.021,4.486-5.716s5.8.739,6.3,3.206l4.139,20.428c.006.014,0,.026.01.04a5.023,5.023,0,0,0,3.349,3.635,7.769,7.769,0,0,0,5.816-.3c2.828-1.278,11.156-7.1,16.168-10.832,2.389-1.777,5.821-1.719,7.67.125S1300.717,1622.148,1298.329,1623.919Z" transform="translate(-1251.29 -1600.889)"/></g></g><g transform="translate(0 30.577)"><g transform="translate(0 0)"><path class="o" d="M1287.365,1664.12a6.261,6.261,0,0,1-4.16,6.09c-1.525.543-4.062,1.411-6.065,1.881a13.338,13.338,0,0,1-1.581.284,26.744,26.744,0,0,1-16.745-3.819l-11.027-6.422a4.715,4.715,0,0,1-2.327-4.176l1.159-45.771a13.31,13.31,0,0,1,6.609-11.481,10.455,10.455,0,0,1,5.157-1.086,22.5,22.5,0,0,1,2.878.194c5.06.608,10.695,2.708,13.6,4.736,2.855,1.808,6.4,2.983,8.684,5.238a7.648,7.648,0,0,1,2.359,5.538C1285.954,1616.939,1287.365,1664.12,1287.365,1664.12Z" transform="translate(-1245.459 -1599.619)"/></g><g class="t" transform="translate(29.219 13.972)"><path class="o" d="M1284.045,1618.693a.684.684,0,0,1-.3.327,25.054,25.054,0,0,0-.388,4.691c-.016,2.936.114,5.959-.924,8.709-.632,1.67-1.687,3.186-2.084,4.929-.957,4.151,1.938,8.124,2.773,12.292.925,4.638-.722,9.349-1.159,14.052a43.045,43.045,0,0,0,.657,11.019c2-.471,4.54-1.338,6.065-1.881a6.261,6.261,0,0,0,4.16-6.09s-1.305-43.628-1.448-48.407C1289.25,1615.954,1285.716,1614.951,1284.045,1618.693Z" transform="translate(-1280.159 -1616.212)"/></g></g><g transform="translate(34.013 43.455)"><g transform="translate(0 0)"><path class="p" d="M1326.4,1642.641c-1.613,2.018-9.863,12.226-13.792,15.094a12.013,12.013,0,0,1-7.068,2.425,11.636,11.636,0,0,1-5.411-1.34,16.231,16.231,0,0,1-7.488-8.837,21.548,21.548,0,0,1-.9-2.948l-5.713-24.884c-.69-3,.665-6.139,3.019-7.013s4.831.849,5.521,3.854l5.713,24.885c.007.016.007.032.013.048a6.482,6.482,0,0,0,3.153,4.4,4.4,4.4,0,0,0,4.726-.412c2.167-1.585,8.318-8.761,11.993-13.358a3.811,3.811,0,0,1,6.289.083A6.786,6.786,0,0,1,1326.4,1642.641Z" transform="translate(-1285.851 -1614.912)"/></g></g><g transform="translate(31.227 43.116)"><g transform="translate(0 0)"><path class="o" d="M1303.6,1643.273l-7.08-23.745a6.951,6.951,0,0,0-3.416-4.161,7.244,7.244,0,0,0-5.427-.577,7.064,7.064,0,0,0-4.252,3.337,6.78,6.78,0,0,0-.6,5.3l7.1,23.823a18.822,18.822,0,0,0,1.218,3.071l.3.588a.822.822,0,0,0,.99.4l.636-.21c.367-.121.742-.259,1.082-.4a28.189,28.189,0,0,0,9.065-5.769l.4-.38a.784.784,0,0,0,.162-.921Z" transform="translate(-1282.543 -1614.509)"/></g></g><g transform="translate(52.896 97.335)"><g transform="translate(0 48.128)"><path class="j" d="M1328.835,1736.7c-2.7-2.121-8.876,1.574-11.84,2.234-1.916.427-8.9.823-8.358,4.144a11.464,11.464,0,0,0-.348,2.543,9.883,9.883,0,0,0,.307,3.239,8.643,8.643,0,0,0,4.1,2.46,5.228,5.228,0,0,0,.552-.066,12.286,12.286,0,0,0,3.668-1.722c3.655-2.241,9.132-4.208,11.881-7.595C1330.023,1740.429,1330.365,1737.9,1328.835,1736.7Z" transform="translate(-1308.276 -1736.052)"/></g><g transform="translate(1.246 43.959)"><rect class="q" width="7.51" height="13.301" rx="3.755" transform="translate(7.509 13.39) rotate(-179.314)"/></g><g transform="translate(0.121 0)"><path class="j" d="M1309.24,1680.1l-.821,47.267a4.412,4.412,0,0,0,4.043,3.764l2.2.162a4.414,4.414,0,0,0,4.733-4.613l3.636-47.779Z" transform="translate(-1308.419 -1678.898)"/></g></g></g><g transform="translate(17.437 116.555)"><path class="e" d="M1905.324,927.174c-9.35-5.4-24.506-5.4-33.855,0s-9.349,14.149,0,19.546,24.505,5.4,33.855,0S1914.672,932.571,1905.324,927.174Z" transform="translate(-1864.458 -901.472)"/><path class="u" d="M1873.809,954.706a5.449,5.449,0,0,1,2.465-4.269c1.362-.786,2.465-.149,2.466,1.423a5.447,5.447,0,0,1-2.466,4.269C1874.913,956.915,1873.809,956.278,1873.809,954.706Z" transform="translate(-1867.545 -910.379)"/><path class="u" d="M1873.809,954.706a5.449,5.449,0,0,1,2.465-4.269c1.362-.786,2.465-.149,2.466,1.423a5.447,5.447,0,0,1-2.466,4.269C1874.913,956.915,1873.809,956.278,1873.809,954.706Z" transform="translate(-1867.545 -910.379)"/><path class="u" d="M1878.369,950.414l2.124,1.107-3.335,6.078-2.487-1.294.63-3.423Z" transform="translate(-1867.831 -910.482)"/><path class="c" d="M1876.937,956.328a5.448,5.448,0,0,1,2.465-4.269c1.361-.786,2.465-.149,2.465,1.423a5.449,5.449,0,0,1-2.465,4.269C1878.041,958.538,1876.937,957.9,1876.937,956.328Z" transform="translate(-1868.578 -910.915)"/><path class="h" d="M1876.937,956.328a5.448,5.448,0,0,1,2.465-4.269c1.361-.786,2.465-.149,2.465,1.423a5.449,5.449,0,0,1-2.465,4.269C1878.041,958.538,1876.937,957.9,1876.937,956.328Z" transform="translate(-1868.578 -910.915)"/><path class="u" d="M1918.062,929.972a5.451,5.451,0,0,1,2.465-4.269c1.361-.786,2.465-.149,2.465,1.423a5.446,5.446,0,0,1-2.465,4.269C1919.166,932.181,1918.062,931.544,1918.062,929.972Z" transform="translate(-1882.157 -902.212)"/><path class="u" d="M1918.062,929.972a5.451,5.451,0,0,1,2.465-4.269c1.361-.786,2.465-.149,2.465,1.423a5.446,5.446,0,0,1-2.465,4.269C1919.166,932.181,1918.062,931.544,1918.062,929.972Z" transform="translate(-1882.157 -902.212)"/><path class="u" d="M1922.622,925.68l2.124,1.107-3.335,6.078-2.487-1.294.63-3.423Z" transform="translate(-1882.441 -902.316)"/><path class="c" d="M1921.19,931.594a5.448,5.448,0,0,1,2.465-4.269c1.361-.786,2.465-.149,2.465,1.423a5.451,5.451,0,0,1-2.465,4.269C1922.293,933.8,1921.19,933.167,1921.19,931.594Z" transform="translate(-1883.19 -902.748)"/><path class="h" d="M1921.19,931.594a5.448,5.448,0,0,1,2.465-4.269c1.361-.786,2.465-.149,2.465,1.423a5.451,5.451,0,0,1-2.465,4.269C1922.293,933.8,1921.19,933.167,1921.19,931.594Z" transform="translate(-1883.19 -902.748)"/><path class="u" d="M1915.986,955.8a5.447,5.447,0,0,1,2.465-4.269c1.361-.786,2.465-.149,2.465,1.423a5.449,5.449,0,0,1-2.465,4.27C1917.089,958.007,1915.986,957.37,1915.986,955.8Z" transform="translate(-1881.471 -910.74)"/><path class="u" d="M1915.986,955.8a5.447,5.447,0,0,1,2.465-4.269c1.361-.786,2.465-.149,2.465,1.423a5.449,5.449,0,0,1-2.465,4.27C1917.089,958.007,1915.986,957.37,1915.986,955.8Z" transform="translate(-1881.471 -910.74)"/><path class="u" d="M1920.545,951.506l2.124,1.107-3.334,6.078-2.488-1.294.63-3.423Z" transform="translate(-1881.756 -910.843)"/><path class="c" d="M1919.113,957.421a5.449,5.449,0,0,1,2.465-4.269c1.362-.786,2.465-.149,2.465,1.423a5.448,5.448,0,0,1-2.465,4.27C1920.217,959.63,1919.113,958.993,1919.113,957.421Z" transform="translate(-1882.503 -911.275)"/><path class="h" d="M1919.113,957.421a5.449,5.449,0,0,1,2.465-4.269c1.362-.786,2.465-.149,2.465,1.423a5.448,5.448,0,0,1-2.465,4.27C1920.217,959.63,1919.113,958.993,1919.113,957.421Z" transform="translate(-1882.503 -911.275)"/><path class="u" d="M1873.025,930.89a5.45,5.45,0,0,1,2.465-4.27c1.361-.786,2.465-.149,2.465,1.423a5.447,5.447,0,0,1-2.465,4.27C1874.129,933.1,1873.025,932.462,1873.025,930.89Z" transform="translate(-1867.286 -902.515)"/><path class="u" d="M1873.025,930.89a5.45,5.45,0,0,1,2.465-4.27c1.361-.786,2.465-.149,2.465,1.423a5.447,5.447,0,0,1-2.465,4.27C1874.129,933.1,1873.025,932.462,1873.025,930.89Z" transform="translate(-1867.286 -902.515)"/><path class="u" d="M1877.584,926.6l2.124,1.107-3.335,6.078-2.488-1.294.631-3.423Z" transform="translate(-1867.571 -902.619)"/><path class="c" d="M1876.153,932.513a5.447,5.447,0,0,1,2.465-4.27c1.361-.786,2.465-.149,2.465,1.423a5.448,5.448,0,0,1-2.465,4.269C1877.256,934.722,1876.153,934.085,1876.153,932.513Z" transform="translate(-1868.32 -903.051)"/><path class="h" d="M1876.153,932.513a5.447,5.447,0,0,1,2.465-4.27c1.361-.786,2.465-.149,2.465,1.423a5.448,5.448,0,0,1-2.465,4.269C1877.256,934.722,1876.153,934.085,1876.153,932.513Z" transform="translate(-1868.32 -903.051)"/><path class="f" d="M1908.367,939.448l-10.907-6.3,10.907-6.3c1.791-1.034,1.791-2.725,0-3.759h0a7.223,7.223,0,0,0-6.511,0l-10.907,6.3-10.907-6.3a7.223,7.223,0,0,0-6.511,0c-1.79,1.034-1.79,2.725,0,3.759l10.908,6.3-10.908,6.3c-1.79,1.034-1.79,2.726,0,3.759h0a7.223,7.223,0,0,0,6.511,0l10.907-6.3,10.907,6.3a7.223,7.223,0,0,0,6.511,0C1910.158,942.174,1910.158,940.482,1908.367,939.448Z" transform="translate(-1867.011 -901.206)"/><path class="f" d="M1908.367,939.448l-10.907-6.3,10.907-6.3c1.791-1.034,1.791-2.725,0-3.759h0a7.223,7.223,0,0,0-6.511,0l-10.907,6.3-10.907-6.3a7.223,7.223,0,0,0-6.511,0c-1.79,1.034-1.79,2.725,0,3.759l10.908,6.3-10.908,6.3c-1.79,1.034-1.79,2.726,0,3.759h0a7.223,7.223,0,0,0,6.511,0l10.907-6.3,10.907,6.3a7.223,7.223,0,0,0,6.511,0C1910.158,942.174,1910.158,940.482,1908.367,939.448Z" transform="translate(-1867.011 -901.206)"/><path class="c" d="M1892,935.543c0,2.038,2.458,3.689,5.493,3.689s5.493-1.652,5.493-3.689-2.46-5.414-5.493-5.414S1892,933.505,1892,935.543Z" transform="translate(-1873.551 -903.785)"/><path class="f" d="M1894.18,932.836c0,1.5,1.8,2.707,4.03,2.707s4.03-1.212,4.03-2.707-1.8-2.707-4.03-2.707S1894.18,931.341,1894.18,932.836Z" transform="translate(-1874.271 -903.785)"/><path class="c" d="M1898.982,890.8a2.482,2.482,0,0,0-2.465,2.5v24.054a2.465,2.465,0,1,0,4.93,0V893.3A2.482,2.482,0,0,0,1898.982,890.8Z" transform="translate(-1875.043 -890.799)"/></g><path class="v" d="M1932.257,867.35c0,.135,0,.277-.014.419a12.262,12.262,0,0,1-6.324,9.821l-26.891,14.746a7.135,7.135,0,0,1-1.272.547,7.341,7.341,0,0,1-6-.654l-30.8-18.15a16.81,16.81,0,0,1-8.2-12.92l-3.226-34.523-.334-3.589a3.833,3.833,0,0,1,5.515-3.794l33.337,16.494a3.834,3.834,0,0,1,1.94,2.231l10.66,32.349a4.451,4.451,0,0,0,6.432,2.473l17.4-9.949A5.205,5.205,0,0,1,1932.257,867.35Z" transform="translate(-1849.172 -761.923)"/><path class="u" d="M1897.059,894.665a2.137,2.137,0,0,1-2.305,2.869,7.326,7.326,0,0,1-2.707-.945l-30.8-18.15a16.809,16.809,0,0,1-8.2-12.92l-2.97-31.786a1.535,1.535,0,0,1,2.208-1.518l26.9,13.3a3.848,3.848,0,0,1,1.94,2.239l10.653,32.349C1892.144,881.229,1894.4,887.677,1897.059,894.665Z" transform="translate(-1849.468 -766.284)"/><g transform="translate(88.584 52.814)"><path class="w" d="M8.371,8.52c-2.337,2.172-5.627,2.432-7.348.581S-.2,3.987,2.14,1.816,7.767-.616,9.488,1.235,10.708,6.349,8.371,8.52Z" transform="matrix(0.985, -0.174, 0.174, 0.985, 0, 7.787)"/><path class="w" d="M.408,8.8h0A1.527,1.527,0,0,1,.487,6.645L7.2.408A1.525,1.525,0,0,1,9.355.487h0a1.525,1.525,0,0,1-.079,2.156L2.565,8.88A1.527,1.527,0,0,1,.408,8.8Z" transform="matrix(0.985, -0.174, 0.174, 0.985, 1.639, 1.696)"/></g></g></g><g transform="translate(404 2955.085)"><path class="x" d="M276,660H813.675s-11.269,20.927-37.026,17.708a149.484,149.484,0,0,1-20.927-1.61c-9.659-1.61-24.147,3.22-27.367,8.049,0,0-24.147,14.488-64.392,0,0,0-37.026-16.1-62.782-1.61,0,0-19.318,20.928-69.222-4.829,0,0-12.879-8.049-35.416,8.049,0,0-22.537,19.318-66-8.049,0,0-24.147-6.439-51.514,6.439C379.028,684.147,324.294,692.2,276,660Z" transform="translate(-276 -571.461)"/><path class="y" d="M582.407,634.075s27.206,15.026,15.19,36.5C597.6,670.576,578.133,666.564,582.407,634.075Z" transform="translate(-89.525 -587.27)"/><path class="z" d="M614.007,623s14.488,46.684-22.537,57.953C591.47,680.953,573.762,655.2,614.007,623Z" transform="translate(-85.991 -594.023)"/><path class="z" d="M334.352,621.92s-41.564,22.958-23.207,55.765C311.145,677.685,340.883,671.557,334.352,621.92Z" transform="translate(-257.422 -594.682)"/><path class="y" d="M292.061,605s-22.135,71.324,34.43,88.539C326.492,693.539,353.546,654.189,292.061,605Z" transform="translate(-268.808 -605)"/></g><g transform="translate(0 -38)"><path class="aa" d="M2325.625,372.073,2116.092,250.319c-3.859-2.466-7.188-.784-7.435,3.755l-1.032,18.991-7.837,144.276a15.624,15.624,0,0,0,6.542,12.685L2315.862,551.78c3.86,2.466,7.188.785,7.435-3.754l7.838-144.276,1.031-18.992A15.626,15.626,0,0,0,2325.625,372.073Z" transform="translate(-1583.142 2440.068)"/><path class="ab" d="M2318.765,418.237l-7.842,144.273c-.246,4.544-3.576,6.22-7.435,3.759l-118.5-68.86-91.028-52.9a15.613,15.613,0,0,1-6.543-12.679l7.835-144.28,98.277,57.458Z" transform="translate(-1579.602 2429.087)"/><path class="a" d="M2322.942,389.67l-1.022,18.891-.008.1-125.235-73.228L2098.4,277.975l.092-1.676.938-17.315c.246-4.536,3.576-6.22,7.435-3.752L2316.4,376.984A15.625,15.625,0,0,1,2322.942,389.67Z" transform="translate(-1582.748 2438.663)"/><path class="ac" d="M2392.843,440.9a6.831,6.831,0,0,0,2.973,5.488c1.71,1.044,3.15.279,3.217-1.708a6.832,6.832,0,0,0-2.974-5.487C2394.35,438.15,2392.909,438.915,2392.843,440.9Z" transform="translate(-1667.025 2385.816)"/><path class="ad" d="M2377.11,431.3a6.831,6.831,0,0,0,2.974,5.487c1.71,1.044,3.15.279,3.216-1.708a6.828,6.828,0,0,0-2.973-5.487C2378.617,428.547,2377.176,429.312,2377.11,431.3Z" transform="translate(-1662.521 2388.565)"/><g transform="translate(2658.408 349.043)"><g class="ae" transform="translate(-2127.408 2414.957)"><g class="af"><g transform="translate(0.099 36.267)"><path class="a" d="M-1822.1,2604.235q-3.863-2.23-6.022-.317t-2.175,7.789a22.206,22.206,0,0,0,2.124,10.136,15.114,15.114,0,0,0,6,6.492,6.446,6.446,0,0,0,4.361,1.114,3.924,3.924,0,0,0,2.772-2.278l-1.942-2.527a3.024,3.024,0,0,1-1.926,1.948,4.23,4.23,0,0,1-3.257-.728,10.263,10.263,0,0,1-4.09-4.407,14.191,14.191,0,0,1-1.436-6.5l.01-3.485a10.56,10.56,0,0,1,.387-3.047,4.088,4.088,0,0,1,1.1-1.883,2.423,2.423,0,0,1,1.747-.619,5.053,5.053,0,0,1,2.34.781,9.6,9.6,0,0,1,3.134,2.9,13.217,13.217,0,0,1,1.85,3.96l1.979-.228a17.908,17.908,0,0,0-2.676-5.306,14.012,14.012,0,0,0-4.281-3.792" transform="translate(1891.028 -2600.795)"/><path class="a" d="M-1733.868,2643.568l-8.133-4.7-.007,2.337,2.847,1.644-.053,18.625-2.847-1.644-.007,2.335,8.133,4.7.007-2.336-2.847-1.644.053-18.625,2.847,1.644.007-2.337" transform="translate(1820.861 -2629.296)"/><path class="a" d="M-1677.245,2687.869q-3.865-2.231-6.022-.317t-2.176,7.789a22.191,22.191,0,0,0,2.125,10.137,15.111,15.111,0,0,0,6,6.492,6.452,6.452,0,0,0,4.361,1.114,3.927,3.927,0,0,0,2.77-2.279l-1.942-2.527a3.027,3.027,0,0,1-1.925,1.949,4.231,4.231,0,0,1-3.257-.728,10.269,10.269,0,0,1-4.091-4.408,14.193,14.193,0,0,1-1.436-6.5l.01-3.485a10.545,10.545,0,0,1,.387-3.047,4.088,4.088,0,0,1,1.1-1.883,2.425,2.425,0,0,1,1.748-.618,5.05,5.05,0,0,1,2.34.781,9.607,9.607,0,0,1,3.134,2.9,13.234,13.234,0,0,1,1.85,3.96l1.979-.228a17.908,17.908,0,0,0-2.677-5.307,14,14,0,0,0-4.28-3.792" transform="translate(1775.83 -2667.306)"/><path class="a" d="M-2125.088,2608.774l.039-13.769,3.268,1.886a7.79,7.79,0,0,1,1.72,1.357,8.681,8.681,0,0,1,1.347,1.843,9.7,9.7,0,0,1,.877,2.225,9.729,9.729,0,0,1,.31,2.5l-.008,2.855a6.09,6.09,0,0,1-.323,2.132,2.415,2.415,0,0,1-.887,1.206,1.977,1.977,0,0,1-1.353.284,4.557,4.557,0,0,1-1.723-.631l-3.268-1.886m3.313-13.735-5.1-2.943-.05,17.473,5.1,2.943a6.6,6.6,0,0,0,2.573.935,2.727,2.727,0,0,0,1.976-.5,3.883,3.883,0,0,0,1.26-2.006,12.149,12.149,0,0,0,.448-3.564,18.09,18.09,0,0,0-.426-4.071,14.309,14.309,0,0,0-1.245-3.452,12.3,12.3,0,0,0-1.967-2.778,11.353,11.353,0,0,0-2.569-2.034" transform="translate(2126.923 -2592.096)"/><path class="a" d="M-2053.3,2656.749l-1.72-.993-2.749,7.2-.615,1.747-.109-.063-.517-2.4-2.676-10.329-1.744-1.007,4.167,15.826-.857,2.258-1.765-1.019-.005,1.778.893.516a6.219,6.219,0,0,0,1.036.5,1.365,1.365,0,0,0,.709.083.8.8,0,0,0,.48-.336,3.977,3.977,0,0,0,.4-.738l5.078-13.016" transform="translate(2076.432 -2638.861)"/><path class="a" d="M-1998.228,2688.327a2.79,2.79,0,0,0-2.017-.52,1.867,1.867,0,0,0-1.171,1.062l-.086-.05.006-2.079-1.744-1.007-.036,12.918,1.744,1.007.025-8.982a1.681,1.681,0,0,1,.232-.958.938.938,0,0,1,.623-.406,1.965,1.965,0,0,1,.884.057,4.259,4.259,0,0,1,1.014.435,5.241,5.241,0,0,1,2.539,4.958l-.023,7.953,1.742,1.006.023-8.287a8.709,8.709,0,0,0-1-4.226,7.161,7.161,0,0,0-2.752-2.881" transform="translate(2028.592 -2666.563)"/><path class="a" d="M-1943.105,2737.874a4.888,4.888,0,0,1-1.621-1.462,3.162,3.162,0,0,1-.6-1.824v-.524q0-.953.69-1.056a4.011,4.011,0,0,1,2.191.764l2.31,1.333-.006,2.127a1.335,1.335,0,0,1-.221.8,1.04,1.04,0,0,1-.611.4,1.913,1.913,0,0,1-.939-.041,4.836,4.836,0,0,1-1.2-.516m.426-11.59a4.049,4.049,0,0,0-2.529-.72,1.954,1.954,0,0,0-1.465.947l1.042,1.73a1.839,1.839,0,0,1,1.148-.743,2.615,2.615,0,0,1,1.713.462,5.353,5.353,0,0,1,2,1.884,4.76,4.76,0,0,1,.648,2.479l0,1.278-2.222-1.283q-2.463-1.422-3.63-1.12t-1.174,2.131a6.446,6.446,0,0,0,.984,3.427,7.639,7.639,0,0,0,2.775,2.655,3.331,3.331,0,0,0,2.028.569,1.506,1.506,0,0,0,1.225-1.1l.109.063a5.314,5.314,0,0,0,.53,1.811,3.406,3.406,0,0,0,1.4,1.412l.98.566,0-1.777-1.286-.742.02-7.094a7.1,7.1,0,0,0-1.123-3.852,8.92,8.92,0,0,0-3.178-2.986" transform="translate(1983.957 -2698.219)"/><path class="a" d="M-1874.208,2759.93a2.881,2.881,0,0,0-2.279-.532,1.813,1.813,0,0,0-1.149,1.163l-.043-.025a7.538,7.538,0,0,0-1.389-2.8,7.477,7.477,0,0,0-2.047-1.791,3.782,3.782,0,0,0-1.133-.468,1.7,1.7,0,0,0-.841.023,1.34,1.34,0,0,0-.613.4,3.439,3.439,0,0,0-.448.671l-.088-.051.006-2.079-1.742-1.006-.037,12.918,1.742,1.006.026-8.982a1.681,1.681,0,0,1,.232-.958.985.985,0,0,1,.6-.419,1.755,1.755,0,0,1,.851.038,4.12,4.12,0,0,1,1,.429,4.423,4.423,0,0,1,1.828,1.934,6.715,6.715,0,0,1,.581,2.949l-.022,7.953,1.742,1.006.026-8.982a1.786,1.786,0,0,1,.221-.965.936.936,0,0,1,.59-.425,1.752,1.752,0,0,1,.84.033,3.957,3.957,0,0,1,.991.421,4.5,4.5,0,0,1,1.871,1.959,6.714,6.714,0,0,1,.581,2.948l-.023,7.953,1.744,1.007.023-8.287a8.882,8.882,0,0,0-.96-4.2,6.864,6.864,0,0,0-2.686-2.843" transform="translate(1935.334 -2720.406)"/><path class="a" d="M-1791.913,2787.411l-1.744-1.007-.037,12.917,1.744,1.007.037-12.917m-.856-6.111q-.566-.327-.818-.159a.756.756,0,0,0-.253.669v.326a1.956,1.956,0,0,0,.249.958,2.076,2.076,0,0,0,.816.786q.567.327.818.158a.754.754,0,0,0,.253-.668v-.326a1.961,1.961,0,0,0-.249-.959,2.075,2.075,0,0,0-.816-.784" transform="translate(1862.035 -2742.391)"/><path class="a" d="M-1765.438,2829.839a5.045,5.045,0,0,0-2.115-.744,2.226,2.226,0,0,0-1.583.44,3.138,3.138,0,0,0-.986,1.563,8.666,8.666,0,0,0-.345,2.608,13.161,13.161,0,0,0,.329,3,11.518,11.518,0,0,0,.974,2.693,10.2,10.2,0,0,0,1.575,2.265,8.956,8.956,0,0,0,2.112,1.695,4.11,4.11,0,0,0,2.694.728,2.24,2.24,0,0,0,1.628-1.291l-1.261-1.706q-.942,1.713-3.056.492a5.858,5.858,0,0,1-2.339-2.441,7,7,0,0,1-.787-3.25l.006-2.2a4.705,4.705,0,0,1,.2-1.452,1.722,1.722,0,0,1,.592-.888,1.411,1.411,0,0,1,.983-.234,3.476,3.476,0,0,1,1.373.505,5.579,5.579,0,0,1,1.741,1.556,6.193,6.193,0,0,1,1,2.132l1.463-.009a10.56,10.56,0,0,0-1.507-3.064,8.348,8.348,0,0,0-2.689-2.394" transform="translate(1843.447 -2780.567)"/><path class="a" d="M-1685.191,2862.749l.039-13.769,3.268,1.887a7.765,7.765,0,0,1,1.721,1.357,8.675,8.675,0,0,1,1.347,1.843,9.694,9.694,0,0,1,.877,2.225,9.716,9.716,0,0,1,.31,2.5l-.008,2.855a6.088,6.088,0,0,1-.323,2.132,2.414,2.414,0,0,1-.887,1.206,1.979,1.979,0,0,1-1.353.284,4.55,4.55,0,0,1-1.722-.63l-3.268-1.887m3.312-13.734-5.1-2.943-.049,17.473,5.1,2.943a6.605,6.605,0,0,0,2.573.934,2.727,2.727,0,0,0,1.976-.5,3.883,3.883,0,0,0,1.26-2.006,12.144,12.144,0,0,0,.448-3.565,18.09,18.09,0,0,0-.426-4.07,14.283,14.283,0,0,0-1.245-3.452,12.3,12.3,0,0,0-1.967-2.778,11.334,11.334,0,0,0-2.57-2.034" transform="translate(1777.089 -2794.073)"/><path class="a" d="M-1618.6,2920.535v-.174a3.644,3.644,0,0,1,.245-1.416,1.812,1.812,0,0,1,.668-.848,1.563,1.563,0,0,1,1.015-.225,3.261,3.261,0,0,1,1.308.469,5.679,5.679,0,0,1,2.164,2.283,6.628,6.628,0,0,1,.809,3.222v.273l-6.209-3.585m3.241-3.871a4.895,4.895,0,0,0-2.082-.726,2.313,2.313,0,0,0-1.594.446,3.2,3.2,0,0,0-1.031,1.549,7.983,7.983,0,0,0-.367,2.571,12.388,12.388,0,0,0,.352,3,12.2,12.2,0,0,0,1.019,2.719,10.616,10.616,0,0,0,1.586,2.283,8.762,8.762,0,0,0,2.08,1.676,4.5,4.5,0,0,0,2.747.766,2.149,2.149,0,0,0,1.705-1.173l-1.239-1.749a1.643,1.643,0,0,1-1.236.941,2.963,2.963,0,0,1-1.864-.5,6.144,6.144,0,0,1-1.4-1.112,7.032,7.032,0,0,1-1.043-1.43,7.282,7.282,0,0,1-.65-1.616,6.4,6.4,0,0,1-.224-1.672l0-.6,8.083,4.667,0-.948a11.042,11.042,0,0,0-.331-2.716,11.371,11.371,0,0,0-.963-2.542,10.61,10.61,0,0,0-1.522-2.191,8.278,8.278,0,0,0-2.025-1.644" transform="translate(1724.131 -2849.631)"/><path class="a" d="M-1556.238,2916.4l-1.742-1.006-.047,16.447a3.607,3.607,0,0,0,.464,1.759,3.541,3.541,0,0,0,1.381,1.387l1.548.894.005-1.777-1.656-.956.047-16.748" transform="translate(1674.501 -2849.205)"/><path class="a" d="M-1527.909,2939.831l-1.742-1.006-.037,12.917,1.742,1.006.037-12.917m-.856-6.11q-.567-.327-.818-.159a.762.762,0,0,0-.252.67v.326a1.967,1.967,0,0,0,.248.957,2.075,2.075,0,0,0,.816.785c.378.218.651.271.818.158a.753.753,0,0,0,.253-.668v-.326a1.962,1.962,0,0,0-.249-.959,2.066,2.066,0,0,0-.816-.784" transform="translate(1652.081 -2863.606)"/><path class="a" d="M-1499.528,2976.471l-1.678-.969-2.022,5.252-1.232,3.7-.11-.063-1.207-5.109-1.943-7.541-1.742-1.006,3.906,15.194,2.026,1.17,4-10.628" transform="translate(1635.879 -2893.214)"/><path class="a" d="M-1453.13,3016.069v-.174a3.672,3.672,0,0,1,.244-1.417,1.825,1.825,0,0,1,.668-.848,1.563,1.563,0,0,1,1.015-.225,3.274,3.274,0,0,1,1.308.469,5.69,5.69,0,0,1,2.166,2.284,6.637,6.637,0,0,1,.809,3.222v.273l-6.209-3.585m3.24-3.872a4.889,4.889,0,0,0-2.081-.724,2.308,2.308,0,0,0-1.595.445,3.193,3.193,0,0,0-1.029,1.55,7.947,7.947,0,0,0-.367,2.572,12.325,12.325,0,0,0,.351,3,12.142,12.142,0,0,0,1.018,2.718,10.6,10.6,0,0,0,1.587,2.284,8.747,8.747,0,0,0,2.078,1.675,4.5,4.5,0,0,0,2.747.766,2.15,2.15,0,0,0,1.705-1.173l-1.239-1.749a1.643,1.643,0,0,1-1.234.942,2.968,2.968,0,0,1-1.864-.5,6.123,6.123,0,0,1-1.4-1.112,6.964,6.964,0,0,1-1.043-1.43,7.177,7.177,0,0,1-.65-1.616,6.342,6.342,0,0,1-.224-1.672l0-.6,8.082,4.667,0-.948a11.078,11.078,0,0,0-.33-2.715,11.431,11.431,0,0,0-.964-2.543,10.591,10.591,0,0,0-1.522-2.19,8.267,8.267,0,0,0-2.025-1.645" transform="translate(1592.537 -2925.606)"/><path class="a" d="M-1386.781,3041.647l-.676-.39a2.762,2.762,0,0,0-2.159-.518,1.743,1.743,0,0,0-1.094,1.022l-.11-.063.007-2.378-1.742-1.006-.037,12.918,1.743,1.006.025-8.761a.958.958,0,0,1,.8-1.08,3.512,3.512,0,0,1,2.212.662l1.025.592.006-2" transform="translate(1542.935 -2946.957)"/><path class="a" d="M-1349.4,3063.147l-1.722-.994-2.748,7.2-.616,1.746-.109-.063-.517-2.4-2.677-10.33-1.742-1.006,4.166,15.825-.857,2.258-1.765-1.019-.005,1.778.894.516a6.159,6.159,0,0,0,1.034.5,1.365,1.365,0,0,0,.709.083.8.8,0,0,0,.482-.336,3.955,3.955,0,0,0,.395-.738l5.078-13.016" transform="translate(1516.644 -2962.055)"/><path class="a" d="M-1931.178,2860.224l.018-6.309,4.226,2.44a4.6,4.6,0,0,1,1.687,1.627,4.174,4.174,0,0,1,.594,2.2l0,1.3q0,1.2-.6,1.506t-1.691-.324l-4.226-2.44m4.249-5.721-6.056-3.5-.05,17.473,1.83,1.056.021-7.459,4.226,2.44q2.047,1.182,3.151.478t1.111-3.032a8.661,8.661,0,0,0-1.09-4.3,8.2,8.2,0,0,0-3.144-3.157" transform="translate(1972.73 -2797.999)"/><path class="a" d="M-1867.587,2883.614l-1.742-1.006-.047,16.447a3.61,3.61,0,0,0,.464,1.759,3.547,3.547,0,0,0,1.383,1.388l1.546.893.005-1.777-1.656-.956.047-16.748" transform="translate(1922.105 -2823.13)"/><path class="a" d="M-1840.728,2943.951a4.9,4.9,0,0,1-1.622-1.463,3.159,3.159,0,0,1-.594-1.824v-.524q0-.953.69-1.056a4.006,4.006,0,0,1,2.191.764l2.31,1.334-.006,2.127a1.335,1.335,0,0,1-.221.8,1.045,1.045,0,0,1-.613.4,1.912,1.912,0,0,1-.937-.041,4.825,4.825,0,0,1-1.2-.516m.426-11.59a4.047,4.047,0,0,0-2.529-.72,1.946,1.946,0,0,0-1.465.948l1.042,1.73a1.831,1.831,0,0,1,1.148-.742,2.609,2.609,0,0,1,1.711.461,5.358,5.358,0,0,1,2,1.884,4.76,4.76,0,0,1,.648,2.479l0,1.278-2.222-1.283q-2.463-1.422-3.63-1.119t-1.174,2.131a6.451,6.451,0,0,0,.983,3.426,7.643,7.643,0,0,0,2.775,2.655,3.328,3.328,0,0,0,2.028.569,1.507,1.507,0,0,0,1.226-1.1l.108.063a5.31,5.31,0,0,0,.529,1.81,3.41,3.41,0,0,0,1.4,1.412l.98.566.005-1.777-1.285-.741.02-7.094a7.092,7.092,0,0,0-1.124-3.852,8.917,8.917,0,0,0-3.177-2.985" transform="translate(1902.54 -2862.104)"/><path class="a" d="M-1781.094,2960.878l-1.722-.994-2.748,7.2-.616,1.746-.108-.062-.517-2.4-2.677-10.33-1.742-1.006,4.166,15.825-.857,2.258-1.765-1.019-.005,1.778.894.516a6.163,6.163,0,0,0,1.034.5,1.363,1.363,0,0,0,.709.083.8.8,0,0,0,.481-.336,3.967,3.967,0,0,0,.395-.738l5.078-13.016" transform="translate(1859.954 -2880.724)"/><path class="a" d="M-1726.423,2982.2a6.521,6.521,0,0,1-1.123-.824,6.082,6.082,0,0,1-.924-1.051,5.25,5.25,0,0,1-.619-1.187,3.6,3.6,0,0,1-.226-1.252l.014-4.831a1.491,1.491,0,0,1,.231-.862,1.054,1.054,0,0,1,.623-.433,1.982,1.982,0,0,1,.927.018,4.025,4.025,0,0,1,1.124.461,6.066,6.066,0,0,1,2.328,2.413,6.781,6.781,0,0,1,.842,3.3l-.006,2.214a2.638,2.638,0,0,1-.858,2.315q-.852.58-2.333-.276m-2.85-18.721-1.742-1.006-.052,18.525,1.742,1.006.006-2.079.088.051a7.428,7.428,0,0,0,3.282,4.278,4.03,4.03,0,0,0,1.9.62,2.057,2.057,0,0,0,1.453-.516,3.362,3.362,0,0,0,.921-1.6,9.379,9.379,0,0,0,.323-2.623,13.794,13.794,0,0,0-.307-2.985,11.793,11.793,0,0,0-.909-2.657,9.831,9.831,0,0,0-1.446-2.189,7.519,7.519,0,0,0-1.894-1.571,3.4,3.4,0,0,0-2.016-.58,1.606,1.606,0,0,0-1.28,1.061l-.088-.051.022-7.686" transform="translate(1812.114 -2886.647)"/><path class="a" d="M-1668.245,3044.928a6.327,6.327,0,0,1-2.307-2.335,6.887,6.887,0,0,1-.884-3.569l.005-1.852q.006-2.052.9-2.54a2.356,2.356,0,0,1,2.313.333,6.336,6.336,0,0,1,2.307,2.334,6.9,6.9,0,0,1,.884,3.571l-.005,1.852q-.006,2.052-.9,2.538a2.352,2.352,0,0,1-2.313-.332m.033-11.741a4.906,4.906,0,0,0-2.071-.719,2.305,2.305,0,0,0-1.6.439,3.263,3.263,0,0,0-1.041,1.543,7.7,7.7,0,0,0-.378,2.566,12.076,12.076,0,0,0,.362,3.005,12.528,12.528,0,0,0,1.029,2.725,10.523,10.523,0,0,0,1.6,2.29,8.78,8.78,0,0,0,2.068,1.669,4.849,4.849,0,0,0,2.06.714,2.366,2.366,0,0,0,1.605-.441,3.184,3.184,0,0,0,1.052-1.523,7.676,7.676,0,0,0,.378-2.579,12.147,12.147,0,0,0-.362-2.993,12.327,12.327,0,0,0-1.04-2.744,10.9,10.9,0,0,0-1.6-2.289,8.643,8.643,0,0,0-2.057-1.665" transform="translate(1766.178 -2942.302)"/><path class="a" d="M-1608.657,3079.332a6.32,6.32,0,0,1-2.306-2.335,6.88,6.88,0,0,1-.885-3.57l.005-1.853q.006-2.052.9-2.539a2.35,2.35,0,0,1,2.311.333,6.333,6.333,0,0,1,2.307,2.334,6.9,6.9,0,0,1,.884,3.571l-.005,1.852q-.006,2.053-.9,2.538a2.351,2.351,0,0,1-2.313-.332m.033-11.742a4.908,4.908,0,0,0-2.071-.718,2.306,2.306,0,0,0-1.605.439,3.262,3.262,0,0,0-1.041,1.542,7.706,7.706,0,0,0-.378,2.565,12.083,12.083,0,0,0,.362,3.006,12.544,12.544,0,0,0,1.029,2.725,10.526,10.526,0,0,0,1.6,2.29,8.781,8.781,0,0,0,2.068,1.669,4.841,4.841,0,0,0,2.06.714,2.36,2.36,0,0,0,1.6-.441,3.17,3.17,0,0,0,1.052-1.523,7.661,7.661,0,0,0,.379-2.578,12.14,12.14,0,0,0-.363-2.993,12.259,12.259,0,0,0-1.04-2.744,10.868,10.868,0,0,0-1.6-2.288,8.64,8.64,0,0,0-2.057-1.665" transform="translate(1718.79 -2969.662)"/><path class="a" d="M-1548.377,3067.923l-1.742-1.006-.052,18.525,1.742,1.006.013-4.605,1.683-1.01,3.707,8.734,2.114,1.22-4.553-10.452,4.175-2.7-2.112-1.219-3.193,2.094-1.726,1.209-.088-.051.033-11.74" transform="translate(1668.254 -2969.704)"/></g></g></g></g></g><g transform="translate(-8659.843 -7865)"><g class="az" transform="matrix(1, 0, 0, 1, 9063.84, 10516.25)"><path class="a" d="M14.97,0H119.758a14.97,14.97,0,0,1,14.97,14.97v97.3a14.97,14.97,0,0,1-14.97,14.97H14.97A14.97,14.97,0,0,1,0,112.273V14.97A14.97,14.97,0,0,1,14.97,0Z" transform="translate(405.27 147.75)"/></g><g transform="translate(9468.362 10667.917)"><g class="ag" transform="translate(0 0)"><g transform="translate(30.741 8.693)"><path class="ah" d="M2452.55,2796.153a.641.641,0,0,1,.652,1.069,15.1,15.1,0,0,0-3.945,6.14c-1.3,3.7-1.435,7.661-1.752,11.55s-.86,7.877-2.853,11.288-5.748,6.148-9.851,6c0-6.878.034-13.911,2.444-20.4s8.232-14.178,15.305-15.645Z" transform="translate(-2421.005 -2779.637)"/><path class="ai" d="M2449.725,2950.289h-73.15q.952-10.5,1.9-21a24.609,24.609,0,0,1,1.689-8.146,9.719,9.719,0,0,1,6.418-5.567c2.686-.616,24.427-6.624,26.565-7.214,2.139.591,23.881,6.6,26.567,7.214a9.718,9.718,0,0,1,6.416,5.567,24.548,24.548,0,0,1,1.689,8.146Q2448.773,2939.786,2449.725,2950.289Z" transform="translate(-2376.575 -2865.275)"/><path class="ah" d="M2500.585,2736.622a11.225,11.225,0,0,0-3.823-7.605c-2.546-2.123-6.095-2.438-9.352-2.482a19.223,19.223,0,0,0-7.795,1.366c-3.573,1.53-5.165,5.2-5.477,8.722a32.17,32.17,0,0,0,.951,9.146s12.258.767,12.258.769h.015s.015,0,.015,0l12.258-.767A32.178,32.178,0,0,0,2500.585,2736.622Z" transform="translate(-2450.972 -2726.532)"/><path class="aj" d="M2512.336,2862.3q-.461-7.109-.921-14.218l-7.133-2.668v.007l-7.127,2.666q-.46,7.107-.921,14.213a4.457,4.457,0,0,0,1.666,3.42,9.394,9.394,0,0,0,12.787-.011A4.45,4.45,0,0,0,2512.336,2862.3Z" transform="translate(-2467.877 -2817.246)"/><path class="ak" d="M2499.915,2848.914a32.306,32.306,0,0,0,14.965,9.219q-.326-5.026-.651-10.052l-7.133-2.668v.007l-7.128,2.666Q2499.942,2848.5,2499.915,2848.914Z" transform="translate(-2470.691 -2817.246)"/><path class="aj" d="M2503.812,2755.847c-1.232-3.686-3.811-6.4-6.656-7a5.534,5.534,0,0,0-1.063-.121c-.946-.014-4.61-.014-5.556,0a5.527,5.527,0,0,0-1.062.121c-2.844.6-5.424,3.316-6.656,7a24.71,24.71,0,0,0-.779,10.142,12.946,12.946,0,0,0,2.055,6.349,16.568,16.568,0,0,0,5.479,5.68,10.092,10.092,0,0,0,2.98,1.458,1.937,1.937,0,0,0,.345.074,4.171,4.171,0,0,0,.831,0,1.925,1.925,0,0,0,.345-.074,10.093,10.093,0,0,0,2.98-1.458,16.574,16.574,0,0,0,5.479-5.68,12.941,12.941,0,0,0,2.055-6.349A24.7,24.7,0,0,0,2503.812,2755.847Z" transform="translate(-2456.911 -2743.458)"/><g transform="translate(21.281 15.449)"><path class="aj" d="M2470.711,2793.917a1.973,1.973,0,0,0-.757-1.478,4.511,4.511,0,0,0-1.136-.595,1.7,1.7,0,0,0-1.926.5,3.582,3.582,0,0,0-.408,2.738,9.068,9.068,0,0,0,2.751,4.905.92.92,0,0,0,.806.27c.715-.14.815-1.088.82-1.864Q2470.874,2796.152,2470.711,2793.917Z" transform="translate(-2466.394 -2791.736)"/></g><g transform="translate(47.048 15.449)"><path class="aj" d="M2575.293,2793.917a1.974,1.974,0,0,1,.757-1.478,4.517,4.517,0,0,1,1.136-.595,1.694,1.694,0,0,1,1.926.5,3.583,3.583,0,0,1,.408,2.738,9.068,9.068,0,0,1-2.751,4.905.92.92,0,0,1-.806.27c-.715-.14-.815-1.088-.82-1.864Q2575.13,2796.152,2575.293,2793.917Z" transform="translate(-2575.143 -2791.736)"/></g><path class="ah" d="M2497.495,2735.589a2.65,2.65,0,0,0-1.762-.534,30.977,30.977,0,0,0-6.6.4c-2.719.46-5.525,1.385-7.264,3.425-1.692,1.985-1.91,4.693-2.415,7.2q-.118.584-.235,1.169a5.79,5.79,0,0,0,5.935-3.1c.508-1.1.678-2.443,1.683-3.174a5.128,5.128,0,0,1,3.256-.528,13.336,13.336,0,0,0,4.011-.318,5.836,5.836,0,0,0,3.282-2.1A1.927,1.927,0,0,0,2497.495,2735.589Z" transform="translate(-2454.902 -2733.01)"/><path class="al" d="M2424.194,3026.393a42.258,42.258,0,0,0-1.059-15.348q-.368-1.406-.84-2.761-.078,2.157-.157,4.313-.03.807-.059,1.613l-.026,12.183Z" transform="translate(-2411.278 -2941.527)"/><path class="al" d="M2628.663,3026.393a42.269,42.269,0,0,1,1.059-15.348q.368-1.406.84-2.761.079,2.157.158,4.313.03.807.059,1.613.013,6.092.026,12.183Z" transform="translate(-2568.728 -2941.527)"/><path class="a" d="M2516.532,2842.616a4.112,4.112,0,0,0,4.213-4h-8.426A4.112,4.112,0,0,0,2516.532,2842.616Z" transform="translate(-2480.156 -2812.058)"/></g></g></g><text class="am" transform="translate(9495 10768)"><tspan x="0" y="0">HR ISSUES</tspan></text></g><g transform="translate(-8804 -8135)"><g class="ay" transform="matrix(1, 0, 0, 1, 9208, 10786.25)"><path class="a" d="M14.461,0H115.687a14.461,14.461,0,0,1,14.461,14.461v94a14.461,14.461,0,0,1-14.461,14.461H14.461A14.461,14.461,0,0,1,0,108.457v-94A14.461,14.461,0,0,1,14.461,0Z" transform="translate(264.28 97.48)"/></g><text class="an" transform="translate(9539 10973)"><tspan x="-21.147" y="0">STAFF </tspan><tspan x="-39.47" y="16">FULFILMENT</tspan></text><g transform="translate(9472.045 10883)"><g class="ao" transform="translate(0 0)"><g transform="translate(30.094 8.51)"><path class="ap" d="M3127.726,2766.764l-2.92,43.468h15.866v-44.179Z" transform="translate(-3105.047 -2756.886)"/><path class="ap" d="M3206.032,2766.764l2.92,43.468h-15.865v-44.179Z" transform="translate(-3157.491 -2756.886)"/><path class="aq" d="M3111.23,2949.406h-71.61q.932-10.281,1.862-20.562a24.087,24.087,0,0,1,1.654-7.975,9.512,9.512,0,0,1,6.282-5.45c2.63-.6,23.914-6.484,26.006-7.063,2.094.579,23.378,6.459,26.007,7.063a9.511,9.511,0,0,1,6.281,5.45,24.014,24.014,0,0,1,1.654,7.975Q3110.3,2939.124,3111.23,2949.406Z" transform="translate(-3039.62 -2866.182)"/><path class="ap" d="M3163.072,2736.41a10.989,10.989,0,0,0-3.743-7.446c-2.492-2.078-5.966-2.387-9.155-2.43a18.821,18.821,0,0,0-7.631,1.337c-3.5,1.5-5.056,5.086-5.361,8.538a31.492,31.492,0,0,0,.931,8.954s12,.751,12,.752h.014s.014,0,.014,0l12-.751A31.484,31.484,0,0,0,3163.072,2736.41Z" transform="translate(-3114.503 -2726.532)"/><path class="aj" d="M3175.042,2861.944q-.451-6.96-.9-13.919l-6.982-2.612v.007l-6.978,2.61q-.45,6.957-.9,13.914a4.362,4.362,0,0,0,1.631,3.347,9.2,9.2,0,0,0,12.518-.011A4.358,4.358,0,0,0,3175.042,2861.944Z" transform="translate(-3131.52 -2817.839)"/><path class="ak" d="M3162.96,2848.84a31.62,31.62,0,0,0,14.65,9.025q-.319-4.92-.637-9.84l-6.983-2.612v.007l-6.978,2.61Q3162.986,2848.435,3162.96,2848.84Z" transform="translate(-3134.352 -2817.839)"/><path class="aj" d="M3166.394,2755.7c-1.206-3.608-3.731-6.265-6.515-6.854a5.4,5.4,0,0,0-1.041-.118c-.926-.014-4.513-.014-5.438,0a5.393,5.393,0,0,0-1.041.118c-2.784.59-5.309,3.246-6.515,6.854a24.186,24.186,0,0,0-.763,9.928,12.676,12.676,0,0,0,2.011,6.215,16.221,16.221,0,0,0,5.364,5.56,9.875,9.875,0,0,0,2.918,1.427,1.886,1.886,0,0,0,.338.072,4.092,4.092,0,0,0,.813,0,1.886,1.886,0,0,0,.338-.072,9.875,9.875,0,0,0,2.918-1.427,16.227,16.227,0,0,0,5.363-5.56,12.677,12.677,0,0,0,2.012-6.215A24.178,24.178,0,0,0,3166.394,2755.7Z" transform="translate(-3120.481 -2743.569)"/><g transform="translate(20.833 15.124)"><path class="aj" d="M3133.666,2793.871a1.933,1.933,0,0,0-.741-1.447,4.426,4.426,0,0,0-1.112-.582,1.659,1.659,0,0,0-1.886.49,3.507,3.507,0,0,0-.4,2.68,8.88,8.88,0,0,0,2.693,4.8.9.9,0,0,0,.789.264c.7-.137.8-1.066.8-1.825Q3133.825,2796.06,3133.666,2793.871Z" transform="translate(-3129.439 -2791.736)"/></g><g transform="translate(46.057 15.124)"><path class="aj" d="M3238.335,2793.871a1.933,1.933,0,0,1,.741-1.447,4.43,4.43,0,0,1,1.112-.582,1.66,1.66,0,0,1,1.886.49,3.508,3.508,0,0,1,.4,2.68,8.879,8.879,0,0,1-2.693,4.8.9.9,0,0,1-.789.264c-.7-.137-.8-1.066-.8-1.825Q3238.176,2796.06,3238.335,2793.871Z" transform="translate(-3238.188 -2791.736)"/></g><path class="ap" d="M3167.334,2735.577a2.6,2.6,0,0,1,1.725-.523,30.327,30.327,0,0,1,6.457.392c2.663.451,5.409,1.356,7.111,3.353,1.657,1.944,1.87,4.594,2.364,7.051q.114.572.23,1.144a5.668,5.668,0,0,1-5.81-3.032c-.5-1.078-.665-2.392-1.648-3.107a5.02,5.02,0,0,0-3.188-.517,13.059,13.059,0,0,1-3.927-.311,5.715,5.715,0,0,1-3.213-2.061A1.887,1.887,0,0,1,3167.334,2735.577Z" transform="translate(-3137.415 -2733.053)"/><path class="ar" d="M3087.195,3026.012a41.366,41.366,0,0,0-1.036-15.025q-.361-1.377-.822-2.7-.077,2.112-.154,4.222-.029.79-.058,1.579l-.025,11.927Z" transform="translate(-3074.55 -2942.932)"/><path class="ar" d="M3291.7,3026.012a41.371,41.371,0,0,1,1.036-15.025q.361-1.377.822-2.7l.155,4.222q.029.79.058,1.579.013,5.963.025,11.927Z" transform="translate(-3233.029 -2942.932)"/><path class="a" d="M3179.489,2842.532a4.025,4.025,0,0,0,4.124-3.918h-8.248A4.025,4.025,0,0,0,3179.489,2842.532Z" transform="translate(-3143.879 -2812.617)"/></g></g></g></g><g transform="translate(-9089 -8038)"><g class="ax" transform="matrix(1, 0, 0, 1, 9493, 10689.25)"><path class="a" d="M14.678,0H117.423A14.678,14.678,0,0,1,132.1,14.678v95.406a14.678,14.678,0,0,1-14.678,14.678H14.678A14.678,14.678,0,0,1,0,110.084V14.678A14.678,14.678,0,0,1,14.678,0Z" transform="translate(263.75 224.75)"/></g><g transform="translate(9755.024 10917.328)"><g class="as" transform="translate(0)"><g transform="translate(27.248 4.768)"><path class="at" d="M3091.448,3326.556a25.494,25.494,0,0,0-1.608-8.123,9.394,9.394,0,0,0-6.109-5.551c-.3-.072-.866-.218-1.638-.419-1.135-.345-2.294-.625-3.424-.9-7.957-2.112-22.068-5.92-22.068-5.92l-.016.017-.057-.017a2.063,2.063,0,0,1-3.681,0l-.056.017-.017-.017s-14.11,3.808-22.068,5.92c-1.13.278-2.289.558-3.423.9-.772.2-1.34.346-1.639.419a9.4,9.4,0,0,0-6.109,5.551,25.507,25.507,0,0,0-1.608,8.123q-.906,10.472-1.811,20.943h77.142Q3092.353,3337.028,3091.448,3326.556Z" transform="translate(-3016.116 -3259.672)"/><path class="au" d="M3162.942,3265.676l-.039.031a13.9,13.9,0,0,1-17-.036h0q.371-5.8.743-11.591l7.774-2.941v-.007l7.781,2.942Q3162.57,3259.875,3162.942,3265.676Z" transform="translate(-3115.84 -3217.924)"/><path class="av" d="M3148.855,3254.993a35.183,35.183,0,0,0,16.324,10.165q-.356-5.542-.71-11.084l-7.781-2.942v.008l-7.774,2.939Q3148.885,3254.536,3148.855,3254.993Z" transform="translate(-3118.11 -3217.925)"/><path class="ap" d="M3148.939,3129.607a12.423,12.423,0,0,0-4.171-8.386c-2.777-2.341-6.648-2.688-10.2-2.737a20.766,20.766,0,0,0-8.5,1.506c-3.9,1.687-5.634,5.729-5.974,9.616a35.829,35.829,0,0,0,1.037,10.085s13.371.846,13.371.848h.016s.016,0,.016,0l13.37-.846A35.829,35.829,0,0,0,3148.939,3129.607Z" transform="translate(-3095.953 -3116.332)"/><path class="au" d="M3152.653,3151.1c-1.343-4.064-4.157-7.056-7.26-7.72a5.983,5.983,0,0,0-1.159-.133c-1.032-.016-5.028-.016-6.06,0a5.949,5.949,0,0,0-1.159.133c-3.1.664-5.917,3.656-7.26,7.72a27.524,27.524,0,0,0-.85,11.182,14.379,14.379,0,0,0,2.242,7,18.175,18.175,0,0,0,5.976,6.262c1.02.654,7.141.654,8.162,0a18.191,18.191,0,0,0,5.977-6.262,14.39,14.39,0,0,0,2.242-7A27.536,27.536,0,0,0,3152.653,3151.1Z" transform="translate(-3102.626 -3135.288)"/><g transform="translate(22.082 19.184)"><path class="au" d="M3116.161,3193.643a2.183,2.183,0,0,0-.825-1.63,4.919,4.919,0,0,0-1.24-.656,1.835,1.835,0,0,0-2.1.552,3.989,3.989,0,0,0-.445,3.019,10.03,10.03,0,0,0,3,5.409,1,1,0,0,0,.879.3c.78-.155.89-1.2.894-2.055C3116.333,3196.932,3116.279,3195.283,3116.161,3193.643Z" transform="translate(-3111.452 -3191.237)"/></g><g transform="translate(50.188 19.184)"><path class="au" d="M3232.961,3193.643a2.184,2.184,0,0,1,.826-1.63,4.9,4.9,0,0,1,1.24-.656,1.835,1.835,0,0,1,2.1.552,3.988,3.988,0,0,1,.445,3.019,10.024,10.024,0,0,1-3,5.409,1,1,0,0,1-.879.3c-.78-.155-.889-1.2-.894-2.055C3232.789,3196.932,3232.843,3195.283,3232.961,3193.643Z" transform="translate(-3232.797 -3191.237)"/></g><path class="aw" d="M3071.1,3425.886a42.21,42.21,0,0,0-1.035-15.167q-.36-1.389-.821-2.728l-.154,4.262c-.02.532-.038,1.063-.058,1.594l-.025,12.039Z" transform="translate(-3056.754 -3338.058)"/><path class="aw" d="M3286.369,3425.886a42.2,42.2,0,0,1,1.035-15.167q.36-1.389.821-2.728.077,2.131.154,4.262c.02.532.037,1.063.058,1.594l.025,12.039Z" transform="translate(-3223.57 -3338.058)"/><g transform="translate(24.066)"><path class="ap" d="M3120.017,3127.213c1.334-4.119,2.128-7.573,6.276-9.983,4.125-2.4,9.62-2.085,13.839-.086,1.077.51,6.426,3.222,4.137,4.715a1.565,1.565,0,0,1-.291.146,1.024,1.024,0,0,0-.6,1.375,2.164,2.164,0,0,1-.9,2.552,6.516,6.516,0,0,1-4.114,1.264,14.332,14.332,0,0,1-4.3-.843,5.553,5.553,0,0,0-3.579-.4c-1.287.478-1.9,1.849-2.785,2.865a6.421,6.421,0,0,1-7.212,1.534C3120.7,3129.963,3120.58,3127.4,3120.017,3127.213Z" transform="translate(-3120.017 -3114.077)"/><path class="ap" d="M3149.022,3122.874c-.005-.1-.011-.207-.012-.31a17.172,17.172,0,0,0-.208-2.5,13.323,13.323,0,0,0-2.881-6.653c-2.422-2.828-6.1-3.849-9.784-4.067a30.97,30.97,0,0,0-3.325-.006,14.418,14.418,0,0,0-7.956,2.445,11.674,11.674,0,0,0-4.1,6.006,16.5,16.5,0,0,0-.732,4.761h0v1.689h0a.314.314,0,0,1,.308.217c.455,1.488,1.316,4.271,1.407,4.348a11.677,11.677,0,0,1,5.333-7.993,15.087,15.087,0,0,1,13.926-.532,11.915,11.915,0,0,1,1.7,1.014,11.063,11.063,0,0,1,2.818,2.921,11.507,11.507,0,0,1,1.078,2.087,12.639,12.639,0,0,1,.412,1.221,5.147,5.147,0,0,1,.308,1.269c.121-.2.878-2.645,1.334-4.126l.366.073v-.076c0-.066,0-.131,0-.2,0-.091,0-.182,0-.273s0-.2.005-.3,0-.192.005-.288q0-.115,0-.229c0-.047,0-.093,0-.139C3149.03,3123.117,3149.028,3123,3149.022,3122.874Z" transform="translate(-3120.017 -3109.3)"/></g><path class="a" d="M3169.567,3248.705a4.039,4.039,0,0,0,4.118-3.955h-8.237A4.039,4.039,0,0,0,3169.567,3248.705Z" transform="translate(-3130.86 -3213.037)"/></g></g></g><text class="am" transform="translate(9825 11015)"><tspan x="-27.58" y="0">OTHERS</tspan></text></g></g></svg>